<?xml version="1.0" encoding="UTF-8" standalone="no"?>
<svg
   xmlns:dc="http://purl.org/dc/elements/1.1/"
   xmlns:cc="http://creativecommons.org/ns#"
   xmlns:rdf="http://www.w3.org/1999/02/22-rdf-syntax-ns#"
   xmlns:svg="http://www.w3.org/2000/svg"
   xmlns="http://www.w3.org/2000/svg"
   xmlns:sodipodi="http://sodipodi.sourceforge.net/DTD/sodipodi-0.dtd"
   xmlns:inkscape="http://www.inkscape.org/namespaces/inkscape"
   inkscape:version="1.0 (4035a4fb49, 2020-05-01)"
   sodipodi:docname="USGS_616_colour_nobox.svg"
   id="svg17464"
   preserveAspectRatio="xMidYMid meet"
   viewBox="0 0 1125.000000 900.000000"
   height="900.000000pt"
   width="1125.000000pt"
   version="1.0">
  <defs
     id="defs17468" />
  <sodipodi:namedview
     inkscape:current-layer="svg17464"
     inkscape:window-maximized="1"
     inkscape:window-y="-8"
     inkscape:window-x="1912"
     inkscape:cy="600"
     inkscape:cx="750"
     inkscape:zoom="0.68916667"
     showgrid="false"
     id="namedview17466"
     inkscape:window-height="1017"
     inkscape:window-width="1920"
     inkscape:pageshadow="2"
     inkscape:pageopacity="0"
     guidetolerance="10"
     gridtolerance="10"
     objecttolerance="10"
     borderopacity="1"
     bordercolor="#666666"
     pagecolor="#ffffff" />
  <metadata
     id="metadata17142">
Created by potrace 1.13, written by Peter Selinger 2001-2015
<rdf:RDF>
  <cc:Work
     rdf:about="">
    <dc:format>image/svg+xml</dc:format>
    <dc:type
       rdf:resource="http://purl.org/dc/dcmitype/StillImage" />
    <dc:title></dc:title>
  </cc:Work>
</rdf:RDF>
</metadata>
  <path
     style="stroke-width:0.1"
     d="m 276,38.3 c -5.2,2.6 -4.9,10.4 0.4,12.8 3.6,1.7 7.3,0.3 9.2,-3.2 1.9,-3.8 0.6,-8 -3.2,-9.8 -3.1,-1.4 -3.3,-1.4 -6.4,0.2 z"
     id="path17146" />
  <path
     style="stroke-width:0.1"
     d="m 324.6,39.1 c -3.6,2.8 -3.6,8 0,10.8 1.5,1.2 3.4,2.1 4.4,2.1 3.4,0 7,-3.9 7,-7.5 0,-3.6 -3.6,-7.5 -7,-7.5 -1,0 -2.9,0.9 -4.4,2.1 z"
     id="path17148" />
  <path
     style="stroke-width:0.1"
     d="m 373.3,38.2 c -6.8,3.3 -4,13.8 3.7,13.8 2.8,0 7,-4.4 7,-7.3 0,-5.1 -6.1,-8.8 -10.7,-6.5 z"
     id="path17150" />
  <path
     style="stroke-width:0.1"
     d="m 645.6,39.1 c -1.9,1.5 -2.6,3 -2.6,5.4 0,3.6 3.6,7.5 7,7.5 3.4,0 7,-3.9 7,-7.5 0,-3.6 -3.6,-7.5 -7,-7.5 -1,0 -2.9,0.9 -4.4,2.1 z"
     id="path17152" />
  <path
     style="stroke-width:0.1"
     d="m 699.6,39.1 c -1.9,1.5 -2.6,3 -2.6,5.4 0,3.6 3.6,7.5 7,7.5 3.4,0 7,-3.9 7,-7.5 0,-3.6 -3.6,-7.5 -7,-7.5 -1,0 -2.9,0.9 -4.4,2.1 z"
     id="path17154" />
  <path
     style="stroke-width:0.1"
     d="m 747.8,38.5 c -5.3,2.9 -4.2,11.6 1.6,13.1 8.4,2.1 13.1,-9.2 5.6,-13.1 -3.5,-1.8 -3.8,-1.8 -7.2,0 z"
     id="path17156" />
  <path
     style="stroke-width:0.1"
     d="m 1022.7,39.2 c -3.7,3.3 -4,7.5 -0.7,10.8 2.7,2.7 6.6,2.5 9.5,-0.5 2.9,-2.8 3.2,-6.5 0.8,-9.3 -2.8,-3.3 -6.6,-3.7 -9.6,-1 z"
     id="path17158" />
  <path
     style="stroke-width:0.1"
     d="m 1073,38.3 c -5.2,2.6 -4.9,10.4 0.5,12.9 5.8,2.6 11.9,-3.3 9.5,-9.1 -0.6,-1.6 -2.3,-3.3 -3.6,-4 -3.1,-1.4 -3.3,-1.4 -6.4,0.2 z"
     id="path17160" />
  <path
     style="stroke-width:0.1"
     d="m 45,44 v 3 H 139.5 234 V 44 41 H 139.5 45 Z"
     id="path17162" />
  <path
     style="stroke-width:0.1"
     d="m 420,44 v 3 H 514.5 609 V 44 41 H 514.5 420 Z"
     id="path17164" />
  <path
     style="stroke-width:0.1"
     d="m 795,44 v 3 H 889.5 984 V 44 41 H 889.5 795 Z"
     id="path17166" />
  <path
     style="stroke-width:0.1"
     d="m 73,102.7 c -5.3,1.9 -6.8,8.6 -2.8,12.3 6.3,5.8 15.7,-3.3 10.1,-9.8 -2,-2.3 -5,-3.3 -7.3,-2.5 z"
     id="path17168" />
  <path
     style="stroke-width:0.1"
     d="m 122,103.3 c -1.3,0.7 -3.1,2.4 -3.9,3.8 -3,5.3 3.6,11.7 9.4,9.1 5.5,-2.5 5.8,-10 0.5,-12.7 -3.5,-1.8 -2.9,-1.8 -6,-0.2 z"
     id="path17170" />
  <path
     style="stroke-width:0.1"
     d="m 169.3,103 c -4.8,1.9 -5.8,8.7 -1.7,11.9 5.3,4.1 11.4,1.3 11.4,-5.2 0,-5.1 -5,-8.6 -9.7,-6.7 z"
     id="path17172" />
  <path
     style="stroke-width:0.1"
     d="m 452.3,103 c -4.8,1.9 -5.8,8.7 -1.7,11.9 3.4,2.7 6.4,2.7 9.2,0.1 5.7,-5.3 -0.3,-14.9 -7.5,-12 z"
     id="path17174" />
  <path
     style="stroke-width:0.1"
     d="m 503,102.7 c -5.1,1.9 -6.8,8.5 -3,12.3 6.1,6.1 15.9,-3.3 10.3,-9.8 -2,-2.3 -5,-3.3 -7.3,-2.5 z"
     id="path17176" />
  <path
     style="stroke-width:0.1"
     d="m 549.5,103.2 c -5,2.7 -5.9,7.5 -2,11.3 4.2,4.3 10.6,2.3 12,-3.6 1.2,-4.8 -5.7,-10.1 -10,-7.7 z"
     id="path17178" />
  <path
     style="stroke-width:0.1"
     d="m 827.3,103 c -4.8,1.9 -5.8,8.7 -1.7,11.9 3.4,2.7 6.4,2.7 9.2,0.1 5.7,-5.3 -0.3,-14.9 -7.5,-12 z"
     id="path17180" />
  <path
     style="stroke-width:0.1"
     d="m 878,102.7 c -5.1,1.9 -6.8,8.5 -3,12.3 6.1,6.1 15.9,-3.3 10.3,-9.8 -2,-2.3 -5,-3.3 -7.3,-2.5 z"
     id="path17182" />
  <path
     style="stroke-width:0.1"
     d="m 924,103.3 c -3.3,1.6 -4.7,5.8 -3.2,9.2 2.5,5.5 10,5.8 12.7,0.5 3.2,-6.1 -3.3,-12.8 -9.5,-9.7 z"
     id="path17184" />
  <path
     style="stroke-width:0.1"
     d="m 217,109 v 3 h 94.5 94.5 v -3 -3 H 311.5 217 Z"
     id="path17186" />
  <path
     style="stroke-width:0.1"
     d="m 598,109 v 3 h 94.6 94.5 l -0.3,-2.8 -0.3,-2.7 -94.2,-0.3 L 598,106 Z"
     id="path17188" />
  <path
     style="stroke-width:0.1"
     d="m 272.7,164.2 c -3.7,3.3 -4,7.5 -0.7,10.8 2.7,2.7 6.6,2.5 9.5,-0.5 2.9,-2.8 3.2,-6.5 0.8,-9.3 -2.8,-3.3 -6.6,-3.7 -9.6,-1 z"
     id="path17190" />
  <path
     style="stroke-width:0.1"
     d="m 323,163.3 c -5.2,2.6 -4.9,10.4 0.5,12.9 5.8,2.6 11.9,-3.3 9.5,-9.1 -0.6,-1.6 -2.3,-3.3 -3.6,-4 -3.1,-1.4 -3.3,-1.4 -6.4,0.2 z"
     id="path17192" />
  <path
     style="stroke-width:0.1"
     d="m 369.6,164.1 c -3.6,2.8 -3.6,8 0,10.8 1.5,1.2 3.4,2.1 4.4,2.1 3.4,0 7,-3.9 7,-7.5 0,-3.6 -3.6,-7.5 -7,-7.5 -1,0 -2.9,0.9 -4.4,2.1 z"
     id="path17194" />
  <path
     style="stroke-width:0.1"
     d="m 644,163.3 c -5.2,2.6 -4.9,10.4 0.4,12.8 3.6,1.7 7.3,0.3 9.2,-3.2 1.9,-3.8 0.6,-8 -3.2,-9.8 -3.1,-1.4 -3.3,-1.4 -6.4,0.2 z"
     id="path17196" />
  <path
     style="stroke-width:0.1"
     d="m 698,163.3 c -5.2,2.6 -4.9,10.4 0.5,12.9 5.8,2.6 11.9,-3.3 9.5,-9.1 -0.6,-1.6 -2.3,-3.3 -3.6,-4 -3.1,-1.4 -3.3,-1.4 -6.4,0.2 z"
     id="path17198" />
  <path
     style="stroke-width:0.1"
     d="m 744.6,164.1 c -1.9,1.5 -2.6,3 -2.6,5.4 0,3.6 3.6,7.5 7,7.5 1,0 2.9,-0.9 4.4,-2.1 3.4,-2.7 3.5,-7.1 0.1,-10.4 -3,-3 -5.4,-3.1 -8.9,-0.4 z"
     id="path17200" />
  <path
     style="stroke-width:0.1"
     d="m 1019.5,164.5 c -3.4,3.3 -3.3,7.7 0.1,10.4 1.5,1.2 3.4,2.1 4.4,2.1 3.4,0 7,-3.9 7,-7.5 0,-2.4 -0.7,-3.9 -2.6,-5.4 -3.5,-2.7 -5.9,-2.6 -8.9,0.4 z"
     id="path17202" />
  <path
     style="stroke-width:0.1"
     d="m 1069.7,164 c -7.2,5.7 0.8,16.7 8.1,11.3 5.1,-3.8 3.4,-11.4 -2.8,-12.8 -1.8,-0.4 -3.4,0 -5.3,1.5 z"
     id="path17204" />
  <path
     style="stroke-width:0.1"
     d="m 48,169 v 3 h 94.5 94.5 v -3 -3 H 142.5 48 Z"
     id="path17206" />
  <path
     style="stroke-width:0.1"
     d="m 420,169 v 3 h 94.5 94.5 v -3 -3 H 514.5 420 Z"
     id="path17208" />
  <path
     style="stroke-width:0.1"
     d="m 803,169 v 3 h 94.5 94.5 v -3 -3 H 897.5 803 Z"
     id="path17210" />
  <path
     style="stroke-width:0.1"
     d="m 67.5,228.5 c -2.8,2.7 -3.2,6.1 -1,9.2 4.9,7 16,0 12,-7.6 -2.4,-4.8 -7.2,-5.5 -11,-1.6 z"
     id="path17212" />
  <path
     style="stroke-width:0.1"
     d="m 117.6,228.1 c -3.6,2.8 -3.6,8 0,10.8 1.5,1.2 3.4,2.1 4.4,2.1 3.4,0 7,-3.9 7,-7.5 0,-3.6 -3.6,-7.5 -7,-7.5 -1,0 -2.9,0.9 -4.4,2.1 z"
     id="path17214" />
  <path
     style="stroke-width:0.1"
     d="m 164.5,228.5 c -1.4,1.3 -2.5,3.1 -2.5,3.9 0,3 2.3,6.5 5,7.6 5.8,2.4 12,-4.4 9,-9.9 -2.4,-4.6 -7.8,-5.3 -11.5,-1.6 z"
     id="path17216" />
  <path
     style="stroke-width:0.1"
     d="m 447.5,228.5 c -3.9,3.8 -2.8,9.3 2.3,11.4 8.2,3.4 14.1,-8.7 6.2,-12.9 -3.1,-1.6 -5.9,-1.2 -8.5,1.5 z"
     id="path17218" />
  <path
     style="stroke-width:0.1"
     d="m 497.5,228.5 c -6.3,6.3 1.8,16 8.8,10.5 3.5,-2.8 3.7,-8 0.5,-11 -2.9,-2.7 -6.4,-2.5 -9.3,0.5 z"
     id="path17220" />
  <path
     style="stroke-width:0.1"
     d="m 546.2,226.7 c -0.7,0.3 -1.9,1.8 -2.7,3.3 -4,7.7 7.1,14.7 12,7.7 4.2,-6 -2.4,-13.8 -9.3,-11 z"
     id="path17222" />
  <path
     style="stroke-width:0.1"
     d="m 822.5,228.5 c -1.4,1.3 -2.5,3 -2.5,3.7 0.1,5.9 5.1,9.8 10,7.8 3.6,-1.5 5.5,-5.7 4.1,-9.3 -1.9,-5.1 -7.7,-6.2 -11.6,-2.2 z"
     id="path17224" />
  <path
     style="stroke-width:0.1"
     d="m 872.5,228.5 c -6.3,6.3 1.8,16 8.8,10.5 3.5,-2.8 3.7,-8 0.5,-11 -2.9,-2.7 -6.4,-2.5 -9.3,0.5 z"
     id="path17226" />
  <path
     style="stroke-width:0.1"
     d="m 921.2,226.7 c -0.7,0.3 -1.9,1.8 -2.8,3.5 -1.3,2.4 -1.3,3.5 -0.4,5.8 3.1,7.4 14,5.1 14,-3 0,-4.5 -6.3,-8.1 -10.8,-6.3 z"
     id="path17228" />
  <path
     style="stroke-width:0.1"
     d="m 214.7,231.7 c -0.4,0.3 -0.7,1.7 -0.7,3 v 2.3 h 95 95 v -3 -3 h -94.3 c -51.9,0 -94.7,0.3 -95,0.7 z"
     id="path17230" />
  <path
     style="stroke-width:0.1"
     d="m 596,234 v 3 h 94 94 v -3 -3 h -94 -94 z"
     id="path17232" />
  <path
     style="stroke-width:0.1"
     d="m 234,291 c -4.3,4.3 -1.1,12 5,12 3.8,0 7,-3.2 7,-7 0,-3.8 -3.2,-7 -7,-7 -1.7,0 -3.9,0.9 -5,2 z"
     id="path17234" />
  <path
     style="stroke-width:0.1"
     d="m 283.5,291 c -4.2,4.7 -0.8,12 5.5,12 3.3,0 7,-4 7,-7.4 0,-5.7 -8.6,-8.9 -12.5,-4.6 z"
     id="path17236" />
  <path
     style="stroke-width:0.1"
     d="m 331,291 c -4.2,4.2 -0.8,12 5.3,12 5.8,0 9.1,-8.5 4.9,-12.3 -2.5,-2.3 -7.8,-2.1 -10.2,0.3 z"
     id="path17238" />
  <path
     style="stroke-width:0.1"
     d="m 604.1,291.6 c -2.7,3.5 -2.6,5.9 0.4,8.9 3.3,3.4 7.7,3.3 10.4,-0.1 1.2,-1.5 2.1,-3.4 2.1,-4.4 0,-3.4 -3.9,-7 -7.5,-7 -2.4,0 -3.9,0.7 -5.4,2.6 z"
     id="path17240" />
  <path
     style="stroke-width:0.1"
     d="m 654,291 c -2.6,2.6 -2.5,6 0.1,9.4 2.5,3.1 6.6,3.5 10,0.8 2.8,-2.3 3,-7.3 0.4,-10.2 -2.4,-2.6 -7.9,-2.6 -10.5,0 z"
     id="path17242" />
  <path
     style="stroke-width:0.1"
     d="m 706,291 c -1.1,1.1 -2,3.3 -2,5 0,1.7 0.9,3.9 2,5 4.5,4.5 12,1.1 12,-5.3 0,-2 -0.8,-4.1 -1.8,-5 -2.5,-2.3 -7.8,-2.1 -10.2,0.3 z"
     id="path17244" />
  <path
     style="stroke-width:0.1"
     d="m 981.2,291.3 c -2.8,2.9 -2.8,5.7 -0.1,9.1 3.6,4.6 11,2.6 12.4,-3.4 1.5,-6.5 -7.6,-10.7 -12.3,-5.7 z"
     id="path17246" />
  <path
     style="stroke-width:0.1"
     d="m 1031,291 c -4.3,4.3 -1.1,12 5,12 1.7,0 3.9,-0.9 5,-2 2.6,-2.6 2.6,-8.1 0.2,-10.3 -2.5,-2.3 -7.8,-2.1 -10.2,0.3 z"
     id="path17248" />
  <path
     style="stroke-width:0.1"
     d="m 1078.1,291.6 c -2.7,3.5 -2.6,5.9 0.4,8.9 3.3,3.4 7.7,3.3 10.4,-0.1 1.2,-1.5 2.1,-3.4 2.1,-4.4 0,-3.4 -3.9,-7 -7.5,-7 -2.4,0 -3.9,0.7 -5.4,2.6 z"
     id="path17250" />
  <path
     style="stroke-width:0.1"
     d="m 6,297 v 3 h 94.5 94.5 v -3 -3 H 100.5 6 Z"
     id="path17252" />
  <path
     style="stroke-width:0.1"
     d="m 381,297 v 3 h 94.5 94.5 v -3 -3 H 475.5 381 Z"
     id="path17254" />
  <path
     style="stroke-width:0.1"
     d="m 754,297 v 3 h 94.5 94.5 v -3 -3 H 848.5 754 Z"
     id="path17256" />
  <path
     style="stroke-width:0.1"
     d="m 24.1,356.6 c -1.2,1.5 -2.1,3.4 -2.1,4.4 0,1 0.9,2.9 2.1,4.4 4.1,5.2 12.2,2.3 12.2,-4.4 0,-6.7 -8.1,-9.6 -12.2,-4.4 z"
     id="path17258" />
  <path
     style="stroke-width:0.1"
     d="m 74,356 c -4.3,4.3 -1.1,12 5,12 3.8,0 7,-3.2 7,-7 0,-3.8 -3.2,-7 -7,-7 -1.7,0 -3.9,0.9 -5,2 z"
     id="path17260" />
  <path
     style="stroke-width:0.1"
     d="m 121.1,356.6 c -1.2,1.5 -2.1,3.4 -2.1,4.4 0,3.4 3.9,7 7.5,7 3.6,0 7.5,-3.6 7.5,-7 0,-3.4 -3.9,-7 -7.5,-7 -2.4,0 -3.9,0.7 -5.4,2.6 z"
     id="path17262" />
  <path
     style="stroke-width:0.1"
     d="m 404.1,356.6 c -1.2,1.5 -2.1,3.4 -2.1,4.4 0,3.4 3.9,7 7.5,7 3.6,0 7.5,-3.6 7.5,-7 0,-3.4 -3.9,-7 -7.5,-7 -2.4,0 -3.9,0.7 -5.4,2.6 z"
     id="path17264" />
  <path
     style="stroke-width:0.1"
     d="m 454,356.2 c -4.3,4.6 -1,11.8 5.4,11.8 4.1,0 6.9,-2.9 6.9,-7.2 0,-6.1 -8.1,-9.1 -12.3,-4.6 z"
     id="path17266" />
  <path
     style="stroke-width:0.1"
     d="m 501.9,355.8 c -4.8,4 -1.7,12.2 4.7,12.2 6.6,0 9.8,-7.4 5.1,-11.8 -2.8,-2.7 -6.7,-2.8 -9.8,-0.4 z"
     id="path17268" />
  <path
     style="stroke-width:0.1"
     d="m 779.1,356.6 c -1.2,1.5 -2.1,3.4 -2.1,4.4 0,3.4 3.9,7 7.5,7 3.6,0 7.5,-3.6 7.5,-7 0,-3.4 -3.9,-7 -7.5,-7 -2.4,0 -3.9,0.7 -5.4,2.6 z"
     id="path17270" />
  <path
     style="stroke-width:0.1"
     d="m 829,356.2 c -4.3,4.6 -1,11.8 5.4,11.8 4.2,0 6.6,-2.6 6.6,-7.3 0,-6.2 -7.7,-9.1 -12,-4.5 z"
     id="path17272" />
  <path
     style="stroke-width:0.1"
     d="m 876.5,356 c -4.1,4.5 -1,12 5,12 3.8,0 7.5,-3.5 7.5,-7.1 0,-5.8 -8.7,-9.1 -12.5,-4.9 z"
     id="path17274" />
  <path
     style="stroke-width:0.1"
     d="m 175,362 v 3 h 95 95 v -3 -3 h -95 -95 z"
     id="path17276" />
  <path
     style="stroke-width:0.1"
     d="m 554,362 v 3 h 94 94 v -3 -3 h -94 -94 z"
     id="path17278" />
  <path
     style="stroke-width:0.1"
     d="m 925,362 v 3 h 95 95 v -3 -3 h -95 -95 z"
     id="path17280" />
  <path
     style="stroke-width:0.1"
     d="m 189.9,416.8 c -4.9,4 -1.7,12.2 4.8,12.2 6.5,0 9.3,-6.1 5.2,-11.4 -2.5,-3.1 -6.6,-3.5 -10,-0.8 z"
     id="path17282" />
  <path
     style="stroke-width:0.1"
     d="m 239.5,417.5 c -3,2.9 -3.2,6.4 -0.5,9.3 3,3.2 8.2,3 11,-0.5 5.5,-7 -4.2,-15.1 -10.5,-8.8 z"
     id="path17284" />
  <path
     style="stroke-width:0.1"
     d="m 287,417 c -2.6,2.6 -2.6,8.1 -0.2,10.3 2.8,2.5 8.7,2.2 10.6,-0.5 5,-7.1 -4.3,-15.9 -10.4,-9.8 z"
     id="path17286" />
  <path
     style="stroke-width:0.1"
     d="m 560.1,417.6 c -4.1,5.3 -1.3,11.4 5.2,11.4 4.2,0 7,-2.9 7,-7.2 0,-6.4 -8.3,-9.2 -12.2,-4.2 z"
     id="path17288" />
  <path
     style="stroke-width:0.1"
     d="m 610.2,417 c -2.6,2.4 -2.9,6.6 -0.6,9.8 1.1,1.6 2.5,2.2 5.3,2.2 4.6,0 7.1,-2.4 7.1,-6.8 0,-6.4 -7.2,-9.5 -11.8,-5.2 z"
     id="path17290" />
  <path
     style="stroke-width:0.1"
     d="m 657.5,417.5 c -3,3 -3.1,5.4 -0.4,8.9 2,2.6 6.9,3.6 9.5,1.8 1.5,-1 3.4,-4.7 3.4,-6.7 0,-2.5 -4.6,-6.5 -7.5,-6.5 -1.4,0 -3.7,1.1 -5,2.5 z"
     id="path17292" />
  <path
     style="stroke-width:0.1"
     d="m 937.2,417.3 c -4.5,4.8 -1.7,11.7 4.7,11.7 4.6,0 7.1,-2.4 7.1,-6.8 0,-6.5 -7.4,-9.6 -11.8,-4.9 z"
     id="path17294" />
  <path
     style="stroke-width:0.1"
     d="m 987,417 c -2.6,2.6 -2.6,8.1 -0.2,10.3 4.4,4 12.2,0.7 12.2,-5.1 0,-6 -7.8,-9.4 -12,-5.2 z"
     id="path17296" />
  <path
     style="stroke-width:0.1"
     d="m 1034.1,417.6 c -4.1,5.3 -1.3,11.4 5.2,11.4 4.2,0 7,-2.9 7,-7.2 0,-6.4 -8.3,-9.2 -12.2,-4.2 z"
     id="path17298" />
  <path
     style="stroke-width:0.1"
     d="m 337,422 v 3 h 94.5 94.5 v -3 -3 H 431.5 337 Z"
     id="path17300" />
  <path
     style="stroke-width:0.1"
     d="m 717,422 v 3 h 94.5 94.5 v -3 -3 H 811.5 717 Z"
     id="path17302" />
  <path
     style="stroke-width:0.1"
     d="m 18,482 c -2.6,2.6 -2.6,8.1 0,10.5 2.9,2.6 7.9,2.4 10.2,-0.4 2.7,-3.4 2.3,-7.5 -0.8,-10 C 24,479.5 20.6,479.4 18,482 Z"
     id="path17304" />
  <path
     style="stroke-width:0.1"
     d="m 67.5,482.5 c -2.8,2.7 -3,4.2 -1.4,7.9 1.6,3.4 5.8,5.1 9.1,3.5 2.6,-1.1 4.8,-4.6 4.8,-7.5 0,-2.4 -4.7,-6.4 -7.5,-6.4 -1.4,0 -3.7,1.1 -5,2.5 z"
     id="path17306" />
  <path
     style="stroke-width:0.1"
     d="m 115.2,482.3 c -4.3,4.6 -1.5,12 4.6,12 6.7,0 9.7,-7.6 4.9,-12.1 -3,-2.8 -6.8,-2.8 -9.5,0.1 z"
     id="path17308" />
  <path
     style="stroke-width:0.1"
     d="m 398.2,482.3 c -4.5,4.8 -1.6,12 4.8,12 6.5,0 9.5,-7.6 4.7,-12.1 -3,-2.8 -6.8,-2.8 -9.5,0.1 z"
     id="path17310" />
  <path
     style="stroke-width:0.1"
     d="m 448,482 c -4.7,4.7 -1.5,12.3 5.1,12.3 6.3,0 9,-7.2 4.4,-11.8 -2.9,-3 -6.8,-3.2 -9.5,-0.5 z"
     id="path17312" />
  <path
     style="stroke-width:0.1"
     d="m 495.5,482.5 c -4.6,4.6 -1.9,11.8 4.4,11.8 6.6,0 9.8,-7.6 5.1,-12.3 -2.7,-2.7 -6.6,-2.5 -9.5,0.5 z"
     id="path17314" />
  <path
     style="stroke-width:0.1"
     d="m 773.2,482.3 c -4.5,4.8 -1.6,12 4.8,12 6.5,0 9.5,-7.6 4.7,-12.1 -3,-2.8 -6.8,-2.8 -9.5,0.1 z"
     id="path17316" />
  <path
     style="stroke-width:0.1"
     d="m 824.2,480.7 c -2.3,0.9 -4.3,6 -3.3,8.5 2.9,7.8 14.1,6.3 14.1,-1.9 0,-4.7 -6.1,-8.5 -10.8,-6.6 z"
     id="path17318" />
  <path
     style="stroke-width:0.1"
     d="m 870.6,482.1 c -5,3.9 -2.2,12.2 4.2,12.2 4.3,0 7.2,-2.8 7.2,-7 0,-6.5 -6.1,-9.3 -11.4,-5.2 z"
     id="path17320" />
  <path
     style="stroke-width:0.1"
     d="m 168,487 v 3 h 94.5 94.5 v -3 -3 H 262.5 168 Z"
     id="path17322" />
  <path
     style="stroke-width:0.1"
     d="m 546,487 v 3 h 94 94 v -3 -3 h -94 -94 z"
     id="path17324" />
  <path
     style="stroke-width:0.1"
     d="m 920,487 v 3 h 94.5 94.5 v -3 -3 H 1014.5 920 Z"
     id="path17326" />
  <path
     style="stroke-width:0.1"
     d="m 235,545 c -2.6,2.6 -2.5,6 0.1,9.4 2.5,3.1 6.6,3.5 10,0.8 2.8,-2.3 3,-7.3 0.4,-10.2 -2.4,-2.6 -7.9,-2.6 -10.5,0 z"
     id="path17328" />
  <path
     style="stroke-width:0.1"
     d="m 284.7,544.8 c -4,4.4 -0.7,12.2 5.1,12.2 5.9,0 9.2,-6.7 5.6,-11.8 -2,-2.8 -8.3,-3.1 -10.7,-0.4 z"
     id="path17330" />
  <path
     style="stroke-width:0.1"
     d="m 332.1,545.6 c -1.2,1.5 -2.1,3.5 -2.1,4.6 0,2.7 4.5,6.8 7.5,6.8 3,0 7.5,-4.1 7.5,-6.8 0,-3.5 -3.8,-7.2 -7.5,-7.2 -2.4,0 -3.9,0.7 -5.4,2.6 z"
     id="path17332" />
  <path
     style="stroke-width:0.1"
     d="m 605.7,544.8 c -2.3,2.5 -2.1,7.8 0.3,10.2 6.1,6.1 15.4,-2.7 10.4,-9.8 -2,-2.8 -8.3,-3.1 -10.7,-0.4 z"
     id="path17334" />
  <path
     style="stroke-width:0.1"
     d="m 655,545.7 c -5.5,7 4.2,15.1 10.5,8.8 2.8,-2.7 3.1,-4.5 1.4,-7.8 -1.6,-3 -2.8,-3.7 -6.6,-3.7 -2.3,0 -3.8,0.8 -5.3,2.7 z"
     id="path17336" />
  <path
     style="stroke-width:0.1"
     d="m 707.6,544.5 c -5.9,6 1,15.5 8.3,11.4 6.3,-3.6 4.2,-12.1 -3.1,-12.7 -2.3,-0.2 -4.1,0.3 -5.2,1.3 z"
     id="path17338" />
  <path
     style="stroke-width:0.1"
     d="m 982.5,545 c -4.2,4.7 -0.8,12 5.5,12 3.3,0 7,-4 7,-7.6 0,-5.7 -8.6,-8.7 -12.5,-4.4 z"
     id="path17340" />
  <path
     style="stroke-width:0.1"
     d="m 1032,545.2 c -2.7,2.9 -2.5,6.4 0.5,9.3 6.3,6.3 16,-1.8 10.5,-8.8 -2.8,-3.5 -8,-3.7 -11,-0.5 z"
     id="path17342" />
  <path
     style="stroke-width:0.1"
     d="m 1079.7,544.8 c -2.3,2.5 -2.1,7.8 0.3,10.2 6.1,6.1 15.4,-2.7 10.4,-9.8 -2,-2.8 -8.3,-3.1 -10.7,-0.4 z"
     id="path17344" />
  <path
     style="stroke-width:0.1"
     d="m 6.2,549.2 0.3,3.3 94.3,0.3 94.2,0.2 V 549.5 546 H 100.4 5.9 Z"
     id="path17346" />
  <path
     style="stroke-width:0.1"
     d="m 381.2,549.2 0.3,3.3 94.3,0.3 94.2,0.2 v -3.5 -3.5 h -94.6 -94.5 z"
     id="path17348" />
  <path
     style="stroke-width:0.1"
     d="m 759.2,549.2 0.3,3.3 h 94 94 l 0.3,-3.3 0.3,-3.2 h -94.6 -94.6 z"
     id="path17350" />
  <path
     style="stroke-width:0.1"
     d="m 67.5,607.5 c -4.6,4.6 -1.9,11.8 4.4,11.8 6.6,0 10.1,-8.4 5.2,-12.5 -3.2,-2.5 -6.7,-2.3 -9.6,0.7 z"
     id="path17352" />
  <path
     style="stroke-width:0.1"
     d="m 117.2,607.3 c -4.5,4.8 -1.6,12 4.8,12 6.5,0 9.5,-7.6 4.7,-12.1 -3,-2.8 -6.8,-2.8 -9.5,0.1 z"
     id="path17354" />
  <path
     style="stroke-width:0.1"
     d="m 164.5,607.5 c -2.8,2.7 -3,4.2 -1.4,7.9 1.6,3.4 5.8,5.1 9.1,3.5 2.6,-1.1 4.8,-4.6 4.8,-7.5 0,-2.4 -4.7,-6.4 -7.5,-6.4 -1.4,0 -3.7,1.1 -5,2.5 z"
     id="path17356" />
  <path
     style="stroke-width:0.1"
     d="m 447.5,607.5 c -2.8,2.7 -3,4.2 -1.4,7.9 1.6,3.4 5.8,5.1 9.1,3.5 2.6,-1.1 4.8,-4.6 4.8,-7.5 0,-2.4 -4.7,-6.4 -7.5,-6.4 -1.4,0 -3.7,1.1 -5,2.5 z"
     id="path17358" />
  <path
     style="stroke-width:0.1"
     d="m 497.6,607.1 c -5,3.9 -2.2,12.2 4.2,12.2 4.3,0 7.2,-2.8 7.2,-7 0,-6.5 -6.1,-9.3 -11.4,-5.2 z"
     id="path17360" />
  <path
     style="stroke-width:0.1"
     d="m 546.2,605.7 c -2.3,0.9 -4.3,6 -3.3,8.5 2.9,7.8 14.1,6.3 14.1,-1.9 0,-4.7 -6.1,-8.5 -10.8,-6.6 z"
     id="path17362" />
  <path
     style="stroke-width:0.1"
     d="m 822.5,607.5 c -2.8,2.7 -3,4.2 -1.4,7.9 1.6,3.4 5.8,5.1 9.1,3.5 2.6,-1.1 4.8,-4.6 4.8,-7.5 0,-2.4 -4.7,-6.4 -7.5,-6.4 -1.4,0 -3.7,1.1 -5,2.5 z"
     id="path17364" />
  <path
     style="stroke-width:0.1"
     d="m 872.6,607.1 c -5,3.9 -2.2,12.2 4.2,12.2 4.3,0 7.2,-2.8 7.2,-7 0,-6.5 -6.1,-9.3 -11.4,-5.2 z"
     id="path17366" />
  <path
     style="stroke-width:0.1"
     d="m 919.9,606.8 c -6.3,5.2 0.8,15.5 8,11.7 4.8,-2.4 5.5,-7.2 1.6,-11 -2.9,-3 -6.4,-3.2 -9.6,-0.7 z"
     id="path17368" />
  <path
     style="stroke-width:0.1"
     d="m 214.2,611.7 0.3,2.8 94.8,0.3 94.7,0.2 v -3 -3 h -95.1 -95 z"
     id="path17370" />
  <path
     style="stroke-width:0.1"
     d="m 598,612 v 3 l 94.3,-0.2 94.2,-0.3 0.3,-2.8 0.3,-2.7 H 692.6 598 Z"
     id="path17372" />
  <path
     style="stroke-width:0.1"
     d="m 276.6,666.2 c -3.6,5.1 -0.5,11.8 5.4,11.8 1.7,0 3.9,-0.9 5,-2 4.5,-4.5 1.1,-12 -5.4,-12 -2.5,0 -3.9,0.7 -5,2.2 z"
     id="path17374" />
  <path
     style="stroke-width:0.1"
     d="m 326.5,666 c -4.2,4.7 -0.8,12 5.5,12 3.3,0 7,-4 7,-7.4 0,-5.7 -8.6,-8.9 -12.5,-4.6 z"
     id="path17376" />
  <path
     style="stroke-width:0.1"
     d="m 374,666 c -4.2,4.2 -0.8,12 5.3,12 5.8,0 9.1,-8.5 4.9,-12.3 -2.5,-2.3 -7.8,-2.1 -10.2,0.3 z"
     id="path17378" />
  <path
     style="stroke-width:0.1"
     d="m 647.1,666.6 c -2.7,3.5 -2.6,5.9 0.4,8.9 3.3,3.4 7.7,3.3 10.4,-0.1 1.2,-1.5 2.1,-3.4 2.1,-4.4 0,-3.4 -3.9,-7 -7.5,-7 -2.4,0 -3.9,0.7 -5.4,2.6 z"
     id="path17380" />
  <path
     style="stroke-width:0.1"
     d="m 701,666.7 c -3.7,4.7 -0.2,11.3 6,11.3 3.1,0 7,-3.9 7,-7 0,-1 -0.9,-2.9 -2.1,-4.4 -2.9,-3.6 -8,-3.6 -10.9,0.1 z"
     id="path17382" />
  <path
     style="stroke-width:0.1"
     d="m 749,666 c -4.3,4.3 -1.1,12 5,12 1.7,0 3.9,-0.9 5,-2 2.6,-2.6 2.6,-8.1 0.2,-10.3 -2.5,-2.3 -7.8,-2.1 -10.2,0.3 z"
     id="path17384" />
  <path
     style="stroke-width:0.1"
     d="m 1024,666.2 c -2.6,2.8 -2.6,5.8 0.1,9.2 3.9,5 12.2,2.2 12.2,-4.2 0,-6.6 -7.8,-9.8 -12.3,-5 z"
     id="path17386" />
  <path
     style="stroke-width:0.1"
     d="m 1074,666 c -4.3,4.3 -1.1,12 5,12 3.8,0 7,-3.2 7,-7 0,-3.8 -3.2,-7 -7,-7 -1.7,0 -3.9,0.9 -5,2 z"
     id="path17388" />
  <path
     style="stroke-width:0.1"
     d="m 50,672 v 3 h 95 95 v -3 -3 H 145 50 Z"
     id="path17390" />
  <path
     style="stroke-width:0.1"
     d="m 420,672 v 3 h 94.5 94.5 v -3 -3 H 514.5 420 Z"
     id="path17392" />
  <path
     style="stroke-width:0.1"
     d="m 803,672 v 3 h 94.5 94.5 v -3 -3 H 897.5 803 Z"
     id="path17394" />
  <path
     style="stroke-width:0.1"
     d="m 102.1,735.6 c -1.2,1.5 -2.1,3.4 -2.1,4.4 0,3.4 3.9,7 7.5,7 3.6,0 7.5,-3.6 7.5,-7 0,-3.4 -3.9,-7 -7.5,-7 -2.4,0 -3.9,0.7 -5.4,2.6 z"
     id="path17396" />
  <path
     style="stroke-width:0.1"
     d="m 152,735 c -4.2,4.2 -0.8,12 5.3,12 5.8,0 9.1,-8.5 4.9,-12.3 -2.5,-2.3 -7.8,-2.1 -10.2,0.3 z"
     id="path17398" />
  <path
     style="stroke-width:0.1"
     d="m 199.5,735 c -4.2,4.7 -0.8,12 5.5,12 3.3,0 7,-4 7,-7.4 0,-5.7 -8.6,-8.9 -12.5,-4.6 z"
     id="path17400" />
  <path
     style="stroke-width:0.1"
     d="m 482.5,735 c -4.2,4.7 -0.8,12 5.5,12 3.3,0 7,-4 7,-7.4 0,-5.7 -8.6,-8.9 -12.5,-4.6 z"
     id="path17402" />
  <path
     style="stroke-width:0.1"
     d="m 532.1,735.6 c -1.2,1.5 -2.1,3.4 -2.1,4.4 0,3.1 3.9,7 7,7 6.2,0 9.7,-6.6 6,-11.3 -2.9,-3.7 -8,-3.7 -10.9,-0.1 z"
     id="path17404" />
  <path
     style="stroke-width:0.1"
     d="m 579.7,734.8 c -2.3,2.5 -2.1,7.8 0.3,10.2 4.3,4.3 12,1.1 12,-5 0,-1.7 -0.9,-3.9 -2,-5 -2.6,-2.6 -8.1,-2.6 -10.3,-0.2 z"
     id="path17406" />
  <path
     style="stroke-width:0.1"
     d="m 857,735.7 c -3.7,4.7 -0.2,11.3 6,11.3 3.1,0 7,-3.9 7,-7 0,-1 -0.9,-2.9 -2.1,-4.4 -2.9,-3.6 -8,-3.6 -10.9,0.1 z"
     id="path17408" />
  <path
     style="stroke-width:0.1"
     d="m 907,735.2 c -2.6,2.8 -2.6,5.8 0.1,9.2 3.9,5 12.2,2.2 12.2,-4.2 0,-6.6 -7.8,-9.8 -12.3,-5 z"
     id="path17410" />
  <path
     style="stroke-width:0.1"
     d="m 954.7,734.8 c -4,4.4 -0.7,12.2 5.1,12.2 6,0 9.4,-7.8 5.2,-12 -2.6,-2.6 -8.1,-2.6 -10.3,-0.2 z"
     id="path17412" />
  <path
     style="stroke-width:0.1"
     d="m 254,739.5 v 3.5 l 94.3,-0.2 94.2,-0.3 v -3 -3 L 348.3,736.2 254,736 Z"
     id="path17414" />
  <path
     style="stroke-width:0.1"
     d="m 627,739.5 v 3.5 h 94 94 v -3.5 -3.5 h -94 -94 z"
     id="path17416" />
  <path
     style="stroke-width:0.1"
     d="m 278,795 c -2.7,2.7 -2.6,7.1 0.3,9.8 5.4,5.1 12.8,0.7 11.7,-6.8 -0.6,-4.9 -8.2,-6.8 -12,-3 z"
     id="path17418" />
  <path
     style="stroke-width:0.1"
     d="m 327.7,794.8 c -2.3,2.5 -2.1,7.8 0.3,10.2 6.1,6.1 15.4,-2.7 10.4,-9.8 -2,-2.8 -8.3,-3.1 -10.7,-0.4 z"
     id="path17420" />
  <path
     style="stroke-width:0.1"
     d="m 375.6,794.5 c -5.9,6 1,15.5 8.3,11.4 6.3,-3.6 4.2,-12.1 -3.1,-12.7 -2.3,-0.2 -4.1,0.3 -5.2,1.3 z"
     id="path17422" />
  <path
     style="stroke-width:0.1"
     d="m 648.7,794.8 c -4,4.4 -0.7,12.2 5.1,12.2 6,0 9.4,-7.8 5.2,-12 -2.6,-2.6 -8.1,-2.6 -10.3,-0.2 z"
     id="path17424" />
  <path
     style="stroke-width:0.1"
     d="m 702.7,794.8 c -2.3,2.5 -2.1,7.8 0.3,10.2 6.1,6.1 15.4,-2.7 10.4,-9.8 -2,-2.8 -8.3,-3.1 -10.7,-0.4 z"
     id="path17426" />
  <path
     style="stroke-width:0.1"
     d="m 750.6,794.5 c -5.9,5.9 1,15.5 8.3,11.4 6.2,-3.5 4.1,-12.1 -3.1,-12.7 -2.3,-0.2 -4.1,0.3 -5.2,1.3 z"
     id="path17428" />
  <path
     style="stroke-width:0.1"
     d="m 1025,795.7 c -5.5,7 4.2,15.1 10.5,8.8 3,-2.9 3.2,-6.4 0.5,-9.3 -3,-3.2 -8.2,-3 -11,0.5 z"
     id="path17430" />
  <path
     style="stroke-width:0.1"
     d="m 1075,795 c -2.7,2.7 -2.5,6.6 0.5,9.5 2.9,3 6.4,3.2 9.6,0.7 2.8,-2.3 3,-7.3 0.4,-10.2 -2.4,-2.6 -7.9,-2.6 -10.5,0 z"
     id="path17432" />
  <path
     style="stroke-width:0.1"
     d="m 50.4,797.4 c -0.3,0.8 -0.4,2.3 -0.2,3.3 0.3,1.7 4.5,1.8 94.8,1.8 h 94.5 v -3 -3 l -94.3,-0.3 c -81.5,-0.2 -94.3,0 -94.8,1.2 z"
     id="path17434" />
  <path
     style="stroke-width:0.1"
     d="m 420.2,799.2 0.3,3.3 94.3,0.3 94.2,0.2 v -3.5 -3.5 h -94.6 -94.5 z"
     id="path17436" />
  <path
     style="stroke-width:0.1"
     d="m 800.4,797.4 c -0.3,0.8 -0.4,2.3 -0.2,3.3 0.3,1.7 4.5,1.8 94.8,1.8 h 94.5 v -3 -3 l -94.3,-0.3 c -81.5,-0.2 -94.3,0 -94.8,1.2 z"
     id="path17438" />
  <path
     style="stroke-width:0.1"
     d="m 68,860.7 c -3.7,4.7 -0.2,11.3 6,11.3 3.1,0 7,-3.9 7,-7 0,-1 -0.9,-2.9 -2.1,-4.4 C 76,857 70.9,857 68,860.7 Z"
     id="path17440" />
  <path
     style="stroke-width:0.1"
     d="m 118,860.2 c -2.6,2.8 -2.6,5.8 0.1,9.2 3.9,5 12.2,2.2 12.2,-4.2 0,-6.6 -7.8,-9.8 -12.3,-5 z"
     id="path17442" />
  <path
     style="stroke-width:0.1"
     d="m 165.7,859.8 c -2.5,2.8 -2.2,8.7 0.5,10.6 7.1,5 15.9,-4.3 9.8,-10.4 -2.6,-2.6 -8.1,-2.6 -10.3,-0.2 z"
     id="path17444" />
  <path
     style="stroke-width:0.1"
     d="m 448.7,859.8 c -2.5,2.8 -2.2,8.7 0.5,10.6 7.1,5 15.9,-4.3 9.8,-10.4 -2.6,-2.6 -8.1,-2.6 -10.3,-0.2 z"
     id="path17446" />
  <path
     style="stroke-width:0.1"
     d="m 498.1,860.6 c -1.2,1.5 -2.1,3.4 -2.1,4.4 0,3.4 3.9,7 7.5,7 3.6,0 7.5,-3.6 7.5,-7 0,-3.4 -3.9,-7 -7.5,-7 -2.4,0 -3.9,0.7 -5.4,2.6 z"
     id="path17448" />
  <path
     style="stroke-width:0.1"
     d="m 546,860 c -4.3,4.3 -1.1,12 5,12 3.8,0 7,-3.2 7,-7 0,-3.8 -3.2,-7 -7,-7 -1.7,0 -3.9,0.9 -5,2 z"
     id="path17450" />
  <path
     style="stroke-width:0.1"
     d="m 823.7,859.8 c -2.5,2.8 -2.2,8.7 0.5,10.6 7.1,5 15.9,-4.3 9.8,-10.4 -2.6,-2.6 -8.1,-2.6 -10.3,-0.2 z"
     id="path17452" />
  <path
     style="stroke-width:0.1"
     d="m 873.1,860.6 c -1.2,1.5 -2.1,3.4 -2.1,4.4 0,3.4 3.9,7 7.5,7 3.6,0 7.5,-3.6 7.5,-7 0,-3.4 -3.9,-7 -7.5,-7 -2.4,0 -3.9,0.7 -5.4,2.6 z"
     id="path17454" />
  <path
     style="stroke-width:0.1"
     d="m 921,860 c -4.3,4.3 -1.1,12 5,12 3.8,0 7,-3.2 7,-7 0,-3.8 -3.2,-7 -7,-7 -1.7,0 -3.9,0.9 -5,2 z"
     id="path17456" />
  <path
     style="stroke-width:0.1"
     d="M 212,864.5 V 868 H 306.5 401 V 864.5 861 H 306.5 212 Z"
     id="path17458" />
  <path
     style="stroke-width:0.1"
     d="m 598,864.5 v 3.5 l 94.3,-0.2 94.2,-0.3 v -3 -3 L 692.3,861.2 598,861 Z"
     id="path17460" />
</svg>
