<?xml version="1.0" encoding="UTF-8" standalone="no"?>
<svg
   xmlns:dc="http://purl.org/dc/elements/1.1/"
   xmlns:cc="http://creativecommons.org/ns#"
   xmlns:rdf="http://www.w3.org/1999/02/22-rdf-syntax-ns#"
   xmlns:svg="http://www.w3.org/2000/svg"
   xmlns="http://www.w3.org/2000/svg"
   xmlns:sodipodi="http://sodipodi.sourceforge.net/DTD/sodipodi-0.dtd"
   xmlns:inkscape="http://www.inkscape.org/namespaces/inkscape"
   inkscape:version="1.0 (4035a4fb49, 2020-05-01)"
   sodipodi:docname="USGS_612_colour_nobox.svg"
   id="svg15063"
   preserveAspectRatio="xMidYMid meet"
   viewBox="0 0 1125.000000 900.000000"
   height="900.000000pt"
   width="1125.000000pt"
   version="1.0">
  <defs
     id="defs15067" />
  <sodipodi:namedview
     inkscape:current-layer="svg15063"
     inkscape:window-maximized="1"
     inkscape:window-y="-8"
     inkscape:window-x="1912"
     inkscape:cy="600"
     inkscape:cx="750"
     inkscape:zoom="0.68916667"
     showgrid="false"
     id="namedview15065"
     inkscape:window-height="1017"
     inkscape:window-width="1920"
     inkscape:pageshadow="2"
     inkscape:pageopacity="0"
     guidetolerance="10"
     gridtolerance="10"
     objecttolerance="10"
     borderopacity="1"
     bordercolor="#666666"
     pagecolor="#ffffff" />
  <metadata
     id="metadata14747">
Created by potrace 1.13, written by Peter Selinger 2001-2015
<rdf:RDF>
  <cc:Work
     rdf:about="">
    <dc:format>image/svg+xml</dc:format>
    <dc:type
       rdf:resource="http://purl.org/dc/dcmitype/StillImage" />
    <dc:title></dc:title>
  </cc:Work>
</rdf:RDF>
</metadata>
  <path
     style="stroke-width:0.1"
     d="m 906.2,11.3 c -4.4,4.7 -1.3,11.7 5.2,11.7 4.1,0 6.9,-2.9 6.9,-7.2 0,-6.1 -7.8,-9.1 -12.1,-4.5 z"
     id="path14751" />
  <path
     style="stroke-width:0.1"
     d="m 379.5,21.5 c -1.4,1.3 -2.5,3.6 -2.5,5 0,2.8 4,7.5 6.4,7.5 2.9,0 6.4,-2.2 7.5,-4.8 1.6,-3.3 -0.1,-7.5 -3.5,-9.1 -3.7,-1.6 -5.2,-1.4 -7.9,1.4 z"
     id="path14753" />
  <path
     style="stroke-width:0.1"
     d="m 713.2,23.6 c -2.8,2 -3.1,8.3 -0.4,10.7 2.5,2.3 7.8,2.1 10.2,-0.3 6.1,-6.1 -2.7,-15.4 -9.8,-10.4 z"
     id="path14755" />
  <path
     style="stroke-width:0.1"
     d="m 623.1,31.6 c -1.2,1.5 -2.1,3.4 -2.1,4.4 0,3.4 3.9,7 7.5,7 3.6,0 7.5,-3.6 7.5,-7 0,-3.4 -3.9,-7 -7.5,-7 -2.4,0 -3.9,0.7 -5.4,2.6 z"
     id="path14757" />
  <path
     style="stroke-width:0.1"
     d="m 970.7,33.1 c -4.8,2.8 -4,10.7 1.2,12.9 7.5,3.1 13.4,-5.8 7.6,-11.5 -2.5,-2.6 -5.8,-3.1 -8.8,-1.4 z"
     id="path14759" />
  <path
     style="stroke-width:0.1"
     d="m 773.2,47.7 c -0.7,0.3 -1.9,1.8 -2.8,3.4 -1.2,2.5 -1.3,3.4 -0.2,5.7 0.7,1.5 2.5,3.3 4,4 4.6,2.2 9.8,-1.4 9.8,-6.9 0,-4.4 -6.3,-8 -10.8,-6.2 z"
     id="path14761" />
  <path
     style="stroke-width:0.1"
     d="m 169.2,51.5 c -5.9,2.5 -5.1,10.7 1.1,13 6.2,2.1 11.8,-5.2 8,-10.3 -2.6,-3.4 -5.3,-4.2 -9.1,-2.7 z"
     id="path14763" />
  <path
     style="stroke-width:0.1"
     d="m 343,62 v 3 H 508 673 V 62 59 H 508 343 Z"
     id="path14765" />
  <path
     style="stroke-width:0.1"
     d="m 259.2,64 c -2.6,2.4 -2.9,6.6 -0.6,9.8 1.1,1.6 2.5,2.2 5.3,2.2 4.6,0 7.1,-2.4 7.1,-6.8 0,-6.4 -7.2,-9.5 -11.8,-5.2 z"
     id="path14767" />
  <path
     style="stroke-width:0.1"
     d="m 801,66 v 3 h 147 147 V 66 63 H 948 801 Z"
     id="path14769" />
  <path
     style="stroke-width:0.1"
     d="m 91.9,70.8 c -2.8,2.3 -3,7.3 -0.4,10.2 2.4,2.6 7.9,2.6 10.5,0 6.3,-6.3 -3.1,-15.8 -10.1,-10.2 z"
     id="path14771" />
  <path
     style="stroke-width:0.1"
     d="m 580.7,90.8 c -2.5,2.8 -2.2,8.7 0.5,10.6 7.1,5 15.9,-4.3 9.8,-10.4 -2.6,-2.6 -8.1,-2.6 -10.3,-0.2 z"
     id="path14773" />
  <path
     style="stroke-width:0.1"
     d="m 405.2,92.7 c -0.7,0.3 -1.9,1.8 -2.8,3.5 -1.3,2.4 -1.3,3.5 -0.4,5.8 3.1,7.4 14,5.1 14,-3 0,-4.5 -6.3,-8.1 -10.8,-6.3 z"
     id="path14775" />
  <path
     style="stroke-width:0.1"
     d="m 507.7,104.8 c -4,4.4 -0.7,12.2 5.1,12.2 6,0 9.4,-7.8 5.2,-12 -2.6,-2.6 -8.1,-2.6 -10.3,-0.2 z"
     id="path14777" />
  <path
     style="stroke-width:0.1"
     d="m 737.4,104.2 c -5.3,2.5 -5,10.5 0.5,12.8 7.5,3.1 13.4,-5.8 7.6,-11.5 -2.6,-2.7 -4.7,-3 -8.1,-1.3 z"
     id="path14779" />
  <path
     style="stroke-width:0.1"
     d="m 902.7,104.8 c -4,4.4 -0.7,12.2 5.1,12.2 6,0 9.4,-7.8 5.2,-12 -2.6,-2.6 -8.1,-2.6 -10.3,-0.2 z"
     id="path14781" />
  <path
     style="stroke-width:0.1"
     d="m 1038,105 c -6.1,6.1 2.7,15.4 9.8,10.4 2.8,-2 3.1,-8.3 0.4,-10.7 -2.5,-2.3 -7.8,-2.1 -10.2,0.3 z"
     id="path14783" />
  <path
     style="stroke-width:0.1"
     d="m 651.2,112 c -4.8,4.5 -1.6,12.3 5,12.3 6.4,0 9.2,-8.3 4.2,-12.2 -3.4,-2.7 -6.4,-2.7 -9.2,-0.1 z"
     id="path14785" />
  <path
     style="stroke-width:0.1"
     d="m 219.3,120.2 c -2.8,1.4 -4.3,5.5 -3.1,8.9 0.9,2.6 4.4,4.9 7.4,4.9 2.4,0 6.4,-4.7 6.4,-7.5 0,-3 -4.1,-7.5 -6.7,-7.4 -1,0 -2.8,0.5 -4,1.1 z"
     id="path14787" />
  <path
     style="stroke-width:0.1"
     d="m 344,126 c -2.6,2.6 -2.6,8.1 -0.2,10.3 4.4,4 12.2,0.7 12.2,-5.1 0,-6.2 -7.7,-9.5 -12,-5.2 z"
     id="path14789" />
  <path
     style="stroke-width:0.1"
     d="m 37.7,127.2 c -4.1,3.2 -3.8,9.4 0.6,12.3 4.6,3 10.7,-0.6 10.7,-6.3 0,-5.1 -7.3,-9 -11.3,-6 z"
     id="path14791" />
  <path
     style="stroke-width:0.1"
     d="m 981,133 c -1.1,1.1 -2,3.3 -2,5 0,1.7 0.9,3.9 2,5 1.1,1.1 3.3,2 5,2 1.7,0 3.9,-0.9 5,-2 1.1,-1.1 2,-3.3 2,-5 0,-1.7 -0.9,-3.9 -2,-5 -1.1,-1.1 -3.3,-2 -5,-2 -1.7,0 -3.9,0.9 -5,2 z"
     id="path14793" />
  <path
     style="stroke-width:0.1"
     d="m 823.6,137.1 c -1.9,1.5 -2.6,3 -2.6,5.4 0,3.6 3.6,7.5 7,7.5 1,0 2.9,-0.9 4.4,-2.1 3.4,-2.7 3.5,-7.1 0.1,-10.4 -3,-3 -5.4,-3.1 -8.9,-0.4 z"
     id="path14795" />
  <path
     style="stroke-width:0.1"
     d="m 117,142 c -2.6,2.6 -2.6,8.1 -0.2,10.3 2.5,2.3 7.8,2.1 10.2,-0.3 4.3,-4.3 1.1,-12 -5,-12 -1.7,0 -3.9,0.9 -5,2 z"
     id="path14797" />
  <path
     style="stroke-width:0.1"
     d="m 1072.5,145.2 c -5,2.7 -5.9,7.5 -2,11.3 4.2,4.3 10.6,2.3 12,-3.6 1.2,-4.8 -5.7,-10.1 -10,-7.7 z"
     id="path14799" />
  <path
     style="stroke-width:0.1"
     d="m 591.5,160.5 c -1.4,1.3 -2.5,3.6 -2.5,5 0,2.8 4,7.5 6.4,7.5 2.9,0 6.4,-2.2 7.5,-4.8 1.6,-3.3 -0.1,-7.5 -3.5,-9.1 -3.7,-1.6 -5.2,-1.4 -7.9,1.4 z"
     id="path14801" />
  <path
     style="stroke-width:0.1"
     d="m 480,164 c -4.3,4.3 -1.1,12 5,12 1.7,0 3.9,-0.9 5,-2 2.6,-2.6 2.6,-8.1 0.2,-10.3 -2.5,-2.3 -7.8,-2.1 -10.2,0.3 z"
     id="path14803" />
  <path
     style="stroke-width:0.1"
     d="m 683,174 c -2.6,2.6 -2.6,8.1 -0.2,10.3 2.8,2.5 8.7,2.2 10.6,-0.5 5.1,-7.3 -4.2,-16 -10.4,-9.8 z"
     id="path14805" />
  <path
     style="stroke-width:0.1"
     d="m 759.7,182.1 c -4.8,2.8 -4,10.7 1.2,12.9 7.5,3.1 13.4,-5.8 7.6,-11.5 -2.5,-2.6 -5.8,-3.1 -8.8,-1.4 z"
     id="path14807" />
  <path
     style="stroke-width:0.1"
     d="m 346.5,192.5 c -3.4,3.3 -3.3,7.7 0.1,10.4 1.5,1.2 3.4,2.1 4.4,2.1 1,0 2.9,-0.9 4.4,-2.1 3.6,-2.8 3.6,-8 0,-10.8 -3.5,-2.7 -5.9,-2.6 -8.9,0.4 z"
     id="path14809" />
  <path
     style="stroke-width:0.1"
     d="m 250,200.3 c -1.3,0.7 -3.1,2.4 -3.9,3.8 -3,5.3 3.6,11.7 9.4,9.1 5.5,-2.5 5.8,-10 0.5,-12.7 -3.5,-1.8 -2.9,-1.8 -6,-0.2 z"
     id="path14811" />
  <path
     style="stroke-width:0.1"
     d="m 862.7,208 c -7.2,5.7 0.8,16.7 8.1,11.3 5.1,-3.8 3.4,-11.4 -2.8,-12.8 -1.8,-0.4 -3.4,0 -5.3,1.5 z"
     id="path14813" />
  <path
     style="stroke-width:0.1"
     d="m 953.2,207 c -4.9,2 -5.4,9.5 -0.7,12.6 7.3,4.8 14.7,-6.1 7.9,-11.5 -2.9,-2.3 -3.8,-2.4 -7.2,-1.1 z"
     id="path14815" />
  <path
     style="stroke-width:0.1"
     d="m 544,215.8 c -5.1,1.6 -6.8,8.4 -3,12.2 6,6 15.4,-2.6 10.5,-9.7 -1.5,-2.1 -5,-3.3 -7.5,-2.5 z"
     id="path14817" />
  <path
     style="stroke-width:0.1"
     d="m 458.1,220.6 c -1.2,1.5 -2.1,3.4 -2.1,4.4 0,3.4 3.9,7 7.5,7 3.6,0 7.5,-3.6 7.5,-7 0,-3.4 -3.9,-7 -7.5,-7 -2.4,0 -3.9,0.7 -5.4,2.6 z"
     id="path14819" />
  <path
     style="stroke-width:0.1"
     d="m 171.3,223.2 c -6.8,3.3 -4,13.8 3.7,13.8 2.8,0 7,-4.4 7,-7.3 0,-5.1 -6.1,-8.8 -10.7,-6.5 z"
     id="path14821" />
  <path
     style="stroke-width:0.1"
     d="m 632.5,229.5 c -3,3 -3.1,5.4 -0.4,8.9 2,2.6 6.9,3.6 9.5,1.8 1.5,-1 3.4,-4.7 3.4,-6.7 0,-2.5 -4.6,-6.5 -7.5,-6.5 -1.4,0 -3.7,1.1 -5,2.5 z"
     id="path14823" />
  <path
     style="stroke-width:0.1"
     d="m 731.6,238.1 c -4.6,3.6 -2.6,11 3.4,12.4 3.8,0.9 8,-2.7 8,-6.8 0,-3.8 -0.7,-5 -3.7,-6.6 -3.1,-1.6 -4.7,-1.4 -7.7,1 z"
     id="path14825" />
  <path
     style="stroke-width:0.1"
     d="m 1056.8,241 c -2.4,2.5 -2.9,3.6 -2.4,5.8 1.5,6 7.9,8 12.1,3.7 3.9,-3.8 3.2,-8.6 -1.6,-11 -3.9,-2.1 -4.6,-1.9 -8.1,1.5 z"
     id="path14827" />
  <path
     style="stroke-width:0.1"
     d="m 79.3,242.5 c -4.9,2.1 -5.8,7.1 -1.8,11 4.5,4.6 11.8,1.9 11.8,-4.3 0,-5.8 -4.7,-8.9 -10,-6.7 z"
     id="path14829" />
  <path
     style="stroke-width:0.1"
     d="m 376,245 c -2.6,2.6 -2.6,8.1 0,10.5 2.9,2.6 7.9,2.4 10.2,-0.4 5.6,-7 -3.9,-16.4 -10.2,-10.1 z"
     id="path14831" />
  <path
     style="stroke-width:0.1"
     d="m 293.6,249.6 c -4.3,4.3 -1.9,11.6 4.1,12.2 6.2,0.6 10.1,-6.2 6.3,-11.1 -2.5,-3.1 -7.8,-3.7 -10.4,-1.1 z"
     id="path14833" />
  <path
     style="stroke-width:0.1"
     d="m 495.4,266.4 c -0.3,0.8 -0.4,2.3 -0.2,3.3 0.3,1.7 6.5,1.8 149.1,2.1 L 793,272 V 268.5 265 H 644.5 c -128.5,0 -148.6,0.2 -149.1,1.4 z"
     id="path14835" />
  <path
     style="stroke-width:0.1"
     d="m 815.9,271.3 c -3.7,1.9 -5.3,6 -3.7,9.4 2.6,5.5 10.4,5.4 13,-0.2 2.6,-5.7 -3.7,-11.9 -9.3,-9.2 z"
     id="path14837" />
  <path
     style="stroke-width:0.1"
     d="m 905.1,275.6 c -1.2,1.5 -2.1,3.4 -2.1,4.4 0,1 0.9,2.9 2.1,4.4 4.1,5.2 12.2,2.3 12.2,-4.4 0,-6.7 -8.1,-9.6 -12.2,-4.4 z"
     id="path14839" />
  <path
     style="stroke-width:0.1"
     d="m 231,278.3 c -1.3,0.7 -2.9,2.5 -3.4,3.9 -2.9,8.3 9.4,13.7 12.8,5.6 1.7,-3.9 1.1,-6.3 -2.2,-8.8 -2.9,-2.3 -3.8,-2.4 -7.2,-0.7 z"
     id="path14841" />
  <path
     style="stroke-width:0.1"
     d="m 988,284 c -2.6,2.6 -2.6,8.1 -0.2,10.3 2.8,2.5 8.7,2.2 10.6,-0.5 5,-7.1 -4.3,-15.9 -10.4,-9.8 z"
     id="path14843" />
  <path
     style="stroke-width:0.1"
     d="m 149.6,293.1 c -1.9,1.5 -2.6,3 -2.6,5.4 0,3.6 3.6,7.5 7,7.5 3.4,0 7,-3.9 7,-7.5 0,-3.6 -3.6,-7.5 -7,-7.5 -1,0 -2.9,0.9 -4.4,2.1 z"
     id="path14845" />
  <path
     style="stroke-width:0.1"
     d="m 431,298 c -4.3,4.3 -1.1,12 5,12 3.8,0 7,-3.2 7,-7 0,-3.8 -3.2,-7 -7,-7 -1.7,0 -3.9,0.9 -5,2 z"
     id="path14847" />
  <path
     style="stroke-width:0.1"
     d="m 756,305 c -2.6,2.6 -2.5,6 0.1,9.4 2.5,3.1 6.6,3.5 10,0.8 2.8,-2.3 3,-7.3 0.4,-10.2 -2.4,-2.6 -7.9,-2.6 -10.5,0 z"
     id="path14849" />
  <path
     style="stroke-width:0.1"
     d="m 644.6,309.1 c -1.9,1.5 -2.6,3 -2.6,5.4 0,3.6 3.6,7.5 7,7.5 3.4,0 7,-3.9 7,-7.5 0,-3.6 -3.6,-7.5 -7,-7.5 -1,0 -2.9,0.9 -4.4,2.1 z"
     id="path14851" />
  <path
     style="stroke-width:0.1"
     d="m 337,314 c -4.3,4.3 -1.1,12 5,12 3.8,0 7,-3.2 7,-7 0,-3.8 -3.2,-7 -7,-7 -1.7,0 -3.9,0.9 -5,2 z"
     id="path14853" />
  <path
     style="stroke-width:0.1"
     d="m 1063.1,314.6 c -1.2,1.5 -2.1,3.4 -2.1,4.4 0,3.4 3.9,7 7.5,7 3.6,0 7.5,-3.6 7.5,-7 0,-3.4 -3.9,-7 -7.5,-7 -2.4,0 -3.9,0.7 -5.4,2.6 z"
     id="path14855" />
  <path
     style="stroke-width:0.1"
     d="m 557.2,316 c -4.8,4.5 -1.6,12.3 5,12.3 6.1,0 9.1,-7.8 4.5,-12.1 -2.9,-2.8 -6.7,-2.8 -9.5,-0.2 z"
     id="path14857" />
  <path
     style="stroke-width:0.1"
     d="m 818.5,332.5 c -2.8,2.7 -3.2,6.1 -1,9.2 4.9,7 16,0 12,-7.6 -2.4,-4.8 -7.2,-5.5 -11,-1.6 z"
     id="path14859" />
  <path
     style="stroke-width:0.1"
     d="m 926,337 c -1.1,1.1 -2,3.3 -2,5 0,1.7 0.9,3.9 2,5 1.1,1.1 3.3,2 5,2 1.7,0 3.9,-0.9 5,-2 1.1,-1.1 2,-3.3 2,-5 0,-1.7 -0.9,-3.9 -2,-5 -1.1,-1.1 -3.3,-2 -5,-2 -1.7,0 -3.9,0.9 -5,2 z"
     id="path14861" />
  <path
     style="stroke-width:0.1"
     d="m 18.5,339.5 c -2.8,2.7 -3.1,4.5 -1.4,7.8 1.6,3 2.8,3.7 6.6,3.7 4.1,0 7.7,-4.2 6.8,-8 -1.4,-5.8 -7.8,-7.8 -12,-3.5 z"
     id="path14863" />
  <path
     style="stroke-width:0.1"
     d="m 697.7,347.2 c -4.1,3.2 -3.8,9.4 0.6,12.3 4.6,3 10.7,-0.6 10.7,-6.3 0,-5.1 -7.3,-9 -11.3,-6 z"
     id="path14865" />
  <path
     style="stroke-width:0.1"
     d="m 489,348.7 c -5.3,1.9 -6.8,8.6 -2.8,12.3 6.3,5.8 15.7,-3.3 10.1,-9.8 -2,-2.3 -5,-3.3 -7.3,-2.5 z"
     id="path14867" />
  <path
     style="stroke-width:0.1"
     d="m 80.5,357.5 c -1.4,1.3 -2.5,3.6 -2.5,5 0,2.8 4,7.5 6.4,7.5 7.8,0 10.9,-10.7 4,-13.9 -3.7,-1.6 -5.2,-1.4 -7.9,1.4 z"
     id="path14869" />
  <path
     style="stroke-width:0.1"
     d="m 172.6,357.1 c -1.9,1.5 -2.6,3 -2.6,5.4 0,3.6 3.6,7.5 7,7.5 3.4,0 7,-3.9 7,-7.5 0,-3.6 -3.6,-7.5 -7,-7.5 -1,0 -2.9,0.9 -4.4,2.1 z"
     id="path14871" />
  <path
     style="stroke-width:0.1"
     d="m 265.3,356.2 c -6.8,3.3 -3.9,13.8 3.8,13.8 2.8,0 6.9,-4.4 6.9,-7.3 0,-5.1 -6.1,-8.8 -10.7,-6.5 z"
     id="path14873" />
  <path
     style="stroke-width:0.1"
     d="m 383.2,361.6 c -2.8,2 -3.1,8.3 -0.4,10.7 2.5,2.3 7.8,2.1 10.2,-0.3 6.1,-6.1 -2.7,-15.4 -9.8,-10.4 z"
     id="path14875" />
  <path
     style="stroke-width:0.1"
     d="m 807,365 v 3 H 958.5 1110 v -3 -3 H 958.5 807 Z"
     id="path14877" />
  <path
     style="stroke-width:0.1"
     d="m 628,376 c -1.1,1.1 -2,3.3 -2,5 0,1.7 0.9,3.9 2,5 1.1,1.1 3.3,2 5,2 1.7,0 3.9,-0.9 5,-2 1.1,-1.1 2,-3.3 2,-5 0,-1.7 -0.9,-3.9 -2,-5 -1.1,-1.1 -3.3,-2 -5,-2 -1.7,0 -3.9,0.9 -5,2 z"
     id="path14879" />
  <path
     style="stroke-width:0.1"
     d="m 748,380.8 c -5.1,1.6 -6.8,8.4 -3,12.2 6,6 15.4,-2.6 10.5,-9.7 -1.5,-2.1 -5,-3.3 -7.5,-2.5 z"
     id="path14881" />
  <path
     style="stroke-width:0.1"
     d="m 557.2,387.3 c -4.5,4.8 -1.6,12 4.8,12 6.7,0 9.6,-8.1 4.4,-12.2 -3.5,-2.7 -6.5,-2.7 -9.2,0.2 z"
     id="path14883" />
  <path
     style="stroke-width:0.1"
     d="m 932.7,391.8 c -2.3,2.5 -2.1,7.8 0.3,10.2 4.3,4.3 12,1.1 12,-5 0,-1.7 -0.9,-3.9 -2,-5 -2.6,-2.6 -8.1,-2.6 -10.3,-0.2 z"
     id="path14885" />
  <path
     style="stroke-width:0.1"
     d="m 156,397 v 3 h 181 181 v -3 -3 H 337 156 Z"
     id="path14887" />
  <path
     style="stroke-width:0.1"
     d="m 816,408 c -4.3,4.3 -1.1,12 5,12 3.8,0 7,-3.2 7,-7 0,-3.8 -3.2,-7 -7,-7 -1.7,0 -3.9,0.9 -5,2 z"
     id="path14889" />
  <path
     style="stroke-width:0.1"
     d="m 1047.5,410.5 c -2.8,2.7 -3,4.2 -1.4,7.9 3.2,6.9 13.9,3.8 13.9,-4 0,-2.4 -4.7,-6.4 -7.5,-6.4 -1.4,0 -3.7,1.1 -5,2.5 z"
     id="path14891" />
  <path
     style="stroke-width:0.1"
     d="m 673.3,426 c -4.6,1.9 -5.7,8.3 -2,11.8 4.8,4.5 11.7,1.4 11.7,-5.1 0,-5.1 -5,-8.6 -9.7,-6.7 z"
     id="path14893" />
  <path
     style="stroke-width:0.1"
     d="m 64.5,435.5 c -1.4,1.3 -2.5,3.6 -2.5,5 0,3 4.1,7.5 6.8,7.5 3.5,0 7.2,-3.8 7.2,-7.3 0,-3.8 -0.7,-5 -3.7,-6.6 -3.3,-1.7 -5.1,-1.4 -7.8,1.4 z"
     id="path14895" />
  <path
     style="stroke-width:0.1"
     d="m 466,435.7 c -5.3,1.9 -6.8,8.6 -2.8,12.3 6.4,6 15.8,-3.1 10.1,-9.8 -2,-2.3 -5,-3.3 -7.3,-2.5 z"
     id="path14897" />
  <path
     style="stroke-width:0.1"
     d="m 233.3,443.2 c -5.2,2.5 -5.2,10.5 0.1,12.9 8.3,3.8 14.7,-8.4 6.6,-12.6 -3.3,-1.7 -3.7,-1.7 -6.7,-0.3 z"
     id="path14899" />
  <path
     style="stroke-width:0.1"
     d="m 882.1,447.6 c -1.2,1.5 -2.1,3.4 -2.1,4.4 0,3.4 3.9,7 7.5,7 3.6,0 7.5,-3.6 7.5,-7 0,-3.4 -3.9,-7 -7.5,-7 -2.4,0 -3.9,0.7 -5.4,2.6 z"
     id="path14901" />
  <path
     style="stroke-width:0.1"
     d="m 971.7,446.8 c -4,4.4 -0.6,12.2 5.3,12.2 6,0 9.2,-7.8 5,-12 -2.6,-2.6 -8.1,-2.6 -10.3,-0.2 z"
     id="path14903" />
  <path
     style="stroke-width:0.1"
     d="m 140.6,451.1 c -1.9,1.5 -2.6,3 -2.6,5.4 0,3.6 3.6,7.5 7,7.5 1,0 2.9,-0.9 4.4,-2.1 3.4,-2.7 3.5,-7.1 0.1,-10.4 -3,-3 -5.4,-3.1 -8.9,-0.4 z"
     id="path14905" />
  <path
     style="stroke-width:0.1"
     d="m 310.8,459.5 c -5.4,3 -4.2,11.6 1.8,13.1 8.3,2.1 12.6,-9.9 4.8,-13.5 -3.1,-1.4 -3.3,-1.4 -6.6,0.4 z"
     id="path14907" />
  <path
     style="stroke-width:0.1"
     d="m 389.5,459.2 c -5,2.7 -5.9,7.5 -2,11.3 4.2,4.3 10.6,2.3 12.1,-3.7 0.5,-2.2 0,-3.3 -2.4,-5.8 -3.3,-3.2 -4.6,-3.5 -7.7,-1.8 z"
     id="path14909" />
  <path
     style="stroke-width:0.1"
     d="m 529.3,459 c -4.8,1.9 -5.8,8.7 -1.7,11.9 5.3,4.1 11.4,1.3 11.4,-5.2 0,-5.1 -5,-8.6 -9.7,-6.7 z"
     id="path14911" />
  <path
     style="stroke-width:0.1"
     d="m 758.5,459.2 c -5,2.7 -5.9,7.5 -2,11.3 4.2,4.3 10.6,2.3 12.1,-3.7 0.5,-2.2 0,-3.3 -2.4,-5.8 -3.3,-3.2 -4.6,-3.5 -7.7,-1.8 z"
     id="path14913" />
  <path
     style="stroke-width:0.1"
     d="m 1093.1,472.6 c -4.1,5.3 -1.3,11.4 5.2,11.4 4.2,0 7,-2.9 7,-7.2 0,-6.4 -8.3,-9.2 -12.2,-4.2 z"
     id="path14915" />
  <path
     style="stroke-width:0.1"
     d="m 615.5,476.5 c -1.4,1.3 -2.5,3 -2.5,3.7 0.1,5.9 5.1,9.8 10,7.8 2.7,-1.1 5,-4.6 5,-7.6 0,-2.4 -4.7,-6.4 -7.5,-6.4 -1.4,0 -3.7,1.1 -5,2.5 z"
     id="path14917" />
  <path
     style="stroke-width:0.1"
     d="m 703,486.7 c -1.5,1.9 -1.9,3.5 -1.5,5.3 1.4,6.2 9,7.9 12.8,2.8 5.4,-7.3 -5.6,-15.3 -11.3,-8.1 z"
     id="path14919" />
  <path
     style="stroke-width:0.1"
     d="m 840.5,490.5 c -3,2.9 -3.2,6.8 -0.5,9.5 4.7,4.7 12.3,1.5 12.3,-5.1 0,-6.3 -7.2,-9 -11.8,-4.4 z"
     id="path14921" />
  <path
     style="stroke-width:0.1"
     d="m 1020.6,497.1 c -5.2,4.1 -2.3,12.2 4.4,12.2 6.7,0 9.6,-8.1 4.4,-12.2 -1.5,-1.2 -3.4,-2.1 -4.4,-2.1 -1,0 -2.9,0.9 -4.4,2.1 z"
     id="path14923" />
  <path
     style="stroke-width:0.1"
     d="m 20.5,502 c -4.2,4.7 -0.8,12 5.5,12 3.3,0 7,-4 7,-7.4 0,-5.7 -8.6,-8.9 -12.5,-4.6 z"
     id="path14925" />
  <path
     style="stroke-width:0.1"
     d="m 931.2,503.7 c -5.2,4.4 -2.4,12.3 4.3,12.3 6.7,0 9.7,-6.9 5,-11.5 -2.8,-2.9 -6.5,-3.2 -9.3,-0.8 z"
     id="path14927" />
  <path
     style="stroke-width:0.1"
     d="m 185.5,509 c -4.2,4.7 -0.8,12 5.5,12 3.3,0 7,-4 7,-7.6 0,-5.7 -8.6,-8.7 -12.5,-4.4 z"
     id="path14929" />
  <path
     style="stroke-width:0.1"
     d="m 476.9,510.8 c -2.8,2.3 -3,7.3 -0.4,10.2 2.4,2.6 7.9,2.6 10.5,0 6.3,-6.3 -3.1,-15.8 -10.1,-10.2 z"
     id="path14931" />
  <path
     style="stroke-width:0.1"
     d="m 94,518 c -1.1,1.1 -2,3.3 -2,5 0,1.7 0.9,3.9 2,5 4.3,4.3 12,1.1 12,-5 0,-3.8 -3.2,-7 -7,-7 -1.7,0 -3.9,0.9 -5,2 z"
     id="path14933" />
  <path
     style="stroke-width:0.1"
     d="m 401.2,527.3 c -4.5,4.8 -1.4,11.7 5.1,11.7 4.2,0 6.7,-2.6 6.7,-6.8 0,-6.5 -7.4,-9.6 -11.8,-4.9 z"
     id="path14935" />
  <path
     style="stroke-width:0.1"
     d="m 253,529.7 c -5.1,1.9 -6.8,8.5 -3,12.3 6.1,6.1 15.9,-3.2 10.3,-9.8 -2,-2.3 -5,-3.3 -7.3,-2.5 z"
     id="path14937" />
  <path
     style="stroke-width:0.1"
     d="m 532,534 v 3 H 662.5 793 v -3 -3 H 662.5 532 Z"
     id="path14939" />
  <path
     style="stroke-width:0.1"
     d="m 740.5,545.5 c -1.4,1.3 -2.5,3.6 -2.5,5 0,2.8 4,7.5 6.4,7.5 7.8,0 10.9,-10.7 4,-13.9 -3.7,-1.6 -5.2,-1.4 -7.9,1.4 z"
     id="path14941" />
  <path
     style="stroke-width:0.1"
     d="m 814.9,558.1 c -1.5,0.6 -3.3,2.3 -3.9,4 -3.5,8.4 8.4,13.7 12.9,5.8 1.9,-3.3 0.1,-8.1 -3.5,-9.8 -1.4,-0.6 -2.6,-1.1 -2.7,-1 -0.1,0 -1.4,0.5 -2.8,1 z"
     id="path14943" />
  <path
     style="stroke-width:0.1"
     d="m 320.1,570.6 c -2.7,3.4 -2.7,6.4 -0.1,9.2 4.5,4.8 12.3,1.6 12.3,-5 0,-6.4 -8.3,-9.2 -12.2,-4.2 z"
     id="path14945" />
  <path
     style="stroke-width:0.1"
     d="m 573,569.3 c -1.4,0.7 -3.1,2.5 -3.8,4 -2.2,4.5 1.5,9.7 6.9,9.7 2.8,0 6.9,-4.4 6.9,-7.3 0,-5.1 -5.5,-8.6 -10,-6.4 z"
     id="path14947" />
  <path
     style="stroke-width:0.1"
     d="m 73.5,575.5 c -4,3.9 -2.9,9.5 2.2,11.3 7.8,2.7 13.6,-7.6 7,-12.3 -3.1,-2.2 -6.5,-1.8 -9.2,1 z"
     id="path14949" />
  <path
     style="stroke-width:0.1"
     d="m 1105,575 c -4.7,4.7 -1.5,12.4 5.2,12.2 6.3,-0.2 8.9,-7.1 4.3,-11.7 -2.9,-3 -6.8,-3.2 -9.5,-0.5 z"
     id="path14951" />
  <path
     style="stroke-width:0.1"
     d="m 896,584 c -2.8,2.8 -2.7,8.4 0.2,10.4 5.1,3.6 11.8,0.5 11.8,-5.4 0,-3.8 -3.2,-7 -7,-7 -1.7,0 -3.9,0.9 -5,2 z"
     id="path14953" />
  <path
     style="stroke-width:0.1"
     d="m 159,584.7 c -5.1,1.9 -6.8,8.5 -3,12.3 6.1,6.1 15.9,-3.2 10.3,-9.8 -2,-2.3 -5,-3.3 -7.3,-2.5 z"
     id="path14955" />
  <path
     style="stroke-width:0.1"
     d="m 667,585.3 c -1.3,0.7 -3.1,2.4 -3.9,3.8 -3,5.3 3.6,11.7 9.4,9.1 5.5,-2.5 5.8,-10 0.5,-12.7 -3.5,-1.8 -2.9,-1.8 -6,-0.2 z"
     id="path14957" />
  <path
     style="stroke-width:0.1"
     d="m 756.1,605.6 c -2.7,3.5 -2.7,6.5 0.2,9.2 4.8,4.6 12,1.6 12,-5 0,-6.4 -8.3,-9.2 -12.2,-4.2 z"
     id="path14959" />
  <path
     style="stroke-width:0.1"
     d="m 1013.6,607.1 c -5,3.9 -2.2,12.2 4.2,12.2 6.6,0 9.8,-7.8 5,-12.3 -2.8,-2.6 -5.8,-2.6 -9.2,0.1 z"
     id="path14961" />
  <path
     style="stroke-width:0.1"
     d="m 477.7,607.1 c -4.8,2.8 -4,10.7 1.3,12.9 2.3,0.9 3.4,0.9 5.8,-0.4 4.9,-2.5 5.6,-7.2 1.7,-11.1 -2.5,-2.6 -5.8,-3.1 -8.8,-1.4 z"
     id="path14963" />
  <path
     style="stroke-width:0.1"
     d="m 247.6,611.5 c -5.9,6 1,15.5 8.3,11.4 6.3,-3.6 4.2,-12.1 -3.1,-12.7 -2.3,-0.2 -4.1,0.3 -5.2,1.3 z"
     id="path14965" />
  <path
     style="stroke-width:0.1"
     d="m 379.1,629.6 c -2.7,3.4 -2.7,6.4 -0.1,9.2 4.7,5 14,0.6 12.5,-5.8 -1.4,-6 -8.8,-8 -12.4,-3.4 z"
     id="path14967" />
  <path
     style="stroke-width:0.1"
     d="m 600.5,630.5 c -2.8,2.7 -3,4.2 -1.4,7.9 3.2,6.9 13.9,3.8 13.9,-4 0,-2.4 -4.7,-6.4 -7.5,-6.4 -1.4,0 -3.7,1.1 -5,2.5 z"
     id="path14969" />
  <path
     style="stroke-width:0.1"
     d="m 925.6,635.2 c -3.6,5.1 -0.5,11.8 5.4,11.8 5.9,0 9,-6.7 5.4,-11.8 -1.1,-1.6 -2.5,-2.2 -5.4,-2.2 -2.9,0 -4.3,0.6 -5.4,2.2 z"
     id="path14971" />
  <path
     style="stroke-width:0.1"
     d="m 128.3,640 c -4.6,1.9 -5.7,8.3 -2,11.8 4.8,4.5 11.7,1.4 11.7,-5.1 0,-5.1 -5,-8.6 -9.7,-6.7 z"
     id="path14973" />
  <path
     style="stroke-width:0.1"
     d="m 816.6,646.1 c -1.9,1.5 -2.6,3 -2.6,5.4 0,3.6 3.6,7.5 7,7.5 3.4,0 7,-3.9 7,-7.5 0,-3.6 -3.6,-7.5 -7,-7.5 -1,0 -2.9,0.9 -4.4,2.1 z"
     id="path14975" />
  <path
     style="stroke-width:0.1"
     d="m 1107.2,646.3 c -4.3,4.6 -1.5,12 4.6,12 4.3,0 7.2,-2.8 7.2,-6.9 0,-6.6 -7.4,-9.8 -11.8,-5.1 z"
     id="path14977" />
  <path
     style="stroke-width:0.1"
     d="m 53.7,648.2 c -3.8,3.4 -4,7.5 -0.5,10.8 2.9,2.7 6.4,2.5 9.3,-0.5 2.9,-2.8 3.2,-6.5 0.8,-9.3 -2.8,-3.3 -6.6,-3.7 -9.6,-1 z"
     id="path14979" />
  <path
     style="stroke-width:0.1"
     d="m 685.5,655.5 c -1.4,1.3 -2.5,3.6 -2.5,5 0,2.8 4,7.5 6.4,7.5 7.8,0 10.9,-10.7 4,-13.9 -3.7,-1.6 -5.2,-1.4 -7.9,1.4 z"
     id="path14981" />
  <path
     style="stroke-width:0.1"
     d="m 157,663 v 3 h 199 199 v -3 -3 H 356 157 Z"
     id="path14983" />
  <path
     style="stroke-width:0.1"
     d="m 251.5,677.2 c -2.8,1.6 -3.5,2.8 -3.5,6.5 0,4.1 4.2,7.7 8,6.8 6,-1.4 8,-8.8 3.4,-12.4 -3,-2.4 -5,-2.6 -7.9,-0.9 z"
     id="path14985" />
  <path
     style="stroke-width:0.1"
     d="m 967.5,687.5 c -1.4,1.3 -2.5,3.6 -2.5,5 0,2.8 4,7.5 6.4,7.5 7.6,0 10.6,-9.1 4.4,-13.4 -3.2,-2.2 -5.5,-2 -8.3,0.9 z"
     id="path14987" />
  <path
     style="stroke-width:0.1"
     d="m 748.8,690.6 c -5.1,2.7 -4.6,10.1 0.7,12.6 5.8,2.6 11.9,-3.3 9.5,-9.1 -0.6,-1.6 -2.3,-3.3 -3.6,-4 -3.1,-1.4 -3.3,-1.4 -6.6,0.5 z"
     id="path14989" />
  <path
     style="stroke-width:0.1"
     d="m 344,692 c -2.6,2.6 -2.6,8.1 -0.2,10.3 4.4,4 12.2,0.7 12.2,-5.1 0,-6 -7.8,-9.4 -12,-5.2 z"
     id="path14991" />
  <path
     style="stroke-width:0.1"
     d="m 864.2,692.3 c -4.5,4.8 -1.4,11.7 5.1,11.7 4.2,0 6.7,-2.6 6.7,-6.8 0,-6.5 -7.4,-9.6 -11.8,-4.9 z"
     id="path14993" />
  <path
     style="stroke-width:0.1"
     d="m 1047.3,695 c -4.8,1.9 -5.8,8.7 -1.7,11.9 5.3,4.1 11.4,1.3 11.4,-5.2 0,-5.1 -5,-8.6 -9.7,-6.7 z"
     id="path14995" />
  <path
     style="stroke-width:0.1"
     d="m 486.2,701 c -4.8,4.5 -1.6,12.3 5,12.3 6.4,0 9.2,-8.3 4.2,-12.2 -3.4,-2.7 -6.4,-2.7 -9.2,-0.1 z"
     id="path14997" />
  <path
     style="stroke-width:0.1"
     d="m 624.3,710.8 c -5.1,0.8 -7,8.3 -3,12 4.8,4.5 11.7,1.4 11.7,-5.1 0,-4.8 -3.8,-7.7 -8.7,-6.9 z"
     id="path14999" />
  <path
     style="stroke-width:0.1"
     d="m 57.5,717.5 c -4,3.9 -2.9,9.7 2.2,11.6 5.8,2.2 11.6,-3.6 9.4,-9.4 -1.9,-5.1 -7.7,-6.2 -11.6,-2.2 z"
     id="path15001" />
  <path
     style="stroke-width:0.1"
     d="m 183.1,722.6 c -1.2,1.5 -2.1,3.4 -2.1,4.4 0,3.4 3.9,7 7.5,7 3.6,0 7.5,-3.6 7.5,-7 0,-3.4 -3.9,-7 -7.5,-7 -2.4,0 -3.9,0.7 -5.4,2.6 z"
     id="path15003" />
  <path
     style="stroke-width:0.1"
     d="m 403.1,731.6 c -1.2,1.5 -2.1,3.4 -2.1,4.4 0,3.4 3.9,7 7.5,7 2.4,0 3.9,-0.7 5.4,-2.6 2.7,-3.5 2.6,-5.9 -0.4,-8.9 -3.3,-3.4 -7.7,-3.3 -10.4,0.1 z"
     id="path15005" />
  <path
     style="stroke-width:0.1"
     d="m 541.6,733.1 c -3.6,2.9 -3.6,8 0.1,10.9 4.7,3.7 11.3,0.2 11.3,-6 0,-3.1 -3.9,-7 -7,-7 -1,0 -2.9,0.9 -4.4,2.1 z"
     id="path15007" />
  <path
     style="stroke-width:0.1"
     d="m 282.6,742.1 c -3.6,2.8 -3.6,8 0,10.8 1.5,1.2 3.4,2.1 4.4,2.1 3.4,0 7,-3.9 7,-7.5 0,-3.6 -3.6,-7.5 -7,-7.5 -1,0 -2.9,0.9 -4.4,2.1 z"
     id="path15009" />
  <path
     style="stroke-width:0.1"
     d="m 594,745 v 3 H 771.5 949 v -3 -3 H 771.5 594 Z"
     id="path15011" />
  <path
     style="stroke-width:0.1"
     d="m 744.3,757.2 c -6.8,3.3 -4,13.8 3.7,13.8 2.8,0 7,-4.4 7,-7.3 0,-5.1 -6.1,-8.8 -10.7,-6.5 z"
     id="path15013" />
  <path
     style="stroke-width:0.1"
     d="m 129.3,765.8 c -5.1,0.8 -7,8.3 -3,12 4.8,4.5 11.7,1.4 11.7,-5.1 0,-4.8 -3.8,-7.7 -8.7,-6.9 z"
     id="path15015" />
  <path
     style="stroke-width:0.1"
     d="m 987.9,766.4 c -1.3,0.6 -3,2.3 -3.8,3.7 -1.2,2.2 -1.2,2.9 0,5.4 2.9,6 11.1,5.5 13.3,-0.8 2,-5.5 -4.3,-10.9 -9.5,-8.3 z"
     id="path15017" />
  <path
     style="stroke-width:0.1"
     d="m 348.5,772.5 c -3.9,3.9 -3.2,8.6 1.7,11.1 5.9,3 12.2,-2.7 9.9,-8.9 -1.9,-5.1 -7.7,-6.2 -11.6,-2.2 z"
     id="path15019" />
  <path
     style="stroke-width:0.1"
     d="m 839,777 c -4.3,4.3 -1.1,12 5,12 3.8,0 7,-3.2 7,-7 0,-3.8 -3.2,-7 -7,-7 -1.7,0 -3.9,0.9 -5,2 z"
     id="path15021" />
  <path
     style="stroke-width:0.1"
     d="m 614,784 c -6.2,6.2 3.1,15.8 9.9,10.2 2.8,-2.2 3.1,-7.5 0.6,-10.2 -2.4,-2.6 -7.9,-2.6 -10.5,0 z"
     id="path15023" />
  <path
     style="stroke-width:0.1"
     d="m 480.6,785.1 c -3.6,2.8 -3.6,8 0,10.8 1.5,1.2 3.4,2.1 4.4,2.1 3.4,0 7,-3.9 7,-7.5 0,-3.6 -3.6,-7.5 -7,-7.5 -1,0 -2.9,0.9 -4.4,2.1 z"
     id="path15025" />
  <path
     style="stroke-width:0.1"
     d="m 1063.5,788.5 c -2.8,2.7 -3,4.2 -1.4,7.9 1.6,3.4 5.8,5.1 9.1,3.5 2.6,-1.1 4.8,-4.6 4.8,-7.5 0,-2.4 -4.7,-6.4 -7.5,-6.4 -1.4,0 -3.7,1.1 -5,2.5 z"
     id="path15027" />
  <path
     style="stroke-width:0.1"
     d="m 27.1,793.6 c -1.2,1.5 -2.1,3.4 -2.1,4.4 0,3.4 3.9,7 7.5,7 3.6,0 7.5,-3.6 7.5,-7 0,-3.4 -3.9,-7 -7.5,-7 -2.4,0 -3.9,0.7 -5.4,2.6 z"
     id="path15029" />
  <path
     style="stroke-width:0.1"
     d="m 220,793 c -1.1,1.1 -2,3.3 -2,5 0,1.7 0.9,3.9 2,5 4.3,4.3 12,1.1 12,-5 0,-3.8 -3.2,-7 -7,-7 -1.7,0 -3.9,0.9 -5,2 z"
     id="path15031" />
  <path
     style="stroke-width:0.1"
     d="m 931.3,810.5 c -7,4.9 0,16 7.6,12 4.8,-2.4 5.5,-7.2 1.6,-11 -2.7,-2.8 -6.1,-3.2 -9.2,-1 z"
     id="path15033" />
  <path
     style="stroke-width:0.1"
     d="m 676,816 c -4.2,4.2 -0.8,12 5.3,12 5.8,0 9.1,-8.5 4.9,-12.3 -2.5,-2.3 -7.8,-2.1 -10.2,0.3 z"
     id="path15035" />
  <path
     style="stroke-width:0.1"
     d="m 765.7,816 c -2,1.6 -2.7,3 -2.7,5.6 0,6.8 6.8,9.7 11.5,4.9 6.3,-6.3 -1.8,-16 -8.8,-10.5 z"
     id="path15037" />
  <path
     style="stroke-width:0.1"
     d="m 442.6,830.1 c -3.6,2.8 -3.6,8 0,10.8 1.5,1.2 3.4,2.1 4.4,2.1 1,0 2.9,-0.9 4.4,-2.1 3.4,-2.7 3.5,-7.1 0.1,-10.4 -3,-3 -5.4,-3.1 -8.9,-0.4 z"
     id="path15039" />
  <path
     style="stroke-width:0.1"
     d="m 66.3,844 c -4.7,1.9 -5.6,7.8 -1.8,11.5 4.7,4.8 11.5,1.9 11.5,-4.8 0,-5.1 -5,-8.6 -9.7,-6.7 z"
     id="path15041" />
  <path
     style="stroke-width:0.1"
     d="m 285,843.7 c -5.3,1.9 -6.8,8.6 -2.8,12.3 6.3,5.8 15.7,-3.3 10.1,-9.8 -2,-2.3 -5,-3.3 -7.3,-2.5 z"
     id="path15043" />
  <path
     style="stroke-width:0.1"
     d="m 852,851.3 c -5.2,2.6 -4.9,10.4 0.4,12.8 3.6,1.7 7.3,0.3 9.2,-3.2 1.9,-3.8 0.6,-8 -3.2,-9.8 -3.1,-1.4 -3.3,-1.4 -6.4,0.2 z"
     id="path15045" />
  <path
     style="stroke-width:0.1"
     d="m 513.6,854.6 c -4.3,4.3 -1.9,11.6 4.1,12.2 6.2,0.6 10.1,-6.2 6.3,-11.1 -2.5,-3.1 -7.8,-3.7 -10.4,-1.1 z"
     id="path15047" />
  <path
     style="stroke-width:0.1"
     d="m 716.6,858.1 c -5,3.9 -2.2,12.2 4.2,12.2 4.3,0 7.2,-2.8 7.2,-7 0,-6.5 -6.1,-9.3 -11.4,-5.2 z"
     id="path15049" />
  <path
     style="stroke-width:0.1"
     d="m 382.9,860.2 c -1.6,0.5 -3.2,2.2 -3.9,3.9 -3.5,8.4 8.4,13.7 12.9,5.8 3.1,-5.5 -2.8,-11.8 -9,-9.7 z"
     id="path15051" />
  <path
     style="stroke-width:0.1"
     d="m 616,860.3 c -7.6,3.8 -2.8,15.4 5.5,13.3 2.9,-0.7 5.6,-5.6 4.8,-8.7 -1.1,-4.1 -6.5,-6.5 -10.3,-4.6 z"
     id="path15053" />
  <path
     style="stroke-width:0.1"
     d="m 988,864 c -4.3,4.3 -1.1,12 5,12 3.8,0 7,-3.2 7,-7 0,-3.8 -3.2,-7 -7,-7 -1.7,0 -3.9,0.9 -5,2 z"
     id="path15055" />
  <path
     style="stroke-width:0.1"
     d="m 1088.5,864 c -4.1,4.5 -1,12 5,12 3.8,0 7.5,-3.5 7.5,-7.1 0,-5.8 -8.7,-9.1 -12.5,-4.9 z"
     id="path15057" />
  <path
     style="stroke-width:0.1"
     d="m 158.6,866.1 c -5,3.9 -2.2,12.2 4.2,12.2 4.3,0 7.2,-2.8 7.2,-7 0,-6.5 -6.1,-9.3 -11.4,-5.2 z"
     id="path15059" />
</svg>
