<?xml version="1.0" encoding="UTF-8" standalone="no"?>
<svg
   xmlns:dc="http://purl.org/dc/elements/1.1/"
   xmlns:cc="http://creativecommons.org/ns#"
   xmlns:rdf="http://www.w3.org/1999/02/22-rdf-syntax-ns#"
   xmlns:svg="http://www.w3.org/2000/svg"
   xmlns="http://www.w3.org/2000/svg"
   xmlns:sodipodi="http://sodipodi.sourceforge.net/DTD/sodipodi-0.dtd"
   xmlns:inkscape="http://www.inkscape.org/namespaces/inkscape"
   inkscape:version="1.0 (4035a4fb49, 2020-05-01)"
   sodipodi:docname="USGS_606_colour_nobox.svg"
   id="svg6166"
   preserveAspectRatio="xMidYMid meet"
   viewBox="0 0 1125.000000 900.000000"
   height="900.000000pt"
   width="1125.000000pt"
   version="1.0">
  <defs
     id="defs6170" />
  <sodipodi:namedview
     inkscape:current-layer="svg6166"
     inkscape:window-maximized="1"
     inkscape:window-y="-8"
     inkscape:window-x="1912"
     inkscape:cy="600"
     inkscape:cx="750"
     inkscape:zoom="0.68916667"
     showgrid="false"
     id="namedview6168"
     inkscape:window-height="1017"
     inkscape:window-width="1920"
     inkscape:pageshadow="2"
     inkscape:pageopacity="0"
     guidetolerance="10"
     gridtolerance="10"
     objecttolerance="10"
     borderopacity="1"
     bordercolor="#666666"
     pagecolor="#ffffff" />
  <metadata
     id="metadata5802">
Created by potrace 1.13, written by Peter Selinger 2001-2015
<rdf:RDF>
  <cc:Work
     rdf:about="">
    <dc:format>image/svg+xml</dc:format>
    <dc:type
       rdf:resource="http://purl.org/dc/dcmitype/StillImage" />
    <dc:title></dc:title>
  </cc:Work>
</rdf:RDF>
</metadata>
  <path
     style="stroke-width:0.1"
     d="m 999.5,12.8 c -22.5,2.5 -41.2,4.6 -41.3,4.8 -0.4,0.2 33.4,59.1 34.8,60.7 0.4,0.5 12.6,-14.3 27,-33 14.5,-18.6 27,-34.6 27.8,-35.6 1.4,-1.6 1.2,-1.7 -2.9,-1.6 -2.4,0.1 -22.8,2.2 -45.4,4.7 z m 35.5,2.7 c 0,0.4 -38.1,49.8 -40,51.8 -0.6,0.7 -25.8,-41.1 -26.3,-43.7 -0.1,-0.5 14.4,-2.6 32.3,-4.7 17.9,-2 32.8,-3.7 33.3,-3.8 0.4,0 0.7,0.1 0.7,0.4 z"
     id="path5806" />
  <path
     style="stroke-width:0.1"
     d="m 484.7,17.2 c -3.7,3.3 -4,7.5 -0.7,10.8 2.7,2.7 6.6,2.5 9.5,-0.5 2.9,-2.8 3.2,-6.5 0.8,-9.3 -2.8,-3.3 -6.6,-3.7 -9.6,-1 z"
     id="path5808" />
  <path
     style="stroke-width:0.1"
     d="M 790.7,37.8 768.9,59.6 747,65 725,70.4 v 21.2 21.2 l 4.4,5.9 c 7.3,10 16,15.9 26.6,18.3 8.6,1.9 34.3,2.5 45.6,1 26.8,-3.3 39,-12.1 45.8,-32.8 4.6,-14 8.1,-38.2 7.4,-50.2 L 854.5,49.6 834,32.8 C 822.7,23.6 813.3,16 813,16 c -0.3,0 -10.3,9.8 -22.3,21.8 z m 42.2,2.2 16.3,13.3 -0.7,10.1 c -1.5,21.7 -6.3,41.8 -12.2,51.5 -6.3,10.1 -18.5,15.3 -40.5,17.3 -13.3,1.2 -33.2,0.2 -42.4,-2.3 -5.2,-1.4 -12.6,-7 -18.1,-13.7 L 731,110.9 V 93.2 75.4 l 20.3,-4.9 20.2,-4.9 21,-20.8 c 17.9,-17.7 21.2,-20.5 22.5,-19.4 0.8,0.7 8.9,7.3 17.9,14.6 z"
     id="path5810" />
  <path
     style="stroke-width:0.1"
     d="m 874.5,25.5 c -5.8,5.7 0.1,14.6 7.6,11.5 7.7,-3.2 4.7,-13.9 -3.9,-14 -0.7,0 -2.4,1.1 -3.7,2.5 z"
     id="path5812" />
  <path
     style="stroke-width:0.1"
     d="m 163.5,34.5 c -3,3 -3.1,5.4 -0.4,8.9 1.5,1.9 3,2.6 5.4,2.6 3.7,0 7.5,-3.7 7.5,-7.2 0,-2.7 -4.5,-6.8 -7.5,-6.8 -1.4,0 -3.7,1.1 -5,2.5 z"
     id="path5814" />
  <path
     style="stroke-width:0.1"
     d="m 292,34 c -2.6,2.6 -2.6,8.1 -0.2,10.3 4.4,4 12.2,0.6 12.2,-5.3 0,-6 -7.8,-9.2 -12,-5 z"
     id="path5816" />
  <path
     style="stroke-width:0.1"
     d="m 936.7,35.8 c -4,4.4 -0.6,12.2 5.3,12.2 6,0 9.2,-7.8 5,-12 -2.6,-2.6 -8.1,-2.6 -10.3,-0.2 z"
     id="path5818" />
  <path
     style="stroke-width:0.1"
     d="m 101.3,36 c -2.5,1 -4.3,3.9 -4.3,7 0,2.8 4.3,7 7.3,7 6.3,0 9.1,-8.9 4.1,-12.9 -2.9,-2.3 -3.8,-2.4 -7.1,-1.1 z"
     id="path5820" />
  <path
     style="stroke-width:0.1"
     d="m 726,41 c -1.1,1.1 -2,3.3 -2,5 0,1.7 0.9,3.9 2,5 1.1,1.1 3.3,2 5,2 1.7,0 3.9,-0.9 5,-2 1.1,-1.1 2,-3.3 2,-5 0,-1.7 -0.9,-3.9 -2,-5 -1.1,-1.1 -3.3,-2 -5,-2 -1.7,0 -3.9,0.9 -5,2 z"
     id="path5822" />
  <path
     style="stroke-width:0.1"
     d="m 477.7,46.9 -24.8,5.6 -10.9,19 c -6,10.4 -11,19.4 -11,19.9 0,1.4 16,44 17,45 0.8,0.8 48.4,-19.7 50.6,-21.8 0.7,-0.7 2,-13.1 3.3,-30.6 1.2,-16.2 2.5,-32.5 2.8,-36.3 0.5,-5.4 0.3,-6.7 -0.8,-6.6 -0.8,0.1 -12.6,2.7 -26.2,5.8 z m 20.3,4.3 c 0,5.9 -4.3,58.4 -4.9,59 -0.8,0.9 -41.3,18.9 -41.7,18.6 -0.6,-0.7 -13.4,-35.6 -13.4,-36.7 0,-1.3 16.6,-30.8 18.5,-32.9 1,-1.1 35.4,-9.7 40.3,-10.1 0.6,-0.1 1.2,0.9 1.2,2.1 z"
     id="path5824" />
  <path
     style="stroke-width:0.1"
     d="m 1067,49 c -4.3,4.3 -1.1,12 5,12 1.7,0 3.9,-0.9 5,-2 2.6,-2.6 2.6,-8.1 0.2,-10.3 -2.5,-2.3 -7.8,-2.1 -10.2,0.3 z"
     id="path5826" />
  <path
     style="stroke-width:0.1"
     d="m 261.6,79.7 c -3.2,15.9 -6.2,30.9 -6.7,33.4 -0.9,4.3 -1.8,5.2 -19.4,19.8 -10.2,8.5 -19.2,15.9 -20.2,16.6 -1.5,1.1 3.8,4 39.6,21.9 22.7,11.4 41.5,20.6 41.6,20.4 0.6,-0.6 19.5,-83.2 19.5,-85.1 0,-1.8 -46.4,-55.7 -47.9,-55.7 -0.5,0 -3.4,12.9 -6.5,28.7 z m 29.5,6.4 c 10.2,11.7 18.3,21.8 18.2,22.7 -0.3,2.1 -16.2,71.2 -16.8,73 -0.3,0.8 -11.2,-4.1 -33.5,-15.3 -18.1,-9.1 -33,-16.8 -32.9,-17.3 0,-0.4 7.6,-6.9 16.8,-14.6 l 16.9,-13.9 4.7,-23.6 c 6.5,-33 6.6,-33.2 7.5,-32.6 0.4,0.2 9,10 19.1,21.6 z"
     id="path5828" />
  <path
     style="stroke-width:0.1"
     d="m 411.6,64.1 c -3.6,2.8 -3.6,8 0,10.8 1.5,1.2 3.5,2.1 4.6,2.1 2.7,0 6.8,-4.5 6.8,-7.5 0,-3 -4.1,-7.5 -6.8,-7.5 -1.1,0 -3.1,0.9 -4.6,2.1 z"
     id="path5830" />
  <path
     style="stroke-width:0.1"
     d="m 150.8,68.7 c -2.9,3.4 -43.8,61.2 -44.4,62.8 -0.5,1.3 3.1,1.5 33.5,1.5 H 174 l 19,-14.2 c 14.7,-11.1 18.7,-14.5 17.7,-15.4 C 210.1,102.7 197.6,94.9 183,86 168.4,77 155.6,69.1 154.4,68.3 c -1.8,-1.1 -2.3,-1.1 -3.6,0.4 z m 26.4,21 c 12.3,7.5 22.7,14 23.1,14.4 0.5,0.4 -5.4,5.5 -13.2,11.3 L 173,126 l -27.5,-0.2 -27.6,-0.3 17.6,-24.8 C 145.2,87.1 153.6,76 154.1,76 c 0.4,0 10.9,6.1 23.1,13.7 z"
     id="path5832" />
  <path
     style="stroke-width:0.1"
     d="m 671,68.3 c -1.4,0.7 -3.1,2.4 -3.9,3.8 -1.2,2.2 -1.2,2.9 0,5.4 2.7,5.7 10.5,5.7 13.1,0 2.6,-5.7 -3.7,-11.9 -9.2,-9.2 z"
     id="path5834" />
  <path
     style="stroke-width:0.1"
     d="m 219,69.3 c -1.3,0.7 -2.9,2.5 -3.4,3.9 -2.9,8.3 9.4,13.7 12.8,5.6 1.7,-3.9 1.1,-6.3 -2.2,-8.8 -2.9,-2.3 -3.8,-2.4 -7.2,-0.7 z"
     id="path5836" />
  <path
     style="stroke-width:0.1"
     d="m 892.3,91.1 c -15.8,12.7 -28.9,23.2 -29,23.3 -0.2,0.1 20.1,9.1 44.9,20 39.3,17.1 45.4,19.5 46.4,18.2 0.6,-0.9 2.4,-6.2 4,-11.8 2.4,-8.8 2.8,-12.2 2.9,-22.8 0,-15.6 -0.6,-16.8 -13.5,-26.8 -5.2,-4 -13.4,-10.8 -18.2,-15.2 l -8.6,-8 z m 35.5,-8.4 c 3.6,3.2 10.6,9 15.6,12.8 11.8,9.2 12.9,11.1 12.3,23.5 -0.5,9.5 -4.3,27.3 -5.7,26.8 -10.1,-3.8 -73.9,-32.6 -73.7,-33.2 0.4,-1.1 42.9,-35.4 44.1,-35.5 0.5,-0.1 3.8,2.5 7.4,5.6 z"
     id="path5838" />
  <path
     style="stroke-width:0.1"
     d="m 533.2,80.3 c -4.5,4.8 -1.4,11.7 5.1,11.7 4.3,0 6.7,-2.6 6.7,-7.3 0,-6.3 -7.4,-9.1 -11.8,-4.4 z"
     id="path5840" />
  <path
     style="stroke-width:0.1"
     d="m 346.3,80.8 c -5.1,0.8 -7,8.3 -3,12 4.8,4.5 11.7,1.4 11.7,-5.1 0,-4.8 -3.8,-7.7 -8.7,-6.9 z"
     id="path5842" />
  <path
     style="stroke-width:0.1"
     d="m 97.6,84.3 c -1.5,1.5 -2.6,3.8 -2.6,5.2 0,1.4 1.1,3.7 2.6,5.2 2,2 3.1,2.4 5.7,1.9 4.3,-0.9 6.1,-2.9 6.1,-7.1 0,-4.2 -1.8,-6.2 -6.1,-7.1 -2.6,-0.5 -3.7,-0.1 -5.7,1.9 z"
     id="path5844" />
  <path
     style="stroke-width:0.1"
     d="m 976,93 c -2.6,2.6 -2.6,8.1 -0.2,10.3 2.8,2.5 8.7,2.2 10.6,-0.5 5.1,-7.3 -4.2,-16 -10.4,-9.8 z"
     id="path5846" />
  <path
     style="stroke-width:0.1"
     d="m 575.8,103.4 c -11.4,11.3 -19.1,24.7 -24.4,42.3 -3.7,12.2 -4,31.3 -0.7,41.8 6.7,21.3 24.5,32 60.6,36.5 8.4,1 40.4,1.6 41.3,0.8 0.2,-0.3 -3.8,-12.8 -8.9,-27.9 l -9.3,-27.4 -24.7,-35 C 596,115.2 584.3,98.9 583.6,98.2 c -1.1,-1.1 -2.5,-0.2 -7.8,5.2 z m 30.2,37 23.3,32.9 7.3,22.1 c 4.1,12.1 7.4,22.5 7.4,23 0,1.3 -31,0 -41,-1.8 -31.6,-5.8 -44.3,-16.1 -48.2,-39.1 -2.6,-15.9 3.6,-40.3 14.3,-56.2 5.2,-7.7 12.1,-15.5 12.9,-14.6 0.5,0.4 11.3,15.6 24,33.7 z"
     id="path5848" />
  <path
     style="stroke-width:0.1"
     d="m 626,115.3 c -5.2,2.6 -4.9,10.4 0.5,12.9 5.8,2.6 11.9,-3.3 9.5,-9.1 -0.6,-1.6 -2.3,-3.3 -3.6,-4 -3.1,-1.4 -3.3,-1.4 -6.4,0.2 z"
     id="path5850" />
  <path
     style="stroke-width:0.1"
     d="m 38.6,117.3 c -1.5,1.5 -2.6,3.8 -2.6,5.2 0,1.4 1.1,3.7 2.6,5.2 2,2 3.1,2.4 5.7,1.9 4.3,-0.9 6.1,-2.9 6.1,-7.1 0,-4.2 -1.8,-6.2 -6.1,-7.1 -2.6,-0.5 -3.7,-0.1 -5.7,1.9 z"
     id="path5852" />
  <path
     style="stroke-width:0.1"
     d="m 697,122 c -2.6,2.6 -2.5,6 0.1,9.4 2.5,3.1 6.6,3.5 10,0.8 2.8,-2.3 3,-7.3 0.4,-10.2 -2.4,-2.6 -7.9,-2.6 -10.5,0 z"
     id="path5854" />
  <path
     style="stroke-width:0.1"
     d="m 350,126 c 0,2.8 9.8,102.4 10.5,106.6 0.5,3 1.2,3.5 10.7,7.3 5.5,2.2 10.4,3.8 10.8,3.6 0.5,-0.3 1,-0.1 1.2,0.4 0.3,0.9 32.4,14.1 34.3,14.1 0.6,0 3.3,-16 6.6,-39 l 5.5,-38.9 -22.5,-16.1 c -16.1,-11.5 -22.7,-15.7 -23.3,-14.8 -0.5,0.9 -0.8,0.7 -0.8,-0.7 -0.1,-1.4 -4.6,-5.2 -15.6,-13 -8.6,-6.1 -16,-11.2 -16.5,-11.3 -0.5,-0.2 -0.9,0.6 -0.9,1.8 z m 19.5,18.9 c 8,5.8 11.3,7.6 12.3,6.9 0.9,-0.8 1.2,-0.5 1.2,0.8 0,1.3 6.2,6.3 19.6,15.9 10.7,7.6 19.7,14.2 19.9,14.5 0.2,0.3 -1.8,15.4 -4.4,33.5 -3.8,26.3 -5,32.9 -6.2,32.7 -0.8,-0.1 -7.2,-2.6 -14.2,-5.4 -7,-2.8 -13.1,-4.8 -13.4,-4.4 -0.3,0.3 -1.1,0 -1.7,-0.8 -0.6,-0.7 -4.4,-2.6 -8.4,-4.1 -5.3,-2.1 -7.4,-3.4 -7.7,-4.9 -0.2,-1.2 -2.2,-21 -4.5,-44.1 -2.2,-23.1 -4.3,-43.5 -4.6,-45.3 -0.2,-1.7 -0.1,-3.2 0.3,-3.2 0.5,0 5.8,3.6 11.8,7.9 z"
     id="path5856" />
  <path
     style="stroke-width:0.1"
     d="m 413.1,135.6 c -1.2,1.5 -2.1,3.5 -2.1,4.6 0,2.7 4.5,6.8 7.5,6.8 3,0 7.5,-4.1 7.5,-6.8 0,-3.5 -3.8,-7.2 -7.5,-7.2 -2.4,0 -3.9,0.7 -5.4,2.6 z"
     id="path5858" />
  <path
     style="stroke-width:0.1"
     d="m 193.2,138.3 c -4.5,4.8 -1.6,12 4.8,12 6.7,0 9.6,-8.1 4.4,-12.2 -3.5,-2.7 -6.5,-2.7 -9.2,0.2 z"
     id="path5860" />
  <path
     style="stroke-width:0.1"
     d="m 82.6,143.1 c -3.6,2.8 -3.6,8 0,10.8 1.5,1.2 3.5,2.1 4.6,2.1 2.7,0 6.8,-4.5 6.8,-7.5 0,-3 -4.1,-7.5 -6.8,-7.5 -1.1,0 -3.1,0.9 -4.6,2.1 z"
     id="path5862" />
  <path
     style="stroke-width:0.1"
     d="m 523,145 c -2.6,2.6 -2.6,8.1 0,10.5 2.7,2.5 8,2.2 10.2,-0.6 5.6,-6.8 -4,-16.1 -10.2,-9.9 z"
     id="path5864" />
  <path
     style="stroke-width:0.1"
     d="m 847.3,149.2 c -2.8,1.4 -4.3,5.5 -3.1,8.9 0.9,2.6 4.4,4.9 7.4,4.9 2.4,0 6.4,-4.7 6.4,-7.5 0,-3 -4.1,-7.5 -6.7,-7.4 -1,0 -2.8,0.5 -4,1.1 z"
     id="path5866" />
  <path
     style="stroke-width:0.1"
     d="m 321.1,154.6 c -1.2,1.5 -2.1,3.4 -2.1,4.4 0,3.4 3.9,7 7.5,7 3.6,0 7.5,-3.6 7.5,-7 0,-3.4 -3.9,-7 -7.5,-7 -2.4,0 -3.9,0.7 -5.4,2.6 z"
     id="path5868" />
  <path
     style="stroke-width:0.1"
     d="m 497.7,156.5 c -5.4,11.2 -44.8,100.8 -44.5,101 0.6,0.6 79.9,-5.3 80.6,-5.9 0.4,-0.5 -31.8,-93.7 -33.7,-97.4 -0.5,-0.8 -1.3,0 -2.4,2.3 z m 14.6,50.6 c 6.9,19.6 12.7,36.5 12.9,37.5 0.3,1.7 -1.6,2 -30.7,4.1 -17,1.2 -31.1,2 -31.3,1.8 -0.2,-0.2 7.6,-18.4 17.4,-40.4 9.8,-22.1 18.1,-39.8 18.5,-39.3 0.4,0.4 6.3,16.7 13.2,36.3 z"
     id="path5870" />
  <path
     style="stroke-width:0.1"
     d="m 1013.8,154.6 c -5.1,2.7 -4.6,10.1 0.7,12.6 5.8,2.6 11.9,-3.3 9.5,-9.1 -0.6,-1.6 -2.3,-3.3 -3.6,-4 -3.1,-1.4 -3.3,-1.4 -6.6,0.5 z"
     id="path5872" />
  <path
     style="stroke-width:0.1"
     d="m 762.5,158.5 c -4,3.9 -2.9,9.5 2.2,11.3 7.8,2.7 13.6,-7.6 7,-12.3 -3.1,-2.2 -6.5,-1.8 -9.2,1 z"
     id="path5874" />
  <path
     style="stroke-width:0.1"
     d="m 135.9,158.8 c -4.9,4 -1.7,12.2 4.8,12.2 6.5,0 9.3,-6.1 5.2,-11.4 -2.5,-3.1 -6.6,-3.5 -10,-0.8 z"
     id="path5876" />
  <path
     style="stroke-width:0.1"
     d="m 671,167.3 c -1.3,0.7 -3.1,2.4 -3.9,3.8 -3,5.3 3.6,11.7 9.4,9.1 5.5,-2.5 5.8,-10 0.5,-12.7 -3.5,-1.8 -2.9,-1.8 -6,-0.2 z"
     id="path5878" />
  <path
     style="stroke-width:0.1"
     d="m 455.6,171.1 c -5,3.9 -2.2,12.2 4.2,12.2 4.3,0 7.2,-2.8 7.2,-7 0,-6.5 -6.1,-9.3 -11.4,-5.2 z"
     id="path5880" />
  <path
     style="stroke-width:0.1"
     d="m 722,171.7 c -0.1,1 -1.4,16.6 -2.9,34.8 -1.6,18.1 -2.7,33.2 -2.4,33.5 1.1,1.2 23.3,0.1 29.6,-1.4 18.3,-4.4 30,-16.1 30.1,-30.4 0.1,-12.7 -7.9,-19.7 -33.8,-29.7 -6.4,-2.5 -13.4,-5.4 -15.6,-6.5 -4.8,-2.4 -5,-2.4 -5,-0.3 z m 19,12.9 c 23.8,9.5 29,13.8 29,23.4 0,15.1 -16.4,25.9 -39.4,26 h -7.9 l 0.6,-3.8 c 0.3,-2 1.4,-14.2 2.3,-27 1.2,-15.1 2.2,-23.2 2.9,-23.2 0.6,0 6.2,2.1 12.5,4.6 z"
     id="path5882" />
  <path
     style="stroke-width:0.1"
     d="m 952.1,174.6 c -1.2,1.5 -2.1,3.4 -2.1,4.4 0,3.4 3.9,7 7.5,7 3.6,0 7.5,-3.6 7.5,-7 0,-3.4 -3.9,-7 -7.5,-7 -2.4,0 -3.9,0.7 -5.4,2.6 z"
     id="path5884" />
  <path
     style="stroke-width:0.1"
     d="m 815,176.5 c 0,0.3 3,10.4 6.6,22.3 l 6.5,21.7 4.6,36.8 c 2.6,20.2 5,36.6 5.5,36.5 0.4,-0.2 8.2,-8.8 17.3,-19.2 L 872,255.7 v -35.3 -35.3 l -3.2,-0.6 c -26.3,-4.4 -51.1,-8.5 -52.3,-8.5 -0.8,0 -1.5,0.2 -1.5,0.5 z m 31.3,10.7 19.7,3.2 v 31.4 31.3 l -11.7,13.4 c -6.5,7.3 -11.9,13.2 -12.1,13.1 -0.1,-0.2 -2,-14 -4.2,-30.7 -3.5,-27.8 -4.3,-31.8 -8.9,-46.9 -2.8,-9.1 -5.1,-16.8 -5.1,-17.3 0,-1.1 1,-1 22.3,2.5 z"
     id="path5886" />
  <path
     style="stroke-width:0.1"
     d="m 1044.9,182.9 c -2.8,2.3 -3.2,8.3 -0.6,10.8 2.1,2.1 8.2,2.2 10.2,0.2 0.8,-0.8 1.7,-2.9 2.1,-4.6 0.5,-2.6 0.1,-3.7 -1.9,-5.7 -3.1,-3.1 -6.6,-3.3 -9.8,-0.7 z"
     id="path5888" />
  <path
     style="stroke-width:0.1"
     d="m 900.5,184.5 c -3.9,3.9 -3.2,8.6 1.7,11.1 5.9,3 12.2,-2.7 9.9,-8.9 -1.9,-5.1 -7.7,-6.2 -11.6,-2.2 z"
     id="path5890" />
  <path
     style="stroke-width:0.1"
     d="m 191.5,190.5 c -6.3,6.3 1.8,16 8.8,10.5 3.5,-2.8 3.7,-8 0.5,-11 -2.9,-2.7 -6.4,-2.5 -9.3,0.5 z"
     id="path5892" />
  <path
     style="stroke-width:0.1"
     d="m 243,194 c -2.6,2.6 -2.5,6 0.1,9.4 2.5,3.1 6.6,3.5 10,0.8 2.8,-2.3 3,-7.3 0.4,-10.2 -2.4,-2.6 -7.9,-2.6 -10.5,0 z"
     id="path5894" />
  <path
     style="stroke-width:0.1"
     d="m 926.2,226.7 c -8.8,16.4 -15.9,29.9 -15.8,30 0.1,0.1 8.5,2 18.6,4.3 10.2,2.2 19.2,4.3 20,4.5 0.8,0.3 7.1,11.7 14,25.4 l 12.4,25 7.7,3 c 13.9,5.5 22.6,7.5 33.4,7.5 12.8,0.1 17.7,-1.7 23.9,-8.5 6.5,-7.3 8.1,-14 8.1,-34.9 0,-18.3 -1.8,-28 -7.7,-41 l -2.9,-6.5 -47.2,-19.3 c -26,-10.6 -47.5,-19.2 -47.8,-19.2 -0.4,0 -7.9,13.4 -16.7,29.7 z m 63.7,-4 43.4,17.7 2.3,5.3 c 8.3,18.6 9.8,50 3.1,64.1 -5.7,12.2 -21.7,14 -47.2,5.4 l -11,-3.7 -12.5,-24.7 c -6.9,-13.6 -12.9,-25.2 -13.5,-25.7 -0.5,-0.5 -8.4,-2.6 -17.5,-4.7 -9.1,-2 -16.7,-3.8 -16.9,-4 -0.2,-0.1 1.8,-4.3 4.4,-9.1 17.4,-32.3 20.7,-38.3 21.3,-38.3 0.4,0 20.2,7.9 44.1,17.7 z"
     id="path5896" />
  <path
     style="stroke-width:0.1"
     d="m 1006,201 c -2.6,2.6 -2.5,6 0.1,9.4 2.5,3.1 6.6,3.5 10,0.8 2.8,-2.3 3,-7.3 0.4,-10.2 -2.4,-2.6 -7.9,-2.6 -10.5,0 z"
     id="path5898" />
  <path
     style="stroke-width:0.1"
     d="m 146,213 c -4.3,4.3 -1.1,12 5,12 3.8,0 7,-3.2 7,-7 0,-3.8 -3.2,-7 -7,-7 -1.7,0 -3.9,0.9 -5,2 z"
     id="path5900" />
  <path
     style="stroke-width:0.1"
     d="m 541,213 c -1.1,1.1 -2,3.3 -2,5 0,1.7 0.9,3.9 2,5 1.1,1.1 3.3,2 5,2 1.7,0 3.9,-0.9 5,-2 1.1,-1.1 2,-3.3 2,-5 0,-1.7 -0.9,-3.9 -2,-5 -1.1,-1.1 -3.3,-2 -5,-2 -1.7,0 -3.9,0.9 -5,2 z"
     id="path5902" />
  <path
     style="stroke-width:0.1"
     d="m 793.5,213 c -4.2,4.6 -1,12 5.1,12 3.5,0 7.4,-3.7 7.4,-7 0,-1 -0.9,-2.9 -2.1,-4.4 -2.6,-3.3 -7.7,-3.6 -10.4,-0.6 z"
     id="path5904" />
  <path
     style="stroke-width:0.1"
     d="m 322.8,213.6 c -7.5,4 -2.1,15.6 6,12.8 6.3,-2.2 6.3,-11.1 0,-13.3 -1.7,-0.6 -3.1,-1.1 -3.2,-1.1 -0.1,0.1 -1.3,0.7 -2.8,1.6 z"
     id="path5906" />
  <path
     style="stroke-width:0.1"
     d="m 1074.6,216.1 c -1.9,1.5 -2.6,3 -2.6,5.4 0,3.6 3.6,7.5 7,7.5 3.4,0 7,-3.9 7,-7.5 0,-3.6 -3.6,-7.5 -7,-7.5 -1,0 -2.9,0.9 -4.4,2.1 z"
     id="path5908" />
  <path
     style="stroke-width:0.1"
     d="m 225.7,230.9 c -21.8,5.9 -39.9,11 -40.1,11.2 -0.3,0.2 8,18.6 18.4,40.9 l 18.8,40.5 35.7,30.3 c 19.7,16.7 36,30 36.5,29.5 1.8,-2.1 49.1,-119.6 48.3,-120.3 -2.3,-2.1 -75.3,-43 -76.4,-42.9 -0.8,0.1 -19.3,5 -41.2,10.8 z m 75.4,15.2 c 18.4,10.5 33.8,19.4 34.2,19.8 0.8,0.8 -41.5,105.7 -43.1,107.2 -0.4,0.4 -15,-11.5 -32.5,-26.5 l -31.9,-27.1 -16.9,-36.4 c -9.3,-20 -16.7,-36.6 -16.5,-36.9 0.7,-0.7 68.8,-19 71.2,-19.1 1.2,0 17.2,8.5 35.5,19 z"
     id="path5910" />
  <path
     style="stroke-width:0.1"
     d="m 679.2,231.3 c -4.5,4.8 -1.7,11.7 4.7,11.7 4.6,0 7.1,-2.4 7.1,-6.8 0,-6.5 -7.4,-9.6 -11.8,-4.9 z"
     id="path5912" />
  <path
     style="stroke-width:0.1"
     d="m 888.5,249.5 c -2.8,2.7 -3.2,6.1 -1,9.2 4.5,6.4 15.1,0.8 12.3,-6.6 -2,-5.4 -7.4,-6.6 -11.3,-2.6 z"
     id="path5914" />
  <path
     style="stroke-width:0.1"
     d="m 111.5,256.5 c -4,3.9 -2.9,9.7 2.2,11.6 5.8,2.2 11.6,-3.6 9.4,-9.4 -1.9,-5.1 -7.7,-6.2 -11.6,-2.2 z"
     id="path5916" />
  <path
     style="stroke-width:0.1"
     d="m 593.2,257.3 c -4.5,4.8 -1.7,11.7 4.7,11.7 4.6,0 7.1,-2.4 7.1,-6.8 0,-6.5 -7.4,-9.6 -11.8,-4.9 z"
     id="path5918" />
  <path
     style="stroke-width:0.1"
     d="m 640.8,272.3 -57.6,11 17,34.1 c 9.4,18.8 17.1,34.2 17.3,34.4 0.2,0.3 92.6,-37.5 93.2,-38.2 0.5,-0.5 -10.8,-51 -11.5,-51.7 -0.4,-0.3 -26.7,4.4 -58.4,10.4 z m 55.7,4.4 c 0.9,4.3 3,13.4 4.5,20.3 1.6,6.9 2.7,12.6 2.5,12.8 -0.6,0.6 -82.8,34.3 -83,34 -1.4,-1.5 -27.5,-55.2 -27.1,-55.6 0.7,-0.7 95.1,-18.9 98.7,-19.1 2.6,-0.1 2.8,0.3 4.4,7.6 z"
     id="path5920" />
  <path
     style="stroke-width:0.1"
     d="m 739,265 c -1.1,1.1 -2,3.3 -2,5 0,1.7 0.9,3.9 2,5 1.1,1.1 3.3,2 5,2 1.7,0 3.9,-0.9 5,-2 1.1,-1.1 2,-3.3 2,-5 0,-1.7 -0.9,-3.9 -2,-5 -1.1,-1.1 -3.3,-2 -5,-2 -1.7,0 -3.9,0.9 -5,2 z"
     id="path5922" />
  <path
     style="stroke-width:0.1"
     d="m 165,267 c -4.2,4.2 -0.8,12 5.3,12 5.8,0 9.1,-8.5 4.9,-12.3 -2.5,-2.3 -7.8,-2.1 -10.2,0.3 z"
     id="path5924" />
  <path
     style="stroke-width:0.1"
     d="m 394.7,273.7 c -0.9,0.2 -2.4,1.8 -3.3,3.5 -3,5.9 2.7,12.2 8.9,9.9 5.1,-1.9 6.2,-7.7 2.2,-11.6 -2.3,-2.4 -4,-2.8 -7.8,-1.8 z"
     id="path5926" />
  <path
     style="stroke-width:0.1"
     d="m 93.5,276.2 c -0.3,0.7 -5.4,16 -11.4,33.9 l -10.9,32.7 19.9,19.8 19.9,19.9 43.8,2.2 c 24,1.1 43.9,2 44.1,1.7 0.2,-0.2 -3.7,-16.4 -8.6,-36.1 l -8.9,-35.8 -19.6,-6.6 c -16.9,-5.7 -22.4,-8.1 -39.5,-17.4 -10.9,-5.9 -21.7,-11.9 -24,-13.2 -3.3,-1.9 -4.4,-2.2 -4.8,-1.1 z m 27.5,20.7 c 14.4,7.9 20.9,10.8 36.5,16.1 l 18.9,6.5 7.4,29.8 c 4.1,16.4 7.2,30 6.9,30.3 -0.3,0.3 -17.7,-0.3 -38.7,-1.3 l -38.1,-1.9 -17.8,-17.8 -17.9,-17.8 9.5,-28.4 9.5,-28.4 3.1,1.6 c 1.8,0.9 11.1,6 20.7,11.3 z"
     id="path5928" />
  <path
     style="stroke-width:0.1"
     d="m 1077.5,277.5 c -3,3 -3.1,5.4 -0.4,8.9 1.5,1.9 3,2.6 5.4,2.6 3.7,0 7.5,-3.7 7.5,-7.2 0,-2.7 -4.5,-6.8 -7.5,-6.8 -1.4,0 -3.7,1.1 -5,2.5 z"
     id="path5930" />
  <path
     style="stroke-width:0.1"
     d="m 530.8,281 c -2.4,2.5 -2.9,3.6 -2.4,5.8 1.5,6 7.9,8 12.1,3.7 3.9,-3.8 3.2,-8.6 -1.6,-11 -3.9,-2.1 -4.6,-1.9 -8.1,1.5 z"
     id="path5932" />
  <path
     style="stroke-width:0.1"
     d="m 449.7,285.8 c -2.3,2.5 -2.1,7.8 0.3,10.2 4.3,4.3 12,1.1 12,-5 0,-1.7 -0.9,-3.9 -2,-5 -2.6,-2.6 -8.1,-2.6 -10.3,-0.2 z"
     id="path5934" />
  <path
     style="stroke-width:0.1"
     d="m 930.3,286 c -2.5,1 -4.3,3.9 -4.3,7 0,2.8 4.3,7 7.3,7 6.3,0 9.1,-8.9 4.1,-12.9 -2.9,-2.3 -3.8,-2.4 -7.1,-1.1 z"
     id="path5936" />
  <path
     style="stroke-width:0.1"
     d="m 798,292.3 c -7.6,3.8 -2.8,15.4 5.5,13.3 2.9,-0.7 5.6,-5.6 4.8,-8.7 -1.1,-4.1 -6.5,-6.5 -10.3,-4.6 z"
     id="path5938" />
  <path
     style="stroke-width:0.1"
     d="m 485.6,309.2 -14,8.1 -19.9,-3.7 c -10.9,-2.1 -20,-3.6 -20.2,-3.4 -0.5,0.5 2.1,75.7 2.6,76.2 0.7,0.7 63.3,23.6 64.5,23.6 1,0 47,-96.9 46.2,-97.5 -0.7,-0.5 -42.6,-11.5 -43.9,-11.5 -0.8,0 -7.7,3.7 -15.3,8.2 z m 45.7,6 c 2.6,0.6 4.7,1.4 4.7,1.8 0,1 -39,84.4 -39.8,85.1 -0.4,0.3 -13.1,-4 -28.2,-9.6 l -27.5,-10.2 -0.6,-5.8 c -0.4,-3.2 -1,-17.9 -1.4,-32.5 l -0.7,-26.7 17.3,3.2 17.4,3.3 14.5,-8.3 14.5,-8.2 12.5,3.4 c 6.9,1.8 14.6,3.9 17.3,4.5 z"
     id="path5940" />
  <path
     style="stroke-width:0.1"
     d="m 38.5,308.5 c -4,3.9 -2.9,9.7 2.2,11.6 5.8,2.2 11.6,-3.6 9.4,-9.4 -1.9,-5.1 -7.7,-6.2 -11.6,-2.2 z"
     id="path5942" />
  <path
     style="stroke-width:0.1"
     d="m 196.5,308.5 c -4,3.9 -2.9,9.7 2.2,11.6 3.6,1.3 7.8,-0.5 9.3,-4 3.1,-7.5 -5.8,-13.4 -11.5,-7.6 z"
     id="path5944" />
  <path
     style="stroke-width:0.1"
     d="m 877.7,311.8 c -4,4.4 -0.7,12.2 5.1,12.2 6,0 9.4,-7.8 5.2,-12 -2.6,-2.6 -8.1,-2.6 -10.3,-0.2 z"
     id="path5946" />
  <path
     style="stroke-width:0.1"
     d="m 345.5,319 c -2.6,2.9 -2.4,7.9 0.4,10.2 7,5.6 16.4,-3.9 10.1,-10.2 -2.6,-2.6 -8.1,-2.6 -10.5,0 z"
     id="path5948" />
  <path
     style="stroke-width:0.1"
     d="m 726.7,318.8 c -4,4.4 -0.7,12.2 5.1,12.2 6,0 9.4,-7.8 5.2,-12 -2.6,-2.6 -8.1,-2.6 -10.3,-0.2 z"
     id="path5950" />
  <path
     style="stroke-width:0.1"
     d="m 778.7,323.4 -29.9,2.1 -6.7,27 -6.7,27.1 19.3,17.4 c 10.7,9.6 20.6,18.5 22.1,19.7 2.6,2.1 4.7,2.3 40.9,4.4 l 38.2,2.1 34.8,-15.2 c 19.1,-8.3 35.1,-15.5 35.5,-15.8 0.6,-0.6 -36.8,-42 -49.1,-54.6 l -3.8,-3.8 -29.8,-6.4 c -16.3,-3.5 -30.9,-6.3 -32.4,-6.3 -1.4,0.1 -16,1.1 -32.4,2.3 z m 64.2,10.2 27.3,5.8 23.1,24.9 c 12.9,14 22.6,25.2 22.1,25.7 -0.5,0.4 -14.3,6.7 -30.8,13.9 l -29.8,13 -36.7,-2.1 -36.6,-2 -9.5,-8.6 c -5.2,-4.8 -14.1,-12.8 -19.6,-17.9 l -10.2,-9.3 5.7,-22.7 5.7,-22.8 4,-0.3 c 28.7,-2.2 54.3,-3.9 55.9,-3.7 1.1,0.2 14.3,3 29.4,6.1 z"
     id="path5952" />
  <path
     style="stroke-width:0.1"
     d="m 994.2,343.3 c -4.5,4.8 -1.4,11.7 5.1,11.7 4.2,0 6.7,-2.6 6.7,-6.8 0,-6.5 -7.4,-9.6 -11.8,-4.9 z"
     id="path5954" />
  <path
     style="stroke-width:0.1"
     d="m 926.1,345.6 c -1.2,1.5 -2.1,3.4 -2.1,4.4 0,3.4 3.9,7 7.5,7 3.6,0 7.5,-3.6 7.5,-7 0,-3.4 -3.9,-7 -7.5,-7 -2.4,0 -3.9,0.7 -5.4,2.6 z"
     id="path5956" />
  <path
     style="stroke-width:0.1"
     d="m 664,352 c -2.6,2.6 -2.5,6 0.1,9.4 2.5,3.1 6.6,3.5 10,0.8 2.8,-2.3 3,-7.3 0.4,-10.2 -2.4,-2.6 -7.9,-2.6 -10.5,0 z"
     id="path5958" />
  <path
     style="stroke-width:0.1"
     d="m 947.1,398.2 c -7.4,23.8 -13.5,43.6 -13.5,43.9 -0.2,1.3 63.9,101.9 64.9,101.9 2.5,0 69.8,-15.9 70.5,-16.7 0.4,-0.4 6.7,-18.8 14.1,-40.8 l 13.2,-40.1 -24.4,-32.4 -24.4,-32.3 -41,-12.8 C 984,361.8 964.4,355.8 963,355.5 c -2.5,-0.5 -2.6,-0.3 -15.9,42.7 z m 56.4,-23.6 c 20.3,6.3 37.8,11.7 38.8,12 1.9,0.6 46.7,59.6 46.7,61.5 0,1.9 -24.1,73.8 -24.9,74.3 -2.2,1.4 -63.3,14.7 -64,14 -0.4,-0.5 -14.1,-22.1 -30.4,-47.9 l -29.6,-47 12.2,-39.2 c 6.7,-21.6 12.6,-39.3 13.2,-39.3 0.5,0 17.6,5.2 38,11.6 z"
     id="path5960" />
  <path
     style="stroke-width:0.1"
     d="m 397.7,358.8 c -4,4.4 -0.7,12.2 5.1,12.2 6,0 9.4,-7.8 5.2,-12 -2.6,-2.6 -8.1,-2.6 -10.3,-0.2 z"
     id="path5962" />
  <path
     style="stroke-width:0.1"
     d="m 564.1,359.6 c -1.2,1.5 -2.1,3.5 -2.1,4.6 0,2.7 4.5,6.8 7.5,6.8 3,0 7.5,-4.1 7.5,-6.8 0,-3.5 -3.8,-7.2 -7.5,-7.2 -2.4,0 -3.9,0.7 -5.4,2.6 z"
     id="path5964" />
  <path
     style="stroke-width:0.1"
     d="m 222.1,364.6 c -1.2,1.5 -2.1,3.4 -2.1,4.4 0,3.4 3.9,7 7.5,7 3.6,0 7.5,-3.6 7.5,-7 0,-3.4 -3.9,-7 -7.5,-7 -2.4,0 -3.9,0.7 -5.4,2.6 z"
     id="path5966" />
  <path
     style="stroke-width:0.1"
     d="m 64.3,366.2 c -2.8,1.4 -4.3,5.5 -3.1,8.9 0.9,2.6 4.4,4.9 7.4,4.9 2.4,0 6.4,-4.7 6.4,-7.5 0,-3 -4.1,-7.5 -6.7,-7.4 -1,0 -2.8,0.5 -4,1.1 z"
     id="path5968" />
  <path
     style="stroke-width:0.1"
     d="m 337,371 c -4.3,4.3 -1.1,12 5,12 3.8,0 7,-3.2 7,-7 0,-3.8 -3.2,-7 -7,-7 -1.7,0 -3.9,0.9 -5,2 z"
     id="path5970" />
  <path
     style="stroke-width:0.1"
     d="m 670.5,376.7 c -15.4,1.3 -28.2,2.6 -28.4,2.9 -0.2,0.2 0.9,10.9 2.5,23.7 l 2.9,23.2 39.8,0.3 c 21.8,0.1 39.7,-0.1 39.7,-0.5 0,-0.5 -3.9,-12.4 -8.6,-26.5 l -8.6,-25.8 -5.6,0.1 c -3.1,0.1 -18.3,1.2 -33.7,2.6 z m 41.2,22.8 c 3.5,10.4 6.3,19.5 6.3,20.2 0,1 -6.9,1.3 -32.4,1.3 h -32.4 l -0.5,-3.3 c -1.6,-8.6 -4,-31.8 -3.4,-32.3 0.6,-0.7 50.7,-5.3 54.1,-5 1.6,0.1 3.1,3.5 8.3,19.1 z"
     id="path5972" />
  <path
     style="stroke-width:0.1"
     d="m 1064.2,375.7 c -3.2,2.7 -3.7,6.4 -1.2,9.6 5.7,7.2 16.7,-0.8 11.3,-8.1 -2.5,-3.3 -7.1,-4 -10.1,-1.5 z"
     id="path5974" />
  <path
     style="stroke-width:0.1"
     d="m 203,412.9 -11.9,18 5.6,28.3 c 3.1,15.6 5.9,28.6 6.2,29 0.3,0.4 8,-5.7 17.1,-13.5 9.1,-7.8 18.5,-15.8 20.8,-17.8 l 4.3,-3.7 -14.5,-29.1 c -8.1,-16 -14.8,-29.1 -15.1,-29.1 -0.3,0 -5.9,8.1 -12.5,17.9 z m 23,16.1 c 6,12.1 11,22.2 11,22.5 0,1.2 -29.4,25.5 -30,24.8 -0.4,-0.4 -2.6,-10.5 -5,-22.4 l -4.2,-21.6 8.3,-12.6 c 4.6,-7 8.5,-12.7 8.6,-12.7 0.2,0 5.2,9.9 11.3,22 z"
     id="path5976" />
  <path
     style="stroke-width:0.1"
     d="m 369.7,402.5 c -25.7,3.5 -39.3,5.7 -40.2,6.6 -20.9,22.4 -59.5,65.4 -58.9,65.6 0.5,0.2 17.1,6.6 36.9,14.2 l 35.9,13.8 19.8,-14.9 c 10.9,-8.1 19.8,-15.5 19.8,-16.3 0,-0.8 0.6,-1.2 1.3,-0.9 1,0.3 17.1,-10.7 23.7,-16.3 0.3,-0.3 5.9,-51.9 6,-56.1 0,-1.7 -0.9,-1.6 -44.3,4.3 z m 37.2,3.2 c 0,1 -1,11.5 -2.2,23.3 l -2.2,21.5 -9.5,7.2 c -6,4.6 -9.6,8 -9.8,9.4 -0.3,1.6 -0.6,1.9 -1.2,0.9 -0.6,-1 -5.6,2.2 -19.8,12.8 -10.4,7.8 -19.5,14.2 -20.2,14.2 -1.5,0 -59.1,-21.9 -60.2,-22.9 -0.6,-0.5 34.8,-40.1 51.3,-57.5 0.7,-0.7 64.8,-10.1 72.2,-10.5 1,-0.1 1.7,0.6 1.6,1.6 z"
     id="path5978" />
  <path
     style="stroke-width:0.1"
     d="m 521.4,433.6 c -26.3,19.1 -48.2,34.9 -48.7,35.3 -0.7,0.7 15.1,44.2 16.6,45.7 0.7,0.7 65.2,5.3 76.7,5.4 4.8,0.1 14.5,-1.7 37,-7 16.8,-3.9 32.1,-7.5 34.1,-8 l 3.6,-1 -5.6,-33.3 -5.5,-33.4 -27.4,-17.4 c -15.1,-9.6 -28.6,-18.2 -30.1,-19.1 l -2.7,-1.8 z m 75.7,-9.5 c 14.8,9.4 26.9,17.3 26.9,17.6 0,0.2 2,12.5 4.5,27.3 2.5,14.8 4.5,27.7 4.5,28.7 0,1.7 -4,2.8 -31.9,9.2 l -31.9,7.4 -33.8,-2.2 c -18.7,-1.2 -35.7,-2.4 -37.9,-2.7 l -4.1,-0.5 -6.8,-18.4 c -3.8,-10.2 -6.6,-18.8 -6.2,-19.2 1.8,-1.8 88.2,-64.2 89,-64.2 0.4,-0.1 12.9,7.6 27.7,17 z"
     id="path5980" />
  <path
     style="stroke-width:0.1"
     d="m 615.5,404 c -4.2,4.7 -0.8,12 5.5,12 3.3,0 7,-4 7,-7.4 0,-5.7 -8.6,-8.9 -12.5,-4.6 z"
     id="path5982" />
  <path
     style="stroke-width:0.1"
     d="m 111,403.7 c -5.3,1.9 -6.8,8.6 -2.8,12.3 6.3,5.8 15.7,-3.3 10.1,-9.8 -2,-2.3 -5,-3.3 -7.3,-2.5 z"
     id="path5984" />
  <path
     style="stroke-width:0.1"
     d="m 170,403.7 c -5.3,1.9 -6.8,8.6 -2.8,12.3 6.3,5.8 15.7,-3.3 10.1,-9.8 -2,-2.3 -5,-3.3 -7.3,-2.5 z"
     id="path5986" />
  <path
     style="stroke-width:0.1"
     d="m 276.1,409.6 c -4.1,5.3 -1.3,11.4 5.2,11.4 4.2,0 7,-2.9 7,-7.2 0,-6.4 -8.3,-9.2 -12.2,-4.2 z"
     id="path5988" />
  <path
     style="stroke-width:0.1"
     d="m 515.6,412.1 c -1.9,1.5 -2.6,3 -2.6,5.4 0,3.6 3.6,7.5 7,7.5 3.4,0 7,-3.9 7,-7.5 0,-3.6 -3.6,-7.5 -7,-7.5 -1,0 -2.9,0.9 -4.4,2.1 z"
     id="path5990" />
  <path
     style="stroke-width:0.1"
     d="m 742.5,414.5 c -3.9,3.9 -3.2,8.6 1.7,11.1 5.9,3 12.2,-2.7 9.9,-8.9 -1.9,-5.1 -7.7,-6.2 -11.6,-2.2 z"
     id="path5992" />
  <path
     style="stroke-width:0.1"
     d="m 1102.6,426.1 c -1.9,1.5 -2.6,3 -2.6,5.4 0,3.7 3.7,7.5 7.2,7.5 2.7,0 6.8,-4.5 6.8,-7.5 0,-3 -4.1,-7.5 -6.8,-7.5 -1.1,0 -3.1,0.9 -4.6,2.1 z"
     id="path5994" />
  <path
     style="stroke-width:0.1"
     d="m 440.5,428.5 c -4,3.9 -2.9,9.5 2.2,11.3 7.8,2.7 13.6,-7.6 7,-12.3 -3.1,-2.2 -6.5,-1.8 -9.2,1 z"
     id="path5996" />
  <path
     style="stroke-width:0.1"
     d="m 897,430 c -4.3,4.3 -1.1,12 5,12 3.8,0 7,-3.2 7,-7 0,-3.8 -3.2,-7 -7,-7 -1.7,0 -3.9,0.9 -5,2 z"
     id="path5998" />
  <path
     style="stroke-width:0.1"
     d="m 696.7,439.1 c -4.8,2.8 -4,10.7 1.3,12.9 2.3,0.9 3.4,0.9 5.8,-0.4 4.9,-2.5 5.6,-7.2 1.7,-11.1 -2.5,-2.6 -5.8,-3.1 -8.8,-1.4 z"
     id="path6000" />
  <path
     style="stroke-width:0.1"
     d="m 821.7,439.1 c -4.8,2.8 -4,10.7 1.3,12.9 2.3,0.9 3.4,0.9 5.8,-0.4 4.9,-2.5 5.6,-7.2 1.7,-11.1 -2.5,-2.6 -5.8,-3.1 -8.8,-1.4 z"
     id="path6002" />
  <path
     style="stroke-width:0.1"
     d="m 144,451 c -2.6,2.6 -2.5,6 0.1,9.4 2.5,3.1 6.6,3.5 10,0.8 2.8,-2.3 3,-7.3 0.4,-10.2 -2.4,-2.6 -7.9,-2.6 -10.5,0 z"
     id="path6004" />
  <path
     style="stroke-width:0.1"
     d="m 823.5,462.2 c -12.1,6 -22.2,11.2 -22.3,11.3 -0.6,0.6 33.8,57.5 34.8,57.5 0.9,0 62.1,-55.4 62.3,-56.5 0.2,-0.7 -50.1,-23.5 -51.8,-23.4 -0.5,0 -10.9,5 -23,11.1 z m 43.8,4.5 c 10.8,4.8 19.7,9 19.7,9.4 0,0.4 -10,9.9 -22.2,21 -12.3,11.1 -23.5,21.3 -24.9,22.7 l -2.7,2.4 -13.6,-22.7 C 816.1,487.1 810,476.7 810,476.4 c 0,-0.5 35.2,-18.3 36.5,-18.4 0.6,0 9.9,3.9 20.8,8.7 z"
     id="path6006" />
  <path
     style="stroke-width:0.1"
     d="m 779.3,470 c -4.8,2 -5.8,8.7 -1.7,11.9 3.4,2.7 6.4,2.7 9.2,0.1 3.2,-3 3,-8.2 -0.4,-10.9 -2.9,-2.3 -3.8,-2.4 -7.1,-1.1 z"
     id="path6008" />
  <path
     style="stroke-width:0.1"
     d="m 656.2,474.7 c -3.2,2.7 -3.7,6.4 -1.2,9.6 5.7,7.2 16.7,-0.8 11.3,-8.1 -2.5,-3.3 -7.1,-4 -10.1,-1.5 z"
     id="path6010" />
  <path
     style="stroke-width:0.1"
     d="m 924.9,474.8 c -2.8,2.3 -3,7.3 -0.4,10.2 2.4,2.6 7.9,2.6 10.5,0 6.3,-6.3 -3.1,-15.8 -10.1,-10.2 z"
     id="path6012" />
  <path
     style="stroke-width:0.1"
     d="m 405.7,481.7 c -4.5,5.1 -1.7,12.3 4.8,12.3 3.6,0 7.5,-3.6 7.5,-7 0,-1 -0.9,-2.9 -2.1,-4.4 -2.4,-3.1 -7.7,-3.6 -10.2,-0.9 z"
     id="path6014" />
  <path
     style="stroke-width:0.1"
     d="m 100.7,483.8 c -2.3,2.5 -2.1,7.8 0.3,10.2 6.1,6.1 15.4,-2.7 10.4,-9.8 -2,-2.8 -8.3,-3.1 -10.7,-0.4 z"
     id="path6016" />
  <path
     style="stroke-width:0.1"
     d="m 249.5,486.5 c -4,3.9 -2.9,9.7 2.2,11.6 3.6,1.3 7.8,-0.5 9.3,-4 3.1,-7.5 -5.8,-13.4 -11.5,-7.6 z"
     id="path6018" />
  <path
     style="stroke-width:0.1"
     d="m 714.3,490.9 c -25.4,1.5 -46.4,2.9 -46.6,3.1 -0.2,0.3 4,20.3 9.4,44.5 5.4,24.2 10.3,46.3 10.9,49.2 l 1.1,5.2 63.6,21.2 c 35,11.6 64.3,21.2 65.1,21.3 1.2,0.1 2.8,-5.8 7.2,-25.4 l 5.7,-25.5 -2.9,-4.3 c -1.6,-2.3 -3.5,-4.2 -4.2,-4.2 -0.7,0 -1.2,-0.8 -1.2,-1.8 0.1,-1 -12.5,-20.8 -27.9,-44 -26.8,-40.4 -28.1,-42.1 -31,-42 -1.6,0 -23.8,1.3 -49.2,2.7 z m 76.1,44.6 c 14.8,22.3 27.5,40.5 28.3,40.5 0.8,0 1.1,0.5 0.8,1.1 -0.4,0.5 0.5,2.8 1.9,4.9 l 2.5,3.8 -4.6,21.1 c -2.8,12.5 -5.1,21 -5.8,20.8 -0.5,-0.2 -27.6,-9.3 -60.1,-20.1 l -59,-19.6 -1.4,-6.3 c -0.7,-3.4 -1.5,-7 -1.6,-7.9 -0.2,-0.9 -3.7,-16.9 -7.9,-35.5 -4.1,-18.6 -7.6,-34.9 -7.7,-36.3 l -0.3,-2.5 36,-2.1 c 19.8,-1.2 39.6,-2.2 44,-2.2 l 8,-0.1 z"
     id="path6020" />
  <path
     style="stroke-width:0.1"
     d="m 28.6,491.1 c -3.6,2.8 -3.6,8 0,10.8 1.5,1.2 3.4,2.1 4.4,2.1 3.4,0 7,-3.9 7,-7.5 0,-3.6 -3.6,-7.5 -7,-7.5 -1,0 -2.9,0.9 -4.4,2.1 z"
     id="path6022" />
  <path
     style="stroke-width:0.1"
     d="M 115.6,513.7 C 101.5,526.2 90,536.7 90,537 c 0,0.3 18.9,5.5 42,11.7 l 42.1,11.1 51.4,-17.1 c 28.3,-9.5 51.5,-17.4 51.5,-17.7 0,-0.5 -133.6,-34.1 -135.2,-34 -0.4,0 -12.2,10.2 -26.2,22.7 z m 85,-2.1 c 30,7.5 54.2,14 53.7,14.4 -0.4,0.4 -18.7,6.7 -40.7,14 l -39.8,13.2 -35.4,-9.3 c -19.5,-5.2 -35.3,-9.8 -35.1,-10.3 0.7,-2 39.3,-35.6 41,-35.6 0.9,0 26.3,6.1 56.3,13.6 z"
     id="path6024" />
  <path
     style="stroke-width:0.1"
     d="m 411.5,510 c -12.1,10.6 -23.1,19.6 -24.5,20.2 -1.3,0.5 -4.3,1.2 -6.5,1.5 -7,1 -50.6,9 -51,9.4 -0.5,0.6 5.2,66.9 5.9,67.6 0.5,0.5 101.8,-13.4 112.7,-15.4 l 2.6,-0.5 -1.4,-7.6 c -0.7,-4.3 -1.6,-9.3 -1.9,-11.2 -1.6,-10.4 -13.5,-81.6 -13.7,-82.4 -0.2,-0.5 -10.2,7.8 -22.2,18.4 z m 25,35.8 c 3.8,22.6 6.6,41.4 6.4,41.6 -0.5,0.5 -98.1,14.6 -100.8,14.6 -1.5,0 -2,-3.6 -3.9,-27.6 -1.3,-15.2 -2.1,-27.8 -1.9,-28.1 0.3,-0.2 12.7,-2.7 27.7,-5.4 l 27.3,-5 18.6,-16.3 c 10.2,-9 18.9,-16.1 19.2,-15.8 0.3,0.4 3.7,19.3 7.4,42 z"
     id="path6026" />
  <path
     style="stroke-width:0.1"
     d="m 1101.7,495.8 c -2.5,2.8 -2.2,8.7 0.5,10.6 7.1,5 15.9,-4.3 9.8,-10.4 -2.6,-2.6 -8.1,-2.6 -10.3,-0.2 z"
     id="path6028" />
  <path
     style="stroke-width:0.1"
     d="m 889,535.3 c -14,20.4 -25.5,38 -25.4,38.9 0,1 -0.5,1.8 -1.3,1.8 -1.3,0 -9,10.7 -8.2,11.4 0.2,0.2 17.9,2.8 39.3,5.9 l 39,5.6 12.7,-10.2 c 9.8,-7.7 12.5,-10.4 11.7,-11.4 -0.8,-1 -0.4,-1.3 1.6,-1.3 2.2,0 2.6,-0.3 2.1,-2.3 -0.3,-1.2 -2.8,-13.4 -5.5,-27 -2.7,-13.6 -5.2,-25.2 -5.6,-25.8 -0.7,-1.2 -33.1,-22.9 -34.1,-22.9 -0.5,0 -12.3,16.8 -26.3,37.3 z m 41.5,-20 c 6.6,4.4 12.4,8.3 12.9,8.7 0.4,0.5 3.2,12.3 6,26.4 4.8,23.7 5,25.6 3.3,25.6 -1,0 -6.4,3.7 -11.9,8.2 l -10.1,8.1 -26.1,-3.7 c -14.3,-2 -29.3,-4.2 -33.3,-4.8 l -7.2,-1 1.5,-2.4 c 0.9,-1.3 1.3,-2.8 0.9,-3.4 -0.3,-0.5 0,-1 0.8,-1 0.7,0 12.1,-15.7 25.3,-34.9 13.1,-19.2 24.4,-34.6 24.9,-34.3 0.6,0.3 6.4,4.1 13,8.5 z"
     id="path6030" />
  <path
     style="stroke-width:0.1"
     d="m 345.9,514.8 c -4.8,4 -1.7,12.2 4.7,12.2 6.6,0 9.8,-7.4 5.1,-11.8 -2.8,-2.7 -6.7,-2.8 -9.8,-0.4 z"
     id="path6032" />
  <path
     style="stroke-width:0.1"
     d="m 870.7,516.8 c -2.3,2.5 -2.1,7.8 0.3,10.2 6.1,6.1 15.4,-2.7 10.4,-9.8 -2,-2.8 -8.3,-3.1 -10.7,-0.4 z"
     id="path6034" />
  <path
     style="stroke-width:0.1"
     d="m 470.5,523 c -2.6,2.9 -2.4,7.9 0.4,10.2 7,5.6 16.4,-3.9 10.1,-10.2 -2.6,-2.6 -8.1,-2.6 -10.5,0 z"
     id="path6036" />
  <path
     style="stroke-width:0.1"
     d="m 967,522.3 c -1.4,0.7 -3.1,2.4 -3.9,3.8 -1.2,2.2 -1.2,2.9 0,5.4 2.7,5.7 10.5,5.7 13.1,0 2.6,-5.7 -3.7,-11.9 -9.2,-9.2 z"
     id="path6038" />
  <path
     style="stroke-width:0.1"
     d="m 574,529.3 c -5.2,2.6 -4.9,10.4 0.4,12.8 8.1,3.7 13.8,-7.3 6.4,-12.5 -2.7,-1.9 -3.5,-2 -6.8,-0.3 z"
     id="path6040" />
  <path
     style="stroke-width:0.1"
     d="m 61,542.3 c -3.3,1.6 -4.7,5.8 -3.2,9.2 2.5,5.5 10,5.8 12.7,0.5 3.2,-6.1 -3.3,-12.8 -9.5,-9.7 z"
     id="path6042" />
  <path
     style="stroke-width:0.1"
     d="m 513.2,557.4 c -8.7,9.6 -14.1,16.3 -13.8,17.2 0.3,0.9 -0.1,1.4 -1.3,1.4 -1.1,0 -6.8,5.6 -14.1,13.7 l -12.2,13.8 27.7,0.3 c 15.3,0.1 28,0.1 28.2,-0.1 0.2,-0.2 0.2,-14.3 0.1,-31.3 l -0.3,-30.9 z m 8.5,18.3 c -0.3,0.2 -4.1,0.3 -8.5,0.1 l -8.1,-0.3 8.2,-8.9 8.2,-9 0.3,8.9 c 0.2,4.8 0.1,8.9 -0.1,9.2 z m 0.3,12.8 v 9.5 h -18 c -9.9,0 -18,-0.3 -18,-0.6 0,-0.3 3.7,-4.6 8.1,-9.5 l 8.2,-8.9 h 9.8 9.9 z"
     id="path6044" />
  <path
     style="stroke-width:0.1"
     d="m 638,543 c -2.6,2.6 -2.5,6 0.1,9.4 2.5,3.1 6.6,3.5 10,0.8 2.8,-2.3 3,-7.3 0.4,-10.2 -2.4,-2.6 -7.9,-2.6 -10.5,0 z"
     id="path6046" />
  <path
     style="stroke-width:0.1"
     d="m 270.6,546.1 c -5,3.9 -2.2,12.2 4.2,12.2 4.3,0 7.2,-2.8 7.2,-7 0,-6.5 -6.1,-9.3 -11.4,-5.2 z"
     id="path6048" />
  <path
     style="stroke-width:0.1"
     d="m 1061.7,549.8 c -2.3,2.5 -2.1,7.8 0.3,10.2 6.1,6.1 15.4,-2.7 10.4,-9.8 -2,-2.8 -8.3,-3.1 -10.7,-0.4 z"
     id="path6050" />
  <path
     style="stroke-width:0.1"
     d="m 589,561 c -4.7,6.6 -8.4,12.6 -8.4,13.5 0.1,0.8 -0.4,1.5 -1.1,1.5 -0.7,0 -6.6,7.3 -13.1,16.2 -6.4,9 -12.1,16.8 -12.5,17.4 -0.9,1.1 14.6,60.1 16.2,61.8 0.5,0.5 9.5,-2.4 21.2,-6.8 11.2,-4.2 20.8,-7.6 21.3,-7.6 0.5,0 11.7,12.2 24.9,27 13.2,14.8 24.2,26.9 24.5,26.9 0.4,0.1 16.1,-67.1 17.4,-74 0,-0.4 -12.5,-14.1 -27.9,-30.5 -19.7,-21.1 -28.6,-30 -30.4,-30.2 -1.8,-0.3 -2.1,-0.6 -1.1,-1.2 1,-0.6 -1.6,-4 -10.4,-13.4 -6.5,-6.9 -11.9,-12.6 -12,-12.6 0,0.1 -3.9,5.5 -8.6,12 z m 27.2,15 c 1,0 1.5,0.5 1.3,1.3 -0.3,0.7 12.1,14.7 27.5,31.2 18.3,19.5 27.8,30.4 27.5,31.4 -0.2,0.9 -3.2,13.5 -6.5,28.1 -3.3,14.6 -6.4,27.3 -6.8,28.2 -0.5,1.4 -5.2,-3.3 -22.6,-22.6 -21,-23.4 -22,-24.4 -24.5,-23.4 -17.9,6.8 -37.5,13.8 -37.8,13.4 -0.2,-0.2 -3.6,-11.9 -7.4,-26.1 l -7,-25.6 2.3,-3.2 c 1.2,-1.8 6.7,-9.3 12.1,-16.7 5.3,-7.4 9.5,-14 9.3,-14.7 -0.3,-0.7 0.1,-1.3 0.9,-1.3 0.7,0 4.2,-3.9 7.7,-8.6 l 6.3,-8.7 8,8.7 c 4.4,4.7 8.8,8.6 9.7,8.6 z"
     id="path6052" />
  <path
     style="stroke-width:0.1"
     d="m 824.2,553 c -2.6,2.4 -2.9,6.6 -0.6,9.8 1.1,1.6 2.5,2.2 5.3,2.2 4.6,0 7.1,-2.4 7.1,-6.8 0,-6.4 -7.2,-9.5 -11.8,-5.2 z"
     id="path6054" />
  <path
     style="stroke-width:0.1"
     d="m 1030.6,593.5 -14.7,17.6 2.3,2.8 c 8.1,9.5 42.2,48.1 42.4,47.8 0.1,-0.1 -2.5,-19.5 -5.8,-43 -5.4,-37.1 -6.4,-42.7 -7.8,-42.7 -1,0 -8,7.5 -16.4,17.5 z m 17.4,21.7 c 2.1,14.5 3.6,26.4 3.5,26.6 -0.1,0.1 -6.4,-6.7 -13.8,-15.2 l -13.7,-15.4 9.7,-11.6 c 5.3,-6.4 9.8,-11.4 10,-11.2 0.3,0.2 2.2,12.3 4.3,26.8 z"
     id="path6056" />
  <path
     style="stroke-width:0.1"
     d="m 976,588 c -4.3,4.3 -1.1,12 5,12 3.8,0 7,-3.2 7,-7 0,-3.8 -3.2,-7 -7,-7 -1.7,0 -3.9,0.9 -5,2 z"
     id="path6058" />
  <path
     style="stroke-width:0.1"
     d="m 92,593.8 c -5.1,1.6 -6.8,8.4 -3,12.2 5.7,5.7 14.9,-1.8 11,-9 -1.1,-2 -5.8,-3.9 -8,-3.2 z"
     id="path6060" />
  <path
     style="stroke-width:0.1"
     d="m 145.5,597.1 c -1.4,2.1 -27.5,65.3 -27.5,66.3 0,0.6 17.7,4.7 41.8,9.5 22.9,4.6 42.2,8.8 42.7,9.2 0.6,0.4 6.9,11.4 14,24.3 7.2,13 13.4,23.6 13.8,23.6 0.6,0 64.5,-59.1 80,-74 l 3.8,-3.7 -38.4,-24.7 -38.5,-24.7 -40.3,-2.9 c -22.2,-1.6 -42.7,-3.2 -45.6,-3.5 -3.1,-0.3 -5.4,-0.1 -5.8,0.6 z m 49,8.9 40.7,3 34.4,22.2 c 19,12.2 34.1,22.5 33.7,22.9 -16.4,15.6 -70.9,65.9 -71.4,65.9 -0.4,0 -6.1,-9.9 -12.8,-21.9 l -12.2,-21.9 -4.7,-1 c -2.6,-0.6 -20.8,-4.3 -40.5,-8.3 -19.6,-4 -35.6,-7.6 -35.5,-8 0.2,-0.4 5.5,-13.1 11.8,-28.3 10,-24.2 11.7,-27.6 13.6,-27.6 1.2,0 20.5,1.4 42.9,3 z"
     id="path6062" />
  <path
     style="stroke-width:0.1"
     d="m 843.6,598.1 c -4.6,3.6 -2.6,11 3.4,12.4 6.4,1.5 10.8,-7.8 5.8,-12.5 -2.8,-2.6 -5.8,-2.6 -9.2,0.1 z"
     id="path6064" />
  <path
     style="stroke-width:0.1"
     d="m 295.3,602.2 c -6.8,3.3 -3.9,13.8 3.8,13.8 2.8,0 6.9,-4.4 6.9,-7.3 0,-5.1 -6.1,-8.8 -10.7,-6.5 z"
     id="path6066" />
  <path
     style="stroke-width:0.1"
     d="m 437.6,603.1 c -3.6,2.8 -3.6,8 0,10.8 1.5,1.2 3.4,2.1 4.4,2.1 1,0 2.9,-0.9 4.4,-2.1 3.4,-2.7 3.5,-7.1 0.1,-10.4 -3,-3 -5.4,-3.1 -8.9,-0.4 z"
     id="path6068" />
  <path
     style="stroke-width:0.1"
     d="m 1072,608.2 c -2.7,2.9 -2.5,6.9 0.3,9.6 4.6,4.3 12,1.5 12,-4.6 0,-6.6 -7.8,-9.8 -12.3,-5 z"
     id="path6070" />
  <path
     style="stroke-width:0.1"
     d="m 697.1,619.6 c -4.1,5.3 -1.3,11.4 5.2,11.4 4.2,0 7,-2.9 7,-7.2 0,-6.4 -8.3,-9.2 -12.2,-4.2 z"
     id="path6072" />
  <path
     style="stroke-width:0.1"
     d="m 944,629.3 c -18.4,4.9 -33.6,9.1 -33.8,9.2 -0.1,0.1 2.8,20.3 6.5,45 l 6.8,44.8 51,13.3 c 28,7.3 51,13.2 51.1,13.1 2,-2.7 32.1,-55.4 31.8,-55.8 -0.2,-0.3 -11.1,-5.5 -24.3,-11.4 L 1009.2,676.6 994,648.3 c -8.3,-15.6 -15.5,-28.2 -15.8,-28.2 -0.4,0.1 -15.8,4.2 -34.2,9.2 z m 46.5,25.7 14.3,26.4 21.3,9.8 c 11.8,5.3 21.8,9.9 22.3,10.1 1.4,0.5 -25.3,45.7 -27,45.7 -2.2,0 -90.8,-23.2 -91.7,-24 -0.8,-0.7 -12.9,-79.2 -12.2,-79.8 0.8,-0.8 55.2,-15.1 56.9,-14.9 1.3,0.1 5.9,7.7 16.1,26.7 z"
     id="path6074" />
  <path
     style="stroke-width:0.1"
     d="m 525.5,624.5 c -5.8,5.7 0.1,14.6 7.6,11.5 3.5,-1.5 5.3,-5.7 4,-9.3 -1.9,-5.1 -7.7,-6.2 -11.6,-2.2 z"
     id="path6076" />
  <path
     style="stroke-width:0.1"
     d="m 401.3,634.3 c -10.1,5.6 -18.3,10.8 -18.3,11.5 0,0.7 -0.5,1 -1,0.7 -0.6,-0.4 -11.6,5.3 -24.5,12.5 -20.9,11.7 -23.4,13.4 -23,15.3 0.3,1.2 4,22.1 8.3,46.4 4.3,24.3 8,44.4 8.3,44.7 0.2,0.2 12.7,-1.9 27.7,-4.6 15,-2.8 27.8,-4.8 28.5,-4.5 0.8,0.3 3.3,9.7 6.2,23.1 4.5,20.4 5.2,22.6 7,22.5 1.1,0 16.1,-1.3 33.4,-2.7 24.9,-2.1 31.5,-3 32.2,-4.2 0.9,-1.7 27.2,-149.1 26.7,-149.6 -0.6,-0.5 -89.9,-21.4 -91.7,-21.4 -0.9,0 -9.8,4.6 -19.8,10.3 z m 64,6.1 c 21.9,5.2 40,9.6 40.2,9.8 0.2,0.2 -5.2,31.6 -12,69.8 -6.9,38.2 -12.5,69.8 -12.5,70.1 0,0.6 -56.9,5.4 -57.4,4.8 -0.2,-0.2 -2.6,-10.7 -5.4,-23.2 -2.7,-12.6 -5.2,-23 -5.4,-23.2 -0.1,-0.1 -12.2,1.9 -26.8,4.6 -14.6,2.7 -27.4,4.8 -28.4,4.7 -1.8,-0.3 -2.7,-4.4 -9.2,-41.3 -5.3,-29.9 -6.9,-41.2 -6.1,-41.7 0.7,-0.4 10.1,-5.8 21,-11.9 13.2,-7.4 19.7,-11.6 19.7,-12.7 0,-1.2 0.3,-1.3 0.8,-0.5 0.5,0.9 6.2,-1.9 19.2,-9.2 12,-6.7 19.2,-10.2 20.5,-9.9 1.1,0.3 19.9,4.7 41.8,9.8 z"
     id="path6078" />
  <path
     style="stroke-width:0.1"
     d="m 364,627 c -1.1,1.1 -2,3.3 -2,5 0,1.7 0.9,3.9 2,5 1.1,1.1 3.3,2 5,2 1.7,0 3.9,-0.9 5,-2 1.1,-1.1 2,-3.3 2,-5 0,-1.7 -0.9,-3.9 -2,-5 -1.1,-1.1 -3.3,-2 -5,-2 -1.7,0 -3.9,0.9 -5,2 z"
     id="path6080" />
  <path
     style="stroke-width:0.1"
     d="m 760.2,639.6 c -2.8,2 -3.1,8.3 -0.4,10.7 4.4,4 12.2,0.7 12.2,-5.1 0,-5.9 -6.7,-9.2 -11.8,-5.6 z"
     id="path6082" />
  <path
     style="stroke-width:0.1"
     d="m 1020.5,650.5 c -1.4,1.3 -2.5,3.6 -2.5,5 0,3 4.1,7.5 6.8,7.5 3.5,0 7.2,-3.8 7.2,-7.3 0,-3.8 -0.7,-5 -3.7,-6.6 -3.3,-1.7 -5.1,-1.4 -7.8,1.4 z"
     id="path6084" />
  <path
     style="stroke-width:0.1"
     d="m 869.2,658.3 c -4.3,4.6 -1.5,12 4.6,12 4.3,0 7.2,-2.8 7.2,-7 0,-6.6 -7.4,-9.7 -11.8,-5 z"
     id="path6086" />
  <path
     style="stroke-width:0.1"
     d="m 778.4,669.6 -16.1,5.5 -5.8,20 c -3.1,11.1 -5.3,20.5 -4.8,20.9 1,1 86.6,33 88.1,33 0.9,0 1.2,-10.6 1.2,-42.5 V 664 l -23.2,0.1 -23.3,0.1 z m 56.4,35.6 c 0.2,27.5 0,34.8 -1,34.8 -2.4,-0.1 -75.3,-27.8 -75.2,-28.7 0.1,-0.4 2.1,-7.7 4.5,-16 l 4.3,-15.3 14.6,-4.9 14.5,-5 19,0.2 19,0.2 z"
     id="path6088" />
  <path
     style="stroke-width:0.1"
     d="m 78,681.2 c -5.8,6.3 3.2,15.6 9.8,10 3.2,-2.6 3.7,-6.3 1.2,-9.5 -2.8,-3.5 -8,-3.7 -11,-0.5 z"
     id="path6090" />
  <path
     style="stroke-width:0.1"
     d="m 532.3,681.2 c -6.8,3.3 -3.9,13.8 3.8,13.8 2.8,0 6.9,-4.4 6.9,-7.3 0,-5.1 -6.1,-8.8 -10.7,-6.5 z"
     id="path6092" />
  <path
     style="stroke-width:0.1"
     d="m 707.5,687 c -4.2,4.6 -0.8,12 5.4,12 3.4,0 7.1,-3.7 7.1,-7.1 0,-6 -8.5,-9.3 -12.5,-4.9 z"
     id="path6094" />
  <path
     style="stroke-width:0.1"
     d="m 156.3,688.2 c -2.8,1.4 -4.3,5.5 -3.1,8.9 0.9,2.6 4.4,4.9 7.4,4.9 2.4,0 6.4,-4.7 6.4,-7.5 0,-3 -4.1,-7.5 -6.7,-7.4 -1,0 -2.8,0.5 -4,1.1 z"
     id="path6096" />
  <path
     style="stroke-width:0.1"
     d="m 598.1,692.6 c -2.7,3.4 -2.7,6.4 -0.1,9.2 4.5,4.8 12.3,1.6 12.3,-5 0,-6.4 -8.3,-9.2 -12.2,-4.2 z"
     id="path6098" />
  <path
     style="stroke-width:0.1"
     d="M 76.8,711.5 55.3,725 47,746.9 l -8.2,22 10.7,32.3 c 5.9,17.8 11,32.6 11.4,33 0.3,0.3 19,-3.1 41.6,-7.6 l 41,-8.2 13.7,-46.4 c 7.5,-25.6 13.5,-46.6 13.4,-46.8 C 170,724.6 100.5,698 99.5,698 c -0.6,0 -10.8,6.1 -22.7,13.5 z m 54.5,5.1 c 16.6,6.4 30.6,11.9 31,12.3 0.6,0.6 -22.6,82.6 -23.8,83.9 -0.1,0.1 -16.7,3.5 -36.8,7.6 l -36.6,7.3 -9.6,-28.6 c -5.2,-15.7 -9.5,-29.5 -9.4,-30.6 0,-1.1 3.3,-10.4 7.2,-20.8 l 7.2,-18.7 19,-11.9 c 10.5,-6.6 19.6,-12 20.3,-12 0.7,-0.1 14.9,5.1 31.5,11.5 z"
     id="path6100" />
  <path
     style="stroke-width:0.1"
     d="m 302,699.7 c -5.3,1.9 -6.8,8.6 -2.8,12.3 6.3,5.8 15.7,-3.3 10.1,-9.8 -2,-2.3 -5,-3.3 -7.3,-2.5 z"
     id="path6102" />
  <path
     style="stroke-width:0.1"
     d="m 1069.9,704.8 c -4.9,4 -1.7,12.2 4.8,12.2 6.5,0 9.3,-6.1 5.2,-11.4 -2.5,-3.1 -6.6,-3.5 -10,-0.8 z"
     id="path6104" />
  <path
     style="stroke-width:0.1"
     d="m 8.7,706.8 c -4,4.5 -0.6,12.2 5.3,12.2 6.1,0 9.3,-7.7 5,-12 -2.6,-2.6 -8.1,-2.6 -10.3,-0.2 z"
     id="path6106" />
  <path
     style="stroke-width:0.1"
     d="m 880.7,722.1 c -4.8,2.8 -4,10.7 1.2,12.9 7.5,3.1 13.4,-5.8 7.6,-11.5 -2.5,-2.6 -5.8,-3.1 -8.8,-1.4 z"
     id="path6108" />
  <path
     style="stroke-width:0.1"
     d="m 680,752 v 28.2 l 6.2,10.6 c 6.9,11.7 15.8,24 20.9,28.9 1.9,1.8 5.4,4.3 7.9,5.5 3.7,1.9 5.1,3.5 7.8,8.8 4.8,9.6 9.1,29.2 11.7,53.3 0.4,3.2 1,5.7 1.4,5.5 0.4,-0.2 17.5,-11.1 37.9,-24.2 31.3,-20.1 37.2,-24.3 37.2,-26.2 0,-1.3 1.1,-16.6 2.5,-34.1 1.4,-17.4 2.2,-32 1.8,-32.4 -0.6,-0.4 -120.2,-46.6 -133.5,-51.5 -1.7,-0.6 -1.8,1.2 -1.8,27.6 z m 68.5,4.7 c 32.5,12.4 59.4,23 59.9,23.4 1.3,1.2 -3.2,60.1 -4.7,61.5 -1.3,1.3 -60.6,39.4 -62.3,40.1 -0.6,0.2 -1.7,-4.1 -2.8,-11.4 -3.1,-21.2 -7.9,-37.4 -13.5,-45.2 -1.2,-1.6 -3.7,-3.6 -5.8,-4.6 -8,-3.8 -18.7,-16.7 -29.2,-35.3 l -4.1,-7.4 v -22.5 c 0,-21 0.1,-22.5 1.8,-21.9 0.9,0.4 28.3,10.8 60.7,23.3 z"
     id="path6110" />
  <path
     style="stroke-width:0.1"
     d="m 562.5,736.2 c -19.2,6.1 -35.1,11.2 -35.3,11.3 -0.2,0.2 6.7,9.3 15.2,20.3 l 15.6,20 v 23.1 c 0,12.7 0.2,23.1 0.5,23.1 0.7,0 89.3,-70.9 90,-72 0.6,-0.9 -48.3,-37 -50,-36.9 -0.5,0.1 -16.7,5.1 -36,11.1 z m 56,10.4 c 11,8 20.1,14.7 20.3,14.9 0.4,0.4 -72.3,58.8 -73.8,59.3 -0.6,0.2 -1,-6.4 -1,-17.6 v -18 l -13,-16.7 c -7.1,-9.2 -13,-17 -13,-17.4 0,-0.5 57.2,-18.8 59.5,-19 0.6,0 10,6.5 21,14.5 z"
     id="path6112" />
  <path
     style="stroke-width:0.1"
     d="m 203,732.7 c -5.3,1.9 -6.8,8.6 -2.8,12.3 6.3,5.8 15.7,-3.3 10.1,-9.8 -2,-2.3 -5,-3.3 -7.3,-2.5 z"
     id="path6114" />
  <path
     style="stroke-width:0.1"
     d="m 647.7,733.8 c -4,4.4 -0.7,12.2 5.1,12.2 6,0 9.4,-7.8 5.2,-12 -2.6,-2.6 -8.1,-2.6 -10.3,-0.2 z"
     id="path6116" />
  <path
     style="stroke-width:0.1"
     d="m 296.1,744.6 c -4.1,5.3 -1.3,11.4 5.2,11.4 4.3,0 7,-2.9 6.9,-7.2 -0.2,-6.5 -8.2,-9.2 -12.1,-4.2 z"
     id="path6118" />
  <path
     style="stroke-width:0.1"
     d="m 21.6,748.1 c -3.6,2.8 -3.6,8 0,10.8 1.5,1.2 3.4,2.1 4.4,2.1 3.4,0 7,-3.9 7,-7.5 0,-3.6 -3.6,-7.5 -7,-7.5 -1,0 -2.9,0.9 -4.4,2.1 z"
     id="path6120" />
  <path
     style="stroke-width:0.1"
     d="m 984.7,769.2 c -6.5,5 -1.2,15.3 6.4,12.6 5.3,-1.8 6.5,-7.3 2.4,-11.3 -2.6,-2.7 -6.2,-3.2 -8.8,-1.3 z"
     id="path6122" />
  <path
     style="stroke-width:0.1"
     d="m 223.8,772.6 c -16.8,1.2 -31.8,2.4 -33.2,2.6 -2.3,0.3 -0.2,2.8 22.1,27.3 13.5,14.8 26.4,29.1 28.8,31.7 l 4.2,4.7 36.4,-14 c 20,-7.7 36.7,-14.3 37.1,-14.7 0.4,-0.4 -10.7,-9.6 -24.7,-20.5 l -25.4,-19.7 -7.3,0.1 c -4,0.1 -21.1,1.2 -38,2.5 z m 62.8,18.9 c 10.9,8.5 20,15.8 20.2,16.3 0.2,0.7 -57.1,23.3 -59,23.2 -0.9,0 -45.8,-49.2 -45.8,-50.1 0,-0.5 49.3,-4.4 60.1,-4.8 4.4,-0.1 5.1,0.3 24.5,15.4 z"
     id="path6124" />
  <path
     style="stroke-width:0.1"
     d="m 1030,773.7 c -3.7,4.7 -0.2,11.3 6,11.3 3.3,0 7,-4 7,-7.4 0,-6.3 -9,-8.9 -13,-3.9 z"
     id="path6126" />
  <path
     style="stroke-width:0.1"
     d="m 848.5,775.5 c -5.7,5.7 0.1,14.6 7.6,11.5 5.6,-2.4 5.9,-10.3 0.3,-12.9 -3.7,-1.6 -5.2,-1.4 -7.9,1.4 z"
     id="path6128" />
  <path
     style="stroke-width:0.1"
     d="m 354,778.7 c -5.3,1.9 -6.7,8.3 -2.7,12.1 2.9,2.8 5.7,2.8 9.1,0.1 5.7,-4.5 0.4,-14.6 -6.4,-12.2 z"
     id="path6130" />
  <path
     style="stroke-width:0.1"
     d="m 512.5,783.5 c -4,3.9 -2.9,9.5 2.2,11.3 7.8,2.7 13.6,-7.6 7,-12.3 -3.1,-2.2 -6.5,-1.8 -9.2,1 z"
     id="path6132" />
  <path
     style="stroke-width:0.1"
     d="m 643.2,803.7 c -5.2,4.4 -2.4,12.3 4.3,12.3 3.6,0 7.5,-3.6 7.5,-7 0,-1 -0.9,-2.9 -2.1,-4.4 -2.4,-3.1 -6.7,-3.5 -9.7,-0.9 z"
     id="path6134" />
  <path
     style="stroke-width:0.1"
     d="m 421.5,822.5 c -4.6,4.6 -1.9,11.8 4.4,11.8 6.6,0 9.8,-7.6 5.1,-12.3 -2.7,-2.7 -6.6,-2.5 -9.5,0.5 z"
     id="path6136" />
  <path
     style="stroke-width:0.1"
     d="m 33,825 c -6.1,6.1 2.7,15.4 9.8,10.4 2.8,-2 3.1,-8.3 0.4,-10.7 -2.5,-2.3 -7.8,-2.1 -10.2,0.3 z"
     id="path6138" />
  <path
     style="stroke-width:0.1"
     d="m 151,832 c -6.3,6.3 3.1,15.8 10.1,10.2 2.8,-2.3 3,-7.3 0.4,-10.2 -2.4,-2.6 -7.9,-2.6 -10.5,0 z"
     id="path6140" />
  <path
     style="stroke-width:0.1"
     d="m 206.7,831.8 c -4,4.4 -0.7,12.2 5.1,12.2 6,0 9.4,-7.8 5.2,-12 -2.6,-2.6 -8.1,-2.6 -10.3,-0.2 z"
     id="path6142" />
  <path
     style="stroke-width:0.1"
     d="m 307.1,832.6 c -2.7,3.5 -2.6,5.9 0.4,8.9 3.3,3.4 7.7,3.3 10.4,-0.1 1.2,-1.5 2.1,-3.4 2.1,-4.4 0,-3.4 -3.9,-7 -7.5,-7 -2.4,0 -3.9,0.7 -5.4,2.6 z"
     id="path6144" />
  <path
     style="stroke-width:0.1"
     d="m 1023.3,830.8 c -5.4,0.8 -7.1,8.7 -2.7,12.1 5.3,4.1 11.4,1.3 11.4,-5.2 0,-4.8 -3.8,-7.7 -8.7,-6.9 z"
     id="path6146" />
  <path
     style="stroke-width:0.1"
     d="m 592.9,844.4 c -3.7,1.8 -5.6,5.9 -4.1,9 2.5,5.6 10.1,5.9 13.1,0.5 3.1,-5.6 -3.3,-12.4 -9,-9.5 z"
     id="path6148" />
  <path
     style="stroke-width:0.1"
     d="m 827.1,851.6 c -1.2,1.5 -2.1,3.4 -2.1,4.4 0,3.4 3.9,7 7.5,7 3.6,0 7.5,-3.6 7.5,-7 0,-3.4 -3.9,-7 -7.5,-7 -2.4,0 -3.9,0.7 -5.4,2.6 z"
     id="path6150" />
  <path
     style="stroke-width:0.1"
     d="m 73.5,851.2 c -5,2.7 -5.9,7.5 -2,11.3 4.2,4.3 10.6,2.3 12,-3.6 1.2,-4.8 -5.7,-10.1 -10,-7.7 z"
     id="path6152" />
  <path
     style="stroke-width:0.1"
     d="m 467.3,852.2 c -3,1.5 -4.6,5.8 -3.4,9.1 2,5.1 7.7,6.2 11.8,2.1 2,-2 2.4,-3.1 1.9,-5.7 -0.4,-1.7 -1.2,-3.7 -1.9,-4.4 -1.8,-1.8 -5.9,-2.3 -8.4,-1.1 z"
     id="path6154" />
  <path
     style="stroke-width:0.1"
     d="m 253.5,858 c -4.2,4.6 -0.8,12 5.4,12 3.4,0 7.1,-3.7 7.1,-7.1 0,-6 -8.5,-9.3 -12.5,-4.9 z"
     id="path6156" />
  <path
     style="stroke-width:0.1"
     d="m 1065,872 c -2.7,2.7 -2.5,6.6 0.5,9.5 6.3,6.3 16,-1.8 10.5,-8.8 -2.7,-3.4 -8,-3.7 -11,-0.7 z"
     id="path6158" />
  <path
     style="stroke-width:0.1"
     d="m 903.6,874.1 c -1.9,1.5 -2.6,3 -2.6,5.4 0,3.6 3.6,7.5 7,7.5 3.4,0 7,-3.9 7,-7.5 0,-3.6 -3.6,-7.5 -7,-7.5 -1,0 -2.9,0.9 -4.4,2.1 z"
     id="path6160" />
  <path
     style="stroke-width:0.1"
     d="m 193,882 c -2.6,2.6 -2.6,8.1 -0.2,10.3 2.8,2.5 8.7,2.2 10.6,-0.5 5,-7.1 -4.3,-15.9 -10.4,-9.8 z"
     id="path6162" />
</svg>
