<?xml version="1.0" encoding="UTF-8" standalone="no"?>
<svg
   xmlns:dc="http://purl.org/dc/elements/1.1/"
   xmlns:cc="http://creativecommons.org/ns#"
   xmlns:rdf="http://www.w3.org/1999/02/22-rdf-syntax-ns#"
   xmlns:svg="http://www.w3.org/2000/svg"
   xmlns="http://www.w3.org/2000/svg"
   xmlns:sodipodi="http://sodipodi.sourceforge.net/DTD/sodipodi-0.dtd"
   xmlns:inkscape="http://www.inkscape.org/namespaces/inkscape"
   inkscape:version="1.0 (4035a4fb49, 2020-05-01)"
   sodipodi:docname="USGS_620_colour_nobox.svg"
   id="svg20325"
   preserveAspectRatio="xMidYMid meet"
   viewBox="0 0 1125.000000 900.000000"
   height="900.000000pt"
   width="1125.000000pt"
   version="1.0">
  <defs
     id="defs20329" />
  <sodipodi:namedview
     inkscape:current-layer="svg20325"
     inkscape:window-maximized="1"
     inkscape:window-y="-8"
     inkscape:window-x="1912"
     inkscape:cy="600"
     inkscape:cx="750"
     inkscape:zoom="0.68916667"
     showgrid="false"
     id="namedview20327"
     inkscape:window-height="1017"
     inkscape:window-width="1920"
     inkscape:pageshadow="2"
     inkscape:pageopacity="0"
     guidetolerance="10"
     gridtolerance="10"
     objecttolerance="10"
     borderopacity="1"
     bordercolor="#666666"
     pagecolor="#ffffff" />
  <metadata
     id="metadata20171">
Created by potrace 1.13, written by Peter Selinger 2001-2015
<rdf:RDF>
  <cc:Work
     rdf:about="">
    <dc:format>image/svg+xml</dc:format>
    <dc:type
       rdf:resource="http://purl.org/dc/dcmitype/StillImage" />
    <dc:title></dc:title>
  </cc:Work>
</rdf:RDF>
</metadata>
  <path
     style="stroke-width:0.1"
     d="m 189,40 v 3 H 255.5 322 V 40 37 H 255.5 189 Z"
     id="path20175" />
  <path
     style="stroke-width:0.1"
     d="m 375,40 v 3 H 441.5 508 V 40 37 H 441.5 375 Z"
     id="path20177" />
  <path
     style="stroke-width:0.1"
     d="m 561,40 v 3 l 66.3,-0.2 66.2,-0.3 0.3,-2.8 0.3,-2.7 H 627.6 561 Z"
     id="path20179" />
  <path
     style="stroke-width:0.1"
     d="m 747,40 v 3 h 66 66 v -3 -3 h -66 -66 z"
     id="path20181" />
  <path
     style="stroke-width:0.1"
     d="m 934,40 v 3 h 66.5 66.5 V 40 37 H 1000.5 934 Z"
     id="path20183" />
  <path
     style="stroke-width:0.1"
     d="m 90,97 v 3 h 66.6 66.5 L 222.8,97.2 222.5,94.5 156.3,94.2 90,94 Z"
     id="path20185" />
  <path
     style="stroke-width:0.1"
     d="m 276,97 v 3 h 66 66 v -3 -3 h -66 -66 z"
     id="path20187" />
  <path
     style="stroke-width:0.1"
     d="m 461,97 v 3 H 527.5 594 V 97 94 H 527.5 461 Z"
     id="path20189" />
  <path
     style="stroke-width:0.1"
     d="m 647,97 v 3 H 713.5 780 V 97 94 H 713.5 647 Z"
     id="path20191" />
  <path
     style="stroke-width:0.1"
     d="m 833,97 v 3 h 67 67 v -3 -3 h -67 -67 z"
     id="path20193" />
  <path
     style="stroke-width:0.1"
     d="m 179.4,160.4 c -0.3,0.8 -0.4,2.3 -0.2,3.3 0.3,1.7 3.6,1.8 66.6,2.1 L 312,166 v -3.5 -3.5 h -66 c -56.6,0 -66.1,0.2 -66.6,1.4 z"
     id="path20195" />
  <path
     style="stroke-width:0.1"
     d="m 365.7,159.7 c -0.4,0.3 -0.7,1.9 -0.7,3.5 v 2.8 h 66.6 66.5 l -0.3,-3.3 -0.3,-3.2 -65.6,-0.3 c -36,-0.1 -65.9,0.1 -66.2,0.5 z"
     id="path20197" />
  <path
     style="stroke-width:0.1"
     d="m 551,162.5 v 3.5 l 66.3,-0.2 66.2,-0.3 v -3 -3 L 617.3,159.2 551,159 Z"
     id="path20199" />
  <path
     style="stroke-width:0.1"
     d="m 737,162.5 v 3.5 h 66 66 v -3.5 -3.5 h -66 -66 z"
     id="path20201" />
  <path
     style="stroke-width:0.1"
     d="m 924.7,159.7 c -0.4,0.3 -0.7,1.9 -0.7,3.5 v 2.8 h 66.5 66.5 v -3.5 -3.5 h -65.8 c -36.2,0 -66.2,0.3 -66.5,0.7 z"
     id="path20203" />
  <path
     style="stroke-width:0.1"
     d="m 53.4,222.4 c -0.3,0.8 -0.4,2.3 -0.2,3.3 0.3,1.7 3.6,1.8 66.6,2.1 L 186,228 v -3.5 -3.5 h -66 c -56.6,0 -66.1,0.2 -66.6,1.4 z"
     id="path20205" />
  <path
     style="stroke-width:0.1"
     d="m 239.2,224.2 0.3,3.3 h 66 66 l 0.3,-3.3 0.3,-3.2 h -66.6 -66.6 z"
     id="path20207" />
  <path
     style="stroke-width:0.1"
     d="m 425,224.5 v 3.5 l 66.3,-0.2 66.2,-0.3 v -3 -3 L 491.3,221.2 425,221 Z"
     id="path20209" />
  <path
     style="stroke-width:0.1"
     d="m 611,224.5 v 3.5 h 66 66 v -3.5 -3.5 h -66 -66 z"
     id="path20211" />
  <path
     style="stroke-width:0.1"
     d="m 796.4,222.4 c -0.3,0.8 -0.4,2.3 -0.2,3.3 0.3,1.7 3.6,1.8 67.1,2.1 L 930,228 v -3.5 -3.5 h -66.5 c -57,0 -66.6,0.2 -67.1,1.4 z"
     id="path20213" />
  <path
     style="stroke-width:0.1"
     d="m 984,224.5 v 3.5 l 66.3,-0.2 66.2,-0.3 v -3 -3 L 1050.3,221.2 984,221 Z"
     id="path20215" />
  <path
     style="stroke-width:0.1"
     d="m 163,283 v 3 h 66 66 v -3 -3 h -66 -66 z"
     id="path20217" />
  <path
     style="stroke-width:0.1"
     d="m 349,283 v 3 h 66 66 v -3 -3 h -66 -66 z"
     id="path20219" />
  <path
     style="stroke-width:0.1"
     d="m 534,283 v 3 h 66.5 66.5 v -3 -3 H 600.5 534 Z"
     id="path20221" />
  <path
     style="stroke-width:0.1"
     d="m 720,283 v 3 h 66.5 66.5 v -3 -3 H 786.5 720 Z"
     id="path20223" />
  <path
     style="stroke-width:0.1"
     d="m 908,283 v 3 h 66 66 v -3 -3 h -66 -66 z"
     id="path20225" />
  <path
     style="stroke-width:0.1"
     d="m 47,345 v 3 h 66 66 v -3 -3 H 113 47 Z"
     id="path20227" />
  <path
     style="stroke-width:0.1"
     d="m 232.2,344.7 0.3,2.8 66.3,0.3 66.2,0.2 v -3 -3 h -66.6 -66.5 z"
     id="path20229" />
  <path
     style="stroke-width:0.1"
     d="m 418,345 v 3 h 66.5 66.5 v -3 -3 H 484.5 418 Z"
     id="path20231" />
  <path
     style="stroke-width:0.1"
     d="m 604,345 v 3 h 66.5 66.5 v -3 -3 H 670.5 604 Z"
     id="path20233" />
  <path
     style="stroke-width:0.1"
     d="m 790,345 v 3 l 66.8,-0.2 66.7,-0.3 0.3,-2.8 0.3,-2.7 h -67 -67.1 z"
     id="path20235" />
  <path
     style="stroke-width:0.1"
     d="m 977,345 v 3 h 66.5 66.5 v -3 -3 H 1043.5 977 Z"
     id="path20237" />
  <path
     style="stroke-width:0.1"
     d="m 120,407 v 3 h 66 66 v -3 -3 h -66 -66 z"
     id="path20239" />
  <path
     style="stroke-width:0.1"
     d="m 305.7,404.7 c -0.4,0.3 -0.7,1.7 -0.7,3 v 2.3 h 66.5 66.5 v -3 -3 h -65.8 c -36.2,0 -66.2,0.3 -66.5,0.7 z"
     id="path20241" />
  <path
     style="stroke-width:0.1"
     d="m 491,407 v 3 h 66.5 66.5 v -3 -3 H 557.5 491 Z"
     id="path20243" />
  <path
     style="stroke-width:0.1"
     d="m 677,407 v 3 h 66.6 66.5 l -0.3,-2.8 -0.3,-2.7 -66.2,-0.3 L 677,404 Z"
     id="path20245" />
  <path
     style="stroke-width:0.1"
     d="m 863,407 v 3 h 67 67 v -3 -3 h -67 -67 z"
     id="path20247" />
  <path
     style="stroke-width:0.1"
     d="m 57,473 v 3 h 66 66 v -3 -3 H 123 57 Z"
     id="path20249" />
  <path
     style="stroke-width:0.1"
     d="m 242.7,470.7 c -0.4,0.3 -0.7,1.7 -0.7,3 v 2.3 h 66.5 66.5 v -3 -3 h -65.8 c -36.2,0 -66.2,0.3 -66.5,0.7 z"
     id="path20251" />
  <path
     style="stroke-width:0.1"
     d="m 428,473 v 3 h 66.5 66.5 v -3 -3 H 494.5 428 Z"
     id="path20253" />
  <path
     style="stroke-width:0.1"
     d="m 614,473 v 3 h 66.6 66.5 l -0.3,-2.8 -0.3,-2.7 -66.2,-0.3 L 614,470 Z"
     id="path20255" />
  <path
     style="stroke-width:0.1"
     d="m 800,473 v 3 h 66.5 66.5 v -3 -3 H 866.5 800 Z"
     id="path20257" />
  <path
     style="stroke-width:0.1"
     d="m 987,473 v 3 h 66.5 66.5 v -3 -3 H 1053.5 987 Z"
     id="path20259" />
  <path
     style="stroke-width:0.1"
     d="m 150,534 v 3 h 66 66 v -3 -3 h -66 -66 z"
     id="path20261" />
  <path
     style="stroke-width:0.1"
     d="m 335,534 v 3 h 66.5 66.5 v -3 -3 H 401.5 335 Z"
     id="path20263" />
  <path
     style="stroke-width:0.1"
     d="m 521,534 v 3 h 66.5 66.5 v -3 -3 H 587.5 521 Z"
     id="path20265" />
  <path
     style="stroke-width:0.1"
     d="m 707,534 v 3 h 66 66 v -3 -3 h -66 -66 z"
     id="path20267" />
  <path
     style="stroke-width:0.1"
     d="m 894,534 v 3 h 66.5 66.5 v -3 -3 H 960.5 894 Z"
     id="path20269" />
  <path
     style="stroke-width:0.1"
     d="m 83,596 v 3 h 66.5 66.5 v -3 -3 H 149.5 83 Z"
     id="path20271" />
  <path
     style="stroke-width:0.1"
     d="m 269,596 v 3 h 66.5 66.5 v -3 -3 H 335.5 269 Z"
     id="path20273" />
  <path
     style="stroke-width:0.1"
     d="m 455,596 v 3 h 66 66 v -3 -3 h -66 -66 z"
     id="path20275" />
  <path
     style="stroke-width:0.1"
     d="m 640.2,595.7 0.3,2.8 66.3,0.3 66.2,0.2 v -3 -3 h -66.6 -66.5 z"
     id="path20277" />
  <path
     style="stroke-width:0.1"
     d="m 826,596 v 3 h 67 67 v -3 -3 h -67 -67 z"
     id="path20279" />
  <path
     style="stroke-width:0.1"
     d="m 176,655 v 3 h 66.5 66.5 v -3 -3 H 242.5 176 Z"
     id="path20281" />
  <path
     style="stroke-width:0.1"
     d="m 362,655 v 3 h 66.6 66.5 l -0.3,-2.8 -0.3,-2.7 -66.2,-0.3 L 362,652 Z"
     id="path20283" />
  <path
     style="stroke-width:0.1"
     d="m 548,655 v 3 h 66 66 v -3 -3 h -66 -66 z"
     id="path20285" />
  <path
     style="stroke-width:0.1"
     d="m 733,655 v 3 h 66.5 66.5 v -3 -3 H 799.5 733 Z"
     id="path20287" />
  <path
     style="stroke-width:0.1"
     d="m 921,655 v 3 h 66.6 66.5 l -0.3,-2.8 -0.3,-2.7 -66.2,-0.3 L 921,652 Z"
     id="path20289" />
  <path
     style="stroke-width:0.1"
     d="m 73.7,716.7 c -0.4,0.3 -0.7,1.9 -0.7,3.5 v 2.8 h 66.6 66.5 l -0.3,-3.3 -0.3,-3.2 -65.6,-0.3 c -36,-0.1 -65.9,0.1 -66.2,0.5 z"
     id="path20291" />
  <path
     style="stroke-width:0.1"
     d="m 259.7,716.7 c -0.4,0.3 -0.7,1.9 -0.7,3.5 v 2.8 l 66.3,-0.2 66.2,-0.3 v -3 -3 l -65.6,-0.3 c -36,-0.1 -65.9,0.1 -66.2,0.5 z"
     id="path20293" />
  <path
     style="stroke-width:0.1"
     d="m 445,719.5 v 3.5 h 66 66 v -3.5 -3.5 h -66 -66 z"
     id="path20295" />
  <path
     style="stroke-width:0.1"
     d="m 631,719.5 v 3.5 h 66 66 v -3.5 -3.5 h -66 -66 z"
     id="path20297" />
  <path
     style="stroke-width:0.1"
     d="m 816.7,716.7 c -0.4,0.3 -0.7,1.9 -0.7,3.5 v 2.8 h 67 67 v -3.5 -3.5 h -66.3 c -36.5,0 -66.7,0.3 -67,0.7 z"
     id="path20299" />
  <path
     style="stroke-width:0.1"
     d="m 153,785 v 3 l 66.3,-0.2 66.2,-0.3 0.3,-2.8 0.3,-2.7 H 219.6 153 Z"
     id="path20301" />
  <path
     style="stroke-width:0.1"
     d="m 339,785 v 3 h 66 66 v -3 -3 h -66 -66 z"
     id="path20303" />
  <path
     style="stroke-width:0.1"
     d="m 524,785 v 3 h 66.5 66.5 v -3 -3 H 590.5 524 Z"
     id="path20305" />
  <path
     style="stroke-width:0.1"
     d="m 710,785 v 3 h 66.5 66.5 v -3 -3 H 776.5 710 Z"
     id="path20307" />
  <path
     style="stroke-width:0.1"
     d="m 898,785 v 3 h 66 66 v -3 -3 h -66 -66 z"
     id="path20309" />
  <path
     style="stroke-width:0.1"
     d="m 57,847 v 3 h 66 66 v -3 -3 H 123 57 Z"
     id="path20311" />
  <path
     style="stroke-width:0.1"
     d="m 242.2,846.7 0.3,2.8 66.3,0.3 66.2,0.2 v -3 -3 h -66.6 -66.5 z"
     id="path20313" />
  <path
     style="stroke-width:0.1"
     d="m 428,847 v 3 h 66.5 66.5 v -3 -3 H 494.5 428 Z"
     id="path20315" />
  <path
     style="stroke-width:0.1"
     d="m 614,847 v 3 h 66.5 66.5 v -3 -3 H 680.5 614 Z"
     id="path20317" />
  <path
     style="stroke-width:0.1"
     d="m 800,847 v 3 h 66.5 66.5 v -3 -3 H 866.5 800 Z"
     id="path20319" />
  <path
     style="stroke-width:0.1"
     d="m 987,847 v 3 h 66.5 66.5 v -3 -3 H 1053.5 987 Z"
     id="path20321" />
</svg>
