<?xml version="1.0" encoding="UTF-8" standalone="no"?>
<svg
   xmlns:dc="http://purl.org/dc/elements/1.1/"
   xmlns:cc="http://creativecommons.org/ns#"
   xmlns:rdf="http://www.w3.org/1999/02/22-rdf-syntax-ns#"
   xmlns:svg="http://www.w3.org/2000/svg"
   xmlns="http://www.w3.org/2000/svg"
   xmlns:sodipodi="http://sodipodi.sourceforge.net/DTD/sodipodi-0.dtd"
   xmlns:inkscape="http://www.inkscape.org/namespaces/inkscape"
   inkscape:version="1.0 (4035a4fb49, 2020-05-01)"
   sodipodi:docname="USGS_613_colour_nobox.svg"
   id="svg15859"
   preserveAspectRatio="xMidYMid meet"
   viewBox="0 0 1125.000000 900.000000"
   height="900.000000pt"
   width="1125.000000pt"
   version="1.0">
  <defs
     id="defs15863" />
  <sodipodi:namedview
     inkscape:current-layer="svg15859"
     inkscape:window-maximized="1"
     inkscape:window-y="-8"
     inkscape:window-x="1912"
     inkscape:cy="600"
     inkscape:cx="750"
     inkscape:zoom="0.68916667"
     showgrid="false"
     id="namedview15861"
     inkscape:window-height="1017"
     inkscape:window-width="1920"
     inkscape:pageshadow="2"
     inkscape:pageopacity="0"
     guidetolerance="10"
     gridtolerance="10"
     objecttolerance="10"
     borderopacity="1"
     bordercolor="#666666"
     pagecolor="#ffffff" />
  <metadata
     id="metadata15549">
Created by potrace 1.13, written by Peter Selinger 2001-2015
<rdf:RDF>
  <cc:Work
     rdf:about="">
    <dc:format>image/svg+xml</dc:format>
    <dc:type
       rdf:resource="http://purl.org/dc/dcmitype/StillImage" />
    <dc:title></dc:title>
  </cc:Work>
</rdf:RDF>
</metadata>
  <path
     style="stroke-width:0.1"
     d="m 767.3,7.2 c -6.8,3.3 -3.9,13.8 3.8,13.8 2.8,0 6.9,-4.4 6.9,-7.3 0,-5.1 -6.1,-8.8 -10.7,-6.5 z"
     id="path15553" />
  <path
     style="stroke-width:0.1"
     d="m 72,19 c -4.3,4.3 -1.1,12 5,12 3.8,0 7,-3.2 7,-7 0,-3.8 -3.2,-7 -7,-7 -1.7,0 -3.9,0.9 -5,2 z"
     id="path15555" />
  <path
     style="stroke-width:0.1"
     d="m 491.1,26.6 c -1.2,1.5 -2.1,3.4 -2.1,4.4 0,1 0.9,2.9 2.1,4.4 4.1,5.2 12.2,2.3 12.2,-4.4 0,-6.7 -8.1,-9.6 -12.2,-4.4 z"
     id="path15557" />
  <path
     style="stroke-width:0.1"
     d="M 439,55 V 78 H 412.5 386 v 3 3 H 533 680 V 81 78 H 562.5 445 V 55 32 h -3 -3 z"
     id="path15559" />
  <path
     style="stroke-width:0.1"
     d="m 1092.6,36.1 c -3.1,2.4 -3.6,7.7 -0.8,10.2 5,4.5 12.2,1.7 12.2,-4.8 0,-3.6 -3.6,-7.5 -7,-7.5 -1,0 -2.9,0.9 -4.4,2.1 z"
     id="path15561" />
  <path
     style="stroke-width:0.1"
     d="m 298.2,38.6 c -1.6,1.1 -2.2,2.5 -2.2,5.4 0,2.9 0.6,4.3 2.2,5.4 5.1,3.6 11.8,0.5 11.8,-5.4 0,-5.9 -6.7,-9 -11.8,-5.4 z"
     id="path15563" />
  <path
     style="stroke-width:0.1"
     d="m 208.1,46.6 c -1.2,1.5 -2.1,3.5 -2.1,4.6 0,2.7 4.5,6.8 7.5,6.8 3,0 7.5,-4.1 7.5,-6.8 0,-3.5 -3.8,-7.2 -7.5,-7.2 -2.4,0 -3.9,0.7 -5.4,2.6 z"
     id="path15565" />
  <path
     style="stroke-width:0.1"
     d="m 555.3,48.5 c -7,4.9 0,16 7.6,12 4.8,-2.4 5.5,-7.2 1.6,-11 -2.7,-2.8 -6.1,-3.2 -9.2,-1 z"
     id="path15567" />
  <path
     style="stroke-width:0.1"
     d="m 706,63 c -2.8,2.8 -2.7,8.4 0.2,10.4 5.1,3.6 11.8,0.5 11.8,-5.4 0,-1.7 -0.9,-3.9 -2,-5 -1.1,-1.1 -3.3,-2 -5,-2 -1.7,0 -3.9,0.9 -5,2 z"
     id="path15569" />
  <path
     style="stroke-width:0.1"
     d="m 357,64 c -2.6,2.6 -2.6,8.1 -0.2,10.3 4.4,4 12.2,0.7 12.2,-5.1 0,-6 -7.8,-9.4 -12,-5.2 z"
     id="path15571" />
  <path
     style="stroke-width:0.1"
     d="m 883,65.7 c -5.5,2 -6.8,8.7 -2.4,12.2 1.5,1.2 3.4,2.1 4.4,2.1 3.3,0 7,-3.9 7,-7.4 0,-4.6 -4.9,-8.4 -9,-6.9 z"
     id="path15573" />
  <path
     style="stroke-width:0.1"
     d="m 971.9,78.8 c -2.8,2.3 -3,7.3 -0.4,10.2 2.5,2.7 7.8,2.7 10.5,-0.2 2.6,-2.8 2.6,-5.8 -0.1,-9.2 -2.5,-3.1 -6.6,-3.5 -10,-0.8 z"
     id="path15575" />
  <path
     style="stroke-width:0.1"
     d="m 804.1,86.6 c -1.2,1.5 -2.1,3.4 -2.1,4.4 0,3.4 3.9,7 7.5,7 3.6,0 7.5,-3.6 7.5,-7 0,-3.4 -3.9,-7 -7.5,-7 -2.4,0 -3.9,0.7 -5.4,2.6 z"
     id="path15577" />
  <path
     style="stroke-width:0.1"
     d="m 165.7,105.8 c -4,4.4 -0.7,12.2 5.1,12.2 6,0 9.4,-7.8 5.2,-12 -2.6,-2.6 -8.1,-2.6 -10.3,-0.2 z"
     id="path15579" />
  <path
     style="stroke-width:0.1"
     d="m 96,117.7 c -5.1,1.9 -6.8,8.5 -3,12.3 6.1,6.1 15.9,-3.2 10.3,-9.8 -2,-2.3 -5,-3.3 -7.3,-2.5 z"
     id="path15581" />
  <path
     style="stroke-width:0.1"
     d="m 491,117.7 c -5.1,1.9 -6.8,8.5 -3,12.3 6.1,6.1 15.9,-3.2 10.3,-9.8 -2,-2.3 -5,-3.3 -7.3,-2.5 z"
     id="path15583" />
  <path
     style="stroke-width:0.1"
     d="m 625.5,118.2 c -5,2.7 -5.9,7.5 -2,11.3 2.9,3 6.4,3.2 9.6,0.7 5.9,-4.8 -0.9,-15.7 -7.6,-12 z"
     id="path15585" />
  <path
     style="stroke-width:0.1"
     d="m 321,120 c -4.7,4.7 -1.5,12.3 5.1,12.3 6.3,0 9,-7.2 4.4,-11.8 -2.9,-3 -6.8,-3.2 -9.5,-0.5 z"
     id="path15587" />
  <path
     style="stroke-width:0.1"
     d="m 236,127 c -2.4,2.4 -2.6,6.7 -0.4,9.8 1.1,1.6 2.5,2.2 5.4,2.2 4.4,0 7,-2.6 7,-7.2 0,-5.8 -7.8,-9 -12,-4.8 z"
     id="path15589" />
  <path
     style="stroke-width:0.1"
     d="m 1056.1,141.6 c -1.2,1.5 -2.1,3.4 -2.1,4.4 0,3.4 3.9,7 7.5,7 3.6,0 7.5,-3.6 7.5,-7 0,-3.4 -3.9,-7 -7.5,-7 -2.4,0 -3.9,0.7 -5.4,2.6 z"
     id="path15591" />
  <path
     style="stroke-width:0.1"
     d="m 566,148 c -4.3,4.3 -1,12 5.2,12 5.9,0 9.3,-8.4 5,-12.3 -2.5,-2.3 -7.8,-2.1 -10.2,0.3 z"
     id="path15593" />
  <path
     style="stroke-width:0.1"
     d="m 710,146.7 c -5.1,1.9 -6.8,8.5 -3,12.3 6.1,6.1 15.9,-3.3 10.3,-9.8 -2,-2.3 -5,-3.3 -7.3,-2.5 z"
     id="path15595" />
  <path
     style="stroke-width:0.1"
     d="m 408.6,152.1 c -3.6,2.8 -3.6,8 0,10.8 1.5,1.2 3.4,2.1 4.4,2.1 3.4,0 7,-3.9 7,-7.5 0,-3.6 -3.6,-7.5 -7,-7.5 -1,0 -2.9,0.9 -4.4,2.1 z"
     id="path15597" />
  <path
     style="stroke-width:0.1"
     d="m 939.5,152.5 c -3,3 -3.1,5.4 -0.4,8.9 1.5,1.9 3,2.6 5.4,2.6 3.7,0 7.5,-3.7 7.5,-7.2 0,-2.7 -4.5,-6.8 -7.5,-6.8 -1.4,0 -3.7,1.1 -5,2.5 z"
     id="path15599" />
  <path
     style="stroke-width:0.1"
     d="m 766,176 v 23 h -30 -30 v 3.5 3.5 h 158 158 V 202.5 199 H 897 772 v -23 -23 h -3 -3 z"
     id="path15601" />
  <path
     style="stroke-width:0.1"
     d="m 829.5,157 c -4.2,4.6 -1,12 5.1,12 3.5,0 7.4,-3.7 7.4,-7 0,-1 -0.9,-2.9 -2.1,-4.4 -2.6,-3.3 -7.7,-3.6 -10.4,-0.6 z"
     id="path15603" />
  <path
     style="stroke-width:0.1"
     d="m 176.5,175.5 c -3.9,3.9 -3.2,8.6 1.7,11.1 5.9,3 12.2,-2.7 9.9,-8.9 -1.9,-5.1 -7.7,-6.2 -11.6,-2.2 z"
     id="path15605" />
  <path
     style="stroke-width:0.1"
     d="m 67.3,177 c -4.6,1.9 -5.7,8.3 -2,11.8 4.8,4.5 11.7,1.4 11.7,-5.1 0,-5.1 -5,-8.6 -9.7,-6.7 z"
     id="path15607" />
  <path
     style="stroke-width:0.1"
     d="m 268,189 c -4.5,4.5 -1.1,12 5.4,12 2.5,0 3.9,-0.7 5,-2.2 3.6,-5.1 0.5,-11.8 -5.4,-11.8 -1.7,0 -3.9,0.9 -5,2 z"
     id="path15609" />
  <path
     style="stroke-width:0.1"
     d="m 343.9,197.8 c -1.5,1.3 -2.2,3 -2.2,5.1 0,6.6 7.6,9.8 12.3,5.1 2.7,-2.7 2.5,-6.6 -0.5,-9.5 -2.9,-3 -6.4,-3.2 -9.6,-0.7 z"
     id="path15611" />
  <path
     style="stroke-width:0.1"
     d="m 608.3,206 c -4.8,1.9 -5.8,8.7 -1.7,11.9 5.3,4.1 11.4,1.3 11.4,-5.2 0,-5.1 -5,-8.6 -9.7,-6.7 z"
     id="path15613" />
  <path
     style="stroke-width:0.1"
     d="m 1060.5,206.2 c -2.8,1.6 -3.5,2.8 -3.5,6.5 0,4.1 4.2,7.7 8,6.8 5.8,-1.4 7.8,-7.8 3.5,-12 -2.6,-2.7 -4.9,-3.1 -8,-1.3 z"
     id="path15615" />
  <path
     style="stroke-width:0.1"
     d="m 447.6,223.1 c -3.6,2.8 -3.6,8 0,10.8 1.5,1.2 3.4,2.1 4.4,2.1 3.4,0 7,-3.9 7,-7.5 0,-3.6 -3.6,-7.5 -7,-7.5 -1,0 -2.9,0.9 -4.4,2.1 z"
     id="path15617" />
  <path
     style="stroke-width:0.1"
     d="m 536.5,223.5 c -1.4,1.3 -2.5,3.6 -2.5,5 0,2.8 4,7.5 6.4,7.5 8,0 11,-10.7 3.9,-13.9 -3.6,-1.6 -5.1,-1.4 -7.8,1.4 z"
     id="path15619" />
  <path
     style="stroke-width:0.1"
     d="m 43.1,235.6 c -1.2,1.5 -2.1,3.4 -2.1,4.4 0,3.4 3.9,7 7.5,7 3.6,0 7.5,-3.6 7.5,-7 0,-3.4 -3.9,-7 -7.5,-7 -2.4,0 -3.9,0.7 -5.4,2.6 z"
     id="path15621" />
  <path
     style="stroke-width:0.1"
     d="M 141,256.5 V 280 H 111 81 v 3.5 3.5 H 229.5 378 V 283.5 280 H 262.5 147 V 256.5 233 h -3 -3 z"
     id="path15623" />
  <path
     style="stroke-width:0.1"
     d="m 908.5,235.5 c -1.4,1.3 -2.5,3.6 -2.5,5 0,2.8 4,7.5 6.4,7.5 7.8,0 10.9,-10.7 4,-13.9 -3.7,-1.6 -5.2,-1.4 -7.9,1.4 z"
     id="path15625" />
  <path
     style="stroke-width:0.1"
     d="m 217.9,243.8 c -2.8,2.3 -3,7.3 -0.4,10.2 2.5,2.7 7.8,2.7 10.5,-0.2 2.6,-2.8 2.6,-5.8 -0.1,-9.2 -2.5,-3.1 -6.6,-3.5 -10,-0.8 z"
     id="path15627" />
  <path
     style="stroke-width:0.1"
     d="m 316.6,253.1 c -5,3.9 -2.3,11.9 4.2,12.1 4.3,0.1 7.2,-2.6 7.2,-6.9 0,-6.5 -6.1,-9.3 -11.4,-5.2 z"
     id="path15629" />
  <path
     style="stroke-width:0.1"
     d="m 643.3,254.2 c -2.9,1.4 -4.6,6.1 -3.2,9.2 1.1,2.4 4.7,4.6 7.5,4.6 2.3,0 6.4,-4.7 6.4,-7.3 0,-5.1 -6.1,-8.8 -10.7,-6.5 z"
     id="path15631" />
  <path
     style="stroke-width:0.1"
     d="m 790.7,258 c -3.7,2.9 -3.7,8 -0.1,10.9 1.5,1.2 3.4,2.1 4.4,2.1 3.3,0 7,-3.9 7,-7.4 0,-6 -6.6,-9.3 -11.3,-5.6 z"
     id="path15633" />
  <path
     style="stroke-width:0.1"
     d="m 1088.5,260.5 c -3,3 -3.1,5.4 -0.4,8.9 1.5,1.9 3,2.6 5.4,2.6 3.6,0 7.5,-3.6 7.5,-7 0,-1 -0.9,-2.9 -2.1,-4.4 -2.7,-3.4 -7.1,-3.5 -10.4,-0.1 z"
     id="path15635" />
  <path
     style="stroke-width:0.1"
     d="m 1008.3,263 c -4.6,1.9 -5.7,8.3 -2,11.8 4.7,4.4 11.7,1.3 11.7,-5.2 0,-5 -5,-8.4 -9.7,-6.6 z"
     id="path15637" />
  <path
     style="stroke-width:0.1"
     d="m 715,274 c -1.1,1.1 -2,3.3 -2,5 0,1.7 0.9,3.9 2,5 4.2,4.2 12,1.2 12,-4.8 0,-6.6 -7.4,-9.8 -12,-5.2 z"
     id="path15639" />
  <path
     style="stroke-width:0.1"
     d="m 399.7,287 c -2,1.6 -2.7,3 -2.7,5.6 0,6.8 6.8,9.7 11.5,4.9 6.3,-6.3 -1.8,-16 -8.8,-10.5 z"
     id="path15641" />
  <path
     style="stroke-width:0.1"
     d="m 490.1,290.6 c -1.2,1.5 -2.1,3.4 -2.1,4.4 0,3.4 3.9,7 7.5,7 3.6,0 7.5,-3.6 7.5,-7 0,-3.4 -3.9,-7 -7.5,-7 -2.4,0 -3.9,0.7 -5.4,2.6 z"
     id="path15643" />
  <path
     style="stroke-width:0.1"
     d="m 942.6,294.1 c -1.9,1.5 -2.6,3 -2.6,5.4 0,3.6 3.6,7.5 7,7.5 3.4,0 7,-3.9 7,-7.5 0,-3.6 -3.6,-7.5 -7,-7.5 -1,0 -2.9,0.9 -4.4,2.1 z"
     id="path15645" />
  <path
     style="stroke-width:0.1"
     d="m 573,299 c -1.1,1.1 -2,3.3 -2,5 0,1.7 0.9,3.9 2,5 1.1,1.1 3.3,2 5,2 1.7,0 3.9,-0.9 5,-2 1.1,-1.1 2,-3.3 2,-5 0,-1.7 -0.9,-3.9 -2,-5 -1.1,-1.1 -3.3,-2 -5,-2 -1.7,0 -3.9,0.9 -5,2 z"
     id="path15647" />
  <path
     style="stroke-width:0.1"
     d="m 861.9,307.8 c -1.5,1.3 -2.2,3 -2.2,5.1 0,6.6 7.6,9.8 12.3,5.1 2.7,-2.7 2.5,-6.6 -0.5,-9.5 -2.9,-3 -6.4,-3.2 -9.6,-0.7 z"
     id="path15649" />
  <path
     style="stroke-width:0.1"
     d="M 15.6,313.2 C 12,318.3 15.1,325 21,325 c 5.9,0 9,-6.7 5.4,-11.8 -1.1,-1.6 -2.5,-2.2 -5.4,-2.2 -2.9,0 -4.3,0.6 -5.4,2.2 z"
     id="path15651" />
  <path
     style="stroke-width:0.1"
     d="m 343.5,318.2 c -5,2.7 -5.9,7.5 -2,11.3 4.2,4.3 10.6,2.3 12,-3.6 1.2,-4.8 -5.7,-10.1 -10,-7.7 z"
     id="path15653" />
  <path
     style="stroke-width:0.1"
     d="m 229.6,324.1 c -5,3.9 -2.2,12.2 4.2,12.2 6.6,0 9.8,-7.8 5,-12.3 -2.8,-2.6 -5.8,-2.6 -9.2,0.1 z"
     id="path15655" />
  <path
     style="stroke-width:0.1"
     d="m 648.1,329.6 c -2.7,3.5 -2.6,5.9 0.4,8.9 3.3,3.4 7.7,3.3 10.4,-0.1 1.2,-1.5 2.1,-3.4 2.1,-4.4 0,-3.4 -3.9,-7 -7.5,-7 -2.4,0 -3.9,0.7 -5.4,2.6 z"
     id="path15657" />
  <path
     style="stroke-width:0.1"
     d="m 1049,329.7 c -1.5,1.9 -1.9,3.5 -1.5,5.3 1.4,6.2 9,7.9 12.8,2.8 5.4,-7.3 -5.6,-15.3 -11.3,-8.1 z"
     id="path15659" />
  <path
     style="stroke-width:0.1"
     d="m 142,331 c -2.4,2.4 -2.6,6.7 -0.4,9.8 1.1,1.6 2.5,2.2 5.4,2.2 2.9,0 4.3,-0.6 5.4,-2.2 3.6,-5.1 0.5,-11.8 -5.4,-11.8 -1.7,0 -3.9,0.9 -5,2 z"
     id="path15661" />
  <path
     style="stroke-width:0.1"
     d="m 449.8,354.2 -0.3,22.3 -28.7,0.3 -28.8,0.2 v 3 3 H 543.5 695 v -3 -3 H 575.5 456 V 354.5 332 h -3 -3 z"
     id="path15663" />
  <path
     style="stroke-width:0.1"
     d="m 403.5,347.5 c -4.8,4.7 -1.9,11.5 4.9,11.5 6.8,0 9.6,-7.9 4.4,-12.3 -2.8,-2.4 -6.5,-2.1 -9.3,0.8 z"
     id="path15665" />
  <path
     style="stroke-width:0.1"
     d="m 510.6,352.2 c -5,7.1 4.3,15.9 10.4,9.8 2.6,-2.6 2.6,-8.1 0.2,-10.3 -2.8,-2.5 -8.7,-2.2 -10.6,0.5 z"
     id="path15667" />
  <path
     style="stroke-width:0.1"
     d="m 731,354 c -4.5,4.5 -1.1,12 5.3,12 4.2,0 6.7,-2.6 6.7,-6.8 0,-4.1 -3.1,-7.2 -7,-7.2 -1.7,0 -3.9,0.9 -5,2 z"
     id="path15669" />
  <path
     style="stroke-width:0.1"
     d="m 282,363 c -2.6,2.6 -2.6,8.1 0,10.5 1.1,1 3.4,1.8 5.2,1.7 6.5,-0.2 9.2,-8.2 4.2,-12.1 -3.4,-2.6 -6.8,-2.7 -9.4,-0.1 z"
     id="path15671" />
  <path
     style="stroke-width:0.1"
     d="m 71.6,365.1 c -3.6,2.8 -3.6,8 0,10.8 1.5,1.2 3.4,2.1 4.4,2.1 3.4,0 7,-3.9 7,-7.5 0,-3.6 -3.6,-7.5 -7,-7.5 -1,0 -2.9,0.9 -4.4,2.1 z"
     id="path15673" />
  <path
     style="stroke-width:0.1"
     d="m 793.6,372.1 c -1.9,1.5 -2.6,3 -2.6,5.4 0,3.6 3.6,7.5 7,7.5 3.4,0 7,-3.9 7,-7.5 0,-3.6 -3.6,-7.5 -7,-7.5 -1,0 -2.9,0.9 -4.4,2.1 z"
     id="path15675" />
  <path
     style="stroke-width:0.1"
     d="m 885.7,371.1 c -4.8,2.8 -4,10.7 1.2,12.9 7.5,3.1 13.4,-5.8 7.6,-11.5 -2.5,-2.6 -5.8,-3.1 -8.8,-1.4 z"
     id="path15677" />
  <path
     style="stroke-width:0.1"
     d="m 976.5,372.5 c -4,3.9 -2.9,9.7 2.2,11.6 6.2,2.3 11.9,-4.2 8.8,-10.1 -2.4,-4.7 -7.2,-5.4 -11,-1.5 z"
     id="path15679" />
  <path
     style="stroke-width:0.1"
     d="m 1095.1,377.6 c -1.2,1.5 -2.1,3.4 -2.1,4.4 0,3.4 3.9,7 7.5,7 3.6,0 7.5,-3.6 7.5,-7 0,-3.4 -3.9,-7 -7.5,-7 -2.4,0 -3.9,0.7 -5.4,2.6 z"
     id="path15681" />
  <path
     style="stroke-width:0.1"
     d="m 215.3,389 c -4.6,1.9 -5.7,8.3 -2,11.8 4.8,4.5 11.7,1.4 11.7,-5.1 0,-5.1 -5,-8.6 -9.7,-6.7 z"
     id="path15683" />
  <path
     style="stroke-width:0.1"
     d="m 330.7,397 c -3.7,2.9 -3.7,8 -0.1,10.9 1.5,1.2 3.4,2.1 4.4,2.1 3.3,0 7,-3.9 7,-7.4 0,-6 -6.6,-9.3 -11.3,-5.6 z"
     id="path15685" />
  <path
     style="stroke-width:0.1"
     d="m 142.2,402.3 c -4.5,4.8 -1.7,11.7 4.7,11.7 4.6,0 7.1,-2.4 7.1,-6.8 0,-6.5 -7.4,-9.6 -11.8,-4.9 z"
     id="path15687" />
  <path
     style="stroke-width:0.1"
     d="m 517.7,406.8 c -2.3,2.5 -2.1,7.8 0.3,10.2 6.1,6.1 15.4,-2.7 10.4,-9.8 -2,-2.8 -8.3,-3.1 -10.7,-0.4 z"
     id="path15689" />
  <path
     style="stroke-width:0.1"
     d="m 401,423 c -4.2,4.2 -0.8,12 5.3,12 5.8,0 9.1,-8.5 4.9,-12.3 -2.5,-2.3 -7.8,-2.1 -10.2,0.3 z"
     id="path15691" />
  <path
     style="stroke-width:0.1"
     d="m 632.5,425.5 c -3,3 -3.1,5.4 -0.4,8.9 1.5,1.9 3,2.6 5.4,2.6 3.7,0 7.5,-3.7 7.5,-7.2 0,-2.7 -4.5,-6.8 -7.5,-6.8 -1.4,0 -3.7,1.1 -5,2.5 z"
     id="path15693" />
  <path
     style="stroke-width:0.1"
     d="m 717.1,425.6 c -2.7,3.4 -2.7,6.4 -0.1,9.2 4.5,4.8 12.3,1.6 12.3,-5 0,-6.4 -8.3,-9.2 -12.2,-4.2 z"
     id="path15695" />
  <path
     style="stroke-width:0.1"
     d="m 258.3,441 c -4.8,2 -5.8,8.7 -1.7,11.9 3.4,2.7 6.4,2.7 9.2,0.1 3.2,-3 3,-8.2 -0.4,-10.9 -2.9,-2.3 -3.8,-2.4 -7.1,-1.1 z"
     id="path15697" />
  <path
     style="stroke-width:0.1"
     d="m 777.2,450 c -4.8,4.5 -1.6,12.3 5,12.3 6.4,0 9.2,-8.3 4.2,-12.2 -3.4,-2.7 -6.4,-2.7 -9.2,-0.1 z"
     id="path15699" />
  <path
     style="stroke-width:0.1"
     d="m 50.3,451 c -2.6,1.1 -4.3,4 -4.3,7.4 0,2.7 4.1,6.6 7,6.6 1,0 2.9,-0.9 4.4,-2.1 C 63.7,458 57.8,448 50.3,451 Z"
     id="path15701" />
  <path
     style="stroke-width:0.1"
     d="m 944.5,459.5 c -1.4,1.3 -2.5,3.6 -2.5,5 0,2.9 4,7.5 6.5,7.5 2,0 5.7,-1.9 6.7,-3.4 1.8,-2.6 0.8,-7.5 -1.8,-9.5 -3.5,-2.7 -5.9,-2.6 -8.9,0.4 z"
     id="path15703" />
  <path
     style="stroke-width:0.1"
     d="m 467.1,462.6 c -1.2,1.5 -2.1,3.5 -2.1,4.6 0,2.7 4.5,6.8 7.5,6.8 2.9,0 7.5,-4 7.5,-6.5 0,-2 -1.9,-5.7 -3.4,-6.7 -2.6,-1.8 -7.5,-0.8 -9.5,1.8 z"
     id="path15705" />
  <path
     style="stroke-width:0.1"
     d="m 556.7,461.8 c -2.3,2.5 -2.1,7.8 0.3,10.2 6.1,6.1 15.4,-2.7 10.4,-9.8 -2,-2.8 -8.3,-3.1 -10.7,-0.4 z"
     id="path15707" />
  <path
     style="stroke-width:0.1"
     d="m 853.7,465.1 c -4.8,2.8 -4,10.7 1.3,12.9 5.8,2.4 12,-4.4 9,-9.9 -2,-3.8 -6.6,-5.1 -10.3,-3 z"
     id="path15709" />
  <path
     style="stroke-width:0.1"
     d="m 112.5,475.5 c -1.4,1.3 -2.5,3.6 -2.5,5 0,2.9 4,7.5 6.5,7.5 2,0 5.7,-1.9 6.7,-3.4 1.8,-2.6 0.8,-7.5 -1.8,-9.5 -3.5,-2.7 -5.9,-2.6 -8.9,0.4 z"
     id="path15711" />
  <path
     style="stroke-width:0.1"
     d="m 343,474.3 c -5.2,2.6 -4.9,10.4 0.4,12.8 3.6,1.7 7.3,0.3 9.2,-3.2 1.9,-3.8 0.6,-8 -3.2,-9.8 -3.1,-1.4 -3.3,-1.4 -6.4,0.2 z"
     id="path15713" />
  <path
     style="stroke-width:0.1"
     d="m 1022.5,475.5 c -3.4,3.3 -3.3,7.7 0.1,10.4 1.5,1.2 3.4,2.1 4.4,2.1 3.4,0 7,-3.9 7,-7.5 0,-2.4 -0.7,-3.9 -2.6,-5.4 -3.5,-2.7 -5.9,-2.6 -8.9,0.4 z"
     id="path15715" />
  <path
     style="stroke-width:0.1"
     d="m 1100.6,475.1 c -1.9,1.5 -2.6,3 -2.6,5.4 0,3.6 3.6,7.5 7,7.5 3.4,0 7,-3.9 7,-7.5 0,-3.6 -3.6,-7.5 -7,-7.5 -1,0 -2.9,0.9 -4.4,2.1 z"
     id="path15717" />
  <path
     style="stroke-width:0.1"
     d="m 678.1,487.6 c -1.2,1.5 -2.1,3.4 -2.1,4.4 0,1 0.9,2.9 2.1,4.4 4.1,5.2 12.2,2.3 12.2,-4.4 0,-6.7 -8.1,-9.6 -12.2,-4.4 z"
     id="path15719" />
  <path
     style="stroke-width:0.1"
     d="m 189.8,523.7 -0.3,21.8 -36.2,0.3 -36.3,0.2 v 3 3 H 247.5 378 v -3 -3 h -91 -91 v -22 -22 h -3 -3 z"
     id="path15721" />
  <path
     style="stroke-width:0.1"
     d="m 425.1,505.6 c -2.7,3.4 -2.7,6.4 -0.1,9.2 4.7,5 14,0.6 12.5,-5.8 -1.4,-6 -8.8,-8 -12.4,-3.4 z"
     id="path15723" />
  <path
     style="stroke-width:0.1"
     d="m 253,506 c -2.6,2.6 -2.6,8.1 0,10.5 2.9,2.6 7.9,2.4 10.2,-0.4 2.7,-3.4 2.3,-7.5 -0.8,-10 -3.4,-2.6 -6.8,-2.7 -9.4,-0.1 z"
     id="path15725" />
  <path
     style="stroke-width:0.1"
     d="m 630,531 v 24 H 598.5 567 v 3 3 H 720.5 874 v -3 -3 L 755.3,554.8 636.5,554.5 636.2,530.7 636,507 h -3 -3 z"
     id="path15727" />
  <path
     style="stroke-width:0.1"
     d="m 733,517.2 c -2.7,2.9 -2.5,6.4 0.5,9.3 6.3,6.3 16,-1.8 10.5,-8.8 -2.8,-3.5 -8,-3.7 -11,-0.5 z"
     id="path15729" />
  <path
     style="stroke-width:0.1"
     d="m 515.9,518.8 c -2.8,2.3 -3,7.3 -0.4,10.2 2.5,2.7 7.8,2.7 10.5,-0.2 2.6,-2.8 2.6,-5.8 -0.1,-9.2 -2.5,-3.1 -6.6,-3.5 -10,-0.8 z"
     id="path15731" />
  <path
     style="stroke-width:0.1"
     d="m 900.5,522.2 c -5,2.7 -5.9,7.5 -2,11.3 4.2,4.3 10.6,2.3 12.1,-3.7 0.5,-2.2 0,-3.3 -2.4,-5.8 -3.3,-3.2 -4.6,-3.5 -7.7,-1.8 z"
     id="path15733" />
  <path
     style="stroke-width:0.1"
     d="m 61.7,525.8 c -2.5,2.8 -2.2,8.7 0.5,10.6 5.1,3.6 11.8,0.5 11.8,-5.4 0,-1.7 -0.9,-3.9 -2,-5 -2.6,-2.6 -8.1,-2.6 -10.3,-0.2 z"
     id="path15735" />
  <path
     style="stroke-width:0.1"
     d="m 806.5,533 c -4.2,4.7 -0.8,12 5.5,12 3.3,0 7,-4 7,-7.6 0,-5.7 -8.6,-8.7 -12.5,-4.4 z"
     id="path15737" />
  <path
     style="stroke-width:0.1"
     d="m 964.3,545.2 c -6.8,3.3 -4,13.8 3.7,13.8 2.8,0 7,-4.4 7,-7.3 0,-5.1 -6.1,-8.8 -10.7,-6.5 z"
     id="path15739" />
  <path
     style="stroke-width:0.1"
     d="m 325.5,560.5 c -4.3,4.2 -2.3,10.6 3.7,12.1 2.2,0.5 3.4,0 5.9,-2.5 2.5,-2.5 3,-3.7 2.5,-5.9 -1.5,-6 -7.9,-8 -12.1,-3.7 z"
     id="path15741" />
  <path
     style="stroke-width:0.1"
     d="m 399.3,573.2 c -6.8,3.3 -4,13.8 3.7,13.8 2.8,0 7,-4.4 7,-7.3 0,-5.1 -6.1,-8.8 -10.7,-6.5 z"
     id="path15743" />
  <path
     style="stroke-width:0.1"
     d="m 157.2,584.6 c -6.2,4.3 -3.2,13.4 4.4,13.4 2.4,0 6.4,-4.7 6.4,-7.5 0,-3 -4.1,-7.5 -6.7,-7.5 -1,0 -2.9,0.7 -4.1,1.6 z"
     id="path15745" />
  <path
     style="stroke-width:0.1"
     d="m 1033,585 c -4.3,4.3 -1.1,12 5,12 3.8,0 7,-3.2 7,-7 0,-3.8 -3.2,-7 -7,-7 -1.7,0 -3.9,0.9 -5,2 z"
     id="path15747" />
  <path
     style="stroke-width:0.1"
     d="m 690,590 c -2.6,2.6 -2.6,8.1 -0.2,10.3 4.4,4 12.2,0.7 12.2,-5.1 0,-6 -7.8,-9.4 -12,-5.2 z"
     id="path15749" />
  <path
     style="stroke-width:0.1"
     d="m 786,590 c -4.5,4.5 -1.1,12 5.3,12 4.2,0 6.7,-2.6 6.7,-6.8 0,-4.1 -3.1,-7.2 -7,-7.2 -1.7,0 -3.9,0.9 -5,2 z"
     id="path15751" />
  <path
     style="stroke-width:0.1"
     d="m 480.6,599.2 c -3.6,5.1 -0.5,11.8 5.4,11.8 1.7,0 3.9,-0.9 5,-2 4.5,-4.5 1.1,-12 -5.4,-12 -2.5,0 -3.9,0.7 -5,2.2 z"
     id="path15753" />
  <path
     style="stroke-width:0.1"
     d="m 250.7,601.2 c -3.8,3.4 -4,7.5 -0.5,10.8 2.9,2.7 6.4,2.5 9.3,-0.5 2.9,-2.8 3.2,-6.5 0.8,-9.3 -2.8,-3.3 -6.6,-3.7 -9.6,-1 z"
     id="path15755" />
  <path
     style="stroke-width:0.1"
     d="m 870.3,600.2 c -6.8,3.3 -4,13.8 3.7,13.8 2.8,0 7,-4.4 7,-7.3 0,-5.1 -6.1,-8.8 -10.7,-6.5 z"
     id="path15757" />
  <path
     style="stroke-width:0.1"
     d="m 341.1,620.6 c -1.2,1.5 -2.1,3.4 -2.1,4.4 0,3.1 3.9,7 7,7 6.2,0 9.7,-6.6 6,-11.3 -2.9,-3.7 -8,-3.7 -10.9,-0.1 z"
     id="path15759" />
  <path
     style="stroke-width:0.1"
     d="m 598.2,622.3 c -4.5,4.8 -1.4,11.7 5.1,11.7 4.2,0 6.7,-2.6 6.7,-6.8 0,-6.5 -7.4,-9.6 -11.8,-4.9 z"
     id="path15761" />
  <path
     style="stroke-width:0.1"
     d="m 61.9,622.8 c -4.9,4 -1.7,12.2 4.8,12.2 6.5,0 9.3,-6.1 5.2,-11.4 -2.5,-3.1 -6.6,-3.5 -10,-0.8 z"
     id="path15763" />
  <path
     style="stroke-width:0.1"
     d="m 985.3,637.5 c -6.6,4.7 -0.8,15 7,12.3 5.1,-1.8 6.2,-7.4 2.2,-11.3 -2.7,-2.8 -6.1,-3.2 -9.2,-1 z"
     id="path15765" />
  <path
     style="stroke-width:0.1"
     d="m 1092,644 c -4.3,4.3 -1.1,12 5,12 3.8,0 7,-3.2 7,-7 0,-3.8 -3.2,-7 -7,-7 -1.7,0 -3.9,0.9 -5,2 z"
     id="path15767" />
  <path
     style="stroke-width:0.1"
     d="m 185.5,645.5 c -3,3 -3.1,5.4 -0.4,8.9 1.5,1.9 3,2.6 5.4,2.6 3.6,0 7.5,-3.6 7.5,-7 0,-1 -0.9,-2.9 -2.1,-4.4 -2.7,-3.4 -7.1,-3.5 -10.4,-0.1 z"
     id="path15769" />
  <path
     style="stroke-width:0.1"
     d="m 513.3,648 c -4.6,1.9 -5.7,8.3 -2,11.8 4.8,4.5 11.7,1.4 11.7,-5.1 0,-5.1 -5,-8.6 -9.7,-6.7 z"
     id="path15771" />
  <path
     style="stroke-width:0.1"
     d="m 839.7,656 c -3.5,2.8 -3.7,8 -0.5,11 2.9,2.7 6.4,2.5 9.3,-0.5 6.3,-6.3 -1.8,-16 -8.8,-10.5 z"
     id="path15773" />
  <path
     style="stroke-width:0.1"
     d="m 401.6,661.1 c -4.6,3.6 -2.6,11 3.4,12.4 3.9,0.9 8,-2.7 8,-7 0,-3.6 -3.6,-7.5 -7,-7.5 -1,0 -2.9,0.9 -4.4,2.1 z"
     id="path15775" />
  <path
     style="stroke-width:0.1"
     d="m 692.2,661.3 c -4.5,4.8 -1.4,11.7 5.1,11.7 4.2,0 6.7,-2.6 6.7,-6.8 0,-6.5 -7.4,-9.6 -11.8,-4.9 z"
     id="path15777" />
  <path
     style="stroke-width:0.1"
     d="m 765.5,663.5 c -4.8,4.7 -1.9,11.9 4.9,11.9 4.7,0 7,-2.3 7,-7 0,-6.8 -7.2,-9.7 -11.9,-4.9 z"
     id="path15779" />
  <path
     style="stroke-width:0.1"
     d="m 270.5,670.5 c -4.3,4.2 -2.3,10.6 3.7,12.1 2.2,0.5 3.4,0 5.9,-2.5 2.5,-2.5 3,-3.7 2.5,-5.9 -1.5,-6 -7.9,-8 -12.1,-3.7 z"
     id="path15781" />
  <path
     style="stroke-width:0.1"
     d="m 962.5,693.5 c -2.9,2.8 -3.1,5.1 -0.9,8.3 4.3,6.2 13.4,3.2 13.4,-4.4 0,-2.4 -4.7,-6.4 -7.5,-6.4 -1.4,0 -3.7,1.1 -5,2.5 z"
     id="path15783" />
  <path
     style="stroke-width:0.1"
     d="m 552.5,702.5 c -4,3.9 -2.9,9.7 2.2,11.6 6.2,2.3 11.9,-4 8.9,-9.9 -2.5,-4.9 -7.2,-5.6 -11.1,-1.7 z"
     id="path15785" />
  <path
     style="stroke-width:0.1"
     d="m 334,705.3 c -1.3,0.7 -2.8,2.7 -3.4,4.4 -1.7,6 4.3,11 10,8.4 L 343,717 v 15.5 15.5 h -35 -35 v 3 3 H 450.5 628 v -3 -3 H 488.5 349 v -21.5 -21.6 l -3.7,0.2 c -2.1,0.1 -4.9,-0.1 -6.3,-0.5 -1.4,-0.3 -3.6,0 -5,0.7 z"
     id="path15787" />
  <path
     style="stroke-width:0.1"
     d="m 449,707 c -4.2,4.2 -1.2,12 4.8,12 4.6,0 7.2,-2.5 7.2,-7 0,-2.9 -0.6,-4.3 -2.2,-5.4 -3.1,-2.2 -7.4,-2 -9.8,0.4 z"
     id="path15789" />
  <path
     style="stroke-width:0.1"
     d="m 1056.1,707.6 c -1.2,1.5 -2.1,3.4 -2.1,4.4 0,3.4 3.9,7 7.5,7 3.6,0 7.5,-3.6 7.5,-7 0,-3.4 -3.9,-7 -7.5,-7 -2.4,0 -3.9,0.7 -5.4,2.6 z"
     id="path15791" />
  <path
     style="stroke-width:0.1"
     d="m 632,710.3 c -5.5,2.8 -4.8,11 1.3,13.1 7.7,2.7 12.4,-8 5.5,-12.8 -2.7,-1.9 -3.5,-2 -6.8,-0.3 z"
     id="path15793" />
  <path
     style="stroke-width:0.1"
     d="m 71,716 c -2.4,2.4 -2.6,6.7 -0.4,9.8 1.1,1.6 2.5,2.2 5.4,2.2 2.9,0 4.3,-0.6 5.4,-2.2 C 85,720.7 81.9,714 76,714 c -1.7,0 -3.9,0.9 -5,2 z"
     id="path15795" />
  <path
     style="stroke-width:0.1"
     d="m 208.3,726 c -4.8,2 -5.8,8.7 -1.7,11.9 3.4,2.7 6.4,2.7 9.2,0.1 3.2,-3 3,-8.2 -0.4,-10.9 -2.9,-2.3 -3.8,-2.4 -7.1,-1.1 z"
     id="path15797" />
  <path
     style="stroke-width:0.1"
     d="m 770.2,732.3 c -4.5,4.8 -1.7,11.7 4.7,11.7 4.6,0 7.1,-2.4 7.1,-6.8 0,-6.5 -7.4,-9.6 -11.8,-4.9 z"
     id="path15799" />
  <path
     style="stroke-width:0.1"
     d="m 895.6,737.2 c -5,7.1 4.3,15.9 10.4,9.8 2.6,-2.6 2.6,-8.1 0.2,-10.3 -2.8,-2.5 -8.7,-2.2 -10.6,0.5 z"
     id="path15801" />
  <path
     style="stroke-width:0.1"
     d="m 695.8,742.6 c -5.1,2.7 -4.6,10.1 0.7,12.6 5.8,2.6 11.9,-3.3 9.5,-9.1 -0.6,-1.6 -2.3,-3.3 -3.6,-4 -3.1,-1.4 -3.3,-1.4 -6.6,0.5 z"
     id="path15803" />
  <path
     style="stroke-width:0.1"
     d="m 126.2,748 c -4.8,4.5 -1.6,12.3 5,12.3 6.1,0 9.1,-7.8 4.5,-12.1 -2.9,-2.8 -6.7,-2.8 -9.5,-0.2 z"
     id="path15805" />
  <path
     style="stroke-width:0.1"
     d="m 995.7,756.1 c -4.8,2.8 -4,10.7 1.2,12.9 7.5,3.1 13.4,-5.8 7.6,-11.5 -2.5,-2.6 -5.8,-3.1 -8.8,-1.4 z"
     id="path15807" />
  <path
     style="stroke-width:0.1"
     d="m 329.7,771.7 c -0.9,0.2 -2.4,1.8 -3.3,3.5 -3,5.9 2.7,12.2 8.9,9.9 5.1,-1.9 6.2,-7.7 2.2,-11.6 -2.3,-2.4 -4,-2.8 -7.8,-1.8 z"
     id="path15809" />
  <path
     style="stroke-width:0.1"
     d="m 571.8,782 c -3.5,2.7 -4.2,5.3 -2.4,8.8 2.5,4.9 7.3,5.6 11.1,1.7 2.9,-2.8 3.2,-6.5 0.8,-9.3 -2.7,-3.2 -6.4,-3.7 -9.5,-1.2 z"
     id="path15811" />
  <path
     style="stroke-width:0.1"
     d="m 839.7,782 c -2,1.6 -2.7,3 -2.7,5.6 0,6.8 6.8,9.7 11.5,4.9 6.3,-6.3 -1.8,-16 -8.8,-10.5 z"
     id="path15813" />
  <path
     style="stroke-width:0.1"
     d="m 1061.2,787.3 c -4.5,4.8 -1.7,11.7 4.7,11.7 4.6,0 7.1,-2.4 7.1,-6.8 0,-6.5 -7.4,-9.6 -11.8,-4.9 z"
     id="path15815" />
  <path
     style="stroke-width:0.1"
     d="M 762,811.4 V 835 H 730.5 699 v 3 3 h 181 181 v -3 -3 H 914.5 768 l -0.2,-23.3 -0.3,-23.2 -2.7,-0.3 -2.8,-0.3 z"
     id="path15817" />
  <path
     style="stroke-width:0.1"
     d="m 423.6,792.2 c -3.5,5 -0.5,11.8 5.2,11.8 5.9,0 9.2,-6.7 5.6,-11.8 -1.1,-1.6 -2.5,-2.2 -5.4,-2.2 -2.9,0 -4.3,0.6 -5.4,2.2 z"
     id="path15819" />
  <path
     style="stroke-width:0.1"
     d="m 201.3,797 c -4.7,1.9 -5.6,7.8 -1.8,11.5 4.2,4.3 10.6,2.3 12.1,-3.7 0.5,-2.2 0,-3.3 -2.4,-5.8 -3.2,-3.1 -4.3,-3.4 -7.9,-2 z"
     id="path15821" />
  <path
     style="stroke-width:0.1"
     d="m 65.2,800.3 c -4.3,4.6 -1.5,12 4.6,12 4.3,0 7.2,-2.8 7.2,-7 0,-6.6 -7.4,-9.7 -11.8,-5 z"
     id="path15823" />
  <path
     style="stroke-width:0.1"
     d="m 649.3,802.5 c -6.6,4.6 -0.8,15 6.8,12.3 2.6,-0.9 4.9,-4.4 4.9,-7.4 0,-2.3 -4.6,-6.4 -7.2,-6.4 -1.3,0 -3.3,0.7 -4.5,1.5 z"
     id="path15825" />
  <path
     style="stroke-width:0.1"
     d="m 932.5,808 c -2.6,2.9 -2.4,7.9 0.4,10.2 7,5.6 16.4,-3.9 10.1,-10.2 -2.6,-2.6 -8.1,-2.6 -10.5,0 z"
     id="path15827" />
  <path
     style="stroke-width:0.1"
     d="m 515.9,825.8 c -4.9,4 -1.7,12.2 4.8,12.2 6.5,0 9.3,-6.1 5.2,-11.4 -2.5,-3.1 -6.6,-3.5 -10,-0.8 z"
     id="path15829" />
  <path
     style="stroke-width:0.1"
     d="m 264.3,828.8 c -5.1,0.8 -7,8.3 -3,12 4.8,4.5 11.7,1.4 11.7,-5.1 0,-4.8 -3.8,-7.7 -8.7,-6.9 z"
     id="path15831" />
  <path
     style="stroke-width:0.1"
     d="m 350.6,831.1 c -3.6,2.8 -3.6,8 0,10.8 1.5,1.2 3.5,2.1 4.6,2.1 2.7,0 6.8,-4.5 6.8,-7.5 0,-3 -4.1,-7.5 -6.8,-7.5 -1.1,0 -3.1,0.9 -4.6,2.1 z"
     id="path15833" />
  <path
     style="stroke-width:0.1"
     d="m 27.6,845.1 c -3.6,2.8 -3.6,8 0,10.8 1.5,1.2 3.4,2.1 4.4,2.1 3.4,0 7,-3.9 7,-7.5 0,-3.6 -3.6,-7.5 -7,-7.5 -1,0 -2.9,0.9 -4.4,2.1 z"
     id="path15835" />
  <path
     style="stroke-width:0.1"
     d="m 777.6,860.1 c -1.9,1.5 -2.6,3 -2.6,5.4 0,3.6 3.6,7.5 7,7.5 3.4,0 7,-3.9 7,-7.5 0,-3.6 -3.6,-7.5 -7,-7.5 -1,0 -2.9,0.9 -4.4,2.1 z"
     id="path15837" />
  <path
     style="stroke-width:0.1"
     d="m 996.3,859.2 c -6.8,3.3 -3.9,13.8 3.8,13.8 2.8,0 6.9,-4.4 6.9,-7.3 0,-5.1 -6.1,-8.8 -10.7,-6.5 z"
     id="path15839" />
  <path
     style="stroke-width:0.1"
     d="m 435.5,867.5 c -4,3.9 -2.9,9.7 2.2,11.6 5.8,2.2 11.6,-3.6 9.4,-9.4 -1.9,-5.1 -7.7,-6.2 -11.6,-2.2 z"
     id="path15841" />
  <path
     style="stroke-width:0.1"
     d="m 100.9,868.2 c -1.6,0.5 -3.2,2.2 -3.9,3.9 -3.5,8.4 8.4,13.7 12.9,5.8 3.1,-5.5 -2.8,-11.8 -9,-9.7 z"
     id="path15843" />
  <path
     style="stroke-width:0.1"
     d="m 301.2,873.3 c -4.5,4.8 -1.4,11.7 5.1,11.7 4.3,0 7,-2.9 6.9,-7.2 -0.2,-6.3 -7.7,-9.1 -12,-4.5 z"
     id="path15845" />
  <path
     style="stroke-width:0.1"
     d="m 201,875.3 c -5.2,2.6 -4.9,10.4 0.4,12.8 3.6,1.7 7.3,0.3 9.2,-3.2 1.9,-3.8 0.6,-8 -3.2,-9.8 -3.1,-1.4 -3.3,-1.4 -6.4,0.2 z"
     id="path15847" />
  <path
     style="stroke-width:0.1"
     d="m 1095.3,875 c -4.9,2 -5.6,9 -1.1,12.3 7.3,5.4 15.3,-5.6 8.2,-11.2 -2.9,-2.3 -3.8,-2.4 -7.1,-1.1 z"
     id="path15849" />
  <path
     style="stroke-width:0.1"
     d="m 572.6,879.2 c -3.6,5.1 -0.5,11.8 5.4,11.8 3.8,0 7,-3.2 7,-7 0,-6.3 -9,-9.8 -12.4,-4.8 z"
     id="path15851" />
  <path
     style="stroke-width:0.1"
     d="m 673.7,878.8 c -2.5,2.8 -2.2,8.7 0.5,10.6 7.1,5 15.9,-4.3 9.8,-10.4 -2.6,-2.6 -8.1,-2.6 -10.3,-0.2 z"
     id="path15853" />
  <path
     style="stroke-width:0.1"
     d="m 871,881 c -2.6,2.6 -2.6,8.1 -0.2,10.3 4.4,4 12.2,0.7 12.2,-5.1 0,-6 -7.8,-9.4 -12,-5.2 z"
     id="path15855" />
</svg>
