<?xml version="1.0" encoding="UTF-8" standalone="no"?>
<svg
   xmlns:dc="http://purl.org/dc/elements/1.1/"
   xmlns:cc="http://creativecommons.org/ns#"
   xmlns:rdf="http://www.w3.org/1999/02/22-rdf-syntax-ns#"
   xmlns:svg="http://www.w3.org/2000/svg"
   xmlns="http://www.w3.org/2000/svg"
   xmlns:sodipodi="http://sodipodi.sourceforge.net/DTD/sodipodi-0.dtd"
   xmlns:inkscape="http://www.inkscape.org/namespaces/inkscape"
   inkscape:version="1.0 (4035a4fb49, 2020-05-01)"
   sodipodi:docname="USGS_603_colour_nobox.svg"
   id="svg5112"
   preserveAspectRatio="xMidYMid meet"
   viewBox="0 0 1125.000000 900.000000"
   height="900.000000pt"
   width="1125.000000pt"
   version="1.0">
  <defs
     id="defs5116" />
  <sodipodi:namedview
     inkscape:current-layer="svg5112"
     inkscape:window-maximized="1"
     inkscape:window-y="-8"
     inkscape:window-x="1912"
     inkscape:cy="600"
     inkscape:cx="750"
     inkscape:zoom="0.68916667"
     showgrid="false"
     id="namedview5114"
     inkscape:window-height="1017"
     inkscape:window-width="1920"
     inkscape:pageshadow="2"
     inkscape:pageopacity="0"
     guidetolerance="10"
     gridtolerance="10"
     objecttolerance="10"
     borderopacity="1"
     bordercolor="#666666"
     pagecolor="#ffffff" />
  <metadata
     id="metadata4496">
Created by potrace 1.13, written by Peter Selinger 2001-2015
<rdf:RDF>
  <cc:Work
     rdf:about="">
    <dc:format>image/svg+xml</dc:format>
    <dc:type
       rdf:resource="http://purl.org/dc/dcmitype/StillImage" />
    <dc:title></dc:title>
  </cc:Work>
</rdf:RDF>
</metadata>
  <path
     style="stroke-width:0.1"
     d="m 1059,19 c -2.6,2.6 -2.6,8.1 -0.2,10.3 4.4,4 12.2,0.7 12.2,-5.1 0,-6 -7.8,-9.4 -12,-5.2 z"
     id="path4500" />
  <path
     style="stroke-width:0.1"
     d="m 586.5,20.5 c -1.4,1.3 -2.5,3.6 -2.5,5 0,3 4.1,7.5 6.8,7.5 3.5,0 7.2,-3.8 7.2,-7.5 0,-2.4 -0.7,-3.9 -2.6,-5.4 -3.5,-2.7 -5.9,-2.6 -8.9,0.4 z"
     id="path4502" />
  <path
     style="stroke-width:0.1"
     d="M 33.1,31.8 C 30.3,34 30,39.3 32.5,42 36.4,46.3 45,43.3 45,37.6 45,31.5 37.8,27.9 33.1,31.8 Z"
     id="path4504" />
  <path
     style="stroke-width:0.1"
     d="m 1021.3,32.2 c -2.8,1.4 -4.3,5.5 -3.1,8.9 0.9,2.6 4.4,4.9 7.4,4.9 2.4,0 6.4,-4.7 6.4,-7.5 0,-3 -4.1,-7.5 -6.7,-7.4 -1,0 -2.8,0.5 -4,1.1 z"
     id="path4506" />
  <path
     style="stroke-width:0.1"
     d="m 526,35 c -6.2,6.2 3.1,15.8 9.9,10.2 2.8,-2.2 3.1,-7.5 0.6,-10.2 -2.4,-2.6 -7.9,-2.6 -10.5,0 z"
     id="path4508" />
  <path
     style="stroke-width:0.1"
     d="m 796.7,42.2 c -3.7,3.3 -4,7.5 -0.7,10.8 2.7,2.7 6.6,2.5 9.5,-0.5 2.9,-2.8 3.2,-6.5 0.8,-9.3 -2.8,-3.3 -6.6,-3.7 -9.6,-1 z"
     id="path4510" />
  <path
     style="stroke-width:0.1"
     d="m 105.9,44.8 c -1.5,1.3 -2.2,3 -2.2,5.1 0,6.6 7.6,9.8 12.3,5.1 2.7,-2.7 2.5,-6.6 -0.5,-9.5 -2.9,-3 -6.4,-3.2 -9.6,-0.7 z"
     id="path4512" />
  <path
     style="stroke-width:0.1"
     d="m 466.5,45.5 c -4,3.9 -2.9,9.5 2.2,11.3 7.8,2.7 13.6,-7.6 7,-12.3 -3.1,-2.2 -6.5,-1.8 -9.2,1 z"
     id="path4514" />
  <path
     style="stroke-width:0.1"
     d="m 732.5,47.5 c -4.9,1.7 -10.2,7.5 -11.6,12.9 -2.1,7.9 3.5,16 13,18.6 5.4,1.5 13.9,1.1 19.6,-0.8 3.9,-1.3 5.4,-2.5 6.9,-5.2 2.6,-5 1,-10.3 -5.4,-17.3 -7.1,-7.8 -15.3,-10.8 -22.5,-8.2 z m 13.3,8.3 c 5.7,3.8 9.4,9 9,12.7 -0.3,2.7 -0.8,3.1 -5.8,4.4 -6.8,1.7 -13.6,0.9 -18.2,-2.2 -2.7,-1.9 -3.4,-3 -3.6,-6.5 -0.3,-3.7 0.1,-4.7 3.1,-7.7 4.5,-4.5 9.5,-4.8 15.5,-0.7 z"
     id="path4516" />
  <path
     style="stroke-width:0.1"
     d="m 980.5,48 c -4.2,4.7 -0.8,12 5.5,12 3.3,0 7,-4 7,-7.6 0,-5.7 -8.6,-8.7 -12.5,-4.4 z"
     id="path4518" />
  <path
     style="stroke-width:0.1"
     d="m 172.6,50.1 c -1.9,1.5 -2.6,3 -2.6,5.4 0,3.6 3.6,7.5 7,7.5 3.4,0 7,-3.9 7,-7.5 0,-3.6 -3.6,-7.5 -7,-7.5 -1,0 -2.9,0.9 -4.4,2.1 z"
     id="path4520" />
  <path
     style="stroke-width:0.1"
     d="m 413.2,48.7 c -0.7,0.3 -1.9,1.8 -2.8,3.5 -1.3,2.4 -1.3,3.5 -0.4,5.8 3.1,7.4 14,5.1 14,-3 0,-4.5 -6.3,-8.1 -10.8,-6.3 z"
     id="path4522" />
  <path
     style="stroke-width:0.1"
     d="m 354.5,53.5 c -3.9,3.8 -3.2,8.6 1.6,11 4.9,2.6 10.2,-0.9 10.2,-6.7 0,-6.2 -7.3,-8.9 -11.8,-4.3 z"
     id="path4524" />
  <path
     style="stroke-width:0.1"
     d="m 233.5,54.5 c -2.8,2.7 -3.2,6.1 -1,9.2 4.7,6.6 15,0.8 12.3,-7 -1.8,-5.1 -7.4,-6.2 -11.3,-2.2 z"
     id="path4526" />
  <path
     style="stroke-width:0.1"
     d="m 292.7,55 c -3.5,2.8 -3.7,8 -0.5,11 6.3,5.8 15.6,-3.2 10.1,-9.8 -2.7,-3.2 -6.4,-3.7 -9.6,-1.2 z"
     id="path4528" />
  <path
     style="stroke-width:0.1"
     d="m 940,61 c -2.6,2.6 -2.5,6 0.1,9.4 2.5,3.1 6.6,3.5 10,0.8 2.8,-2.3 3,-7.3 0.4,-10.2 -2.4,-2.6 -7.9,-2.6 -10.5,0 z"
     id="path4530" />
  <path
     style="stroke-width:0.1"
     d="m 674.9,70.8 c -1.5,1.3 -2.2,3 -2.2,5.1 0,6.6 7.6,9.8 12.3,5.1 2.7,-2.7 2.5,-6.6 -0.5,-9.5 -2.9,-3 -6.4,-3.2 -9.6,-0.7 z"
     id="path4532" />
  <path
     style="stroke-width:0.1"
     d="m 900.2,71 c -4.8,4.5 -1.6,12.3 5,12.3 6.1,0 9.1,-7.8 4.5,-12.1 -2.9,-2.8 -6.7,-2.8 -9.5,-0.2 z"
     id="path4534" />
  <path
     style="stroke-width:0.1"
     d="m 609.2,75.7 c -5.8,2.8 -10.8,12.1 -9.7,17.9 0.8,4.4 5,9.3 10,11.5 4.6,2.1 15.2,2.5 22,0.8 8.9,-2.2 11.3,-9.4 6.2,-18.2 -6.5,-11 -19.4,-16.5 -28.5,-12 z m 13.7,6.2 c 6.7,3.5 12.3,11.5 10.8,15.5 -1.2,3.1 -14.5,4.7 -20.4,2.5 -8.1,-3 -9.8,-10.1 -3.9,-16.3 3.9,-4.2 7.6,-4.7 13.5,-1.7 z"
     id="path4536" />
  <path
     style="stroke-width:0.1"
     d="m 858.5,80.5 c -2.8,2.7 -3.2,6.1 -1,9.2 4.7,6.6 15,0.8 12.3,-7 -1.8,-5.1 -7.4,-6.2 -11.3,-2.2 z"
     id="path4538" />
  <path
     style="stroke-width:0.1"
     d="m 59,84 c -2.6,2.6 -2.6,8.1 0,10.5 2.9,2.6 7.9,2.4 10.2,-0.4 2.7,-3.4 2.3,-7.5 -0.8,-10 C 65,81.5 61.6,81.4 59,84 Z"
     id="path4540" />
  <path
     style="stroke-width:0.1"
     d="m 116.3,89.9 c -5.5,2.6 -10.3,9.8 -10.3,15.5 0,11.5 12.7,18.4 28.4,15.6 14.1,-2.5 16.7,-11.8 6.6,-23.4 -7.2,-8.2 -17.1,-11.3 -24.7,-7.7 z m 11.5,5.6 c 8.2,3.5 15.3,13.8 11.9,17.3 -2.2,2.1 -16.5,2.9 -20.7,1.2 -3.7,-1.6 -7,-5.5 -7,-8.5 0,-4.5 6.5,-11.4 10.8,-11.5 0.7,0 2.9,0.7 5,1.5 z"
     id="path4542" />
  <path
     style="stroke-width:0.1"
     d="m 487.3,93 c -3.8,2.3 -8,8.3 -8.9,12.7 -1.4,6.9 4.4,15 12.3,17.2 4.9,1.4 14.7,1.4 19.7,0 8.9,-2.5 11.3,-10.3 5.7,-19.1 C 509.2,93 495.7,87.9 487.3,93 Z m 14.6,5.9 c 6.7,3.5 12.3,11.5 10.8,15.5 -0.8,1.9 -6.9,3.6 -13.2,3.6 -5.8,0 -11,-2.3 -13.8,-6.1 -1.7,-2.3 -1.8,-3.1 -0.7,-6.3 1.5,-4.5 6.3,-8.6 10.1,-8.6 1.6,0 4.7,0.9 6.8,1.9 z"
     id="path4544" />
  <path
     style="stroke-width:0.1"
     d="m 554.7,92.1 c -4.8,2.8 -4,10.7 1.2,12.9 7.5,3.1 13.4,-5.8 7.6,-11.5 -2.5,-2.6 -5.8,-3.1 -8.8,-1.4 z"
     id="path4546" />
  <path
     style="stroke-width:0.1"
     d="m 819.5,93.5 c -4.3,4.2 -2.3,10.6 3.5,12 3.8,0.9 8,-2.7 8,-6.8 0,-3.8 -0.7,-5 -3.7,-6.6 -3.3,-1.7 -5.1,-1.4 -7.8,1.4 z"
     id="path4548" />
  <path
     style="stroke-width:0.1"
     d="m 180.7,98 c -3.7,2.9 -3.7,8 -0.1,10.9 1.5,1.2 3.4,2.1 4.4,2.1 3.1,0 7,-3.9 7,-7 0,-6.2 -6.6,-9.7 -11.3,-6 z"
     id="path4550" />
  <path
     style="stroke-width:0.1"
     d="m 237,97.1 c -9.5,3.8 -14,16.1 -8.7,24 3.3,5.1 10.4,8.2 18.5,8.2 15.6,-0.1 22.3,-5.4 19.3,-15.2 -3.4,-11.5 -19.5,-20.8 -29.1,-17 z m 11.5,6.8 c 6.5,2.9 13.3,11.8 11.9,15.6 -1.2,3.1 -15.1,4.7 -21.1,2.4 -8.3,-3.1 -9.7,-9.7 -3.4,-16 4.4,-4.4 6.6,-4.8 12.6,-2 z"
     id="path4552" />
  <path
     style="stroke-width:0.1"
     d="m 362.3,101 c -4,2.4 -8.2,8.6 -8.9,13.2 -1.2,6.8 4.1,13.9 12.5,16.7 8,2.6 23.5,0.2 26.6,-4.2 2.1,-3 1.9,-9 -0.4,-13.6 -2.3,-4.5 -9.1,-10.8 -13.7,-12.7 -4.8,-2 -12.3,-1.8 -16.1,0.6 z m 17.5,7.7 c 8,6.5 10.5,13.5 5.5,15.4 -7.5,2.9 -18.2,1.9 -22.7,-2 -4.5,-4 -3.7,-10.5 2,-15 3.9,-3.1 10.2,-2.4 15.2,1.6 z"
     id="path4554" />
  <path
     style="stroke-width:0.1"
     d="m 780.5,102.5 c -1.4,1.3 -2.5,3.6 -2.5,5 0,3 4.1,7.5 6.8,7.5 3.5,0 7.2,-3.8 7.2,-7.5 0,-2.4 -0.7,-3.9 -2.6,-5.4 -3.5,-2.7 -5.9,-2.6 -8.9,0.4 z"
     id="path4556" />
  <path
     style="stroke-width:0.1"
     d="m 977.6,104.2 c -5,7.1 4.3,15.9 10.4,9.8 2.6,-2.6 2.6,-8.1 0.2,-10.3 -2.8,-2.5 -8.7,-2.2 -10.6,0.5 z"
     id="path4558" />
  <path
     style="stroke-width:0.1"
     d="m 427.2,105.3 c -4.5,4.8 -1.4,11.7 5.1,11.7 4.2,0 7,-2.9 7,-7.2 0,-6.1 -7.8,-9.1 -12.1,-4.5 z"
     id="path4560" />
  <path
     style="stroke-width:0.1"
     d="m 304.7,105.1 c -4.8,2.8 -4,10.7 1.2,12.9 7.5,3.1 13.4,-5.8 7.6,-11.5 -2.5,-2.6 -5.8,-3.1 -8.8,-1.4 z"
     id="path4562" />
  <path
     style="stroke-width:0.1"
     d="m 1034.3,106 c -6,3.6 -10.4,12.7 -8.9,18.4 0.9,3.7 5.6,8.7 10.1,10.7 4.6,2.1 15.7,2.5 21.9,0.8 8.3,-2.3 10.8,-8.8 6.5,-17.5 -5.4,-11.4 -20.8,-17.8 -29.6,-12.4 z m 16.8,7.4 c 4.8,3.2 9.2,9.6 8.7,12.8 -0.6,4.7 -14.7,6.5 -22.4,2.8 -7.5,-3.7 -7.9,-11.3 -0.8,-16.9 3.6,-2.9 8.8,-2.4 14.5,1.3 z"
     id="path4564" />
  <path
     style="stroke-width:0.1"
     d="m 738.1,109.6 c -1.2,1.5 -2.1,3.4 -2.1,4.4 0,3.4 3.9,7 7.5,7 3.6,0 7.5,-3.6 7.5,-7 0,-3.4 -3.9,-7 -7.5,-7 -2.4,0 -3.9,0.7 -5.4,2.6 z"
     id="path4566" />
  <path
     style="stroke-width:0.1"
     d="m 696.7,116.8 c -4,4.4 -0.7,12.2 5.1,12.2 6,0 9.4,-7.8 5.2,-12 -2.6,-2.6 -8.1,-2.6 -10.3,-0.2 z"
     id="path4568" />
  <path
     style="stroke-width:0.1"
     d="m 658.7,124.2 c -3.7,3.3 -4,7.5 -0.7,10.8 2.7,2.7 6.6,2.5 9.5,-0.5 2.9,-2.8 3.2,-6.5 0.8,-9.3 -2.8,-3.3 -6.6,-3.7 -9.6,-1 z"
     id="path4570" />
  <path
     style="stroke-width:0.1"
     d="m 18.5,127.5 c -1.4,1.3 -2.5,3.1 -2.5,3.9 0,3 2.3,6.5 4.9,7.4 7.6,2.7 13.4,-7.7 6.8,-12.3 -3.1,-2.2 -6.5,-1.8 -9.2,1 z"
     id="path4572" />
  <path
     style="stroke-width:0.1"
     d="m 1102.1,130.8 c -2.8,2.2 -3.1,7.5 -0.6,10.2 2.4,2.6 7.9,2.6 10.5,0 6.2,-6.2 -3.1,-15.8 -9.9,-10.2 z"
     id="path4574" />
  <path
     style="stroke-width:0.1"
     d="m 616.6,132.1 c -1.9,1.5 -2.6,3 -2.6,5.4 0,3.6 3.6,7.5 7,7.5 3.4,0 7,-3.9 7,-7.5 0,-3.6 -3.6,-7.5 -7,-7.5 -1,0 -2.9,0.9 -4.4,2.1 z"
     id="path4576" />
  <path
     style="stroke-width:0.1"
     d="m 62,131.8 c -5.1,1.6 -6.8,8.4 -3,12.2 5.7,5.7 14.9,-1.8 11,-9 -1.1,-2 -5.8,-3.9 -8,-3.2 z"
     id="path4578" />
  <path
     style="stroke-width:0.1"
     d="m 577.2,136.6 c -6.3,4.4 -3.7,13.4 3.9,13.4 2.8,0 6.9,-4.4 6.9,-7.3 0,-5.5 -6.5,-9.2 -10.8,-6.1 z"
     id="path4580" />
  <path
     style="stroke-width:0.1"
     d="m 99.2,140.3 c -4.3,4.6 -1.5,12 4.6,12 4.3,0 7.2,-2.8 7.2,-7 0,-6.6 -7.4,-9.7 -11.8,-5 z"
     id="path4582" />
  <path
     style="stroke-width:0.1"
     d="m 533.1,143.8 c -2.8,2.2 -3.1,7.5 -0.6,10.2 2.4,2.6 7.9,2.6 10.5,0 6.2,-6.2 -3.1,-15.8 -9.9,-10.2 z"
     id="path4584" />
  <path
     style="stroke-width:0.1"
     d="m 141.6,147.2 c -5,7.1 4.3,15.9 10.4,9.8 2.6,-2.6 2.6,-8.1 0.2,-10.3 -2.8,-2.5 -8.7,-2.2 -10.6,0.5 z"
     id="path4586" />
  <path
     style="stroke-width:0.1"
     d="m 182.5,149.5 c -1.4,1.3 -2.5,3 -2.5,3.7 0.1,5.9 5.1,9.8 10,7.8 2.7,-1.1 5,-4.6 5,-7.6 0,-2.4 -4.7,-6.4 -7.5,-6.4 -1.4,0 -3.7,1.1 -5,2.5 z"
     id="path4588" />
  <path
     style="stroke-width:0.1"
     d="m 494.9,148 c -2.7,1.5 -4.3,6.5 -2.9,8.9 2.8,5.3 9.4,6.2 12.5,1.8 4.4,-6.2 -3.1,-14.5 -9.6,-10.7 z"
     id="path4590" />
  <path
     style="stroke-width:0.1"
     d="m 453.2,152.3 c -2.8,3 -2.8,6.8 0.1,9.5 4.8,4.5 12,1.6 12,-4.8 0,-6.5 -7.6,-9.5 -12.1,-4.7 z"
     id="path4592" />
  <path
     style="stroke-width:0.1"
     d="m 223.7,154 c -7.2,5.7 0.8,16.7 8.1,11.3 5.1,-3.8 3.4,-11.4 -2.8,-12.8 -1.8,-0.4 -3.4,0 -5.3,1.5 z"
     id="path4594" />
  <path
     style="stroke-width:0.1"
     d="m 751.1,156.6 c -1.2,1.5 -2.1,3.4 -2.1,4.4 0,3.4 3.9,7 7.5,7 3.6,0 7.5,-3.6 7.5,-7 0,-3.4 -3.9,-7 -7.5,-7 -2.4,0 -3.9,0.7 -5.4,2.6 z"
     id="path4596" />
  <path
     style="stroke-width:0.1"
     d="m 264.5,157.5 c -3,3 -3.1,5.4 -0.4,8.9 1.5,1.9 3,2.6 5.4,2.6 3.7,0 7.5,-3.7 7.5,-7.2 0,-2.7 -4.5,-6.8 -7.5,-6.8 -1.4,0 -3.7,1.1 -5,2.5 z"
     id="path4598" />
  <path
     style="stroke-width:0.1"
     d="m 410.5,157.5 c -4.8,4.7 -1.9,11.5 4.9,11.5 6.8,0 9.6,-7.9 4.4,-12.3 -2.8,-2.4 -6.5,-2.1 -9.3,0.8 z"
     id="path4600" />
  <path
     style="stroke-width:0.1"
     d="m 307.1,160.6 c -1.2,1.5 -2.1,3.5 -2.1,4.6 0,2.7 4.5,6.8 7.5,6.8 3,0 7.5,-4.1 7.5,-6.8 0,-3.5 -3.8,-7.2 -7.5,-7.2 -2.4,0 -3.9,0.7 -5.4,2.6 z"
     id="path4602" />
  <path
     style="stroke-width:0.1"
     d="m 364.7,159.8 c -4,4.4 -0.7,12.2 5.1,12.2 6,0 9.4,-7.8 5.2,-12 -2.6,-2.6 -8.1,-2.6 -10.3,-0.2 z"
     id="path4604" />
  <path
     style="stroke-width:0.1"
     d="m 614.3,162 c -4.8,1.9 -5.8,8.7 -1.7,11.9 5.3,4.1 11.4,1.3 11.4,-5.2 0,-5.1 -5,-8.6 -9.7,-6.7 z"
     id="path4606" />
  <path
     style="stroke-width:0.1"
     d="m 814.6,175.1 c -1.9,1.5 -2.6,3 -2.6,5.4 0,3.6 3.6,7.5 7,7.5 3.4,0 7,-3.9 7,-7.5 0,-3.6 -3.6,-7.5 -7,-7.5 -1,0 -2.9,0.9 -4.4,2.1 z"
     id="path4608" />
  <path
     style="stroke-width:0.1"
     d="m 573,178 c -4.2,4.2 -1.2,12 4.8,12 4.4,0 7.2,-2.6 7.2,-6.6 0,-4.3 -2.9,-7.4 -7,-7.4 -1.7,0 -3.9,0.9 -5,2 z"
     id="path4610" />
  <path
     style="stroke-width:0.1"
     d="m 392.2,181.1 c -8.8,4.4 -12.8,15.9 -8,22.9 4.9,7.2 15.8,10.4 27.3,8 7.3,-1.5 11.5,-5.2 11.5,-10.1 0,-7.8 -8.7,-18.2 -17.7,-21.3 -6.1,-2.1 -8,-2 -13.1,0.5 z m 13.1,6 c 3.9,2 9.6,8.2 10.8,11.7 1.5,4.5 0.1,5.9 -7.3,7.2 -16.1,3 -26.4,-7.5 -16.8,-17.1 2.2,-2.3 3.8,-2.9 7,-2.9 2.3,0 5.1,0.5 6.3,1.1 z"
     id="path4612" />
  <path
     style="stroke-width:0.1"
     d="m 211.2,183.3 c -4.3,4.6 -1.6,11.7 4.6,11.9 4.3,0.1 7.2,-2.6 7.2,-6.9 0,-6.6 -7.4,-9.7 -11.8,-5 z"
     id="path4614" />
  <path
     style="stroke-width:0.1"
     d="m 875.2,187.3 c -4.5,4.8 -1.4,11.7 5.1,11.7 4.2,0 6.7,-2.6 6.7,-6.8 0,-6.5 -7.4,-9.6 -11.8,-4.9 z"
     id="path4616" />
  <path
     style="stroke-width:0.1"
     d="m 153,187.7 c -5.1,1.9 -6.8,8.5 -3,12.3 6.1,6.1 15.9,-3.2 10.3,-9.8 -2,-2.3 -5,-3.3 -7.3,-2.5 z"
     id="path4618" />
  <path
     style="stroke-width:0.1"
     d="m 531.5,192.5 c -3.9,3.9 -3.2,8.6 1.7,11.1 5.9,3 12.2,-2.7 9.9,-8.9 -1.9,-5.1 -7.7,-6.2 -11.6,-2.2 z"
     id="path4620" />
  <path
     style="stroke-width:0.1"
     d="m 107.1,194.6 c -1.2,1.5 -2.1,3.4 -2.1,4.4 0,3.4 3.9,7 7.5,7 4.3,0 7.9,-4.1 7,-8 -1.4,-6 -8.8,-8 -12.4,-3.4 z"
     id="path4622" />
  <path
     style="stroke-width:0.1"
     d="m 630,196.3 c -8,4 -2.4,16.2 5.9,12.7 5.3,-2.2 5.9,-8.9 0.9,-12.4 -2.7,-1.9 -3.5,-2 -6.8,-0.3 z"
     id="path4624" />
  <path
     style="stroke-width:0.1"
     d="m 934.6,197.1 c -2.6,2 -3.6,6.9 -1.8,9.5 1,1.5 4.7,3.4 6.7,3.4 2.5,0 6.5,-4.6 6.5,-7.5 0,-3 -4.1,-7.5 -6.8,-7.5 -1.1,0 -3.1,0.9 -4.6,2.1 z"
     id="path4626" />
  <path
     style="stroke-width:0.1"
     d="m 54.7,198.1 c -1,0.6 -2.3,2.2 -2.8,3.7 -2.3,6.1 4.2,11.8 10.1,8.7 4.7,-2.4 5.4,-7.2 1.5,-11 -2.5,-2.6 -5.8,-3.1 -8.8,-1.4 z"
     id="path4628" />
  <path
     style="stroke-width:0.1"
     d="m 999,204 c -2.6,2.6 -2.6,8.1 -0.2,10.3 4.5,4 12.2,0.6 12.2,-5.3 0,-1.7 -0.9,-3.9 -2,-5 -1.1,-1.1 -3.3,-2 -5,-2 -1.7,0 -3.9,0.9 -5,2 z"
     id="path4630" />
  <path
     style="stroke-width:0.1"
     d="m 493.8,205.6 c -5.1,2.7 -4.6,10.1 0.7,12.6 5.8,2.6 11.9,-3.3 9.5,-9.1 -0.6,-1.6 -2.3,-3.3 -3.6,-4 -3.1,-1.4 -3.3,-1.4 -6.6,0.5 z"
     id="path4632" />
  <path
     style="stroke-width:0.1"
     d="m 261.4,209.9 c -8.5,5.2 -11.9,16.1 -7.2,23.1 4.8,7.2 17.8,10.3 29.6,7.1 10.8,-3 12,-12.3 3,-22.6 -7.4,-8.4 -18.6,-11.8 -25.4,-7.6 z m 13.1,6 c 6.9,3.2 13.4,11.7 11.9,15.6 -1.2,3.1 -15.1,4.7 -21.1,2.4 -8.3,-3.1 -9.7,-9.7 -3.4,-16 4.4,-4.4 6.6,-4.8 12.6,-2 z"
     id="path4634" />
  <path
     style="stroke-width:0.1"
     d="m 331.3,209.2 c -6.8,3.3 -4,13.8 3.7,13.8 2.8,0 7,-4.4 7,-7.3 0,-5.1 -6.1,-8.8 -10.7,-6.5 z"
     id="path4636" />
  <path
     style="stroke-width:0.1"
     d="m 687.5,209.9 c -7.3,4.4 -11.3,12.6 -9.5,19.2 2.1,7.4 10.2,12.1 21,12.1 15.9,0 22.8,-6.2 18.2,-16.4 -5.7,-12.9 -20.7,-20.4 -29.7,-14.9 z m 12.3,5.7 c 6.7,2.7 12.2,9.5 12.2,14.8 0,2 -0.7,2.7 -3.7,3.5 -16.1,4.5 -29.2,-3.9 -22.4,-14.3 3.6,-5.5 7.7,-6.6 13.9,-4 z"
     id="path4638" />
  <path
     style="stroke-width:0.1"
     d="m 1061.1,212.6 c -1.2,1.5 -2.1,3.4 -2.1,4.4 0,3.1 3.9,7 7,7 6.2,0 9.7,-6.6 6,-11.3 -2.9,-3.7 -8,-3.7 -10.9,-0.1 z"
     id="path4640" />
  <path
     style="stroke-width:0.1"
     d="m 452.2,216.7 c -0.7,0.3 -1.9,1.8 -2.7,3.3 -4,7.7 7.1,14.7 12,7.7 4.2,-6 -2.4,-13.8 -9.3,-11 z"
     id="path4642" />
  <path
     style="stroke-width:0.1"
     d="m 546,226 c -2.6,2.6 -2.6,8.1 -0.2,10.3 4.4,4 12.2,0.7 12.2,-5.1 0,-6 -7.8,-9.4 -12,-5.2 z"
     id="path4644" />
  <path
     style="stroke-width:0.1"
     d="m 413.4,226.2 c -6.9,3.3 -3.7,13.8 4.2,13.8 2.4,0 6.4,-4.7 6.4,-7.5 0,-3 -4.1,-7.5 -6.7,-7.4 -1,0 -2.8,0.5 -3.9,1.1 z"
     id="path4646" />
  <path
     style="stroke-width:0.1"
     d="m 143.2,235.1 c -4.6,3 -8.5,10.1 -8.5,15.5 0,8.7 7.6,14.5 19.8,15.2 20.5,1.1 27.4,-9.8 15,-23.6 -8,-8.9 -18.9,-11.8 -26.3,-7.1 z m 14.4,5.5 c 5.1,2.4 11.4,9.8 11.4,13.3 0,3.8 -2.3,5.1 -10,5.8 -9.7,0.9 -18,-3.2 -18,-8.8 0,-1.7 0.7,-4.3 1.5,-5.9 3,-5.9 8.6,-7.5 15.1,-4.4 z"
     id="path4648" />
  <path
     style="stroke-width:0.1"
     d="m 373,235.3 c -5.2,2.6 -4.9,10.4 0.4,12.8 8.1,3.7 13.8,-7.3 6.4,-12.5 -2.7,-1.9 -3.5,-2 -6.8,-0.3 z"
     id="path4650" />
  <path
     style="stroke-width:0.1"
     d="m 208.5,239.5 c -2.9,2.8 -3.1,5.1 -0.9,8.3 4.3,6.2 13.4,3.2 13.4,-4.4 0,-2.4 -4.7,-6.4 -7.5,-6.4 -1.4,0 -3.7,1.1 -5,2.5 z"
     id="path4652" />
  <path
     style="stroke-width:0.1"
     d="m 755.5,239.5 c -4,3.9 -2.8,9.3 2.6,11.3 7.4,2.8 13,-7.8 6.6,-12.3 -3.1,-2.2 -6.5,-1.8 -9.2,1 z"
     id="path4654" />
  <path
     style="stroke-width:0.1"
     d="m 809.5,242.9 c -1.1,0.5 -3.3,2.1 -4.8,3.7 -9,9 -7.6,20.9 3,26 4.8,2.3 15.1,3 21.8,1.5 11.6,-2.6 13.5,-12.2 4.4,-22.5 -6.9,-7.9 -17.3,-11.5 -24.4,-8.7 z m 12.1,6.7 c 5.4,2.6 11.4,9.8 11.4,13.7 0,3.1 -0.4,3.5 -3.9,4.5 -4.8,1.5 -13.1,1.5 -16.8,0.1 -7,-2.6 -9.2,-8.5 -5.4,-14.3 3.7,-5.5 8.6,-6.9 14.7,-4 z"
     id="path4656" />
  <path
     style="stroke-width:0.1"
     d="m 331,247 c -4.3,4.3 -1.1,12 5,12 3.8,0 7,-3.2 7,-7 0,-3.8 -3.2,-7 -7,-7 -1.7,0 -3.9,0.9 -5,2 z"
     id="path4658" />
  <path
     style="stroke-width:0.1"
     d="m 582.2,247.3 c -4.5,4.8 -1.4,11.7 5.1,11.7 4.3,0 6.7,-2.6 6.7,-7.3 0,-6.3 -7.4,-9.1 -11.8,-4.4 z"
     id="path4660" />
  <path
     style="stroke-width:0.1"
     d="m 18.4,255.9 c -4.1,2.5 -6.9,6.6 -8.4,11.9 -1,3.9 -0.9,4.9 1.2,9 4.3,8.7 17.3,12.5 29.9,8.8 8.3,-2.4 10.9,-6.3 8.9,-13.5 -1.3,-4.8 -8.8,-13.5 -14.1,-16.1 -5,-2.6 -13.3,-2.6 -17.5,-0.1 z m 16.4,6.9 c 8.7,5.8 12,14.2 6.5,16.3 -4.7,1.8 -11.6,2.2 -16.2,0.9 -9.4,-2.5 -12,-9.8 -5.7,-16.4 4.3,-4.7 9.3,-4.9 15.4,-0.8 z"
     id="path4662" />
  <path
     style="stroke-width:0.1"
     d="m 292,256 c -2.6,2.6 -2.6,8.1 -0.2,10.3 4.4,4 12.2,0.7 12.2,-5.1 0,-6 -7.8,-9.4 -12,-5.2 z"
     id="path4664" />
  <path
     style="stroke-width:0.1"
     d="m 86.6,257.1 c -3.4,2.7 -3.5,7.1 -0.1,10.4 3,3 5.4,3.1 8.9,0.4 1.9,-1.5 2.6,-3 2.6,-5.4 0,-3.6 -3.6,-7.5 -7,-7.5 -1,0 -2.9,0.9 -4.4,2.1 z"
     id="path4666" />
  <path
     style="stroke-width:0.1"
     d="m 253.2,265 c -2.2,0.9 -4.2,4.6 -4.2,7.6 0,2.4 4.7,6.4 7.5,6.4 1.4,0 3.7,-1.1 5.2,-2.6 2,-2 2.4,-3.1 1.9,-5.7 -0.4,-1.7 -1.2,-3.7 -1.9,-4.4 -1.8,-1.7 -5.9,-2.4 -8.5,-1.3 z"
     id="path4668" />
  <path
     style="stroke-width:0.1"
     d="m 620.3,265.2 c -6.8,3.3 -3.9,13.8 3.8,13.8 2.8,0 6.9,-4.4 6.9,-7.3 0,-5.1 -6.1,-8.8 -10.7,-6.5 z"
     id="path4670" />
  <path
     style="stroke-width:0.1"
     d="m 878.2,265 c -2.2,0.9 -4.2,4.6 -4.2,7.6 0,2.4 4.7,6.4 7.5,6.4 1.4,0 3.7,-1.1 5.2,-2.6 2,-2 2.4,-3.1 1.9,-5.7 -0.4,-1.7 -1.2,-3.7 -1.9,-4.4 -1.8,-1.7 -5.9,-2.4 -8.5,-1.3 z"
     id="path4672" />
  <path
     style="stroke-width:0.1"
     d="m 934.5,265.2 c -13.2,7.2 -14.4,23.1 -2.3,29.4 4.4,2.3 11.9,3.2 18.8,2.2 11.3,-1.5 15.3,-5.9 13,-14.3 -3.3,-12 -20.7,-22.2 -29.5,-17.3 z m 12.1,6.7 c 6.8,3.1 13.6,12.6 11.4,16.1 -1.7,2.7 -15.2,4 -20.7,1.9 -7,-2.6 -9.2,-8.5 -5.4,-14.3 3.8,-5.7 8,-6.7 14.7,-3.7 z"
     id="path4674" />
  <path
     style="stroke-width:0.1"
     d="m 418,268 c -4.2,4.2 -0.8,12 5.3,12 5.8,0 9.1,-8.5 4.9,-12.3 -2.5,-2.3 -7.8,-2.1 -10.2,0.3 z"
     id="path4676" />
  <path
     style="stroke-width:0.1"
     d="m 213,273.7 c -5.1,1.9 -6.8,8.5 -3,12.3 6.1,6.1 15.9,-3.3 10.3,-9.8 -2,-2.3 -5,-3.3 -7.3,-2.5 z"
     id="path4678" />
  <path
     style="stroke-width:0.1"
     d="m 476,273.7 c -5.1,1.9 -6.8,8.5 -3,12.3 6.1,6.1 15.9,-3.3 10.3,-9.8 -2,-2.3 -5,-3.3 -7.3,-2.5 z"
     id="path4680" />
  <path
     style="stroke-width:0.1"
     d="m 577.2,278.3 c -4.5,4.8 -1.6,12 4.8,12 4.1,0 7,-2.8 7,-6.9 0,-6.6 -7.4,-9.8 -11.8,-5.1 z"
     id="path4682" />
  <path
     style="stroke-width:0.1"
     d="m 530,281 c -4.2,4.2 -0.8,12 5.3,12 5.8,0 9.1,-8.5 4.9,-12.3 -2.5,-2.3 -7.8,-2.1 -10.2,0.3 z"
     id="path4684" />
  <path
     style="stroke-width:0.1"
     d="m 169.5,282.5 c -2.8,2.7 -3.1,4.5 -1.4,7.8 1.6,3 2.8,3.7 6.6,3.7 3.5,0 7.3,-3.7 7.3,-7.2 0,-2.7 -4.5,-6.8 -7.5,-6.8 -1.4,0 -3.7,1.1 -5,2.5 z"
     id="path4686" />
  <path
     style="stroke-width:0.1"
     d="m 1056.4,281 c -1.1,0.4 -3.7,2.7 -5.7,5.1 -10.7,12.5 -1.6,26.9 17,26.9 12,0 19.3,-4.1 19.3,-10.7 0,-10.7 -12.3,-22.3 -23.5,-22.2 -2.7,0 -5.9,0.4 -7.1,0.9 z m 14,7.3 c 5.3,3 9.7,8.7 9.9,12.8 0.2,3 -0.1,3.4 -4.3,4.6 -2.6,0.9 -6.8,1.2 -10.2,1 -12.9,-1.1 -17.5,-9.5 -9.6,-17.6 3.7,-3.8 8.5,-4.1 14.2,-0.8 z"
     id="path4688" />
  <path
     style="stroke-width:0.1"
     d="m 656.6,283.3 c -1.5,1.5 -2.6,3.8 -2.6,5.2 0,1.4 1.1,3.7 2.6,5.2 2,2 3.1,2.4 5.7,1.9 4.3,-0.9 6.1,-2.9 6.1,-7.1 0,-4.2 -1.8,-6.2 -6.1,-7.1 -2.6,-0.5 -3.7,-0.1 -5.7,1.9 z"
     id="path4690" />
  <path
     style="stroke-width:0.1"
     d="m 999.6,283.1 c -1.9,1.5 -2.6,3 -2.6,5.4 0,3.6 3.6,7.5 7,7.5 3.4,0 7,-3.9 7,-7.5 0,-3.6 -3.6,-7.5 -7,-7.5 -1,0 -2.9,0.9 -4.4,2.1 z"
     id="path4692" />
  <path
     style="stroke-width:0.1"
     d="m 299.5,290 c -4.1,4.5 -1,12 5,12 3.8,0 7.5,-3.5 7.5,-7.1 0,-5.8 -8.7,-9.1 -12.5,-4.9 z"
     id="path4694" />
  <path
     style="stroke-width:0.1"
     d="m 133.2,291.6 c -6.3,4.4 -3.7,13.4 3.9,13.4 2.8,0 6.9,-4.4 6.9,-7.3 0,-5.5 -6.5,-9.2 -10.8,-6.1 z"
     id="path4696" />
  <path
     style="stroke-width:0.1"
     d="m 90.3,299.2 c -1.2,0.6 -2.6,2.2 -3.1,3.7 -2.7,7.6 7.7,13.4 12.3,6.8 2.2,-3.1 1.8,-6.5 -1,-9.2 -2.6,-2.7 -4.7,-3 -8.2,-1.3 z"
     id="path4698" />
  <path
     style="stroke-width:0.1"
     d="m 702.1,300.2 c -5.4,1.9 -6.6,7.4 -2.6,11.3 2.8,2.9 6.5,3.2 9.3,0.7 3.2,-2.6 3.7,-6.3 1.3,-9.4 -2.4,-3 -4.8,-3.8 -8,-2.6 z"
     id="path4700" />
  <path
     style="stroke-width:0.1"
     d="m 48.1,307.6 c -1.2,1.5 -2.1,3.4 -2.1,4.4 0,3.3 3.9,7 7.4,7 6,0 9.3,-6.6 5.6,-11.3 -2.9,-3.7 -8,-3.7 -10.9,-0.1 z"
     id="path4702" />
  <path
     style="stroke-width:0.1"
     d="m 363.1,307.6 c -1.2,1.5 -2.1,3.4 -2.1,4.4 0,3.4 3.9,7 7.5,7 3.6,0 7.5,-3.6 7.5,-7 0,-3.4 -3.9,-7 -7.5,-7 -2.4,0 -3.9,0.7 -5.4,2.6 z"
     id="path4704" />
  <path
     style="stroke-width:0.1"
     d="m 8.6,313.1 c -3.6,2.8 -3.6,8 0,10.8 1.5,1.2 3.4,2.1 4.4,2.1 3.4,0 7,-3.9 7,-7.5 0,-3.6 -3.6,-7.5 -7,-7.5 -1,0 -2.9,0.9 -4.4,2.1 z"
     id="path4706" />
  <path
     style="stroke-width:0.1"
     d="m 639.9,312.9 c -2.8,2.3 -3.2,8.3 -0.6,10.8 2.1,2.1 8.2,2.2 10.2,0.2 0.8,-0.8 1.7,-2.9 2.1,-4.6 0.5,-2.6 0.1,-3.7 -1.9,-5.7 -3.1,-3.1 -6.6,-3.3 -9.8,-0.7 z"
     id="path4708" />
  <path
     style="stroke-width:0.1"
     d="m 743.7,315 c -3.5,2.8 -3.7,8 -0.5,11 2.9,2.7 6.4,2.5 9.3,-0.5 6.3,-6.3 -1.8,-16 -8.8,-10.5 z"
     id="path4710" />
  <path
     style="stroke-width:0.1"
     d="m 434,321 c -2.6,2.6 -2.6,8.1 0,10.5 1.1,1 3.4,1.8 5.2,1.7 6.5,-0.2 9.2,-8.2 4.2,-12.1 -3.4,-2.6 -6.8,-2.7 -9.4,-0.1 z"
     id="path4712" />
  <path
     style="stroke-width:0.1"
     d="m 596.1,324.6 c -2.7,3.5 -2.6,5.9 0.4,8.9 3.3,3.4 7.7,3.3 10.4,-0.1 1.2,-1.5 2.1,-3.4 2.1,-4.4 0,-3.4 -3.9,-7 -7.5,-7 -2.4,0 -3.9,0.7 -5.4,2.6 z"
     id="path4714" />
  <path
     style="stroke-width:0.1"
     d="m 500.5,326.5 c -1.4,1.3 -2.5,3.6 -2.5,5 0,3 4.1,7.5 6.8,7.5 3.5,0 7.2,-3.8 7.2,-7.3 0,-3.8 -0.7,-5 -3.7,-6.6 -3.3,-1.7 -5.1,-1.4 -7.8,1.4 z"
     id="path4716" />
  <path
     style="stroke-width:0.1"
     d="m 552.5,326.5 c -1.4,1.3 -2.5,3.6 -2.5,5 0,2.8 4,7.5 6.4,7.5 7.8,0 10.9,-10.7 4,-13.9 -3.7,-1.6 -5.2,-1.4 -7.9,1.4 z"
     id="path4718" />
  <path
     style="stroke-width:0.1"
     d="m 149.7,327.8 c -2.3,2.5 -2.1,7.8 0.3,10.2 6.1,6.1 15.4,-2.7 10.4,-9.8 -2,-2.8 -8.3,-3.1 -10.7,-0.4 z"
     id="path4720" />
  <path
     style="stroke-width:0.1"
     d="m 786.5,329.5 c -1.4,1.3 -2.5,3.6 -2.5,5 0,2.9 4,7.5 6.5,7.5 2,0 5.7,-1.9 6.7,-3.4 0.4,-0.6 0.8,-2.5 0.8,-4.1 0,-3.6 -0.8,-4.8 -3.7,-6.4 -3.3,-1.7 -5.1,-1.4 -7.8,1.4 z"
     id="path4722" />
  <path
     style="stroke-width:0.1"
     d="m 840,340 c -1.1,1.1 -2,3.3 -2,5 0,1.7 0.9,3.9 2,5 1.1,1.1 3.3,2 5,2 1.7,0 3.9,-0.9 5,-2 1.1,-1.1 2,-3.3 2,-5 0,-1.7 -0.9,-3.9 -2,-5 -1.1,-1.1 -3.3,-2 -5,-2 -1.7,0 -3.9,0.9 -5,2 z"
     id="path4724" />
  <path
     style="stroke-width:0.1"
     d="m 215.6,343.1 c -1.9,1.5 -2.6,3 -2.6,5.4 0,3.6 3.6,7.5 7,7.5 3.4,0 7,-3.9 7,-7.5 0,-3.6 -3.6,-7.5 -7,-7.5 -1,0 -2.9,0.9 -4.4,2.1 z"
     id="path4726" />
  <path
     style="stroke-width:0.1"
     d="m 725.5,343.5 c -3.9,3.9 -3.2,8.6 1.7,11.1 5.9,3 12.2,-2.7 9.9,-8.9 -1.9,-5.1 -7.7,-6.2 -11.6,-2.2 z"
     id="path4728" />
  <path
     style="stroke-width:0.1"
     d="m 887.2,347 c -4.9,2 -5.4,9.5 -0.7,12.6 7.3,4.8 14.7,-6.1 7.9,-11.5 -2.9,-2.3 -3.8,-2.4 -7.2,-1.1 z"
     id="path4730" />
  <path
     style="stroke-width:0.1"
     d="m 273,354.7 c -5.5,7 4.2,15.1 10.5,8.8 3,-2.9 3.2,-6.4 0.5,-9.3 -3,-3.2 -8.2,-3 -11,0.5 z"
     id="path4732" />
  <path
     style="stroke-width:0.1"
     d="m 686,354.2 c -2.7,2.9 -2.5,6.4 0.5,9.3 6.3,6.3 16,-1.8 10.5,-8.8 -2.8,-3.5 -8,-3.7 -11,-0.5 z"
     id="path4734" />
  <path
     style="stroke-width:0.1"
     d="m 931.5,356.5 c -4.3,4.2 -2.3,10.6 3.5,12 3.8,0.9 8,-2.7 8,-6.8 0,-3.8 -0.7,-5 -3.7,-6.6 -3.3,-1.7 -5.1,-1.4 -7.8,1.4 z"
     id="path4736" />
  <path
     style="stroke-width:0.1"
     d="m 42.3,359.9 c -4.8,2.2 -9.1,8 -10,13.4 -1.9,12.2 11.4,20.7 28.1,17.7 8.7,-1.5 12.6,-4.8 12.6,-10.5 0,-7.2 -7.3,-16.5 -16,-20.4 -5.6,-2.6 -9.3,-2.6 -14.7,-0.2 z m 13.6,6.7 c 3.8,1.9 6.2,4 8.2,7.2 5.5,8.6 3.6,10.7 -9.7,10.7 -10.2,0 -14,-1.6 -15.8,-6.7 -1.7,-4.8 5,-13.8 10.5,-13.8 0.8,0 3.9,1.2 6.8,2.6 z"
     id="path4738" />
  <path
     style="stroke-width:0.1"
     d="m 646.2,360.3 c -4.5,4.8 -1.6,12 4.8,12 6.5,0 9.5,-7.6 4.7,-12.1 -3,-2.8 -6.8,-2.8 -9.5,0.1 z"
     id="path4740" />
  <path
     style="stroke-width:0.1"
     d="m 335.7,361 c -3.5,2.8 -3.7,8 -0.5,11 6.3,5.8 15.6,-3.2 10.1,-9.8 -2.7,-3.2 -6.4,-3.7 -9.6,-1.2 z"
     id="path4742" />
  <path
     style="stroke-width:0.1"
     d="m 805.3,360.2 c -6.8,3.3 -4,13.8 3.7,13.8 2.8,0 7,-4.4 7,-7.3 0,-5.1 -6.1,-8.8 -10.7,-6.5 z"
     id="path4744" />
  <path
     style="stroke-width:0.1"
     d="m 972.7,362.8 c -4,4.5 -0.6,12.2 5.3,12.2 1.7,0 3.9,-0.9 5,-2 4.5,-4.5 1.1,-12 -5.3,-12 -2,0 -4.1,0.8 -5,1.8 z"
     id="path4746" />
  <path
     style="stroke-width:0.1"
     d="m 607.6,365.1 c -1.9,1.5 -2.6,3 -2.6,5.4 0,3.6 3.6,7.5 7,7.5 3.4,0 7,-3.9 7,-7.5 0,-3.6 -3.6,-7.5 -7,-7.5 -1,0 -2.9,0.9 -4.4,2.1 z"
     id="path4748" />
  <path
     style="stroke-width:0.1"
     d="m 396,368 c -4.5,4.5 -1.1,12 5.4,12 2.5,0 3.9,-0.7 5,-2.2 3.6,-5.1 0.5,-11.8 -5.4,-11.8 -1.7,0 -3.9,0.9 -5,2 z"
     id="path4750" />
  <path
     style="stroke-width:0.1"
     d="m 456,368 c -2.6,2.6 -2.6,8.1 -0.2,10.3 2.5,2.3 7.8,2.1 10.2,-0.3 4.3,-4.3 1.1,-12 -5,-12 -1.7,0 -3.9,0.9 -5,2 z"
     id="path4752" />
  <path
     style="stroke-width:0.1"
     d="m 757.3,368.6 c -4,2 -7.7,6.8 -9.3,12.1 -1.6,5.3 -0.1,10.2 4.5,14.2 4.2,3.6 9,5.1 17,5.1 16.7,0 23,-7.6 16.2,-19.3 -6.5,-11 -19.4,-16.5 -28.4,-12.1 z m 13.6,6.3 c 6.7,3.5 12.3,11.5 10.8,15.5 -1.2,3.1 -14.5,4.7 -20.4,2.5 -8.1,-3 -9.8,-10.1 -3.9,-16.3 3.9,-4.2 7.6,-4.7 13.5,-1.7 z"
     id="path4754" />
  <path
     style="stroke-width:0.1"
     d="m 1015.7,368.1 c -2.8,1.6 -4,5.8 -2.7,9 2.4,5.7 10.9,5.9 13,0.4 1.5,-3.9 1.2,-5.4 -1.5,-8 -2.5,-2.6 -5.8,-3.1 -8.8,-1.4 z"
     id="path4756" />
  <path
     style="stroke-width:0.1"
     d="m 567.3,369.5 c -4.9,2.1 -5.8,7.1 -1.8,11 4.5,4.6 11.8,1.9 11.8,-4.3 0,-5.8 -4.7,-8.9 -10,-6.7 z"
     id="path4758" />
  <path
     style="stroke-width:0.1"
     d="m 514.1,372.6 c -1.2,1.5 -2.1,3.4 -2.1,4.4 0,3.4 3.9,7 7.5,7 3.6,0 7.5,-3.6 7.5,-7 0,-3.4 -3.9,-7 -7.5,-7 -2.4,0 -3.9,0.7 -5.4,2.6 z"
     id="path4760" />
  <path
     style="stroke-width:0.1"
     d="m 1059.2,371.6 c -2.8,2 -3.1,8.3 -0.4,10.7 4.4,4 12.2,0.7 12.2,-5.1 0,-5.9 -6.7,-9.2 -11.8,-5.6 z"
     id="path4762" />
  <path
     style="stroke-width:0.1"
     d="m 1103,376 c -4.3,4.3 -1.1,12 5,12 3.8,0 7,-3.2 7,-7 0,-3.8 -3.2,-7 -7,-7 -1.7,0 -3.9,0.9 -5,2 z"
     id="path4764" />
  <path
     style="stroke-width:0.1"
     d="m 110.7,385.1 c -4.8,2.8 -4,10.7 1.3,12.9 2.3,0.9 3.4,0.9 5.8,-0.4 4.9,-2.5 5.6,-7.2 1.7,-11.1 -2.5,-2.6 -5.8,-3.1 -8.8,-1.4 z"
     id="path4766" />
  <path
     style="stroke-width:0.1"
     d="m 968.3,386 c -4.7,1.9 -5.6,7.8 -1.8,11.5 4.2,4.3 10.6,2.3 12.1,-3.7 0.5,-2.2 0,-3.3 -2.4,-5.8 -3.2,-3.1 -4.3,-3.4 -7.9,-2 z"
     id="path4768" />
  <path
     style="stroke-width:0.1"
     d="m 165.2,387.7 c -5.8,2.8 -10.8,12.1 -9.7,17.9 0.8,4.4 5,9.3 10,11.5 4.7,2.2 16.6,2.5 22.6,0.8 8.4,-2.6 10.6,-9.7 5.6,-18.2 -6.5,-11 -19.4,-16.5 -28.5,-12 z m 12.6,5.9 c 6.4,2.6 12.2,9.5 12.2,14.4 0,2.8 -5.4,5 -12.5,5 -13,0 -19.4,-7.7 -13.4,-16.1 3.5,-4.9 7.5,-5.9 13.7,-3.3 z"
     id="path4770" />
  <path
     style="stroke-width:0.1"
     d="m 660.3,394.5 c -6.1,2.6 -11.4,12.8 -9.9,18.9 0.9,3.7 5.6,8.7 10.1,10.7 4.6,2.1 15.7,2.5 21.9,0.8 10.9,-3 11.6,-13.9 1.6,-23.9 -7.3,-7.3 -16.2,-9.8 -23.7,-6.5 z m 15.8,7.9 c 4.8,3.2 9.2,9.6 8.7,12.8 -0.6,4.5 -13.8,6.4 -21.8,3.2 -7.9,-3.2 -8.7,-11.1 -1.7,-17 3.8,-3.2 8.8,-2.9 14.8,1 z"
     id="path4772" />
  <path
     style="stroke-width:0.1"
     d="m 715,398 c -4.3,4.3 -1.1,12 5,12 3.8,0 7,-3.2 7,-7 0,-3.8 -3.2,-7 -7,-7 -1.7,0 -3.9,0.9 -5,2 z"
     id="path4774" />
  <path
     style="stroke-width:0.1"
     d="m 911.3,399 c -4.8,1.9 -5.8,8.7 -1.7,11.9 3.5,2.7 6.5,2.7 9.2,-0.2 5.4,-5.7 -0.3,-14.5 -7.5,-11.7 z"
     id="path4776" />
  <path
     style="stroke-width:0.1"
     d="m 287.3,403.9 c -6.9,4.3 -10.3,15.3 -6.8,22.1 3.6,6.9 17.1,10.7 28.4,8 6.5,-1.5 9.9,-4.2 10.7,-8.4 1.2,-6.6 -6,-17.2 -14.8,-21.7 -5,-2.5 -13.3,-2.5 -17.5,0 z m 17.3,7.3 c 3.2,2.2 5.6,4.9 7.3,8.2 l 2.5,4.9 -2.2,1.7 c -2.6,2.2 -10.7,3.4 -16,2.5 -11.2,-1.9 -14.6,-10.3 -7.2,-17.6 4,-4.1 9.2,-4 15.6,0.3 z"
     id="path4778" />
  <path
     style="stroke-width:0.1"
     d="m 1068.6,404.1 c -1.9,1.5 -2.6,3 -2.6,5.4 0,3.6 3.6,7.5 7,7.5 1,0 2.9,-0.9 4.4,-2.1 3.4,-2.7 3.5,-7.1 0.1,-10.4 -3,-3 -5.4,-3.1 -8.9,-0.4 z"
     id="path4780" />
  <path
     style="stroke-width:0.1"
     d="m 232,407 c -2.6,2.6 -2.6,8.1 -0.2,10.3 2.8,2.5 8.7,2.2 10.6,-0.5 5.1,-7.3 -4.2,-16 -10.4,-9.8 z"
     id="path4782" />
  <path
     style="stroke-width:0.1"
     d="m 535,406.8 c -8.1,4.4 -12,15.2 -8.2,22.2 2.9,5.2 11.2,9.2 19.4,9.3 13.8,0.1 20.4,-4 19.6,-12.3 -1.3,-13.5 -20,-25.2 -30.8,-19.2 z m 13.7,6.3 c 7.8,3.8 13.5,13.2 10,16.6 -1.7,1.7 -12.7,2.9 -17.9,1.9 -1.8,-0.3 -4.6,-1.7 -6.2,-3 -3.8,-3 -4,-7.8 -0.7,-12.5 3.9,-5.4 8,-6.3 14.8,-3 z"
     id="path4784" />
  <path
     style="stroke-width:0.1"
     d="m 411.4,408.9 c -5.1,3.1 -8.6,8.5 -9.2,14.1 -0.6,6.7 2.1,11 9.4,14.6 4.9,2.4 6.3,2.6 13.7,2.2 15.7,-0.8 21.2,-7.1 15.7,-17.8 -6.1,-12 -20.8,-18.5 -29.6,-13.1 z m 16.6,7.5 c 4.2,2.8 9.4,10.5 8.8,13.3 -0.4,2.2 -6.6,4.1 -13.3,4.2 -5.9,0.1 -12.8,-2.8 -14.5,-5.9 -1.9,-3.5 -0.4,-8.5 3.7,-12 3.1,-2.8 4.2,-3.1 7.5,-2.7 2.2,0.3 5.7,1.7 7.8,3.1 z"
     id="path4786" />
  <path
     style="stroke-width:0.1"
     d="m 854.5,412.5 c -4,3.9 -2.9,9.7 2.2,11.6 3.6,1.3 7.8,-0.5 9.3,-4 3.1,-7.5 -5.8,-13.4 -11.5,-7.6 z"
     id="path4788" />
  <path
     style="stroke-width:0.1"
     d="m 604.1,415.6 c -1.2,1.5 -2.1,3.4 -2.1,4.4 0,1 0.9,2.9 2.1,4.4 4.1,5.2 12.2,2.3 12.2,-4.4 0,-6.7 -8.1,-9.6 -12.2,-4.4 z"
     id="path4790" />
  <path
     style="stroke-width:0.1"
     d="m 354.6,418.6 c -6.4,6.4 2.4,16.3 9.4,10.6 2.9,-2.3 3.1,-7.3 0.5,-10.2 -2.2,-2.4 -7.7,-2.7 -9.9,-0.4 z"
     id="path4792" />
  <path
     style="stroke-width:0.1"
     d="m 797,424 c -4.5,4.5 -1.1,12 5.3,12 4.2,0 6.7,-2.6 6.7,-6.8 0,-4.1 -3.1,-7.2 -7,-7.2 -1.7,0 -3.9,0.9 -5,2 z"
     id="path4794" />
  <path
     style="stroke-width:0.1"
     d="m 478.6,425.1 c -3.6,2.8 -3.6,8 0,10.8 1.5,1.2 3.4,2.1 4.4,2.1 3.4,0 7,-3.9 7,-7.5 0,-3.6 -3.6,-7.5 -7,-7.5 -1,0 -2.9,0.9 -4.4,2.1 z"
     id="path4796" />
  <path
     style="stroke-width:0.1"
     d="m 1009.2,428.3 c -2.8,3 -2.8,6.8 0.1,9.5 4.8,4.5 12,1.6 12,-4.8 0,-6.5 -7.6,-9.5 -12.1,-4.7 z"
     id="path4798" />
  <path
     style="stroke-width:0.1"
     d="m 735.7,435.8 c -4,4.4 -0.7,12.2 5.1,12.2 6,0 9.4,-7.8 5.2,-12 -2.6,-2.6 -8.1,-2.6 -10.3,-0.2 z"
     id="path4800" />
  <path
     style="stroke-width:0.1"
     d="m 948.4,437.4 c -8.3,3.7 -12.1,17.3 -6.9,25.2 2.7,4.1 9.8,6.8 15.9,5.9 9.3,-1.2 21.6,-9.3 23,-15.1 1.5,-5.6 -4.6,-12.8 -13.3,-15.9 -5.3,-1.8 -14.5,-1.9 -18.7,-0.1 z m 16.7,6.1 c 5.3,1.9 8.9,5.1 8.9,8 0,4.1 -11.8,10.8 -19,10.8 -8.2,0 -12.1,-6.4 -8.4,-14 3.1,-6.2 9.6,-7.9 18.5,-4.8 z"
     id="path4802" />
  <path
     style="stroke-width:0.1"
     d="m 1097.7,441.1 c -4.8,2.8 -4,10.7 1.3,12.9 5.8,2.4 12,-4.4 9,-9.9 -2,-3.8 -6.6,-5.1 -10.3,-3 z"
     id="path4804" />
  <path
     style="stroke-width:0.1"
     d="m 675,446.3 c -5.2,2.6 -4.9,10.4 0.4,12.8 3.6,1.7 7.3,0.3 9.2,-3.2 1.9,-3.8 0.6,-8 -3.2,-9.8 -3.1,-1.4 -3.3,-1.4 -6.4,0.2 z"
     id="path4806" />
  <path
     style="stroke-width:0.1"
     d="m 81.7,452.7 c -0.9,0.2 -2.4,1.8 -3.3,3.5 -1.9,3.7 -0.5,8 3.2,9.7 3.7,1.6 5.2,1.4 7.9,-1.4 5.8,-5.7 0.3,-13.9 -7.8,-11.8 z"
     id="path4808" />
  <path
     style="stroke-width:0.1"
     d="m 616.6,455.1 c -4.6,3.6 -2.6,11 3.4,12.4 3.8,0.9 8,-2.7 8,-6.8 0,-3.8 -0.7,-5 -3.7,-6.6 -3.1,-1.6 -4.7,-1.4 -7.7,1 z"
     id="path4810" />
  <path
     style="stroke-width:0.1"
     d="m 1059,459 c -2.6,2.6 -2.6,8.1 0,10.5 2.9,2.6 7.9,2.4 10.2,-0.4 2.7,-3.4 2.3,-7.5 -0.8,-10 -3.4,-2.6 -6.8,-2.7 -9.4,-0.1 z"
     id="path4812" />
  <path
     style="stroke-width:0.1"
     d="m 554.2,462.7 c -5.1,4.3 -2.4,12.3 4.1,12.3 3.8,0 5,-0.7 6.6,-3.7 1.7,-3.3 1.4,-5.1 -1.4,-7.8 -2.8,-2.9 -6.5,-3.2 -9.3,-0.8 z"
     id="path4814" />
  <path
     style="stroke-width:0.1"
     d="m 889.9,463.9 c -2.8,2.3 -3.2,8.3 -0.6,10.8 2.5,2.6 8.5,2.2 10.8,-0.6 2.6,-3.2 2.4,-6.7 -0.6,-9.6 -2.9,-3 -6.4,-3.2 -9.6,-0.6 z"
     id="path4816" />
  <path
     style="stroke-width:0.1"
     d="m 159.1,465.6 c -1.2,1.5 -2.1,3.4 -2.1,4.4 0,3.4 3.9,7 7.5,7 3.6,0 7.5,-3.6 7.5,-7 0,-3.4 -3.9,-7 -7.5,-7 -2.4,0 -3.9,0.7 -5.4,2.6 z"
     id="path4818" />
  <path
     style="stroke-width:0.1"
     d="m 228,467 c -1.1,1.1 -2,3.3 -2,5 0,1.7 0.9,3.9 2,5 1.1,1.1 3.3,2 5,2 1.7,0 3.9,-0.9 5,-2 1.1,-1.1 2,-3.3 2,-5 0,-1.7 -0.9,-3.9 -2,-5 -1.1,-1.1 -3.3,-2 -5,-2 -1.7,0 -3.9,0.9 -5,2 z"
     id="path4820" />
  <path
     style="stroke-width:0.1"
     d="m 484.1,467.6 c -1.2,1.5 -2.1,3.4 -2.1,4.4 0,3.4 3.9,7 7.5,7 3.6,0 7.5,-3.6 7.5,-7 0,-3.4 -3.9,-7 -7.5,-7 -2.4,0 -3.9,0.7 -5.4,2.6 z"
     id="path4822" />
  <path
     style="stroke-width:0.1"
     d="m 822.5,466.9 c -1.1,0.5 -3.3,2.1 -4.8,3.7 -10,10 -7,22.8 6.2,27.2 4.3,1.5 13.9,1.5 19.7,0.1 5.1,-1.3 9.4,-5.7 9.4,-9.7 0,-6.5 -8.8,-17.6 -16.5,-20.8 -3.7,-1.5 -10.8,-1.8 -14,-0.5 z m 10.9,6.1 c 6.8,2.6 15.1,13.5 12.5,16.6 -2.6,3.1 -13.7,4.4 -20,2.3 -7.6,-2.6 -10,-8.2 -6,-14.3 3.4,-5.1 8.1,-6.7 13.5,-4.6 z"
     id="path4824" />
  <path
     style="stroke-width:0.1"
     d="m 416,468.3 c -7.6,3.8 -2.8,15.4 5.5,13.3 2.9,-0.7 5.6,-5.6 4.8,-8.7 -1.1,-4.1 -6.5,-6.5 -10.3,-4.6 z"
     id="path4826" />
  <path
     style="stroke-width:0.1"
     d="m 290.1,471.6 c -1.2,1.5 -2.1,3.4 -2.1,4.4 0,3.4 3.9,7 7.5,7 3.6,0 7.5,-3.6 7.5,-7 0,-3.4 -3.9,-7 -7.5,-7 -2.4,0 -3.9,0.7 -5.4,2.6 z"
     id="path4828" />
  <path
     style="stroke-width:0.1"
     d="m 350.1,471.6 c -1.2,1.5 -2.1,3.4 -2.1,4.4 0,3.4 3.9,7 7.5,7 3.6,0 7.5,-3.6 7.5,-7 0,-3.4 -3.9,-7 -7.5,-7 -2.4,0 -3.9,0.7 -5.4,2.6 z"
     id="path4830" />
  <path
     style="stroke-width:0.1"
     d="m 1020,472.3 c -5.2,2.6 -4.9,10.4 0.5,12.9 5.8,2.6 11.9,-3.3 9.5,-9.1 -0.6,-1.6 -2.3,-3.3 -3.6,-4 -3.1,-1.4 -3.3,-1.4 -6.4,0.2 z"
     id="path4832" />
  <path
     style="stroke-width:0.1"
     d="m 981,485.3 c -5.2,2.6 -4.9,10.4 0.5,12.9 5.8,2.6 11.9,-3.3 9.5,-9.1 -0.6,-1.6 -2.3,-3.3 -3.6,-4 -3.1,-1.4 -3.3,-1.4 -6.4,0.2 z"
     id="path4834" />
  <path
     style="stroke-width:0.1"
     d="m 703,494.1 c -3.5,1.4 -6.9,4.8 -9.1,9.1 -6.2,12.1 3.3,23.2 19.6,23.2 8,0 15.7,-2.4 18,-5.7 4.8,-6.8 -3.1,-20.4 -14.9,-25.8 -4.5,-2 -9.7,-2.3 -13.6,-0.8 z m 11.5,6.8 c 6.2,2.9 12.5,10.5 12.5,15.2 0,1.8 -6.9,3.9 -13,3.9 -9.6,0 -16,-3.8 -16,-9.6 0,-2.8 4,-8.6 7,-10.1 3.3,-1.7 4.8,-1.6 9.5,0.6 z"
     id="path4836" />
  <path
     style="stroke-width:0.1"
     d="m 769.3,494 c -4.6,1.9 -5.7,8.3 -2,11.8 4.8,4.5 11.7,1.4 11.7,-5.1 0,-5.1 -5,-8.6 -9.7,-6.7 z"
     id="path4838" />
  <path
     style="stroke-width:0.1"
     d="m 939.6,498.1 c -5.2,4.1 -2.3,12.2 4.4,12.2 6.7,0 9.6,-8.1 4.4,-12.2 -1.5,-1.2 -3.4,-2.1 -4.4,-2.1 -1,0 -2.9,0.9 -4.4,2.1 z"
     id="path4840" />
  <path
     style="stroke-width:0.1"
     d="m 900,510 c -4.3,4.3 -1.1,12 5,12 3.8,0 7,-3.2 7,-7 0,-3.8 -3.2,-7 -7,-7 -1.7,0 -3.9,0.9 -5,2 z"
     id="path4842" />
  <path
     style="stroke-width:0.1"
     d="m 587.2,515.8 c -10.2,3 -15.8,17.7 -9.6,25.2 4.5,5.3 9.8,7.4 18.9,7.4 6.6,0.1 8.9,-0.4 13,-2.4 4.2,-2.1 5.2,-3.1 5.9,-6.2 0.8,-3.1 0.5,-4.5 -1.8,-9.2 -5.2,-10.7 -17.2,-17.4 -26.4,-14.8 z m 12.3,8.3 c 4.2,2.5 7.1,5.8 8.9,10 2,4.9 0.7,6.5 -6.7,7.8 -15.9,2.9 -26.1,-6.6 -17.7,-16.3 4.4,-4.9 9.1,-5.4 15.5,-1.5 z"
     id="path4844" />
  <path
     style="stroke-width:0.1"
     d="m 647.5,520.5 c -1.4,1.3 -2.5,3.6 -2.5,5 0,2.8 4,7.5 6.4,7.5 3,0 6.5,-2.3 7.6,-5 2,-4.9 -1.9,-9.9 -7.8,-10 -0.7,0 -2.4,1.1 -3.7,2.5 z"
     id="path4846" />
  <path
     style="stroke-width:0.1"
     d="m 860.3,520.5 c -4.9,2.1 -5.8,7.1 -1.8,11 4.5,4.6 11.8,1.9 11.8,-4.3 0,-5.8 -4.7,-8.9 -10,-6.7 z"
     id="path4848" />
  <path
     style="stroke-width:0.1"
     d="m 99.7,521.5 c -4.8,1.7 -7.4,4 -9.8,8.7 -2.5,4.9 -2.4,11.2 0.1,15.4 4.1,6.6 16.5,9.9 27.6,7.5 10.1,-2.3 13.4,-7.8 9.6,-16.3 -5,-11.3 -18.2,-18.7 -27.5,-15.3 z m 13.9,8.7 c 5.8,3.9 10.5,11.8 8.5,14.2 -1.7,2.1 -11.5,3.9 -16.5,3.2 -11.4,-1.7 -15.1,-10.2 -7.6,-17.7 4,-4.1 9.2,-4 15.6,0.3 z"
     id="path4850" />
  <path
     style="stroke-width:0.1"
     d="m 55.3,524.2 c -8.1,3.9 -2,16.7 6.2,13 5.5,-2.5 5.8,-10 0.5,-12.7 -3.3,-1.7 -3.7,-1.7 -6.7,-0.3 z"
     id="path4852" />
  <path
     style="stroke-width:0.1"
     d="m 457.3,530 c -8.8,4.5 -12.9,15.9 -8.1,23 8.6,13 38.8,11.1 38.8,-2.5 0,-4.8 -3,-10.3 -7.9,-14.8 -8.1,-7.3 -15.8,-9.2 -22.8,-5.7 z m 13.8,6.6 c 3.5,1.8 9.7,8.8 10.5,12 0.9,3.5 -1,5.1 -7.4,6.4 -9.4,1.7 -18.5,-1.4 -20.6,-7.2 -1.3,-3.6 2,-9.8 6.4,-12 3.5,-1.8 6.4,-1.6 11.1,0.8 z"
     id="path4854" />
  <path
     style="stroke-width:0.1"
     d="m 819,531 c -6.1,6.1 2.7,15.4 9.8,10.4 2.8,-2 3.1,-8.3 0.4,-10.7 -2.5,-2.3 -7.8,-2.1 -10.2,0.3 z"
     id="path4856" />
  <path
     style="stroke-width:0.1"
     d="m 525,532 c -2.6,2.6 -2.6,8.1 -0.2,10.3 2.8,2.5 8.7,2.2 10.6,-0.5 5.1,-7.3 -4.2,-16 -10.4,-9.8 z"
     id="path4858" />
  <path
     style="stroke-width:0.1"
     d="m 220.5,532.2 c -3.5,1.9 -6.6,5.2 -8.6,9 -6.1,11.8 3.3,22.8 19.5,22.8 13.1,0 19.6,-3.5 19.6,-10.6 0,-10.6 -12.6,-22.4 -24,-22.3 -2.5,0 -5.4,0.5 -6.5,1.1 z m 15,7.8 c 4.8,3 8.7,8.3 8.8,12.2 0.2,2.9 -0.2,3.4 -3.3,4.5 -5.3,1.8 -13.9,1.5 -18.7,-0.7 -7.5,-3.3 -8.1,-9.4 -1.7,-15.8 3.1,-3.1 3.9,-3.4 7.4,-2.9 2.2,0.3 5.5,1.5 7.5,2.7 z"
     id="path4860" />
  <path
     style="stroke-width:0.1"
     d="m 332,537.9 c -8.4,4.4 -12.5,16.3 -7.8,23 3.5,5.2 10.4,8.3 18.5,8.5 13,0.2 20.3,-3.8 20.3,-11.1 0,-9.7 -13.4,-22.2 -24,-22.3 -1.9,0 -5.1,0.8 -7,1.9 z m 13.9,6.7 c 3.8,1.9 6.2,4 8.2,7.2 3.3,5.2 3.6,7.4 1.4,9.2 -2.2,1.8 -15.4,2.5 -19.8,1.1 -4.2,-1.4 -7.7,-5.3 -7.7,-8.6 0,-4.6 6.5,-11.4 11.1,-11.5 0.8,0 3.9,1.2 6.8,2.6 z"
     id="path4862" />
  <path
     style="stroke-width:0.1"
     d="m 947.2,539.6 c -1.6,1.1 -2.2,2.5 -2.2,5.4 0,2.9 0.6,4.3 2.2,5.4 5.1,3.6 11.8,0.5 11.8,-5.4 0,-5.9 -6.7,-9 -11.8,-5.4 z"
     id="path4864" />
  <path
     style="stroke-width:0.1"
     d="m 163.2,541 c -4.8,4.5 -1.6,12.3 5,12.3 6.1,0 9.1,-7.8 4.5,-12.1 -2.9,-2.8 -6.7,-2.8 -9.5,-0.2 z"
     id="path4866" />
  <path
     style="stroke-width:0.1"
     d="m 401.5,541.5 c -4.6,4.6 -1.9,11.8 4.4,11.8 6.6,0 9.8,-7.6 5.1,-12.3 -2.7,-2.7 -6.6,-2.5 -9.5,0.5 z"
     id="path4868" />
  <path
     style="stroke-width:0.1"
     d="m 776.5,541.5 c -4.6,4.6 -1.9,11.8 4.4,11.8 6.6,0 9.8,-7.6 5.1,-12.3 -2.7,-2.7 -6.6,-2.5 -9.5,0.5 z"
     id="path4870" />
  <path
     style="stroke-width:0.1"
     d="m 740.6,546.1 c -1.9,1.5 -2.6,3 -2.6,5.4 0,3.7 3.7,7.5 7.2,7.5 2.7,0 6.8,-4.5 6.8,-7.5 0,-3 -4.1,-7.5 -6.8,-7.5 -1.1,0 -3.1,0.9 -4.6,2.1 z"
     id="path4872" />
  <path
     style="stroke-width:0.1"
     d="m 282.9,548.8 c -2.8,2.3 -3,7.3 -0.4,10.2 2.4,2.6 7.9,2.6 10.5,0 6.3,-6.3 -3.1,-15.8 -10.1,-10.2 z"
     id="path4874" />
  <path
     style="stroke-width:0.1"
     d="m 1011,549.7 c -7.6,2.7 -5.8,14.3 2.1,14.3 5.5,0 9.2,-8.7 5.2,-12.2 -2.2,-1.9 -5.3,-2.8 -7.3,-2.1 z"
     id="path4876" />
  <path
     style="stroke-width:0.1"
     d="m 1072,554 c -2.6,2.6 -2.6,8.1 0,10.5 2.9,2.6 7.9,2.4 10.2,-0.4 2.7,-3.4 2.3,-7.5 -0.8,-10 -3.4,-2.6 -6.8,-2.7 -9.4,-0.1 z"
     id="path4878" />
  <path
     style="stroke-width:0.1"
     d="m 701,554.3 c -5.2,2.6 -4.9,10.4 0.5,12.9 5.8,2.6 11.9,-3.3 9.5,-9.1 -0.6,-1.6 -2.3,-3.3 -3.6,-4 -3.1,-1.4 -3.3,-1.4 -6.4,0.2 z"
     id="path4880" />
  <path
     style="stroke-width:0.1"
     d="m 659.3,562.2 c -2.7,1.3 -4.3,5.5 -3.2,8.4 0.9,2.6 4.7,5.4 7.2,5.4 2.6,0 6.7,-4.5 6.7,-7.5 0,-3 -4.1,-7.5 -6.7,-7.4 -1,0 -2.8,0.5 -4,1.1 z"
     id="path4882" />
  <path
     style="stroke-width:0.1"
     d="m 792.9,563.4 c -3.7,1.8 -5.6,5.9 -4.1,9 2.5,5.6 10.1,5.9 13.1,0.5 3.1,-5.6 -3.3,-12.4 -9,-9.5 z"
     id="path4884" />
  <path
     style="stroke-width:0.1"
     d="m 30.6,567.1 c -5,3.9 -2.2,12.2 4.2,12.2 6.6,0 9.8,-7.8 5,-12.3 -2.8,-2.6 -5.8,-2.6 -9.2,0.1 z"
     id="path4886" />
  <path
     style="stroke-width:0.1"
     d="m 72.5,571 c -4.2,4.7 -0.8,12 5.5,12 3.3,0 7,-4 7,-7.6 0,-5.7 -8.6,-8.7 -12.5,-4.4 z"
     id="path4888" />
  <path
     style="stroke-width:0.1"
     d="m 617.5,571.5 c -4,3.9 -2.9,9.5 2.2,11.3 7.8,2.7 13.6,-7.6 7,-12.3 -3.1,-2.2 -6.5,-1.8 -9.2,1 z"
     id="path4890" />
  <path
     style="stroke-width:0.1"
     d="m 114.5,574.5 c -3.9,3.8 -3.2,8.6 1.6,11 7.6,4 14.6,-7.1 7.6,-12 -3.1,-2.2 -6.5,-1.8 -9.2,1 z"
     id="path4892" />
  <path
     style="stroke-width:0.1"
     d="m 574.1,575.6 c -2.4,3 -2.6,4.6 -1,7.7 1.6,3 2.8,3.7 6.6,3.7 4.1,0 7.7,-4.2 6.8,-8 -1.4,-6 -8.8,-8 -12.4,-3.4 z"
     id="path4894" />
  <path
     style="stroke-width:0.1"
     d="m 163.3,576.5 c -4.9,2.1 -5.9,7.7 -2,11.3 4.8,4.5 11.7,1.4 11.7,-5.1 0,-5.4 -4.6,-8.3 -9.7,-6.2 z"
     id="path4896" />
  <path
     style="stroke-width:0.1"
     d="m 534.6,580.1 c -5.2,4.1 -2.3,12.2 4.4,12.2 6.7,0 9.6,-8.1 4.4,-12.2 -1.5,-1.2 -3.4,-2.1 -4.4,-2.1 -1,0 -2.9,0.9 -4.4,2.1 z"
     id="path4898" />
  <path
     style="stroke-width:0.1"
     d="m 750.5,580.5 c -2.9,2.8 -3.2,6.5 -0.7,9.3 4.3,5.2 12.2,2.4 12.2,-4.4 0,-6.8 -6.8,-9.7 -11.5,-4.9 z"
     id="path4900" />
  <path
     style="stroke-width:0.1"
     d="m 875.5,580.5 c -2.9,2.8 -3.2,6.5 -0.7,9.3 4.3,5.2 12.2,2.4 12.2,-4.4 0,-6.8 -6.8,-9.7 -11.5,-4.9 z"
     id="path4902" />
  <path
     style="stroke-width:0.1"
     d="m 931.6,581 c -7.1,2.2 -13.5,12.5 -12.2,19.4 2.1,11.1 20.2,17 34.2,11.1 4.8,-2 6.3,-4.1 6.4,-8.8 0.1,-12.3 -16.9,-25.3 -28.4,-21.7 z m 13.1,8.6 c 4.5,3 9.3,9.6 9.3,13 0,2.9 -5.4,4.8 -13.6,4.8 -10.2,-0.1 -16.8,-5.6 -14.3,-12.1 3.1,-8.4 10.8,-10.7 18.6,-5.7 z"
     id="path4904" />
  <path
     style="stroke-width:0.1"
     d="m 215.5,583.2 c -5,2.7 -5.9,7.5 -2,11.3 2.9,3 6.4,3.2 9.6,0.7 5.9,-4.8 -0.9,-15.7 -7.6,-12 z"
     id="path4906" />
  <path
     style="stroke-width:0.1"
     d="m 495.3,584.2 c -6.8,3.3 -3.9,13.8 3.8,13.8 2.8,0 6.9,-4.4 6.9,-7.3 0,-5.1 -6.1,-8.8 -10.7,-6.5 z"
     id="path4908" />
  <path
     style="stroke-width:0.1"
     d="m 261.7,589.8 c -4,4.5 -0.6,12.2 5.3,12.2 1.7,0 3.9,-0.9 5,-2 4.5,-4.5 1.1,-12 -5.3,-12 -2,0 -4.1,0.8 -5,1.8 z"
     id="path4910" />
  <path
     style="stroke-width:0.1"
     d="m 453,591 c -2.7,2.7 -2.5,6.6 0.5,9.5 2.9,3 6.4,3.2 9.6,0.7 2.8,-2.3 3,-7.3 0.4,-10.2 -2.4,-2.6 -7.9,-2.6 -10.5,0 z"
     id="path4912" />
  <path
     style="stroke-width:0.1"
     d="m 314.6,593.1 c -3.6,2.8 -3.6,8 0,10.8 1.5,1.2 3.4,2.1 4.4,2.1 3.4,0 7,-3.9 7,-7.5 0,-3.6 -3.6,-7.5 -7,-7.5 -1,0 -2.9,0.9 -4.4,2.1 z"
     id="path4914" />
  <path
     style="stroke-width:0.1"
     d="m 410.5,593.5 c -5.8,5.7 0.1,14.6 7.6,11.5 3.5,-1.5 5.3,-5.7 4,-9.3 -1.9,-5.1 -7.7,-6.2 -11.6,-2.2 z"
     id="path4916" />
  <path
     style="stroke-width:0.1"
     d="m 1053.3,593 c -3.8,2.3 -8,8.3 -8.9,12.7 -1.4,6.9 4.4,15 12.3,17.2 4.9,1.4 14.7,1.4 19.7,0 8.9,-2.5 11.3,-10.3 5.7,-19.1 -6.9,-10.8 -20.4,-15.9 -28.8,-10.8 z m 14.6,5.9 c 6.7,3.5 12.3,11.5 10.8,15.5 -0.8,1.9 -6.9,3.6 -13.2,3.6 -5.8,0 -11,-2.3 -13.8,-6.1 -1.7,-2.3 -1.8,-3.1 -0.7,-6.3 1.5,-4.5 6.3,-8.6 10.1,-8.6 1.6,0 4.7,0.9 6.8,1.9 z"
     id="path4918" />
  <path
     style="stroke-width:0.1"
     d="m 361,595 c -2.6,2.6 -2.6,8.1 -0.2,10.3 4.4,4 12.2,0.7 12.2,-5.1 0,-6.2 -7.7,-9.5 -12,-5.2 z"
     id="path4920" />
  <path
     style="stroke-width:0.1"
     d="m 713.5,596 c -4.1,4.5 -1,12 5,12 3.8,0 7.5,-3.5 7.5,-7.1 0,-6 -8.5,-9.3 -12.5,-4.9 z"
     id="path4922" />
  <path
     style="stroke-width:0.1"
     d="m 998.7,599.8 c -2.3,2.5 -2.1,7.8 0.3,10.2 4.3,4.3 12,1.1 12,-5 0,-1.7 -0.9,-3.9 -2,-5 -2.6,-2.6 -8.1,-2.6 -10.3,-0.2 z"
     id="path4924" />
  <path
     style="stroke-width:0.1"
     d="m 675.3,609.5 c -7,4.9 0,16 7.6,12 4.8,-2.4 5.5,-7.2 1.6,-11 -2.7,-2.8 -6.1,-3.2 -9.2,-1 z"
     id="path4926" />
  <path
     style="stroke-width:0.1"
     d="m 814.6,623.1 c -5.2,4.1 -2.3,12.2 4.4,12.2 6.7,0 9.6,-8.1 4.4,-12.2 -1.5,-1.2 -3.4,-2.1 -4.4,-2.1 -1,0 -2.9,0.9 -4.4,2.1 z"
     id="path4928" />
  <path
     style="stroke-width:0.1"
     d="m 636,623.3 c -5.2,2.6 -4.9,10.4 0.4,12.8 8.1,3.7 13.8,-7.3 6.4,-12.5 -2.7,-1.9 -3.5,-2 -6.8,-0.3 z"
     id="path4930" />
  <path
     style="stroke-width:0.1"
     d="m 376.5,627.5 c -2.8,2.7 -3,4.2 -1.4,7.9 3.2,6.9 13.9,3.8 13.9,-4 0,-2.4 -4.7,-6.4 -7.5,-6.4 -1.4,0 -3.7,1.1 -5,2.5 z"
     id="path4932" />
  <path
     style="stroke-width:0.1"
     d="m 159,636 c -4.2,4.2 -1.2,12 4.8,12 4.6,0 7.2,-2.5 7.2,-7 0,-2.9 -0.6,-4.3 -2.2,-5.4 -3.1,-2.2 -7.4,-2 -9.8,0.4 z"
     id="path4934" />
  <path
     style="stroke-width:0.1"
     d="m 90.5,636.2 c -3.2,1.7 -7.6,6.1 -9.1,9 -0.8,1.5 -1.4,4.8 -1.4,7.4 0,4.2 0.5,5.1 4.3,8.9 8.3,8.3 26.1,10.1 33.3,3.4 6.7,-6.3 -1.3,-23.5 -13.3,-28.6 -3.9,-1.6 -11,-1.7 -13.8,-0.1 z m 15.4,8.6 c 4,3.2 8.1,9.6 8.1,12.8 0,3.5 -2.5,4.7 -9.8,4.7 -7.4,0 -12.7,-1.7 -16.1,-5.4 -3.3,-3.6 -2.7,-7.5 1.9,-12.1 3.7,-3.7 4.4,-4 8.1,-3.5 2.4,0.3 5.6,1.8 7.8,3.5 z"
     id="path4936" />
  <path
     style="stroke-width:0.1"
     d="m 597,636.3 c -1.3,0.7 -2.9,2.5 -3.4,3.9 -2.9,8.3 9.4,13.7 12.8,5.6 1.7,-3.9 1.1,-6.3 -2.2,-8.8 -2.9,-2.3 -3.8,-2.4 -7.2,-0.7 z"
     id="path4938" />
  <path
     style="stroke-width:0.1"
     d="m 877,635.7 c -5.3,1.9 -6.8,8.6 -2.8,12.3 6.3,5.8 15.7,-3.3 10.1,-9.8 -2,-2.3 -5,-3.3 -7.3,-2.5 z"
     id="path4940" />
  <path
     style="stroke-width:0.1"
     d="m 331.7,643.7 c -0.9,0.2 -2.4,1.8 -3.3,3.5 -1.9,3.7 -0.5,8 3.2,9.7 3.7,1.6 5.2,1.4 7.9,-1.4 5.8,-5.7 0.3,-13.9 -7.8,-11.8 z"
     id="path4942" />
  <path
     style="stroke-width:0.1"
     d="m 934.6,647.2 c -5,7.1 4.3,15.9 10.4,9.8 2.6,-2.6 2.6,-8.1 0.2,-10.3 -2.8,-2.5 -8.7,-2.2 -10.6,0.5 z"
     id="path4944" />
  <path
     style="stroke-width:0.1"
     d="m 555,648 c -2.6,2.6 -2.6,8.1 -0.2,10.3 2.5,2.3 7.8,2.1 10.2,-0.3 4.3,-4.3 1.1,-12 -5,-12 -1.7,0 -3.9,0.9 -5,2 z"
     id="path4946" />
  <path
     style="stroke-width:0.1"
     d="m 1002,648.7 c -5.3,1.9 -6.8,8.6 -2.8,12.3 6.3,5.8 15.7,-3.3 10.1,-9.8 -2,-2.3 -5,-3.3 -7.3,-2.5 z"
     id="path4948" />
  <path
     style="stroke-width:0.1"
     d="m 1062.8,649.6 c -5.1,2.7 -4.6,10.1 0.7,12.6 5.8,2.6 11.9,-3.3 9.5,-9.1 -0.6,-1.6 -2.3,-3.3 -3.6,-4 -3.1,-1.4 -3.3,-1.4 -6.6,0.5 z"
     id="path4950" />
  <path
     style="stroke-width:0.1"
     d="m 697.7,654 c -1.9,1.5 -2.7,3 -2.7,5.3 0,3.8 0.7,5 3.7,6.6 3.3,1.7 5.1,1.4 7.8,-1.4 6.3,-6.3 -1.8,-16 -8.8,-10.5 z"
     id="path4952" />
  <path
     style="stroke-width:0.1"
     d="m 36,660 c -6.3,6.3 3.1,15.8 10.1,10.2 2.8,-2.3 3,-7.3 0.4,-10.2 -2.4,-2.6 -7.9,-2.6 -10.5,0 z"
     id="path4954" />
  <path
     style="stroke-width:0.1"
     d="m 514.1,661.6 c -1.2,1.5 -2.1,3.4 -2.1,4.4 0,3.4 3.9,7 7.5,7 3.6,0 7.5,-3.6 7.5,-7 0,-3.4 -3.9,-7 -7.5,-7 -2.4,0 -3.9,0.7 -5.4,2.6 z"
     id="path4956" />
  <path
     style="stroke-width:0.1"
     d="m 279.2,662 c -5,4.7 -0.6,14 5.8,12.5 6,-1.4 8,-8.8 3.4,-12.4 -3.4,-2.7 -6.4,-2.7 -9.2,-0.1 z"
     id="path4958" />
  <path
     style="stroke-width:0.1"
     d="m 759.1,670.6 c -4.1,5.3 -1.3,11.4 5.2,11.4 4.2,0 7,-2.9 7,-7.2 0,-6.4 -8.3,-9.2 -12.2,-4.2 z"
     id="path4960" />
  <path
     style="stroke-width:0.1"
     d="m 475.6,671.3 c -1.5,1.5 -2.6,3.8 -2.6,5.2 0,1.4 1.1,3.7 2.6,5.2 2,2 3.1,2.4 5.7,1.9 4.3,-0.9 6.1,-2.9 6.1,-7.1 0,-4.2 -1.8,-6.2 -6.1,-7.1 -2.6,-0.5 -3.7,-0.1 -5.7,1.9 z"
     id="path4962" />
  <path
     style="stroke-width:0.1"
     d="m 222,674.7 c -5.3,1.9 -6.8,8.6 -2.8,12.3 6.3,5.9 15.7,-3.2 10.1,-9.8 -2,-2.3 -5,-3.3 -7.3,-2.5 z"
     id="path4964" />
  <path
     style="stroke-width:0.1"
     d="m 434.7,680 c -3.5,2.8 -3.7,8 -0.5,11 2.9,2.7 6.4,2.5 9.3,-0.5 6.3,-6.3 -1.8,-16 -8.8,-10.5 z"
     id="path4966" />
  <path
     style="stroke-width:0.1"
     d="m 819.5,684.5 c -1.4,1.3 -2.5,3.6 -2.5,5 0,2.9 4,7.5 6.5,7.5 2,0 5.7,-1.9 6.7,-3.4 1.8,-2.6 0.8,-7.5 -1.8,-9.5 -3.5,-2.7 -5.9,-2.6 -8.9,0.4 z"
     id="path4968" />
  <path
     style="stroke-width:0.1"
     d="m 395.9,688.2 c -3.8,1.3 -5.7,6.2 -3.8,9.7 3.2,5.7 11.1,4.9 13.2,-1.3 1.7,-5.1 -4,-10.3 -9.4,-8.4 z"
     id="path4970" />
  <path
     style="stroke-width:0.1"
     d="m 161.5,691 c -4.2,4.6 -1,12 5.1,12 3.5,0 7.4,-3.7 7.4,-7 0,-1 -0.9,-2.9 -2.1,-4.4 -2.6,-3.3 -7.7,-3.6 -10.4,-0.6 z"
     id="path4972" />
  <path
     style="stroke-width:0.1"
     d="m 881.3,692 c -4.8,1.9 -5.8,8.7 -1.7,11.9 3.4,2.7 6.4,2.7 9.2,0.1 5.7,-5.3 -0.3,-14.9 -7.5,-12 z"
     id="path4974" />
  <path
     style="stroke-width:0.1"
     d="m 564.4,696.1 c -3.2,1.6 -4.8,5.6 -3.4,8.9 1.1,2.7 4.6,5 7.6,5 2.3,0 6.4,-4.7 6.4,-7.3 0,-5.1 -6.1,-8.8 -10.6,-6.6 z"
     id="path4976" />
  <path
     style="stroke-width:0.1"
     d="m 944,699 c -6.1,6.1 2.7,15.4 9.8,10.4 2.8,-2 3.1,-8.3 0.4,-10.7 -2.5,-2.3 -7.8,-2.1 -10.2,0.3 z"
     id="path4978" />
  <path
     style="stroke-width:0.1"
     d="m 354.5,701.5 c -4,3.9 -2.9,9.7 2.2,11.6 6.2,2.3 11.9,-4 8.9,-9.9 -2.5,-4.9 -7.2,-5.6 -11.1,-1.7 z"
     id="path4980" />
  <path
     style="stroke-width:0.1"
     d="m 1004.6,701.1 c -3.4,2.7 -3.5,7.1 -0.1,10.4 3,3 5.4,3.1 8.9,0.4 1.9,-1.5 2.6,-3 2.6,-5.4 0,-3.6 -3.6,-7.5 -7,-7.5 -1,0 -2.9,0.9 -4.4,2.1 z"
     id="path4982" />
  <path
     style="stroke-width:0.1"
     d="m 1068.2,699.7 c -0.7,0.3 -1.9,1.8 -2.8,3.5 -1.3,2.4 -1.3,3.5 -0.4,5.8 3.1,7.4 14,5.1 14,-3 0,-4.5 -6.3,-8.1 -10.8,-6.3 z"
     id="path4984" />
  <path
     style="stroke-width:0.1"
     d="m 100.5,705.5 c -3.9,3.9 -3.2,8.6 1.7,11.1 5.9,3 12.2,-2.7 9.9,-8.9 -1.9,-5.1 -7.7,-6.2 -11.6,-2.2 z"
     id="path4986" />
  <path
     style="stroke-width:0.1"
     d="m 625,706.5 c -7,3.2 -11,9.4 -11,17.1 0,4.3 0.4,5.1 4.4,8.9 6.3,6.1 14.4,7.8 25.5,5.4 10.4,-2.2 13.3,-8 8.6,-17.4 -5.4,-11.2 -18.7,-17.9 -27.5,-14 z m 15.8,9.2 c 2,1.6 4.8,5 6.2,7.6 2.2,4.2 2.3,4.8 1,6.2 -2.5,2.5 -12.4,3.8 -18.1,2.5 -5.5,-1.3 -9.9,-5.2 -9.9,-8.7 0,-3.2 2.5,-7.8 5.2,-9.8 3.5,-2.5 11,-1.5 15.6,2.2 z"
     id="path4988" />
  <path
     style="stroke-width:0.1"
     d="m 314.2,709.3 c -4.5,4.8 -1.6,12 4.8,12 6.5,0 9.5,-7.6 4.7,-12.1 -3,-2.8 -6.8,-2.8 -9.5,0.1 z"
     id="path4990" />
  <path
     style="stroke-width:0.1"
     d="m 275,717 c -1.1,1.1 -2,3.3 -2,5 0,1.7 0.9,3.9 2,5 1.1,1.1 3.3,2 5,2 1.7,0 3.9,-0.9 5,-2 1.1,-1.1 2,-3.3 2,-5 0,-1.7 -0.9,-3.9 -2,-5 -1.1,-1.1 -3.3,-2 -5,-2 -1.7,0 -3.9,0.9 -5,2 z"
     id="path4992" />
  <path
     style="stroke-width:0.1"
     d="m 41,718.3 c -7.6,3.8 -2.8,15.4 5.5,13.3 2.9,-0.7 5.6,-5.6 4.8,-8.7 -1.1,-4.1 -6.5,-6.5 -10.3,-4.6 z"
     id="path4994" />
  <path
     style="stroke-width:0.1"
     d="m 235,722.3 c -5.5,2.8 -4.8,11 1.3,13.1 7.7,2.7 12.4,-8 5.5,-12.8 -2.7,-1.9 -3.5,-2 -6.8,-0.3 z"
     id="path4996" />
  <path
     style="stroke-width:0.1"
     d="m 742.5,727.5 c -7.3,4 -11,10.3 -10.2,17.9 0.4,4.1 1.1,5.5 4,8.2 7.3,6.7 20.7,8 30.7,3.1 3.4,-1.7 4.7,-3 5.4,-5.5 3.6,-12.8 -18.2,-30 -29.9,-23.7 z m 13.6,7.1 c 3.5,1.8 9.5,8.9 10.4,12.1 1,4.1 -1.3,5.5 -9.9,6.1 -9,0.6 -11.5,0 -15.5,-3.4 -3.8,-3.1 -4,-6.7 -0.8,-11.5 4,-5.9 8.8,-6.9 15.8,-3.3 z"
     id="path4998" />
  <path
     style="stroke-width:0.1"
     d="m 687,732 c -4.3,4.3 -1.1,12 5,12 3.8,0 7,-3.2 7,-7 0,-3.8 -3.2,-7 -7,-7 -1.7,0 -3.9,0.9 -5,2 z"
     id="path5000" />
  <path
     style="stroke-width:0.1"
     d="m 193,734 c -1.1,1.1 -2,3.3 -2,5 0,1.7 0.9,3.9 2,5 1.1,1.1 3.3,2 5,2 1.7,0 3.9,-0.9 5,-2 1.1,-1.1 2,-3.3 2,-5 0,-1.7 -0.9,-3.9 -2,-5 -1.1,-1.1 -3.3,-2 -5,-2 -1.7,0 -3.9,0.9 -5,2 z"
     id="path5002" />
  <path
     style="stroke-width:0.1"
     d="m 406.5,739.5 c -2.8,2.7 -3.1,4.5 -1.4,7.8 1.6,3 2.8,3.7 6.6,3.7 3.5,0 7.3,-3.7 7.3,-7.2 0,-2.7 -4.5,-6.8 -7.5,-6.8 -1.4,0 -3.7,1.1 -5,2.5 z"
     id="path5004" />
  <path
     style="stroke-width:0.1"
     d="m 150.6,740.1 c -1.9,1.5 -2.6,3 -2.6,5.4 0,3.6 3.6,7.5 7,7.5 3.4,0 7,-3.9 7,-7.5 0,-3.6 -3.6,-7.5 -7,-7.5 -1,0 -2.9,0.9 -4.4,2.1 z"
     id="path5006" />
  <path
     style="stroke-width:0.1"
     d="m 869.5,743.6 c -0.5,0.1 -2.2,0.5 -3.7,0.8 -4.1,0.9 -9.5,6.1 -11.4,11.1 -4.2,11.1 3.7,20.2 18.7,21.3 8,0.5 17.1,-1.8 19.4,-5 2.1,-3.1 1.9,-9.1 -0.4,-13.7 -1.9,-3.7 -8.1,-10 -11.9,-12 -2.3,-1.2 -9.3,-2.9 -10.7,-2.5 z m 6.8,7.7 c 6.2,2.6 12.9,12.1 11.4,16.1 -0.8,2 -10.6,4 -15.9,3.2 -9.3,-1.4 -14,-6.8 -11.4,-13 2.8,-6.7 9,-9.1 15.9,-6.3 z"
     id="path5008" />
  <path
     style="stroke-width:0.1"
     d="m 114.3,748 c -4.8,2 -5.8,8.7 -1.7,11.9 3.4,2.7 6.4,2.7 9.2,0.1 3.2,-3 3,-8.2 -0.4,-10.9 -2.9,-2.3 -3.8,-2.4 -7.1,-1.1 z"
     id="path5010" />
  <path
     style="stroke-width:0.1"
     d="m 994.6,748 c -7,2.1 -13.5,12.5 -12.2,19.4 2,10.5 16.8,16.3 31,12.2 7.3,-2.2 9.6,-4.4 9.6,-9.6 0,-8.5 -8.7,-18.6 -18.3,-21.5 -5.6,-1.7 -6,-1.7 -10.1,-0.5 z m 11.3,7.4 c 3.7,2 9.9,8.9 10.7,12.1 1,4 -0.1,5.3 -6.2,6.5 -9.1,1.9 -17.6,-0.3 -21,-5.5 -2.1,-3.2 -1.3,-6.4 2.7,-11 2.6,-2.9 3.8,-3.5 7.1,-3.5 2.1,0 5.1,0.6 6.7,1.4 z"
     id="path5012" />
  <path
     style="stroke-width:0.1"
     d="m 812,749.3 c -1.4,0.7 -3.1,2.5 -3.8,4 -2.7,5.6 3.5,11.5 9.3,8.9 5.5,-2.5 5.8,-10 0.5,-12.7 -3.5,-1.8 -2.9,-1.8 -6,-0.2 z"
     id="path5014" />
  <path
     style="stroke-width:0.1"
     d="m 70.1,755.6 c -1.2,1.5 -2.1,3.5 -2.1,4.6 0,2.7 4.5,6.8 7.5,6.8 3,0 7.5,-4.1 7.5,-6.8 0,-3.5 -3.8,-7.2 -7.5,-7.2 -2.4,0 -3.9,0.7 -5.4,2.6 z"
     id="path5016" />
  <path
     style="stroke-width:0.1"
     d="m 444.2,756.3 c -4.5,4.8 -1.4,11.7 5.1,11.7 4.3,0 6.7,-2.6 6.7,-7.3 0,-6.3 -7.4,-9.1 -11.8,-4.4 z"
     id="path5018" />
  <path
     style="stroke-width:0.1"
     d="m 934,756 c -2.6,2.6 -2.6,8.1 -0.2,10.3 4.4,4 12.2,0.7 12.2,-5.1 0,-6 -7.8,-9.4 -12,-5.2 z"
     id="path5020" />
  <path
     style="stroke-width:0.1"
     d="m 1057.5,761.5 c -2.8,2.7 -3,4.2 -1.4,7.9 1.6,3.4 5.8,5.1 9.1,3.5 2.6,-1.1 4.8,-4.6 4.8,-7.5 0,-2.4 -4.7,-6.4 -7.5,-6.4 -1.4,0 -3.7,1.1 -5,2.5 z"
     id="path5022" />
  <path
     style="stroke-width:0.1"
     d="m 29.3,761.2 c -5.1,2.4 -5,10.6 0.1,12.9 8.3,3.8 14.7,-8.4 6.6,-12.6 -3.3,-1.7 -3.7,-1.7 -6.7,-0.3 z"
     id="path5024" />
  <path
     style="stroke-width:0.1"
     d="m 483.1,769.6 c -4.1,5.3 -1.3,11.4 5.2,11.4 4.2,0 7,-2.9 7,-7.2 0,-6.4 -8.3,-9.2 -12.2,-4.2 z"
     id="path5026" />
  <path
     style="stroke-width:0.1"
     d="m 151,777 c -6.1,6.1 2.7,15.4 9.8,10.4 2.8,-2 3.1,-8.3 0.4,-10.7 -2.5,-2.3 -7.8,-2.1 -10.2,0.3 z"
     id="path5028" />
  <path
     style="stroke-width:0.1"
     d="m 525.3,778.2 c -6.8,3.3 -3.9,13.8 3.8,13.8 2.8,0 6.9,-4.4 6.9,-7.3 0,-5.1 -6.1,-8.8 -10.7,-6.5 z"
     id="path5030" />
  <path
     style="stroke-width:0.1"
     d="m 562.5,790 c -4.1,4.5 -1,12 5,12 3.8,0 7.5,-3.5 7.5,-7.1 0,-5.8 -8.7,-9.1 -12.5,-4.9 z"
     id="path5032" />
  <path
     style="stroke-width:0.1"
     d="m 59.9,791.3 c -6.2,4.2 -10,12.2 -8.5,18.2 1,4.1 6.3,9.2 11.3,10.9 9.1,3.1 24.5,1.1 27.8,-3.7 C 93,813.2 92.4,807 89.1,801.8 82,790.6 68.3,785.6 59.9,791.3 Z m 14.4,5.3 c 6.3,3.2 11.7,9.8 11.7,14.3 0,3.1 -3.8,4.5 -12.5,4.6 -8.7,0 -12,-1.3 -15.1,-6 -2.1,-3.2 -0.5,-8.4 3.7,-12 3.5,-2.9 7.6,-3.2 12.2,-0.9 z"
     id="path5034" />
  <path
     style="stroke-width:0.1"
     d="m 466.5,791.5 c -3.9,3.8 -3.2,8.6 1.6,11 7.6,4 14.6,-7.1 7.6,-12 -3.1,-2.2 -6.5,-1.8 -9.2,1 z"
     id="path5036" />
  <path
     style="stroke-width:0.1"
     d="m 292,795 c -2.6,2.6 -2.6,8.1 -0.2,10.3 4.4,4 12.2,0.7 12.2,-5.1 0,-6 -7.8,-9.4 -12,-5.2 z"
     id="path5038" />
  <path
     style="stroke-width:0.1"
     d="m 412.7,797.8 c -4,4.4 -0.7,12.2 5.1,12.2 5.9,0 9.2,-6.7 5.6,-11.8 -2,-2.8 -8.3,-3.1 -10.7,-0.4 z"
     id="path5040" />
  <path
     style="stroke-width:0.1"
     d="m 602.6,798.2 c -5,7.1 4.3,15.9 10.4,9.8 2.6,-2.6 2.6,-8.1 0.2,-10.3 -2.8,-2.5 -8.7,-2.2 -10.6,0.5 z"
     id="path5042" />
  <path
     style="stroke-width:0.1"
     d="m 225.1,799.6 c -1.2,1.5 -2.1,3.4 -2.1,4.4 0,3.4 3.9,7 7.5,7 3.6,0 7.5,-3.6 7.5,-7 0,-3.4 -3.9,-7 -7.5,-7 -2.4,0 -3.9,0.7 -5.4,2.6 z"
     id="path5044" />
  <path
     style="stroke-width:0.1"
     d="m 354.1,799.6 c -2.7,3.4 -2.7,6.4 -0.1,9.2 4.7,5 14,0.6 12.5,-5.8 -1.4,-6 -8.8,-8 -12.4,-3.4 z"
     id="path5046" />
  <path
     style="stroke-width:0.1"
     d="m 643.5,804.5 c -3.9,3.9 -3.2,8.6 1.7,11.1 5.9,3 12.2,-2.7 9.9,-8.9 -1.9,-5.1 -7.7,-6.2 -11.6,-2.2 z"
     id="path5048" />
  <path
     style="stroke-width:0.1"
     d="m 685.2,808.3 c -4.5,4.8 -1.7,11.7 4.7,11.7 4.6,0 7.1,-2.4 7.1,-6.8 0,-6.5 -7.4,-9.6 -11.8,-4.9 z"
     id="path5050" />
  <path
     style="stroke-width:0.1"
     d="m 727.1,811.8 c -2.8,2.2 -3.1,7.5 -0.6,10.2 2.4,2.6 7.9,2.6 10.5,0 6.2,-6.2 -3.1,-15.8 -9.9,-10.2 z"
     id="path5052" />
  <path
     style="stroke-width:0.1"
     d="m 768.5,813.5 c -4,3.9 -2.9,9.7 2.2,11.6 5.8,2.2 11.6,-3.6 9.4,-9.4 -1.9,-5.1 -7.7,-6.2 -11.6,-2.2 z"
     id="path5054" />
  <path
     style="stroke-width:0.1"
     d="m 809,817 c -2.6,2.6 -2.6,8.1 0,10.5 2.9,2.6 7.9,2.4 10.2,-0.4 2.5,-3.2 2.3,-6.7 -0.7,-9.6 -2.9,-3 -6.8,-3.2 -9.5,-0.5 z"
     id="path5056" />
  <path
     style="stroke-width:0.1"
     d="m 852.7,816.2 c -4.1,3.2 -3.8,9.4 0.6,12.3 4.6,3 10.7,-0.6 10.7,-6.3 0,-5.1 -7.3,-9 -11.3,-6 z"
     id="path5058" />
  <path
     style="stroke-width:0.1"
     d="m 892.6,817.1 c -5,3.9 -2.2,12.2 4.2,12.2 6.6,0 9.8,-7.8 5,-12.3 -2.8,-2.6 -5.8,-2.6 -9.2,0.1 z"
     id="path5060" />
  <path
     style="stroke-width:0.1"
     d="m 934,817 c -2.6,2.6 -2.6,8.1 0,10.5 2.9,2.6 7.9,2.4 10.2,-0.4 2.5,-3.2 2.3,-6.7 -0.7,-9.6 -2.9,-3 -6.8,-3.2 -9.5,-0.5 z"
     id="path5062" />
  <path
     style="stroke-width:0.1"
     d="m 978.6,817.1 c -5,3.9 -2.2,12.2 4.2,12.2 6.6,0 9.8,-7.8 5,-12.3 -2.8,-2.6 -5.8,-2.6 -9.2,0.1 z"
     id="path5064" />
  <path
     style="stroke-width:0.1"
     d="m 1020.7,818.2 c -3.7,3.3 -4,7.5 -0.7,10.8 2.7,2.7 6.6,2.5 9.5,-0.5 2.9,-2.8 3.2,-6.5 0.8,-9.3 -2.8,-3.3 -6.6,-3.7 -9.6,-1 z"
     id="path5066" />
  <path
     style="stroke-width:0.1"
     d="m 1062.3,817 c -4.8,1.9 -5.8,8.7 -1.7,11.9 3.4,2.7 6.4,2.7 9.2,0.1 5.7,-5.3 -0.3,-14.9 -7.5,-12 z"
     id="path5068" />
  <path
     style="stroke-width:0.1"
     d="m 139.1,820.6 c -1.2,1.5 -2.1,3.4 -2.1,4.4 0,3.4 3.9,7 7.5,7 3.6,0 7.5,-3.6 7.5,-7 0,-3.4 -3.9,-7 -7.5,-7 -2.4,0 -3.9,0.7 -5.4,2.6 z"
     id="path5070" />
  <path
     style="stroke-width:0.1"
     d="m 1103,820 c -4.3,4.3 -1.1,12 5,12 3.8,0 7,-3.2 7,-7 0,-3.8 -3.2,-7 -7,-7 -1.7,0 -3.9,0.9 -5,2 z"
     id="path5072" />
  <path
     style="stroke-width:0.1"
     d="m 195.6,824 c -6.1,1.9 -12.6,10.8 -12.6,17.3 0,10.7 15.3,18.2 29.9,14.7 7.4,-1.8 11.1,-5.1 11.1,-10.1 0,-8.4 -8.7,-18.6 -18.3,-21.4 -5.6,-1.7 -6,-1.7 -10.1,-0.5 z m 11.2,7.4 c 1.5,0.8 4.1,2.9 5.8,4.8 9,9.6 6.6,14.1 -7.5,14.2 -7.4,0.1 -12.5,-2.1 -15,-6.6 -1.8,-3.1 -0.4,-7.2 3.6,-11.3 3,-2.9 8.7,-3.4 13.1,-1.1 z"
     id="path5074" />
  <path
     style="stroke-width:0.1"
     d="m 616.6,830.1 c -5,3.9 -2.2,12.2 4.2,12.2 6.6,0 9.8,-7.8 5,-12.3 -2.8,-2.6 -5.8,-2.6 -9.2,0.1 z"
     id="path5076" />
  <path
     style="stroke-width:0.1"
     d="m 533.1,835.7 c -3.6,1.8 -8.6,8.7 -9.6,13.4 -1.5,6.6 4.4,14.7 12.2,16.8 9,2.5 22.5,0.7 26.4,-3.6 6.2,-6.5 -1.1,-20.8 -13.5,-26.4 -5.1,-2.3 -11.1,-2.4 -15.5,-0.2 z m 13.8,6.2 c 6.7,3.5 12.3,11.5 10.8,15.5 -1.2,3.1 -14.5,4.7 -20.4,2.5 -8.1,-3 -9.8,-10.1 -3.9,-16.3 3.9,-4.2 7.6,-4.7 13.5,-1.7 z"
     id="path5078" />
  <path
     style="stroke-width:0.1"
     d="m 577.6,839.1 c -1.9,1.5 -2.6,3 -2.6,5.4 0,3.6 3.6,7.5 7,7.5 3.4,0 7,-3.9 7,-7.5 0,-3.6 -3.6,-7.5 -7,-7.5 -1,0 -2.9,0.9 -4.4,2.1 z"
     id="path5080" />
  <path
     style="stroke-width:0.1"
     d="m 316.9,843.3 c -6.3,4.2 -10,12.2 -8.4,18.4 0.9,3.9 7.4,9.9 12,11.2 2.2,0.6 6.7,1.1 10,1.1 16.1,0 22.1,-6.9 16.4,-18.6 -5.6,-11.6 -21.3,-18 -30,-12.1 z m 15.6,6 c 5.2,2.9 10.7,10.2 10.3,13.6 -0.2,2 -1.2,2.9 -3.8,3.8 -5.6,1.9 -13.8,1.6 -18.6,-0.7 -7.6,-3.7 -8.1,-10.7 -1.2,-16.5 3.7,-3.1 8,-3.2 13.3,-0.2 z"
     id="path5082" />
  <path
     style="stroke-width:0.1"
     d="m 1016.5,842.2 c -3.6,1.9 -6.7,5.2 -8.7,9.2 -4.1,8 -0.6,16.4 8.7,20.7 8,3.7 25.5,1.7 29,-3.4 1.9,-2.7 1.9,-7.8 0.1,-12.1 -1.9,-4.6 -8.8,-11.3 -13.9,-13.7 -4.7,-2.1 -12.1,-2.4 -15.2,-0.7 z m 14.7,7.7 c 5.5,3.5 9,8.2 9.2,12.4 0.1,2.8 -0.3,3.3 -3.4,4.4 -5.3,1.8 -13.9,1.5 -18.6,-0.6 -7.5,-3.4 -8.1,-10.8 -1.2,-16.6 3.9,-3.3 8.3,-3.2 14,0.4 z"
     id="path5084" />
  <path
     style="stroke-width:0.1"
     d="m 262,846 c -4.3,4.3 -1.1,12 5,12 3.8,0 7,-3.2 7,-7 0,-3.8 -3.2,-7 -7,-7 -1.7,0 -3.9,0.9 -5,2 z"
     id="path5086" />
  <path
     style="stroke-width:0.1"
     d="m 430.5,845.4 c -6.6,2.9 -12.4,12.6 -11.1,18.8 2,9.8 15.1,15.7 28.9,12.8 7.8,-1.6 11.7,-5 11.7,-10 0,-2.1 -0.4,-5 -1,-6.4 -1.6,-4.3 -9.2,-11.8 -14.5,-14.2 -5.6,-2.7 -9.6,-2.9 -14,-1 z m 14,8.1 c 4.9,2.8 8.5,7.5 9.2,11.9 0.5,3.2 0.3,3.4 -3.3,4.6 -9.6,3.2 -21.5,0.5 -24.3,-5.4 -1.3,-2.7 -1.2,-3.4 1,-7.4 3.9,-7.4 9.1,-8.4 17.4,-3.7 z"
     id="path5088" />
  <path
     style="stroke-width:0.1"
     d="m 490,851 c -2.6,2.6 -2.6,8.1 -0.2,10.3 4.4,4 12.2,0.7 12.2,-5.1 0,-6 -7.8,-9.4 -12,-5.2 z"
     id="path5090" />
  <path
     style="stroke-width:0.1"
     d="m 745,851 c -2.4,2.4 -2.6,6.7 -0.4,9.8 1.1,1.6 2.5,2.2 5.4,2.2 2.9,0 4.3,-0.6 5.4,-2.2 3.6,-5.1 0.5,-11.8 -5.4,-11.8 -1.7,0 -3.9,0.9 -5,2 z"
     id="path5092" />
  <path
     style="stroke-width:0.1"
     d="m 383.2,854.7 c -0.7,0.3 -1.9,1.8 -2.7,3.3 -4,7.7 7.1,14.7 12,7.7 4.2,-6 -2.4,-13.8 -9.3,-11 z"
     id="path5094" />
  <path
     style="stroke-width:0.1"
     d="m 870,859 c -4.3,4.3 -1.1,12 5,12 3.8,0 7,-3.2 7,-7 0,-3.8 -3.2,-7 -7,-7 -1.7,0 -3.9,0.9 -5,2 z"
     id="path5096" />
  <path
     style="stroke-width:0.1"
     d="m 703.5,864.5 c -4.8,4.7 -1.9,11.5 4.8,11.5 4.2,0 7,-2.9 7,-7.2 0,-6.2 -7.3,-8.9 -11.8,-4.3 z"
     id="path5098" />
  <path
     style="stroke-width:0.1"
     d="m 54.7,866.8 c -4,4.4 -0.7,12.2 5.1,12.2 6,0 9.4,-7.8 5.2,-12 -2.6,-2.6 -8.1,-2.6 -10.3,-0.2 z"
     id="path5100" />
  <path
     style="stroke-width:0.1"
     d="m 965,876 c -4.3,4.3 -1.1,12 5,12 3.8,0 7,-3.2 7,-7 0,-3.8 -3.2,-7 -7,-7 -1.7,0 -3.9,0.9 -5,2 z"
     id="path5102" />
  <path
     style="stroke-width:0.1"
     d="m 656.5,877.5 c -2.8,2.7 -3.1,4.5 -1.4,7.8 1.6,3 2.8,3.7 6.6,3.7 3.5,0 7.3,-3.7 7.3,-7.2 0,-2.7 -4.5,-6.8 -7.5,-6.8 -1.4,0 -3.7,1.1 -5,2.5 z"
     id="path5104" />
  <path
     style="stroke-width:0.1"
     d="m 114.7,879.8 c -2.5,2.8 -2.2,8.7 0.5,10.6 7.1,5 15.9,-4.3 9.8,-10.4 -2.6,-2.6 -8.1,-2.6 -10.3,-0.2 z"
     id="path5106" />
  <path
     style="stroke-width:0.1"
     d="m 814,881 c -2.4,2.4 -2.6,6.7 -0.4,9.8 2.1,3.1 8.7,3.1 10.8,0 3.6,-5.1 0.5,-11.8 -5.4,-11.8 -1.7,0 -3.9,0.9 -5,2 z"
     id="path5108" />
</svg>
