<?xml version="1.0" encoding="UTF-8" standalone="no"?>
<svg
   xmlns:dc="http://purl.org/dc/elements/1.1/"
   xmlns:cc="http://creativecommons.org/ns#"
   xmlns:rdf="http://www.w3.org/1999/02/22-rdf-syntax-ns#"
   xmlns:svg="http://www.w3.org/2000/svg"
   xmlns="http://www.w3.org/2000/svg"
   xmlns:sodipodi="http://sodipodi.sourceforge.net/DTD/sodipodi-0.dtd"
   xmlns:inkscape="http://www.inkscape.org/namespaces/inkscape"
   inkscape:version="1.0 (4035a4fb49, 2020-05-01)"
   sodipodi:docname="USGS_602_colour_nobox.svg"
   id="svg3484"
   preserveAspectRatio="xMidYMid meet"
   viewBox="0 0 1125.000000 900.000000"
   height="900.000000pt"
   width="1125.000000pt"
   version="1.0">
  <defs
     id="defs3488" />
  <sodipodi:namedview
     inkscape:current-layer="svg3484"
     inkscape:window-maximized="1"
     inkscape:window-y="-8"
     inkscape:window-x="1912"
     inkscape:cy="600"
     inkscape:cx="750"
     inkscape:zoom="0.68916667"
     showgrid="false"
     id="namedview3486"
     inkscape:window-height="1017"
     inkscape:window-width="1920"
     inkscape:pageshadow="2"
     inkscape:pageopacity="0"
     guidetolerance="10"
     gridtolerance="10"
     objecttolerance="10"
     borderopacity="1"
     bordercolor="#666666"
     pagecolor="#ffffff" />
  <metadata
     id="metadata2728">
Created by potrace 1.13, written by Peter Selinger 2001-2015
<rdf:RDF>
  <cc:Work
     rdf:about="">
    <dc:format>image/svg+xml</dc:format>
    <dc:type
       rdf:resource="http://purl.org/dc/dcmitype/StillImage" />
    <dc:title></dc:title>
  </cc:Work>
</rdf:RDF>
</metadata>
  <path
     style="stroke-width:0.1"
     d="m 780.9,7.8 c -20.9,10.9 -12,44.2 11.2,42 20.9,-2 25.7,-32.7 6.6,-42.3 -6.6,-3.2 -11.2,-3.2 -17.8,0.3 z m 14.7,5.1 c 14.1,6.4 10.7,29.1 -4.7,30.8 -5.8,0.6 -10.5,-2.5 -13.8,-9 -4.1,-8.3 -0.9,-18.1 7.2,-21.7 5.2,-2.4 6.2,-2.4 11.3,-0.1 z"
     id="path2732" />
  <path
     style="stroke-width:0.1"
     d="m 1067.5,8.5 c -3.9,3.9 -3.2,8.6 1.7,11.1 5.9,3 12.2,-2.7 9.9,-8.9 -1.9,-5.1 -7.7,-6.2 -11.6,-2.2 z"
     id="path2734" />
  <path
     style="stroke-width:0.1"
     d="M 57.7,11.8 C 55.4,14.3 55.6,19.6 58,22 64.1,28.1 73.4,19.3 68.4,12.2 66.4,9.4 60.1,9.1 57.7,11.8 Z"
     id="path2736" />
  <path
     style="stroke-width:0.1"
     d="m 914.6,11.5 c -5.9,6 1,15.5 8.3,11.4 6.3,-3.6 4.2,-12.1 -3.1,-12.7 -2.3,-0.2 -4.1,0.3 -5.2,1.3 z"
     id="path2738" />
  <path
     style="stroke-width:0.1"
     d="m 969.3,12.2 c -2.8,1.4 -4.3,5.5 -3.1,8.9 0.9,2.6 4.4,4.9 7.4,4.9 2.4,0 6.4,-4.7 6.4,-7.5 0,-3 -4.1,-7.5 -6.7,-7.4 -1,0 -2.8,0.5 -4,1.1 z"
     id="path2740" />
  <path
     style="stroke-width:0.1"
     d="m 317.5,19.9 c -9.6,2.5 -15.5,9 -15.5,17.1 0,10.2 8.9,17.1 22,17.2 10.5,0 17.7,-4.1 21.2,-11.8 3.4,-7.8 -0.3,-15.9 -9.5,-20.6 -4.4,-2.2 -13.4,-3.2 -18.2,-1.9 z m 16,7.8 c 6.9,3.5 8.7,10.8 3.8,15.5 -3.7,3.5 -7.3,4.8 -13.4,4.8 -12.2,0 -19.7,-8.9 -13.8,-16.4 4.9,-6.3 15.1,-8 23.4,-3.9 z"
     id="path2742" />
  <path
     style="stroke-width:0.1"
     d="m 255.1,24.6 c -1.2,1.5 -2.1,3.5 -2.1,4.6 0,2.7 4.5,6.8 7.5,6.8 3,0 7.5,-4.1 7.5,-6.8 0,-3.5 -3.8,-7.2 -7.5,-7.2 -2.4,0 -3.9,0.7 -5.4,2.6 z"
     id="path2744" />
  <path
     style="stroke-width:0.1"
     d="m 451.3,24.2 c -2.8,1.4 -4.3,5.5 -3.1,8.9 0.9,2.6 4.4,4.9 7.4,4.9 2.4,0 6.4,-4.7 6.4,-7.5 0,-3 -4.1,-7.5 -6.7,-7.4 -1,0 -2.8,0.5 -4,1.1 z"
     id="path2746" />
  <path
     style="stroke-width:0.1"
     d="m 598.3,24 c -4.7,1.9 -5.6,7.8 -1.8,11.5 4.7,4.8 11.9,1.9 11.9,-4.9 0,-2 -0.7,-4.3 -1.4,-5 -2,-2 -6,-2.7 -8.7,-1.6 z"
     id="path2748" />
  <path
     style="stroke-width:0.1"
     d="m 159.5,27.5 c -4.1,4 -2.9,9.5 2.4,11.3 5.7,2 10.9,-3.2 8.9,-8.9 -1.8,-5.3 -7.3,-6.5 -11.3,-2.4 z"
     id="path2750" />
  <path
     style="stroke-width:0.1"
     d="m 675.1,36.6 c -1.2,1.5 -2.1,3.5 -2.1,4.6 0,2.7 4.5,6.8 7.5,6.8 3,0 7.5,-4.1 7.5,-6.8 0,-3.5 -3.8,-7.2 -7.5,-7.2 -2.4,0 -3.9,0.7 -5.4,2.6 z"
     id="path2752" />
  <path
     style="stroke-width:0.1"
     d="m 854,36 c -2.6,2.6 -2.5,6 0.1,9.4 2.5,3.1 6.6,3.5 10,0.8 2.8,-2.3 3,-7.3 0.4,-10.2 -2.4,-2.6 -7.9,-2.6 -10.5,0 z"
     id="path2754" />
  <path
     style="stroke-width:0.1"
     d="m 1029,36.7 c -1.5,1.9 -1.9,3.5 -1.5,5.3 1.4,6.2 9,7.9 12.8,2.8 5.4,-7.3 -5.6,-15.3 -11.3,-8.1 z"
     id="path2756" />
  <path
     style="stroke-width:0.1"
     d="m 107.9,38.8 c -6.3,5.2 0.8,15.5 8,11.7 4.8,-2.4 5.5,-7.2 1.6,-11 -2.9,-3 -6.4,-3.2 -9.6,-0.7 z"
     id="path2758" />
  <path
     style="stroke-width:0.1"
     d="m 203.5,40.9 c -20.2,9.3 -15.8,36.3 6.5,39.6 8.8,1.2 19.1,-3.9 23,-11.5 2.2,-4.3 2.6,-12.2 0.9,-16.7 -1.5,-4 -6.7,-9.2 -11.4,-11.4 -5.2,-2.4 -13.8,-2.4 -19,0 z m 17.1,6.2 c 14.6,7 9,26.9 -7.4,26.9 -9.5,0 -15.3,-4.8 -15.9,-13.2 -0.5,-6.7 2,-11.1 8,-13.8 5.5,-2.5 10,-2.5 15.3,0.1 z"
     id="path2760" />
  <path
     style="stroke-width:0.1"
     d="m 396.1,41.6 c -1.2,1.5 -2.1,3.4 -2.1,4.4 0,3.4 3.9,7 7.5,7 3.6,0 7.5,-3.6 7.5,-7 0,-3.4 -3.9,-7 -7.5,-7 -2.4,0 -3.9,0.7 -5.4,2.6 z"
     id="path2762" />
  <path
     style="stroke-width:0.1"
     d="m 22.3,41 c -4.6,1.9 -5.7,8.3 -2,11.8 4.7,4.4 11.7,1.3 11.7,-5.2 0,-5 -5,-8.4 -9.7,-6.6 z"
     id="path2764" />
  <path
     style="stroke-width:0.1"
     d="m 727,48.3 c -5.2,2.6 -4.9,10.4 0.5,12.9 5.8,2.6 11.9,-3.3 9.5,-9.1 -0.6,-1.6 -2.3,-3.3 -3.6,-4 -3.1,-1.4 -3.3,-1.4 -6.4,0.2 z"
     id="path2766" />
  <path
     style="stroke-width:0.1"
     d="m 514.6,57.1 c -3.1,2.4 -3.6,7.7 -0.8,10.2 5,4.5 12.2,1.7 12.2,-4.8 0,-3.6 -3.6,-7.5 -7,-7.5 -1,0 -2.9,0.9 -4.4,2.1 z"
     id="path2768" />
  <path
     style="stroke-width:0.1"
     d="m 950.5,58.5 c -3,3 -3.1,5.4 -0.4,8.9 1.5,1.9 3,2.6 5.4,2.6 3.7,0 7.5,-3.7 7.5,-7.2 0,-2.7 -4.5,-6.8 -7.5,-6.8 -1.4,0 -3.7,1.1 -5,2.5 z"
     id="path2770" />
  <path
     style="stroke-width:0.1"
     d="m 899,60.3 c -1.3,0.7 -2.9,2.5 -3.4,3.9 -2.9,8.3 9.4,13.7 12.8,5.6 1.7,-3.9 1.1,-6.3 -2.2,-8.8 -2.9,-2.3 -3.8,-2.4 -7.2,-0.7 z"
     id="path2772" />
  <path
     style="stroke-width:0.1"
     d="m 992.7,61 c -3.5,2.8 -3.7,8 -0.5,11 2.9,2.7 6.4,2.5 9.3,-0.5 6.3,-6.3 -1.8,-16 -8.8,-10.5 z"
     id="path2774" />
  <path
     style="stroke-width:0.1"
     d="m 622,67 c -2.6,2.6 -2.5,6 0.1,9.4 3.9,5 11.9,2.3 12.1,-4.2 0.1,-1.8 -0.7,-4.1 -1.7,-5.2 -2.4,-2.6 -7.9,-2.6 -10.5,0 z"
     id="path2776" />
  <path
     style="stroke-width:0.1"
     d="m 569,68.7 c -5.5,7 4.2,15.1 10.5,8.8 3,-2.9 3.2,-6.4 0.5,-9.3 -3,-3.2 -8.2,-3 -11,0.5 z"
     id="path2778" />
  <path
     style="stroke-width:0.1"
     d="m 669.8,68 c -10,1.8 -17.8,10.6 -17.8,20.1 0,6.1 1.3,9.6 5.3,13.8 12,12.6 34.2,7.8 38.7,-8.4 C 700.1,79 685.8,65.1 669.8,68 Z m 13.2,8.2 c 5.2,3.6 7.2,6.9 7.2,12.2 0,11.5 -13.1,18.2 -24.2,12.3 -10.5,-5.5 -10.5,-19.2 0,-24.8 5,-2.7 12.8,-2.5 17,0.3 z"
     id="path2780" />
  <path
     style="stroke-width:0.1"
     d="m 269.2,70.3 c -4.5,4.8 -1.4,11.7 5.1,11.7 4.3,0 7,-2.9 6.9,-7.2 -0.2,-6.3 -7.7,-9.1 -12,-4.5 z"
     id="path2782" />
  <path
     style="stroke-width:0.1"
     d="M 54.1,72.6 C 52.9,74.1 52,76 52,77 c 0,3.4 3.9,7 7.5,7 3.6,0 7.5,-3.6 7.5,-7 0,-3.4 -3.9,-7 -7.5,-7 -2.4,0 -3.9,0.7 -5.4,2.6 z"
     id="path2784" />
  <path
     style="stroke-width:0.1"
     d="m 1069,72 c -4.3,4.3 -1.1,12 5,12 1.7,0 3.9,-0.9 5,-2 2.6,-2.6 2.6,-8.1 0.2,-10.3 -2.5,-2.3 -7.8,-2.1 -10.2,0.3 z"
     id="path2786" />
  <path
     style="stroke-width:0.1"
     d="m 165.8,72.6 c -5.1,2.7 -4.6,10.1 0.7,12.6 5.8,2.6 11.9,-3.3 9.5,-9.1 -0.6,-1.6 -2.3,-3.3 -3.6,-4 -3.1,-1.4 -3.3,-1.4 -6.6,0.5 z"
     id="path2788" />
  <path
     style="stroke-width:0.1"
     d="m 467.3,72 c -4.8,2 -5.8,8.7 -1.7,11.9 3.4,2.7 6.4,2.7 9.2,0.1 3.2,-3 3,-8.2 -0.4,-10.9 -2.9,-2.3 -3.8,-2.4 -7.1,-1.1 z"
     id="path2790" />
  <path
     style="stroke-width:0.1"
     d="m 823.5,75.5 c -4.3,4.2 -2.3,10.6 3.7,12.1 2.2,0.5 3.4,0 5.9,-2.5 2.5,-2.5 3,-3.7 2.5,-5.9 -1.5,-6 -7.9,-8 -12.1,-3.7 z"
     id="path2792" />
  <path
     style="stroke-width:0.1"
     d="m 111,77 c -4.5,4.5 -1.1,12 5.3,12 4.2,0 6.7,-2.6 6.7,-6.8 0,-4.1 -3.1,-7.2 -7,-7.2 -1.7,0 -3.9,0.9 -5,2 z"
     id="path2794" />
  <path
     style="stroke-width:0.1"
     d="m 358,79.7 c -5.5,7 4.2,15.1 10.5,8.8 3,-2.9 3.2,-6.4 0.5,-9.3 -3,-3.2 -8.2,-3 -11,0.5 z"
     id="path2796" />
  <path
     style="stroke-width:0.1"
     d="m 770,84 c -1.1,1.1 -2,3.3 -2,5 0,1.7 0.9,3.9 2,5 1.1,1.1 3.3,2 5,2 1.7,0 3.9,-0.9 5,-2 1.1,-1.1 2,-3.3 2,-5 0,-1.7 -0.9,-3.9 -2,-5 -1.1,-1.1 -3.3,-2 -5,-2 -1.7,0 -3.9,0.9 -5,2 z"
     id="path2798" />
  <path
     style="stroke-width:0.1"
     d="m 929.5,88.8 c -17.3,8.3 -16.2,32.8 1.8,38.8 C 949,133.5 965,114.3 956,98 950.7,88.5 938.8,84.4 929.5,88.8 Z m 16.1,6.7 c 8.9,5.8 8.4,20.3 -0.8,25.1 -9.3,4.8 -20.1,-0.8 -21.5,-11.3 -1.5,-11.5 12.5,-20.3 22.3,-13.8 z"
     id="path2800" />
  <path
     style="stroke-width:0.1"
     d="m 1030.2,88.7 c -5.2,4.4 -2.4,12.3 4.3,12.3 3.6,0 7.5,-3.6 7.5,-7 0,-1 -0.9,-2.9 -2.1,-4.4 -2.4,-3.1 -6.7,-3.5 -9.7,-0.9 z"
     id="path2802" />
  <path
     style="stroke-width:0.1"
     d="m 416.6,91.2 c -3.6,5.1 -0.5,11.8 5.4,11.8 4,0 7,-3.1 7,-7.3 0,-4.3 -2.6,-6.7 -7.3,-6.7 -2.6,0 -4,0.6 -5.1,2.2 z"
     id="path2804" />
  <path
     style="stroke-width:0.1"
     d="m 75.6,93.4 c -4.3,1.6 -9.1,5.8 -11.2,9.8 -2,3.8 -1.8,12.6 0.4,16.8 2.4,4.5 9.9,9.6 15.4,10.4 8.5,1.3 18.2,-3.4 21.9,-10.7 4.4,-8.6 1.1,-19.3 -7.6,-24.7 C 90,92.2 80.9,91.4 75.6,93.4 Z M 88.2,99 c 5.1,1.5 9.8,7 9.8,11.8 0,7.8 -6,13.2 -14.7,13.2 -12.1,0 -18.6,-12 -11.2,-20.5 4.3,-4.9 9.4,-6.3 16.1,-4.5 z"
     id="path2806" />
  <path
     style="stroke-width:0.1"
     d="m 192,101 c -2.6,2.6 -2.6,8.1 -0.2,10.3 4.4,4 12.2,0.7 12.2,-5.1 0,-6 -7.8,-9.4 -12,-5.2 z"
     id="path2808" />
  <path
     style="stroke-width:0.1"
     d="m 871.5,101.5 c -3,3 -3.1,5.4 -0.4,8.9 1.5,1.9 3,2.6 5.4,2.6 3.7,0 7.5,-3.7 7.5,-7.2 0,-2.7 -4.5,-6.8 -7.5,-6.8 -1.4,0 -3.7,1.1 -5,2.5 z"
     id="path2810" />
  <path
     style="stroke-width:0.1"
     d="m 305.5,106.5 c -3.9,3.8 -3.2,8.6 1.6,11 7.6,4 14.6,-7.1 7.6,-12 -3.1,-2.2 -6.5,-1.8 -9.2,1 z"
     id="path2812" />
  <path
     style="stroke-width:0.1"
     d="m 725.5,106.5 c -4.1,4 -3,9.2 2.5,11.5 2.5,1 3.4,1 5.5,-0.4 5,-3.3 5.5,-9.1 1.2,-12.1 -3.1,-2.2 -6.5,-1.8 -9.2,1 z"
     id="path2814" />
  <path
     style="stroke-width:0.1"
     d="m 588,108 c -2.8,2.8 -2.7,8.4 0.2,10.4 5.1,3.6 11.8,0.5 11.8,-5.4 0,-1.7 -0.9,-3.9 -2,-5 -1.1,-1.1 -3.3,-2 -5,-2 -1.7,0 -3.9,0.9 -5,2 z"
     id="path2816" />
  <path
     style="stroke-width:0.1"
     d="m 981.1,108.6 c -1.2,1.5 -2.1,3.4 -2.1,4.4 0,3.4 3.9,7 7.5,7 3.6,0 7.5,-3.6 7.5,-7 0,-3.4 -3.9,-7 -7.5,-7 -2.4,0 -3.9,0.7 -5.4,2.6 z"
     id="path2818" />
  <path
     style="stroke-width:0.1"
     d="m 529,107.7 c -5.3,1.9 -6.8,8.6 -2.8,12.3 4.6,4.3 11.8,1 11.8,-5.4 0,-4.6 -4.9,-8.4 -9,-6.9 z"
     id="path2820" />
  <path
     style="stroke-width:0.1"
     d="m 128.2,110 c -5.2,2.1 -4.8,10.7 0.7,13 7.5,3.1 13.4,-5.8 7.6,-11.5 -2.5,-2.6 -4.5,-3 -8.3,-1.5 z"
     id="path2822" />
  <path
     style="stroke-width:0.1"
     d="m 245.5,111.5 c -1.4,1.3 -2.5,3.6 -2.5,5 0,3 4.1,7.5 6.8,7.5 3.5,0 7.2,-3.8 7.2,-7.5 0,-2.4 -0.7,-3.9 -2.6,-5.4 -3.5,-2.7 -5.9,-2.6 -8.9,0.4 z"
     id="path2824" />
  <path
     style="stroke-width:0.1"
     d="m 1060.1,115.6 c -1.2,1.5 -2.1,3.4 -2.1,4.4 0,3.4 3.9,7 7.5,7 3.6,0 7.5,-3.6 7.5,-7 0,-3.4 -3.9,-7 -7.5,-7 -2.4,0 -3.9,0.7 -5.4,2.6 z"
     id="path2826" />
  <path
     style="stroke-width:0.1"
     d="m 465.2,125.3 c -4.5,4.8 -1.4,11.7 5.1,11.7 4.2,0 6.7,-2.6 6.7,-6.8 0,-6.5 -7.4,-9.6 -11.8,-4.9 z"
     id="path2828" />
  <path
     style="stroke-width:0.1"
     d="m 828.5,125.5 c -3,3 -3.1,5.4 -0.4,8.9 2,2.6 6.9,3.6 9.5,1.8 1.5,-1 3.4,-4.7 3.4,-6.7 0,-2.5 -4.6,-6.5 -7.5,-6.5 -1.4,0 -3.7,1.1 -5,2.5 z"
     id="path2830" />
  <path
     style="stroke-width:0.1"
     d="m 27.2,126.6 c -2.9,2 -3,7.6 -0.2,10.4 4.3,4.3 12,1.1 12,-5 0,-5.9 -6.7,-9 -11.8,-5.4 z"
     id="path2832" />
  <path
     style="stroke-width:0.1"
     d="m 372.1,127.6 c -1.2,1.5 -2.1,3.4 -2.1,4.4 0,3.1 3.9,7 7,7 6.2,0 9.7,-6.6 6,-11.3 -2.9,-3.7 -8,-3.7 -10.9,-0.1 z"
     id="path2834" />
  <path
     style="stroke-width:0.1"
     d="m 645.2,131.7 c -5.2,4.4 -2.4,12.3 4.3,12.3 3.6,0 7.5,-3.6 7.5,-7 0,-1 -0.9,-2.9 -2.1,-4.4 -2.4,-3.1 -6.7,-3.5 -9.7,-0.9 z"
     id="path2836" />
  <path
     style="stroke-width:0.1"
     d="m 1020.6,134.2 c -3.6,5.1 -0.5,11.8 5.4,11.8 5.9,0 9,-6.7 5.4,-11.8 -1.1,-1.6 -2.5,-2.2 -5.4,-2.2 -2.9,0 -4.3,0.6 -5.4,2.2 z"
     id="path2838" />
  <path
     style="stroke-width:0.1"
     d="m 1093,134 c -4.2,4.2 -0.8,12 5.3,12 5.8,0 9.1,-8.5 4.9,-12.3 -2.5,-2.3 -7.8,-2.1 -10.2,0.3 z"
     id="path2840" />
  <path
     style="stroke-width:0.1"
     d="m 775.2,134 c -4.5,1.9 -5.1,9.6 -0.9,12.5 3.2,2.2 6.5,1.8 9.4,-1.1 2,-2 2.4,-3.1 1.9,-5.7 -0.4,-1.7 -1.2,-3.7 -1.9,-4.4 -1.8,-1.7 -5.9,-2.4 -8.5,-1.3 z"
     id="path2842" />
  <path
     style="stroke-width:0.1"
     d="m 434.1,144.3 c -4.8,1.8 -11.1,7.4 -12.7,11.3 -2,4.8 -1.8,12.8 0.5,17.2 9.2,18 36.9,15.2 42.2,-4.2 2.2,-8.2 -2.9,-18.4 -11.4,-22.7 -4.9,-2.6 -14,-3.3 -18.6,-1.6 z m 12.4,5.8 c 2.2,0.6 5.6,2.8 7.7,4.9 3.3,3.3 3.8,4.4 3.8,8.4 0,9.2 -6.1,15 -15.5,15 -13.9,0 -21.6,-14.5 -12.6,-23.8 4.9,-5 9.9,-6.3 16.6,-4.5 z"
     id="path2844" />
  <path
     style="stroke-width:0.1"
     d="m 160.6,146.2 c -3.6,5.1 -0.5,11.8 5.4,11.8 5.9,0 9,-6.7 5.4,-11.8 -1.1,-1.6 -2.5,-2.2 -5.4,-2.2 -2.9,0 -4.3,0.6 -5.4,2.2 z"
     id="path2846" />
  <path
     style="stroke-width:0.1"
     d="m 871.2,146.6 c -6.2,4.3 -3.2,13.4 4.4,13.4 2.4,0 6.4,-4.7 6.4,-7.5 0,-3 -4.1,-7.5 -6.7,-7.5 -1,0 -2.9,0.7 -4.1,1.6 z"
     id="path2848" />
  <path
     style="stroke-width:0.1"
     d="m 211,149 c -2.6,2.6 -2.6,8.1 0,10.5 2.9,2.6 7.9,2.4 10.2,-0.4 2.7,-3.4 2.3,-7.5 -0.8,-10 -3.4,-2.6 -6.8,-2.7 -9.4,-0.1 z"
     id="path2850" />
  <path
     style="stroke-width:0.1"
     d="m 497.2,150.6 c -1.6,1.1 -2.2,2.5 -2.2,5.4 0,2.9 0.6,4.3 2.2,5.4 3.2,2.3 7.4,2 9.8,-0.6 5.9,-6.4 -2.5,-15.3 -9.8,-10.2 z"
     id="path2852" />
  <path
     style="stroke-width:0.1"
     d="m 271,151.3 c -7.6,3.8 -2.8,15.4 5.5,13.3 2.9,-0.7 5.6,-5.6 4.8,-8.7 -1.1,-4.1 -6.5,-6.5 -10.3,-4.6 z"
     id="path2854" />
  <path
     style="stroke-width:0.1"
     d="m 976,150.7 c -5.1,1.9 -6.8,8.5 -3,12.3 6.1,6.1 15.9,-3.2 10.3,-9.8 -2,-2.3 -5,-3.3 -7.3,-2.5 z"
     id="path2856" />
  <path
     style="stroke-width:0.1"
     d="m 78.3,153.2 c -1.2,0.6 -2.6,2.2 -3.1,3.7 -2.7,7.6 7.7,13.4 12.3,6.8 2.2,-3.1 1.8,-6.5 -1,-9.2 -2.6,-2.7 -4.7,-3 -8.2,-1.3 z"
     id="path2858" />
  <path
     style="stroke-width:0.1"
     d="m 598.5,154.5 c -1.4,1.3 -2.5,3.6 -2.5,5 0,3 4.1,7.5 6.8,7.5 3.5,0 7.2,-3.8 7.2,-7.3 0,-3.8 -0.7,-5 -3.7,-6.6 -3.3,-1.7 -5.1,-1.4 -7.8,1.4 z"
     id="path2860" />
  <path
     style="stroke-width:0.1"
     d="m 1058.8,154.4 c -18.9,5.1 -22,28.9 -4.9,37.8 7.2,3.8 14.6,3.8 21.9,0.2 17.9,-8.9 14,-34.1 -5.9,-38.3 -5.9,-1.3 -5.1,-1.3 -11.1,0.3 z m 14.2,7.4 c 10.7,5.4 10.6,20.3 -0.3,25.2 -11.2,5.1 -23.7,-1.5 -23.7,-12.5 0,-4.9 2.9,-9.8 7.2,-12.5 4.2,-2.5 12,-2.6 16.8,-0.2 z"
     id="path2862" />
  <path
     style="stroke-width:0.1"
     d="m 717.2,155.6 c -2.8,2 -3.1,8.3 -0.4,10.7 2.5,2.3 7.8,2.1 10.2,-0.3 6.1,-6.1 -2.7,-15.4 -9.8,-10.4 z"
     id="path2864" />
  <path
     style="stroke-width:0.1"
     d="m 805.8,158 c -15.9,5 -19.4,24.9 -6.1,34.4 17.5,12.3 39,-9.8 26.4,-27.1 -4.4,-6.1 -13.7,-9.4 -20.3,-7.3 z m 12.3,8.3 c 6.8,4.6 7.3,14.7 0.9,20 -5.8,4.9 -13.6,4.3 -18.5,-1.4 -4.6,-5.5 -2.8,-16 3.3,-19.3 4.1,-2.3 10.3,-2 14.3,0.7 z"
     id="path2866" />
  <path
     style="stroke-width:0.1"
     d="m 916.6,161.1 c -5,3.9 -2.2,12.2 4.2,12.2 4.3,0 7.2,-2.8 7.2,-7 0,-6.5 -6.1,-9.3 -11.4,-5.2 z"
     id="path2868" />
  <path
     style="stroke-width:0.1"
     d="m 543.5,163.4 c -13.5,6.2 -16.5,19.1 -6.7,28.6 5.3,5.1 10.3,7 18.4,7 13.4,0 23.8,-8.2 23.8,-18.8 0,-5.4 -1.9,-9.1 -7,-13.4 -7.3,-6.3 -19.3,-7.7 -28.5,-3.4 z m 21.9,6.1 c 10.2,4.9 9.8,16.3 -0.9,21.5 -8.7,4.2 -21.2,1.5 -25.6,-5.6 -3.8,-6.1 -1.4,-12 6.6,-16 5.9,-3 13.5,-3 19.9,0.1 z"
     id="path2870" />
  <path
     style="stroke-width:0.1"
     d="m 313.5,167.5 c -12.8,6.9 -16.1,22.6 -6.9,33.3 9.2,10.7 24.5,8.7 30.9,-4.1 3.3,-6.8 3.3,-12.7 -0.1,-19.6 -3.4,-6.7 -8.6,-10.3 -15.7,-10.8 -3.5,-0.3 -6.2,0.1 -8.2,1.2 z m 12,5.9 c 6.6,2.8 9.9,11.7 7,19.1 -3.7,9.9 -14.2,11.9 -21.4,4.1 -1.9,-2 -2.6,-4 -2.8,-8.4 -0.5,-6.9 1.7,-11.7 6.8,-14.4 4.1,-2.2 5.9,-2.2 10.4,-0.4 z"
     id="path2872" />
  <path
     style="stroke-width:0.1"
     d="m 374.2,168.3 c -4.5,4.8 -1.7,11.7 4.7,11.7 4.6,0 7.1,-2.4 7.1,-6.8 0,-6.5 -7.4,-9.6 -11.8,-4.9 z"
     id="path2874" />
  <path
     style="stroke-width:0.1"
     d="m 665,177 c -2.7,2.7 -2.6,7.1 0.3,9.8 5.4,5.1 12.8,0.7 11.7,-6.8 -0.6,-4.9 -8.2,-6.8 -12,-3 z"
     id="path2876" />
  <path
     style="stroke-width:0.1"
     d="m 37.2,180.3 c -4.5,4.8 -1.4,11.7 5.1,11.7 4.2,0 6.7,-2.6 6.7,-6.8 0,-6.5 -7.4,-9.6 -11.8,-4.9 z"
     id="path2878" />
  <path
     style="stroke-width:0.1"
     d="m 131.5,182 c -2.6,2.9 -2.4,7.9 0.4,10.2 7,5.6 16.4,-3.9 10.1,-10.2 -2.6,-2.6 -8.1,-2.6 -10.5,0 z"
     id="path2880" />
  <path
     style="stroke-width:0.1"
     d="m 179.5,182.8 c -13.6,6.6 -16.7,23.2 -6.3,33.9 4,4.2 11.6,6.7 17.1,5.9 19.1,-3.1 24.7,-26.9 9,-38 -5.6,-3.9 -13.8,-4.6 -19.8,-1.8 z m 16.1,6.7 c 8.8,5.7 8.4,20.3 -0.7,25 -9.5,5 -20.5,-1 -21.6,-11.6 -1.2,-11.5 12.6,-19.8 22.3,-13.4 z"
     id="path2882" />
  <path
     style="stroke-width:0.1"
     d="m 233,189 c -4.2,4.2 -0.8,12 5.3,12 5.8,0 9.1,-8.5 4.9,-12.3 -2.5,-2.3 -7.8,-2.1 -10.2,0.3 z"
     id="path2884" />
  <path
     style="stroke-width:0.1"
     d="m 875.6,190.1 c -1.9,1.5 -2.6,3 -2.6,5.4 0,3.6 3.6,7.5 7,7.5 3.4,0 7,-3.9 7,-7.5 0,-3.6 -3.6,-7.5 -7,-7.5 -1,0 -2.9,0.9 -4.4,2.1 z"
     id="path2886" />
  <path
     style="stroke-width:0.1"
     d="m 749.1,194.6 c -1.2,1.5 -2.1,3.4 -2.1,4.4 0,3.4 3.9,7 7.5,7 3.6,0 7.5,-3.6 7.5,-7 0,-3.4 -3.9,-7 -7.5,-7 -2.4,0 -3.9,0.7 -5.4,2.6 z"
     id="path2888" />
  <path
     style="stroke-width:0.1"
     d="m 505.2,195.7 c -0.7,0.3 -1.9,1.8 -2.8,3.5 -1.3,2.4 -1.3,3.5 -0.4,5.8 3.1,7.4 14,5.1 14,-3 0,-4.5 -6.3,-8.1 -10.8,-6.3 z"
     id="path2890" />
  <path
     style="stroke-width:0.1"
     d="m 952.2,199.3 c -4.5,4.8 -1.4,11.7 5.1,11.7 4.2,0 7,-2.9 7,-7.2 0,-6.1 -7.8,-9.1 -12.1,-4.5 z"
     id="path2892" />
  <path
     style="stroke-width:0.1"
     d="m 1007.2,199.3 c -4.5,4.8 -1.4,11.7 5.1,11.7 4.2,0 7,-2.9 7,-7.2 0,-6.1 -7.8,-9.1 -12.1,-4.5 z"
     id="path2894" />
  <path
     style="stroke-width:0.1"
     d="m 684.1,202.1 c -7.6,2.3 -14.2,9 -16.2,16.3 -2.4,8.8 2.2,19.2 10.8,24.3 4.2,2.4 5.8,2.8 12.8,2.8 9.1,0 12.3,-1.3 18,-7.2 13.1,-13.5 3.2,-35.6 -16.4,-36.9 -3.1,-0.2 -7.1,0.1 -9,0.7 z m 16.8,8 c 5.2,2.9 7.4,6.5 7.9,12.5 0.5,6.3 -1.9,11.1 -7.2,14.4 -12.2,7.5 -27.8,-0.2 -27.8,-13.6 0,-12.8 15,-20.2 27.1,-13.3 z"
     id="path2896" />
  <path
     style="stroke-width:0.1"
     d="m 276,206 c -4.3,4.3 -1.1,12 5,12 4.1,0 7,-3.1 7,-7.4 0,-6 -7.7,-8.9 -12,-4.6 z"
     id="path2898" />
  <path
     style="stroke-width:0.1"
     d="m 624,206.3 c -7.6,3.8 -2.8,15.4 5.5,13.3 2.9,-0.7 5.6,-5.6 4.8,-8.7 -1.1,-4.1 -6.5,-6.5 -10.3,-4.6 z"
     id="path2900" />
  <path
     style="stroke-width:0.1"
     d="m 422,213 c -6.1,6.1 2.7,15.4 9.8,10.4 2.8,-2 3.1,-8.3 0.4,-10.7 -2.5,-2.3 -7.8,-2.1 -10.2,0.3 z"
     id="path2902" />
  <path
     style="stroke-width:0.1"
     d="m 101.2,217.6 c -2.8,2 -3.1,8.3 -0.4,10.7 4.5,4 12.2,0.6 12.2,-5.3 0,-5.9 -6.7,-9 -11.8,-5.4 z"
     id="path2904" />
  <path
     style="stroke-width:0.1"
     d="m 348.2,218.3 c -2.8,3 -2.8,6.8 0.1,9.5 4.8,4.5 12,1.6 12,-4.8 0,-6.5 -7.6,-9.5 -12.1,-4.7 z"
     id="path2906" />
  <path
     style="stroke-width:0.1"
     d="m 837,218 c -1.1,1.1 -2,3.3 -2,5 0,1.7 0.9,3.9 2,5 1.1,1.1 3.3,2 5,2 1.7,0 3.9,-0.9 5,-2 1.1,-1.1 2,-3.3 2,-5 0,-1.7 -0.9,-3.9 -2,-5 -1.1,-1.1 -3.3,-2 -5,-2 -1.7,0 -3.9,0.9 -5,2 z"
     id="path2908" />
  <path
     style="stroke-width:0.1"
     d="m 15.6,221.1 c -3.6,2.8 -3.6,8 0,10.8 3.5,2.7 5.9,2.6 8.9,-0.4 3.4,-3.3 3.3,-7.7 -0.1,-10.4 C 22.9,219.9 21,219 20,219 c -1,0 -2.9,0.9 -4.4,2.1 z"
     id="path2910" />
  <path
     style="stroke-width:0.1"
     d="m 50.8,221 c -11.4,6.1 -14.3,22.7 -5.6,32.6 4.3,4.8 8.3,6.7 14.6,6.7 14.6,0 23.7,-18.2 15.9,-31.6 -5.2,-8.9 -16.2,-12.3 -24.9,-7.7 z m 14.3,5.5 c 4.3,2.3 6.9,7.1 6.9,12.8 0,8.9 -5,14.7 -12.8,14.7 -3.8,0 -5,-0.5 -8.2,-3.8 -5,-4.9 -6,-10.2 -3.1,-16.6 3.3,-7.6 10.5,-10.5 17.2,-7.1 z"
     id="path2912" />
  <path
     style="stroke-width:0.1"
     d="m 1100.6,221.1 c -1.9,1.5 -2.6,3 -2.6,5.4 0,3.6 3.6,7.5 7,7.5 3.4,0 7,-3.9 7,-7.5 0,-3.6 -3.6,-7.5 -7,-7.5 -1,0 -2.9,0.9 -4.4,2.1 z"
     id="path2914" />
  <path
     style="stroke-width:0.1"
     d="m 936.4,223.8 c -8.5,4 -14.5,15.1 -12.9,24 1.7,9.2 10,17.4 19,18.8 6.9,1 14.4,-1.7 19.2,-6.9 5,-5.4 6.6,-10.2 6.1,-17.7 -0.5,-7 -3.9,-12.7 -9.9,-16.7 -5.5,-3.6 -15.4,-4.3 -21.5,-1.5 z m 18.3,6.8 c 7.2,5.4 9.3,14.1 5.2,21.4 -3.1,5.5 -7.7,8.2 -13.9,8.2 -11,0 -18.4,-9.4 -15.6,-19.8 1.4,-5.1 3.2,-7.6 7.6,-10.3 4.4,-2.8 12.7,-2.5 16.7,0.5 z"
     id="path2916" />
  <path
     style="stroke-width:0.1"
     d="m 463.1,225.6 c -1.2,1.5 -2.1,3.4 -2.1,4.4 0,3.4 3.9,7 7.5,7 3.6,0 7.5,-3.6 7.5,-7 0,-3.4 -3.9,-7 -7.5,-7 -2.4,0 -3.9,0.7 -5.4,2.6 z"
     id="path2918" />
  <path
     style="stroke-width:0.1"
     d="m 897,225 c -6.3,6.3 3.1,15.8 10.1,10.2 2.8,-2.3 3,-7.3 0.4,-10.2 -2.4,-2.6 -7.9,-2.6 -10.5,0 z"
     id="path2920" />
  <path
     style="stroke-width:0.1"
     d="m 792.5,228.5 c -3.9,3.9 -3.2,8.6 1.7,11.1 5.9,3 12.2,-2.7 9.9,-8.9 -1.9,-5.1 -7.7,-6.2 -11.6,-2.2 z"
     id="path2922" />
  <path
     style="stroke-width:0.1"
     d="m 219.1,230.6 c -1.2,1.5 -2.1,3.4 -2.1,4.4 0,3.4 3.9,7 7.5,7 3.6,0 7.5,-3.6 7.5,-7 0,-3.4 -3.9,-7 -7.5,-7 -2.4,0 -3.9,0.7 -5.4,2.6 z"
     id="path2924" />
  <path
     style="stroke-width:0.1"
     d="m 147,232 c -4.2,4.2 -0.8,12 5.3,12 5.8,0 9.1,-8.5 4.9,-12.3 -2.5,-2.3 -7.8,-2.1 -10.2,0.3 z"
     id="path2926" />
  <path
     style="stroke-width:0.1"
     d="m 579,236.7 c -5.3,1.9 -6.8,8.6 -2.8,12.3 6.3,5.8 15.7,-3.3 10.1,-9.8 -2,-2.3 -5,-3.3 -7.3,-2.5 z"
     id="path2928" />
  <path
     style="stroke-width:0.1"
     d="m 1053.9,238.9 c -2.5,2.5 -3,3.7 -2.5,5.9 1.5,6 7.9,8 12.1,3.7 4.3,-4.2 2.3,-10.6 -3.7,-12.1 -2.2,-0.5 -3.4,0 -5.9,2.5 z"
     id="path2930" />
  <path
     style="stroke-width:0.1"
     d="m 522.1,244.6 c -1.2,1.5 -2.1,3.5 -2.1,4.6 0,2.7 4.5,6.8 7.5,6.8 2.9,0 7.5,-4 7.5,-6.5 0,-2 -1.9,-5.7 -3.4,-6.7 -2.6,-1.8 -7.5,-0.8 -9.5,1.8 z"
     id="path2932" />
  <path
     style="stroke-width:0.1"
     d="m 746,249.3 c -3.3,1.6 -4.7,5.8 -3.2,9.2 2.5,5.5 10,5.8 12.7,0.5 3.2,-6.1 -3.3,-12.8 -9.5,-9.7 z"
     id="path2934" />
  <path
     style="stroke-width:0.1"
     d="m 389.5,254.5 c -3,3 -3.1,5.4 -0.4,8.9 1.5,1.9 3,2.6 5.4,2.6 3.6,0 7.5,-3.6 7.5,-7 0,-1 -0.9,-2.9 -2.1,-4.4 -2.7,-3.4 -7.1,-3.5 -10.4,-0.1 z"
     id="path2936" />
  <path
     style="stroke-width:0.1"
     d="m 634,256 c -2.6,2.6 -2.5,6 0.1,9.4 2.5,3.1 6.6,3.5 10,0.8 2.8,-2.3 3,-7.3 0.4,-10.2 -2.4,-2.6 -7.9,-2.6 -10.5,0 z"
     id="path2938" />
  <path
     style="stroke-width:0.1"
     d="m 262.5,259.5 c -4,3.9 -2.9,9.5 2.2,11.3 7.8,2.7 13.6,-7.6 7,-12.3 -3.1,-2.2 -6.5,-1.8 -9.2,1 z"
     id="path2940" />
  <path
     style="stroke-width:0.1"
     d="m 1007.5,259.5 c -4.6,4.6 -1.9,11.8 4.4,11.8 6.6,0 9.8,-7.6 5.1,-12.3 -2.7,-2.7 -6.6,-2.5 -9.5,0.5 z"
     id="path2942" />
  <path
     style="stroke-width:0.1"
     d="m 99.6,264.1 c -3.6,2.8 -3.6,8 0,10.8 1.5,1.2 3.4,2.1 4.4,2.1 3.4,0 7,-3.9 7,-7.5 0,-3.6 -3.6,-7.5 -7,-7.5 -1,0 -2.9,0.9 -4.4,2.1 z"
     id="path2944" />
  <path
     style="stroke-width:0.1"
     d="m 852.5,263.2 c -2.8,1.6 -3.5,2.8 -3.5,6.5 0,2.2 0.8,3.8 2.6,5.2 3.5,2.7 5.9,2.6 8.9,-0.4 3.4,-3.3 3.3,-7.7 -0.1,-10.4 -3,-2.4 -5,-2.6 -7.9,-0.9 z"
     id="path2946" />
  <path
     style="stroke-width:0.1"
     d="m 316.2,265.7 c -3.2,2.7 -3.7,6.4 -1.2,9.6 2.8,3.5 8,3.7 11,0.5 5.8,-6.3 -3.2,-15.6 -9.8,-10.1 z"
     id="path2948" />
  <path
     style="stroke-width:0.1"
     d="m 899.6,276.1 c -1.9,1.5 -2.6,3 -2.6,5.4 0,3.6 3.6,7.5 7,7.5 3.4,0 7,-3.9 7,-7.5 0,-3.6 -3.6,-7.5 -7,-7.5 -1,0 -2.9,0.9 -4.4,2.1 z"
     id="path2950" />
  <path
     style="stroke-width:0.1"
     d="m 797.5,278.5 c -3,3 -3.1,5.4 -0.4,8.9 2,2.6 6.9,3.6 9.5,1.8 1.5,-1 3.4,-4.7 3.4,-6.7 0,-2.5 -4.6,-6.5 -7.5,-6.5 -1.4,0 -3.7,1.1 -5,2.5 z"
     id="path2952" />
  <path
     style="stroke-width:0.1"
     d="m 1076,278 c -2.4,2.4 -2.6,6.7 -0.4,9.8 1.1,1.6 2.5,2.2 5.4,2.2 2.9,0 4.3,-0.6 5.4,-2.2 3.6,-5.1 0.5,-11.8 -5.4,-11.8 -1.7,0 -3.9,0.9 -5,2 z"
     id="path2954" />
  <path
     style="stroke-width:0.1"
     d="m 444.1,280.6 c -1.2,1.5 -2.1,3.4 -2.1,4.4 0,3.4 3.9,7 7.5,7 3.6,0 7.5,-3.6 7.5,-7 0,-3.4 -3.9,-7 -7.5,-7 -2.4,0 -3.9,0.7 -5.4,2.6 z"
     id="path2956" />
  <path
     style="stroke-width:0.1"
     d="m 141.6,287.2 c -5,7.1 4.3,15.9 10.4,9.8 2.6,-2.6 2.6,-8.1 0.2,-10.3 -2.8,-2.5 -8.7,-2.2 -10.6,0.5 z"
     id="path2958" />
  <path
     style="stroke-width:0.1"
     d="m 208.6,287.2 c -5,7.1 4.3,15.9 10.4,9.8 2.6,-2.6 2.6,-8.1 0.2,-10.3 -2.8,-2.5 -8.7,-2.2 -10.6,0.5 z"
     id="path2960" />
  <path
     style="stroke-width:0.1"
     d="m 579,287 c -2.7,2.7 -2.5,6.6 0.5,9.5 2.9,3 6.4,3.2 9.6,0.7 2.8,-2.3 3,-7.3 0.4,-10.2 -2.4,-2.6 -7.9,-2.6 -10.5,0 z"
     id="path2962" />
  <path
     style="stroke-width:0.1"
     d="m 37.2,290.3 c -4.5,4.8 -1.4,11.7 5.1,11.7 4.2,0 6.7,-2.6 6.7,-6.8 0,-6.5 -7.4,-9.6 -11.8,-4.9 z"
     id="path2964" />
  <path
     style="stroke-width:0.1"
     d="m 526,292.3 c -5.2,2.6 -4.9,10.4 0.4,12.8 8.1,3.7 13.8,-7.3 6.4,-12.5 -2.7,-1.9 -3.5,-2 -6.8,-0.3 z"
     id="path2966" />
  <path
     style="stroke-width:0.1"
     d="m 828,291.9 c -8.5,2.7 -13.5,8.3 -14.6,16.3 -2.1,15.1 13.6,26.4 27.3,19.7 8.1,-3.9 12.6,-13.4 10.3,-21.8 -1.2,-4.6 -5.9,-10.5 -10,-12.6 -3.6,-1.9 -9.8,-2.6 -13,-1.6 z m 11,7.6 c 3.8,2 6,6.3 6,11.9 0,11.6 -14.8,16.6 -22.4,7.6 -9.3,-11.1 3.5,-26.2 16.4,-19.5 z"
     id="path2968" />
  <path
     style="stroke-width:0.1"
     d="m 970.8,292.6 c -5.1,2.7 -4.6,10.1 0.7,12.6 5.8,2.6 11.9,-3.3 9.5,-9.1 -0.6,-1.6 -2.3,-3.3 -3.6,-4 -3.1,-1.4 -3.3,-1.4 -6.6,0.5 z"
     id="path2970" />
  <path
     style="stroke-width:0.1"
     d="m 346,293.6 c -8.1,3.5 -13.2,11.4 -13.2,20.4 0,15.1 14.1,25.8 28.4,21.6 20.1,-5.8 21.9,-34 2.6,-42 -4.7,-2 -13.2,-2 -17.8,0 z m 17.1,6.7 c 5.8,3.9 8.1,8.3 7.7,14.8 -0.7,10 -7.2,15.5 -17.3,14.7 C 344.4,329 339,323 339,313.7 c 0,-8.4 7.5,-15.7 16,-15.7 3.2,0 5.8,0.7 8.1,2.3 z"
     id="path2972" />
  <path
     style="stroke-width:0.1"
     d="m 739.6,295.1 c -4.6,3.6 -2.6,11 3.4,12.4 6.4,1.5 10.8,-7.8 5.8,-12.5 -2.8,-2.6 -5.8,-2.6 -9.2,0.1 z"
     id="path2974" />
  <path
     style="stroke-width:0.1"
     d="m 284.9,296.8 c -4.8,4 -1.7,12.2 4.7,12.2 6.6,0 9.8,-7.4 5.1,-11.8 -2.8,-2.7 -6.7,-2.8 -9.8,-0.4 z"
     id="path2976" />
  <path
     style="stroke-width:0.1"
     d="m 679.2,302 c -4.8,4.5 -1.6,12.3 5,12.3 6.1,0 9.1,-7.8 4.5,-12.1 -2.9,-2.8 -6.7,-2.8 -9.5,-0.2 z"
     id="path2978" />
  <path
     style="stroke-width:0.1"
     d="m 625.5,304 c -4.2,4.6 -0.8,12 5.4,12 3.4,0 7.1,-3.7 7.1,-7.1 0,-5.8 -8.7,-9.1 -12.5,-4.9 z"
     id="path2980" />
  <path
     style="stroke-width:0.1"
     d="m 195.8,306.2 c -4.7,1.2 -11.3,6.9 -13.8,11.9 -2.7,5.1 -2.7,14.6 -0.1,19.7 10.7,20.8 42.5,13.5 42.4,-9.8 0,-3 -0.7,-7.1 -1.5,-9.1 -2.3,-5.4 -8.4,-10.7 -14.1,-12.4 -5.7,-1.7 -7.6,-1.7 -12.9,-0.3 z m 15.3,8.2 c 9.7,6.6 9.1,20.5 -1,27.3 -9.8,6.6 -24.1,-1.5 -24.1,-13.6 0,-5.9 3.3,-11.8 8,-14.2 5.1,-2.8 12.6,-2.5 17.1,0.5 z"
     id="path2982" />
  <path
     style="stroke-width:0.1"
     d="m 90.1,311.6 c -1.2,1.5 -2.1,3.5 -2.1,4.6 0,2.7 4.5,6.8 7.5,6.8 3,0 7.5,-4.1 7.5,-6.8 0,-3.5 -3.8,-7.2 -7.5,-7.2 -2.4,0 -3.9,0.7 -5.4,2.6 z"
     id="path2984" />
  <path
     style="stroke-width:0.1"
     d="m 566.2,310.5 c -16.1,5 -20.5,24.7 -7.8,35.2 16.6,13.6 42.5,-1.2 36.6,-21 -1.7,-5.9 -9.3,-13 -15.3,-14.5 -5.7,-1.5 -8,-1.4 -13.5,0.3 z m 17.9,8.6 c 4,2.9 6.3,9.5 5,14.6 -1.2,4.6 -4.1,7.6 -9.3,9.8 -4.9,2 -8.4,1.9 -13.4,-0.4 -17.3,-7.9 -7.9,-30.9 11,-26.9 2.1,0.5 5.1,1.8 6.7,2.9 z"
     id="path2986" />
  <path
     style="stroke-width:0.1"
     d="m 405.2,311 c -7.7,3.1 -3.4,15.3 4.8,13.5 6.5,-1.4 7.4,-10.6 1.4,-13.4 -2.9,-1.3 -3.1,-1.3 -6.2,-0.1 z"
     id="path2988" />
  <path
     style="stroke-width:0.1"
     d="m 1080,312.9 c -7.4,2.3 -11.7,6.1 -14.9,13.1 -8.7,19.2 12.7,38.5 31.4,28.2 9.5,-5.2 14,-17.5 10.1,-27.7 -3.9,-10 -16.7,-16.6 -26.6,-13.6 z m 9.5,6.2 c 5.5,1.4 11.1,7.2 12.1,12.4 1.3,7.1 -2.6,14.9 -9,17.9 -13.2,6.3 -27.7,-7.3 -21.8,-20.5 2.3,-5.3 4.8,-7.6 9.9,-9.5 4.7,-1.6 3.6,-1.6 8.8,-0.3 z"
     id="path2990" />
  <path
     style="stroke-width:0.1"
     d="m 873,316 c -4.2,4.2 -1.2,12 4.8,12 4.6,0 7.2,-2.5 7.2,-7 0,-2.9 -0.6,-4.3 -2.2,-5.4 -3.1,-2.2 -7.4,-2 -9.8,0.4 z"
     id="path2992" />
  <path
     style="stroke-width:0.1"
     d="m 1021.5,316.2 c -5,2.7 -5.9,7.5 -2,11.3 2.9,3 6.4,3.2 9.6,0.7 5.9,-4.8 -0.9,-15.7 -7.6,-12 z"
     id="path2994" />
  <path
     style="stroke-width:0.1"
     d="m 243.3,318.2 c -1.2,0.6 -2.6,2.2 -3.1,3.7 -2.7,7.6 7.7,13.4 12.3,6.8 2.2,-3.1 1.8,-6.5 -1,-9.2 -2.6,-2.7 -4.7,-3 -8.2,-1.3 z"
     id="path2996" />
  <path
     style="stroke-width:0.1"
     d="m 503.2,321.6 c -2.8,2 -3.1,8.3 -0.4,10.7 2.5,2.3 7.8,2.1 10.2,-0.3 6.1,-6.1 -2.7,-15.4 -9.8,-10.4 z"
     id="path2998" />
  <path
     style="stroke-width:0.1"
     d="m 923,323.3 c -5.2,2.6 -4.9,10.4 0.4,12.8 3.6,1.7 7.3,0.3 9.2,-3.2 1.9,-3.8 0.6,-8 -3.2,-9.8 -3.1,-1.4 -3.3,-1.4 -6.4,0.2 z"
     id="path3000" />
  <path
     style="stroke-width:0.1"
     d="m 152.7,329.7 c -0.9,0.2 -2.4,1.8 -3.3,3.5 -1.9,3.7 -0.5,8 3.2,9.7 3.7,1.6 5.2,1.4 7.9,-1.4 5.8,-5.7 0.3,-13.9 -7.8,-11.8 z"
     id="path3002" />
  <path
     style="stroke-width:0.1"
     d="m 715,335 c -1.1,1.1 -2,3.3 -2,5 0,1.7 0.9,3.9 2,5 4.2,4.2 12,1.2 12,-4.8 0,-6.6 -7.4,-9.8 -12,-5.2 z"
     id="path3004" />
  <path
     style="stroke-width:0.1"
     d="m 771.7,334.8 c -2.5,2.8 -2.2,8.7 0.5,10.6 7.1,5 15.9,-4.3 9.8,-10.4 -2.6,-2.6 -8.1,-2.6 -10.3,-0.2 z"
     id="path3006" />
  <path
     style="stroke-width:0.1"
     d="m 54.5,338.5 c -3.9,3.9 -3.2,8.6 1.7,11.1 5.9,3 12.2,-2.7 9.9,-8.9 -1.9,-5.1 -7.7,-6.2 -11.6,-2.2 z"
     id="path3008" />
  <path
     style="stroke-width:0.1"
     d="m 453.2,345.3 c -4.5,4.8 -1.7,11.7 4.7,11.7 4.6,0 7.1,-2.4 7.1,-6.8 0,-6.5 -7.4,-9.6 -11.8,-4.9 z"
     id="path3010" />
  <path
     style="stroke-width:0.1"
     d="m 603.5,350.5 c -4.3,4.2 -2.3,10.6 3.7,12.1 2.2,0.5 3.4,0 5.9,-2.5 2.5,-2.5 3,-3.7 2.5,-5.9 -1.5,-6 -7.9,-8 -12.1,-3.7 z"
     id="path3012" />
  <path
     style="stroke-width:0.1"
     d="m 104,354 c -6.2,6.2 3.1,15.8 9.9,10.2 2.8,-2.2 3.1,-7.5 0.6,-10.2 -2.4,-2.6 -7.9,-2.6 -10.5,0 z"
     id="path3014" />
  <path
     style="stroke-width:0.1"
     d="m 310.1,354.6 c -1.2,1.5 -2.1,3.5 -2.1,4.6 0,2.7 4.5,6.8 7.5,6.8 3,0 7.5,-4.1 7.5,-6.8 0,-3.5 -3.8,-7.2 -7.5,-7.2 -2.4,0 -3.9,0.7 -5.4,2.6 z"
     id="path3016" />
  <path
     style="stroke-width:0.1"
     d="m 979.7,358.8 c -2.5,2.8 -2.2,8.7 0.5,10.6 4.9,3.4 11.8,0.2 11.8,-5.5 0,-5.8 -8.5,-9.3 -12.3,-5.1 z"
     id="path3018" />
  <path
     style="stroke-width:0.1"
     d="m 526,359.3 c -3.3,1.6 -4.7,5.8 -3.2,9.2 2.5,5.5 10,5.8 12.7,0.5 3.2,-6.1 -3.3,-12.8 -9.5,-9.7 z"
     id="path3020" />
  <path
     style="stroke-width:0.1"
     d="m 650.8,361.4 c -1,0.7 -2.1,2.4 -2.6,3.7 -2.8,7.4 7.8,13 12.3,6.6 2.2,-3.1 1.8,-6.5 -1,-9.2 -2.6,-2.7 -6,-3.2 -8.7,-1.1 z"
     id="path3022" />
  <path
     style="stroke-width:0.1"
     d="m 1040.6,362.1 c -1.9,1.5 -2.6,3 -2.6,5.4 0,3.7 3.7,7.5 7.2,7.5 2.9,0 6.8,-4.5 6.8,-7.9 0,-3.2 -3.8,-7.1 -7,-7.1 -1,0 -2.9,0.9 -4.4,2.1 z"
     id="path3024" />
  <path
     style="stroke-width:0.1"
     d="m 695.9,362.5 c -5.4,1.7 -11.4,7.3 -13,12.3 -6.1,18.4 18.7,33.1 33.8,19.9 4.1,-3.6 7.3,-9.8 7.3,-14.2 0,-7.7 -7.4,-16.3 -15.6,-18.4 -5.3,-1.4 -6.8,-1.3 -12.5,0.4 z m 16.5,8.5 c 8.8,7.8 5.3,19.6 -6.7,22.4 -7,1.6 -16,-3.9 -17.2,-10.7 -1.5,-8.1 5,-14.7 14.7,-14.7 5,0 6.2,0.4 9.2,3 z"
     id="path3026" />
  <path
     style="stroke-width:0.1"
     d="m 364.2,363.6 c -2.8,2 -3.1,8.3 -0.4,10.7 2.5,2.3 7.8,2.1 10.2,-0.3 6.1,-6.1 -2.7,-15.4 -9.8,-10.4 z"
     id="path3028" />
  <path
     style="stroke-width:0.1"
     d="m 852.5,364.5 c -3,3 -3.1,5.4 -0.4,8.9 1.5,1.9 3,2.6 5.4,2.6 3.6,0 7.5,-3.6 7.5,-7 0,-1 -0.9,-2.9 -2.1,-4.4 -2.7,-3.4 -7.1,-3.5 -10.4,-0.1 z"
     id="path3030" />
  <path
     style="stroke-width:0.1"
     d="m 13,366.3 c -5.2,2.6 -4.9,10.4 0.5,12.9 5.8,2.6 11.9,-3.3 9.5,-9.1 -0.6,-1.6 -2.3,-3.3 -3.6,-4 -3.1,-1.4 -3.3,-1.4 -6.4,0.2 z"
     id="path3032" />
  <path
     style="stroke-width:0.1"
     d="m 923,366.3 c -5.2,2.6 -4.9,10.4 0.4,12.8 3.6,1.7 7.3,0.3 9.2,-3.2 1.9,-3.8 0.6,-8 -3.2,-9.8 -3.1,-1.4 -3.3,-1.4 -6.4,0.2 z"
     id="path3034" />
  <path
     style="stroke-width:0.1"
     d="m 263,371.3 c -1.3,0.7 -3.1,2.4 -3.9,3.8 -3,5.3 3.6,11.7 9.4,9.1 5.5,-2.5 5.8,-10 0.5,-12.7 -3.5,-1.8 -2.9,-1.8 -6,-0.2 z"
     id="path3036" />
  <path
     style="stroke-width:0.1"
     d="m 419.3,371 c -4.6,1.9 -5.7,8.3 -2,11.8 4.7,4.4 11.7,1.3 11.7,-5.2 0,-5 -5,-8.4 -9.7,-6.6 z"
     id="path3038" />
  <path
     style="stroke-width:0.1"
     d="m 190.2,376.3 c -4.5,4.8 -1.4,11.7 5.1,11.7 4.2,0 6.7,-2.6 6.7,-6.8 0,-6.5 -7.4,-9.6 -11.8,-4.9 z"
     id="path3040" />
  <path
     style="stroke-width:0.1"
     d="m 1091.5,376.5 c -3,3 -3.1,5.4 -0.4,8.9 1.5,1.9 3,2.6 5.4,2.6 3.7,0 7.5,-3.7 7.5,-7.2 0,-2.7 -4.5,-6.8 -7.5,-6.8 -1.4,0 -3.7,1.1 -5,2.5 z"
     id="path3042" />
  <path
     style="stroke-width:0.1"
     d="m 49.2,383.3 c -4.4,4.7 -1.3,11.7 5.2,11.7 4.1,0 6.9,-2.9 6.9,-7.2 0,-6.1 -7.8,-9.1 -12.1,-4.5 z"
     id="path3044" />
  <path
     style="stroke-width:0.1"
     d="m 91,382.5 c -11,3.4 -16.9,14.6 -13.6,25.8 5.1,17.6 29.7,20 38.4,3.7 3.4,-6.4 2.8,-15.2 -1.4,-21.2 -5.3,-7.7 -14.8,-11 -23.4,-8.3 z m 13.7,7.5 c 12.1,7.3 8,25.2 -6.1,26.7 -5.1,0.6 -9.2,-1.2 -13,-5.7 -3.3,-4 -3.6,-11.9 -0.7,-16.4 4.3,-6.5 13.2,-8.6 19.8,-4.6 z"
     id="path3046" />
  <path
     style="stroke-width:0.1"
     d="m 754.1,383.6 c -1.2,1.5 -2.1,3.4 -2.1,4.4 0,3.4 3.9,7 7.5,7 3.6,0 7.5,-3.6 7.5,-7 0,-3.4 -3.9,-7 -7.5,-7 -2.4,0 -3.9,0.7 -5.4,2.6 z"
     id="path3048" />
  <path
     style="stroke-width:0.1"
     d="m 569.2,383.6 c -7.9,3.3 -3.1,15.1 5.3,13 2.8,-0.7 5.7,-5.8 4.7,-8.5 -1.6,-4.8 -5.4,-6.5 -10,-4.5 z"
     id="path3050" />
  <path
     style="stroke-width:0.1"
     d="m 813.3,383.5 c -4.9,2.1 -5.8,7.1 -1.8,11 4.5,4.6 11.8,1.9 11.8,-4.3 0,-5.8 -4.7,-8.9 -10,-6.7 z"
     id="path3052" />
  <path
     style="stroke-width:0.1"
     d="m 464,383.9 c -16,5.1 -20.8,22.3 -9.5,33.6 12.6,12.6 33.8,3.9 33.8,-13.9 0,-5.4 -2.6,-11.8 -5.9,-14.7 -4.9,-4.3 -13.5,-6.6 -18.4,-5 z m 11.1,7.6 c 6.4,3.4 8.9,12.8 4.9,19.2 -3.9,6.4 -12.8,8.3 -19.1,4 -4.2,-2.8 -5.9,-6 -5.9,-11.2 0,-5.2 1.7,-8.4 5.9,-11.2 4,-2.7 9.8,-3 14.2,-0.8 z"
     id="path3054" />
  <path
     style="stroke-width:0.1"
     d="m 138.7,394.7 c -4.5,5.1 -1.7,12.3 4.8,12.3 3.6,0 7.5,-3.6 7.5,-7 0,-1 -0.9,-2.9 -2.1,-4.4 -2.4,-3.1 -7.7,-3.6 -10.2,-0.9 z"
     id="path3056" />
  <path
     style="stroke-width:0.1"
     d="m 885.9,395.4 c -3.7,1.8 -5.6,5.9 -4.1,9 2.5,5.6 10.1,5.9 13.1,0.5 3.1,-5.6 -3.3,-12.4 -9,-9.5 z"
     id="path3058" />
  <path
     style="stroke-width:0.1"
     d="m 503.9,397.9 c -2.5,2.5 -3,3.7 -2.5,5.9 1.5,6 7.9,8 12.1,3.7 4.3,-4.2 2.3,-10.6 -3.7,-12.1 -2.2,-0.5 -3.4,0 -5.9,2.5 z"
     id="path3060" />
  <path
     style="stroke-width:0.1"
     d="m 622.3,402.2 c -5.1,2.4 -5,10.6 0.1,12.9 8.3,3.8 14.7,-8.4 6.6,-12.6 -3.3,-1.7 -3.7,-1.7 -6.7,-0.3 z"
     id="path3062" />
  <path
     style="stroke-width:0.1"
     d="m 942.1,404.6 c -3.4,1.7 -6.2,4.1 -7.9,6.7 -2.3,3.5 -2.7,5.1 -2.7,11.7 0,6.8 0.3,8.1 2.9,11.8 3.4,5 11.2,9.2 17.1,9.2 6,0 14,-4.3 17.3,-9.3 2.3,-3.5 2.7,-5.1 2.7,-11.7 0,-6.6 -0.4,-8.2 -2.7,-11.7 -3.3,-5 -11.3,-9.3 -17.3,-9.3 -2.4,0 -6.3,1.1 -9.4,2.6 z m 15.6,5.4 c 11.4,5.1 11.1,21.1 -0.5,26.2 -17,7.5 -28.7,-17.5 -12.2,-26 5.4,-2.7 7.3,-2.7 12.7,-0.2 z"
     id="path3064" />
  <path
     style="stroke-width:0.1"
     d="m 1071,412 c -2.6,2.6 -2.6,8.1 0,10.5 2.7,2.5 8,2.2 10.2,-0.6 5.6,-6.8 -4,-16.1 -10.2,-9.9 z"
     id="path3066" />
  <path
     style="stroke-width:0.1"
     d="m 314,414 c -1.1,1.1 -2,3.3 -2,5 0,1.7 0.9,3.9 2,5 1.1,1.1 3.3,2 5,2 1.7,0 3.9,-0.9 5,-2 1.1,-1.1 2,-3.3 2,-5 0,-1.7 -0.9,-3.9 -2,-5 -1.1,-1.1 -3.3,-2 -5,-2 -1.7,0 -3.9,0.9 -5,2 z"
     id="path3068" />
  <path
     style="stroke-width:0.1"
     d="m 223.3,414 c -4.8,1.9 -5.8,8.7 -1.7,11.9 3.4,2.7 6.4,2.7 9.2,0.1 5.7,-5.3 -0.3,-14.9 -7.5,-12 z"
     id="path3070" />
  <path
     style="stroke-width:0.1"
     d="m 670.5,417.5 c -4,3.9 -2.9,9.7 2.2,11.6 3.6,1.3 7.8,-0.5 9.3,-4 3.1,-7.5 -5.8,-13.4 -11.5,-7.6 z"
     id="path3072" />
  <path
     style="stroke-width:0.1"
     d="m 838.7,420.8 c -4,4.4 -0.7,12.2 5.1,12.2 6,0 9.4,-7.8 5.2,-12 -2.6,-2.6 -8.1,-2.6 -10.3,-0.2 z"
     id="path3074" />
  <path
     style="stroke-width:0.1"
     d="m 1007,421 c -6.3,6.3 3.1,15.8 10.1,10.2 2.8,-2.3 3,-7.3 0.4,-10.2 -2.4,-2.6 -7.9,-2.6 -10.5,0 z"
     id="path3076" />
  <path
     style="stroke-width:0.1"
     d="m 25,421.3 c -5.2,2.6 -4.9,10.4 0.5,12.9 8.1,3.7 14.3,-8.7 6.4,-12.7 -3.4,-1.8 -3.7,-1.8 -6.9,-0.2 z"
     id="path3078" />
  <path
     style="stroke-width:0.1"
     d="m 410.5,422.5 c -1.4,1.3 -2.5,3.6 -2.5,5 0,2.9 4,7.5 6.5,7.5 2,0 5.7,-1.9 6.7,-3.4 1.8,-2.6 0.8,-7.5 -1.8,-9.5 -3.5,-2.7 -5.9,-2.6 -8.9,0.4 z"
     id="path3080" />
  <path
     style="stroke-width:0.1"
     d="m 775.5,422.5 c -1.4,1.3 -2.5,3.6 -2.5,5 0,2.8 4,7.5 6.4,7.5 7.6,0 10.6,-9.1 4.4,-13.4 -3.2,-2.2 -5.5,-2 -8.3,0.9 z"
     id="path3082" />
  <path
     style="stroke-width:0.1"
     d="m 723.5,426 c -4.2,4.6 -1,12 5.1,12 3.7,0 7.4,-3.7 7.4,-7.5 0,-5.4 -8.8,-8.6 -12.5,-4.5 z"
     id="path3084" />
  <path
     style="stroke-width:0.1"
     d="m 528,429 c -4.3,4.3 -1.1,12 5,12 3.8,0 7,-3.2 7,-7 0,-3.8 -3.2,-7 -7,-7 -1.7,0 -3.9,0.9 -5,2 z"
     id="path3086" />
  <path
     style="stroke-width:0.1"
     d="m 580,429 c -4.3,4.3 -1.1,12 5,12 3.8,0 7,-3.2 7,-7 0,-3.8 -3.2,-7 -7,-7 -1.7,0 -3.9,0.9 -5,2 z"
     id="path3088" />
  <path
     style="stroke-width:0.1"
     d="m 348,431 c -5.6,2.6 -8.6,5.4 -11,10 -4.4,8.6 -3.3,17.9 2.8,25 13.5,15.9 39.3,6.5 39.2,-14.2 -0.1,-8.6 -4.9,-16.6 -12.4,-20.5 -5,-2.6 -13.4,-2.7 -18.6,-0.3 z m 17.7,7.1 c 8.8,5.4 9.6,19.6 1.5,25.9 -6.5,5.2 -15,5 -21.1,-0.6 -14.8,-13.3 2.7,-35.7 19.6,-25.3 z"
     id="path3090" />
  <path
     style="stroke-width:0.1"
     d="m 171,433 c -6.3,6.3 3.1,15.8 10.1,10.2 2.8,-2.3 3,-7.3 0.4,-10.2 -2.4,-2.6 -7.9,-2.6 -10.5,0 z"
     id="path3092" />
  <path
     style="stroke-width:0.1"
     d="m 216.5,446.9 c -8,3.7 -12.5,11.1 -12.5,20.6 0,19.7 23.9,29.4 37.9,15.4 14.1,-14.1 4.3,-38 -15.6,-37.9 -3.5,0 -7.4,0.8 -9.8,1.9 z m 18,6.6 c 5.5,3.2 7.9,8 7.3,15 -0.8,9.6 -7.4,15.1 -17.3,14.3 -6,-0.5 -9.5,-2.7 -12.4,-7.9 -8.2,-14.3 8.1,-29.8 22.4,-21.4 z"
     id="path3094" />
  <path
     style="stroke-width:0.1"
     d="m 799.5,448.5 c -7.4,4 -11.5,10.7 -11.5,19 0,20 23.3,28.5 34.5,12.6 2.8,-3.9 3,-5 3,-12.6 0,-7.8 -0.2,-8.6 -3.1,-12.1 -4.9,-6.1 -7.8,-7.7 -14.1,-8.1 -4,-0.3 -6.7,0.1 -8.8,1.2 z m 14,6.5 c 11.2,6.9 6.9,27 -5.7,27 -5.7,0 -9.6,-2.5 -11.9,-7.3 -3,-6.7 -2.2,-12.6 2.4,-17.6 4.2,-4.5 10,-5.3 15.2,-2.1 z"
     id="path3096" />
  <path
     style="stroke-width:0.1"
     d="m 104.2,450.3 c -4.5,4.8 -1.4,11.7 5.1,11.7 4.2,0 7,-2.9 7,-7.2 0,-6.1 -7.8,-9.1 -12.1,-4.5 z"
     id="path3098" />
  <path
     style="stroke-width:0.1"
     d="m 455,450 c -2.6,2.6 -2.6,8.1 -0.2,10.3 4.5,4 12.2,0.6 12.2,-5.3 0,-1.7 -0.9,-3.9 -2,-5 -1.1,-1.1 -3.3,-2 -5,-2 -1.7,0 -3.9,0.9 -5,2 z"
     id="path3100" />
  <path
     style="stroke-width:0.1"
     d="m 59.1,452.6 c -1.2,1.5 -2.1,3.5 -2.1,4.6 0,2.7 4.5,6.8 7.5,6.8 2.9,0 7.5,-4 7.5,-6.5 0,-2 -1.9,-5.7 -3.4,-6.7 -2.6,-1.8 -7.5,-0.8 -9.5,1.8 z"
     id="path3102" />
  <path
     style="stroke-width:0.1"
     d="m 905.7,451.8 c -2.3,2.5 -2.1,7.8 0.3,10.2 6.1,6.1 15.4,-2.7 10.4,-9.8 -2,-2.8 -8.3,-3.1 -10.7,-0.4 z"
     id="path3104" />
  <path
     style="stroke-width:0.1"
     d="m 1050.1,452.3 c -5.1,2.5 -4.7,10.7 0.5,12.7 7.7,3 13.8,-5.7 7.9,-11.5 -2.7,-2.8 -4.8,-3.1 -8.4,-1.2 z"
     id="path3106" />
  <path
     style="stroke-width:0.1"
     d="m 281.1,455.6 c -4.1,5.3 -1.3,11.4 5.2,11.4 4.2,0 7,-2.9 7,-7.2 0,-6.4 -8.3,-9.2 -12.2,-4.2 z"
     id="path3108" />
  <path
     style="stroke-width:0.1"
     d="m 637.9,454.8 c -4.9,4 -1.7,12.2 4.8,12.2 6.5,0 9.3,-6.1 5.2,-11.4 -2.5,-3.1 -6.6,-3.5 -10,-0.8 z"
     id="path3110" />
  <path
     style="stroke-width:0.1"
     d="m 690.6,464.2 c -3.6,5.1 -0.5,11.8 5.4,11.8 5.9,0 9,-6.7 5.4,-11.8 -1.1,-1.6 -2.5,-2.2 -5.4,-2.2 -2.9,0 -4.3,0.6 -5.4,2.2 z"
     id="path3112" />
  <path
     style="stroke-width:0.1"
     d="m 159.5,465.5 c -1.4,1.3 -2.5,3.6 -2.5,5 0,2.8 4,7.5 6.4,7.5 7.8,0 10.9,-10.7 4,-13.9 -3.7,-1.6 -5.2,-1.4 -7.9,1.4 z"
     id="path3114" />
  <path
     style="stroke-width:0.1"
     d="m 538.5,464.9 c -13.2,3.4 -19.7,16.5 -13.7,27.7 1.9,3.7 8,8.3 12.4,9.5 8.6,2.3 17.7,-0.6 23.2,-7.5 2.5,-3 3.1,-4.8 3.4,-9.9 0.3,-5.5 0,-6.7 -2.6,-10.8 -4.5,-7 -14.8,-11.1 -22.7,-9 z m 13.2,8.1 c 7.3,4.4 8.3,13.9 2,19.6 -6.3,5.8 -15.9,5.3 -21.6,-1.1 -7.6,-8.7 -1.1,-20.5 11.4,-20.5 3.2,0 6.2,0.7 8.2,2 z"
     id="path3116" />
  <path
     style="stroke-width:0.1"
     d="m 859.5,467.5 c -2.8,2.7 -3,4.2 -1.4,7.9 1.4,2.9 5.5,4.7 8.5,3.5 2.6,-0.9 5.4,-4.7 5.4,-7.2 0,-2.6 -4.5,-6.7 -7.5,-6.7 -1.4,0 -3.7,1.1 -5,2.5 z"
     id="path3118" />
  <path
     style="stroke-width:0.1"
     d="m 971.2,467.3 c -4.3,4.6 -1.6,11.7 4.6,11.9 4.3,0.1 7.2,-2.6 7.2,-6.9 0,-6.6 -7.4,-9.7 -11.8,-5 z"
     id="path3120" />
  <path
     style="stroke-width:0.1"
     d="m 403.3,469.2 c -8.1,3.9 -2,16.7 6.2,13 5.5,-2.5 5.8,-10 0.5,-12.7 -3.3,-1.7 -3.7,-1.7 -6.7,-0.3 z"
     id="path3122" />
  <path
     style="stroke-width:0.1"
     d="m 749,468.7 c -7.6,2.7 -5.8,14.3 2.1,14.3 5.5,0 9.2,-8.7 5.2,-12.2 -2.2,-1.9 -5.3,-2.8 -7.3,-2.1 z"
     id="path3124" />
  <path
     style="stroke-width:0.1"
     d="m 1079.3,471.7 c -10.8,6.9 -12.5,23.2 -3.5,32.6 3.9,4.2 7.5,5.7 13.2,5.7 7.7,0 13.5,-3.9 17.5,-11.9 2.7,-5.3 1.8,-15.7 -1.8,-20.8 -5.9,-8.5 -17.2,-11 -25.4,-5.6 z m 16.3,5.2 c 6,3.7 8.1,12.8 4.5,19.9 -4.9,9.5 -16.7,9.6 -22,0.2 -2.6,-4.7 -2.7,-10 -0.1,-15 3.4,-6.7 11.2,-9 17.6,-5.1 z"
     id="path3126" />
  <path
     style="stroke-width:0.1"
     d="m 592.3,476 c -4.7,1.9 -5.6,7.8 -1.8,11.5 4.7,4.8 11.9,1.9 11.9,-4.9 0,-2 -0.7,-4.3 -1.4,-5 -2,-2 -6,-2.7 -8.7,-1.6 z"
     id="path3128" />
  <path
     style="stroke-width:0.1"
     d="m 1021,476.3 c -7.9,4 -2.4,16.2 5.8,12.8 5.8,-2.4 6.1,-10.4 0.6,-13 -3.1,-1.4 -3.3,-1.4 -6.4,0.2 z"
     id="path3130" />
  <path
     style="stroke-width:0.1"
     d="m 667.1,487.5 c -15.2,4.8 -19.9,27.3 -7.9,38.1 5.9,5.4 15.5,7 22.4,3.8 12.9,-6.1 16.4,-24.8 6.7,-35.5 -6.2,-6.8 -13.2,-8.9 -21.2,-6.4 z m 13.3,7.4 c 12.1,8 8.2,28.3 -5.6,29.8 -14.7,1.7 -21.8,-16.9 -10.8,-27.9 3.3,-3.4 4.3,-3.8 8.6,-3.8 3.1,0 5.9,0.7 7.8,1.9 z"
     id="path3132" />
  <path
     style="stroke-width:0.1"
     d="m 113.3,493 c -4.6,1.9 -5.7,8.3 -2,11.8 4.8,4.5 11.7,1.4 11.7,-5.1 0,-5.1 -5,-8.6 -9.7,-6.7 z"
     id="path3134" />
  <path
     style="stroke-width:0.1"
     d="m 315.3,492.8 c -5.4,0.8 -7.1,8.7 -2.7,12.1 5.3,4.1 11.4,1.3 11.4,-5.2 0,-4.8 -3.8,-7.7 -8.7,-6.9 z"
     id="path3136" />
  <path
     style="stroke-width:0.1"
     d="m 505.7,494.7 c -0.9,0.2 -2.4,1.8 -3.3,3.5 -1.9,3.7 -0.5,8 3.2,9.7 3.7,1.6 5.2,1.4 7.9,-1.4 5.8,-5.7 0.3,-13.9 -7.8,-11.8 z"
     id="path3138" />
  <path
     style="stroke-width:0.1"
     d="m 627.4,495.2 c -6.9,3.3 -3.7,13.8 4.2,13.8 2.4,0 6.4,-4.7 6.4,-7.5 0,-3 -4.1,-7.5 -6.7,-7.4 -1,0 -2.8,0.5 -3.9,1.1 z"
     id="path3140" />
  <path
     style="stroke-width:0.1"
     d="m 52.5,500 c -4.2,4.7 -0.8,12 5.5,12 3.3,0 7,-4 7,-7.4 0,-5.7 -8.6,-8.9 -12.5,-4.6 z"
     id="path3142" />
  <path
     style="stroke-width:0.1"
     d="m 894.7,501 c -3.5,2.8 -3.7,8 -0.5,11 2.9,2.7 6.4,2.5 9.3,-0.5 6.3,-6.3 -1.8,-16 -8.8,-10.5 z"
     id="path3144" />
  <path
     style="stroke-width:0.1"
     d="m 192.2,503 c -4.8,4.5 -1.6,12.3 5,12.3 6.4,0 9.2,-8.3 4.2,-12.2 -3.4,-2.7 -6.4,-2.7 -9.2,-0.1 z"
     id="path3146" />
  <path
     style="stroke-width:0.1"
     d="m 372.5,503.5 c -4.1,4 -3,9.2 2.5,11.5 2.5,1 3.4,1 5.5,-0.4 5,-3.3 5.5,-9.1 1.2,-12.1 -3.1,-2.2 -6.5,-1.8 -9.2,1 z"
     id="path3148" />
  <path
     style="stroke-width:0.1"
     d="m 763.2,505.3 c -4.5,4.8 -1.4,11.7 5.1,11.7 4.3,0 6.7,-2.6 6.7,-7.3 0,-6.3 -7.4,-9.1 -11.8,-4.4 z"
     id="path3150" />
  <path
     style="stroke-width:0.1"
     d="m 713,507 c -2.7,2.7 -2.5,6.6 0.5,9.5 6.3,6.3 16,-1.8 10.5,-8.8 -2.7,-3.4 -8,-3.7 -11,-0.7 z"
     id="path3152" />
  <path
     style="stroke-width:0.1"
     d="m 941.7,506.8 c -2.3,2.5 -2.1,7.8 0.3,10.2 6.1,6.1 15.4,-2.7 10.4,-9.8 -2,-2.8 -8.3,-3.1 -10.7,-0.4 z"
     id="path3154" />
  <path
     style="stroke-width:0.1"
     d="m 852.1,512.6 c -1.2,1.5 -2.1,3.4 -2.1,4.4 0,3.4 3.9,7 7.5,7 3.6,0 7.5,-3.6 7.5,-7 0,-3.4 -3.9,-7 -7.5,-7 -2.4,0 -3.9,0.7 -5.4,2.6 z"
     id="path3156" />
  <path
     style="stroke-width:0.1"
     d="m 245.6,515.1 c -4.6,3.6 -2.6,11 3.4,12.4 6.4,1.5 10.8,-7.8 5.8,-12.5 -2.8,-2.6 -5.8,-2.6 -9.2,0.1 z"
     id="path3158" />
  <path
     style="stroke-width:0.1"
     d="m 426.7,514.1 c -4.8,2.8 -4,10.7 1.2,12.9 7.5,3.1 13.4,-5.8 7.6,-11.5 -2.5,-2.6 -5.8,-3.1 -8.8,-1.4 z"
     id="path3160" />
  <path
     style="stroke-width:0.1"
     d="m 75.5,516.9 c -7.7,3.6 -11.5,9.5 -11.5,18 0,5.6 2.4,9.7 8.3,14.5 3.6,2.9 4.4,3.1 12.1,3.1 7.3,0 8.7,-0.3 12.4,-2.8 5.2,-3.4 8.4,-9.5 8.4,-15.7 0,-13.9 -16.3,-23.3 -29.7,-17.1 z m 16.2,6 c 13.1,6 7.6,24.1 -7.3,24.1 -11.6,0 -18.5,-11.9 -11.7,-20.1 5,-5.9 11.6,-7.3 19,-4 z"
     id="path3162" />
  <path
     style="stroke-width:0.1"
     d="m 998.9,516.8 c -2.8,2.3 -3,7.3 -0.4,10.2 2.5,2.7 7.8,2.7 10.5,-0.2 2.6,-2.8 2.6,-5.8 -0.1,-9.2 -2.5,-3.1 -6.6,-3.5 -10,-0.8 z"
     id="path3164" />
  <path
     style="stroke-width:0.1"
     d="m 470.3,519.2 c -3.5,1.7 -4.8,6 -2.9,9.6 3.5,6.8 13.6,4.1 13.6,-3.6 0,-4.7 -6.3,-8.2 -10.7,-6 z"
     id="path3166" />
  <path
     style="stroke-width:0.1"
     d="m 808,522 c -2.6,2.6 -2.6,8.1 0,10.5 2.7,2.5 8,2.2 10.2,-0.6 5.6,-6.8 -4,-16.1 -10.2,-9.9 z"
     id="path3168" />
  <path
     style="stroke-width:0.1"
     d="m 147.3,524.2 c -1.2,0.6 -2.7,2.4 -3.4,4 -3.4,8.3 8.6,13.6 13,5.7 1.9,-3.3 0.1,-8.1 -3.5,-9.8 -2.9,-1.3 -3.2,-1.3 -6.1,0.1 z"
     id="path3170" />
  <path
     style="stroke-width:0.1"
     d="m 1040.3,524 c -4.8,1.9 -5.8,8.7 -1.7,11.9 5.3,4.1 11.4,1.3 11.4,-5.2 0,-5.1 -5,-8.6 -9.7,-6.7 z"
     id="path3172" />
  <path
     style="stroke-width:0.1"
     d="m 966.1,529.9 c -5,1.3 -11.3,6.1 -13.8,10.6 -2.7,4.8 -3.1,13.1 -0.7,18.1 2.3,4.8 8.6,10.1 13.6,11.5 13.4,3.6 27,-4.4 29.3,-17.2 2.5,-13.9 -13.4,-26.7 -28.4,-23 z m 14,7.7 c 5,2.5 7.9,7.1 7.9,12.3 0,13.7 -16.8,19.9 -27.3,10.2 -3.4,-3.2 -4,-4.5 -4.4,-8.7 -1,-12 12.1,-19.7 23.8,-13.8 z"
     id="path3174" />
  <path
     style="stroke-width:0.1"
     d="m 593.6,532.1 c -1.9,1.5 -2.6,3 -2.6,5.4 0,3.6 3.6,7.5 7,7.5 3.4,0 7,-3.9 7,-7.5 0,-3.6 -3.6,-7.5 -7,-7.5 -1,0 -2.9,0.9 -4.4,2.1 z"
     id="path3176" />
  <path
     style="stroke-width:0.1"
     d="m 535,533 c -2.6,2.6 -2.6,8.1 -0.2,10.3 2.5,2.3 7.8,2.1 10.2,-0.3 4.3,-4.3 1.1,-12 -5,-12 -1.7,0 -3.9,0.9 -5,2 z"
     id="path3178" />
  <path
     style="stroke-width:0.1"
     d="m 322.5,534.5 c -1.4,1.3 -2.5,3.1 -2.5,3.9 0,3 2.3,6.5 5,7.6 5.8,2.4 12,-4.4 9,-9.9 -2.4,-4.6 -7.8,-5.3 -11.5,-1.6 z"
     id="path3180" />
  <path
     style="stroke-width:0.1"
     d="m 28.5,536.5 c -1.4,1.3 -2.5,3.6 -2.5,5 0,2.8 4,7.5 6.4,7.5 7.8,0 10.9,-10.7 4,-13.9 -3.7,-1.6 -5.2,-1.4 -7.9,1.4 z"
     id="path3182" />
  <path
     style="stroke-width:0.1"
     d="m 1098.1,536.6 c -1.2,1.5 -2.1,3.4 -2.1,4.4 0,1 0.9,2.9 2.1,4.4 4.1,5.2 12.2,2.3 12.2,-4.4 0,-6.7 -8.1,-9.6 -12.2,-4.4 z"
     id="path3184" />
  <path
     style="stroke-width:0.1"
     d="m 205.5,538.5 c -3.9,3.8 -3.2,8.6 1.6,11 7.6,4 14.6,-7.1 7.6,-12 -3.1,-2.2 -6.5,-1.8 -9.2,1 z"
     id="path3186" />
  <path
     style="stroke-width:0.1"
     d="m 391,541.9 c -12,3.7 -17.3,14.2 -12.4,24.6 3,6.4 13.4,11.3 21.2,9.9 8.5,-1.5 14.2,-6.2 16.4,-13.5 3.7,-12.5 -11.5,-25.1 -25.2,-21 z m 13.2,7.7 c 3.7,1.9 5.8,5.2 5.8,9.4 0,6.7 -5.3,11 -13.5,11 -8.1,0 -13.5,-4.5 -13.5,-11.2 0,-9.2 11.4,-14.1 21.2,-9.2 z"
     id="path3188" />
  <path
     style="stroke-width:0.1"
     d="m 885.5,546.5 c -3,3 -3.1,5.4 -0.4,8.9 1.5,1.9 3,2.6 5.4,2.6 3.6,0 7.5,-3.6 7.5,-7 0,-1 -0.9,-2.9 -2.1,-4.4 -2.7,-3.4 -7.1,-3.5 -10.4,-0.1 z"
     id="path3190" />
  <path
     style="stroke-width:0.1"
     d="m 770.2,553 c -2.6,2.4 -2.9,6.6 -0.6,9.8 1.1,1.6 2.5,2.2 5.3,2.2 4.6,0 7.1,-2.4 7.1,-6.8 0,-6.4 -7.2,-9.5 -11.8,-5.2 z"
     id="path3192" />
  <path
     style="stroke-width:0.1"
     d="m 439.5,554 c -4.2,4.6 -0.8,12 5.4,12 3.4,0 7.1,-3.7 7.1,-7.1 0,-6 -8.5,-9.3 -12.5,-4.9 z"
     id="path3194" />
  <path
     style="stroke-width:0.1"
     d="m 729,554.2 c -2.6,2.8 -2.6,5.8 0.1,9.2 3.9,5 12.2,2.2 12.2,-4.2 0,-6.6 -7.8,-9.8 -12.3,-5 z"
     id="path3196" />
  <path
     style="stroke-width:0.1"
     d="m 822,555.6 c -7.1,3.1 -11,8.6 -11,15.6 0,6 2.8,10.8 8.5,14.3 4.2,2.6 5.8,3 11.9,3 5.9,0 7.9,-0.5 11.8,-2.7 6,-3.6 8.8,-8.1 8.8,-14.2 0,-7.5 -3.8,-13 -11.2,-16.1 -4.7,-1.9 -14.2,-1.9 -18.8,0.1 z m 17,5.9 c 8.7,4.5 9.4,14.7 1.2,18.9 -10,5.1 -23.2,0.1 -23.2,-8.8 0,-8.8 12.9,-14.8 22,-10.1 z"
     id="path3198" />
  <path
     style="stroke-width:0.1"
     d="m 174,557 c -4.2,4.2 -0.8,12 5.3,12 5.8,0 9.1,-8.5 4.9,-12.3 -2.5,-2.3 -7.8,-2.1 -10.2,0.3 z"
     id="path3200" />
  <path
     style="stroke-width:0.1"
     d="m 623.2,555.7 c -0.7,0.3 -1.9,1.8 -2.7,3.3 -4,7.7 7.1,14.7 12,7.7 4.2,-6 -2.4,-13.8 -9.3,-11 z"
     id="path3202" />
  <path
     style="stroke-width:0.1"
     d="m 283.6,558.1 c -5.2,4.1 -2.3,12.2 4.4,12.2 6.7,0 9.6,-8.1 4.4,-12.2 -1.5,-1.2 -3.4,-2.1 -4.4,-2.1 -1,0 -2.9,0.9 -4.4,2.1 z"
     id="path3204" />
  <path
     style="stroke-width:0.1"
     d="m 497.2,559.6 c -2.8,2 -3.1,8.3 -0.4,10.7 2.5,2.3 7.8,2.1 10.2,-0.3 6.1,-6.1 -2.7,-15.4 -9.8,-10.4 z"
     id="path3206" />
  <path
     style="stroke-width:0.1"
     d="m 560,562 c -2.7,2.7 -2.5,6.6 0.5,9.5 6.3,6.3 16,-1.8 10.5,-8.8 -2.7,-3.4 -8,-3.7 -11,-0.7 z"
     id="path3208" />
  <path
     style="stroke-width:0.1"
     d="m 670.5,565.5 c -4.8,4.7 -1.9,11.5 4.9,11.5 6.8,0 9.6,-7.9 4.4,-12.3 -2.8,-2.4 -6.5,-2.1 -9.3,0.8 z"
     id="path3210" />
  <path
     style="stroke-width:0.1"
     d="m 1017.5,565.5 c -3,3 -3.1,5.4 -0.4,8.9 2,2.6 6.9,3.6 9.5,1.8 1.5,-1 3.4,-4.7 3.4,-6.7 0,-2.5 -4.6,-6.5 -7.5,-6.5 -1.4,0 -3.7,1.1 -5,2.5 z"
     id="path3212" />
  <path
     style="stroke-width:0.1"
     d="m 1071,565 c -2.6,2.6 -2.6,8.1 -0.2,10.3 2.8,2.5 8.7,2.2 10.6,-0.5 5,-7.1 -4.3,-15.9 -10.4,-9.8 z"
     id="path3214" />
  <path
     style="stroke-width:0.1"
     d="m 121.2,568.7 c -0.7,0.3 -1.9,1.8 -2.7,3.3 -4,7.7 7.1,14.7 12,7.7 4.2,-6 -2.4,-13.8 -9.3,-11 z"
     id="path3216" />
  <path
     style="stroke-width:0.1"
     d="m 59,571.7 c -5.5,2 -6.8,8.7 -2.4,12.2 1.5,1.2 3.4,2.1 4.4,2.1 3.3,0 7,-3.9 7,-7.4 0,-4.6 -4.9,-8.4 -9,-6.9 z"
     id="path3218" />
  <path
     style="stroke-width:0.1"
     d="m 227.6,574.2 c -3.6,5.1 -0.5,11.8 5.4,11.8 5.9,0 9,-6.7 5.4,-11.8 -1.1,-1.6 -2.5,-2.2 -5.4,-2.2 -2.9,0 -4.3,0.6 -5.4,2.2 z"
     id="path3220" />
  <path
     style="stroke-width:0.1"
     d="m 337.9,573.4 c -3.7,1.8 -5.6,5.9 -4.1,9 2.5,5.6 10.1,5.9 13.1,0.5 3.1,-5.6 -3.3,-12.4 -9,-9.5 z"
     id="path3222" />
  <path
     style="stroke-width:0.1"
     d="m 934.6,574.2 c -5,7.1 4.3,15.9 10.4,9.8 2.6,-2.6 2.6,-8.1 0.2,-10.3 -2.8,-2.5 -8.7,-2.2 -10.6,0.5 z"
     id="path3224" />
  <path
     style="stroke-width:0.1"
     d="m 757.2,594.3 c -4.3,4.6 -1.6,11.7 4.6,11.9 4.3,0.1 7.2,-2.6 7.2,-6.9 0,-6.6 -7.4,-9.7 -11.8,-5 z"
     id="path3226" />
  <path
     style="stroke-width:0.1"
     d="m 169.2,597 c -4.8,4.5 -1.6,12.3 5,12.3 6.4,0 9.2,-8.3 4.2,-12.2 -3.4,-2.7 -6.4,-2.7 -9.2,-0.1 z"
     id="path3228" />
  <path
     style="stroke-width:0.1"
     d="m 23,600 c -4.3,4.3 -1.1,12 5,12 3.8,0 7,-3.2 7,-7 0,-3.8 -3.2,-7 -7,-7 -1.7,0 -3.9,0.9 -5,2 z"
     id="path3230" />
  <path
     style="stroke-width:0.1"
     d="m 457.7,600.1 c -4.8,2.8 -4,10.7 1.2,12.9 7.5,3.1 13.4,-5.8 7.6,-11.5 -2.5,-2.6 -5.8,-3.1 -8.8,-1.4 z"
     id="path3232" />
  <path
     style="stroke-width:0.1"
     d="m 507,600.1 c -8.1,3.3 -12.4,9.6 -11.8,17.4 0.6,6.8 3.7,11.1 10.2,14.1 14.2,6.6 30.8,-1.5 30.8,-15.1 0,-7.1 -4.2,-12.9 -11.4,-16 -4.1,-1.7 -14,-1.9 -17.8,-0.4 z m 15.4,6.3 c 4.5,1.9 7.6,6.1 7.6,10.4 0,4.9 -5.3,9.8 -11.5,10.8 -8.8,1.3 -17.5,-4.2 -17.5,-11.1 0,-8.6 11.8,-14.1 21.4,-10.1 z"
     id="path3234" />
  <path
     style="stroke-width:0.1"
     d="m 614.2,600.7 c -5.2,4.4 -2.4,12.3 4.4,12.3 6.8,0 9.7,-6.8 4.9,-11.5 -2.8,-2.9 -6.5,-3.2 -9.3,-0.8 z"
     id="path3236" />
  <path
     style="stroke-width:0.1"
     d="m 880.2,601.7 c -0.7,0.3 -1.9,1.8 -2.8,3.5 -1.3,2.4 -1.3,3.5 -0.4,5.8 3.1,7.4 14,5.1 14,-3 0,-4.5 -6.3,-8.1 -10.8,-6.3 z"
     id="path3238" />
  <path
     style="stroke-width:0.1"
     d="m 292.2,604.3 c -4.3,4.6 -1.6,11.7 4.6,11.9 4.3,0.1 7.2,-2.6 7.2,-6.9 0,-6.6 -7.4,-9.7 -11.8,-5 z"
     id="path3240" />
  <path
     style="stroke-width:0.1"
     d="m 990,603.3 c -5.2,2.6 -4.9,10.4 0.4,12.8 8.1,3.7 13.8,-7.3 6.4,-12.5 -2.7,-1.9 -3.5,-2 -6.8,-0.3 z"
     id="path3242" />
  <path
     style="stroke-width:0.1"
     d="m 106.5,608.9 c -4.6,2 -9.2,7 -10.1,10.7 -1.1,4.1 0.2,10.9 2.5,14.1 3.9,5.3 9.6,7.8 17.6,7.8 5.8,0 7.8,-0.5 11.7,-2.7 13.1,-7.8 11.8,-24.3 -2.4,-30.3 -5.1,-2.1 -14.3,-1.9 -19.3,0.4 z m 17.5,5.6 c 7.2,3.7 9.2,11.5 4.2,16.5 -8.8,8.8 -26.2,4 -26.2,-7.2 0,-8.1 13.4,-13.7 22,-9.3 z"
     id="path3244" />
  <path
     style="stroke-width:0.1"
     d="m 664,615.3 c -7,3.5 -4.8,13.7 3,13.7 2.8,0 7,-4.4 7,-7.3 0,-5.1 -5.5,-8.6 -10,-6.4 z"
     id="path3246" />
  <path
     style="stroke-width:0.1"
     d="m 710.3,615 c -4.8,1.9 -5.8,8.7 -1.7,11.9 5.3,4.1 11.4,1.3 11.4,-5.2 0,-5.1 -5,-8.6 -9.7,-6.7 z"
     id="path3248" />
  <path
     style="stroke-width:0.1"
     d="m 224.2,615.7 c -2.3,0.9 -4.3,6 -3.3,8.5 2.9,7.8 14.1,6.3 14.1,-1.9 0,-4.7 -6.1,-8.5 -10.8,-6.6 z"
     id="path3250" />
  <path
     style="stroke-width:0.1"
     d="m 1073.6,617.1 c -5,3.9 -2.2,12.2 4.2,12.2 6.6,0 9.8,-7.8 5,-12.3 -2.8,-2.6 -5.8,-2.6 -9.2,0.1 z"
     id="path3252" />
  <path
     style="stroke-width:0.1"
     d="m 363,622 c -2.6,2.6 -2.6,8.1 -0.2,10.3 4.5,4 12.2,0.6 12.2,-5.3 0,-1.7 -0.9,-3.9 -2,-5 -1.1,-1.1 -3.3,-2 -5,-2 -1.7,0 -3.9,0.9 -5,2 z"
     id="path3254" />
  <path
     style="stroke-width:0.1"
     d="m 938.1,622.6 c -1.2,1.5 -2.1,3.5 -2.1,4.6 0,2.7 4.5,6.8 7.5,6.8 3,0 7.5,-4.1 7.5,-6.8 0,-3.5 -3.8,-7.2 -7.5,-7.2 -2.4,0 -3.9,0.7 -5.4,2.6 z"
     id="path3256" />
  <path
     style="stroke-width:0.1"
     d="m 413.9,623.8 c -1.5,1.3 -2.2,3 -2.2,5.1 0,6.6 7.6,9.8 12.3,5.1 2.7,-2.7 2.5,-6.6 -0.5,-9.5 -2.9,-3 -6.4,-3.2 -9.6,-0.7 z"
     id="path3258" />
  <path
     style="stroke-width:0.1"
     d="m 80,625.7 c -5.1,1.9 -6.8,8.5 -3,12.3 6.1,6.1 15.9,-3.3 10.3,-9.8 -2,-2.3 -5,-3.3 -7.3,-2.5 z"
     id="path3260" />
  <path
     style="stroke-width:0.1"
     d="m 564.2,631.6 c -2.8,2 -3.1,8.3 -0.4,10.7 2.5,2.3 7.8,2.1 10.2,-0.3 6.1,-6.1 -2.7,-15.4 -9.8,-10.4 z"
     id="path3262" />
  <path
     style="stroke-width:0.1"
     d="m 789,632 c -2.6,2.6 -2.6,8.1 -0.2,10.3 2.8,2.5 8.7,2.2 10.6,-0.5 5.1,-7.3 -4.2,-16 -10.4,-9.8 z"
     id="path3264" />
  <path
     style="stroke-width:0.1"
     d="m 253.3,632.6 c -4.8,2.4 -10,8.7 -11.3,13.5 -2.3,8.4 0.6,16.1 8.3,22.3 3.2,2.6 4.8,3.1 10.5,3.4 5.6,0.3 7.4,0 11.2,-2 6.6,-3.6 10.1,-9.1 10.7,-16.9 0.4,-5.4 0.1,-7.1 -1.9,-10.9 -1.4,-2.5 -4.4,-5.8 -6.7,-7.5 -3.4,-2.4 -5.4,-3 -10.9,-3.3 -4.8,-0.2 -7.6,0.2 -9.9,1.4 z m 16.8,6.7 c 6.4,4.3 8.6,12.1 5,18.7 -7.2,13.6 -27.3,8.8 -27.3,-6.5 0,-11.6 12.8,-18.6 22.3,-12.2 z"
     id="path3266" />
  <path
     style="stroke-width:0.1"
     d="m 1024,632.9 c -19.2,6.3 -21.5,26.6 -4,35.7 5.6,2.8 16.4,2.6 21.9,-0.6 14.8,-8.4 14.7,-25.6 -0.2,-33.2 -4.4,-2.2 -13.7,-3.2 -17.7,-1.9 z m 15,7.6 c 4.9,2.5 7.5,6.3 7.5,11 0,7.4 -6.8,12.8 -16.1,12.8 -6.2,0 -10.9,-2.4 -14.2,-7.4 -7.6,-11.1 9.3,-23.2 22.8,-16.4 z"
     id="path3268" />
  <path
     style="stroke-width:0.1"
     d="m 849,634.3 c -5.2,2.6 -4.9,10.4 0.5,12.9 5.8,2.6 11.9,-3.3 9.5,-9.1 -0.6,-1.6 -2.3,-3.3 -3.6,-4 -3.1,-1.4 -3.3,-1.4 -6.4,0.2 z"
     id="path3270" />
  <path
     style="stroke-width:0.1"
     d="m 747.8,635.5 c -6.1,2 -11.2,6.9 -12.8,12.3 -4.6,15.1 15.1,27.2 31.1,19.1 13.1,-6.6 13,-23.2 -0.1,-29.9 -5.2,-2.7 -12.5,-3.3 -18.2,-1.5 z m 15.2,7 c 12.4,6.4 6.9,20.5 -8.2,20.5 -6.6,0 -11.4,-2.7 -13.4,-7.5 -3.1,-7.5 3.4,-14.5 13.4,-14.5 2.9,0 6.6,0.7 8.2,1.5 z"
     id="path3272" />
  <path
     style="stroke-width:0.1"
     d="m 26.7,640.8 c -2.3,2.5 -2.1,7.8 0.3,10.2 6.1,6.1 15.4,-2.7 10.4,-9.8 -2,-2.8 -8.3,-3.1 -10.7,-0.4 z"
     id="path3274" />
  <path
     style="stroke-width:0.1"
     d="m 895.1,646.6 c -1.2,1.5 -2.1,3.4 -2.1,4.4 0,3.4 3.9,7 7.5,7 3.6,0 7.5,-3.6 7.5,-7 0,-3.4 -3.9,-7 -7.5,-7 -2.4,0 -3.9,0.7 -5.4,2.6 z"
     id="path3276" />
  <path
     style="stroke-width:0.1"
     d="m 325,647 c -4.2,4.2 -0.8,12 5.3,12 5.8,0 9.1,-8.5 4.9,-12.3 -2.5,-2.3 -7.8,-2.1 -10.2,0.3 z"
     id="path3278" />
  <path
     style="stroke-width:0.1"
     d="m 205.5,649.5 c -4,3.9 -2.9,9.7 2.2,11.6 6.2,2.3 11.9,-4 8.9,-9.9 -2.5,-4.9 -7.2,-5.6 -11.1,-1.7 z"
     id="path3280" />
  <path
     style="stroke-width:0.1"
     d="m 505.5,649.5 c -4.3,4.2 -2.3,10.6 3.7,12.1 2.2,0.5 3.4,0 5.9,-2.5 2.5,-2.5 3,-3.7 2.5,-5.9 -1.5,-6 -7.9,-8 -12.1,-3.7 z"
     id="path3282" />
  <path
     style="stroke-width:0.1"
     d="m 625.9,650.8 c -2.8,2.3 -3,7.3 -0.4,10.2 2.5,2.8 7.6,2.6 10.3,-0.3 2.8,-2.9 2.8,-5.7 0.1,-9.1 -2.5,-3.1 -6.6,-3.5 -10,-0.8 z"
     id="path3284" />
  <path
     style="stroke-width:0.1"
     d="m 458,657 c -2.6,2.6 -2.6,8.1 -0.2,10.3 2.8,2.5 8.7,2.2 10.6,-0.5 5,-7.1 -4.3,-15.9 -10.4,-9.8 z"
     id="path3286" />
  <path
     style="stroke-width:0.1"
     d="m 1080.8,658.6 c -5.1,2.7 -4.6,10.1 0.7,12.6 5.8,2.6 11.9,-3.3 9.5,-9.1 -0.6,-1.6 -2.3,-3.3 -3.6,-4 -3.1,-1.4 -3.3,-1.4 -6.6,0.5 z"
     id="path3288" />
  <path
     style="stroke-width:0.1"
     d="m 395.6,659.5 c -5.9,6 1,15.5 8.3,11.4 6.3,-3.6 4.2,-12.1 -3.1,-12.7 -2.3,-0.2 -4.1,0.3 -5.2,1.3 z"
     id="path3290" />
  <path
     style="stroke-width:0.1"
     d="m 97,665 c -2.6,2.6 -2.5,6 0.1,9.4 2.5,3.1 6.6,3.5 10,0.8 2.8,-2.3 3,-7.3 0.4,-10.2 -2.4,-2.6 -7.9,-2.6 -10.5,0 z"
     id="path3292" />
  <path
     style="stroke-width:0.1"
     d="m 682.3,665.2 c -3.5,1.7 -4.8,6 -2.9,9.6 3.5,6.8 13.6,4.1 13.6,-3.6 0,-4.7 -6.3,-8.2 -10.7,-6 z"
     id="path3294" />
  <path
     style="stroke-width:0.1"
     d="m 159,670 c -6.2,6.2 2.5,15.5 9.8,10.4 2.8,-2 3.1,-8.3 0.4,-10.7 -2.5,-2.3 -7.8,-2.1 -10.2,0.3 z"
     id="path3296" />
  <path
     style="stroke-width:0.1"
     d="m 821,677.7 c -1.5,1.9 -1.9,3.5 -1.5,5.3 1.4,6.2 9,7.9 12.8,2.8 5.4,-7.3 -5.6,-15.3 -11.3,-8.1 z"
     id="path3298" />
  <path
     style="stroke-width:0.1"
     d="m 933,677 c -2.6,2.6 -2.5,6 0.1,9.4 2.5,3.1 6.6,3.5 10,0.8 2.8,-2.3 3,-7.3 0.4,-10.2 -2.4,-2.6 -7.9,-2.6 -10.5,0 z"
     id="path3300" />
  <path
     style="stroke-width:0.1"
     d="m 9.9,679.8 c -6.3,5.2 0.8,15.5 8,11.7 4.8,-2.4 5.5,-7.2 1.6,-11 -2.9,-3 -6.4,-3.2 -9.6,-0.7 z"
     id="path3302" />
  <path
     style="stroke-width:0.1"
     d="m 551.9,681.8 c -4.8,4 -1.7,12.2 4.7,12.2 6.6,0 9.8,-7.4 5.1,-11.8 -2.8,-2.7 -6.7,-2.8 -9.8,-0.4 z"
     id="path3304" />
  <path
     style="stroke-width:0.1"
     d="m 1050.9,682.2 c -1.6,0.5 -3.2,2.2 -3.9,3.9 -3.5,8.4 8.4,13.7 12.9,5.8 3.1,-5.5 -2.8,-11.8 -9,-9.7 z"
     id="path3306" />
  <path
     style="stroke-width:0.1"
     d="m 878.1,687.6 c -4.1,5.3 -1.3,11.4 5.2,11.4 4.2,0 7,-2.9 7,-7.2 0,-6.4 -8.3,-9.2 -12.2,-4.2 z"
     id="path3308" />
  <path
     style="stroke-width:0.1"
     d="m 367,687.9 c -6.5,2.1 -12.2,6.6 -14.9,11.8 -1.8,3.6 -1.3,11.1 1.1,15.4 4.4,7.9 15.3,12.2 25.1,10 19.5,-4.3 23.6,-26.1 6.6,-34.9 -4.9,-2.5 -13.8,-3.7 -17.9,-2.3 z m 15.2,7.7 c 9.4,4.8 9.1,17.1 -0.5,22.1 -7.2,3.7 -19.1,1 -22.8,-5.1 -7.4,-12.1 9.1,-24.1 23.3,-17 z"
     id="path3310" />
  <path
     style="stroke-width:0.1"
     d="m 606.5,689.9 c -8.1,3.8 -12.5,11.1 -12.5,20.8 0,6.7 2.4,12.5 6.6,16.5 13.7,12.9 34.4,2.8 34.4,-16.7 0,-16.3 -14.8,-27 -28.5,-20.6 z m 15.5,6.9 c 9.6,7.1 9.5,20.4 -0.3,27.6 -1.9,1.4 -4.3,2.1 -7.2,2.1 -12.4,0 -19.1,-16.7 -10.8,-26.6 5.1,-6 12.6,-7.3 18.3,-3.1 z"
     id="path3312" />
  <path
     style="stroke-width:0.1"
     d="m 727,689.3 c -5.2,2.6 -4.9,10.4 0.4,12.8 3.6,1.7 7.3,0.3 9.2,-3.2 1.9,-3.8 0.6,-8 -3.2,-9.8 -3.1,-1.4 -3.3,-1.4 -6.4,0.2 z"
     id="path3314" />
  <path
     style="stroke-width:0.1"
     d="m 997.6,690.1 c -1.9,1.5 -2.6,3 -2.6,5.4 0,3.6 3.6,7.5 7,7.5 1,0 2.9,-0.9 4.4,-2.1 3.4,-2.7 3.5,-7.1 0.1,-10.4 -3,-3 -5.4,-3.1 -8.9,-0.4 z"
     id="path3316" />
  <path
     style="stroke-width:0.1"
     d="m 779.3,691.5 c -4.3,3 -3.8,8.8 1.2,12.1 2.1,1.4 3,1.4 5.5,0.4 5.5,-2.3 6.6,-7.5 2.5,-11.5 -2.7,-2.8 -6.1,-3.2 -9.2,-1 z"
     id="path3318" />
  <path
     style="stroke-width:0.1"
     d="m 432.6,701.1 c -3.6,2.8 -3.6,8 0,10.8 1.5,1.2 3.4,2.1 4.4,2.1 3.4,0 7,-3.9 7,-7.5 0,-3.6 -3.6,-7.5 -7,-7.5 -1,0 -2.9,0.9 -4.4,2.1 z"
     id="path3320" />
  <path
     style="stroke-width:0.1"
     d="m 495.6,701.1 c -3.6,2.8 -3.6,8 0,10.8 1.5,1.2 3.4,2.1 4.4,2.1 3.4,0 7,-3.9 7,-7.5 0,-3.6 -3.6,-7.5 -7,-7.5 -1,0 -2.9,0.9 -4.4,2.1 z"
     id="path3322" />
  <path
     style="stroke-width:0.1"
     d="m 903.2,700.4 c -16.3,5.3 -20.5,24.3 -7.8,35.4 12.6,11.1 34.3,3.5 37.1,-12.9 2.5,-14.5 -14.3,-27.3 -29.3,-22.5 z m 15.8,7.8 c 4.9,3.4 7.3,7.1 7.3,11.5 0,7.5 -5.3,13.4 -13,14.9 -5.4,1 -10.2,-0.5 -14.5,-4.5 -3.5,-3.2 -4.1,-4.5 -4.5,-8.7 -0.5,-5.8 1.8,-10.3 6.9,-13.4 4.7,-2.9 13.4,-2.7 17.8,0.2 z"
     id="path3324" />
  <path
     style="stroke-width:0.1"
     d="m 68,701.3 c -5.2,2.6 -4.9,10.4 0.5,12.9 5.8,2.6 11.9,-3.3 9.5,-9.1 -0.6,-1.6 -2.3,-3.3 -3.6,-4 -3.1,-1.4 -3.3,-1.4 -6.4,0.2 z"
     id="path3326" />
  <path
     style="stroke-width:0.1"
     d="m 210.5,704.5 c -3,3 -3.1,5.4 -0.4,8.9 1.5,1.9 3,2.6 5.4,2.6 3.6,0 7.5,-3.6 7.5,-7 0,-1 -0.9,-2.9 -2.1,-4.4 -2.7,-3.4 -7.1,-3.5 -10.4,-0.1 z"
     id="path3328" />
  <path
     style="stroke-width:0.1"
     d="m 261.7,703.1 c -4.8,2.8 -4,10.7 1.3,12.9 2.3,0.9 3.4,0.9 5.8,-0.4 4.9,-2.5 5.6,-7.2 1.7,-11.1 -2.5,-2.6 -5.8,-3.1 -8.8,-1.4 z"
     id="path3330" />
  <path
     style="stroke-width:0.1"
     d="m 1098.1,706.6 c -2.7,3.4 -2.7,6.4 -0.1,9.2 4.5,4.8 12.3,1.6 12.3,-5 0,-6.4 -8.3,-9.2 -12.2,-4.2 z"
     id="path3332" />
  <path
     style="stroke-width:0.1"
     d="m 667.3,713 c -4.8,1.9 -5.8,8.7 -1.7,11.9 5.3,4.1 11.4,1.3 11.4,-5.2 0,-5.1 -5,-8.6 -9.7,-6.7 z"
     id="path3334" />
  <path
     style="stroke-width:0.1"
     d="m 842.3,713.2 c -1.2,0.6 -2.7,2.4 -3.4,4 -3.4,8.3 8.6,13.6 13,5.7 1.9,-3.3 0.1,-8.1 -3.5,-9.8 -2.9,-1.3 -3.2,-1.3 -6.1,0.1 z"
     id="path3336" />
  <path
     style="stroke-width:0.1"
     d="m 312.2,717 c -4.7,4.4 -1.4,12 5.1,12 4.2,0 6.7,-2.6 6.7,-6.8 0,-6.4 -7.2,-9.5 -11.8,-5.2 z"
     id="path3338" />
  <path
     style="stroke-width:0.1"
     d="m 1047.1,717.8 c -2.8,2.2 -3.1,7.5 -0.6,10.2 2.4,2.6 7.9,2.6 10.5,0 6.2,-6.2 -3.1,-15.8 -9.9,-10.2 z"
     id="path3340" />
  <path
     style="stroke-width:0.1"
     d="m 146.2,720.6 c -6.6,3.3 -9.4,7.2 -10,13.8 -0.4,5.9 2,10.5 7.7,14.3 15.5,10.5 39.3,0.1 36.6,-15.9 -0.9,-5.2 -7.3,-11.8 -13.1,-13.6 -7,-2.1 -15.3,-1.5 -21.2,1.4 z m 18.9,4.4 c 4.7,1.3 9,5.9 9.1,9.8 0.3,11.7 -19.3,16.3 -28.9,6.7 -9.5,-9.5 4.2,-20.8 19.8,-16.5 z"
     id="path3342" />
  <path
     style="stroke-width:0.1"
     d="m 959.6,721.1 c -1.9,1.5 -2.6,3 -2.6,5.4 0,3.6 3.6,7.5 7,7.5 3.4,0 7,-3.9 7,-7.5 0,-3.6 -3.6,-7.5 -7,-7.5 -1,0 -2.9,0.9 -4.4,2.1 z"
     id="path3344" />
  <path
     style="stroke-width:0.1"
     d="m 536.5,728.5 c -2.8,2.7 -3.2,6.1 -1,9.2 4.9,7 16,0 12,-7.6 -2.4,-4.8 -7.2,-5.5 -11,-1.6 z"
     id="path3346" />
  <path
     style="stroke-width:0.1"
     d="m 761.1,737.6 c -1.2,1.5 -2.1,3.4 -2.1,4.4 0,3.4 3.9,7 7.5,7 3.6,0 7.5,-3.6 7.5,-7 0,-3.4 -3.9,-7 -7.5,-7 -2.4,0 -3.9,0.7 -5.4,2.6 z"
     id="path3348" />
  <path
     style="stroke-width:0.1"
     d="m 465.5,738 c -4.2,4.6 -0.8,12 5.4,12 3.4,0 7.1,-3.7 7.1,-7.1 0,-6 -8.5,-9.3 -12.5,-4.9 z"
     id="path3350" />
  <path
     style="stroke-width:0.1"
     d="m 708.5,740.5 c -1.4,1.3 -2.5,3.6 -2.5,5 0,3 4.1,7.5 6.8,7.5 3.5,0 7.2,-3.8 7.2,-7.5 0,-2.4 -0.7,-3.9 -2.6,-5.4 -3.5,-2.7 -5.9,-2.6 -8.9,0.4 z"
     id="path3352" />
  <path
     style="stroke-width:0.1"
     d="m 804.7,738.7 c -0.9,0.2 -2.4,1.8 -3.3,3.5 -3,5.9 2.7,12.2 8.9,9.9 5.1,-1.9 6.2,-7.7 2.2,-11.6 -2.3,-2.4 -4,-2.8 -7.8,-1.8 z"
     id="path3354" />
  <path
     style="stroke-width:0.1"
     d="m 411.6,748.1 c -3.1,2.4 -3.6,7.7 -0.8,10.2 5,4.5 12.2,1.7 12.2,-4.8 0,-3.6 -3.6,-7.5 -7,-7.5 -1,0 -2.9,0.9 -4.4,2.1 z"
     id="path3356" />
  <path
     style="stroke-width:0.1"
     d="m 80,749 c -4.2,4.2 -1.2,12 4.8,12 4.6,0 7.2,-2.5 7.2,-7 0,-2.9 -0.6,-4.3 -2.2,-5.4 -3.1,-2.2 -7.4,-2 -9.8,0.4 z"
     id="path3358" />
  <path
     style="stroke-width:0.1"
     d="m 882.3,749 c -4.6,1.9 -5.7,8.3 -2,11.8 4.7,4.4 11.7,1.3 11.7,-5.2 0,-5 -5,-8.4 -9.7,-6.6 z"
     id="path3360" />
  <path
     style="stroke-width:0.1"
     d="m 995.9,749.2 c -1.6,0.5 -3.2,2.2 -3.9,3.9 -3.5,8.4 8.4,13.7 12.9,5.8 3.1,-5.5 -2.8,-11.8 -9,-9.7 z"
     id="path3362" />
  <path
     style="stroke-width:0.1"
     d="m 276.6,752.1 c -3.6,2.8 -3.6,8 0,10.8 1.5,1.2 3.4,2.1 4.4,2.1 3.4,0 7,-3.9 7,-7.5 0,-3.6 -3.6,-7.5 -7,-7.5 -1,0 -2.9,0.9 -4.4,2.1 z"
     id="path3364" />
  <path
     style="stroke-width:0.1"
     d="m 1103.5,752.5 c -4.8,4.7 -1.9,11.9 4.9,11.9 4.7,0 7,-2.3 7,-7 0,-6.8 -7.2,-9.7 -11.9,-4.9 z"
     id="path3366" />
  <path
     style="stroke-width:0.1"
     d="m 346.6,753.1 c -3.6,2.8 -3.6,8 0,10.8 1.5,1.2 3.4,2.1 4.4,2.1 3.4,0 7,-3.9 7,-7.5 0,-3.6 -3.6,-7.5 -7,-7.5 -1,0 -2.9,0.9 -4.4,2.1 z"
     id="path3368" />
  <path
     style="stroke-width:0.1"
     d="m 634.2,754.3 c -4.5,4.8 -1.4,11.7 5.1,11.7 4.3,0 7,-2.9 6.9,-7.2 -0.2,-6.3 -7.7,-9.1 -12,-4.5 z"
     id="path3370" />
  <path
     style="stroke-width:0.1"
     d="m 1050,756 c -6.1,6.1 2.7,15.4 9.8,10.4 2.8,-2 3.1,-8.3 0.4,-10.7 -2.5,-2.3 -7.8,-2.1 -10.2,0.3 z"
     id="path3372" />
  <path
     style="stroke-width:0.1"
     d="m 171.3,756.2 c -5.2,2.5 -5.2,10.5 0.1,12.9 8.3,3.8 14.7,-8.4 6.6,-12.6 -3.3,-1.7 -3.7,-1.7 -6.7,-0.3 z"
     id="path3374" />
  <path
     style="stroke-width:0.1"
     d="m 580.7,762.8 c -2.3,2.5 -2.1,7.8 0.3,10.2 6.1,6.1 15.4,-2.7 10.4,-9.8 -2,-2.8 -8.3,-3.1 -10.7,-0.4 z"
     id="path3376" />
  <path
     style="stroke-width:0.1"
     d="m 938.6,762.5 c -5.9,6 1,15.5 8.3,11.4 6.3,-3.6 4.2,-12.1 -3.1,-12.7 -2.3,-0.2 -4.1,0.3 -5.2,1.3 z"
     id="path3378" />
  <path
     style="stroke-width:0.1"
     d="m 738.9,768.3 c -14.5,7.7 -14.5,29.3 0,36.6 8.6,4.4 16.8,3.3 23.8,-3.2 11.2,-10.3 8,-28.3 -5.9,-34.2 -5.5,-2.2 -12.7,-1.9 -17.9,0.8 z m 16.1,5.5 c 10.3,5.2 10.7,20.3 0.7,25.7 -5,2.7 -12.8,1.7 -16.8,-2.1 -7.5,-7.2 -5.9,-19.2 3.3,-23.7 4.3,-2.1 8.5,-2.1 12.8,0.1 z"
     id="path3380" />
  <path
     style="stroke-width:0.1"
     d="m 840.1,768.6 c -1.2,1.5 -2.1,3.4 -2.1,4.4 0,3.4 3.9,7 7.5,7 3.6,0 7.5,-3.6 7.5,-7 0,-3.4 -3.9,-7 -7.5,-7 -2.4,0 -3.9,0.7 -5.4,2.6 z"
     id="path3382" />
  <path
     style="stroke-width:0.1"
     d="m 231,767.7 c -5.3,1.9 -6.7,8.3 -2.7,12.1 2.9,2.8 5.7,2.8 9.1,0.1 4.6,-3.7 3,-10.6 -2.9,-12.2 -1.1,-0.3 -2.7,-0.3 -3.5,0 z"
     id="path3384" />
  <path
     style="stroke-width:0.1"
     d="m 461.6,772.4 c -8.6,3.2 -14,11.5 -14,21.6 0,12.9 8.4,22 20.4,22 17.6,0 27.1,-20.7 16.5,-36 -4.9,-7.1 -15.1,-10.5 -22.9,-7.6 z m 14,7.5 c 3.4,2.1 7.4,9.2 7.4,13.2 0,8.7 -6,15.9 -13.7,16.6 -14.4,1.2 -21.2,-17.1 -10.3,-27.9 3.3,-3.4 4.3,-3.8 8.6,-3.8 3,0 6.1,0.7 8,1.9 z"
     id="path3386" />
  <path
     style="stroke-width:0.1"
     d="m 1014,772.6 c -7.7,3.3 -12,9.6 -12,17.5 0,6.4 2.9,11.9 8.3,15.6 5.6,3.9 15.6,4.5 22.3,1.3 6.5,-3.2 10.4,-9.5 10.4,-16.7 0,-6 -1.5,-9.5 -5.7,-13.5 -5.9,-5.6 -15.9,-7.4 -23.3,-4.2 z m 15.5,6.4 c 13,6.3 7.9,24 -7,24 -11.7,0 -18.7,-11.9 -11.8,-20.1 5,-5.9 11.7,-7.3 18.8,-3.9 z"
     id="path3388" />
  <path
     style="stroke-width:0.1"
     d="m 375.6,780.3 c -4.9,4.9 -2.1,12.1 4.8,12.1 4.6,0 7,-2.3 7,-6.9 0,-4.2 -1.8,-6.2 -6.1,-7.1 -2.6,-0.5 -3.7,-0.1 -5.7,1.9 z"
     id="path3390" />
  <path
     style="stroke-width:0.1"
     d="m 682.1,780.6 c -1.2,1.5 -2.1,3.4 -2.1,4.4 0,1 0.9,2.9 2.1,4.4 4.1,5.2 12.2,2.3 12.2,-4.4 0,-6.7 -8.1,-9.6 -12.2,-4.4 z"
     id="path3392" />
  <path
     style="stroke-width:0.1"
     d="m 288.8,781.4 c -13.1,3.5 -19.6,14.4 -15,24.9 6.1,13.8 28.5,17 40.5,5.8 4.1,-3.8 5.7,-7.3 5.7,-12.8 0,-8.6 -6,-15 -16.5,-17.8 -7,-1.8 -8.4,-1.8 -14.7,-0.1 z m 17.1,7.6 c 10.2,5.1 10.9,15.4 1.4,20.7 -5.4,3 -10.4,3.7 -16.3,2.3 -6.2,-1.5 -10.5,-4.9 -12,-9.6 -3.6,-10.8 14.4,-19.8 26.9,-13.4 z"
     id="path3394" />
  <path
     style="stroke-width:0.1"
     d="m 116.2,785.3 c -4.5,4.8 -1.4,11.7 5.1,11.7 4.3,0 7,-2.9 6.9,-7.2 -0.2,-6.3 -7.7,-9.1 -12,-4.5 z"
     id="path3396" />
  <path
     style="stroke-width:0.1"
     d="m 536.2,785.3 c -4.5,4.8 -1.4,11.7 5.1,11.7 4.2,0 7,-2.9 7,-7.2 0,-6.1 -7.8,-9.1 -12.1,-4.5 z"
     id="path3398" />
  <path
     style="stroke-width:0.1"
     d="m 792,787.2 c -5.8,6.3 3.2,15.6 9.8,10 3.2,-2.6 3.7,-6.3 1.2,-9.5 -2.8,-3.5 -8,-3.7 -11,-0.5 z"
     id="path3400" />
  <path
     style="stroke-width:0.1"
     d="m 56.2,790.3 c -4.3,4.6 -1.5,12 4.6,12 4.3,0 7.2,-2.8 7.2,-6.9 0,-6.6 -7.4,-9.8 -11.8,-5.1 z"
     id="path3402" />
  <path
     style="stroke-width:0.1"
     d="m 1066.3,789.5 c -7,4.9 0,16 7.6,12 4.8,-2.4 5.5,-7.2 1.6,-11 -2.7,-2.8 -6.1,-3.2 -9.2,-1 z"
     id="path3404" />
  <path
     style="stroke-width:0.1"
     d="m 873.9,792.2 c -3.8,1.3 -5.7,6.2 -3.8,9.7 3.2,5.7 11.1,4.9 13.2,-1.3 1.7,-5.1 -4,-10.3 -9.4,-8.4 z"
     id="path3406" />
  <path
     style="stroke-width:0.1"
     d="m 920,798 c -2.6,2.6 -2.5,6 0.1,9.4 2.5,3.1 6.6,3.5 10,0.8 2.8,-2.3 3,-7.3 0.4,-10.2 -2.4,-2.6 -7.9,-2.6 -10.5,0 z"
     id="path3408" />
  <path
     style="stroke-width:0.1"
     d="m 601.2,801 c -4.8,4.5 -1.6,12.3 5,12.3 6.4,0 9.2,-8.3 4.2,-12.2 -3.4,-2.7 -6.4,-2.7 -9.2,-0.1 z"
     id="path3410" />
  <path
     style="stroke-width:0.1"
     d="m 149.7,804.8 c -4,4.4 -0.7,12.2 5.1,12.2 6,0 9.4,-7.8 5.2,-12 -2.6,-2.6 -8.1,-2.6 -10.3,-0.2 z"
     id="path3412" />
  <path
     style="stroke-width:0.1"
     d="m 969,803.7 c -5.3,1.9 -6.8,8.6 -2.8,12.3 6.3,5.9 15.7,-3.2 10.1,-9.8 -2,-2.3 -5,-3.3 -7.3,-2.5 z"
     id="path3414" />
  <path
     style="stroke-width:0.1"
     d="m 250.3,807.5 c -6.6,4.7 -0.8,15 7,12.3 5.1,-1.8 6.2,-7.4 2.2,-11.3 -2.7,-2.8 -6.1,-3.2 -9.2,-1 z"
     id="path3416" />
  <path
     style="stroke-width:0.1"
     d="m 200.2,810.5 c -5.9,2.5 -5.1,10.7 1.1,13 6.2,2.1 11.8,-5.2 8,-10.3 -2.6,-3.4 -5.3,-4.2 -9.1,-2.7 z"
     id="path3418" />
  <path
     style="stroke-width:0.1"
     d="m 415.9,810.3 c -3.7,1.9 -5.3,6 -3.7,9.4 2.6,5.5 10.4,5.4 13,-0.2 2.6,-5.7 -3.7,-11.9 -9.3,-9.2 z"
     id="path3420" />
  <path
     style="stroke-width:0.1"
     d="m 82.5,817.2 c -5,2.7 -5.9,7.5 -2,11.3 4.2,4.3 10.6,2.3 12,-3.6 1.2,-4.8 -5.7,-10.1 -10,-7.7 z"
     id="path3422" />
  <path
     style="stroke-width:0.1"
     d="m 693.3,817 c -4.8,1.9 -5.8,8.7 -1.7,11.9 5.3,4.1 11.4,1.3 11.4,-5.2 0,-5.1 -5,-8.6 -9.7,-6.7 z"
     id="path3424" />
  <path
     style="stroke-width:0.1"
     d="m 25.7,825 c -2,1.6 -2.7,3 -2.7,5.6 0,6.8 6.8,9.7 11.5,4.9 6.3,-6.3 -1.8,-16 -8.8,-10.5 z"
     id="path3426" />
  <path
     style="stroke-width:0.1"
     d="m 811.3,824 c -2.5,1 -4.3,3.9 -4.3,7 0,2.9 4.4,7 7.5,7 6.2,0 8.9,-8.9 3.9,-12.9 -2.9,-2.3 -3.8,-2.4 -7.1,-1.1 z"
     id="path3428" />
  <path
     style="stroke-width:0.1"
     d="m 351.5,826.5 c -1.4,1.3 -2.5,3.6 -2.5,5 0,3 4.1,7.5 6.8,7.5 1.1,0 3.1,-0.9 4.6,-2.1 3.6,-2.8 3.6,-8 0,-10.8 -3.5,-2.7 -5.9,-2.6 -8.9,0.4 z"
     id="path3430" />
  <path
     style="stroke-width:0.1"
     d="m 293.9,830.4 c -1.3,0.6 -3,2.3 -3.8,3.7 -1.2,2.2 -1.2,2.9 0,5.4 2.9,6 11.1,5.5 13.3,-0.8 2,-5.5 -4.3,-10.9 -9.5,-8.3 z"
     id="path3432" />
  <path
     style="stroke-width:0.1"
     d="m 762.3,831.2 c -6.8,3.3 -4,13.8 3.7,13.8 2.8,0 7,-4.4 7,-7.3 0,-5.1 -6.1,-8.8 -10.7,-6.5 z"
     id="path3434" />
  <path
     style="stroke-width:0.1"
     d="m 636.6,833.1 c -1.9,1.5 -2.6,3 -2.6,5.4 0,3.6 3.6,7.5 7,7.5 3.4,0 7,-3.9 7,-7.5 0,-3.6 -3.6,-7.5 -7,-7.5 -1,0 -2.9,0.9 -4.4,2.1 z"
     id="path3436" />
  <path
     style="stroke-width:0.1"
     d="m 555,837 c -6.1,6.1 2.7,15.4 9.8,10.4 2.8,-2 3.1,-8.3 0.4,-10.7 -2.5,-2.3 -7.8,-2.1 -10.2,0.3 z"
     id="path3438" />
  <path
     style="stroke-width:0.1"
     d="m 848.9,838.8 c -12.8,6.7 -15.4,22.9 -5.2,32.3 8.4,7.8 19.8,8.8 29.1,2.5 6.1,-4.1 9.2,-9.5 9.2,-16.4 0,-6.6 -2,-11.1 -7,-15.6 -7,-6.3 -17.3,-7.4 -26.1,-2.8 z M 865,843 c 5.7,1.6 10.2,6.9 10.7,12.7 0.8,8.9 -5.7,15.3 -15.5,15.3 -9.6,0 -16.2,-5.6 -16.2,-13.8 0,-6.2 2.9,-10.8 8.3,-13.2 4.8,-2.2 7.6,-2.4 12.7,-1 z"
     id="path3440" />
  <path
     style="stroke-width:0.1"
     d="m 909.3,837.2 c -8.1,3.9 -2,16.7 6.2,13 5.5,-2.5 5.8,-10 0.5,-12.7 -3.3,-1.7 -3.7,-1.7 -6.7,-0.3 z"
     id="path3442" />
  <path
     style="stroke-width:0.1"
     d="m 1080.8,837.6 c -5.1,2.7 -4.6,10.1 0.7,12.6 5.8,2.6 11.9,-3.3 9.5,-9.1 -0.6,-1.6 -2.3,-3.3 -3.6,-4 -3.1,-1.4 -3.3,-1.4 -6.6,0.5 z"
     id="path3444" />
  <path
     style="stroke-width:0.1"
     d="m 513.5,840.5 c -3.9,3.9 -3.2,8.6 1.7,11.1 5.9,3 12.2,-2.7 9.9,-8.9 -1.9,-5.1 -7.7,-6.2 -11.6,-2.2 z"
     id="path3446" />
  <path
     style="stroke-width:0.1"
     d="m 966.6,840.1 c -5.2,4.1 -2.3,12.2 4.4,12.2 6.7,0 9.6,-8.1 4.4,-12.2 -1.5,-1.2 -3.4,-2.1 -4.4,-2.1 -1,0 -2.9,0.9 -4.4,2.1 z"
     id="path3448" />
  <path
     style="stroke-width:0.1"
     d="m 142,842 c -4.3,4.3 -1.1,12 5,12 3.8,0 7,-3.2 7,-7 0,-3.8 -3.2,-7 -7,-7 -1.7,0 -3.9,0.9 -5,2 z"
     id="path3450" />
  <path
     style="stroke-width:0.1"
     d="m 238.5,845.5 c -3.2,3.1 -3.2,6.9 0,10 2.7,2.8 4.2,3 7.8,1.4 5.5,-2.5 5.5,-10.3 0.1,-12.8 -3.7,-1.6 -5.2,-1.4 -7.9,1.4 z"
     id="path3452" />
  <path
     style="stroke-width:0.1"
     d="m 1022.9,846.8 c -1.5,1.3 -2.2,3 -2.2,5.1 0,6.6 7.6,9.8 12.3,5.1 2.7,-2.7 2.5,-6.6 -0.5,-9.5 -2.9,-3 -6.4,-3.2 -9.6,-0.7 z"
     id="path3454" />
  <path
     style="stroke-width:0.1"
     d="m 461.9,851.5 c -6.5,3.5 -3.4,13.5 4.1,13.5 2.8,0 7,-4.4 7,-7.3 0,-5.5 -6.2,-8.9 -11.1,-6.2 z"
     id="path3456" />
  <path
     style="stroke-width:0.1"
     d="m 605,854 c -4.5,4.5 -1.1,12 5.4,12 2.5,0 3.9,-0.7 5,-2.2 3.6,-5.1 0.5,-11.8 -5.4,-11.8 -1.7,0 -3.9,0.9 -5,2 z"
     id="path3458" />
  <path
     style="stroke-width:0.1"
     d="m 720,856 c -6.1,6.1 2.7,15.4 9.8,10.4 2.8,-2 3.1,-8.3 0.4,-10.7 -2.5,-2.3 -7.8,-2.1 -10.2,0.3 z"
     id="path3460" />
  <path
     style="stroke-width:0.1"
     d="m 91.7,859.2 c -4.1,3.2 -3.8,9.4 0.6,12.3 4.6,3 10.7,-0.6 10.7,-6.3 0,-5.1 -7.3,-9 -11.3,-6 z"
     id="path3462" />
  <path
     style="stroke-width:0.1"
     d="m 395.5,860.5 c -3.9,3.9 -3.2,8.6 1.7,11.1 5.9,3 12.2,-2.7 9.9,-8.9 -1.9,-5.1 -7.7,-6.2 -11.6,-2.2 z"
     id="path3464" />
  <path
     style="stroke-width:0.1"
     d="m 11,860.7 c -7.6,2.7 -5.8,14.3 2.1,14.3 5.5,0 9.2,-8.7 5.2,-12.2 C 16.1,860.9 13,860 11,860.7 Z"
     id="path3466" />
  <path
     style="stroke-width:0.1"
     d="m 671,861.3 c -1.3,0.7 -3.1,2.4 -3.9,3.8 -3,5.3 3.6,11.7 9.4,9.1 5.5,-2.5 5.8,-10 0.5,-12.7 -3.5,-1.8 -2.9,-1.8 -6,-0.2 z"
     id="path3468" />
  <path
     style="stroke-width:0.1"
     d="m 351.6,867.1 c -5,3.9 -2.2,12.2 4.2,12.2 4.3,0 7.2,-2.8 7.2,-7 0,-6.5 -6.1,-9.3 -11.4,-5.2 z"
     id="path3470" />
  <path
     style="stroke-width:0.1"
     d="m 191.7,867.8 c -4,4.4 -0.7,12.2 5.1,12.2 6,0 9.4,-7.8 5.2,-12 -2.6,-2.6 -8.1,-2.6 -10.3,-0.2 z"
     id="path3472" />
  <path
     style="stroke-width:0.1"
     d="m 564,878 c -2.6,2.6 -2.6,8.1 -0.2,10.3 4.4,4 12.2,0.7 12.2,-5.1 0,-6 -7.8,-9.4 -12,-5.2 z"
     id="path3474" />
  <path
     style="stroke-width:0.1"
     d="m 943.9,877.8 c -4.9,4 -1.7,12.2 4.8,12.2 6.5,0 9.3,-6.1 5.2,-11.4 -2.5,-3.1 -6.6,-3.5 -10,-0.8 z"
     id="path3476" />
  <path
     style="stroke-width:0.1"
     d="m 988.1,878.6 c -2.7,3.4 -2.7,6.4 -0.1,9.2 4.7,5 14,0.6 12.5,-5.8 -1.4,-6 -8.8,-8 -12.4,-3.4 z"
     id="path3478" />
  <path
     style="stroke-width:0.1"
     d="m 309.7,881 c -3.5,2.8 -3.7,8 -0.5,11 2.9,2.7 6.4,2.5 9.3,-0.5 6.3,-6.3 -1.8,-16 -8.8,-10.5 z"
     id="path3480" />
</svg>
