<?xml version="1.0" encoding="UTF-8" standalone="no"?>
<svg
   xmlns:dc="http://purl.org/dc/elements/1.1/"
   xmlns:cc="http://creativecommons.org/ns#"
   xmlns:rdf="http://www.w3.org/1999/02/22-rdf-syntax-ns#"
   xmlns:svg="http://www.w3.org/2000/svg"
   xmlns="http://www.w3.org/2000/svg"
   xmlns:sodipodi="http://sodipodi.sourceforge.net/DTD/sodipodi-0.dtd"
   xmlns:inkscape="http://www.inkscape.org/namespaces/inkscape"
   inkscape:version="1.0 (4035a4fb49, 2020-05-01)"
   sodipodi:docname="USGS_605_colour_nobox.svg"
   id="svg1029"
   preserveAspectRatio="xMidYMid meet"
   viewBox="0 0 1125.000000 900.000000"
   height="900.000000pt"
   width="1125.000000pt"
   version="1.0">
  <defs
     id="defs1033" />
  <sodipodi:namedview
     inkscape:current-layer="svg1029"
     inkscape:window-maximized="1"
     inkscape:window-y="-8"
     inkscape:window-x="-8"
     inkscape:cy="600"
     inkscape:cx="750"
     inkscape:zoom="0.68916667"
     showgrid="false"
     id="namedview1031"
     inkscape:window-height="1017"
     inkscape:window-width="1920"
     inkscape:pageshadow="2"
     inkscape:pageopacity="0"
     guidetolerance="10"
     gridtolerance="10"
     objecttolerance="10"
     borderopacity="1"
     bordercolor="#666666"
     pagecolor="#ffffff" />
  <metadata
     id="metadata833">
Created by potrace 1.13, written by Peter Selinger 2001-2015
<rdf:RDF>
  <cc:Work
     rdf:about="">
    <dc:format>image/svg+xml</dc:format>
    <dc:type
       rdf:resource="http://purl.org/dc/dcmitype/StillImage" />
    <dc:title></dc:title>
  </cc:Work>
</rdf:RDF>
</metadata>
  <path
     style="stroke-width:0.1"
     d="m 811,8 c -1.1,1.1 -2,3.3 -2,5 0,1.7 0.9,3.9 2,5 1.1,1.1 3.3,2 5,2 1.7,0 3.9,-0.9 5,-2 1.1,-1.1 2,-3.3 2,-5 0,-1.7 -0.9,-3.9 -2,-5 -1.1,-1.1 -3.3,-2 -5,-2 -1.7,0 -3.9,0.9 -5,2 z"
     id="path837" />
  <path
     style="stroke-width:0.1"
     d="m 725.2,26.3 c -4.5,4.8 -1.4,11.7 5.1,11.7 4.2,0 6.7,-2.6 6.7,-6.8 0,-6.5 -7.4,-9.6 -11.8,-4.9 z"
     id="path839" />
  <path
     style="stroke-width:0.1"
     d="m 597,49.5 c 0,1.7 44.5,84.5 45.4,84.5 1.7,0 73.6,-33.5 73.3,-34.2 C 715.1,98 665.6,55 663.7,54.6 662.5,54.3 649.6,53.2 635,52 620.4,50.9 605.9,49.7 602.8,49.3 599.6,49 597,49.1 597,49.5 Z m 39.1,8.9 26.7,2.3 21.2,18.8 c 20.3,18.1 21.1,18.9 18.8,20.1 -8,4.1 -57.9,26.6 -58.2,26.3 -0.3,-0.2 -7,-12.8 -15.1,-27.9 -8.1,-15.1 -16.4,-30.8 -18.6,-34.8 -2.4,-4.4 -3.5,-7.2 -2.7,-7.2 0.7,0.1 13.3,1.1 27.9,2.4 z"
     id="path841" />
  <path
     style="stroke-width:0.1"
     d="m 110.1,55.6 c -1.2,1.5 -2.1,3.5 -2.1,4.6 0,2.7 4.5,6.8 7.5,6.8 3,0 7.5,-4.1 7.5,-6.8 0,-3.5 -3.8,-7.2 -7.5,-7.2 -2.4,0 -3.9,0.7 -5.4,2.6 z"
     id="path843" />
  <path
     style="stroke-width:0.1"
     d="m 886.5,65.5 c -3,3 -3.1,5.4 -0.4,8.9 2,2.6 6.9,3.6 9.5,1.8 1.5,-1 3.4,-4.7 3.4,-6.7 0,-2.5 -4.6,-6.5 -7.5,-6.5 -1.4,0 -3.7,1.1 -5,2.5 z"
     id="path845" />
  <path
     style="stroke-width:0.1"
     d="m 451.5,73 c -4.2,4.6 -1,12 5.1,12 3.5,0 7.4,-3.7 7.4,-7 0,-1 -0.9,-2.9 -2.1,-4.4 -2.6,-3.3 -7.7,-3.6 -10.4,-0.6 z"
     id="path847" />
  <path
     style="stroke-width:0.1"
     d="m 193.3,74 c -2.5,1 -4.3,3.9 -4.3,7 0,2.9 4.4,7 7.5,7 6.2,0 8.9,-8.9 3.9,-12.9 -2.9,-2.3 -3.8,-2.4 -7.1,-1.1 z"
     id="path849" />
  <path
     style="stroke-width:0.1"
     d="m 992.2,74.6 c -6.3,4.4 -3.7,13.4 3.9,13.4 2.8,0 6.9,-4.4 6.9,-7.3 0,-5.5 -6.5,-9.2 -10.8,-6.1 z"
     id="path851" />
  <path
     style="stroke-width:0.1"
     d="m 321.1,81.6 c -1.2,1.5 -2.1,3.4 -2.1,4.4 0,3.2 3.9,7 7.1,7 3.4,0 7.9,-3.9 7.9,-6.8 0,-3.5 -3.8,-7.2 -7.5,-7.2 -2.4,0 -3.9,0.7 -5.4,2.6 z"
     id="path853" />
  <path
     style="stroke-width:0.1"
     d="m 558.1,86.6 c -1.2,1.5 -2.1,3.4 -2.1,4.4 0,3.4 3.9,7 7.5,7 3.6,0 7.5,-3.6 7.5,-7 0,-3.4 -3.9,-7 -7.5,-7 -2.4,0 -3.9,0.7 -5.4,2.6 z"
     id="path855" />
  <path
     style="stroke-width:0.1"
     d="m 1053.5,105.6 -10.9,16.6 4.8,24.6 c 2.7,13.6 5.2,25.5 5.5,26.5 0.6,1.7 8.9,-4.8 35.9,-28.4 l 3.2,-2.9 -13.2,-26.5 C 1071.5,100.9 1065.3,89 1065,89 c -0.3,0 -5.4,7.5 -11.5,16.6 z m 30.4,34.6 c 0.1,0.9 -25.9,23.1 -26.5,22.6 -0.2,-0.3 -2.2,-9.2 -4.3,-19.9 l -4,-19.4 7.6,-11.5 7.6,-11.4 9.8,19.4 c 5.4,10.7 9.8,19.8 9.8,20.2 z"
     id="path857" />
  <path
     style="stroke-width:0.1"
     d="m 240,93.3 c 0,0.2 -2.7,13.8 -6,30.2 -3.3,16.4 -6,30 -6,30.1 0,0.2 -8,6.9 -17.7,14.9 -9.8,8.1 -17.9,15 -18.1,15.4 -0.1,0.3 16.6,9 37.1,19.3 l 37.4,18.6 8.8,-38.1 c 4.8,-21 8.8,-38.7 8.9,-39.4 0.1,-1 -43,-51.3 -44,-51.3 -0.2,0 -0.4,0.1 -0.4,0.3 z m 22.9,34.5 c 10,11.5 15,18 14.7,19 -0.3,1 -3.7,16 -7.7,33.4 -4,17.5 -7.7,31.8 -8.1,31.8 -2.1,0 -59,-29.2 -58.2,-29.9 0.5,-0.4 7.5,-6.3 15.5,-12.9 l 14.6,-12.1 4.7,-23.8 c 2.6,-13.1 4.9,-24.4 5.2,-25.2 0.6,-1.8 -0.1,-2.6 19.3,19.7 z"
     id="path859" />
  <path
     style="stroke-width:0.1"
     d="m 388.1,109.7 c 0,1 1.3,9.9 2.7,19.9 l 2.7,18.1 17.8,15.3 c 15.8,13.5 17.9,15.1 19.5,13.9 0.9,-0.8 8.4,-7 16.5,-13.8 12.2,-10.1 14.6,-12.6 13.5,-13.6 -1.3,-1.2 -71.6,-41.5 -72.4,-41.5 -0.2,0 -0.4,0.8 -0.3,1.7 z m 34.7,24.9 c 14.1,8.1 26.3,15.2 27,15.9 1.1,1 -0.4,2.7 -8,9 -5.1,4.3 -10.1,8.5 -11,9.3 -1.5,1.2 -3.2,0.1 -16.5,-11.4 l -14.8,-12.7 -1.7,-10.6 C 396,122.5 395.7,120 396.5,120 c 0.3,0 12.1,6.6 26.3,14.6 z"
     id="path861" />
  <path
     style="stroke-width:0.1"
     d="m 821.1,138.6 c -1.2,1.5 -2.1,3.4 -2.1,4.4 0,3.4 3.9,7 7.5,7 2.4,0 3.9,-0.7 5.4,-2.6 2.7,-3.5 2.6,-5.9 -0.4,-8.9 -3.3,-3.4 -7.7,-3.3 -10.4,0.1 z"
     id="path863" />
  <path
     style="stroke-width:0.1"
     d="m 94.2,152.6 c -7.9,3.3 -3.1,15.1 5.3,13 2.8,-0.7 5.7,-5.8 4.7,-8.5 -1.6,-4.8 -5.4,-6.5 -10,-4.5 z"
     id="path865" />
  <path
     style="stroke-width:0.1"
     d="m 935.6,167.2 c -3.6,5.1 -0.3,11.8 5.6,11.8 5.7,0 8.7,-6.8 5.2,-11.8 -1.1,-1.6 -2.5,-2.2 -5.4,-2.2 -2.9,0 -4.3,0.6 -5.4,2.2 z"
     id="path867" />
  <path
     style="stroke-width:0.1"
     d="m 841.2,204.2 -20.9,29.3 31.4,0.3 31.5,0.2 14.1,-10.4 c 7.8,-5.8 15.5,-11.6 17.1,-12.9 l 2.9,-2.3 -27.2,-16.7 C 875.2,182.5 862.8,175 862.5,175 c -0.2,0 -9.8,13.2 -21.3,29.2 z m 59.6,1.5 5.4,3.4 -12.6,9.5 -12.6,9.4 -24.4,-0.2 -24.4,-0.3 12.1,-17 c 6.7,-9.4 13.9,-19.4 15.9,-22.3 l 3.8,-5.2 15.7,9.7 c 8.7,5.2 18.2,11.1 21.1,13 z"
     id="path869" />
  <path
     style="stroke-width:0.1"
     d="m 556.2,184.6 c -1.6,1.1 -2.2,2.5 -2.2,5.4 0,2.9 0.6,4.3 2.2,5.4 5.1,3.6 11.8,0.5 11.8,-5.4 0,-5.9 -6.7,-9 -11.8,-5.4 z"
     id="path871" />
  <path
     style="stroke-width:0.1"
     d="m 328.3,186.2 c -6.8,3.3 -4,13.8 3.7,13.8 2.8,0 7,-4.4 7,-7.3 0,-5.1 -6.1,-8.8 -10.7,-6.5 z"
     id="path873" />
  <path
     style="stroke-width:0.1"
     d="m 660,190 c -2.6,2.6 -2.6,8.1 -0.2,10.3 2.8,2.5 8.7,2.2 10.6,-0.5 5.1,-7.3 -4.2,-16 -10.4,-9.8 z"
     id="path875" />
  <path
     style="stroke-width:0.1"
     d="m 767.7,215.2 c -6.5,5 -1.2,15.3 6.4,12.6 5.3,-1.8 6.5,-7.3 2.4,-11.3 -2.6,-2.7 -6.2,-3.2 -8.8,-1.3 z"
     id="path877" />
  <path
     style="stroke-width:0.1"
     d="m 1022,224 c -1.1,1.1 -2,3.3 -2,5 0,1.7 0.9,3.9 2,5 4.3,4.3 12,1.1 12,-5 0,-3.8 -3.2,-7 -7,-7 -1.7,0 -3.9,0.9 -5,2 z"
     id="path879" />
  <path
     style="stroke-width:0.1"
     d="m 566.5,250.1 c -17.6,13.2 -32.3,24.3 -32.8,24.8 -0.6,0.6 56.2,46.1 57.6,46.1 0.3,0 6.9,-11.9 14.7,-26.4 l 14.1,-26.4 -10.6,-21.1 C 603.7,235.5 598.9,226 598.7,226 c -0.1,0 -14.6,10.9 -32.2,24.1 z m 38.5,2 8.1,16.1 -11.8,21.8 c -10.2,19.1 -11.9,21.7 -13.3,20.7 -0.9,-0.7 -11.4,-8.8 -23.3,-18.1 l -21.6,-16.9 26.2,-19.8 c 14.4,-10.9 26.5,-19.8 26.9,-19.8 0.5,-0.1 4.4,7.1 8.8,16 z"
     id="path881" />
  <path
     style="stroke-width:0.1"
     d="m 443.7,231.8 c -4,4.4 -0.7,12.2 5.1,12.2 6,0 9.4,-7.8 5.2,-12 -2.6,-2.6 -8.1,-2.6 -10.3,-0.2 z"
     id="path883" />
  <path
     style="stroke-width:0.1"
     d="m 160.6,234.1 c -1.9,1.5 -2.6,3 -2.6,5.4 0,3.6 3.6,7.5 7,7.5 3.4,0 7,-3.9 7,-7.5 0,-3.6 -3.6,-7.5 -7,-7.5 -1,0 -2.9,0.9 -4.4,2.1 z"
     id="path885" />
  <path
     style="stroke-width:0.1"
     d="m 94,246.6 c -0.8,0.1 -17.4,2 -36.7,4 -19.4,2.1 -35.3,4.2 -35.3,4.7 0,1.5 31.1,54.7 32,54.7 0.6,0 47.2,-59.2 49.3,-62.7 0.6,-1 -0.2,-1.3 -3.5,-1.2 -2.4,0.1 -5,0.3 -5.8,0.5 z M 89.8,254 C 89.5,255.1 54.7,300 54.4,299.7 51,294.8 32,260.6 32.5,260.2 c 0.3,-0.4 13.1,-2.1 28.3,-3.8 15.2,-1.8 28.1,-3.2 28.5,-3.3 0.5,0 0.7,0.3 0.5,0.9 z"
     id="path887" />
  <path
     style="stroke-width:0.1"
     d="m 264.2,263.3 c -4.5,4.8 -1.4,11.7 5.1,11.7 4.2,0 6.7,-2.6 6.7,-6.8 0,-6.5 -7.4,-9.6 -11.8,-4.9 z"
     id="path889" />
  <path
     style="stroke-width:0.1"
     d="m 936,276 c -2.4,2.4 -2.6,6.7 -0.4,9.8 1.1,1.6 2.5,2.2 5.4,2.2 2.9,0 4.3,-0.6 5.4,-2.2 3.6,-5.1 0.5,-11.8 -5.4,-11.8 -1.7,0 -3.9,0.9 -5,2 z"
     id="path891" />
  <path
     style="stroke-width:0.1"
     d="m 362.6,279.2 c -5,7.1 4.3,15.9 10.4,9.8 2.6,-2.6 2.6,-8.1 0.2,-10.3 -2.8,-2.5 -8.7,-2.2 -10.6,0.5 z"
     id="path893" />
  <path
     style="stroke-width:0.1"
     d="m 834.6,278.5 c -5.9,6 1,15.5 8.3,11.4 6.3,-3.6 4.2,-12.1 -3.1,-12.7 -2.3,-0.2 -4.1,0.3 -5.2,1.3 z"
     id="path895" />
  <path
     style="stroke-width:0.1"
     d="m 660,289 c -2.4,2.4 -2.6,6.7 -0.4,9.8 1.1,1.6 2.5,2.2 5.4,2.2 2.9,0 4.3,-0.6 5.4,-2.2 3.6,-5.1 0.5,-11.8 -5.4,-11.8 -1.7,0 -3.9,0.9 -5,2 z"
     id="path897" />
  <path
     style="stroke-width:0.1"
     d="m 503.5,318 c -4.2,4.7 -0.8,12 5.5,12 3.3,0 7,-4 7,-7.6 0,-5.7 -8.6,-8.7 -12.5,-4.4 z"
     id="path899" />
  <path
     style="stroke-width:0.1"
     d="m 746,323 c -1.1,1.1 -2,3.3 -2,5 0,1.7 0.9,3.9 2,5 1.1,1.1 3.3,2 5,2 1.7,0 3.9,-0.9 5,-2 1.1,-1.1 2,-3.3 2,-5 0,-1.7 -0.9,-3.9 -2,-5 -1.1,-1.1 -3.3,-2 -5,-2 -1.7,0 -3.9,0.9 -5,2 z"
     id="path901" />
  <path
     style="stroke-width:0.1"
     d="m 178.3,348 -15.3,23 7.7,15.5 7.8,15.5 h 21 21.1 L 233,374.6 c 6.8,-15.1 12.3,-27.8 12.3,-28.2 -0.1,-0.5 -51.5,-21.7 -51.8,-21.4 0,0 -6.9,10.4 -15.2,23 z m 38.1,-7 c 10.9,4.4 20.1,8.2 20.4,8.4 0.3,0.3 -4.2,10.9 -9.9,23.5 l -10.4,23 -17,0.1 h -17 l -6.1,-12.2 -6.1,-12.3 12.9,-19.2 c 7,-10.6 13,-19.3 13.1,-19.3 0.2,0 9.2,3.6 20.1,8 z"
     id="path903" />
  <path
     style="stroke-width:0.1"
     d="m 405.1,341.1 c -22.1,4.3 -40.5,8 -40.8,8.2 -0.5,0.6 24.5,50.7 25.3,50.7 1,0 66.9,-27.2 67.7,-27.9 0.4,-0.4 -1.1,-9.4 -3.5,-19.9 -3.8,-17.5 -4.4,-19.2 -6.2,-19.1 -1.2,0.1 -20.3,3.6 -42.5,8 z m 42.6,12.6 c 1.7,7.6 2.8,14.1 2.5,14.5 -0.7,0.7 -56.6,23.8 -57.6,23.8 -0.6,0 -19.8,-37.9 -19.4,-38.1 0.5,-0.2 69.3,-13.7 70.4,-13.8 0.6,-0.1 2.4,6 4.1,13.6 z"
     id="path905" />
  <path
     style="stroke-width:0.1"
     d="m 298,336 c -4.3,4.3 -1.1,12 5,12 3.8,0 7,-3.2 7,-7 0,-3.8 -3.2,-7 -7,-7 -1.7,0 -3.9,0.9 -5,2 z"
     id="path907" />
  <path
     style="stroke-width:0.1"
     d="m 105.5,341.5 c -4.1,4 -2.9,9.5 2.4,11.3 3.6,1.3 7.1,-0.3 8.9,-4.1 1.1,-2.2 1,-3.1 -0.2,-5.5 -2.5,-4.9 -7.3,-5.6 -11.1,-1.7 z"
     id="path909" />
  <path
     style="stroke-width:0.1"
     d="m 1079.5,341.5 c -4.1,4 -2.9,9.5 2.4,11.3 5.7,2 10.9,-3.2 8.9,-8.9 -1.8,-5.3 -7.3,-6.5 -11.3,-2.4 z"
     id="path911" />
  <path
     style="stroke-width:0.1"
     d="m 992.2,347.6 c -14.5,1.2 -26.7,2.5 -27,2.9 -0.6,0.5 3.4,37.1 4.4,40.7 0.5,1.7 3.1,1.8 36.5,1.8 19.7,0 35.9,-0.3 35.9,-0.7 0,-0.4 -3.5,-11.2 -7.7,-24 l -7.8,-23.3 -4,0.1 c -2.2,0.1 -15.9,1.2 -30.3,2.5 z m 35.8,21.8 5.9,17.6 h -29.3 -29.3 l -1.8,-15 c -1,-8.3 -1.5,-15.4 -1.1,-15.8 0.6,-0.6 48.5,-5.1 49.4,-4.6 0.1,0.1 2.9,8.1 6.2,17.8 z"
     id="path913" />
  <path
     style="stroke-width:0.1"
     d="m 891.3,363 c -4.8,1.9 -5.8,8.7 -1.7,11.9 5.3,4.1 11.4,1.3 11.4,-5.2 0,-5.1 -5,-8.6 -9.7,-6.7 z"
     id="path915" />
  <path
     style="stroke-width:0.1"
     d="m 690,366.7 c 0,0.5 -1.3,16.1 -2.9,34.8 -1.6,18.7 -2.7,34.2 -2.4,34.5 0.3,0.3 6.2,0.5 13.1,0.4 17.9,0 27.6,-3.1 36.9,-11.7 7.7,-7.1 11,-16.3 9.1,-25.1 -0.8,-3.8 -2.1,-6 -5.8,-9.7 -5.5,-5.5 -10.6,-8.3 -27.9,-15.1 -6.8,-2.7 -14.1,-5.8 -16.2,-6.9 -2.2,-1.1 -3.9,-1.6 -3.9,-1.2 z m 17.6,13.8 c 14.5,5.6 22.2,9.7 26.3,13.9 5.3,5.5 5.4,13.8 0.2,21.6 -5.7,8.6 -17,13.5 -33.8,14.6 l -9.6,0.7 0.6,-5.4 c 0.3,-3 1.4,-15.4 2.3,-27.7 1,-12.2 1.9,-22.2 2.1,-22.2 0.1,0 5.5,2 11.9,4.5 z"
     id="path917" />
  <path
     style="stroke-width:0.1"
     d="m 587.6,380.1 c -5,3.9 -2.2,12.2 4.2,12.2 6.6,0 9.8,-7.8 5,-12.3 -2.8,-2.6 -5.8,-2.6 -9.2,0.1 z"
     id="path919" />
  <path
     style="stroke-width:0.1"
     d="m 21.7,403.8 c -2.4,2.6 -2.1,7.7 0.5,10.2 6.3,5.8 15.2,-2.6 10.2,-9.8 -2,-2.8 -8.3,-3.1 -10.7,-0.4 z"
     id="path921" />
  <path
     style="stroke-width:0.1"
     d="m 492.2,423.6 c -6.3,4.4 -3.7,13.4 3.9,13.4 2.8,0 6.9,-4.4 6.9,-7.3 0,-5.5 -6.5,-9.2 -10.8,-6.1 z"
     id="path923" />
  <path
     style="stroke-width:0.1"
     d="m 237.6,430.2 c -5,7.1 4.3,15.9 10.4,9.8 2.6,-2.6 2.6,-8.1 0.2,-10.3 -2.8,-2.5 -8.7,-2.2 -10.6,0.5 z"
     id="path925" />
  <path
     style="stroke-width:0.1"
     d="m 128.3,436 c -2.6,1.1 -4.3,4 -4.3,7.4 0,2.7 4.1,6.6 7,6.6 3.4,0 7,-3.9 7,-7.5 0,-2.4 -0.7,-3.9 -2.6,-5.4 -2.9,-2.3 -3.8,-2.4 -7.1,-1.1 z"
     id="path927" />
  <path
     style="stroke-width:0.1"
     d="m 965,435.7 c -5.6,2.1 -6.8,8.7 -2.4,12.2 1.5,1.2 3.4,2.1 4.4,2.1 3.4,0 7,-3.9 7,-7.5 0,-4.9 -4.6,-8.4 -9,-6.8 z"
     id="path929" />
  <path
     style="stroke-width:0.1"
     d="m 367.2,443.7 c -0.7,0.3 -1.9,1.8 -2.7,3.3 -4,7.7 7.1,14.7 12,7.7 4.2,-6 -2.4,-13.8 -9.3,-11 z"
     id="path931" />
  <path
     style="stroke-width:0.1"
     d="m 837.2,453.3 c -4.3,4.6 -1.6,11.7 4.6,11.9 4.3,0.1 7.2,-2.6 7.2,-6.9 0,-6.6 -7.4,-9.7 -11.8,-5 z"
     id="path933" />
  <path
     style="stroke-width:0.1"
     d="m 1063,456.7 c -1.5,1.9 -1.9,3.5 -1.5,5.3 1.4,6.2 9,7.9 12.8,2.8 5.4,-7.3 -5.6,-15.3 -11.3,-8.1 z"
     id="path935" />
  <path
     style="stroke-width:0.1"
     d="m 618.2,461.3 c -4.4,4.7 -1.3,11.7 5.2,11.7 4.1,0 6.9,-2.9 6.9,-7.2 0,-6.1 -7.8,-9.1 -12.1,-4.5 z"
     id="path937" />
  <path
     style="stroke-width:0.1"
     d="m 448.5,464.7 c 1.8,11.9 8,27.2 15.8,38.8 8,11.8 15.5,18 48.6,39.9 17.3,11.4 31.7,20.4 32.1,19.9 1.5,-1.7 18.3,-67.4 17.4,-68.2 -0.9,-0.8 -112.1,-35.1 -113.8,-35.1 -0.4,0 -0.5,2.1 -0.1,4.7 z m 58.3,19.5 c 29.5,9 49.1,15.6 48.9,16.2 -0.2,0.6 -3.5,12.9 -7.3,27.3 -3.8,14.5 -7.3,26.3 -7.7,26.3 -0.4,0 -13.5,-8.5 -29.1,-18.9 -21.2,-14.2 -29.7,-20.5 -34.1,-25.2 -8.9,-9.7 -15.4,-20.6 -19.4,-32.8 -2.3,-7 -2.5,-8.1 -1.4,-8.1 0.5,0 23,6.8 50.1,15.2 z"
     id="path939" />
  <path
     style="stroke-width:0.1"
     d="M 868.3,485.6 C 852.7,498 840,508.5 840,508.8 c 0.1,0.8 87.9,39.2 89.6,39.2 1.2,0 5.8,-14.3 7.4,-22.9 0.6,-2.9 1,-9.5 1,-14.5 0,-12.8 -1.8,-16 -13.5,-24.8 -4.9,-3.7 -12.9,-10.4 -17.7,-14.8 -4.7,-4.4 -9,-8 -9.5,-8 -0.4,0 -13.5,10.2 -29,22.6 z m 36.5,-7.8 c 4.2,3.7 11.5,9.6 16.1,13.1 10.6,8.1 11.5,10.1 10.8,23.6 -0.5,8.1 -3.7,23.8 -5.2,25.3 -0.6,0.7 -74.6,-32.1 -74.3,-32.9 0.3,-0.7 44,-35.9 44.6,-35.9 0.2,0 3.8,3 8,6.8 z"
     id="path941" />
  <path
     style="stroke-width:0.1"
     d="m 764.2,466.3 c -4.3,4.6 -1.6,11.7 4.6,11.9 4.3,0.1 7.2,-2.6 7.2,-6.9 0,-6.6 -7.4,-9.7 -11.8,-5 z"
     id="path943" />
  <path
     style="stroke-width:0.1"
     d="m 242.8,500.6 c -11.5,5.7 -20.8,10.7 -20.8,11 0,0.3 7,12.3 15.6,26.5 l 15.5,26 2.9,-2.5 c 6.6,-5.5 55,-49.9 54.8,-50.1 -0.2,-0.2 -10.6,-4.9 -23.3,-10.5 -12.6,-5.6 -23.2,-10.3 -23.5,-10.5 -0.3,-0.2 -9.8,4.4 -21.2,10.1 z m 44.6,7.2 12.8,5.7 -3,2.5 c -1.6,1.4 -11.6,10.4 -22.1,20 -10.6,9.6 -19.6,17.6 -19.9,17.8 -0.7,0.2 -23.4,-37 -24,-39.2 -0.1,-0.6 7.1,-4.8 16,-9.2 l 16.3,-8.1 5.5,2.4 c 3,1.3 11.3,5 18.4,8.1 z"
     id="path945" />
  <path
     style="stroke-width:0.1"
     d="m 683.5,505.5 c -3.9,3.9 -3.2,8.6 1.7,11.1 5.9,3 12.2,-2.7 9.9,-8.9 -1.9,-5.1 -7.7,-6.2 -11.6,-2.2 z"
     id="path947" />
  <path
     style="stroke-width:0.1"
     d="m 353.3,526.8 c -5.1,0.8 -7,8.3 -3,12 4.8,4.5 11.7,1.4 11.7,-5.1 0,-4.8 -3.8,-7.7 -8.7,-6.9 z"
     id="path949" />
  <path
     style="stroke-width:0.1"
     d="m 985.5,531.5 c -2.8,2.7 -3,4.2 -1.4,7.9 1.6,3.4 5.8,5.1 9.1,3.5 2.6,-1.1 4.8,-4.6 4.8,-7.5 0,-2.4 -4.7,-6.4 -7.5,-6.4 -1.4,0 -3.7,1.1 -5,2.5 z"
     id="path951" />
  <path
     style="stroke-width:0.1"
     d="m 719.1,558.2 -25.5,28.3 25.4,0.3 c 13.9,0.1 25.5,0.1 25.7,-0.1 0.2,-0.2 0.2,-13.1 0.1,-28.6 L 744.5,530 Z m 19.9,5.3 V 581 h -15.6 c -8.6,0 -15.4,-0.4 -15.2,-0.8 0.3,-0.9 30.1,-34.2 30.6,-34.2 0.1,0 0.2,7.9 0.2,17.5 z"
     id="path953" />
  <path
     style="stroke-width:0.1"
     d="m 58.5,539.5 c -2.8,2.7 -3.1,4.5 -1.4,7.8 1.6,3 2.8,3.7 6.6,3.7 4.1,0 7.7,-4.2 6.8,-8 -1.4,-5.8 -7.8,-7.8 -12,-3.5 z"
     id="path955" />
  <path
     style="stroke-width:0.1"
     d="m 194.2,544 c -5,4.7 -0.6,14 5.8,12.5 6,-1.4 8,-8.8 3.4,-12.4 -3.4,-2.7 -6.4,-2.7 -9.2,-0.1 z"
     id="path957" />
  <path
     style="stroke-width:0.1"
     d="m 595.6,557.1 c -3.6,2.9 -3.6,8 0.1,10.9 4.7,3.7 11.3,0.2 11.3,-6 0,-3.1 -3.9,-7 -7,-7 -1,0 -2.9,0.9 -4.4,2.1 z"
     id="path959" />
  <path
     style="stroke-width:0.1"
     d="m 426.2,564.7 c -5.2,4.4 -2.4,12.3 4.3,12.3 6.7,0 9.7,-6.9 5,-11.5 -2.8,-2.9 -6.5,-3.2 -9.3,-0.8 z"
     id="path961" />
  <path
     style="stroke-width:0.1"
     d="m 24.1,612.6 c -1.2,1.5 -2.1,3.4 -2.1,4.4 0,3.4 3.9,7 7.5,7 3.6,0 7.5,-3.6 7.5,-7 0,-3.4 -3.9,-7 -7.5,-7 -2.4,0 -3.9,0.7 -5.4,2.6 z"
     id="path963" />
  <path
     style="stroke-width:0.1"
     d="m 184.8,613.6 c -7.5,4 -2.1,15.6 6,12.8 6.3,-2.2 6.3,-11.1 0,-13.3 -1.7,-0.6 -3.1,-1.1 -3.2,-1.1 -0.1,0.1 -1.3,0.7 -2.8,1.6 z"
     id="path965" />
  <path
     style="stroke-width:0.1"
     d="m 546,612.7 c -5.1,1.9 -6.8,8.5 -3,12.3 6.1,6.1 15.9,-3.3 10.3,-9.8 -2,-2.3 -5,-3.3 -7.3,-2.5 z"
     id="path967" />
  <path
     style="stroke-width:0.1"
     d="m 667.7,619.8 c -2.5,2.8 -2.2,8.7 0.5,10.6 7.1,5 15.9,-4.3 9.8,-10.4 -2.6,-2.6 -8.1,-2.6 -10.3,-0.2 z"
     id="path969" />
  <path
     style="stroke-width:0.1"
     d="m 912.1,620.6 c -2.7,3.5 -2.6,5.9 0.4,8.9 3.3,3.4 7.7,3.3 10.4,-0.1 1.2,-1.5 2.1,-3.4 2.1,-4.4 0,-3.4 -3.9,-7 -7.5,-7 -2.4,0 -3.9,0.7 -5.4,2.6 z"
     id="path971" />
  <path
     style="stroke-width:0.1"
     d="m 819,625 c -2.6,2.6 -2.6,8.1 -0.2,10.3 4.4,4 12.2,0.7 12.2,-5.1 0,-6 -7.8,-9.4 -12,-5.2 z"
     id="path973" />
  <path
     style="stroke-width:0.1"
     d="m 443.3,626 c -4.7,1.9 -5.6,7.8 -1.8,11.5 4.7,4.8 11.5,1.9 11.5,-4.8 0,-5.1 -5,-8.6 -9.7,-6.7 z"
     id="path975" />
  <path
     style="stroke-width:0.1"
     d="m 305.7,632.8 c -2.5,2.8 -2.2,8.7 0.5,10.6 7.1,5 15.9,-4.3 9.8,-10.4 -2.6,-2.6 -8.1,-2.6 -10.3,-0.2 z"
     id="path977" />
  <path
     style="stroke-width:0.1"
     d="m 1022,646 c -4.3,4.3 -1.1,12 5,12 3.8,0 7,-3.2 7,-7 0,-3.8 -3.2,-7 -7,-7 -1.7,0 -3.9,0.9 -5,2 z"
     id="path979" />
  <path
     style="stroke-width:0.1"
     d="m 209.3,679.2 c -9.5,13.8 -17.1,25.3 -16.9,25.6 0.6,0.5 39.4,6.1 42.9,6.2 2,0 5.1,-1.8 10.5,-6.2 4.2,-3.4 7.8,-6.2 7.9,-6.3 0.2,-0.1 -1.1,-7.2 -2.8,-15.8 l -3.2,-15.6 -9.8,-6.5 c -5.4,-3.6 -10.2,-6.6 -10.6,-6.6 -0.5,0 -8.6,11.4 -18,25.2 z m 26,-13 c 3.4,2.2 6.3,4.2 6.4,4.3 0.7,0.4 5.2,24.8 4.8,25.5 -0.2,0.4 -2.8,2.6 -5.8,4.8 l -5.3,4.1 -15.9,-2.3 c -11.4,-1.7 -15.9,-2.7 -15.7,-3.6 0.3,-1.2 24.4,-36.9 25,-37 0.2,0 3.1,1.9 6.5,4.2 z"
     id="path981" />
  <path
     style="stroke-width:0.1"
     d="m 105.1,664.6 c -4.1,5.3 -1.3,11.4 5.2,11.4 4.2,0 7,-2.9 7,-7.2 0,-6.4 -8.3,-9.2 -12.2,-4.2 z"
     id="path983" />
  <path
     style="stroke-width:0.1"
     d="m 581.1,699.7 c -9.6,13.7 -17.4,25.3 -17.5,25.9 -0.1,0.6 5.6,5.7 12.5,11.3 8.7,7 13.5,10.1 15.3,10.1 2.4,0 119.2,-13.8 120.8,-14.3 0.5,-0.1 -5.4,-8.9 -12.9,-19.5 L 685.5,694 H 661.3 637 l -19,-9.5 c -10.4,-5.2 -19.1,-9.5 -19.3,-9.5 -0.2,0 -8.1,11.1 -17.6,24.7 z m 38,-7.7 18.1,9 h 22.8 22.8 l 9.5,13.2 c 5.2,7.3 9.2,13.4 8.8,13.5 -2.6,1 -109.6,13.1 -110.5,12.6 -0.6,-0.4 -5.2,-4 -10.3,-8 l -9.1,-7.4 14.6,-20.9 c 8.1,-11.6 14.8,-21 14.9,-21 0.1,0 8.4,4 18.4,9 z"
     id="path985" />
  <path
     style="stroke-width:0.1"
     d="m 901.3,678.5 c -16.5,1.3 -30.6,2.4 -31.1,2.6 -1.4,0.5 50.6,57.5 52.1,57.1 1.8,-0.4 64,-24.3 65.5,-25.1 0.8,-0.5 -7.1,-7.2 -22.2,-18.9 l -23.4,-18.2 -5.4,0.1 c -2.9,0.1 -18.9,1.2 -35.5,2.4 z m 56.7,17.6 c 10,7.8 17.8,14.5 17.3,14.9 -1.3,1.2 -51.3,20.2 -52.2,19.8 -0.6,-0.2 -10,-10.2 -20.9,-22.3 -17.9,-19.6 -19.8,-22 -17.6,-22.3 2.6,-0.3 47.8,-3.8 52.5,-4.1 2,-0.1 7.3,3.5 20.9,14 z"
     id="path987" />
  <path
     style="stroke-width:0.1"
     d="m 397,690 c -2.6,2.6 -2.6,8.1 -0.2,10.3 2.8,2.5 8.7,2.2 10.6,-0.5 5.1,-7.3 -4.2,-16 -10.4,-9.8 z"
     id="path989" />
  <path
     style="stroke-width:0.1"
     d="m 516.5,693 c -2.6,2.9 -2.4,7.9 0.4,10.2 7,5.6 16.4,-3.9 10.1,-10.2 -2.6,-2.6 -8.1,-2.6 -10.5,0 z"
     id="path991" />
  <path
     style="stroke-width:0.1"
     d="m 761.1,693.6 c -1.2,1.5 -2.1,3.5 -2.1,4.6 0,2.7 4.5,6.8 7.5,6.8 2.9,0 7.5,-4 7.5,-6.5 0,-2 -1.9,-5.7 -3.4,-6.7 -2.6,-1.8 -7.5,-0.8 -9.5,1.8 z"
     id="path993" />
  <path
     style="stroke-width:0.1"
     d="m 280.7,713.2 c -3.7,3.3 -4,7.5 -0.7,10.8 2.7,2.7 6.6,2.5 9.5,-0.5 2.9,-2.8 3.2,-6.5 0.8,-9.3 -2.8,-3.3 -6.6,-3.7 -9.6,-1 z"
     id="path995" />
  <path
     style="stroke-width:0.1"
     d="m 847.5,742.5 c -2.8,2.7 -3,4.2 -1.4,7.8 3.2,7.1 13.9,4.1 13.9,-3.9 0,-2.4 -4.7,-6.4 -7.5,-6.4 -1.4,0 -3.7,1.1 -5,2.5 z"
     id="path997" />
  <path
     style="stroke-width:0.1"
     d="m 51.2,749.7 c -5.2,4.4 -2.4,12.3 4.3,12.3 3.6,0 7.5,-3.6 7.5,-7 0,-1 -0.9,-2.9 -2.1,-4.4 -2.4,-3.1 -6.7,-3.5 -9.7,-0.9 z"
     id="path999" />
  <path
     style="stroke-width:0.1"
     d="m 152.2,750.3 c -4.5,4.8 -1.4,11.7 5.1,11.7 4.2,0 6.7,-2.6 6.7,-6.8 0,-6.5 -7.4,-9.6 -11.8,-4.9 z"
     id="path1001" />
  <path
     style="stroke-width:0.1"
     d="m 462.6,755.1 c -5,3.9 -2.2,12.2 4.2,12.2 6.6,0 9.8,-7.8 5,-12.3 -2.8,-2.6 -5.8,-2.6 -9.2,0.1 z"
     id="path1003" />
  <path
     style="stroke-width:0.1"
     d="m 1066.2,763.3 c -4.5,4.8 -1.4,11.7 5.1,11.7 4.3,0 6.7,-2.6 6.7,-7.3 0,-6.3 -7.4,-9.1 -11.8,-4.4 z"
     id="path1005" />
  <path
     style="stroke-width:0.1"
     d="m 693.7,770.8 c -2.5,2.8 -2.2,8.7 0.5,10.6 5.1,3.6 11.8,0.5 11.8,-5.4 0,-1.7 -0.9,-3.9 -2,-5 -2.6,-2.6 -8.1,-2.6 -10.3,-0.2 z"
     id="path1007" />
  <path
     style="stroke-width:0.1"
     d="m 363.6,773.1 c -3.6,2.8 -3.6,8 0,10.8 1.5,1.2 3.4,2.1 4.4,2.1 3.4,0 7,-3.9 7,-7.5 0,-3.6 -3.6,-7.5 -7,-7.5 -1,0 -2.9,0.9 -4.4,2.1 z"
     id="path1009" />
  <path
     style="stroke-width:0.1"
     d="m 962,784 c -4.3,4.3 -1.1,12 5,12 3.8,0 7,-3.2 7,-7 0,-3.8 -3.2,-7 -7,-7 -1.7,0 -3.9,0.9 -5,2 z"
     id="path1011" />
  <path
     style="stroke-width:0.1"
     d="m 388.4,797.2 -22.1,5.1 -10.1,17.6 -10.1,17.7 7.7,20.7 c 4.2,11.4 8,20.7 8.4,20.7 0.6,0 46,-19.9 46.4,-20.3 0.1,-0.1 1.1,-13 2.3,-28.7 1.2,-15.7 2.4,-30.6 2.7,-33.3 0.5,-4.1 0.4,-4.7 -1.3,-4.6 -1,0.1 -11.8,2.4 -23.9,5.1 z m 18.2,8 c -0.3,2.9 -1.3,15.2 -2.2,27.3 -0.9,12.1 -1.7,22 -1.8,22.1 -7.7,3.6 -37,16.3 -37.3,16.1 -0.1,-0.2 -3,-7.7 -6.3,-16.6 l -6,-16.2 8.8,-15.2 8.7,-15.1 16.5,-3.7 c 21.9,-4.9 20.4,-5 19.6,1.3 z"
     id="path1013" />
  <path
     style="stroke-width:0.1"
     d="m 258,804 c -1.1,1.1 -2,3.3 -2,5 0,1.7 0.9,3.9 2,5 4.3,4.3 12,1.1 12,-5 0,-3.8 -3.2,-7 -7,-7 -1.7,0 -3.9,0.9 -5,2 z"
     id="path1015" />
  <path
     style="stroke-width:0.1"
     d="m 543,828 c -2.5,2.5 -2.6,8.1 -0.2,10.3 4.6,4.2 12.2,1 12.2,-5.1 0,-6 -7.8,-9.4 -12,-5.2 z"
     id="path1017" />
  <path
     style="stroke-width:0.1"
     d="m 128.9,840.8 c -1.5,1.3 -2.2,3 -2.2,5.1 0,6.6 7.6,9.8 12.3,5.1 2.7,-2.7 2.5,-6.6 -0.5,-9.5 -2.9,-3 -6.4,-3.2 -9.6,-0.7 z"
     id="path1019" />
  <path
     style="stroke-width:0.1"
     d="m 775,849.7 c -5.3,1.9 -6.7,8.3 -2.7,12.1 2.9,2.8 5.7,2.8 9.1,0.1 5.7,-4.5 0.4,-14.6 -6.4,-12.2 z"
     id="path1021" />
  <path
     style="stroke-width:0.1"
     d="m 910.2,854 c -4.8,4.5 -1.6,12.3 5,12.3 6.1,0 9.1,-7.8 4.5,-12.1 -2.9,-2.8 -6.7,-2.8 -9.5,-0.2 z"
     id="path1023" />
  <path
     style="stroke-width:0.1"
     d="m 649.1,857.6 c -2.7,3.5 -2.6,5.9 0.4,8.9 3.3,3.4 7.7,3.3 10.4,-0.1 1.2,-1.5 2.1,-3.4 2.1,-4.4 0,-3.4 -3.9,-7 -7.5,-7 -2.4,0 -3.9,0.7 -5.4,2.6 z"
     id="path1025" />
</svg>
