<?xml version="1.0" encoding="UTF-8" standalone="no"?>
<svg
   xmlns:dc="http://purl.org/dc/elements/1.1/"
   xmlns:cc="http://creativecommons.org/ns#"
   xmlns:rdf="http://www.w3.org/1999/02/22-rdf-syntax-ns#"
   xmlns:svg="http://www.w3.org/2000/svg"
   xmlns="http://www.w3.org/2000/svg"
   xmlns:sodipodi="http://sodipodi.sourceforge.net/DTD/sodipodi-0.dtd"
   xmlns:inkscape="http://www.inkscape.org/namespaces/inkscape"
   inkscape:version="1.0 (4035a4fb49, 2020-05-01)"
   sodipodi:docname="USGS_622_colour_nobox.svg"
   id="svg21138"
   preserveAspectRatio="xMidYMid meet"
   viewBox="0 0 1125.000000 900.000000"
   height="900.000000pt"
   width="1125.000000pt"
   version="1.0">
  <defs
     id="defs21142" />
  <sodipodi:namedview
     inkscape:current-layer="svg21138"
     inkscape:window-maximized="1"
     inkscape:window-y="-8"
     inkscape:window-x="1912"
     inkscape:cy="600"
     inkscape:cx="750"
     inkscape:zoom="0.68916667"
     showgrid="false"
     id="namedview21140"
     inkscape:window-height="1017"
     inkscape:window-width="1920"
     inkscape:pageshadow="2"
     inkscape:pageopacity="0"
     guidetolerance="10"
     gridtolerance="10"
     objecttolerance="10"
     borderopacity="1"
     bordercolor="#666666"
     pagecolor="#ffffff" />
  <metadata
     id="metadata20988">
Created by potrace 1.13, written by Peter Selinger 2001-2015
<rdf:RDF>
  <cc:Work
     rdf:about="">
    <dc:format>image/svg+xml</dc:format>
    <dc:type
       rdf:resource="http://purl.org/dc/dcmitype/StillImage" />
    <dc:title></dc:title>
  </cc:Work>
</rdf:RDF>
</metadata>
  <path
     style="stroke-width:0.1"
     d="M 314,33 303.5,46.9 H 291.8 L 280,47 v 3 3 h 66.5 66.5 v -3 -3 h -51 -51 l 8.3,-10.8 c 4.6,-5.9 8.7,-11.3 9.1,-12 0.7,-1.2 -1.8,-5.2 -3.3,-5.2 -0.3,0 -5.3,6.3 -11.1,14 z"
     id="path20992" />
  <path
     style="stroke-width:0.1"
     d="M 692,33 681.5,46.9 666.8,47 H 652 v 3 3 h 66 66 v -3 -3 h -47 c -25.8,0 -47,-0.3 -47,-0.6 0,-0.3 3.5,-5.2 7.8,-10.7 10,-13.1 9.7,-12.5 7.6,-14.8 -0.9,-1 -2,-1.9 -2.3,-1.9 -0.3,0.1 -5.3,6.4 -11.1,14 z"
     id="path20994" />
  <path
     style="stroke-width:0.1"
     d="M 94.7,47.7 C 94.3,48 94,49.4 94,50.7 V 53 H 160.5 227 V 50 47 H 161.2 C 125,47 95,47.3 94.7,47.7 Z"
     id="path20996" />
  <path
     style="stroke-width:0.1"
     d="m 466,50 v 3 h 66.6 66.5 L 598.8,50.2 598.5,47.5 532.3,47.2 466,47 Z"
     id="path20998" />
  <path
     style="stroke-width:0.1"
     d="m 837.7,47.7 c -0.4,0.3 -0.7,1.7 -0.7,3 V 53 H 903.5 970 V 50 47 H 904.2 C 868,47 838,47.3 837.7,47.7 Z"
     id="path21000" />
  <path
     style="stroke-width:0.1"
     d="m 191.5,95.3 -10.1,13.2 -13.7,0.3 -13.7,0.3 v 2.9 3 h 66.5 66.5 v -3 -3 h -49 -49.1 l 9,-11.7 8.9,-11.6 -2.3,-1.9 c -1.3,-1 -2.5,-1.8 -2.7,-1.7 -0.1,0 -4.8,6 -10.3,13.2 z"
     id="path21002" />
  <path
     style="stroke-width:0.1"
     d="M 563.2,95.6 552.9,109 H 539.5 526 v 3 3 h 66 66 v -3 -3 h -48.5 -48.6 l 9,-11.7 8.9,-11.6 -2.3,-1.9 c -1.3,-1 -2.5,-1.8 -2.7,-1.7 -0.1,0 -4.9,6.1 -10.6,13.5 z"
     id="path21004" />
  <path
     style="stroke-width:0.1"
     d="m 937.3,90.8 c -3.7,4.8 -8.4,10.9 -10.3,13.5 l -3.5,4.6 -13.2,0.1 H 897 v 3 3 h 66.5 66.5 v -3 -3 h -49 c -26.9,0 -49,-0.3 -49,-0.6 0,-0.3 3.5,-5.1 7.8,-10.7 10,-12.9 9.6,-12.2 6.7,-14.1 -2.4,-1.6 -2.5,-1.6 -9.2,7.2 z"
     id="path21006" />
  <path
     style="stroke-width:0.1"
     d="m 340,112 v 3 h 66.6 66.5 l -0.3,-2.8 -0.3,-2.7 -66.2,-0.3 L 340,109 Z"
     id="path21008" />
  <path
     style="stroke-width:0.1"
     d="m 711,112 v 3 h 66.5 66.5 v -3 -3 H 777.5 711 Z"
     id="path21010" />
  <path
     style="stroke-width:0.1"
     d="m 113.5,152.2 c -5.5,7.2 -10.6,13.7 -11.3,14.5 -1,0.9 -4.6,1.3 -12.8,1.3 H 78 v 3 3 h 66 66 v -3 -3 h -50 c -27.5,0 -50,-0.2 -50,-0.5 0,-0.2 4.3,-6 9.5,-12.7 8.8,-11.4 9.3,-12.4 7.8,-14 -0.9,-1 -2.1,-1.8 -2.7,-1.8 -0.6,0 -5.6,6 -11.1,13.2 z"
     id="path21012" />
  <path
     style="stroke-width:0.1"
     d="M 486.5,153.6 475.6,168 H 462.3 449 v 3 3 h 66.5 66.5 v -3 -3 h -48.5 c -33.1,0 -48.5,-0.3 -48.5,-1 0,-0.6 4.1,-6.5 9.2,-13.1 8.7,-11.4 9.1,-12 7.2,-13.4 -1,-0.8 -2.3,-1.4 -2.9,-1.4 -0.5,0 -5.9,6.5 -12,14.5 z"
     id="path21014" />
  <path
     style="stroke-width:0.1"
     d="m 859,150.2 c -4.7,6.2 -9.8,12.7 -11.4,14.5 l -2.8,3.3 H 832.9 821 v 3 3 l 66.3,-0.2 66.2,-0.3 0.3,-2.8 0.3,-2.7 h -50 c -27.6,0 -50.1,-0.2 -50.1,-0.5 0,-0.4 4.2,-6.1 9.4,-12.8 8.8,-11.3 9.4,-12.3 7.9,-13.9 -0.9,-1 -2.1,-1.8 -2.7,-1.8 -0.6,0 -4.9,5 -9.6,11.2 z"
     id="path21016" />
  <path
     style="stroke-width:0.1"
     d="m 264,171 v 3 h 66 66 v -3 -3 h -66 -66 z"
     id="path21018" />
  <path
     style="stroke-width:0.1"
     d="m 635,171 v 3 h 66.5 66.5 v -3 -3 H 701.5 635 Z"
     id="path21020" />
  <path
     style="stroke-width:0.1"
     d="m 178.9,215.2 -10.1,13.3 -10.7,0.5 -10.6,0.5 v 3 3 l 66.3,0.3 66.2,0.2 v -3.5 -3.5 h -51.5 c -28.3,0 -51.5,-0.3 -51.5,-0.6 0,-0.3 3.9,-5.5 8.6,-11.6 8.2,-10.6 8.5,-11.1 6.8,-12.9 -0.9,-1 -2.1,-1.9 -2.5,-1.9 -0.5,0 -5.4,6 -11,13.2 z"
     id="path21022" />
  <path
     style="stroke-width:0.1"
     d="m 561.3,206.8 c -2.1,2.6 -6.7,8.7 -10.3,13.4 l -6.5,8.7 -12.7,0.1 H 519 v 3.5 3.5 l 66.3,-0.2 66.2,-0.3 v -3 -3 l -49.7,-0.3 -49.8,-0.2 9,-11.6 c 4.9,-6.4 8.7,-12 8.4,-12.5 -0.3,-0.5 -1.4,-1.3 -2.4,-1.9 -1.6,-0.9 -2.5,-0.3 -5.7,3.8 z"
     id="path21024" />
  <path
     style="stroke-width:0.1"
     d="m 925,215.2 -10.2,13.3 -12.1,0.5 -12.2,0.5 v 3 3 l 66.3,0.3 66.2,0.2 v -3.5 -3.5 h -50 c -27.5,0 -50,-0.2 -50,-0.5 0,-0.3 3.9,-5.5 8.6,-11.6 8.3,-10.7 8.5,-11.1 6.8,-13 -0.9,-1 -2.1,-1.9 -2.5,-1.9 -0.4,0 -5.4,6 -10.9,13.2 z"
     id="path21026" />
  <path
     style="stroke-width:0.1"
     d="m 333.7,229.7 c -0.4,0.3 -0.7,1.9 -0.7,3.5 v 2.8 h 66.6 66.5 l -0.3,-3.3 -0.3,-3.2 -65.6,-0.3 c -36,-0.1 -65.9,0.1 -66.2,0.5 z"
     id="path21028" />
  <path
     style="stroke-width:0.1"
     d="m 705,232.5 v 3.5 h 66 66 v -3.5 -3.5 h -66 -66 z"
     id="path21030" />
  <path
     style="stroke-width:0.1"
     d="m 255.4,278 -10.7,14 H 232.3 220 v 3 3 h 66.5 66.5 v -3 -3 l -50.1,-0.2 -50.1,-0.3 9.1,-11.8 c 5,-6.4 9.1,-12.2 9.1,-12.7 0,-0.9 -3.1,-3 -4.4,-3 -0.3,0 -5.4,6.3 -11.2,14 z"
     id="path21032" />
  <path
     style="stroke-width:0.1"
     d="m 635.3,268.8 c -2.1,2.6 -6.9,8.9 -10.8,14 l -7,9.2 H 604.8 592 v 3 3 h 66.5 66.5 v -3 -3 h -49.5 c -27.2,0 -49.5,-0.2 -49.5,-0.5 0,-0.3 3.7,-5.3 8.3,-11.3 10.6,-13.6 10.3,-13 8.1,-14.7 -2.7,-2.1 -3,-2 -7.1,3.3 z"
     id="path21034" />
  <path
     style="stroke-width:0.1"
     d="m 998,278 -10.5,13.9 -12,0.3 -12,0.3 -0.3,2.7 -0.3,2.8 h 66.5 66.6 v -3 -3 h -50 c -27.5,0 -50,-0.3 -50,-0.6 0,-0.3 4.1,-5.9 9.2,-12.5 8.7,-11.4 9,-12 7.2,-13.4 -1,-0.8 -2.3,-1.4 -2.9,-1.4 -0.5,0 -5.7,6.2 -11.5,13.9 z"
     id="path21036" />
  <path
     style="stroke-width:0.1"
     d="m 33,295 v 3 h 67 67 v -3 -3 H 100 33 Z"
     id="path21038" />
  <path
     style="stroke-width:0.1"
     d="m 406,295 v 3 h 66.5 66.5 v -3 -3 H 472.5 406 Z"
     id="path21040" />
  <path
     style="stroke-width:0.1"
     d="m 778,295 v 3 h 66 66 v -3 -3 h -66 -66 z"
     id="path21042" />
  <path
     style="stroke-width:0.1"
     d="M 376.1,338.5 365.7,352 H 354.4 343 v 3 3 h 66.5 66.5 v -3 -3 l -51,-0.2 -51,-0.3 9,-11.7 c 9,-11.7 9,-11.7 6.8,-13.2 -1.2,-0.9 -2.5,-1.6 -2.8,-1.6 -0.3,0 -5.2,6.1 -10.9,13.5 z"
     id="path21044" />
  <path
     style="stroke-width:0.1"
     d="M 750.2,338.5 739.9,352 H 727.5 715 v 3 3 h 66 66 v -3 -3 l -49.4,-0.2 -49.5,-0.3 8.9,-11.5 c 8.9,-11.5 9,-11.5 6.9,-13.3 -1.2,-0.9 -2.4,-1.7 -2.8,-1.7 -0.3,0 -5.2,6.1 -10.9,13.5 z"
     id="path21046" />
  <path
     style="stroke-width:0.1"
     d="m 157,355 v 3 h 66.5 66.5 v -3 -3 H 223.5 157 Z"
     id="path21048" />
  <path
     style="stroke-width:0.1"
     d="m 529,355 v 3 h 66.6 66.5 l -0.3,-2.8 -0.3,-2.7 -66.2,-0.3 L 529,352 Z"
     id="path21050" />
  <path
     style="stroke-width:0.1"
     d="m 900.7,352.7 c -0.4,0.3 -0.7,1.7 -0.7,3 v 2.3 h 66.5 66.5 v -3 -3 h -65.8 c -36.2,0 -66.2,0.3 -66.5,0.7 z"
     id="path21052" />
  <path
     style="stroke-width:0.1"
     d="M 285.1,404.5 274,419 h -12 -12 v 3 3 h 66.5 66.5 v -3 -3 h -50 c -27.5,0 -50,-0.3 -50,-0.7 0,-0.4 4.1,-6.1 9.1,-12.6 8.8,-11.4 9,-11.9 7.3,-13.8 -0.9,-1 -2,-1.9 -2.4,-1.9 -0.4,0 -5.7,6.5 -11.9,14.5 z"
     id="path21054" />
  <path
     style="stroke-width:0.1"
     d="m 656.4,404.2 -10.9,14.3 -11.8,0.3 -11.7,0.3 v 2.9 3 h 66 66 v -3 -3 h -50 c -27.5,0 -50,-0.3 -50,-0.6 0,-0.4 4.1,-6 9,-12.5 5,-6.4 9,-12.1 9,-12.5 0,-0.7 -3.1,-3.3 -4.1,-3.4 -0.3,0 -5.5,6.4 -11.5,14.2 z"
     id="path21056" />
  <path
     style="stroke-width:0.1"
     d="m 64.2,421.7 0.3,2.8 66.3,0.3 66.2,0.2 v -3 -3 H 130.4 63.9 Z"
     id="path21058" />
  <path
     style="stroke-width:0.1"
     d="m 436,422 v 3 h 66.5 66.5 v -3 -3 H 502.5 436 Z"
     id="path21060" />
  <path
     style="stroke-width:0.1"
     d="m 808,422 v 3 h 66 66 v -3 -3 h -66 -66 z"
     id="path21062" />
  <path
     style="stroke-width:0.1"
     d="M 402.5,463.8 C 388.6,482.3 390.3,481 379.4,481 H 370 v 3 3 h 66 66 v -3 -3 h -52 c -28.6,0 -52,-0.3 -52,-0.6 0,-0.3 4,-5.8 9,-12.2 8.3,-10.9 8.8,-11.8 7.3,-13.4 -0.9,-1 -2.1,-1.8 -2.7,-1.8 -0.6,0.1 -4.7,4.9 -9.1,10.8 z"
     id="path21064" />
  <path
     style="stroke-width:0.1"
     d="m 775.5,467 -10.8,14 H 752.9 741 v 3 3 h 66.5 66.5 v -3 -3 h -50 c -28.5,0 -50,-0.4 -50,-0.9 0,-0.5 3.8,-5.9 8.5,-11.9 4.7,-6.1 8.5,-11.4 8.5,-11.8 0,-0.8 -3.1,-3.3 -4.1,-3.4 -0.4,0 -5.5,6.3 -11.4,14 z"
     id="path21066" />
  <path
     style="stroke-width:0.1"
     d="m 184,484 v 3 l 66.3,-0.2 66.2,-0.3 0.3,-2.8 0.3,-2.7 H 250.6 184 Z"
     id="path21068" />
  <path
     style="stroke-width:0.1"
     d="m 555.2,483.7 0.3,2.8 66.3,0.3 66.2,0.2 v -3 -3 h -66.6 -66.5 z"
     id="path21070" />
  <path
     style="stroke-width:0.1"
     d="m 927,484 v 3 h 66.5 66.5 v -3 -3 H 993.5 927 Z"
     id="path21072" />
  <path
     style="stroke-width:0.1"
     d="m 499.5,531.6 -11,14.4 H 475.8 463 v 3 3 h 66 66 v -3 -3 h -49 c -26.9,0 -49,-0.2 -49,-0.5 0,-0.3 4.1,-5.7 9,-12.1 5,-6.4 9,-12 9,-12.4 0,-0.4 -1,-1.4 -2.3,-2.3 -2.2,-1.4 -2.5,-1.1 -13.2,12.9 z"
     id="path21074" />
  <path
     style="stroke-width:0.1"
     d="m 127.3,532 -10.7,14 H 103.8 91 v 3 3 h 66.5 66.5 v -3 -3 l -49.6,-0.2 -49.6,-0.3 9.1,-11.9 c 5,-6.5 9.1,-12.2 9.1,-12.7 0,-0.8 -3.2,-2.9 -4.4,-2.9 -0.3,0 -5.4,6.3 -11.3,14 z"
     id="path21076" />
  <path
     style="stroke-width:0.1"
     d="m 870.3,532 -10.7,14 H 846.8 834 v 3 3 h 66.5 66.5 v -3 -3 l -49.6,-0.2 -49.6,-0.3 9.1,-11.9 c 5,-6.5 9.1,-12.2 9.1,-12.7 0,-0.8 -3.2,-2.9 -4.4,-2.9 -0.3,0 -5.4,6.3 -11.3,14 z"
     id="path21078" />
  <path
     style="stroke-width:0.1"
     d="m 277,549 v 3 h 66 66 v -3 -3 h -66 -66 z"
     id="path21080" />
  <path
     style="stroke-width:0.1"
     d="m 648,549 v 3 h 66.5 66.5 v -3 -3 H 714.5 648 Z"
     id="path21082" />
  <path
     style="stroke-width:0.1"
     d="M 211.6,590.1 200.9,604 h -13.5 -13.5 l 0.3,3.2 0.3,3.3 h 66 66 v -3 -3 L 257.8,604 209.1,603.5 218,592 c 4.9,-6.3 9,-11.8 9,-12.1 0,-0.4 -1.1,-1.4 -2.4,-2.2 -2.4,-1.6 -2.4,-1.5 -13,12.4 z"
     id="path21084" />
  <path
     style="stroke-width:0.1"
     d="m 584,590 -10.5,13.9 -14,0.3 -14,0.3 v 3 3 l 66.3,0.3 66.2,0.2 v -3.5 -3.5 h -48 c -26.4,0 -48,-0.3 -48,-0.6 0,-0.3 3.5,-5.1 7.8,-10.7 4.3,-5.6 8.2,-10.8 8.6,-11.5 0.7,-1.2 -1.9,-5.3 -3.3,-5.2 -0.3,0.1 -5.3,6.3 -11.1,14 z"
     id="path21086" />
  <path
     style="stroke-width:0.1"
     d="M 951.3,589.9 940.5,604 H 928.8 917 v 3.5 3.5 l 66.3,-0.2 66.2,-0.3 v -3 -3 l -50.4,-0.5 -50.3,-0.5 9.1,-11.9 c 5,-6.6 9,-12 8.8,-12 -0.1,-0.1 -1.2,-0.9 -2.4,-1.9 -2.1,-1.9 -2.2,-1.8 -13,12.2 z"
     id="path21088" />
  <path
     style="stroke-width:0.1"
     d="m 360,607.5 v 3.5 h 66 66 v -3.5 -3.5 h -66 -66 z"
     id="path21090" />
  <path
     style="stroke-width:0.1"
     d="m 731.2,607.2 0.3,3.3 h 66 66 l 0.3,-3.3 0.3,-3.2 h -66.6 -66.6 z"
     id="path21092" />
  <path
     style="stroke-width:0.1"
     d="M 102.1,655.5 90.9,670 H 79.4 68 v 3 3 l 66.3,-0.2 66.2,-0.3 0.3,-2.8 0.3,-2.7 h -50.6 c -43.6,0 -50.6,-0.2 -50.2,-1.4 0.3,-0.8 4.5,-6.5 9.2,-12.6 8.4,-10.8 8.6,-11.2 6.9,-13.1 -0.9,-1 -2,-1.9 -2.4,-1.9 -0.4,0 -5.8,6.5 -11.9,14.5 z"
     id="path21094" />
  <path
     style="stroke-width:0.1"
     d="m 473.5,655.5 -11,14.5 H 450.8 439 v 3 3 h 66.5 66.5 v -3 -3 h -50.5 c -27.8,0 -50.5,-0.2 -50.5,-0.5 0,-0.2 4.3,-6 9.5,-12.7 l 9.5,-12.3 -2.3,-1.7 c -1.2,-1 -2.4,-1.7 -2.7,-1.7 -0.3,0 -5.4,6.5 -11.5,14.4 z"
     id="path21096" />
  <path
     style="stroke-width:0.1"
     d="m 849,652.2 c -4.7,6.2 -9.8,12.7 -11.4,14.5 l -2.8,3.3 H 822.9 811 v 3 3 l 66.3,-0.2 66.2,-0.3 0.3,-2.8 0.3,-2.7 h -50 c -27.6,0 -50.1,-0.3 -50.1,-0.6 0,-0.3 4.3,-6.1 9.5,-12.9 l 9.5,-12.3 -2.5,-1.6 c -1.3,-0.9 -2.6,-1.6 -2.7,-1.6 -0.2,0 -4.2,5 -8.8,11.2 z"
     id="path21098" />
  <path
     style="stroke-width:0.1"
     d="m 254,673 v 3 h 66 66 v -3 -3 h -66 -66 z"
     id="path21100" />
  <path
     style="stroke-width:0.1"
     d="m 625,673 v 3 h 66.5 66.5 v -3 -3 H 691.5 625 Z"
     id="path21102" />
  <path
     style="stroke-width:0.1"
     d="m 196.6,714.9 c -5.9,7.7 -10.6,14.4 -10.4,14.8 0.2,0.4 -6.2,1 -14.2,1.3 l -14.5,0.5 v 3 3 l 66.3,0.3 66.2,0.2 v -3.5 -3.5 h -48.5 c -26.7,0 -48.5,-0.3 -48.5,-0.6 0,-0.3 4.3,-6.1 9.5,-12.9 5.2,-6.8 9.5,-12.7 9.5,-13.1 0,-0.7 -3.1,-3.3 -4.1,-3.4 -0.3,0 -5.4,6.3 -11.3,13.9 z"
     id="path21104" />
  <path
     style="stroke-width:0.1"
     d="m 568.4,715.2 c -6,7.8 -10.8,14.6 -10.6,15 0.1,0.4 -6.3,0.8 -14.3,0.8 H 529 v 3.5 3.5 l 66.3,-0.2 66.2,-0.3 v -3 -3 L 612.8,731.2 564,731 574,718.1 c 5.5,-7.1 10,-13.3 10,-13.7 0,-0.7 -3.1,-3.3 -4.1,-3.4 -0.3,0 -5.5,6.4 -11.5,14.2 z"
     id="path21106" />
  <path
     style="stroke-width:0.1"
     d="m 937.5,714.2 c -5.5,7.2 -10.4,13.9 -10.9,14.9 -0.8,1.6 -2.4,1.9 -13.5,2.1 l -12.6,0.3 v 3 3 l 66.3,0.3 66.2,0.2 v -3.5 -3.5 l -50,-0.2 -49.9,-0.3 9.9,-13 c 10,-13 10,-13 7.9,-14.8 -1.2,-0.9 -2.4,-1.7 -2.8,-1.7 -0.3,0.1 -5.1,6 -10.6,13.2 z"
     id="path21108" />
  <path
     style="stroke-width:0.1"
     d="m 343.7,731.7 c -0.4,0.3 -0.7,1.9 -0.7,3.5 v 2.8 h 66.6 66.5 l -0.3,-3.3 -0.3,-3.2 -65.6,-0.3 c -36,-0.1 -65.9,0.1 -66.2,0.5 z"
     id="path21110" />
  <path
     style="stroke-width:0.1"
     d="m 715,734.5 v 3.5 h 66 66 v -3.5 -3.5 h -66 -66 z"
     id="path21112" />
  <path
     style="stroke-width:0.1"
     d="m 458,779.1 -10.5,13.8 H 435.3 L 423,793 v 3.5 3.5 h 66 66 v -3.5 -3.5 l -49.8,-0.2 -49.9,-0.3 8.9,-11.4 c 4.8,-6.3 8.8,-11.8 8.8,-12.2 0,-0.3 -1,-1.3 -2.3,-2.2 -2.2,-1.4 -2.5,-1.1 -12.7,12.4 z"
     id="path21114" />
  <path
     style="stroke-width:0.1"
     d="m 829,779.1 -10.5,13.8 -12,0.3 -12,0.3 v 3 3 l 66.3,0.3 66.2,0.2 v -3.5 -3.5 h -50 c -27.5,0 -50,-0.3 -50,-0.6 0,-0.3 3.6,-5.3 8,-11 4.5,-5.7 8.3,-11 8.6,-11.8 0.3,-0.7 -0.5,-2 -1.8,-2.8 -2.3,-1.5 -2.5,-1.2 -12.8,12.3 z"
     id="path21116" />
  <path
     style="stroke-width:0.1"
     d="m 95.1,779.5 -10.3,13.5 -17.6,0.2 -17.7,0.3 v 3 3 l 67.3,0.3 67.2,0.2 v -3.5 -3.5 l -45.5,-0.2 -45.5,-0.3 9,-11.6 c 8.4,-11.1 8.8,-11.8 7.1,-13.3 -1,-0.9 -2.2,-1.6 -2.7,-1.6 -0.6,0 -5.6,6.1 -11.3,13.5 z"
     id="path21118" />
  <path
     style="stroke-width:0.1"
     d="m 237,796.5 v 3.5 l 66.3,-0.2 66.2,-0.3 v -3 -3 L 303.3,793.2 237,793 Z"
     id="path21120" />
  <path
     style="stroke-width:0.1"
     d="m 609,796.5 v 3.5 h 66 66 v -3.5 -3.5 h -66 -66 z"
     id="path21122" />
  <path
     style="stroke-width:0.1"
     d="m 980,796.5 v 3.5 l 66.3,-0.2 66.2,-0.3 v -3 -3 L 1046.3,793.2 980,793 Z"
     id="path21124" />
  <path
     style="stroke-width:0.1"
     d="m 209.9,836.9 -11.4,15 H 187.8 L 177,852 v 3 3 h 66.5 66.5 v -3 -3 h -51.5 c -28.3,0 -51.5,-0.3 -51.5,-0.6 0,-0.3 4.3,-6.2 9.6,-13.1 9.3,-12 9.5,-12.5 7.8,-14.4 -0.9,-1 -2,-1.9 -2.4,-1.9 -0.4,0 -5.8,6.7 -12.1,14.9 z"
     id="path21126" />
  <path
     style="stroke-width:0.1"
     d="M 584.1,837.1 572.8,852 H 560.9 549 v 3 3 h 66 66 v -3 -3 h -49.5 c -27.3,0 -49.5,-0.4 -49.5,-0.9 0,-0.4 4.3,-6.4 9.5,-13.2 9.5,-12.4 9.5,-12.4 7.4,-14.2 -1.2,-0.9 -2.4,-1.7 -2.8,-1.6 -0.3,0 -5.7,6.7 -12,15 z"
     id="path21128" />
  <path
     style="stroke-width:0.1"
     d="m 956.9,836.9 -11.4,15 H 932.8 L 920,852 v 3 3 h 66.5 66.5 v -3 -3 h -49.5 c -27.2,0 -49.5,-0.3 -49.5,-0.6 0,-0.3 4.3,-6.2 9.6,-13.1 9.3,-12 9.5,-12.5 7.8,-14.4 -0.9,-1 -2,-1.9 -2.4,-1.9 -0.5,0 -5.9,6.7 -12.1,14.9 z"
     id="path21130" />
  <path
     style="stroke-width:0.1"
     d="m 363,855 v 3 h 66.5 66.5 v -3 -3 H 429.5 363 Z"
     id="path21132" />
  <path
     style="stroke-width:0.1"
     d="m 735,855 v 3 h 66 66 v -3 -3 h -66 -66 z"
     id="path21134" />
</svg>
