<?xml version="1.0" encoding="UTF-8" standalone="no"?>
<svg
   xmlns:dc="http://purl.org/dc/elements/1.1/"
   xmlns:cc="http://creativecommons.org/ns#"
   xmlns:rdf="http://www.w3.org/1999/02/22-rdf-syntax-ns#"
   xmlns:svg="http://www.w3.org/2000/svg"
   xmlns="http://www.w3.org/2000/svg"
   xmlns:sodipodi="http://sodipodi.sourceforge.net/DTD/sodipodi-0.dtd"
   xmlns:inkscape="http://www.inkscape.org/namespaces/inkscape"
   inkscape:version="1.0 (4035a4fb49, 2020-05-01)"
   sodipodi:docname="USGS_610_colour_nobox.svg"
   id="svg12502"
   preserveAspectRatio="xMidYMid meet"
   viewBox="0 0 1125.000000 900.000000"
   height="900.000000pt"
   width="1125.000000pt"
   version="1.0">
  <defs
     id="defs12506" />
  <sodipodi:namedview
     inkscape:current-layer="svg12502"
     inkscape:window-maximized="1"
     inkscape:window-y="-8"
     inkscape:window-x="1912"
     inkscape:cy="600"
     inkscape:cx="750"
     inkscape:zoom="0.68916667"
     showgrid="false"
     id="namedview12504"
     inkscape:window-height="1017"
     inkscape:window-width="1920"
     inkscape:pageshadow="2"
     inkscape:pageopacity="0"
     guidetolerance="10"
     gridtolerance="10"
     objecttolerance="10"
     borderopacity="1"
     bordercolor="#666666"
     pagecolor="#ffffff" />
  <metadata
     id="metadata11786">
Created by potrace 1.13, written by Peter Selinger 2001-2015
<rdf:RDF>
  <cc:Work
     rdf:about="">
    <dc:format>image/svg+xml</dc:format>
    <dc:type
       rdf:resource="http://purl.org/dc/dcmitype/StillImage" />
    <dc:title></dc:title>
  </cc:Work>
</rdf:RDF>
</metadata>
  <path
     style="stroke-width:0.1"
     d="m 896.5,8.5 c -2.8,2.7 -3,4.2 -1.4,7.9 3.2,6.9 13.9,3.8 13.9,-4 0,-2.4 -4.7,-6.4 -7.5,-6.4 -1.4,0 -3.7,1.1 -5,2.5 z"
     id="path11790" />
  <path
     style="stroke-width:0.1"
     d="m 516.2,9.3 c -4.5,4.8 -1.4,11.7 5.1,11.7 4.2,0 7,-2.9 7,-7.2 0,-6.1 -7.8,-9.1 -12.1,-4.5 z"
     id="path11792" />
  <path
     style="stroke-width:0.1"
     d="m 34.1,11.6 c -2.7,3.5 -2.6,5.9 0.4,8.9 3.3,3.4 7.7,3.3 10.4,-0.1 2.6,-3.4 2.6,-5.4 0,-8.8 C 43.4,9.7 41.9,9 39.5,9 37.1,9 35.6,9.7 34.1,11.6 Z"
     id="path11794" />
  <path
     style="stroke-width:0.1"
     d="m 938.5,13.5 c -1.4,1.3 -2.5,3.6 -2.5,5 0,3 4.1,7.5 6.8,7.5 3.5,0 7.2,-3.8 7.2,-7.3 0,-3.8 -0.7,-5 -3.7,-6.6 -3.3,-1.7 -5.1,-1.4 -7.8,1.4 z"
     id="path11796" />
  <path
     style="stroke-width:0.1"
     d="m 984.2,15.6 c -2.8,2 -3.1,8.3 -0.4,10.7 2.5,2.3 7.8,2.1 10.2,-0.3 6.1,-6.1 -2.7,-15.4 -9.8,-10.4 z"
     id="path11798" />
  <path
     style="stroke-width:0.1"
     d="m 1029.1,16.6 c -2.7,3.5 -2.7,6.5 0.2,9.2 4.8,4.6 12,1.6 12,-5 0,-6.4 -8.3,-9.2 -12.2,-4.2 z"
     id="path11800" />
  <path
     style="stroke-width:0.1"
     d="m 1072.2,16.3 c -4.4,4.7 -1.3,11.7 5.2,11.7 4.1,0 6.9,-2.9 6.9,-7.2 0,-6.1 -7.8,-9.1 -12.1,-4.5 z"
     id="path11802" />
  <path
     style="stroke-width:0.1"
     d="m 473.1,17.6 c -1.2,1.5 -2.1,3.4 -2.1,4.4 0,3.4 3.9,7 7.5,7 3.6,0 7.5,-3.6 7.5,-7 0,-3.4 -3.9,-7 -7.5,-7 -2.4,0 -3.9,0.7 -5.4,2.6 z"
     id="path11804" />
  <path
     style="stroke-width:0.1"
     d="m 598.5,21.5 c -4,3.9 -2.9,9.5 2.2,11.3 7.8,2.7 13.6,-7.6 7,-12.3 -3.1,-2.2 -6.5,-1.8 -9.2,1 z"
     id="path11806" />
  <path
     style="stroke-width:0.1"
     d="m 433.1,26.6 c -1.2,1.5 -2.1,3.4 -2.1,4.4 0,3.2 3.9,7 7.1,7 3.4,0 7.9,-3.9 7.9,-6.8 0,-3.5 -3.8,-7.2 -7.5,-7.2 -2.4,0 -3.9,0.7 -5.4,2.6 z"
     id="path11808" />
  <path
     style="stroke-width:0.1"
     d="m 395,31.7 c -5.3,1.9 -6.7,8.3 -2.7,12.1 2.9,2.8 5.7,2.8 9.1,0.1 4.6,-3.7 3,-10.6 -2.9,-12.2 -1.1,-0.3 -2.7,-0.3 -3.5,0 z"
     id="path11810" />
  <path
     style="stroke-width:0.1"
     d="m 352.2,41 c -3.2,3 -3,8.2 0.5,11 7,5.5 15.1,-4.2 8.8,-10.5 -2.9,-3 -6.4,-3.2 -9.3,-0.5 z"
     id="path11812" />
  <path
     style="stroke-width:0.1"
     d="m 643.7,40.8 c -2.3,2.5 -2.1,7.8 0.3,10.2 6.1,6.1 15.4,-2.7 10.4,-9.8 -2,-2.8 -8.3,-3.1 -10.7,-0.4 z"
     id="path11814" />
  <path
     style="stroke-width:0.1"
     d="m 476.3,40.8 c -5.1,0.8 -7,8.3 -3,12 4.8,4.5 11.7,1.4 11.7,-5.1 0,-4.8 -3.8,-7.7 -8.7,-6.9 z"
     id="path11816" />
  <path
     style="stroke-width:0.1"
     d="m 309,49 c -2.4,2.4 -2.6,6.7 -0.4,9.8 2,2.8 8.3,3.1 10.7,0.4 4,-4.5 0.6,-12.2 -5.3,-12.2 -1.7,0 -3.9,0.9 -5,2 z"
     id="path11818" />
  <path
     style="stroke-width:0.1"
     d="m 270.2,54.3 c -4.5,4.8 -1.7,11.7 4.7,11.7 4.6,0 7.1,-2.4 7.1,-6.8 0,-6.5 -7.4,-9.6 -11.8,-4.9 z"
     id="path11820" />
  <path
     style="stroke-width:0.1"
     d="m 511.5,59.5 c -2.9,2.8 -3.1,5.1 -0.9,8.3 4.3,6.2 13.4,3.2 13.4,-4.4 0,-2.4 -4.7,-6.4 -7.5,-6.4 -1.4,0 -3.7,1.1 -5,2.5 z"
     id="path11822" />
  <path
     style="stroke-width:0.1"
     d="m 691.2,58.6 c -2.8,2 -3.1,8.3 -0.4,10.7 2.5,2.3 7.8,2.1 10.2,-0.3 6.1,-6.1 -2.7,-15.4 -9.8,-10.4 z"
     id="path11824" />
  <path
     style="stroke-width:0.1"
     d="m 228.9,62.8 c -1.5,1.3 -2.2,3 -2.2,5.1 0,6.6 7.6,9.8 12.3,5.1 2.7,-2.7 2.5,-6.6 -0.5,-9.5 -2.9,-3 -6.4,-3.2 -9.6,-0.7 z"
     id="path11826" />
  <path
     style="stroke-width:0.1"
     d="m 187.5,68.5 c -4.3,4.2 -2.3,10.6 3.5,12 3.8,0.9 8,-2.7 8,-6.8 0,-3.8 -0.7,-5 -3.7,-6.6 -3.3,-1.7 -5.1,-1.4 -7.8,1.4 z"
     id="path11828" />
  <path
     style="stroke-width:0.1"
     d="m 740.2,72.3 c -4.4,4.7 -1.3,11.7 5.2,11.7 4.1,0 6.9,-2.9 6.9,-7.2 0,-6.1 -7.8,-9.1 -12.1,-4.5 z"
     id="path11830" />
  <path
     style="stroke-width:0.1"
     d="m 549.7,72.8 c -2.3,2.5 -2.1,7.8 0.3,10.2 6.1,6.1 15.4,-2.7 10.4,-9.8 -2,-2.8 -8.3,-3.1 -10.7,-0.4 z"
     id="path11832" />
  <path
     style="stroke-width:0.1"
     d="m 145.9,75.8 c -4.9,4 -1.7,12.2 4.8,12.2 6.5,0 9.3,-6.1 5.2,-11.4 -2.5,-3.1 -6.6,-3.5 -10,-0.8 z"
     id="path11834" />
  <path
     style="stroke-width:0.1"
     d="m 105.1,84.6 c -2.7,3.5 -2.6,5.9 0.4,8.9 3.3,3.4 7.7,3.3 10.4,-0.1 1.2,-1.5 2.1,-3.4 2.1,-4.4 0,-3.4 -3.9,-7 -7.5,-7 -2.4,0 -3.9,0.7 -5.4,2.6 z"
     id="path11836" />
  <path
     style="stroke-width:0.1"
     d="m 353,82.7 c -5.1,1.9 -6.8,8.5 -3,12.3 4.5,4.5 12,1.1 12,-5.4 0,-5 -4.6,-8.5 -9,-6.9 z"
     id="path11838" />
  <path
     style="stroke-width:0.1"
     d="m 790.7,85.2 c -4.1,3.2 -3.8,9.4 0.6,12.3 4.6,3 10.7,-0.6 10.7,-6.3 0,-5.1 -7.3,-9 -11.3,-6 z"
     id="path11840" />
  <path
     style="stroke-width:0.1"
     d="m 64.9,86.3 c -3.7,1.9 -5.3,6 -3.7,9.4 2.6,5.5 10.4,5.4 13,-0.2 2.6,-5.7 -3.7,-11.9 -9.3,-9.2 z"
     id="path11842" />
  <path
     style="stroke-width:0.1"
     d="m 589.1,90.6 c -1.2,1.5 -2.1,3.4 -2.1,4.4 0,3.2 3.9,7 7.1,7 3.4,0 7.9,-3.9 7.9,-6.8 0,-3.5 -3.8,-7.2 -7.5,-7.2 -2.4,0 -3.9,0.7 -5.4,2.6 z"
     id="path11844" />
  <path
     style="stroke-width:0.1"
     d="m 22.5,94.5 c -3,3 -3.1,5.4 -0.4,8.9 1.5,1.9 3,2.6 5.4,2.6 3.7,0 7.5,-3.7 7.5,-7.2 0,-2.7 -4.5,-6.8 -7.5,-6.8 -1.4,0 -3.7,1.1 -5,2.5 z"
     id="path11846" />
  <path
     style="stroke-width:0.1"
     d="m 835.5,95.5 c -1.4,1.3 -2.5,3.6 -2.5,5 0,2.8 4,7.5 6.4,7.5 2.9,0 6.4,-2.2 7.5,-4.8 1.6,-3.3 -0.1,-7.5 -3.5,-9.1 -3.7,-1.6 -5.2,-1.4 -7.9,1.4 z"
     id="path11848" />
  <path
     style="stroke-width:0.1"
     d="m 173.2,100.6 c -2.8,2 -3.1,8.3 -0.4,10.7 4.5,4 12.2,0.6 12.2,-5.3 0,-5.9 -6.7,-9 -11.8,-5.4 z"
     id="path11850" />
  <path
     style="stroke-width:0.1"
     d="m 389.7,100.8 c -2.5,2.8 -2.2,8.7 0.5,10.6 7.2,5.1 15.3,-3 10.2,-10.2 -2,-2.8 -8.3,-3.1 -10.7,-0.4 z"
     id="path11852" />
  <path
     style="stroke-width:0.1"
     d="m 628.5,102.5 c -4,3.9 -2.9,9.5 2.2,11.3 7.8,2.7 13.6,-7.6 7,-12.3 -3.1,-2.2 -6.5,-1.8 -9.2,1 z"
     id="path11854" />
  <path
     style="stroke-width:0.1"
     d="m 887.1,102.6 c -1.2,1.5 -2.1,3.4 -2.1,4.4 0,3.4 3.9,7 7.5,7 3.6,0 7.5,-3.6 7.5,-7 0,-3.4 -3.9,-7 -7.5,-7 -2.4,0 -3.9,0.7 -5.4,2.6 z"
     id="path11856" />
  <path
     style="stroke-width:0.1"
     d="m 1067.2,102.7 c -0.7,0.3 -1.9,1.8 -2.8,3.5 -1.2,2.4 -1.3,3.6 -0.4,5.8 1.1,2.7 4.6,5 7.6,5 2.4,0 6.4,-4.7 6.4,-7.5 0,-4.9 -6,-8.7 -10.8,-6.8 z"
     id="path11858" />
  <path
     style="stroke-width:0.1"
     d="m 934,106.2 c -2.7,2.9 -2.5,6.9 0.3,9.6 4.6,4.3 12,1.5 12,-4.6 0,-6.6 -7.8,-9.8 -12.3,-5 z"
     id="path11860" />
  <path
     style="stroke-width:0.1"
     d="m 978.5,107.5 c -3,3 -3.1,5.4 -0.4,8.9 2,2.6 6.9,3.6 9.5,1.8 1.5,-1 3.4,-4.7 3.4,-6.7 0,-2.5 -4.6,-6.5 -7.5,-6.5 -1.4,0 -3.7,1.1 -5,2.5 z"
     id="path11862" />
  <path
     style="stroke-width:0.1"
     d="m 1022.5,107 c -4.2,4.6 -1,12 5.2,12 4.2,0 7.3,-3 7.3,-7 0,-6.2 -8.4,-9.5 -12.5,-5 z"
     id="path11864" />
  <path
     style="stroke-width:0.1"
     d="m 429.6,112.1 c -3.6,2.8 -3.6,8 0,10.8 1.5,1.2 3.4,2.1 4.4,2.1 3.4,0 7,-3.9 7,-7.5 0,-3.6 -3.6,-7.5 -7,-7.5 -1,0 -2.9,0.9 -4.4,2.1 z"
     id="path11866" />
  <path
     style="stroke-width:0.1"
     d="m 668.5,115.5 c -2.8,2.7 -3,4.2 -1.4,7.9 3.2,6.9 13.9,3.8 13.9,-4 0,-2.4 -4.7,-6.4 -7.5,-6.4 -1.4,0 -3.7,1.1 -5,2.5 z"
     id="path11868" />
  <path
     style="stroke-width:0.1"
     d="m 212.6,118.1 c -3.4,2.7 -3.5,7.1 -0.1,10.4 2.7,2.8 4.2,3 7.9,1.4 3.7,-1.7 5.1,-6 3.2,-9.7 -2.4,-4.7 -6.6,-5.5 -11,-2.1 z"
     id="path11870" />
  <path
     style="stroke-width:0.1"
     d="M 27.2,120.6 C 21,124.9 24,134 31.6,134 c 2.4,0 6.4,-4.7 6.4,-7.5 0,-3 -4.1,-7.5 -6.7,-7.5 -1,0 -2.9,0.7 -4.1,1.6 z"
     id="path11872" />
  <path
     style="stroke-width:0.1"
     d="m 468,127 c -4.3,4.3 -1.1,12 5,12 1.7,0 3.9,-0.9 5,-2 2.6,-2.6 2.6,-8.1 0.2,-10.3 -2.5,-2.3 -7.8,-2.1 -10.2,0.3 z"
     id="path11874" />
  <path
     style="stroke-width:0.1"
     d="m 707.5,130.5 c -1.4,1.3 -2.5,3.6 -2.5,5 0,1.4 1.1,3.7 2.5,5 1.3,1.4 3.6,2.5 5,2.5 1.4,0 3.7,-1.1 5,-2.5 1.4,-1.3 2.5,-3.6 2.5,-5 0,-1.4 -1.1,-3.7 -2.5,-5 -1.3,-1.4 -3.6,-2.5 -5,-2.5 -1.4,0 -3.7,1.1 -5,2.5 z"
     id="path11876" />
  <path
     style="stroke-width:0.1"
     d="m 251,131 c -2.6,2.6 -2.6,8.1 -0.2,10.3 4.4,4 12.2,0.7 12.2,-5.1 0,-6 -7.8,-9.4 -12,-5.2 z"
     id="path11878" />
  <path
     style="stroke-width:0.1"
     d="m 507.6,138.1 c -4.6,3.6 -2.6,11 3.4,12.4 3.9,0.9 8,-2.7 8,-7 0,-3.6 -3.6,-7.5 -7,-7.5 -1,0 -2.9,0.9 -4.4,2.1 z"
     id="path11880" />
  <path
     style="stroke-width:0.1"
     d="m 67.1,141.6 c -1.2,1.5 -2.1,3.4 -2.1,4.4 0,3.4 3.9,7 7.5,7 3.6,0 7.5,-3.6 7.5,-7 0,-3.4 -3.9,-7 -7.5,-7 -2.4,0 -3.9,0.7 -5.4,2.6 z"
     id="path11882" />
  <path
     style="stroke-width:0.1"
     d="m 750.5,142.2 c -4.9,2.6 -5.8,6.9 -2.4,11.2 2.7,3.4 7.1,3.5 10.4,0.1 3.3,-3.2 3.1,-6 -0.4,-9.6 -3.2,-3.1 -4.5,-3.4 -7.6,-1.7 z"
     id="path11884" />
  <path
     style="stroke-width:0.1"
     d="m 1021.2,143.5 c -5.9,2.5 -5.1,10.7 1.1,13 6.2,2.1 11.8,-5.2 8,-10.3 -2.6,-3.4 -5.3,-4.2 -9.1,-2.7 z"
     id="path11886" />
  <path
     style="stroke-width:0.1"
     d="m 289,147.7 c -5.5,7 4.2,15.1 10.5,8.8 3,-2.9 3.2,-6.4 0.5,-9.3 -3,-3.2 -8.2,-3 -11,0.5 z"
     id="path11888" />
  <path
     style="stroke-width:0.1"
     d="m 547.5,153.5 c -1.4,1.3 -2.5,3 -2.5,3.7 0.1,5.9 5.1,9.8 10,7.8 2.7,-1.1 5,-4.6 5,-7.6 0,-2.4 -4.7,-6.4 -7.5,-6.4 -1.4,0 -3.7,1.1 -5,2.5 z"
     id="path11890" />
  <path
     style="stroke-width:0.1"
     d="m 789,157 c -4.5,4.5 -1.1,12 5.3,12 4.2,0 7,-2.9 7,-7 0,-6.3 -7.8,-9.5 -12.3,-5 z"
     id="path11892" />
  <path
     style="stroke-width:0.1"
     d="m 108.2,157.6 c -1.6,1.1 -2.2,2.5 -2.2,5.4 0,2.9 0.6,4.3 2.2,5.4 5.1,3.6 11.8,0.5 11.8,-5.4 0,-5.9 -6.7,-9 -11.8,-5.4 z"
     id="path11894" />
  <path
     style="stroke-width:0.1"
     d="m 328.5,159.5 c -1.4,1.3 -2.5,3.6 -2.5,5 0,2.8 4,7.5 6.4,7.5 7.8,0 10.9,-10.7 4,-13.9 -3.7,-1.6 -5.2,-1.4 -7.9,1.4 z"
     id="path11896" />
  <path
     style="stroke-width:0.1"
     d="m 1061,159.3 c -5.2,2.6 -4.9,10.4 0.4,12.8 8.1,3.7 13.8,-7.3 6.4,-12.5 -2.7,-1.9 -3.5,-2 -6.8,-0.3 z"
     id="path11898" />
  <path
     style="stroke-width:0.1"
     d="m 589.3,162 c -4.6,1.9 -5.7,8.3 -2,11.8 4.7,4.4 11.7,1.3 11.7,-5.2 0,-5 -5,-8.4 -9.7,-6.6 z"
     id="path11900" />
  <path
     style="stroke-width:0.1"
     d="m 832,163.7 c -7.6,2.7 -5.8,14.3 2.1,14.3 5.5,0 9.2,-8.7 5.2,-12.2 -2.2,-1.9 -5.3,-2.8 -7.3,-2.1 z"
     id="path11902" />
  <path
     style="stroke-width:0.1"
     d="m 1100.3,171.5 c -4.3,3 -3.8,8.8 1.2,12.1 2.1,1.4 3,1.4 5.5,0.4 5.5,-2.3 6.6,-7.5 2.5,-11.5 -2.7,-2.8 -6.1,-3.2 -9.2,-1 z"
     id="path11904" />
  <path
     style="stroke-width:0.1"
     d="m 628.7,174 c -1.9,1.5 -2.7,3 -2.7,5.3 0,3.8 0.7,5 3.7,6.6 3.3,1.7 5.1,1.4 7.8,-1.4 6.3,-6.3 -1.8,-16 -8.8,-10.5 z"
     id="path11906" />
  <path
     style="stroke-width:0.1"
     d="m 148,175 c -6.2,6.2 2.5,15.5 9.8,10.4 2.8,-2 3.1,-8.3 0.4,-10.7 -2.5,-2.3 -7.8,-2.1 -10.2,0.3 z"
     id="path11908" />
  <path
     style="stroke-width:0.1"
     d="m 371.3,173.8 c -5.1,0.8 -7,8.3 -3,12 4.8,4.5 11.7,1.4 11.7,-5.1 0,-4.8 -3.8,-7.7 -8.7,-6.9 z"
     id="path11910" />
  <path
     style="stroke-width:0.1"
     d="m 869.6,177.1 c -5,3.9 -2.2,12.2 4.2,12.2 4.3,0 7.2,-2.8 7.2,-7 0,-6.5 -6.1,-9.3 -11.4,-5.2 z"
     id="path11912" />
  <path
     style="stroke-width:0.1"
     d="m 14.2,181.5 c -5.9,2.5 -5.1,10.7 1.1,13 6.2,2.1 11.8,-5.2 8,-10.3 -2.6,-3.4 -5.3,-4.2 -9.1,-2.7 z"
     id="path11914" />
  <path
     style="stroke-width:0.1"
     d="m 909.2,185.6 c -5,3.4 -1.5,12.4 4.8,12.4 1.7,0 3.9,-0.9 5,-2 1.1,-1.1 2,-3.3 2,-5 0,-5.9 -6.7,-9 -11.8,-5.4 z"
     id="path11916" />
  <path
     style="stroke-width:0.1"
     d="m 407.5,187.5 c -4.1,4 -3,9.2 2.5,11.5 2.5,1 3.4,1 5.5,-0.4 5,-3.3 5.5,-9.1 1.2,-12.1 -3.1,-2.2 -6.5,-1.8 -9.2,1 z"
     id="path11918" />
  <path
     style="stroke-width:0.1"
     d="m 669.5,186.2 c -4.8,2.8 -5.7,7 -2.4,11.2 1.5,1.9 3,2.6 5.4,2.6 2.4,0 3.9,-0.7 5.4,-2.6 1.2,-1.5 2.1,-3.3 2.1,-4 0,-2.9 -2.5,-6.4 -5.3,-7.4 -1.6,-0.5 -3,-1 -3.1,-1 -0.1,0 -1,0.6 -2.1,1.2 z"
     id="path11920" />
  <path
     style="stroke-width:0.1"
     d="m 187,192 c -6.1,6.1 2.7,15.4 9.8,10.4 2.8,-2 3.1,-8.3 0.4,-10.7 -2.5,-2.3 -7.8,-2.1 -10.2,0.3 z"
     id="path11922" />
  <path
     style="stroke-width:0.1"
     d="m 51.5,193.5 c -3,3 -3.1,5.4 -0.4,8.9 1.5,1.9 3,2.6 5.4,2.6 3.7,0 7.5,-3.7 7.5,-7.2 0,-2.7 -4.5,-6.8 -7.5,-6.8 -1.4,0 -3.7,1.1 -5,2.5 z"
     id="path11924" />
  <path
     style="stroke-width:0.1"
     d="m 950,198 c -4.2,4.2 -1,12 4.8,12 4.6,0 7.2,-2.6 7.2,-7 0,-2.9 -0.6,-4.3 -2.2,-5.4 -3.1,-2.2 -7.4,-2 -9.8,0.4 z"
     id="path11926" />
  <path
     style="stroke-width:0.1"
     d="m 449.3,198.2 c -2.7,1.3 -4.3,5.5 -3.2,8.4 0.9,2.6 4.7,5.4 7.2,5.4 2.6,0 6.7,-4.5 6.7,-7.5 0,-3 -4.1,-7.5 -6.7,-7.4 -1,0 -2.8,0.5 -4,1.1 z"
     id="path11928" />
  <path
     style="stroke-width:0.1"
     d="m 708.7,198.8 c -2.3,2.5 -2.1,7.8 0.3,10.2 4.5,4.5 12,1.1 12,-5.3 0,-2 -0.8,-4.1 -1.8,-5 -2.5,-2.3 -8.5,-2.2 -10.5,0.1 z"
     id="path11930" />
  <path
     style="stroke-width:0.1"
     d="m 92,202 c -2.6,2.6 -2.6,8.1 0,10.5 2.9,2.6 7.9,2.4 10.2,-0.4 2.7,-3.4 2.3,-7.5 -0.8,-10 C 98,199.5 94.6,199.4 92,202 Z"
     id="path11932" />
  <path
     style="stroke-width:0.1"
     d="m 990.5,205.5 c -4,3.9 -2.9,9.7 2.2,11.6 3.6,1.3 7.8,-0.5 9.3,-4 3.1,-7.5 -5.8,-13.4 -11.5,-7.6 z"
     id="path11934" />
  <path
     style="stroke-width:0.1"
     d="m 223.9,205.8 c -4.9,4 -1.7,12.2 4.8,12.2 6.5,0 9.3,-6.1 5.2,-11.4 -2.5,-3.1 -6.6,-3.5 -10,-0.8 z"
     id="path11936" />
  <path
     style="stroke-width:0.1"
     d="m 137.9,209.2 c -1.6,0.5 -3.2,2.2 -3.9,3.9 -3.5,8.4 8.4,13.7 12.9,5.8 3.1,-5.5 -2.8,-11.8 -9,-9.7 z"
     id="path11938" />
  <path
     style="stroke-width:0.1"
     d="m 750.1,210.6 c -1.2,1.5 -2.1,3.4 -2.1,4.4 0,3.4 3.9,7 7.5,7 3.6,0 7.5,-3.6 7.5,-7 0,-3.4 -3.9,-7 -7.5,-7 -2.4,0 -3.9,0.7 -5.4,2.6 z"
     id="path11940" />
  <path
     style="stroke-width:0.1"
     d="m 1032.2,213 c -4.8,4.5 -1.6,12.3 5,12.3 6.4,0 9.2,-8.3 4.2,-12.2 -3.4,-2.7 -6.4,-2.7 -9.2,-0.1 z"
     id="path11942" />
  <path
     style="stroke-width:0.1"
     d="m 486.7,213.8 c -2.3,2.5 -2.1,7.8 0.3,10.2 4.5,4.5 12,1.1 12,-5.3 0,-2 -0.8,-4.1 -1.8,-5 -2.5,-2.3 -8.5,-2.2 -10.5,0.1 z"
     id="path11944" />
  <path
     style="stroke-width:0.1"
     d="m 792.2,215.6 c -6.3,4.4 -3.7,13.4 3.9,13.4 2.8,0 6.9,-4.4 6.9,-7.3 0,-5.5 -6.5,-9.2 -10.8,-6.1 z"
     id="path11946" />
  <path
     style="stroke-width:0.1"
     d="m 260.2,219.3 c -4.5,4.8 -1.4,11.7 5.1,11.7 4.2,0 6.7,-2.6 6.7,-6.8 0,-6.5 -7.4,-9.6 -11.8,-4.9 z"
     id="path11948" />
  <path
     style="stroke-width:0.1"
     d="m 1072.1,219.6 c -4.1,5.3 -1.3,11.4 5.2,11.4 4.2,0 7,-2.9 7,-7.2 0,-6.4 -8.3,-9.2 -12.2,-4.2 z"
     id="path11950" />
  <path
     style="stroke-width:0.1"
     d="m 528.2,226.3 c -2.6,2.7 -2.8,6.4 -0.7,9.4 4.9,7 16,0 12,-7.6 -2.4,-4.7 -7.8,-5.6 -11.3,-1.8 z"
     id="path11952" />
  <path
     style="stroke-width:0.1"
     d="m 831.1,226.6 c -1.2,1.5 -2.1,3.4 -2.1,4.4 0,1 0.9,2.9 2.1,4.4 4.1,5.2 12.2,2.3 12.2,-4.4 0,-6.7 -8.1,-9.6 -12.2,-4.4 z"
     id="path11954" />
  <path
     style="stroke-width:0.1"
     d="m 873.3,231.2 c -5.2,2.5 -5.2,10.5 0.1,12.9 8.3,3.8 14.7,-8.4 6.6,-12.6 -3.3,-1.7 -3.7,-1.7 -6.7,-0.3 z"
     id="path11956" />
  <path
     style="stroke-width:0.1"
     d="m 32.6,233.1 c -3.6,2.8 -3.6,8 0,10.8 1.5,1.2 3.4,2.1 4.4,2.1 3.4,0 7,-3.9 7,-7.5 0,-3.6 -3.6,-7.5 -7,-7.5 -1,0 -2.9,0.9 -4.4,2.1 z"
     id="path11958" />
  <path
     style="stroke-width:0.1"
     d="m 301.7,234.8 c -4,4.4 -0.7,12.2 5.1,12.2 6,0 9.4,-7.8 5.2,-12 -2.6,-2.6 -8.1,-2.6 -10.3,-0.2 z"
     id="path11960" />
  <path
     style="stroke-width:0.1"
     d="m 78,236.7 c -5.1,1.9 -6.8,8.5 -3,12.3 6.1,6.1 15.9,-3.2 10.3,-9.8 -2,-2.3 -5,-3.3 -7.3,-2.5 z"
     id="path11962" />
  <path
     style="stroke-width:0.1"
     d="m 571,237.3 c -5.2,2.6 -4.9,10.4 0.5,12.9 5.8,2.6 11.9,-3.3 9.5,-9.1 -0.6,-1.6 -2.3,-3.3 -3.6,-4 -3.1,-1.4 -3.3,-1.4 -6.4,0.2 z"
     id="path11964" />
  <path
     style="stroke-width:0.1"
     d="m 913.5,242.5 c -5.8,5.7 0.1,14.5 7.8,11.6 5.4,-2.1 5.6,-11.1 0.2,-13.1 -3.9,-1.5 -5.4,-1.2 -8,1.5 z"
     id="path11966" />
  <path
     style="stroke-width:0.1"
     d="m 120.5,245.5 c -2.8,2.7 -3,4.2 -1.4,7.9 3.2,6.9 13.9,3.8 13.9,-4 0,-2.4 -4.7,-6.4 -7.5,-6.4 -1.4,0 -3.7,1.1 -5,2.5 z"
     id="path11968" />
  <path
     style="stroke-width:0.1"
     d="m 609.5,246.5 c -1.4,1.3 -2.5,3.6 -2.5,5 0,2.8 4,7.5 6.4,7.5 7.8,0 10.9,-10.7 4,-13.9 -3.7,-1.6 -5.2,-1.4 -7.9,1.4 z"
     id="path11970" />
  <path
     style="stroke-width:0.1"
     d="m 953.7,247.8 c -4,4.5 -0.6,12.2 5.3,12.2 5.9,0 9,-6.7 5.4,-11.8 -2,-2.8 -8.3,-3.1 -10.7,-0.4 z"
     id="path11972" />
  <path
     style="stroke-width:0.1"
     d="m 167.5,249.5 c -3.9,3.9 -3.2,8.6 1.7,11.1 5.9,3 12.2,-2.7 9.9,-8.9 -1.9,-5.1 -7.7,-6.2 -11.6,-2.2 z"
     id="path11974" />
  <path
     style="stroke-width:0.1"
     d="m 345.2,248.6 c -2.8,2 -3.1,8.3 -0.4,10.7 2.5,2.3 7.8,2.1 10.2,-0.3 6.1,-6.1 -2.7,-15.4 -9.8,-10.4 z"
     id="path11976" />
  <path
     style="stroke-width:0.1"
     d="m 214.5,254.5 c -2.8,2.7 -3.2,6.1 -1,9.2 4.7,6.6 15,0.8 12.3,-7 -1.8,-5.1 -7.4,-6.2 -11.3,-2.2 z"
     id="path11978" />
  <path
     style="stroke-width:0.1"
     d="m 993.1,254.6 c -2.7,3.4 -2.7,6.4 -0.1,9.2 4.7,5 14,0.6 12.5,-5.8 -1.4,-6 -8.8,-8 -12.4,-3.4 z"
     id="path11980" />
  <path
     style="stroke-width:0.1"
     d="m 260.3,254.2 c -1.2,0.6 -2.7,2.4 -3.4,4 -3.4,8.3 8.6,13.6 13,5.7 1.9,-3.3 0.1,-8.1 -3.5,-9.8 -2.9,-1.3 -3.2,-1.3 -6.1,0.1 z"
     id="path11982" />
  <path
     style="stroke-width:0.1"
     d="m 299.2,256.6 c -2.9,2 -3,7.6 -0.2,10.4 4.3,4.3 12,1.1 12,-5 0,-5.9 -6.7,-9 -11.8,-5.4 z"
     id="path11984" />
  <path
     style="stroke-width:0.1"
     d="m 650.2,256.7 c -5.2,4.4 -2.4,12.3 4.4,12.3 6.8,0 9.7,-6.8 4.9,-11.5 -2.8,-2.9 -6.5,-3.2 -9.3,-0.8 z"
     id="path11986" />
  <path
     style="stroke-width:0.1"
     d="m 1040,259.8 c -5.1,1.6 -6.8,8.4 -3,12.2 5.7,5.7 14.9,-1.8 11,-9 -1.1,-2 -5.8,-3.9 -8,-3.2 z"
     id="path11988" />
  <path
     style="stroke-width:0.1"
     d="m 385.2,262.3 c -4.5,4.8 -1.4,11.7 5.1,11.7 4.2,0 6.7,-2.6 6.7,-6.8 0,-6.5 -7.4,-9.6 -11.8,-4.9 z"
     id="path11990" />
  <path
     style="stroke-width:0.1"
     d="m 689.1,265.6 c -1.2,1.5 -2.1,3.4 -2.1,4.4 0,3.4 3.9,7 7.5,7 3.6,0 7.5,-3.6 7.5,-7 0,-3.4 -3.9,-7 -7.5,-7 -2.4,0 -3.9,0.7 -5.4,2.6 z"
     id="path11992" />
  <path
     style="stroke-width:0.1"
     d="m 1079,265 c -4.3,4.3 -1.1,12 5,12 3.8,0 7,-3.2 7,-7 0,-3.8 -3.2,-7 -7,-7 -1.7,0 -3.9,0.9 -5,2 z"
     id="path11994" />
  <path
     style="stroke-width:0.1"
     d="m 33,274 c -6.2,6.2 3.1,15.8 9.9,10.2 2.8,-2.2 3.1,-7.5 0.6,-10.2 -2.4,-2.6 -7.9,-2.6 -10.5,0 z"
     id="path11996" />
  <path
     style="stroke-width:0.1"
     d="m 422.7,273.8 c -2.3,2.5 -2.1,7.8 0.3,10.2 4.3,4.3 12,1.1 12,-5 0,-1.7 -0.9,-3.9 -2,-5 -2.6,-2.6 -8.1,-2.6 -10.3,-0.2 z"
     id="path11998" />
  <path
     style="stroke-width:0.1"
     d="m 731.2,276.3 c -4.5,4.8 -1.4,11.7 5.1,11.7 4.2,0 6.7,-2.6 6.7,-6.8 0,-6.5 -7.4,-9.6 -11.8,-4.9 z"
     id="path12000" />
  <path
     style="stroke-width:0.1"
     d="m 77.1,278.6 c -1.2,1.5 -2.1,3.5 -2.1,4.6 0,2.7 4.5,6.8 7.5,6.8 2.9,0 7.5,-4 7.5,-6.5 0,-2 -1.9,-5.7 -3.4,-6.7 -2.6,-1.8 -7.5,-0.8 -9.5,1.8 z"
     id="path12002" />
  <path
     style="stroke-width:0.1"
     d="m 121.3,280 c -4.8,1.9 -5.8,8.7 -1.7,11.9 5.3,4.1 11.4,1.3 11.4,-5.2 0,-5.1 -5,-8.6 -9.7,-6.7 z"
     id="path12004" />
  <path
     style="stroke-width:0.1"
     d="m 771.1,283.6 c -1.2,1.5 -2.1,3.5 -2.1,4.6 0,2.7 4.5,6.8 7.5,6.8 2.9,0 7.5,-4 7.5,-6.5 0,-2 -1.9,-5.7 -3.4,-6.7 -2.6,-1.8 -7.5,-0.8 -9.5,1.8 z"
     id="path12006" />
  <path
     style="stroke-width:0.1"
     d="m 164.3,284 c -4.9,2 -5.6,9 -1.1,12.3 7.3,5.4 15.3,-5.6 8.2,-11.2 -2.9,-2.3 -3.8,-2.4 -7.1,-1.1 z"
     id="path12008" />
  <path
     style="stroke-width:0.1"
     d="m 466.3,284.2 c -6.8,3.3 -4,13.8 3.7,13.8 2.8,0 7,-4.4 7,-7.3 0,-5.1 -6.1,-8.8 -10.7,-6.5 z"
     id="path12010" />
  <path
     style="stroke-width:0.1"
     d="m 203.7,286.8 c -2.5,2.8 -2.2,8.7 0.5,10.6 7.1,5 15.9,-4.3 9.8,-10.4 -2.6,-2.6 -8.1,-2.6 -10.3,-0.2 z"
     id="path12012" />
  <path
     style="stroke-width:0.1"
     d="m 249.5,289.5 c -3.7,3.7 -3,9.1 1.6,11.5 5.5,3 12.3,-3.2 9.9,-9 -1.1,-2.7 -4.6,-5 -7.6,-5 -0.8,0 -2.6,1.1 -3.9,2.5 z"
     id="path12014" />
  <path
     style="stroke-width:0.1"
     d="m 812.6,290.2 c -5,7.1 4.3,15.9 10.4,9.8 2.6,-2.6 2.6,-8.1 0.2,-10.3 -2.8,-2.5 -8.7,-2.2 -10.6,0.5 z"
     id="path12016" />
  <path
     style="stroke-width:0.1"
     d="m 305.1,292.6 c -2.4,3 -2.6,4.6 -1,7.7 1.6,3 2.8,3.7 6.6,3.7 4.1,0 7.7,-4.2 6.8,-8 -1.4,-6 -8.8,-8 -12.4,-3.4 z"
     id="path12018" />
  <path
     style="stroke-width:0.1"
     d="m 359.9,293.2 c -1.6,0.5 -3.2,2.2 -3.9,3.9 -3.5,8.4 8.4,13.7 12.9,5.8 3.1,-5.5 -2.8,-11.8 -9,-9.7 z"
     id="path12020" />
  <path
     style="stroke-width:0.1"
     d="m 409.1,296.6 c -1.2,1.5 -2.1,3.4 -2.1,4.4 0,3.4 3.9,7 7.5,7 3.6,0 7.5,-3.6 7.5,-7 0,-3.4 -3.9,-7 -7.5,-7 -2.4,0 -3.9,0.7 -5.4,2.6 z"
     id="path12022" />
  <path
     style="stroke-width:0.1"
     d="m 505.2,297 c -4.8,4.5 -1.6,12.3 5,12.3 6.4,0 9.2,-8.3 4.2,-12.2 -3.4,-2.7 -6.4,-2.7 -9.2,-0.1 z"
     id="path12024" />
  <path
     style="stroke-width:0.1"
     d="m 854,299 c -2.6,2.6 -2.6,8.1 0,10.5 2.9,2.6 7.9,2.4 10.2,-0.4 2.7,-3.4 2.3,-7.5 -0.8,-10 -3.4,-2.6 -6.8,-2.7 -9.4,-0.1 z"
     id="path12026" />
  <path
     style="stroke-width:0.1"
     d="m 895.6,304.2 c -3.6,5.1 -0.5,11.8 5.4,11.8 5.9,0 9,-6.7 5.4,-11.8 -1.1,-1.6 -2.5,-2.2 -5.4,-2.2 -2.9,0 -4.3,0.6 -5.4,2.2 z"
     id="path12028" />
  <path
     style="stroke-width:0.1"
     d="m 545.5,306.5 c -4,3.9 -2.9,9.7 2.2,11.6 8.4,3.2 13.7,-9.3 5.6,-13 -3.6,-1.6 -5.1,-1.4 -7.8,1.4 z"
     id="path12030" />
  <path
     style="stroke-width:0.1"
     d="m 934.5,311.5 c -1.4,1.3 -2.5,3.1 -2.5,3.9 0,3 2.3,6.5 5,7.6 5.8,2.4 12,-4.4 9,-9.9 -2.4,-4.6 -7.8,-5.3 -11.5,-1.6 z"
     id="path12032" />
  <path
     style="stroke-width:0.1"
     d="m 583.6,315.1 c -1.9,1.5 -2.6,3 -2.6,5.4 0,3.6 3.6,7.5 7,7.5 3.4,0 7,-3.9 7,-7.5 0,-3.6 -3.6,-7.5 -7,-7.5 -1,0 -2.9,0.9 -4.4,2.1 z"
     id="path12034" />
  <path
     style="stroke-width:0.1"
     d="m 979.3,316.2 c -6.8,3.3 -4,13.8 3.7,13.8 2.8,0 7,-4.4 7,-7.3 0,-5.1 -6.1,-8.8 -10.7,-6.5 z"
     id="path12036" />
  <path
     style="stroke-width:0.1"
     d="m 1027.3,318.2 c -1.2,0.6 -2.7,2.4 -3.4,4 -3.4,8.3 8.6,13.6 13,5.7 1.9,-3.3 0.1,-8.1 -3.5,-9.8 -2.9,-1.3 -3.2,-1.3 -6.1,0.1 z"
     id="path12038" />
  <path
     style="stroke-width:0.1"
     d="m 1071,322 c -4.3,4.3 -1.1,12 5,12 3.8,0 7,-3.2 7,-7 0,-3.8 -3.2,-7 -7,-7 -1.7,0 -3.9,0.9 -5,2 z"
     id="path12040" />
  <path
     style="stroke-width:0.1"
     d="m 623,323.7 c -5.3,1.9 -6.8,8.6 -2.8,12.3 6.3,5.9 15.7,-3.2 10.1,-9.8 -2,-2.3 -5,-3.3 -7.3,-2.5 z"
     id="path12042" />
  <path
     style="stroke-width:0.1"
     d="m 30.9,325.8 c -4.9,4 -1.7,12.2 4.8,12.2 6.5,0 9.3,-6.1 5.2,-11.4 -2.5,-3.1 -6.6,-3.5 -10,-0.8 z"
     id="path12044" />
  <path
     style="stroke-width:0.1"
     d="m 69.9,330.8 c -4.9,4 -1.7,12.2 4.8,12.2 6.5,0 9.3,-6.1 5.2,-11.4 -2.5,-3.1 -6.6,-3.5 -10,-0.8 z"
     id="path12046" />
  <path
     style="stroke-width:0.1"
     d="m 111,334 c -2.7,2.7 -2.5,6.6 0.5,9.5 6.3,6.3 16,-1.8 10.5,-8.8 -2.7,-3.4 -8,-3.7 -11,-0.7 z"
     id="path12048" />
  <path
     style="stroke-width:0.1"
     d="m 662.6,333.5 c -5.9,6 1,15.5 8.3,11.4 6.3,-3.6 4.2,-12.1 -3.1,-12.7 -2.3,-0.2 -4.1,0.3 -5.2,1.3 z"
     id="path12050" />
  <path
     style="stroke-width:0.1"
     d="m 568.1,335.6 c -1.2,1.5 -2.1,3.4 -2.1,4.4 0,3.4 3.9,7 7.5,7 4.3,0 7.9,-4.1 7,-8 -1.4,-6 -8.8,-8 -12.4,-3.4 z"
     id="path12052" />
  <path
     style="stroke-width:0.1"
     d="m 152.7,335.2 c -4.1,3.2 -3.8,9.4 0.6,12.3 4.6,3 10.7,-0.6 10.7,-6.3 0,-5.1 -7.3,-9 -11.3,-6 z"
     id="path12054" />
  <path
     style="stroke-width:0.1"
     d="m 194.3,336 c -4.8,1.9 -5.8,8.7 -1.7,11.9 3.4,2.7 6.4,2.7 9.2,0.1 5.7,-5.3 -0.3,-14.9 -7.5,-12 z"
     id="path12056" />
  <path
     style="stroke-width:0.1"
     d="m 235,339 c -4.3,4.3 -1.1,12 5,12 3.8,0 7,-3.2 7,-7 0,-3.8 -3.2,-7 -7,-7 -1.7,0 -3.9,0.9 -5,2 z"
     id="path12058" />
  <path
     style="stroke-width:0.1"
     d="m 526.5,339 c -4.1,4.5 -1,12 5,12 3.8,0 7.5,-3.5 7.5,-7.1 0,-5.8 -8.7,-9.1 -12.5,-4.9 z"
     id="path12060" />
  <path
     style="stroke-width:0.1"
     d="m 277.7,341.2 c -3.7,3.3 -4,7.5 -0.7,10.8 2.7,2.7 6.6,2.5 9.5,-0.5 2.9,-2.8 3.2,-6.5 0.8,-9.3 -2.8,-3.3 -6.6,-3.7 -9.6,-1 z"
     id="path12062" />
  <path
     style="stroke-width:0.1"
     d="m 319.5,341.5 c -1.4,1.3 -2.5,3.6 -2.5,5 0,2.8 4,7.5 6.4,7.5 2.9,0 6.4,-2.2 7.5,-4.8 1.6,-3.3 -0.1,-7.5 -3.5,-9.1 -3.7,-1.6 -5.2,-1.4 -7.9,1.4 z"
     id="path12064" />
  <path
     style="stroke-width:0.1"
     d="m 488,340.3 c -5.2,2.6 -4.9,10.4 0.5,12.9 5.8,2.6 11.9,-3.3 9.5,-9.1 -0.6,-1.6 -2.3,-3.3 -3.6,-4 -3.1,-1.4 -3.3,-1.4 -6.4,0.2 z"
     id="path12066" />
  <path
     style="stroke-width:0.1"
     d="m 703.3,340.2 c -6.8,3.3 -4,13.8 3.7,13.8 2.8,0 7,-4.4 7,-7.3 0,-5.1 -6.1,-8.8 -10.7,-6.5 z"
     id="path12068" />
  <path
     style="stroke-width:0.1"
     d="m 361,343 c -2.4,2.4 -2.6,6.7 -0.4,9.8 1.1,1.6 2.5,2.2 5.4,2.2 2.9,0 4.3,-0.6 5.4,-2.2 3.6,-5.1 0.5,-11.8 -5.4,-11.8 -1.7,0 -3.9,0.9 -5,2 z"
     id="path12070" />
  <path
     style="stroke-width:0.1"
     d="m 406,341.7 c -5.5,2 -6.8,8.7 -2.4,12.2 1.5,1.2 3.4,2.1 4.4,2.1 3.3,0 7,-3.9 7,-7.4 0,-4.6 -4.9,-8.4 -9,-6.9 z"
     id="path12072" />
  <path
     style="stroke-width:0.1"
     d="m 447,341.7 c -5.1,1.9 -6.8,8.5 -3,12.3 6.1,6.1 15.9,-3.3 10.3,-9.8 -2,-2.3 -5,-3.3 -7.3,-2.5 z"
     id="path12074" />
  <path
     style="stroke-width:0.1"
     d="m 743.2,348.3 c -4.5,4.8 -1.4,11.7 5.1,11.7 4.3,0 6.7,-2.6 6.7,-7.3 0,-6.3 -7.4,-9.1 -11.8,-4.4 z"
     id="path12076" />
  <path
     style="stroke-width:0.1"
     d="m 787.5,357.5 c -2.8,2.7 -3.1,4.5 -1.4,7.8 1.6,3 2.8,3.7 6.6,3.7 3.5,0 7.3,-3.7 7.3,-7.2 0,-2.7 -4.5,-6.8 -7.5,-6.8 -1.4,0 -3.7,1.1 -5,2.5 z"
     id="path12078" />
  <path
     style="stroke-width:0.1"
     d="m 684,362.3 c -1.4,0.7 -3.1,2.5 -3.8,4 -2.7,5.6 3.5,11.5 9.3,8.9 5.5,-2.5 5.8,-10 0.5,-12.7 -3.5,-1.8 -2.9,-1.8 -6,-0.2 z"
     id="path12080" />
  <path
     style="stroke-width:0.1"
     d="m 832.9,362.2 c -1.6,0.5 -3.2,2.2 -3.9,3.9 -3.5,8.4 8.4,13.7 12.9,5.8 3.1,-5.5 -2.8,-11.8 -9,-9.7 z"
     id="path12082" />
  <path
     style="stroke-width:0.1"
     d="m 647.3,366 c -2.5,1 -4.3,3.9 -4.3,7 0,2.9 4.4,7 7.5,7 6.2,0 8.9,-8.9 3.9,-12.9 -2.9,-2.3 -3.8,-2.4 -7.1,-1.1 z"
     id="path12084" />
  <path
     style="stroke-width:0.1"
     d="m 873.1,369.6 c -1.2,1.5 -2.1,3.4 -2.1,4.4 0,3.4 3.9,7 7.5,7 3.6,0 7.5,-3.6 7.5,-7 0,-3.4 -3.9,-7 -7.5,-7 -2.4,0 -3.9,0.7 -5.4,2.6 z"
     id="path12086" />
  <path
     style="stroke-width:0.1"
     d="m 606.5,371.5 c -1.4,1.3 -2.5,3.6 -2.5,5 0,3 4.1,7.5 6.8,7.5 3.5,0 7.2,-3.8 7.2,-7.5 0,-2.4 -0.7,-3.9 -2.6,-5.4 -3.5,-2.7 -5.9,-2.6 -8.9,0.4 z"
     id="path12088" />
  <path
     style="stroke-width:0.1"
     d="m 911.2,374.3 c -4.5,4.8 -1.4,11.7 5.1,11.7 4.2,0 6.7,-2.6 6.7,-6.8 0,-6.5 -7.4,-9.6 -11.8,-4.9 z"
     id="path12090" />
  <path
     style="stroke-width:0.1"
     d="m 570.3,374.8 c -5.1,0.8 -7,8.3 -3,12 4.8,4.5 11.7,1.4 11.7,-5.1 0,-4.8 -3.8,-7.7 -8.7,-6.9 z"
     id="path12092" />
  <path
     style="stroke-width:0.1"
     d="m 950.2,378.3 c -4.5,4.8 -1.4,11.7 5.1,11.7 4.2,0 7,-2.9 7,-7.2 0,-6.1 -7.8,-9.1 -12.1,-4.5 z"
     id="path12094" />
  <path
     style="stroke-width:0.1"
     d="m 526.8,379.6 c -5.1,2.7 -4.6,10.1 0.7,12.6 5.8,2.6 11.9,-3.3 9.5,-9.1 -0.6,-1.6 -2.3,-3.3 -3.6,-4 -3.1,-1.4 -3.3,-1.4 -6.6,0.5 z"
     id="path12096" />
  <path
     style="stroke-width:0.1"
     d="m 984,382 c -4.3,4.3 -1.1,12 5,12 4.1,0 7,-3.1 7,-7.4 0,-6 -7.7,-8.9 -12,-4.6 z"
     id="path12098" />
  <path
     style="stroke-width:0.1"
     d="m 481.5,384.5 c -1.4,1.3 -2.5,3.6 -2.5,5 0,2.9 4,7.5 6.5,7.5 2,0 5.7,-1.9 6.7,-3.4 1.8,-2.6 0.8,-7.5 -1.8,-9.5 -3.5,-2.7 -5.9,-2.6 -8.9,0.4 z"
     id="path12100" />
  <path
     style="stroke-width:0.1"
     d="m 1024,386 c -4.2,4.2 -0.8,12 5.3,12 5.8,0 9.1,-8.5 4.9,-12.3 -2.5,-2.3 -7.8,-2.1 -10.2,0.3 z"
     id="path12102" />
  <path
     style="stroke-width:0.1"
     d="m 441,387 c -2.6,2.6 -2.6,8.1 -0.2,10.3 4.4,4 12.2,0.7 12.2,-5.1 0,-6 -7.8,-9.4 -12,-5.2 z"
     id="path12104" />
  <path
     style="stroke-width:0.1"
     d="m 799,387 c -2.6,2.6 -2.6,8.1 -0.2,10.3 4.4,4 12.2,0.7 12.2,-5.1 0,-6 -7.8,-9.4 -12,-5.2 z"
     id="path12106" />
  <path
     style="stroke-width:0.1"
     d="m 399.6,388.1 c -3.4,2.7 -3.5,7.1 -0.1,10.4 3,3 5.4,3.1 8.9,0.4 3.6,-2.8 3.6,-8 0,-10.8 -1.5,-1.2 -3.4,-2.1 -4.4,-2.1 -1,0 -2.9,0.9 -4.4,2.1 z"
     id="path12108" />
  <path
     style="stroke-width:0.1"
     d="m 1062.6,388.1 c -1.9,1.5 -2.6,3 -2.6,5.4 0,3.6 3.6,7.5 7,7.5 3.4,0 7,-3.9 7,-7.5 0,-3.6 -3.6,-7.5 -7,-7.5 -1,0 -2.9,0.9 -4.4,2.1 z"
     id="path12110" />
  <path
     style="stroke-width:0.1"
     d="m 357.2,390.6 c -2.8,2 -3.1,8.3 -0.4,10.7 2.5,2.3 7.8,2.1 10.2,-0.3 6.1,-6.1 -2.7,-15.4 -9.8,-10.4 z"
     id="path12112" />
  <path
     style="stroke-width:0.1"
     d="m 1103.1,391.6 c -1.2,1.5 -2.1,3.4 -2.1,4.4 0,3.4 3.9,7 7.5,7 3.6,0 7.5,-3.6 7.5,-7 0,-3.4 -3.9,-7 -7.5,-7 -2.4,0 -3.9,0.7 -5.4,2.6 z"
     id="path12114" />
  <path
     style="stroke-width:0.1"
     d="m 21.5,392.5 c -1.4,1.3 -2.5,3.1 -2.5,3.9 0,3 2.3,6.5 5,7.6 5.8,2.4 12,-4.4 9,-9.9 -2.4,-4.6 -7.8,-5.3 -11.5,-1.6 z"
     id="path12116" />
  <path
     style="stroke-width:0.1"
     d="m 67.6,392.1 c -4.6,3.6 -2.6,11 3.4,12.4 3.9,0.9 8,-2.7 8,-7 0,-3.6 -3.6,-7.5 -7,-7.5 -1,0 -2.9,0.9 -4.4,2.1 z"
     id="path12118" />
  <path
     style="stroke-width:0.1"
     d="m 321.2,392.6 c -6.3,4.4 -3.7,13.4 3.9,13.4 2.8,0 6.9,-4.4 6.9,-7.3 0,-5.5 -6.5,-9.2 -10.8,-6.1 z"
     id="path12120" />
  <path
     style="stroke-width:0.1"
     d="m 109,394 c -4.2,4.2 -0.8,12 5.3,12 5.8,0 9.1,-8.5 4.9,-12.3 -2.5,-2.3 -7.8,-2.1 -10.2,0.3 z"
     id="path12122" />
  <path
     style="stroke-width:0.1"
     d="m 154.3,393.2 c -5.1,2.4 -5,10.6 0.1,12.9 8.3,3.8 14.7,-8.4 6.6,-12.6 -3.3,-1.7 -3.7,-1.7 -6.7,-0.3 z"
     id="path12124" />
  <path
     style="stroke-width:0.1"
     d="m 193.1,395.6 c -1.2,1.5 -2.1,3.4 -2.1,4.4 0,3.4 3.9,7 7.5,7 3.6,0 7.5,-3.6 7.5,-7 0,-3.4 -3.9,-7 -7.5,-7 -2.4,0 -3.9,0.7 -5.4,2.6 z"
     id="path12126" />
  <path
     style="stroke-width:0.1"
     d="m 237.3,394.2 c -6.8,3.3 -4,13.8 3.7,13.8 2.8,0 7,-4.4 7,-7.3 0,-5.1 -6.1,-8.8 -10.7,-6.5 z"
     id="path12128" />
  <path
     style="stroke-width:0.1"
     d="m 276.5,395 c -4.2,4.6 -0.8,12 5.4,12 3.4,0 7.1,-3.7 7.1,-7.1 0,-6 -8.5,-9.3 -12.5,-4.9 z"
     id="path12130" />
  <path
     style="stroke-width:0.1"
     d="m 763.9,399.8 c -4.9,4 -1.7,12.2 4.8,12.2 6.5,0 9.3,-6.1 5.2,-11.4 -2.5,-3.1 -6.6,-3.5 -10,-0.8 z"
     id="path12132" />
  <path
     style="stroke-width:0.1"
     d="m 726.4,413.2 c -6.9,3.3 -3.7,13.8 4.2,13.8 2.4,0 6.4,-4.7 6.4,-7.5 0,-3 -4.1,-7.5 -6.7,-7.4 -1,0 -2.8,0.5 -3.9,1.1 z"
     id="path12134" />
  <path
     style="stroke-width:0.1"
     d="m 934.1,416.6 c -1.2,1.5 -2.1,3.4 -2.1,4.4 0,1 0.9,2.9 2.1,4.4 4.1,5.2 12.2,2.3 12.2,-4.4 0,-6.7 -8.1,-9.6 -12.2,-4.4 z"
     id="path12136" />
  <path
     style="stroke-width:0.1"
     d="m 686.7,421.1 c -4.8,2.8 -4,10.7 1.3,12.9 2.3,0.9 3.4,0.9 5.8,-0.4 4.9,-2.5 5.6,-7.2 1.7,-11.1 -2.5,-2.6 -5.8,-3.1 -8.8,-1.4 z"
     id="path12138" />
  <path
     style="stroke-width:0.1"
     d="m 893,427 c -2.6,2.6 -2.6,8.1 -0.2,10.3 2.8,2.5 8.7,2.2 10.6,-0.5 5,-7.1 -4.3,-15.9 -10.4,-9.8 z"
     id="path12140" />
  <path
     style="stroke-width:0.1"
     d="m 645,433 c -6.2,6.2 3.1,15.8 9.9,10.2 2.8,-2.2 3.1,-7.5 0.6,-10.2 -2.4,-2.6 -7.9,-2.6 -10.5,0 z"
     id="path12142" />
  <path
     style="stroke-width:0.1"
     d="m 852,436 c -4.2,4.2 -1.2,12 4.8,12 4.6,0 7.2,-2.5 7.2,-7 0,-2.9 -0.6,-4.3 -2.2,-5.4 -3.1,-2.2 -7.4,-2 -9.8,0.4 z"
     id="path12144" />
  <path
     style="stroke-width:0.1"
     d="m 996,435.3 c -1.3,0.7 -2.9,2.5 -3.4,3.9 -2.9,8.3 9.4,13.7 12.8,5.6 1.7,-3.9 1.1,-6.3 -2.2,-8.8 -2.9,-2.3 -3.8,-2.4 -7.2,-0.7 z"
     id="path12146" />
  <path
     style="stroke-width:0.1"
     d="m 604,439 c -4.3,4.3 -1.1,12 5,12 3.8,0 7,-3.2 7,-7 0,-3.8 -3.2,-7 -7,-7 -1.7,0 -3.9,0.9 -5,2 z"
     id="path12148" />
  <path
     style="stroke-width:0.1"
     d="m 562.7,443.8 c -2.3,2.5 -2.1,7.8 0.3,10.2 4.3,4.3 12,1.1 12,-5 0,-1.7 -0.9,-3.9 -2,-5 -2.6,-2.6 -8.1,-2.6 -10.3,-0.2 z"
     id="path12150" />
  <path
     style="stroke-width:0.1"
     d="m 812.9,445.8 c -4.9,4 -1.7,12.2 4.8,12.2 6.5,0 9.3,-6.1 5.2,-11.4 -2.5,-3.1 -6.6,-3.5 -10,-0.8 z"
     id="path12152" />
  <path
     style="stroke-width:0.1"
     d="m 521.9,449.8 c -4.8,4 -1.7,12.2 4.7,12.2 6.6,0 9.8,-7.4 5.1,-11.8 -2.8,-2.7 -6.7,-2.8 -9.8,-0.4 z"
     id="path12154" />
  <path
     style="stroke-width:0.1"
     d="m 954.1,452.6 c -2.7,3.4 -2.7,6.4 -0.1,9.2 4.5,4.8 12.3,1.6 12.3,-5 0,-6.4 -8.3,-9.2 -12.2,-4.2 z"
     id="path12156" />
  <path
     style="stroke-width:0.1"
     d="m 479.6,453.3 c -4.9,4.9 -2.1,12.1 4.8,12.1 4.6,0 7,-2.3 7,-6.9 0,-4.2 -1.8,-6.2 -6.1,-7.1 -2.6,-0.5 -3.7,-0.1 -5.7,1.9 z"
     id="path12158" />
  <path
     style="stroke-width:0.1"
     d="m 772.2,456 c -4.8,4.5 -1.6,12.3 5,12.3 6.4,0 9.2,-8.3 4.2,-12.2 -3.4,-2.7 -6.4,-2.7 -9.2,-0.1 z"
     id="path12160" />
  <path
     style="stroke-width:0.1"
     d="m 440.3,458 c -2.5,1 -4.3,3.9 -4.3,7 0,2.9 4.4,7 7.5,7 6.2,0 8.9,-8.9 3.9,-12.9 -2.9,-2.3 -3.8,-2.4 -7.1,-1.1 z"
     id="path12162" />
  <path
     style="stroke-width:0.1"
     d="m 396,462 c -4.2,4.2 -0.8,12 5.3,12 5.8,0 9.1,-8.5 4.9,-12.3 -2.5,-2.3 -7.8,-2.1 -10.2,0.3 z"
     id="path12164" />
  <path
     style="stroke-width:0.1"
     d="m 916.5,462.2 c -5,2.7 -5.9,7.5 -2,11.3 2.9,3 6.4,3.2 9.6,0.7 5.9,-4.8 -0.9,-15.7 -7.6,-12 z"
     id="path12166" />
  <path
     style="stroke-width:0.1"
     d="m 355.6,465.1 c -4.6,3.6 -2.6,11 3.4,12.4 3.8,0.9 8,-2.7 8,-6.8 0,-3.8 -0.7,-5 -3.7,-6.6 -3.1,-1.6 -4.7,-1.4 -7.7,1 z"
     id="path12168" />
  <path
     style="stroke-width:0.1"
     d="m 731.2,465.3 c -4.5,4.8 -1.4,11.7 5.1,11.7 4.2,0 6.7,-2.6 6.7,-6.8 0,-6.5 -7.4,-9.6 -11.8,-4.9 z"
     id="path12170" />
  <path
     style="stroke-width:0.1"
     d="m 315.5,470.5 c -4,3.9 -2.9,9.7 2.2,11.6 6.2,2.3 11.9,-4 8.9,-9.9 -2.5,-4.9 -7.2,-5.6 -11.1,-1.7 z"
     id="path12172" />
  <path
     style="stroke-width:0.1"
     d="m 272.6,472.1 c -3.6,2.8 -3.6,8 0,10.8 1.5,1.2 3.4,2.1 4.4,2.1 3.4,0 7,-3.9 7,-7.5 0,-3.6 -3.6,-7.5 -7,-7.5 -1,0 -2.9,0.9 -4.4,2.1 z"
     id="path12174" />
  <path
     style="stroke-width:0.1"
     d="m 691.8,471.5 c -5.4,3 -4.2,11.6 1.8,13.1 8.3,2.1 12.6,-9.9 4.8,-13.5 -3.1,-1.4 -3.3,-1.4 -6.6,0.4 z"
     id="path12176" />
  <path
     style="stroke-width:0.1"
     d="m 231,476 c -1.1,1.1 -2,3.3 -2,5 0,1.7 0.9,3.9 2,5 1.1,1.1 3.3,2 5,2 1.7,0 3.9,-0.9 5,-2 1.1,-1.1 2,-3.3 2,-5 0,-1.7 -0.9,-3.9 -2,-5 -1.1,-1.1 -3.3,-2 -5,-2 -1.7,0 -3.9,0.9 -5,2 z"
     id="path12178" />
  <path
     style="stroke-width:0.1"
     d="m 877.3,475.2 c -6.8,3.3 -4,13.8 3.7,13.8 2.8,0 7,-4.4 7,-7.3 0,-5.1 -6.1,-8.8 -10.7,-6.5 z"
     id="path12180" />
  <path
     style="stroke-width:0.1"
     d="m 189,478 c -2.6,2.6 -2.6,8.1 -0.2,10.3 4.4,4 12.2,0.7 12.2,-5.1 0,-6 -7.8,-9.4 -12,-5.2 z"
     id="path12182" />
  <path
     style="stroke-width:0.1"
     d="m 148.6,480.1 c -1.9,1.5 -2.6,3 -2.6,5.4 0,3.6 3.6,7.5 7,7.5 3.4,0 7,-3.9 7,-7.5 0,-3.6 -3.6,-7.5 -7,-7.5 -1,0 -2.9,0.9 -4.4,2.1 z"
     id="path12184" />
  <path
     style="stroke-width:0.1"
     d="m 651.3,480.2 c -2.8,1.4 -4.3,5.5 -3.1,8.9 0.9,2.6 4.4,4.9 7.4,4.9 2.4,0 6.4,-4.7 6.4,-7.5 0,-3 -4.1,-7.5 -6.7,-7.4 -1,0 -2.8,0.5 -4,1.1 z"
     id="path12186" />
  <path
     style="stroke-width:0.1"
     d="m 65.5,482.5 c -4,3.9 -2.9,9.5 2.2,11.3 7.8,2.7 13.6,-7.6 7,-12.3 -3.1,-2.2 -6.5,-1.8 -9.2,1 z"
     id="path12188" />
  <path
     style="stroke-width:0.1"
     d="m 106.2,480.7 c -0.7,0.3 -1.9,1.8 -2.8,3.5 -1.3,2.4 -1.3,3.5 -0.4,5.8 3.1,7.4 14,5.1 14,-3 0,-4.5 -6.3,-8.1 -10.8,-6.3 z"
     id="path12190" />
  <path
     style="stroke-width:0.1"
     d="m 25.3,484 c -4.6,1.9 -5.7,8.3 -2,11.8 4.8,4.5 11.7,1.4 11.7,-5.1 0,-5.1 -5,-8.6 -9.7,-6.7 z"
     id="path12192" />
  <path
     style="stroke-width:0.1"
     d="m 1106.5,485.5 c -4.6,4.5 -1.9,11.8 4.3,11.8 5.8,0 9.3,-5.3 6.7,-10.2 -2.4,-4.8 -7.2,-5.5 -11,-1.6 z"
     id="path12194" />
  <path
     style="stroke-width:0.1"
     d="m 611,485.7 c -7.4,2.7 -6.2,14.3 1.5,14.3 3.3,0 7.5,-4.2 7.5,-7.3 0,-4.4 -5.1,-8.4 -9,-7 z"
     id="path12196" />
  <path
     style="stroke-width:0.1"
     d="m 1064.5,487.5 c -1.4,1.3 -2.5,3.6 -2.5,5 0,3 4.1,7.5 6.8,7.5 3.5,0 7.2,-3.8 7.2,-7.3 0,-3.8 -0.7,-5 -3.7,-6.6 -3.3,-1.7 -5.1,-1.4 -7.8,1.4 z"
     id="path12198" />
  <path
     style="stroke-width:0.1"
     d="m 981,488 c -4.2,4.2 -0.8,12 5.3,12 5.8,0 9.1,-8.5 4.9,-12.3 -2.5,-2.3 -7.8,-2.1 -10.2,0.3 z"
     id="path12200" />
  <path
     style="stroke-width:0.1"
     d="m 837.3,488.2 c -1.2,0.6 -2.7,2.3 -3.3,3.8 -2.4,5.8 4.4,12 9.9,9 4.6,-2.4 5.3,-7.8 1.6,-11.5 -2.6,-2.7 -4.7,-3 -8.2,-1.3 z"
     id="path12202" />
  <path
     style="stroke-width:0.1"
     d="m 940.1,489.6 c -1.2,1.5 -2.1,3.5 -2.1,4.6 0,2.7 4.5,6.8 7.5,6.8 3,0 7.5,-4.1 7.5,-6.8 0,-3.5 -3.8,-7.2 -7.5,-7.2 -2.4,0 -3.9,0.7 -5.4,2.6 z"
     id="path12204" />
  <path
     style="stroke-width:0.1"
     d="m 1025.5,488.2 c -5,2.7 -5.9,7.5 -2,11.3 4.2,4.3 10.6,2.3 12,-3.6 1.2,-4.8 -5.7,-10.1 -10,-7.7 z"
     id="path12206" />
  <path
     style="stroke-width:0.1"
     d="m 567.6,496.1 c -1.9,1.5 -2.6,3 -2.6,5.4 0,3.6 3.6,7.5 7,7.5 3.4,0 7,-3.9 7,-7.5 0,-3.6 -3.6,-7.5 -7,-7.5 -1,0 -2.9,0.9 -4.4,2.1 z"
     id="path12208" />
  <path
     style="stroke-width:0.1"
     d="m 525.6,501.1 c -4.6,3.6 -2.6,11 3.4,12.4 6.4,1.5 10.8,-7.8 5.8,-12.5 -2.8,-2.6 -5.8,-2.6 -9.2,0.1 z"
     id="path12210" />
  <path
     style="stroke-width:0.1"
     d="m 795.5,501.5 c -3,3 -3.1,5.4 -0.4,8.9 1.5,1.9 3,2.6 5.4,2.6 3.6,0 7.5,-3.6 7.5,-7 0,-1 -0.9,-2.9 -2.1,-4.4 -2.7,-3.4 -7.1,-3.5 -10.4,-0.1 z"
     id="path12212" />
  <path
     style="stroke-width:0.1"
     d="m 485.8,506.5 c -5.3,2.9 -4.2,11.6 1.6,13.1 8.4,2.1 13.1,-9.2 5.6,-13.1 -3.5,-1.8 -3.8,-1.8 -7.2,0 z"
     id="path12214" />
  <path
     style="stroke-width:0.1"
     d="m 755.3,511.6 c -2,2 -2.4,3.1 -1.9,5.7 0.9,4.3 2.9,6.1 7.1,6.1 4.2,0 6.2,-1.8 7.1,-6.1 0.5,-2.6 0.1,-3.7 -1.9,-5.7 -1.5,-1.5 -3.8,-2.6 -5.2,-2.6 -1.4,0 -3.7,1.1 -5.2,2.6 z"
     id="path12216" />
  <path
     style="stroke-width:0.1"
     d="m 445.2,515.3 c -4.5,4.8 -1.4,11.7 5.1,11.7 4.2,0 6.7,-2.6 6.7,-6.8 0,-6.5 -7.4,-9.6 -11.8,-4.9 z"
     id="path12218" />
  <path
     style="stroke-width:0.1"
     d="m 402,520 c -1.1,1.1 -2,3.3 -2,5 0,1.7 0.9,3.9 2,5 1.1,1.1 3.3,2 5,2 1.7,0 3.9,-0.9 5,-2 1.1,-1.1 2,-3.3 2,-5 0,-1.7 -0.9,-3.9 -2,-5 -1.1,-1.1 -3.3,-2 -5,-2 -1.7,0 -3.9,0.9 -5,2 z"
     id="path12220" />
  <path
     style="stroke-width:0.1"
     d="m 715.1,523.6 c -1.2,1.5 -2.1,3.4 -2.1,4.4 0,3.4 3.9,7 7.5,7 3.6,0 7.5,-3.6 7.5,-7 0,-3.4 -3.9,-7 -7.5,-7 -2.4,0 -3.9,0.7 -5.4,2.6 z"
     id="path12222" />
  <path
     style="stroke-width:0.1"
     d="m 361.5,526.5 c -4.8,4.7 -1.9,11.5 4.8,11.5 4.2,0 7,-2.9 7,-7.2 0,-6.2 -7.3,-8.9 -11.8,-4.3 z"
     id="path12224" />
  <path
     style="stroke-width:0.1"
     d="m 319.1,531.6 c -1.2,1.5 -2.1,3.4 -2.1,4.4 0,3.4 3.9,7 7.5,7 4.3,0 7.9,-4.1 7,-8 -1.4,-6 -8.8,-8 -12.4,-3.4 z"
     id="path12226" />
  <path
     style="stroke-width:0.1"
     d="m 674,532 c -4.5,4.5 -1.1,12 5.4,12 2.5,0 3.9,-0.7 5,-2.2 3.6,-5.1 0.5,-11.8 -5.4,-11.8 -1.7,0 -3.9,0.9 -5,2 z"
     id="path12228" />
  <path
     style="stroke-width:0.1"
     d="m 279.2,535.6 c -1.6,1.1 -2.2,2.5 -2.2,5.4 0,2.9 0.6,4.3 2.2,5.4 5.1,3.6 11.8,0.5 11.8,-5.4 0,-5.9 -6.7,-9 -11.8,-5.4 z"
     id="path12230" />
  <path
     style="stroke-width:0.1"
     d="m 235,541.7 c -3.7,4.7 -0.2,11.3 6,11.3 3.3,0 7,-4 7,-7.4 0,-6.3 -9,-8.9 -13,-3.9 z"
     id="path12232" />
  <path
     style="stroke-width:0.1"
     d="m 196.5,543.5 c -2.8,2.7 -3.1,4.5 -1.4,7.8 1.6,3 2.8,3.7 6.6,3.7 4.1,0 7.7,-4.2 6.8,-8 -1.4,-5.8 -7.8,-7.8 -12,-3.5 z"
     id="path12234" />
  <path
     style="stroke-width:0.1"
     d="m 637,541.7 c -7.6,2.7 -5.8,14.3 2.1,14.3 5.5,0 9.2,-8.7 5.2,-12.2 -2.2,-1.9 -5.3,-2.8 -7.3,-2.1 z"
     id="path12236" />
  <path
     style="stroke-width:0.1"
     d="m 154.5,549.5 c -1.4,1.3 -2.5,3 -2.5,3.7 0.1,5.9 5.1,9.8 10,7.8 2.7,-1.1 5,-4.6 5,-7.6 0,-2.4 -4.7,-6.4 -7.5,-6.4 -1.4,0 -3.7,1.1 -5,2.5 z"
     id="path12238" />
  <path
     style="stroke-width:0.1"
     d="m 114.2,550.6 c -6.3,4.4 -3.7,13.4 3.9,13.4 2.8,0 6.9,-4.4 6.9,-7.3 0,-5.5 -6.5,-9.2 -10.8,-6.1 z"
     id="path12240" />
  <path
     style="stroke-width:0.1"
     d="m 593.7,550.1 c -4.8,2.8 -4,10.7 1.2,12.9 7.5,3.1 13.4,-5.8 7.6,-11.5 -2.5,-2.6 -5.8,-3.1 -8.8,-1.4 z"
     id="path12242" />
  <path
     style="stroke-width:0.1"
     d="m 811.1,551.8 c -2.8,2.2 -3.1,7.5 -0.6,10.2 2.4,2.6 7.9,2.6 10.5,0 6.2,-6.2 -3.1,-15.8 -9.9,-10.2 z"
     id="path12244" />
  <path
     style="stroke-width:0.1"
     d="m 71.6,556.1 c -3.6,2.8 -3.6,8 0,10.8 1.5,1.2 3.5,2.1 4.6,2.1 2.7,0 6.8,-4.5 6.8,-7.5 0,-3 -4.1,-7.5 -6.8,-7.5 -1.1,0 -3.1,0.9 -4.6,2.1 z"
     id="path12246" />
  <path
     style="stroke-width:0.1"
     d="m 552.5,560.5 c -4.8,4.7 -1.9,11.9 4.9,11.9 4.7,0 7,-2.3 7,-7 0,-6.8 -7.2,-9.7 -11.9,-4.9 z"
     id="path12248" />
  <path
     style="stroke-width:0.1"
     d="m 30.5,561.5 c -3.2,3.1 -3.2,6.9 0,10 3,3 5.4,3.1 8.9,0.4 1.8,-1.4 2.6,-3 2.6,-5.2 0,-3.8 -0.7,-5 -3.7,-6.6 -3.3,-1.7 -5.1,-1.4 -7.8,1.4 z"
     id="path12250" />
  <path
     style="stroke-width:0.1"
     d="m 862.1,561.6 c -1.2,1.5 -2.1,3.5 -2.1,4.6 0,2.7 4.5,6.8 7.5,6.8 3,0 7.5,-4.1 7.5,-6.8 0,-3.5 -3.8,-7.2 -7.5,-7.2 -2.4,0 -3.9,0.7 -5.4,2.6 z"
     id="path12252" />
  <path
     style="stroke-width:0.1"
     d="m 904.1,566.6 c -3.4,4.3 -2.6,8.6 2,10.9 3.4,1.8 6.9,0.8 9.3,-2.7 2.2,-3.2 2,-5.5 -0.9,-8.3 -3.3,-3.4 -7.7,-3.3 -10.4,0.1 z"
     id="path12254" />
  <path
     style="stroke-width:0.1"
     d="m 1071.5,566 c -4.2,4.6 -1,12 5.1,12 3.5,0 7.4,-3.7 7.4,-7 0,-1 -0.9,-2.9 -2.1,-4.4 -2.6,-3.3 -7.7,-3.6 -10.4,-0.6 z"
     id="path12256" />
  <path
     style="stroke-width:0.1"
     d="m 1030,567 c -4.3,4.3 -1.1,12 5,12 3.8,0 7,-3.2 7,-7 0,-3.8 -3.2,-7 -7,-7 -1.7,0 -3.9,0.9 -5,2 z"
     id="path12258" />
  <path
     style="stroke-width:0.1"
     d="m 947.6,568.1 c -3.4,2.7 -3.5,7.1 -0.1,10.4 2.7,2.8 4.2,3 7.9,1.4 3.3,-1.5 5,-5.7 3.7,-9.2 -1.9,-4.9 -7.1,-6.1 -11.5,-2.6 z"
     id="path12260" />
  <path
     style="stroke-width:0.1"
     d="m 515.9,569.3 c -3.7,1.9 -5.3,6 -3.7,9.4 2.6,5.5 10.4,5.4 13,-0.2 2.6,-5.7 -3.7,-11.9 -9.3,-9.2 z"
     id="path12262" />
  <path
     style="stroke-width:0.1"
     d="m 990.5,570.5 c -6.2,6.1 1,15.5 8.6,11.4 4.8,-2.5 4.4,-10.5 -0.7,-12.8 -3.7,-1.6 -5.2,-1.4 -7.9,1.4 z"
     id="path12264" />
  <path
     style="stroke-width:0.1"
     d="m 471.6,578.1 c -3.6,2.8 -3.6,8 0,10.8 1.5,1.2 3.4,2.1 4.4,2.1 3.4,0 7,-3.9 7,-7.5 0,-3.6 -3.6,-7.5 -7,-7.5 -1,0 -2.9,0.9 -4.4,2.1 z"
     id="path12266" />
  <path
     style="stroke-width:0.1"
     d="m 602.5,579.5 c -3,2.9 -3.2,6.8 -0.5,9.5 4.7,4.7 12.3,1.5 12.3,-5.1 0,-6.3 -7.2,-9 -11.8,-4.4 z"
     id="path12268" />
  <path
     style="stroke-width:0.1"
     d="m 431.6,587.1 c -2.6,2 -3.6,6.9 -1.8,9.5 1,1.5 4.7,3.4 6.7,3.4 2.5,0 6.5,-4.6 6.5,-7.5 0,-3 -4.1,-7.5 -6.8,-7.5 -1.1,0 -3.1,0.9 -4.6,2.1 z"
     id="path12270" />
  <path
     style="stroke-width:0.1"
     d="m 389.5,595.5 c -3.9,3.8 -3.2,8.6 1.6,11 7.6,4 14.6,-7.1 7.6,-12 -3.1,-2.2 -6.5,-1.8 -9.2,1 z"
     id="path12272" />
  <path
     style="stroke-width:0.1"
     d="m 349,603 c -4.2,4.2 -1.2,12 4.8,12 4.6,0 7.2,-2.5 7.2,-7 0,-2.9 -0.6,-4.3 -2.2,-5.4 -3.1,-2.2 -7.4,-2 -9.8,0.4 z"
     id="path12274" />
  <path
     style="stroke-width:0.1"
     d="m 473.6,605.1 c -5,3.9 -2.2,12.2 4.2,12.2 4.3,0 7.2,-2.8 7.2,-7 0,-6.5 -6.1,-9.3 -11.4,-5.2 z"
     id="path12276" />
  <path
     style="stroke-width:0.1"
     d="m 647.2,604.6 c -2.8,2 -3.1,8.3 -0.4,10.7 2.5,2.3 7.8,2.1 10.2,-0.3 6.1,-6.1 -2.7,-15.4 -9.8,-10.4 z"
     id="path12278" />
  <path
     style="stroke-width:0.1"
     d="m 306.6,610.5 c -5.9,6 1,15.5 8.3,11.4 6.3,-3.6 4.2,-12.1 -3.1,-12.7 -2.3,-0.2 -4.1,0.3 -5.2,1.3 z"
     id="path12280" />
  <path
     style="stroke-width:0.1"
     d="m 267.1,616.6 c -1.2,1.5 -2.1,3.5 -2.1,4.6 0,2.7 4.5,6.8 7.5,6.8 3,0 7.5,-4.1 7.5,-6.8 0,-3.5 -3.8,-7.2 -7.5,-7.2 -2.4,0 -3.9,0.7 -5.4,2.6 z"
     id="path12282" />
  <path
     style="stroke-width:0.1"
     d="m 513.9,620.2 c -1.6,0.5 -3.2,2.2 -3.9,3.9 -3.5,8.4 8.4,13.7 12.9,5.8 3.1,-5.5 -2.8,-11.8 -9,-9.7 z"
     id="path12284" />
  <path
     style="stroke-width:0.1"
     d="m 695.1,623.6 c -1.2,1.5 -2.1,3.4 -2.1,4.4 0,3.4 3.9,7 7.5,7 3.6,0 7.5,-3.6 7.5,-7 0,-3.4 -3.9,-7 -7.5,-7 -2.4,0 -3.9,0.7 -5.4,2.6 z"
     id="path12286" />
  <path
     style="stroke-width:0.1"
     d="m 226,625 c -1.1,1.1 -2,3.3 -2,5 0,1.7 0.9,3.9 2,5 4.5,4.5 12,1.1 12,-5.3 0,-2 -0.8,-4.1 -1.8,-5 -2.5,-2.3 -7.8,-2.1 -10.2,0.3 z"
     id="path12288" />
  <path
     style="stroke-width:0.1"
     d="m 184.1,630.6 c -1.2,1.5 -2.1,3.4 -2.1,4.4 0,3.4 3.9,7 7.5,7 3.6,0 7.5,-3.6 7.5,-7 0,-3.4 -3.9,-7 -7.5,-7 -2.4,0 -3.9,0.7 -5.4,2.6 z"
     id="path12290" />
  <path
     style="stroke-width:0.1"
     d="m 550.2,635 c -4.8,4.5 -1.6,12.3 5,12.3 6.4,0 9.2,-8.3 4.2,-12.2 -3.4,-2.7 -6.4,-2.7 -9.2,-0.1 z"
     id="path12292" />
  <path
     style="stroke-width:0.1"
     d="m 746,637 c -4.3,4.3 -1.1,12 5,12 3.8,0 7,-3.2 7,-7 0,-3.8 -3.2,-7 -7,-7 -1.7,0 -3.9,0.9 -5,2 z"
     id="path12294" />
  <path
     style="stroke-width:0.1"
     d="m 142.6,638.2 c -5,7.1 4.3,15.9 10.4,9.8 2.6,-2.6 2.6,-8.1 0.2,-10.3 -2.8,-2.5 -8.7,-2.2 -10.6,0.5 z"
     id="path12296" />
  <path
     style="stroke-width:0.1"
     d="m 103.6,645.1 c -3.6,2.8 -3.6,8 0,10.8 1.5,1.2 3.4,2.1 4.4,2.1 3.4,0 7,-3.9 7,-7.5 0,-3.6 -3.6,-7.5 -7,-7.5 -1,0 -2.9,0.9 -4.4,2.1 z"
     id="path12298" />
  <path
     style="stroke-width:0.1"
     d="m 350,647 c -2.6,2.6 -2.6,8.1 0,10.5 4.6,4.2 12,1 12,-5.2 0,-4.2 -3,-7.3 -7,-7.3 -1.7,0 -3.9,0.9 -5,2 z"
     id="path12300" />
  <path
     style="stroke-width:0.1"
     d="m 786.6,647.2 c -5.1,7.2 3,15.3 10.2,10.2 2.8,-2 3.1,-8.3 0.4,-10.7 -2.8,-2.5 -8.7,-2.2 -10.6,0.5 z"
     id="path12302" />
  <path
     style="stroke-width:0.1"
     d="m 60.6,649.1 c -4.6,3.6 -2.6,11 3.4,12.4 3.9,0.9 8,-2.7 8,-7 0,-3.6 -3.6,-7.5 -7,-7.5 -1,0 -2.9,0.9 -4.4,2.1 z"
     id="path12304" />
  <path
     style="stroke-width:0.1"
     d="m 589.5,652.5 c -3.9,3.9 -3.2,8.6 1.7,11.1 5.9,3 12.2,-2.7 9.9,-8.9 -1.9,-5.1 -7.7,-6.2 -11.6,-2.2 z"
     id="path12306" />
  <path
     style="stroke-width:0.1"
     d="m 19.7,655.8 c -2.3,2.5 -2.1,7.8 0.3,10.2 6.1,6.1 15.4,-2.7 10.4,-9.8 -2,-2.8 -8.3,-3.1 -10.7,-0.4 z"
     id="path12308" />
  <path
     style="stroke-width:0.1"
     d="m 837.5,658 c -4.1,4.6 -0.7,12 5.5,12 3.3,0 7,-4 7,-7.6 0,-5.7 -8.6,-8.7 -12.5,-4.4 z"
     id="path12310" />
  <path
     style="stroke-width:0.1"
     d="m 1105,658.3 c -7.5,3.8 -2.8,15.4 5.4,13.3 3,-0.7 6,-5.8 5.1,-8.6 -0.7,-2.1 -5.1,-6 -6.9,-6 -0.6,0 -2.2,0.6 -3.6,1.3 z"
     id="path12312" />
  <path
     style="stroke-width:0.1"
     d="m 173.6,663.1 c -1.9,1.5 -2.6,3 -2.6,5.4 0,3.6 3.6,7.5 7,7.5 3.4,0 7,-3.9 7,-7.5 0,-3.6 -3.6,-7.5 -7,-7.5 -1,0 -2.9,0.9 -4.4,2.1 z"
     id="path12314" />
  <path
     style="stroke-width:0.1"
     d="m 390,663 c -3,3 -2.7,8.3 0.6,10.9 1.5,1.2 3.4,2.1 4.4,2.1 3.4,0 7,-3.9 7,-7.5 0,-6.2 -7.7,-9.8 -12,-5.5 z"
     id="path12316" />
  <path
     style="stroke-width:0.1"
     d="m 630.2,663.5 c -5.9,2.5 -5.1,10.7 1.1,13 6.2,2.1 11.8,-5.2 8,-10.3 -2.6,-3.4 -5.3,-4.2 -9.1,-2.7 z"
     id="path12318" />
  <path
     style="stroke-width:0.1"
     d="m 892,663.3 c -7,3.5 -4.8,13.7 3,13.7 2.8,0 7,-4.4 7,-7.3 0,-5.1 -5.5,-8.6 -10,-6.4 z"
     id="path12320" />
  <path
     style="stroke-width:0.1"
     d="m 1063,666 c -4.5,4.5 -1.1,12 5.3,12 4.3,0 6.7,-2.6 6.7,-7.3 0,-2.6 -0.6,-4 -2.2,-5.1 -3.1,-2.2 -7.4,-2 -9.8,0.4 z"
     id="path12322" />
  <path
     style="stroke-width:0.1"
     d="m 932.5,668.3 c -3.6,3.1 -3.9,8.2 -0.6,10.9 6.8,5.5 16,-3.4 10.4,-10 -2.9,-3.4 -6.6,-3.7 -9.8,-0.9 z"
     id="path12324" />
  <path
     style="stroke-width:0.1"
     d="m 977.5,668.5 c -2.8,2.7 -3,4.2 -1.4,7.9 2.6,5.6 10.5,5.3 12.9,-0.3 3.1,-7.5 -5.8,-13.3 -11.5,-7.6 z"
     id="path12326" />
  <path
     style="stroke-width:0.1"
     d="m 1020.5,668.5 c -3.4,3.3 -3.3,7.7 0.1,10.4 4.4,3.4 8.6,2.6 11,-2.1 1.9,-3.7 0.5,-8 -3.2,-9.7 -3.7,-1.6 -5.2,-1.4 -7.9,1.4 z"
     id="path12328" />
  <path
     style="stroke-width:0.1"
     d="m 429,675 c -1.1,1.1 -2,3.3 -2,5 0,1.7 0.9,3.9 2,5 1.1,1.1 3.3,2 5,2 1.7,0 3.9,-0.9 5,-2 1.1,-1.1 2,-3.3 2,-5 0,-1.7 -0.9,-3.9 -2,-5 -1.1,-1.1 -3.3,-2 -5,-2 -1.7,0 -3.9,0.9 -5,2 z"
     id="path12330" />
  <path
     style="stroke-width:0.1"
     d="m 670.9,676.2 c -1.6,0.5 -3.2,2.2 -3.9,3.9 -3.5,8.4 8.4,13.7 12.9,5.8 3.1,-5.5 -2.8,-11.8 -9,-9.7 z"
     id="path12332" />
  <path
     style="stroke-width:0.1"
     d="m 212,681 c -4.4,4.4 -1,12 5.4,12 4.1,0 6.9,-2.9 6.9,-7 0,-6.3 -7.8,-9.5 -12.3,-5 z"
     id="path12334" />
  <path
     style="stroke-width:0.1"
     d="m 1105.2,687.6 c -2.9,2 -3,7.6 -0.2,10.4 4.3,4.3 12,1.1 12,-5 0,-5.9 -6.7,-9 -11.8,-5.4 z"
     id="path12336" />
  <path
     style="stroke-width:0.1"
     d="m 468.6,689.1 c -5,3.9 -2.2,12.2 4.2,12.2 6.9,0 9.9,-8 4.6,-12.2 -1.5,-1.2 -3.4,-2.1 -4.4,-2.1 -1,0 -2.9,0.9 -4.4,2.1 z"
     id="path12338" />
  <path
     style="stroke-width:0.1"
     d="m 254,691.7 c -5.3,1.9 -6.8,8.6 -2.8,12.3 6.3,5.8 15.7,-3.3 10.1,-9.8 -2,-2.3 -5,-3.3 -7.3,-2.5 z"
     id="path12340" />
  <path
     style="stroke-width:0.1"
     d="m 707.1,693.6 c -1.2,1.5 -2.1,3.4 -2.1,4.4 0,3.4 3.9,7 7.5,7 3.6,0 7.5,-3.6 7.5,-7 0,-3.4 -3.9,-7 -7.5,-7 -2.4,0 -3.9,0.7 -5.4,2.6 z"
     id="path12342" />
  <path
     style="stroke-width:0.1"
     d="m 507,701 c -1.1,1.1 -2,3.3 -2,5 0,1.7 0.9,3.9 2,5 4.5,4.5 12,1.1 12,-5.3 0,-2 -0.8,-4.1 -1.8,-5 -2.5,-2.3 -7.8,-2.1 -10.2,0.3 z"
     id="path12344" />
  <path
     style="stroke-width:0.1"
     d="m 25,700.8 c -5.1,1.6 -6.8,8.4 -3,12.2 6,6 15.4,-2.6 10.5,-9.7 -1.5,-2.1 -5,-3.3 -7.5,-2.5 z"
     id="path12346" />
  <path
     style="stroke-width:0.1"
     d="m 1017,702 c -2.6,2.6 -2.6,8.1 0,10.5 2.9,2.6 7.9,2.4 10.2,-0.4 5.6,-7 -3.9,-16.4 -10.2,-10.1 z"
     id="path12348" />
  <path
     style="stroke-width:0.1"
     d="m 748.5,706.5 c -4,3.9 -2.9,9.7 2.2,11.6 4.8,1.8 10.3,-2.3 10.3,-7.7 0,-2.4 -4.7,-6.4 -7.5,-6.4 -1.4,0 -3.7,1.1 -5,2.5 z"
     id="path12350" />
  <path
     style="stroke-width:0.1"
     d="m 290.3,708.5 c -7,4.9 0,16 7.6,12 4.8,-2.4 5.5,-7.2 1.6,-11 -2.7,-2.8 -6.1,-3.2 -9.2,-1 z"
     id="path12352" />
  <path
     style="stroke-width:0.1"
     d="m 547.1,716.6 c -1.2,1.5 -2.1,3.4 -2.1,4.4 0,3.2 3.9,7 7.1,7 3.4,0 7.9,-3.9 7.9,-6.8 0,-3.5 -3.8,-7.2 -7.5,-7.2 -2.4,0 -3.9,0.7 -5.4,2.6 z"
     id="path12354" />
  <path
     style="stroke-width:0.1"
     d="m 61.5,719 c -4.2,4.6 -1,12 5.2,12 4.2,0 7.3,-3 7.3,-7 0,-6.2 -8.4,-9.5 -12.5,-5 z"
     id="path12356" />
  <path
     style="stroke-width:0.1"
     d="m 789.5,719.5 c -1.4,1.3 -2.5,3.6 -2.5,5 0,1.4 1.1,3.7 2.5,5 3.9,3.9 8.6,3.2 11.1,-1.7 1.9,-3.7 0.5,-8 -3.2,-9.7 -3.7,-1.6 -5.2,-1.4 -7.9,1.4 z"
     id="path12358" />
  <path
     style="stroke-width:0.1"
     d="m 1058.4,719.2 c -6.9,3.3 -3.7,13.8 4.2,13.8 2.4,0 6.4,-4.7 6.4,-7.5 0,-3 -4.1,-7.5 -6.7,-7.4 -1,0 -2.8,0.5 -3.9,1.1 z"
     id="path12360" />
  <path
     style="stroke-width:0.1"
     d="m 328.2,722.3 c -4.4,4.7 -1.3,11.7 5.2,11.7 4.1,0 6.9,-2.9 6.9,-7.2 0,-6.1 -7.8,-9.1 -12.1,-4.5 z"
     id="path12362" />
  <path
     style="stroke-width:0.1"
     d="m 587.2,726 c -2.6,2.4 -2.9,6.6 -0.6,9.8 1.1,1.6 2.5,2.2 5.3,2.2 4.6,0 7.1,-2.4 7.1,-6.8 0,-6.4 -7.2,-9.5 -11.8,-5.2 z"
     id="path12364" />
  <path
     style="stroke-width:0.1"
     d="m 829.2,728 c -2.6,2.4 -2.9,6.6 -0.6,9.8 1.1,1.6 2.5,2.2 5.3,2.2 4.6,0 7.1,-2.4 7.1,-6.8 0,-6.4 -7.2,-9.5 -11.8,-5.2 z"
     id="path12366" />
  <path
     style="stroke-width:0.1"
     d="m 101.5,735.5 c -3.9,3.9 -3.2,8.6 1.7,11.1 5,2.6 10.8,-0.9 10.8,-6.6 0,-2.9 -4.4,-7 -7.5,-7 -1.4,0 -3.7,1.1 -5,2.5 z"
     id="path12368" />
  <path
     style="stroke-width:0.1"
     d="m 1098,735 c -2.6,2.6 -2.5,6 0.1,9.4 2.5,3.1 6.6,3.5 10,0.8 2.8,-2.3 3,-7.3 0.4,-10.2 -2.4,-2.6 -7.9,-2.6 -10.5,0 z"
     id="path12370" />
  <path
     style="stroke-width:0.1"
     d="m 628.2,736.6 c -2.8,2 -3.1,8.3 -0.4,10.7 2.5,2.3 7.8,2.1 10.2,-0.3 6.1,-6.1 -2.7,-15.4 -9.8,-10.4 z"
     id="path12372" />
  <path
     style="stroke-width:0.1"
     d="m 368.2,738.3 c -4.3,4.6 -1.5,12 4.6,12 4.3,0 7.2,-2.8 7.2,-7 0,-6.6 -7.4,-9.7 -11.8,-5 z"
     id="path12374" />
  <path
     style="stroke-width:0.1"
     d="m 868.6,740.2 c -5,7.1 4.3,15.9 10.4,9.8 2.6,-2.6 2.6,-8.1 0.2,-10.3 -2.8,-2.5 -8.7,-2.2 -10.6,0.5 z"
     id="path12376" />
  <path
     style="stroke-width:0.1"
     d="m 15,744 c -2.6,2.6 -2.6,7.4 0,10 4.3,4.3 12,1.1 12,-5 0,-3.8 -3.2,-7 -7,-7 -1.7,0 -3.9,0.9 -5,2 z"
     id="path12378" />
  <path
     style="stroke-width:0.1"
     d="m 909.6,748.1 c -1.9,1.5 -2.6,3 -2.6,5.4 0,3.6 3.6,7.5 7,7.5 3.4,0 7,-3.9 7,-7.5 0,-3.6 -3.6,-7.5 -7,-7.5 -1,0 -2.9,0.9 -4.4,2.1 z"
     id="path12380" />
  <path
     style="stroke-width:0.1"
     d="m 140,749 c -2.4,2.4 -2.6,6.7 -0.4,9.8 1.1,1.6 2.5,2.2 5.4,2.2 2.9,0 4.3,-0.6 5.4,-2.2 3.6,-5.1 0.5,-11.8 -5.4,-11.8 -1.7,0 -3.9,0.9 -5,2 z"
     id="path12382" />
  <path
     style="stroke-width:0.1"
     d="m 407,750.2 c -5.8,6.3 3.2,15.6 9.8,10 3.2,-2.6 3.7,-6.3 1.2,-9.5 -2.8,-3.5 -8,-3.7 -11,-0.5 z"
     id="path12384" />
  <path
     style="stroke-width:0.1"
     d="m 667.5,750.5 c -6.1,6 0.7,15 8.4,11.1 4.8,-2.5 5.5,-7.3 1.6,-11.1 -1.3,-1.4 -3.6,-2.5 -5,-2.5 -1.4,0 -3.7,1.1 -5,2.5 z"
     id="path12386" />
  <path
     style="stroke-width:0.1"
     d="m 56.9,752.8 c -2.8,2.3 -3,7.3 -0.4,10.2 2.5,2.8 7.6,2.6 10.3,-0.3 2.8,-2.9 2.8,-5.7 0.1,-9.1 -2.5,-3.1 -6.6,-3.5 -10,-0.8 z"
     id="path12388" />
  <path
     style="stroke-width:0.1"
     d="m 100,758.3 c -5.2,2.6 -4.9,10.4 0.4,12.8 3.6,1.7 7.3,0.3 9.2,-3.2 1.9,-3.8 0.6,-8 -3.2,-9.8 -3.1,-1.4 -3.3,-1.4 -6.4,0.2 z"
     id="path12390" />
  <path
     style="stroke-width:0.1"
     d="m 950.5,760.5 c -1.4,1.3 -2.5,3.6 -2.5,5 0,3 4.1,7.5 6.8,7.5 3.5,0 7.2,-3.8 7.2,-7.3 0,-3.8 -0.7,-5 -3.7,-6.6 -3.3,-1.7 -5.1,-1.4 -7.8,1.4 z"
     id="path12392" />
  <path
     style="stroke-width:0.1"
     d="m 181.4,760.2 c -6.9,3.3 -3.7,13.8 4.2,13.8 2.4,0 6.4,-4.7 6.4,-7.5 0,-3 -4.1,-7.5 -6.7,-7.4 -1,0 -2.8,0.5 -3.9,1.1 z"
     id="path12394" />
  <path
     style="stroke-width:0.1"
     d="m 709.2,761.3 c -3.1,3.3 -2.9,8 0.4,10.6 1.5,1.2 3.4,2.1 4.4,2.1 3.4,0 7,-3.9 7,-7.5 0,-6.7 -7.4,-9.9 -11.8,-5.2 z"
     id="path12396" />
  <path
     style="stroke-width:0.1"
     d="m 447.5,762 c -2.6,2.9 -2.4,7.9 0.4,10.2 7,5.6 16.4,-3.9 10.1,-10.2 -2.6,-2.6 -8.1,-2.6 -10.5,0 z"
     id="path12398" />
  <path
     style="stroke-width:0.1"
     d="m 990.1,768.6 c -1.2,1.5 -2.1,3.4 -2.1,4.4 0,3.4 3.9,7 7.5,7 3.6,0 7.5,-3.6 7.5,-7 0,-3.4 -3.9,-7 -7.5,-7 -2.4,0 -3.9,0.7 -5.4,2.6 z"
     id="path12400" />
  <path
     style="stroke-width:0.1"
     d="m 750.5,772.5 c -1.4,1.3 -2.5,3.6 -2.5,5 0,3.3 4.2,7.5 7.5,7.5 3.3,0 7.5,-4.2 7.5,-7.5 0,-3.3 -4.2,-7.5 -7.5,-7.5 -1.4,0 -3.7,1.1 -5,2.5 z"
     id="path12402" />
  <path
     style="stroke-width:0.1"
     d="m 219.2,772.7 c -3.2,2.7 -3.7,6.4 -1.2,9.6 2.8,3.5 8,3.7 11,0.5 5.8,-6.3 -3.2,-15.6 -9.8,-10.1 z"
     id="path12404" />
  <path
     style="stroke-width:0.1"
     d="m 487.6,776.1 c -3.6,2.8 -3.6,8 0,10.8 1.5,1.2 3.4,2.1 4.4,2.1 1,0 2.9,-0.9 4.4,-2.1 3.4,-2.7 3.6,-7.7 0.3,-10.7 -2.9,-2.8 -5.7,-2.8 -9.1,-0.1 z"
     id="path12406" />
  <path
     style="stroke-width:0.1"
     d="m 1031.7,775.8 c -4,4.4 -0.7,12.2 5.1,12.2 6,0 9.4,-7.8 5.2,-12 -2.6,-2.6 -8.1,-2.6 -10.3,-0.2 z"
     id="path12408" />
  <path
     style="stroke-width:0.1"
     d="m 790.9,778.8 c -4.8,4 -1.7,12.2 4.7,12.2 6.6,0 9.8,-7.4 5.1,-11.8 -2.8,-2.7 -6.7,-2.8 -9.8,-0.4 z"
     id="path12410" />
  <path
     style="stroke-width:0.1"
     d="m 1072.5,786.5 c -3,2.9 -3.2,6.4 -0.5,9.3 3,3.2 8.2,3 11,-0.5 5.5,-7 -4.2,-15.1 -10.5,-8.8 z"
     id="path12412" />
  <path
     style="stroke-width:0.1"
     d="m 258.1,787.6 c -1.2,1.5 -2.1,3.4 -2.1,4.4 0,3.4 3.9,7 7.5,7 3.6,0 7.5,-3.6 7.5,-7 0,-3.4 -3.9,-7 -7.5,-7 -2.4,0 -3.9,0.7 -5.4,2.6 z"
     id="path12414" />
  <path
     style="stroke-width:0.1"
     d="m 530.3,787 c -4.6,1.9 -5.7,8.3 -2,11.8 4.6,4.4 12,1.5 12,-4.7 0,-5.2 -5.3,-9 -10,-7.1 z"
     id="path12416" />
  <path
     style="stroke-width:0.1"
     d="m 833.2,787 c -7.7,3.1 -3.4,15.3 4.8,13.5 6.5,-1.4 7.4,-10.6 1.4,-13.4 -2.9,-1.3 -3.1,-1.3 -6.2,-0.1 z"
     id="path12418" />
  <path
     style="stroke-width:0.1"
     d="m 871.5,795.5 c -3,3 -3.1,5.4 -0.4,8.9 1.5,1.9 3,2.6 5.4,2.6 3.7,0 7.5,-3.7 7.5,-7.2 0,-2.7 -4.5,-6.8 -7.5,-6.8 -1.4,0 -3.7,1.1 -5,2.5 z"
     id="path12420" />
  <path
     style="stroke-width:0.1"
     d="m 300.3,797.2 c -1.2,0.6 -2.7,2.4 -3.4,4 -3.4,8.3 8.6,13.6 13,5.7 1.9,-3.3 0.1,-8.1 -3.5,-9.8 -2.9,-1.3 -3.2,-1.3 -6.1,0.1 z"
     id="path12422" />
  <path
     style="stroke-width:0.1"
     d="m 28.2,799.6 c -2.8,2 -3.1,8.3 -0.4,10.7 4.4,4 12.2,0.7 12.2,-5.1 0,-5.9 -6.7,-9.2 -11.8,-5.6 z"
     id="path12424" />
  <path
     style="stroke-width:0.1"
     d="m 569.2,801.3 c -4.5,4.8 -1.4,11.7 5.2,11.7 2.5,0 4,-0.7 5.5,-2.6 2.7,-3.5 2.6,-5.9 -0.4,-8.9 -3.1,-3.2 -7.4,-3.3 -10.3,-0.2 z"
     id="path12426" />
  <path
     style="stroke-width:0.1"
     d="m 913.1,805.6 c -1.2,1.5 -2.1,3.4 -2.1,4.4 0,3.4 3.9,7 7.5,7 3.6,0 7.5,-3.6 7.5,-7 0,-3.4 -3.9,-7 -7.5,-7 -2.4,0 -3.9,0.7 -5.4,2.6 z"
     id="path12428" />
  <path
     style="stroke-width:0.1"
     d="m 74,805.3 c -5.2,2.6 -4.9,10.4 0.5,12.9 5.8,2.6 11.9,-3.3 9.5,-9.1 -0.6,-1.6 -2.3,-3.3 -3.6,-4 -3.1,-1.4 -3.3,-1.4 -6.4,0.2 z"
     id="path12430" />
  <path
     style="stroke-width:0.1"
     d="m 609.2,809.3 c -2.8,3 -2.8,6.8 0.1,9.5 4.8,4.5 12,1.6 12,-4.8 0,-6.5 -7.6,-9.5 -12.1,-4.7 z"
     id="path12432" />
  <path
     style="stroke-width:0.1"
     d="m 337.7,809.1 c -4.8,2.8 -4,10.7 1.2,12.9 7.5,3.1 13.4,-5.8 7.6,-11.5 -2.5,-2.6 -5.8,-3.1 -8.8,-1.4 z"
     id="path12434" />
  <path
     style="stroke-width:0.1"
     d="m 954.2,810.3 c -4.5,4.8 -1.6,12 4.8,12 6.7,0 9.6,-8.1 4.4,-12.2 -3.5,-2.7 -6.5,-2.7 -9.2,0.2 z"
     id="path12436" />
  <path
     style="stroke-width:0.1"
     d="m 167.6,811.5 c -5.9,5.9 1,15.5 8.3,11.4 6.2,-3.5 4.1,-12.1 -3.1,-12.7 -2.3,-0.2 -4.1,0.3 -5.2,1.3 z"
     id="path12438" />
  <path
     style="stroke-width:0.1"
     d="m 118,813 c -2.6,2.6 -2.6,8.1 -0.2,10.3 4.5,4 12.2,0.6 12.2,-5.3 0,-1.7 -0.9,-3.9 -2,-5 -1.1,-1.1 -3.3,-2 -5,-2 -1.7,0 -3.9,0.9 -5,2 z"
     id="path12440" />
  <path
     style="stroke-width:0.1"
     d="m 211.9,812.8 c -4.9,4 -1.7,12.2 4.8,12.2 6.5,0 9.3,-6.1 5.2,-11.4 -2.5,-3.1 -6.6,-3.5 -10,-0.8 z"
     id="path12442" />
  <path
     style="stroke-width:0.1"
     d="m 260.6,814.1 c -3.6,2.8 -3.6,8 0,10.8 3.5,2.7 5.9,2.6 8.9,-0.4 3.4,-3.3 3.3,-7.7 -0.1,-10.4 -1.5,-1.2 -3.4,-2.1 -4.4,-2.1 -1,0 -2.9,0.9 -4.4,2.1 z"
     id="path12444" />
  <path
     style="stroke-width:0.1"
     d="m 995,815.3 c -5.2,2.6 -4.9,10.4 0.5,12.9 5.8,2.6 11.9,-3.3 9.5,-9.1 -0.6,-1.6 -2.3,-3.3 -3.6,-4 -3.1,-1.4 -3.3,-1.4 -6.4,0.2 z"
     id="path12446" />
  <path
     style="stroke-width:0.1"
     d="m 652,818.3 c -1.3,0.7 -3.1,2.4 -3.9,3.8 -3,5.3 3.6,11.7 9.4,9.1 5.5,-2.5 5.8,-10 0.5,-12.7 -3.5,-1.8 -2.9,-1.8 -6,-0.2 z"
     id="path12448" />
  <path
     style="stroke-width:0.1"
     d="m 379,823 c -2.8,2.8 -2.7,8.4 0.2,10.4 5.1,3.6 11.8,0.5 11.8,-5.4 0,-3.8 -3.2,-7 -7,-7 -1.7,0 -3.9,0.9 -5,2 z"
     id="path12450" />
  <path
     style="stroke-width:0.1"
     d="m 1037,824 c -2.6,2.6 -2.6,8.1 0,10.5 1.1,1 3.4,1.8 5.2,1.7 6.5,-0.2 9.2,-8.2 4.2,-12.1 -3.4,-2.6 -6.8,-2.7 -9.4,-0.1 z"
     id="path12452" />
  <path
     style="stroke-width:0.1"
     d="m 691.3,826.2 c -6.8,3.3 -4,13.8 3.7,13.8 2.8,0 7,-4.4 7,-7.3 0,-5.1 -6.1,-8.8 -10.7,-6.5 z"
     id="path12454" />
  <path
     style="stroke-width:0.1"
     d="m 1079.6,827.1 c -1.9,1.5 -2.6,3 -2.6,5.4 0,3.6 3.6,7.5 7,7.5 3.4,0 7,-3.9 7,-7.5 0,-3.6 -3.6,-7.5 -7,-7.5 -1,0 -2.9,0.9 -4.4,2.1 z"
     id="path12456" />
  <path
     style="stroke-width:0.1"
     d="m 417,834 c -2.7,2.7 -2.5,6.6 0.5,9.5 6.3,6.3 16,-1.8 10.5,-8.8 -2.7,-3.4 -8,-3.7 -11,-0.7 z"
     id="path12458" />
  <path
     style="stroke-width:0.1"
     d="m 39,836.7 c -7.6,2.7 -5.8,14.3 2.1,14.3 5.5,0 9.2,-8.7 5.2,-12.2 C 44.1,836.9 41,836 39,836.7 Z"
     id="path12460" />
  <path
     style="stroke-width:0.1"
     d="m 733.3,837 c -4.8,1.9 -5.8,8.7 -1.7,11.9 5.3,4.1 11.4,1.3 11.4,-5.2 0,-5.1 -5,-8.6 -9.7,-6.7 z"
     id="path12462" />
  <path
     style="stroke-width:0.1"
     d="m 78.5,844.5 c -3.9,3.9 -3.2,8.6 1.7,11.1 5.9,3 12.2,-2.7 9.9,-8.9 -1.9,-5.1 -7.7,-6.2 -11.6,-2.2 z"
     id="path12464" />
  <path
     style="stroke-width:0.1"
     d="m 457.1,845.6 c -2.4,3 -2.6,4.6 -1,7.7 1.6,3 2.8,3.7 6.6,3.7 4.1,0 7.7,-4.2 6.8,-8 -1.4,-6 -8.8,-8 -12.4,-3.4 z"
     id="path12466" />
  <path
     style="stroke-width:0.1"
     d="m 771.5,845.5 c -2.8,2.7 -3,4.2 -1.4,7.9 3.2,6.9 13.9,3.8 13.9,-4 0,-2.4 -4.7,-6.4 -7.5,-6.4 -1.4,0 -3.7,1.1 -5,2.5 z"
     id="path12468" />
  <path
     style="stroke-width:0.1"
     d="m 120,846 c -4.5,4.5 -1.1,12 5.3,12 4.2,0 6.7,-2.6 6.7,-6.8 0,-4.1 -3.1,-7.2 -7,-7.2 -1.7,0 -3.9,0.9 -5,2 z"
     id="path12470" />
  <path
     style="stroke-width:0.1"
     d="m 351,847 c -4.3,4.3 -1.1,12 5,12 3.8,0 7,-3.2 7,-7 0,-3.8 -3.2,-7 -7,-7 -1.7,0 -3.9,0.9 -5,2 z"
     id="path12472" />
  <path
     style="stroke-width:0.1"
     d="m 163.5,848.5 c -2.8,2.7 -3,4.2 -1.4,7.9 3.2,6.9 13.9,3.8 13.9,-4 0,-2.4 -4.7,-6.4 -7.5,-6.4 -1.4,0 -3.7,1.1 -5,2.5 z"
     id="path12474" />
  <path
     style="stroke-width:0.1"
     d="m 307.7,849.2 c -3.7,3.3 -4,7.5 -0.7,10.8 2.7,2.7 6.6,2.5 9.5,-0.5 2.9,-2.8 3.2,-6.5 0.8,-9.3 -2.8,-3.3 -6.6,-3.7 -9.6,-1 z"
     id="path12476" />
  <path
     style="stroke-width:0.1"
     d="m 209,851 c -4.3,4.3 -1.1,12 5,12 1.7,0 3.9,-0.9 5,-2 2.6,-2.6 2.6,-8.1 0.2,-10.3 -2.5,-2.3 -7.8,-2.1 -10.2,0.3 z"
     id="path12478" />
  <path
     style="stroke-width:0.1"
     d="m 256,852 c -2.6,2.6 -2.6,8.1 -0.2,10.3 2.8,2.5 8.7,2.2 10.6,-0.5 5.1,-7.3 -4.2,-16 -10.4,-9.8 z"
     id="path12480" />
  <path
     style="stroke-width:0.1"
     d="m 813.6,852.1 c -5,3.9 -2.2,12.2 4.2,12.2 6.6,0 9.8,-7.8 5,-12.3 -2.8,-2.6 -5.8,-2.6 -9.2,0.1 z"
     id="path12482" />
  <path
     style="stroke-width:0.1"
     d="m 501,855.3 c -5.2,2.6 -4.9,10.4 0.4,12.8 8.1,3.7 13.8,-7.3 6.4,-12.5 -2.7,-1.9 -3.5,-2 -6.8,-0.3 z"
     id="path12484" />
  <path
     style="stroke-width:0.1"
     d="m 853.7,861.8 c -2.3,2.5 -2.1,7.8 0.3,10.2 6.1,6.1 15.4,-2.7 10.4,-9.8 -2,-2.8 -8.3,-3.1 -10.7,-0.4 z"
     id="path12486" />
  <path
     style="stroke-width:0.1"
     d="m 896.6,866.1 c -5.2,4.1 -2.3,12.2 4.4,12.2 6.7,0 9.6,-8.1 4.4,-12.2 -1.5,-1.2 -3.4,-2.1 -4.4,-2.1 -1,0 -2.9,0.9 -4.4,2.1 z"
     id="path12488" />
  <path
     style="stroke-width:0.1"
     d="m 539,867 c -2.6,2.6 -2.6,8.1 -0.2,10.3 4.4,4 12.2,0.7 12.2,-5.1 0,-6 -7.8,-9.4 -12,-5.2 z"
     id="path12490" />
  <path
     style="stroke-width:0.1"
     d="m 934.1,874.6 c -1.2,1.5 -2.1,3.4 -2.1,4.4 0,3.4 3.9,7 7.5,7 3.6,0 7.5,-3.6 7.5,-7 0,-1 -0.9,-2.9 -2.1,-4.4 -2.8,-3.6 -8,-3.6 -10.8,0 z"
     id="path12492" />
  <path
     style="stroke-width:0.1"
     d="m 579.1,878.6 c -1.2,1.5 -2.1,3.4 -2.1,4.4 0,3.4 3.9,7 7.5,7 3.6,0 7.5,-3.6 7.5,-7 0,-1 -0.9,-2.9 -2.1,-4.4 -2.8,-3.6 -8,-3.6 -10.8,0 z"
     id="path12494" />
  <path
     style="stroke-width:0.1"
     d="m 977.1,880.6 c -1.2,1.5 -2.1,3.4 -2.1,4.4 0,3.4 3.9,7 7.5,7 3.6,0 7.5,-3.6 7.5,-7 0,-1 -0.9,-2.9 -2.1,-4.4 -2.8,-3.6 -8,-3.6 -10.8,0 z"
     id="path12496" />
  <path
     style="stroke-width:0.1"
     d="m 1025.5,882.5 c -3,3 -3.1,5.4 -0.4,8.9 1.5,1.9 3,2.6 5.4,2.6 3.7,0 7.5,-3.7 7.5,-7.2 0,-2.7 -4.5,-6.8 -7.5,-6.8 -1.4,0 -3.7,1.1 -5,2.5 z"
     id="path12498" />
</svg>
