<?xml version="1.0" standalone="no"?>
<!DOCTYPE svg PUBLIC "-//W3C//DTD SVG 20010904//EN"
 "http://www.w3.org/TR/2001/REC-SVG-20010904/DTD/svg10.dtd">
<svg version="1.0" xmlns="http://www.w3.org/2000/svg"
 width="60.000000pt" height="60.000000pt" viewBox="0 0 60.000000 60.000000"
 preserveAspectRatio="xMidYMid meet">

<g transform="translate(0.000000,60.000000) scale(0.100000,-0.100000)"
fill="param(fill) #636363" stroke="param(outline) #000">
<path d="M1 598 c-1 -11 73 -158 79 -158 7 0 82 151 77 156 -2 2 -19 -28 -37
-66 -19 -39 -37 -70 -40 -70 -3 0 -22 33 -42 73 -20 39 -37 69 -37 65z"/>
<path d="M301 298 c-1 -11 73 -158 79 -158 7 0 82 151 77 156 -2 2 -19 -28
-37 -66 -19 -39 -37 -70 -40 -70 -3 0 -22 33 -42 73 -20 39 -37 69 -37 65z"/>
</g>
</svg>
