<?xml version="1.0" standalone="no"?>
<!DOCTYPE svg PUBLIC "-//W3C//DTD SVG 20010904//EN"
 "http://www.w3.org/TR/2001/REC-SVG-20010904/DTD/svg10.dtd">
<svg version="1.0" xmlns="http://www.w3.org/2000/svg"
 width="128.000000pt" height="128.000000pt" viewBox="0 0 128.000000 128.000000"
 preserveAspectRatio="xMidYMid meet">

<g transform="translate(0.000000,128.000000) scale(0.100000,-0.100000)"
fill="param(fill) #636363" stroke="param(outline) #000">
<path d="M120 1271 c0 -5 7 -12 16 -15 22 -9 24 -8 24 9 0 8 -9 15 -20 15 -11
0 -20 -4 -20 -9z"/>
<path d="M661 1271 c-15 -10 -8 -41 9 -41 15 0 25 29 14 40 -5 5 -15 5 -23 1z"/>
<path d="M1000 1265 c0 -8 7 -15 15 -15 8 0 15 7 15 15 0 8 -7 15 -15 15 -8 0
-15 -7 -15 -15z"/>
<path d="M362 1253 c4 -21 33 -25 33 -3 0 8 -8 16 -18 18 -14 3 -18 -1 -15
-15z"/>
<path d="M556 1261 c-3 -5 0 -11 7 -13 17 -7 38 2 31 13 -7 12 -31 12 -38 0z"/>
<path d="M776 1263 c-11 -11 -6 -23 8 -23 8 0 17 4 20 9 7 10 -19 23 -28 14z"/>
<path d="M1105 1260 c-3 -5 -2 -15 1 -24 5 -12 10 -13 25 -5 10 5 19 14 19 18
0 12 -39 21 -45 11z"/>
<path d="M1210 1258 c0 -8 9 -14 21 -15 12 -1 19 3 16 10 -5 17 -37 21 -37 5z"/>
<path d="M900 1250 c0 -5 7 -10 15 -10 8 0 15 5 15 10 0 6 -7 10 -15 10 -8 0
-15 -4 -15 -10z"/>
<path d="M271 1240 c-19 -11 -6 -41 14 -34 16 6 20 29 7 38 -4 2 -14 1 -21 -4z"/>
<path d="M62 1221 c-6 -3 -8 -11 -4 -17 9 -13 34 -12 39 2 5 14 -20 25 -35 15z"/>
<path d="M161 1206 c-10 -12 -8 -17 6 -25 24 -12 48 2 40 23 -8 20 -31 21 -46
2z"/>
<path d="M483 1202 c-7 -16 14 -32 32 -25 17 6 7 40 -12 40 -8 0 -17 -7 -20
-15z"/>
<path d="M994 1199 c-9 -16 10 -31 30 -23 13 5 14 9 5 20 -14 17 -25 18 -35 3z"/>
<path d="M1167 1194 c-9 -10 2 -24 19 -24 8 0 14 7 14 15 0 15 -21 21 -33 9z"/>
<path d="M635 1180 c-8 -12 20 -24 35 -15 6 3 8 11 5 16 -8 12 -32 12 -40 -1z"/>
<path d="M726 1181 c-7 -11 22 -23 35 -15 5 3 7 10 4 15 -8 12 -32 12 -39 0z"/>
<path d="M1097 1173 c-12 -12 -7 -33 8 -33 17 0 19 9 7 28 -5 7 -11 9 -15 5z"/>
<path d="M563 1154 c-8 -21 16 -36 32 -21 9 8 10 16 3 25 -14 17 -27 15 -35
-4z"/>
<path d="M1236 1152 c-8 -13 11 -35 23 -28 16 10 14 36 -3 36 -8 0 -17 -4 -20
-8z"/>
<path d="M5 1141 c-3 -5 -1 -12 5 -16 12 -7 30 2 30 16 0 12 -27 12 -35 0z"/>
<path d="M296 1132 c-9 -14 12 -35 28 -29 23 9 20 37 -3 37 -11 0 -22 -4 -25
-8z"/>
<path d="M86 1113 c-8 -19 10 -34 31 -26 15 6 16 13 5 28 -12 16 -30 15 -36
-2z"/>
<path d="M190 1095 c0 -11 7 -15 23 -13 12 2 22 8 22 13 0 6 -10 11 -22 13
-16 2 -23 -2 -23 -13z"/>
<path d="M774 1099 c-9 -16 10 -31 30 -23 13 5 14 9 5 20 -14 17 -25 18 -35 3z"/>
<path d="M1168 1098 c-7 -19 2 -38 19 -38 9 0 13 8 11 22 -3 25 -23 35 -30 16z"/>
<path d="M650 1075 c0 -8 9 -15 20 -15 11 0 20 7 20 15 0 8 -9 15 -20 15 -11
0 -20 -7 -20 -15z"/>
<path d="M880 1055 c0 -8 7 -15 15 -15 8 0 15 7 15 15 0 8 -7 15 -15 15 -8 0
-15 -7 -15 -15z"/>
<path d="M382 1051 c-11 -6 -11 -10 0 -19 16 -13 44 1 34 17 -8 13 -16 14 -34
2z"/>
<path d="M1240 1045 c0 -9 5 -15 11 -13 6 2 11 8 11 13 0 5 -5 11 -11 13 -6 2
-11 -4 -11 -13z"/>
<path d="M780 1020 c0 -11 6 -20 14 -20 24 0 28 18 6 30 -17 9 -20 8 -20 -10z"/>
<path d="M986 1031 c-3 -5 0 -11 8 -14 15 -6 26 1 26 15 0 11 -27 10 -34 -1z"/>
<path d="M177 1006 c-3 -8 2 -16 14 -19 14 -4 19 0 19 14 0 22 -25 26 -33 5z"/>
<path d="M280 980 c0 -13 7 -20 20 -20 13 0 20 7 20 20 0 13 -7 20 -20 20 -13
0 -20 -7 -20 -20z"/>
<path d="M500 987 c0 -19 10 -27 26 -20 21 8 17 33 -6 33 -11 0 -20 -6 -20
-13z"/>
<path d="M610 987 c0 -19 10 -27 26 -20 21 8 17 33 -6 33 -11 0 -20 -6 -20
-13z"/>
<path d="M1182 983 c2 -10 10 -18 18 -18 8 0 16 8 18 18 2 12 -3 17 -18 17
-15 0 -20 -5 -18 -17z"/>
<path d="M707 976 c-6 -15 19 -30 34 -20 6 3 5 11 -2 20 -15 18 -25 18 -32 0z"/>
<path d="M893 983 c-20 -7 -15 -33 6 -33 11 0 22 4 25 9 8 12 -16 29 -31 24z"/>
<path d="M383 963 c-20 -7 -15 -23 7 -23 11 0 20 4 20 9 0 13 -12 19 -27 14z"/>
<path d="M1085 960 c-4 -7 -1 -16 6 -21 17 -10 26 8 11 23 -6 6 -12 6 -17 -2z"/>
<path d="M790 930 c-13 -9 -13 -11 0 -20 18 -11 39 5 24 20 -6 6 -15 6 -24 0z"/>
<path d="M981 926 c-15 -18 2 -31 25 -18 13 7 13 10 1 20 -11 10 -17 9 -26 -2z"/>
<path d="M1247 933 c-11 -10 -8 -20 8 -27 10 -4 15 1 15 14 0 20 -11 26 -23
13z"/>
<path d="M16 912 c-2 -4 -1 -14 4 -21 11 -19 41 -6 34 14 -6 16 -29 20 -38 7z"/>
<path d="M577 906 c-6 -15 10 -26 30 -19 15 5 5 33 -12 33 -7 0 -15 -6 -18
-14z"/>
<path d="M477 904 c-14 -14 -7 -35 11 -32 9 2 17 10 17 17 0 16 -18 25 -28 15z"/>
<path d="M1153 893 c-20 -7 -15 -33 6 -33 11 0 22 4 25 9 8 12 -16 29 -31 24z"/>
<path d="M897 874 c-13 -13 -7 -24 14 -24 11 0 19 5 17 12 -5 14 -22 21 -31
12z"/>
<path d="M1022 833 c4 -21 33 -25 33 -3 0 8 -8 16 -18 18 -14 3 -18 -1 -15
-15z"/>
<path d="M92 823 c2 -10 10 -18 18 -18 8 0 16 8 18 18 2 12 -3 17 -18 17 -15
0 -20 -5 -18 -17z"/>
<path d="M210 815 c-10 -12 -9 -16 3 -21 17 -6 37 2 37 16 0 15 -29 19 -40 5z"/>
<path d="M530 801 c0 -12 6 -21 16 -21 9 0 14 7 12 17 -5 25 -28 28 -28 4z"/>
<path d="M806 811 c-7 -11 14 -20 32 -14 6 3 12 9 12 14 0 12 -37 12 -44 0z"/>
<path d="M1223 813 c-15 -5 -17 -29 -4 -37 4 -3 16 0 25 7 15 11 15 15 4 24
-7 6 -19 8 -25 6z"/>
<path d="M12 788 c6 -18 28 -21 28 -4 0 9 -7 16 -16 16 -9 0 -14 -5 -12 -12z"/>
<path d="M430 785 c0 -8 9 -15 19 -15 10 0 21 7 25 15 4 11 -1 15 -19 15 -16
0 -25 -6 -25 -15z"/>
<path d="M317 774 c-4 -4 -4 -11 -1 -15 8 -14 31 -10 38 6 5 15 -24 22 -37 9z"/>
<path d="M730 770 c-13 -9 -13 -11 0 -20 18 -11 39 5 24 20 -6 6 -15 6 -24 0z"/>
<path d="M920 771 c0 -6 4 -12 9 -15 13 -8 42 4 35 15 -7 12 -44 12 -44 0z"/>
<path d="M60 731 c0 -21 21 -33 39 -22 17 11 2 41 -20 41 -12 0 -19 -7 -19
-19z"/>
<path d="M180 730 c-13 -9 -13 -11 0 -20 19 -12 35 -8 35 10 0 18 -16 22 -35
10z"/>
<path d="M410 696 c0 -8 5 -18 10 -21 13 -8 42 14 34 26 -9 15 -44 10 -44 -5z"/>
<path d="M820 696 c0 -15 24 -28 34 -19 13 14 5 33 -14 33 -11 0 -20 -6 -20
-14z"/>
<path d="M641 686 c-9 -10 -8 -15 4 -20 17 -6 45 2 45 14 0 4 -7 11 -16 14
-21 8 -20 8 -33 -8z"/>
<path d="M1170 690 c-22 -13 2 -35 25 -23 13 8 14 11 3 21 -9 7 -19 7 -28 2z"/>
<path d="M300 660 c0 -13 7 -20 18 -20 24 0 32 8 25 26 -8 22 -43 17 -43 -6z"/>
<path d="M120 633 c0 -5 5 -15 10 -23 7 -11 12 -12 21 -3 6 6 8 16 5 22 -8 12
-36 15 -36 4z"/>
<path d="M216 633 c-3 -3 -6 -12 -6 -20 0 -15 36 -18 45 -4 7 12 -29 33 -39
24z"/>
<path d="M730 621 c0 -11 4 -22 8 -25 14 -9 35 12 29 28 -9 23 -37 20 -37 -3z"/>
<path d="M1060 627 c0 -19 10 -27 26 -20 21 8 17 33 -6 33 -11 0 -20 -6 -20
-13z"/>
<path d="M1210 607 c0 -7 5 -18 12 -25 15 -15 39 3 31 24 -7 18 -43 19 -43 1z"/>
<path d="M27 595 c-7 -16 8 -29 23 -20 15 9 12 35 -4 35 -8 0 -16 -7 -19 -15z"/>
<path d="M581 596 c-9 -10 -8 -15 2 -19 23 -9 41 8 24 22 -11 9 -17 8 -26 -3z"/>
<path d="M826 593 c-12 -12 -5 -23 14 -23 11 0 20 4 20 9 0 11 -26 22 -34 14z"/>
<path d="M372 573 c4 -21 33 -25 33 -3 0 8 -8 16 -18 18 -14 3 -18 -1 -15 -15z"/>
<path d="M970 580 c0 -5 7 -10 15 -10 8 0 15 5 15 10 0 6 -7 10 -15 10 -8 0
-15 -4 -15 -10z"/>
<path d="M1125 570 c-3 -5 -2 -15 1 -24 5 -12 10 -13 25 -5 10 5 19 14 19 18
0 12 -39 21 -45 11z"/>
<path d="M291 550 c-19 -11 -6 -41 14 -34 16 6 20 29 7 38 -4 2 -14 1 -21 -4z"/>
<path d="M82 531 c-6 -3 -8 -11 -4 -17 9 -13 34 -12 39 2 5 14 -20 25 -35 15z"/>
<path d="M503 512 c-7 -16 14 -32 32 -25 17 6 7 40 -12 40 -8 0 -17 -7 -20
-15z"/>
<path d="M655 520 c-8 -12 20 -24 35 -15 6 3 8 11 5 16 -8 12 -32 12 -40 -1z"/>
<path d="M1014 509 c-9 -16 10 -31 30 -23 13 5 14 9 5 20 -14 17 -25 18 -35 3z"/>
<path d="M863 498 c2 -7 12 -13 22 -13 10 0 20 6 23 13 2 7 -6 12 -23 12 -17
0 -25 -5 -22 -12z"/>
<path d="M407 493 c-14 -13 -6 -33 12 -33 25 0 38 20 20 31 -17 11 -24 11 -32
2z"/>
<path d="M316 442 c-9 -14 12 -35 28 -29 23 9 20 37 -3 37 -11 0 -22 -4 -25
-8z"/>
<path d="M583 434 c-8 -21 16 -36 32 -21 9 8 10 16 3 25 -14 17 -27 15 -35 -4z"/>
<path d="M86 423 c-8 -19 10 -34 31 -26 15 6 16 13 5 28 -12 16 -30 15 -36 -2z"/>
<path d="M926 432 c-9 -14 12 -35 28 -29 23 9 20 37 -3 37 -11 0 -22 -4 -25
-8z"/>
<path d="M1060 425 c0 -18 24 -30 39 -21 16 10 1 36 -20 36 -10 0 -19 -7 -19
-15z"/>
<path d="M464 399 c-10 -17 13 -36 27 -22 12 12 4 33 -11 33 -5 0 -12 -5 -16
-11z"/>
<path d="M670 385 c0 -8 9 -15 20 -15 11 0 20 7 20 15 0 8 -9 15 -20 15 -11 0
-20 -7 -20 -15z"/>
<path d="M5 369 c-4 -6 -2 -15 5 -19 17 -10 42 -1 37 14 -5 16 -34 19 -42 5z"/>
<path d="M355 350 c-3 -5 -4 -14 0 -20 8 -13 35 -1 35 16 0 16 -26 19 -35 4z"/>
<path d="M543 338 c2 -7 10 -13 17 -13 7 0 15 6 18 13 2 7 -5 12 -18 12 -13 0
-20 -5 -17 -12z"/>
<path d="M156 315 c4 -9 13 -15 21 -13 23 5 20 23 -4 26 -18 3 -21 0 -17 -13z"/>
<path d="M737 316 c-7 -17 4 -32 23 -31 24 0 25 40 1 42 -11 1 -22 -4 -24 -11z"/>
<path d="M980 317 c0 -19 10 -27 26 -20 21 8 17 33 -6 33 -11 0 -20 -6 -20
-13z"/>
<path d="M1094 314 c3 -9 6 -18 6 -20 0 -11 29 -2 33 10 7 18 -1 26 -26 26
-13 0 -17 -5 -13 -16z"/>
<path d="M260 301 c0 -24 34 -22 38 2 2 12 -3 17 -17 17 -14 0 -21 -6 -21 -19z"/>
<path d="M1223 313 c-20 -7 -15 -29 7 -30 11 -1 20 4 20 12 0 17 -11 24 -27
18z"/>
<path d="M437 304 c-13 -13 -7 -24 14 -24 11 0 19 5 17 12 -5 14 -22 21 -31
12z"/>
<path d="M57 294 c-3 -4 -2 -15 4 -26 8 -15 13 -17 25 -7 11 9 12 15 3 25 -12
15 -22 17 -32 8z"/>
<path d="M625 270 c-8 -13 3 -30 20 -30 14 0 27 24 18 34 -10 9 -31 7 -38 -4z"/>
<path d="M804 239 c-3 -6 -2 -15 3 -20 14 -14 43 0 36 17 -6 17 -29 19 -39 3z"/>
<path d="M1034 239 c-8 -14 14 -29 33 -22 18 7 17 20 -3 27 -21 8 -22 8 -30
-5z"/>
<path d="M331 226 c-8 -10 -8 -16 2 -24 17 -14 42 2 34 22 -8 20 -21 20 -36 2z"/>
<path d="M1137 233 c-16 -15 -5 -33 19 -33 20 0 25 4 20 16 -3 9 -6 18 -6 20
0 7 -26 5 -33 -3z"/>
<path d="M7 217 c-7 -19 8 -41 22 -33 16 10 14 46 -3 46 -8 0 -16 -6 -19 -13z"/>
<path d="M117 224 c-9 -9 4 -34 18 -34 19 0 26 27 9 34 -19 7 -19 7 -27 0z"/>
<path d="M217 223 c-13 -12 -7 -23 13 -23 11 0 20 7 20 15 0 15 -21 21 -33 8z"/>
<path d="M697 214 c-11 -11 3 -24 24 -24 12 0 19 5 17 13 -5 14 -31 21 -41 11z"/>
<path d="M567 174 c-9 -9 4 -34 18 -34 19 0 26 27 9 34 -19 7 -19 7 -27 0z"/>
<path d="M933 163 c-20 -8 -15 -33 6 -33 14 0 18 5 14 20 -3 11 -6 20 -7 19 0
0 -7 -3 -13 -6z"/>
<path d="M1240 162 c0 -7 -4 -10 -10 -7 -14 9 -12 -8 3 -29 13 -18 14 -18 20
-2 4 10 3 25 -3 34 -6 11 -9 12 -10 4z"/>
<path d="M256 143 c-13 -13 -5 -33 12 -33 10 0 19 7 19 15 0 15 -21 27 -31 18z"/>
<path d="M812 134 c4 -21 22 -23 26 -1 2 10 -3 17 -13 17 -10 0 -15 -6 -13
-16z"/>
<path d="M1020 130 c0 -22 1 -23 24 -14 23 9 20 34 -4 34 -13 0 -20 -7 -20
-20z"/>
<path d="M56 125 c-5 -14 17 -28 28 -18 10 10 7 21 -8 26 -8 3 -17 0 -20 -8z"/>
<path d="M1127 133 c-3 -5 -2 -15 2 -21 9 -15 43 -4 38 12 -5 14 -33 20 -40 9z"/>
<path d="M150 106 c0 -10 9 -16 21 -16 24 0 21 23 -4 28 -10 2 -17 -3 -17 -12z"/>
<path d="M697 114 c-9 -10 2 -24 19 -24 8 0 14 7 14 15 0 15 -21 21 -33 9z"/>
<path d="M470 92 c0 -15 5 -19 20 -15 24 6 21 26 -3 31 -11 2 -17 -3 -17 -16z"/>
<path d="M575 71 c-3 -5 -1 -12 5 -16 12 -7 30 2 30 16 0 12 -27 12 -35 0z"/>
<path d="M893 60 c-10 -14 -9 -19 2 -24 20 -7 39 19 22 32 -10 8 -16 6 -24 -8z"/>
<path d="M1196 64 c-8 -20 14 -38 28 -24 7 7 5 16 -6 26 -14 14 -16 14 -22 -2z"/>
<path d="M310 50 c-9 -17 -8 -20 10 -20 11 0 20 6 20 14 0 24 -18 28 -30 6z"/>
<path d="M1067 50 c-3 -11 -2 -22 2 -24 11 -7 26 7 29 27 4 24 -24 22 -31 -3z"/>
<path d="M15 49 c-4 -6 -5 -13 -2 -16 7 -7 27 6 27 18 0 12 -17 12 -25 -2z"/>
<path d="M195 52 c-19 -14 -15 -31 7 -27 26 5 32 11 23 24 -7 13 -16 14 -30 3z"/>
<path d="M422 49 c5 -14 21 -14 26 0 2 6 -4 11 -13 11 -9 0 -15 -5 -13 -11z"/>
<path d="M770 51 c0 -5 7 -11 15 -15 9 -3 15 0 15 9 0 8 -7 15 -15 15 -8 0
-15 -4 -15 -9z"/>
<path d="M646 35 c-4 -10 1 -15 14 -15 11 0 20 7 20 15 0 8 -6 15 -14 15 -8 0
-16 -7 -20 -15z"/>
</g>
</svg>
