<?xml version="1.0" encoding="UTF-8" standalone="no"?>
<svg
   xmlns:dc="http://purl.org/dc/elements/1.1/"
   xmlns:cc="http://creativecommons.org/ns#"
   xmlns:rdf="http://www.w3.org/1999/02/22-rdf-syntax-ns#"
   xmlns:svg="http://www.w3.org/2000/svg"
   xmlns="http://www.w3.org/2000/svg"
   xmlns:sodipodi="http://sodipodi.sourceforge.net/DTD/sodipodi-0.dtd"
   xmlns:inkscape="http://www.inkscape.org/namespaces/inkscape"
   inkscape:version="1.0 (4035a4fb49, 2020-05-01)"
   sodipodi:docname="USGS_617_colour_nobox.svg"
   id="svg18351"
   preserveAspectRatio="xMidYMid meet"
   viewBox="0 0 1125.000000 900.000000"
   height="900.000000pt"
   width="1125.000000pt"
   version="1.0">
  <defs
     id="defs18355" />
  <sodipodi:namedview
     inkscape:current-layer="svg18351"
     inkscape:window-maximized="1"
     inkscape:window-y="-8"
     inkscape:window-x="1912"
     inkscape:cy="600"
     inkscape:cx="750"
     inkscape:zoom="0.68916667"
     showgrid="false"
     id="namedview18353"
     inkscape:window-height="1017"
     inkscape:window-width="1920"
     inkscape:pageshadow="2"
     inkscape:pageopacity="0"
     guidetolerance="10"
     gridtolerance="10"
     objecttolerance="10"
     borderopacity="1"
     bordercolor="#666666"
     pagecolor="#ffffff" />
  <metadata
     id="metadata17997">
Created by potrace 1.13, written by Peter Selinger 2001-2015
<rdf:RDF>
  <cc:Work
     rdf:about="">
    <dc:format>image/svg+xml</dc:format>
    <dc:type
       rdf:resource="http://purl.org/dc/dcmitype/StillImage" />
    <dc:title></dc:title>
  </cc:Work>
</rdf:RDF>
</metadata>
  <path
     style="stroke-width:0.1"
     d="M 95.7,42.7 C 95.3,43 95,48.7 95,55.2 V 67 h 3.5 3.5 V 54.5 42 h -2.8 c -1.6,0 -3.2,0.3 -3.5,0.7 z"
     id="path18001" />
  <path
     style="stroke-width:0.1"
     d="m 28,67 c -4.3,4.3 -1.1,12 5,12 3.8,0 7,-3.2 7,-7 0,-3.8 -3.2,-7 -7,-7 -1.7,0 -3.9,0.9 -5,2 z"
     id="path18003" />
  <path
     style="stroke-width:0.1"
     d="m 303.2,67.3 c -4.5,4.8 -1.4,11.7 5.1,11.7 4.3,0 6.7,-2.6 6.7,-7.3 0,-6.3 -7.4,-9.1 -11.8,-4.4 z"
     id="path18005" />
  <path
     style="stroke-width:0.1"
     d="m 353,67 c -2.6,2.6 -2.6,8.1 -0.2,10.3 2.5,2.3 7.8,2.1 10.2,-0.3 4.3,-4.3 1.1,-12 -5,-12 -1.7,0 -3.9,0.9 -5,2 z"
     id="path18007" />
  <path
     style="stroke-width:0.1"
     d="m 400.1,67.6 c -1.2,1.5 -2.1,3.4 -2.1,4.4 0,3.4 3.9,7 7.5,7 3.6,0 7.5,-3.6 7.5,-7 0,-3.4 -3.9,-7 -7.5,-7 -2.4,0 -3.9,0.7 -5.4,2.6 z"
     id="path18009" />
  <path
     style="stroke-width:0.1"
     d="m 683.1,67.6 c -1.2,1.5 -2.1,3.4 -2.1,4.4 0,3.4 3.9,7 7.5,7 4.3,0 7.9,-4.1 7,-8 -1.4,-6 -8.8,-8 -12.4,-3.4 z"
     id="path18011" />
  <path
     style="stroke-width:0.1"
     d="m 733,67 c -4.5,4.5 -1.1,12 5.3,12 4.2,0 6.7,-2.6 6.7,-6.8 0,-4.1 -3.1,-7.2 -7,-7.2 -1.7,0 -3.9,0.9 -5,2 z"
     id="path18013" />
  <path
     style="stroke-width:0.1"
     d="m 781.2,66.7 c -5.2,4.4 -2.4,12.3 4.3,12.3 3.6,0 7.5,-3.6 7.5,-7 0,-1 -0.9,-2.9 -2.1,-4.4 -2.4,-3.1 -6.7,-3.5 -9.7,-0.9 z"
     id="path18015" />
  <path
     style="stroke-width:0.1"
     d="m 1058.1,67.6 c -2.7,3.5 -2.7,6.5 0.2,9.2 4.8,4.6 12,1.6 12,-5 0,-6.4 -8.3,-9.2 -12.2,-4.2 z"
     id="path18017" />
  <path
     style="stroke-width:0.1"
     d="m 75,71 v 3 H 169.5 264 V 71 68 H 169.5 75 Z"
     id="path18019" />
  <path
     style="stroke-width:0.1"
     d="m 447,71 v 3 H 541.5 636 V 71 68 H 541.5 447 Z"
     id="path18021" />
  <path
     style="stroke-width:0.1"
     d="m 833.7,68.7 c -0.4,0.3 -0.7,1.7 -0.7,3 V 74 h 94.5 94.5 v -3 -3 h -93.8 c -51.6,0 -94.2,0.3 -94.5,0.7 z"
     id="path18023" />
  <path
     style="stroke-width:0.1"
     d="M 681,112.5 V 125 h 3.5 3.5 V 112.5 100 h -3.5 -3.5 z"
     id="path18025" />
  <path
     style="stroke-width:0.1"
     d="m 133,124.3 c -5.2,2.6 -4.9,10.4 0.4,12.8 8.1,3.7 13.8,-7.3 6.4,-12.5 -2.7,-1.9 -3.5,-2 -6.8,-0.3 z"
     id="path18027" />
  <path
     style="stroke-width:0.1"
     d="m 184,123.7 c -5.5,2 -6.8,8.7 -2.4,12.2 1.5,1.2 3.4,2.1 4.4,2.1 3.3,0 7,-3.9 7,-7.4 0,-4.6 -4.9,-8.4 -9,-6.9 z"
     id="path18029" />
  <path
     style="stroke-width:0.1"
     d="m 230.3,124.2 c -5.2,2.5 -5.2,10.5 0.1,12.9 8.3,3.8 14.7,-8.4 6.6,-12.6 -3.3,-1.7 -3.7,-1.7 -6.7,-0.3 z"
     id="path18031" />
  <path
     style="stroke-width:0.1"
     d="m 513.3,124.2 c -1.2,0.6 -2.7,2.4 -3.4,4 -3.4,8.3 8.6,13.6 13,5.7 1.9,-3.3 0.1,-8.1 -3.5,-9.8 -2.9,-1.3 -3.2,-1.3 -6.1,0.1 z"
     id="path18033" />
  <path
     style="stroke-width:0.1"
     d="m 563,124.3 c -1.3,0.7 -2.9,2.5 -3.4,3.9 -2.9,8.3 9.4,13.7 12.8,5.6 1.7,-3.9 1.1,-6.3 -2.2,-8.8 -2.9,-2.3 -3.8,-2.4 -7.2,-0.7 z"
     id="path18035" />
  <path
     style="stroke-width:0.1"
     d="m 609.7,125.2 c -3.7,3.3 -4,7.5 -0.7,10.8 2.7,2.7 6.6,2.5 9.5,-0.5 2.9,-2.8 3.2,-6.5 0.8,-9.3 -2.8,-3.3 -6.6,-3.7 -9.6,-1 z"
     id="path18037" />
  <path
     style="stroke-width:0.1"
     d="m 884.3,124 c -4.8,2 -5.8,8.7 -1.7,11.9 3.4,2.7 6.4,2.7 9.2,0.1 3.2,-3 3,-8.2 -0.4,-10.9 -2.9,-2.3 -3.8,-2.4 -7.1,-1.1 z"
     id="path18039" />
  <path
     style="stroke-width:0.1"
     d="m 938.3,124 c -2.5,1 -4.3,3.9 -4.3,7 0,2.8 4.3,7 7.3,7 6.3,0 9.1,-8.9 4.1,-12.9 -2.9,-2.3 -3.8,-2.4 -7.1,-1.1 z"
     id="path18041" />
  <path
     style="stroke-width:0.1"
     d="m 985.2,124.6 c -6.3,4.4 -3.7,13.4 3.9,13.4 2.8,0 6.9,-4.4 6.9,-7.3 0,-5.5 -6.5,-9.2 -10.8,-6.1 z"
     id="path18043" />
  <path
     style="stroke-width:0.1"
     d="m 283,129 v 3 h 94.5 94.5 v -3 -3 H 377.5 283 Z"
     id="path18045" />
  <path
     style="stroke-width:0.1"
     d="m 661,129 v 3 h 94.5 94.5 v -3 -3 H 755.5 661 Z"
     id="path18047" />
  <path
     style="stroke-width:0.1"
     d="m 135,177 v 13 h 3 3 v -13 -13 h -3 -3 z"
     id="path18049" />
  <path
     style="stroke-width:0.1"
     d="m 512,177 v 13 h 3 3 v -13 -13 h -3 -3 z"
     id="path18051" />
  <path
     style="stroke-width:0.1"
     d="m 891,177 v 13 h 3 3 v -13 -13 h -3 -3 z"
     id="path18053" />
  <path
     style="stroke-width:0.1"
     d="m 18.1,188.8 c -2.8,2.2 -3.1,7.5 -0.6,10.2 2.4,2.6 7.9,2.6 10.5,0 6.2,-6.2 -3.1,-15.8 -9.9,-10.2 z"
     id="path18055" />
  <path
     style="stroke-width:0.1"
     d="m 65.2,189.3 c -4.4,4.7 -1.3,11.7 5.2,11.7 4.1,0 6.9,-2.9 6.9,-7.2 0,-6.1 -7.8,-9.1 -12.1,-4.5 z"
     id="path18057" />
  <path
     style="stroke-width:0.1"
     d="m 343,189 c -4.2,4.2 -1.2,12 4.8,12 4.4,0 7.2,-2.6 7.2,-6.6 0,-4.3 -2.9,-7.4 -7,-7.4 -1.7,0 -3.9,0.9 -5,2 z"
     id="path18059" />
  <path
     style="stroke-width:0.1"
     d="m 393.2,188.6 c -1.6,1.1 -2.2,2.5 -2.2,5.4 0,2.9 0.6,4.3 2.2,5.4 5.1,3.6 11.8,0.5 11.8,-5.4 0,-5.9 -6.7,-9 -11.8,-5.4 z"
     id="path18061" />
  <path
     style="stroke-width:0.1"
     d="m 440.1,189.6 c -2.7,3.5 -2.7,6.5 0.2,9.2 4.8,4.5 12,1.6 12,-4.8 0,-6.7 -8.1,-9.6 -12.2,-4.4 z"
     id="path18063" />
  <path
     style="stroke-width:0.1"
     d="m 720.2,188.6 c -1.6,1.1 -2.2,2.5 -2.2,5.4 0,2.9 0.6,4.3 2.2,5.4 5.1,3.6 11.8,0.5 11.8,-5.4 0,-5.9 -6.7,-9 -11.8,-5.4 z"
     id="path18065" />
  <path
     style="stroke-width:0.1"
     d="m 769.1,189.6 c -1.2,1.5 -2.1,3.4 -2.1,4.4 0,3.4 3.9,7 7.5,7 3.6,0 7.5,-3.6 7.5,-7 0,-3.4 -3.9,-7 -7.5,-7 -2.4,0 -3.9,0.7 -5.4,2.6 z"
     id="path18067" />
  <path
     style="stroke-width:0.1"
     d="m 817,189 c -1.1,1.1 -2,3.3 -2,5 0,1.7 0.9,3.9 2,5 1.1,1.1 3.3,2 5,2 1.7,0 3.9,-0.9 5,-2 1.1,-1.1 2,-3.3 2,-5 0,-1.7 -0.9,-3.9 -2,-5 -1.1,-1.1 -3.3,-2 -5,-2 -1.7,0 -3.9,0.9 -5,2 z"
     id="path18069" />
  <path
     style="stroke-width:0.1"
     d="m 1095.5,189 c -4.2,4.6 -1,12 5.1,12 3.5,0 7.4,-3.7 7.4,-7 0,-1 -0.9,-2.9 -2.1,-4.4 -2.6,-3.3 -7.7,-3.6 -10.4,-0.6 z"
     id="path18071" />
  <path
     style="stroke-width:0.1"
     d="m 114,194 v 3 h 94.5 94.5 v -3 -3 H 208.5 114 Z"
     id="path18073" />
  <path
     style="stroke-width:0.1"
     d="m 491,194 v 3 l 94.8,-0.2 94.7,-0.3 0.3,-2.8 0.3,-2.7 h -95 -95.1 z"
     id="path18075" />
  <path
     style="stroke-width:0.1"
     d="m 870,194 v 3 h 94 94 v -3 -3 h -94 -94 z"
     id="path18077" />
  <path
     style="stroke-width:0.1"
     d="M 720,239.5 V 252 h 3.5 3.5 V 239.5 227 h -3.5 -3.5 z"
     id="path18079" />
  <path
     style="stroke-width:0.1"
     d="m 180.6,251.1 c -1.9,1.5 -2.6,3 -2.6,5.4 0,3.6 3.6,7.5 7,7.5 3.4,0 7,-3.9 7,-7.5 0,-3.6 -3.6,-7.5 -7,-7.5 -1,0 -2.9,0.9 -4.4,2.1 z"
     id="path18081" />
  <path
     style="stroke-width:0.1"
     d="m 231.3,250.2 c -3.5,1.7 -4.8,6 -2.9,9.6 3.5,6.8 13.6,4.1 13.6,-3.6 0,-4.7 -6.3,-8.2 -10.7,-6 z"
     id="path18083" />
  <path
     style="stroke-width:0.1"
     d="m 277.5,251.5 c -3.4,3.3 -3.3,7.7 0.1,10.4 1.5,1.2 3.4,2.1 4.4,2.1 1,0 2.9,-0.9 4.4,-2.1 3.6,-2.8 3.6,-8 0,-10.8 -3.5,-2.7 -5.9,-2.6 -8.9,0.4 z"
     id="path18085" />
  <path
     style="stroke-width:0.1"
     d="m 555.6,251.1 c -1.9,1.5 -2.6,3 -2.6,5.4 0,3.6 3.6,7.5 7,7.5 3.4,0 7,-3.9 7,-7.5 0,-3.6 -3.6,-7.5 -7,-7.5 -1,0 -2.9,0.9 -4.4,2.1 z"
     id="path18087" />
  <path
     style="stroke-width:0.1"
     d="m 606.3,250.2 c -3.5,1.7 -4.8,6 -2.9,9.6 3.5,6.8 13.6,4.1 13.6,-3.6 0,-4.7 -6.3,-8.2 -10.7,-6 z"
     id="path18089" />
  <path
     style="stroke-width:0.1"
     d="m 652.5,251.5 c -3.4,3.3 -3.3,7.7 0.1,10.4 1.5,1.2 3.4,2.1 4.4,2.1 3.4,0 7,-3.9 7,-7.5 0,-2.4 -0.7,-3.9 -2.6,-5.4 -3.5,-2.7 -5.9,-2.6 -8.9,0.4 z"
     id="path18091" />
  <path
     style="stroke-width:0.1"
     d="m 933.5,251.5 c -3.7,3.7 -3,9.1 1.6,11.5 5.5,3 12.3,-3.2 9.9,-9 -1.1,-2.7 -4.6,-5 -7.6,-5 -0.8,0 -2.6,1.1 -3.9,2.5 z"
     id="path18093" />
  <path
     style="stroke-width:0.1"
     d="m 983.6,251.1 c -1.9,1.5 -2.6,3 -2.6,5.4 0,3.6 3.6,7.5 7,7.5 3.4,0 7,-3.9 7,-7.5 0,-3.6 -3.6,-7.5 -7,-7.5 -1,0 -2.9,0.9 -4.4,2.1 z"
     id="path18095" />
  <path
     style="stroke-width:0.1"
     d="m 1032.3,250.2 c -6.8,3.3 -4,13.8 3.7,13.8 2.8,0 7,-4.4 7,-7.3 0,-5.1 -6.1,-8.8 -10.7,-6.5 z"
     id="path18097" />
  <path
     style="stroke-width:0.1"
     d="m 327,256 v 3 h 95.1 95 l -0.3,-2.8 -0.3,-2.7 -94.7,-0.3 L 327,253 Z"
     id="path18099" />
  <path
     style="stroke-width:0.1"
     d="m 700,256 v 3 h 94.5 94.5 v -3 -3 H 794.5 700 Z"
     id="path18101" />
  <path
     style="stroke-width:0.1"
     d="m 17.1,312.6 c -1.2,1.5 -2.1,3.4 -2.1,4.4 0,3.4 3.9,7 7.5,7 3.6,0 7.5,-3.6 7.5,-7 0,-3.4 -3.9,-7 -7.5,-7 -2.4,0 -3.9,0.7 -5.4,2.6 z"
     id="path18103" />
  <path
     style="stroke-width:0.1"
     d="m 65,312 c -4.3,4.3 -1.1,12 5,12 3.8,0 7,-3.2 7,-7 0,-3.8 -3.2,-7 -7,-7 -1.7,0 -3.9,0.9 -5,2 z"
     id="path18105" />
  <path
     style="stroke-width:0.1"
     d="m 340,312 c -6.1,6.1 2.7,15.4 9.8,10.4 2.8,-2 3.1,-8.3 0.4,-10.7 -2.5,-2.3 -7.8,-2.1 -10.2,0.3 z"
     id="path18107" />
  <path
     style="stroke-width:0.1"
     d="m 390,312 c -4.3,4.3 -1.1,12 5,12 3.8,0 7,-3.2 7,-7 0,-3.8 -3.2,-7 -7,-7 -1.7,0 -3.9,0.9 -5,2 z"
     id="path18109" />
  <path
     style="stroke-width:0.1"
     d="m 437.1,312.6 c -1.2,1.5 -2.1,3.4 -2.1,4.4 0,3.4 3.9,7 7.5,7 3.6,0 7.5,-3.6 7.5,-7 0,-3.4 -3.9,-7 -7.5,-7 -2.4,0 -3.9,0.7 -5.4,2.6 z"
     id="path18111" />
  <path
     style="stroke-width:0.1"
     d="m 720.1,312.6 c -1.2,1.5 -2.1,3.4 -2.1,4.4 0,3.3 3.9,7 7.4,7 6,0 9.3,-6.6 5.6,-11.3 -2.9,-3.7 -8,-3.7 -10.9,-0.1 z"
     id="path18113" />
  <path
     style="stroke-width:0.1"
     d="m 770,312 c -1.1,1.1 -2,3.3 -2,5 0,1.7 0.9,3.9 2,5 4.5,4.5 12,1.1 12,-5.4 0,-6 -7.7,-8.9 -12,-4.6 z"
     id="path18115" />
  <path
     style="stroke-width:0.1"
     d="m 817,312.7 c -3.7,4.7 -0.4,11.3 5.6,11.3 3.5,0 7.4,-3.7 7.4,-7 0,-1 -0.9,-2.9 -2.1,-4.4 -2.9,-3.6 -8,-3.6 -10.9,0.1 z"
     id="path18117" />
  <path
     style="stroke-width:0.1"
     d="m 1095.1,312.6 c -1.2,1.5 -2.1,3.4 -2.1,4.4 0,3.3 3.9,7 7.4,7 6,0 9.3,-6.6 5.6,-11.3 -2.9,-3.7 -8,-3.7 -10.9,-0.1 z"
     id="path18119" />
  <path
     style="stroke-width:0.1"
     d="m 114,316 v 3 h 94.5 94.5 v -3 -3 H 208.5 114 Z"
     id="path18121" />
  <path
     style="stroke-width:0.1"
     d="m 489,316 v 3 h 94.5 94.5 v -3 -3 H 583.5 489 Z"
     id="path18123" />
  <path
     style="stroke-width:0.1"
     d="m 870,316 v 3 h 94 94 v -3 -3 h -94 -94 z"
     id="path18125" />
  <path
     style="stroke-width:0.1"
     d="m 301,362 v 12.9 l -10.2,0.3 -10.3,0.3 v 3 3 h 94.5 94.5 v -3 -3 L 388.3,375.2 307,375 v -13 -13 h -3 -3 z"
     id="path18127" />
  <path
     style="stroke-width:0.1"
     d="m 676,362 v 12.9 l -10.2,0.3 -10.3,0.3 v 3 3 h 94.5 94.5 v -3 -3 L 763.3,375.2 682,375 v -13 -13 h -3 -3 z"
     id="path18129" />
  <path
     style="stroke-width:0.1"
     d="m 130.2,372.7 c -0.7,0.3 -1.9,1.8 -2.7,3.3 -4,7.7 7.1,14.7 12,7.7 4.2,-6 -2.4,-13.8 -9.3,-11 z"
     id="path18131" />
  <path
     style="stroke-width:0.1"
     d="m 178.5,374.5 c -3.9,3.9 -3.2,8.6 1.7,11.1 5.9,3 12.2,-2.7 9.9,-8.9 -1.9,-5.1 -7.7,-6.2 -11.6,-2.2 z"
     id="path18133" />
  <path
     style="stroke-width:0.1"
     d="m 226.6,374.1 c -5.3,4.2 -2.3,12.2 4.6,12.2 6.4,0 9.2,-8.3 4.2,-12.2 -1.5,-1.2 -3.4,-2.1 -4.4,-2.1 -1,0 -2.9,0.9 -4.4,2.1 z"
     id="path18135" />
  <path
     style="stroke-width:0.1"
     d="m 510.5,373.2 c -2.8,1.6 -3.5,2.8 -3.5,6.5 0,4.1 4.2,7.7 8,6.8 6,-1.4 8,-8.8 3.4,-12.4 -3,-2.4 -5,-2.6 -7.9,-0.9 z"
     id="path18137" />
  <path
     style="stroke-width:0.1"
     d="m 559.7,373.1 c -4.8,2.8 -4,10.7 1.2,12.9 7.5,3.1 13.4,-5.8 7.6,-11.5 -2.5,-2.6 -5.8,-3.1 -8.8,-1.4 z"
     id="path18139" />
  <path
     style="stroke-width:0.1"
     d="m 606.6,374.1 c -4.6,3.6 -2.6,11 3.4,12.4 6.4,1.5 10.8,-7.8 5.8,-12.5 -2.8,-2.6 -5.8,-2.6 -9.2,0.1 z"
     id="path18141" />
  <path
     style="stroke-width:0.1"
     d="m 880.7,373.1 c -4.8,2.8 -4,10.7 1.3,12.9 5.8,2.4 12,-4.4 9,-9.9 -2,-3.8 -6.6,-5.1 -10.3,-3 z"
     id="path18143" />
  <path
     style="stroke-width:0.1"
     d="m 934.7,373.1 c -4.8,2.8 -4,10.7 1.3,12.9 2.3,0.9 3.4,0.9 5.8,-0.4 4.9,-2.5 5.6,-7.2 1.7,-11.1 -2.5,-2.6 -5.8,-3.1 -8.8,-1.4 z"
     id="path18145" />
  <path
     style="stroke-width:0.1"
     d="m 981.6,374.1 c -4.6,3.6 -2.6,11 3.4,12.4 3.8,0.9 8,-2.7 8,-6.8 0,-3.8 -0.7,-5 -3.7,-6.6 -3.1,-1.6 -4.7,-1.4 -7.7,1 z"
     id="path18147" />
  <path
     style="stroke-width:0.1"
     d="m 101,427 v 13 h 3 3 v -13 -13 h -3 -3 z"
     id="path18149" />
  <path
     style="stroke-width:0.1"
     d="m 473,427 v 13 h 3 3 v -13 -13 h -3 -3 z"
     id="path18151" />
  <path
     style="stroke-width:0.1"
     d="m 854,427 v 13 h 3 3 v -13 -13 h -3 -3 z"
     id="path18153" />
  <path
     style="stroke-width:0.1"
     d="m 29.5,439.5 c -1.4,1.3 -2.5,3.6 -2.5,5 0,2.8 4,7.5 6.4,7.5 7.8,0 10.9,-10.7 4,-13.9 -3.7,-1.6 -5.2,-1.4 -7.9,1.4 z"
     id="path18155" />
  <path
     style="stroke-width:0.1"
     d="m 304.5,439.5 c -4.8,4.7 -1.9,11.9 4.9,11.9 4.7,0 7,-2.3 7,-7 0,-6.8 -7.2,-9.7 -11.9,-4.9 z"
     id="path18157" />
  <path
     style="stroke-width:0.1"
     d="m 354.5,439.5 c -1.4,1.3 -2.5,3.6 -2.5,5 0,3 4.1,7.5 6.8,7.5 3.5,0 7.2,-3.8 7.2,-7.3 0,-3.8 -0.7,-5 -3.7,-6.6 -3.3,-1.7 -5.1,-1.4 -7.8,1.4 z"
     id="path18159" />
  <path
     style="stroke-width:0.1"
     d="m 403.4,438.2 c -6.8,3.2 -3.6,13.8 4.2,13.8 2.4,0 6.4,-4.7 6.4,-7.5 0,-3 -4.1,-7.5 -6.7,-7.4 -1,0 -2.8,0.5 -3.9,1.1 z"
     id="path18161" />
  <path
     style="stroke-width:0.1"
     d="m 686.4,438.2 c -6.9,3.3 -3.7,13.8 4.2,13.8 2.4,0 6.4,-4.7 6.4,-7.5 0,-3 -4.1,-7.5 -6.7,-7.4 -1,0 -2.8,0.5 -3.9,1.1 z"
     id="path18163" />
  <path
     style="stroke-width:0.1"
     d="m 734.5,439.5 c -5.8,5.7 0.1,14.6 7.6,11.5 3.5,-1.5 5.3,-5.7 4,-9.3 -1.9,-5.1 -7.7,-6.2 -11.6,-2.2 z"
     id="path18165" />
  <path
     style="stroke-width:0.1"
     d="m 782.6,439.1 c -1.9,1.5 -2.6,3 -2.6,5.4 0,3.6 3.6,7.5 7,7.5 3.4,0 7,-3.9 7,-7.5 0,-3.6 -3.6,-7.5 -7,-7.5 -1,0 -2.9,0.9 -4.4,2.1 z"
     id="path18167" />
  <path
     style="stroke-width:0.1"
     d="m 1061.7,437.7 c -0.9,0.2 -2.4,1.8 -3.3,3.5 -1.9,3.7 -0.5,8 3.2,9.7 3.7,1.6 5.2,1.4 7.9,-1.4 5.8,-5.7 0.3,-13.9 -7.8,-11.8 z"
     id="path18169" />
  <path
     style="stroke-width:0.1"
     d="m 80,444 v 3 h 94.5 94.5 v -3 -3 H 174.5 80 Z"
     id="path18171" />
  <path
     style="stroke-width:0.1"
     d="m 452,444 v 3 l 94.8,-0.2 94.7,-0.3 0.3,-2.8 0.3,-2.7 h -95 -95.1 z"
     id="path18173" />
  <path
     style="stroke-width:0.1"
     d="m 833,444 v 3 h 94.5 94.5 v -3 -3 H 927.5 833 Z"
     id="path18175" />
  <path
     style="stroke-width:0.1"
     d="m 304,487 v 12.9 l -10.2,0.3 -10.3,0.3 -0.3,3.2 -0.3,3.3 h 94.5 94.6 v -3.5 -3.5 h -81 -81 v -13 -13 h -3 -3 z"
     id="path18177" />
  <path
     style="stroke-width:0.1"
     d="m 676,487 v 12.9 l -10.2,0.3 -10.3,0.3 v 3 3 h 94.5 94.5 v -3 -3 L 763.3,500.2 682,500 v -13 -13 h -3 -3 z"
     id="path18179" />
  <path
     style="stroke-width:0.1"
     d="m 126.6,499.1 c -4.6,3.6 -2.6,11 3.4,12.4 3.8,0.9 8,-2.7 8,-6.8 0,-3.8 -0.7,-5 -3.7,-6.6 -3.1,-1.6 -4.7,-1.4 -7.7,1 z"
     id="path18181" />
  <path
     style="stroke-width:0.1"
     d="m 176.2,499 c -5,4.7 -0.6,14 5.8,12.5 6,-1.4 8,-8.8 3.4,-12.4 -3.4,-2.7 -6.4,-2.7 -9.2,-0.1 z"
     id="path18183" />
  <path
     style="stroke-width:0.1"
     d="m 223.5,499.5 c -1.4,1.3 -2.5,3.5 -2.5,4.7 0,5.6 6.1,9.3 10.6,6.3 3.7,-2.4 4.8,-5.2 3.3,-8.6 -2.2,-5.4 -7.4,-6.5 -11.4,-2.4 z"
     id="path18185" />
  <path
     style="stroke-width:0.1"
     d="m 506.5,499.5 c -2.8,2.7 -3.2,6.1 -1,9.2 4.9,7 16,0 12,-7.6 -2.4,-4.8 -7.2,-5.5 -11,-1.6 z"
     id="path18187" />
  <path
     style="stroke-width:0.1"
     d="m 556.6,499.1 c -5.2,4.1 -2.3,12.2 4.4,12.2 6.7,0 9.6,-8.1 4.4,-12.2 -1.5,-1.2 -3.4,-2.1 -4.4,-2.1 -1,0 -2.9,0.9 -4.4,2.1 z"
     id="path18189" />
  <path
     style="stroke-width:0.1"
     d="m 603.5,499.5 c -1.4,1.3 -2.5,3.1 -2.5,3.9 0,3 2.3,6.5 5,7.6 5.8,2.4 12,-4.4 9,-9.9 -2.4,-4.6 -7.8,-5.3 -11.5,-1.6 z"
     id="path18191" />
  <path
     style="stroke-width:0.1"
     d="m 877.6,499.1 c -3.6,2.9 -3.6,8 0.1,10.9 4.7,3.7 11.3,0.2 11.3,-6 0,-3.1 -3.9,-7 -7,-7 -1,0 -2.9,0.9 -4.4,2.1 z"
     id="path18193" />
  <path
     style="stroke-width:0.1"
     d="m 931.6,499.1 c -5.2,4.1 -2.3,12.2 4.4,12.2 6.7,0 9.6,-8.1 4.4,-12.2 -1.5,-1.2 -3.4,-2.1 -4.4,-2.1 -1,0 -2.9,0.9 -4.4,2.1 z"
     id="path18195" />
  <path
     style="stroke-width:0.1"
     d="m 978.5,499.5 c -2.8,2.7 -3,4.2 -1.4,7.9 1.6,3.4 5.8,5.1 9.1,3.5 2.6,-1.1 4.8,-4.6 4.8,-7.5 0,-2.4 -4.7,-6.4 -7.5,-6.4 -1.4,0 -3.7,1.1 -5,2.5 z"
     id="path18197" />
  <path
     style="stroke-width:0.1"
     d="m 95.5,540.2 c -0.3,0.8 -0.4,6.6 -0.3,12.9 l 0.3,11.4 3.3,0.3 3.3,0.3 -0.3,-12.8 -0.3,-12.8 -2.8,-0.3 c -1.6,-0.2 -2.9,0.2 -3.2,1 z"
     id="path18199" />
  <path
     style="stroke-width:0.1"
     d="m 470.5,540.2 c -0.3,0.8 -0.4,6.6 -0.3,12.9 l 0.3,11.4 3.3,0.3 3.3,0.3 -0.3,-12.8 -0.3,-12.8 -2.8,-0.3 c -1.6,-0.2 -2.9,0.2 -3.2,1 z"
     id="path18201" />
  <path
     style="stroke-width:0.1"
     d="m 852,552 v 13 h 3 3 v -13 -13 h -3 -3 z"
     id="path18203" />
  <path
     style="stroke-width:0.1"
     d="m 26.9,562.8 c -4.9,4 -1.7,12.2 4.8,12.2 6.5,0 9.3,-6.1 5.2,-11.4 -2.5,-3.1 -6.6,-3.5 -10,-0.8 z"
     id="path18205" />
  <path
     style="stroke-width:0.1"
     d="m 302,563 c -2.6,2.6 -2.6,8.1 -0.2,10.3 4.4,4 12.2,0.7 12.2,-5.1 0,-6 -7.8,-9.4 -12,-5.2 z"
     id="path18207" />
  <path
     style="stroke-width:0.1"
     d="m 352.2,562.7 c -5.1,4.3 -2.4,12.3 4.1,12.3 3.8,0 5,-0.7 6.6,-3.7 1.7,-3.3 1.4,-5.1 -1.4,-7.8 -2.8,-2.9 -6.5,-3.2 -9.3,-0.8 z"
     id="path18209" />
  <path
     style="stroke-width:0.1"
     d="m 399.2,563.3 c -4.5,4.8 -1.4,11.7 5.1,11.7 4.2,0 6.7,-2.6 6.7,-6.8 0,-6.5 -7.4,-9.6 -11.8,-4.9 z"
     id="path18211" />
  <path
     style="stroke-width:0.1"
     d="m 682.2,563.3 c -4.5,4.8 -1.4,11.7 5.1,11.7 4.2,0 6.7,-2.6 6.7,-6.8 0,-6.5 -7.4,-9.6 -11.8,-4.9 z"
     id="path18213" />
  <path
     style="stroke-width:0.1"
     d="m 732,563 c -2.6,2.6 -2.6,8.1 -0.2,10.3 4.4,4 12.2,0.7 12.2,-5.1 0,-6 -7.8,-9.4 -12,-5.2 z"
     id="path18215" />
  <path
     style="stroke-width:0.1"
     d="m 779.1,563.6 c -4.1,5.3 -1.3,11.4 5.2,11.4 4.2,0 7,-2.9 7,-7.2 0,-6.4 -8.3,-9.2 -12.2,-4.2 z"
     id="path18217" />
  <path
     style="stroke-width:0.1"
     d="m 1057,563 c -2.4,2.4 -2.6,6.7 -0.4,9.8 2,2.8 8.3,3.1 10.7,0.4 4,-4.5 0.6,-12.2 -5.3,-12.2 -1.7,0 -3.9,0.9 -5,2 z"
     id="path18219" />
  <path
     style="stroke-width:0.1"
     d="m 1107.1,562.8 c -2.8,2.2 -3.1,7.5 -0.6,10.2 2.4,2.6 7.9,2.6 10.5,0 6.2,-6.2 -3.1,-15.8 -9.9,-10.2 z"
     id="path18221" />
  <path
     style="stroke-width:0.1"
     d="m 75,569 v 3 h 94.5 94.5 v -3 -3 H 169.5 75 Z"
     id="path18223" />
  <path
     style="stroke-width:0.1"
     d="m 450,569 v 3 h 94.5 94.5 v -3 -3 H 544.5 450 Z"
     id="path18225" />
  <path
     style="stroke-width:0.1"
     d="m 831,569 v 3 h 94 94 v -3 -3 h -94 -94 z"
     id="path18227" />
  <path
     style="stroke-width:0.1"
     d="m 90.3,624 c -4.7,1.9 -5.6,7.8 -1.8,11.5 4.2,4.3 10.6,2.3 12.1,-3.7 0.5,-2.2 0,-3.3 -2.4,-5.8 -3.2,-3.1 -4.3,-3.4 -7.9,-2 z"
     id="path18229" />
  <path
     style="stroke-width:0.1"
     d="m 140.3,624 c -4.8,1.9 -5.8,8.7 -1.7,11.9 3.4,2.7 6.4,2.7 9.2,0.1 5.7,-5.3 -0.3,-14.9 -7.5,-12 z"
     id="path18231" />
  <path
     style="stroke-width:0.1"
     d="m 187.3,624.2 c -8.1,3.9 -2,16.7 6.2,13 5.5,-2.5 5.8,-10 0.5,-12.7 -3.3,-1.7 -3.7,-1.7 -6.7,-0.3 z"
     id="path18233" />
  <path
     style="stroke-width:0.1"
     d="m 470.3,624.2 c -1.2,0.6 -2.7,2.4 -3.4,4 -3.4,8.3 8.6,13.6 13,5.7 1.9,-3.3 0.1,-8.1 -3.5,-9.8 -2.9,-1.3 -3.2,-1.3 -6.1,0.1 z"
     id="path18235" />
  <path
     style="stroke-width:0.1"
     d="m 520,624.3 c -1.3,0.7 -2.9,2.5 -3.4,3.9 -2.9,8.3 9.4,13.7 12.8,5.6 1.7,-3.9 1.1,-6.3 -2.2,-8.8 -2.9,-2.3 -3.8,-2.4 -7.2,-0.7 z"
     id="path18237" />
  <path
     style="stroke-width:0.1"
     d="m 568,624.3 c -7,3.5 -4.8,13.7 3,13.7 2.8,0 7,-4.4 7,-7.3 0,-5.1 -5.5,-8.6 -10,-6.4 z"
     id="path18239" />
  <path
     style="stroke-width:0.1"
     d="m 841.3,624 c -4.8,1.9 -5.8,8.7 -1.7,11.9 5.3,4.1 11.4,1.3 11.4,-5.2 0,-5.1 -5,-8.6 -9.7,-6.7 z"
     id="path18241" />
  <path
     style="stroke-width:0.1"
     d="m 892,623.7 c -5.3,1.9 -6.8,8.6 -2.8,12.3 6.3,5.8 15.7,-3.3 10.1,-9.8 -2,-2.3 -5,-3.3 -7.3,-2.5 z"
     id="path18243" />
  <path
     style="stroke-width:0.1"
     d="m 941.7,625.2 c -3.7,3.3 -4,7.5 -0.7,10.8 2.7,2.7 6.6,2.5 9.5,-0.5 2.9,-2.8 3.2,-6.5 0.8,-9.3 -2.8,-3.3 -6.6,-3.7 -9.6,-1 z"
     id="path18245" />
  <path
     style="stroke-width:0.1"
     d="m 241,631 v 3 h 95 95 v -3 -3 h -95 -95 z"
     id="path18247" />
  <path
     style="stroke-width:0.1"
     d="m 616,631 v 3 h 95 95 v -3 -3 h -95 -95 z"
     id="path18249" />
  <path
     style="stroke-width:0.1"
     d="M 431,679.5 V 692 h 3.5 3.5 V 679.5 667 h -3.5 -3.5 z"
     id="path18251" />
  <path
     style="stroke-width:0.1"
     d="m 311,689.3 c -1.4,0.7 -3.1,2.4 -3.9,3.8 -1.2,2.2 -1.2,2.9 0,5.4 2.7,5.7 10.5,5.7 13.1,0 2.6,-5.7 -3.7,-11.9 -9.2,-9.2 z"
     id="path18253" />
  <path
     style="stroke-width:0.1"
     d="m 359.3,688.8 c -5.1,0.8 -7,8.3 -3,12 4.8,4.5 11.7,1.4 11.7,-5.1 0,-4.8 -3.8,-7.7 -8.7,-6.9 z"
     id="path18255" />
  <path
     style="stroke-width:0.1"
     d="m 642.3,688.8 c -5.1,0.8 -7,8.3 -3,12 4.8,4.5 11.7,1.4 11.7,-5.1 0,-4.8 -3.8,-7.7 -8.7,-6.9 z"
     id="path18257" />
  <path
     style="stroke-width:0.1"
     d="m 692,688.8 c -5.1,1.6 -6.8,8.4 -3,12.2 6,6 15.4,-2.6 10.5,-9.7 -1.5,-2.1 -5,-3.3 -7.5,-2.5 z"
     id="path18259" />
  <path
     style="stroke-width:0.1"
     d="m 738.2,689.5 c -5.9,2.5 -5.1,10.7 1.1,13 6.2,2.1 11.8,-5.2 8,-10.3 -2.6,-3.4 -5.3,-4.2 -9.1,-2.7 z"
     id="path18261" />
  <path
     style="stroke-width:0.1"
     d="m 1017.3,688.8 c -5.1,0.8 -7,8.3 -3,12 4.8,4.5 11.7,1.4 11.7,-5.1 0,-4.8 -3.8,-7.7 -8.7,-6.9 z"
     id="path18263" />
  <path
     style="stroke-width:0.1"
     d="m 1067,688.8 c -5.1,1.6 -6.8,8.4 -3,12.2 5.7,5.7 14.9,-1.8 11,-9 -1.1,-2 -5.8,-3.9 -8,-3.2 z"
     id="path18265" />
  <path
     style="stroke-width:0.1"
     d="m 258.7,690.8 c -2.3,2.5 -2.1,7.8 0.3,10.2 6.1,6.1 15.4,-2.7 10.4,-9.8 -2,-2.8 -8.3,-3.1 -10.7,-0.4 z"
     id="path18267" />
  <path
     style="stroke-width:0.1"
     d="m 33,696 v 3 h 94.5 94.5 v -3 -3 H 127.5 33 Z"
     id="path18269" />
  <path
     style="stroke-width:0.1"
     d="m 411,696 v 3 h 94.5 94.5 v -3 -3 H 505.5 411 Z"
     id="path18271" />
  <path
     style="stroke-width:0.1"
     d="m 789,696 v 3 h 94 94 v -3 -3 h -94 -94 z"
     id="path18273" />
  <path
     style="stroke-width:0.1"
     d="m 44,752 c -4.3,4.3 -1.1,12 5,12 3.8,0 7,-3.2 7,-7 0,-3.8 -3.2,-7 -7,-7 -1.7,0 -3.9,0.9 -5,2 z"
     id="path18275" />
  <path
     style="stroke-width:0.1"
     d="m 93.7,751.8 c -2.5,2.8 -2.2,8.7 0.5,10.6 7.3,5.1 16,-4.2 9.8,-10.4 -2.6,-2.6 -8.1,-2.6 -10.3,-0.2 z"
     id="path18277" />
  <path
     style="stroke-width:0.1"
     d="m 141,752.2 c -2.7,2.9 -2.5,6.9 0.3,9.6 4.6,4.3 12,1.5 12,-4.6 0,-6.6 -7.8,-9.8 -12.3,-5 z"
     id="path18279" />
  <path
     style="stroke-width:0.1"
     d="m 424,752.2 c -2.7,2.9 -2.5,6.9 0.3,9.6 4.6,4.3 12,1.5 12,-4.6 0,-6.6 -7.8,-9.8 -12.3,-5 z"
     id="path18281" />
  <path
     style="stroke-width:0.1"
     d="m 474,752 c -1.1,1.1 -2,3.3 -2,5 0,1.7 0.9,3.9 2,5 1.1,1.1 3.3,2 5,2 1.7,0 3.9,-0.9 5,-2 1.1,-1.1 2,-3.3 2,-5 0,-1.7 -0.9,-3.9 -2,-5 -1.1,-1.1 -3.3,-2 -5,-2 -1.7,0 -3.9,0.9 -5,2 z"
     id="path18283" />
  <path
     style="stroke-width:0.1"
     d="m 521.1,752.6 c -1.2,1.5 -2.1,3.4 -2.1,4.4 0,3.4 3.9,7 7.5,7 3.6,0 7.5,-3.6 7.5,-7 0,-3.4 -3.9,-7 -7.5,-7 -2.4,0 -3.9,0.7 -5.4,2.6 z"
     id="path18285" />
  <path
     style="stroke-width:0.1"
     d="m 795.2,751.6 c -2.9,2 -3,7.6 -0.2,10.4 4.3,4.3 12,1.1 12,-5 0,-5.9 -6.7,-9 -11.8,-5.4 z"
     id="path18287" />
  <path
     style="stroke-width:0.1"
     d="m 844,752.7 c -3.7,4.7 -0.4,11.3 5.6,11.3 3.5,0 7.4,-3.7 7.4,-7 0,-1 -0.9,-2.9 -2.1,-4.4 -2.9,-3.6 -8,-3.6 -10.9,0.1 z"
     id="path18289" />
  <path
     style="stroke-width:0.1"
     d="m 892,752 c -4.3,4.3 -1.1,12 5,12 4.1,0 7,-3.1 7,-7.4 0,-6 -7.7,-8.9 -12,-4.6 z"
     id="path18291" />
  <path
     style="stroke-width:0.1"
     d="m 197,756 v 3 h 94.5 94.5 v -3 -3 H 291.5 197 Z"
     id="path18293" />
  <path
     style="stroke-width:0.1"
     d="m 572,756 v 3 h 94.5 94.5 v -3 -3 H 666.5 572 Z"
     id="path18295" />
  <path
     style="stroke-width:0.1"
     d="m 252.1,817.6 c -1.2,1.5 -2.1,3.4 -2.1,4.4 0,3.4 3.9,7 7.5,7 6.5,0 9.3,-7.2 4.8,-12.3 -2.5,-2.7 -7.8,-2.2 -10.2,0.9 z"
     id="path18297" />
  <path
     style="stroke-width:0.1"
     d="m 302,817 c -4.5,4.5 -1.1,12 5.3,12 4.2,0 6.7,-2.6 6.7,-6.8 0,-4.1 -3.1,-7.2 -7,-7.2 -1.7,0 -3.9,0.9 -5,2 z"
     id="path18299" />
  <path
     style="stroke-width:0.1"
     d="m 350.2,816.7 c -5.2,4.4 -2.4,12.3 4.3,12.3 3.6,0 7.5,-3.6 7.5,-7 0,-1 -0.9,-2.9 -2.1,-4.4 -2.4,-3.1 -6.7,-3.5 -9.7,-0.9 z"
     id="path18301" />
  <path
     style="stroke-width:0.1"
     d="m 632.7,816.7 c -4.5,5.1 -1.7,12.3 4.8,12.3 3.6,0 7.5,-3.6 7.5,-7 0,-1 -0.9,-2.9 -2.1,-4.4 -2.4,-3.1 -7.7,-3.6 -10.2,-0.9 z"
     id="path18303" />
  <path
     style="stroke-width:0.1"
     d="m 682.1,817.6 c -2.7,3.4 -2.7,6.4 -0.1,9.2 4.5,4.8 12.3,1.6 12.3,-5 0,-6.4 -8.3,-9.2 -12.2,-4.2 z"
     id="path18305" />
  <path
     style="stroke-width:0.1"
     d="m 730.2,816.6 c -2.8,2 -3.1,8.3 -0.4,10.7 4.4,4 12.2,0.7 12.2,-5.1 0,-5.9 -6.7,-9.2 -11.8,-5.6 z"
     id="path18307" />
  <path
     style="stroke-width:0.1"
     d="m 1007.1,817.6 c -1.2,1.5 -2.1,3.4 -2.1,4.4 0,3.4 3.9,7 7.5,7 3.6,0 7.5,-3.6 7.5,-7 0,-3.4 -3.9,-7 -7.5,-7 -2.4,0 -3.9,0.7 -5.4,2.6 z"
     id="path18309" />
  <path
     style="stroke-width:0.1"
     d="m 1057.2,817.3 c -4.4,4.7 -1.3,11.7 5.2,11.7 4.1,0 6.9,-2.9 6.9,-7.2 0,-6.1 -7.8,-9.1 -12.1,-4.5 z"
     id="path18311" />
  <path
     style="stroke-width:0.1"
     d="m 1105.2,816.6 c -2.8,2 -3.1,8.3 -0.4,10.7 2.5,2.3 7.8,2.1 10.2,-0.3 6.1,-6.1 -2.7,-15.4 -9.8,-10.4 z"
     id="path18313" />
  <path
     style="stroke-width:0.1"
     d="m 28,821 v 3 h 94.5 94.5 v -3 -3 H 122.5 28 Z"
     id="path18315" />
  <path
     style="stroke-width:0.1"
     d="m 403,821 v 3 h 94.5 94.5 v -3 -3 H 497.5 403 Z"
     id="path18317" />
  <path
     style="stroke-width:0.1"
     d="m 781,821 v 3 h 94.5 94.5 v -3 -3 H 875.5 781 Z"
     id="path18319" />
  <path
     style="stroke-width:0.1"
     d="m 262.7,854.7 c -0.4,0.3 -0.7,6.2 -0.7,13 V 880 h 3 3 v -13 c 0,-13 0,-13 -2.3,-13 -1.3,0 -2.7,0.3 -3,0.7 z"
     id="path18321" />
  <path
     style="stroke-width:0.1"
     d="m 637,867 v 13 h 3 3 v -13 -13 h -3 -3 z"
     id="path18323" />
  <path
     style="stroke-width:0.1"
     d="m 1015,867 v 13 h 3 3 v -13 -13 h -3 -3 z"
     id="path18325" />
  <path
     style="stroke-width:0.1"
     d="m 91.3,878.2 c -6.8,3.3 -3.9,13.8 3.8,13.8 2.8,0 6.9,-4.4 6.9,-7.3 0,-5.1 -6.1,-8.8 -10.7,-6.5 z"
     id="path18327" />
  <path
     style="stroke-width:0.1"
     d="m 141,878.3 c -5.2,2.6 -4.9,10.4 0.4,12.8 3.6,1.7 7.3,0.3 9.2,-3.2 1.9,-3.8 0.6,-8 -3.2,-9.8 -3.1,-1.4 -3.3,-1.4 -6.4,0.2 z"
     id="path18329" />
  <path
     style="stroke-width:0.1"
     d="m 187.6,879.1 c -1.9,1.5 -2.6,3 -2.6,5.4 0,3.6 3.6,7.5 7,7.5 1,0 2.9,-0.9 4.4,-2.1 3.4,-2.7 3.5,-7.1 0.1,-10.4 -3,-3 -5.4,-3.1 -8.9,-0.4 z"
     id="path18331" />
  <path
     style="stroke-width:0.1"
     d="m 470.6,879.1 c -2.6,2 -3.6,6.9 -1.8,9.5 1,1.5 4.7,3.4 6.7,3.4 2.5,0 6.5,-4.6 6.5,-7.5 0,-3 -4.1,-7.5 -6.8,-7.5 -1.1,0 -3.1,0.9 -4.6,2.1 z"
     id="path18333" />
  <path
     style="stroke-width:0.1"
     d="m 521.3,878.2 c -6.8,3.3 -4,13.8 3.7,13.8 2.8,0 7,-4.4 7,-7.3 0,-5.1 -6.1,-8.8 -10.7,-6.5 z"
     id="path18335" />
  <path
     style="stroke-width:0.1"
     d="m 567.6,879.1 c -1.9,1.5 -2.6,3 -2.6,5.4 0,3.6 3.6,7.5 7,7.5 3.4,0 7,-3.9 7,-7.5 0,-3.6 -3.6,-7.5 -7,-7.5 -1,0 -2.9,0.9 -4.4,2.1 z"
     id="path18337" />
  <path
     style="stroke-width:0.1"
     d="m 842,878.3 c -3.4,1.7 -4.8,6.9 -2.6,10.2 3.2,4.9 10.6,4.2 12.7,-1.2 1.3,-3.5 -0.4,-7.6 -3.7,-9.2 -3.1,-1.4 -3.3,-1.4 -6.4,0.2 z"
     id="path18339" />
  <path
     style="stroke-width:0.1"
     d="m 890.5,879.5 c -3.2,3.1 -3.2,6.9 0,10 2.7,2.8 4.5,3.1 7.8,1.4 3,-1.6 3.7,-2.8 3.7,-6.6 0,-2.2 -0.8,-3.8 -2.6,-5.2 -3.5,-2.7 -5.9,-2.6 -8.9,0.4 z"
     id="path18341" />
  <path
     style="stroke-width:0.1"
     d="m 942.6,879.1 c -1.9,1.5 -2.6,3 -2.6,5.4 0,3.6 3.6,7.5 7,7.5 3.4,0 7,-3.9 7,-7.5 0,-3.6 -3.6,-7.5 -7,-7.5 -1,0 -2.9,0.9 -4.4,2.1 z"
     id="path18343" />
  <path
     style="stroke-width:0.1"
     d="m 241,884 v 3 h 95 95 v -3 -3 h -95 -95 z"
     id="path18345" />
  <path
     style="stroke-width:0.1"
     d="m 616,884 v 3 h 95 95 v -3 -3 h -95 -95 z"
     id="path18347" />
</svg>
