<?xml version="1.0" encoding="UTF-8" standalone="no"?>
<svg
   xmlns:dc="http://purl.org/dc/elements/1.1/"
   xmlns:cc="http://creativecommons.org/ns#"
   xmlns:rdf="http://www.w3.org/1999/02/22-rdf-syntax-ns#"
   xmlns:svg="http://www.w3.org/2000/svg"
   xmlns="http://www.w3.org/2000/svg"
   xmlns:sodipodi="http://sodipodi.sourceforge.net/DTD/sodipodi-0.dtd"
   xmlns:inkscape="http://www.inkscape.org/namespaces/inkscape"
   inkscape:version="1.0 (4035a4fb49, 2020-05-01)"
   sodipodi:docname="USGS_619_colour_nobox.svg"
   id="svg19838"
   preserveAspectRatio="xMidYMid meet"
   viewBox="0 0 1125.000000 900.000000"
   height="900.000000pt"
   width="1125.000000pt"
   version="1.0">
  <defs
     id="defs19842" />
  <sodipodi:namedview
     inkscape:current-layer="svg19838"
     inkscape:window-maximized="1"
     inkscape:window-y="-8"
     inkscape:window-x="1912"
     inkscape:cy="600"
     inkscape:cx="750"
     inkscape:zoom="0.68916667"
     showgrid="false"
     id="namedview19840"
     inkscape:window-height="1017"
     inkscape:window-width="1920"
     inkscape:pageshadow="2"
     inkscape:pageopacity="0"
     guidetolerance="10"
     gridtolerance="10"
     objecttolerance="10"
     borderopacity="1"
     bordercolor="#666666"
     pagecolor="#ffffff" />
  <metadata
     id="metadata19516">
Created by potrace 1.13, written by Peter Selinger 2001-2015
<rdf:RDF>
  <cc:Work
     rdf:about="">
    <dc:format>image/svg+xml</dc:format>
    <dc:type
       rdf:resource="http://purl.org/dc/dcmitype/StillImage" />
    <dc:title></dc:title>
  </cc:Work>
</rdf:RDF>
</metadata>
  <path
     style="stroke-width:0.1"
     d="m 38,48 c -4.3,4.3 -1.1,12 5,12 3.8,0 7,-3.2 7,-7 0,-3.8 -3.2,-7 -7,-7 -1.7,0 -3.9,0.9 -5,2 z"
     id="path19520" />
  <path
     style="stroke-width:0.1"
     d="m 223.1,48.6 c -1.2,1.5 -2.1,3.4 -2.1,4.4 0,3.4 3.9,7 7.5,7 3.6,0 7.5,-3.6 7.5,-7 0,-3.4 -3.9,-7 -7.5,-7 -2.4,0 -3.9,0.7 -5.4,2.6 z"
     id="path19522" />
  <path
     style="stroke-width:0.1"
     d="m 410.7,47.7 c -4.5,5.1 -1.7,12.3 4.8,12.3 3.6,0 7.5,-3.6 7.5,-7 0,-1 -0.9,-2.9 -2.1,-4.4 -2.4,-3.1 -7.7,-3.6 -10.2,-0.9 z"
     id="path19524" />
  <path
     style="stroke-width:0.1"
     d="m 596.1,48.6 c -1.2,1.5 -2.1,3.4 -2.1,4.4 0,3.4 3.9,7 7.5,7 3.6,0 7.5,-3.6 7.5,-7 0,-3.4 -3.9,-7 -7.5,-7 -2.4,0 -3.9,0.7 -5.4,2.6 z"
     id="path19526" />
  <path
     style="stroke-width:0.1"
     d="m 782.5,48 c -4.1,4.5 -1,12 5,12 3.8,0 7.5,-3.5 7.5,-7.1 0,-5.8 -8.7,-9.1 -12.5,-4.9 z"
     id="path19528" />
  <path
     style="stroke-width:0.1"
     d="m 968.2,47.6 c -1.6,1.1 -2.2,2.5 -2.2,5.4 0,2.9 0.6,4.3 2.2,5.4 5.1,3.6 11.8,0.5 11.8,-5.4 0,-5.9 -6.7,-9 -11.8,-5.4 z"
     id="path19530" />
  <path
     style="stroke-width:0.1"
     d="M 77,51.5 V 55 H 136.5 196 V 51.5 48 H 136.5 77 Z"
     id="path19532" />
  <path
     style="stroke-width:0.1"
     d="m 264.4,49.4 c -0.3,0.8 -0.4,2.3 -0.2,3.3 0.3,1.7 3.3,1.8 60.1,2.1 L 384,55 V 51.5 48 h -59.5 c -51,0 -59.6,0.2 -60.1,1.4 z"
     id="path19534" />
  <path
     style="stroke-width:0.1"
     d="M 450,51.5 V 55 l 59.8,-0.2 59.7,-0.3 v -3 -3 L 509.8,48.2 450,48 Z"
     id="path19536" />
  <path
     style="stroke-width:0.1"
     d="M 636,51.5 V 55 H 695.5 755 V 51.5 48 H 695.5 636 Z"
     id="path19538" />
  <path
     style="stroke-width:0.1"
     d="m 821.4,49.4 c -0.3,0.8 -0.4,2.3 -0.2,3.3 0.3,1.7 3.3,1.8 60.1,2.1 L 941,55 V 51.5 48 h -59.5 c -51,0 -59.6,0.2 -60.1,1.4 z"
     id="path19540" />
  <path
     style="stroke-width:0.1"
     d="m 127.6,105.1 c -1.9,1.5 -2.6,3 -2.6,5.4 0,3.6 3.6,7.5 7,7.5 3.4,0 7,-3.9 7,-7.5 0,-3.6 -3.6,-7.5 -7,-7.5 -1,0 -2.9,0.9 -4.4,2.1 z"
     id="path19542" />
  <path
     style="stroke-width:0.1"
     d="m 314.3,104.2 c -2.7,1.3 -4.3,5.5 -3.2,8.4 0.9,2.6 4.7,5.4 7.2,5.4 2.6,0 6.7,-4.5 6.7,-7.5 0,-3 -4.1,-7.5 -6.7,-7.4 -1,0 -2.8,0.5 -4,1.1 z"
     id="path19544" />
  <path
     style="stroke-width:0.1"
     d="m 501.5,104.2 c -2.8,1.6 -3.5,2.8 -3.5,6.5 0,3.5 3.7,7.3 7.2,7.3 2.7,0 6.8,-4.5 6.8,-7.5 0,-3 -4.1,-7.5 -6.7,-7.5 -1,0 -2.7,0.6 -3.8,1.2 z"
     id="path19546" />
  <path
     style="stroke-width:0.1"
     d="m 685.9,104.9 c -2.8,2.3 -3.2,8.3 -0.6,10.8 2.5,2.6 8.5,2.2 10.8,-0.6 2.6,-3.2 2.4,-6.7 -0.6,-9.6 -2.9,-3 -6.4,-3.2 -9.6,-0.6 z"
     id="path19548" />
  <path
     style="stroke-width:0.1"
     d="m 872.6,105.1 c -1.9,1.5 -2.6,3 -2.6,5.4 0,3.7 3.7,7.5 7.2,7.5 2.9,0 6.8,-4.5 6.8,-7.9 0,-3.2 -3.8,-7.1 -7,-7.1 -1,0 -2.9,0.9 -4.4,2.1 z"
     id="path19550" />
  <path
     style="stroke-width:0.1"
     d="m 1057.6,105.1 c -1.9,1.5 -2.6,3 -2.6,5.4 0,3.6 3.6,7.5 7,7.5 3.4,0 7,-3.9 7,-7.5 0,-3.6 -3.6,-7.5 -7,-7.5 -1,0 -2.9,0.9 -4.4,2.1 z"
     id="path19552" />
  <path
     style="stroke-width:0.1"
     d="m 163,109 v 3 h 60.5 60.5 v -3 -3 H 223.5 163 Z"
     id="path19554" />
  <path
     style="stroke-width:0.1"
     d="m 350,109 v 3 h 60 60 v -3 -3 h -60 -60 z"
     id="path19556" />
  <path
     style="stroke-width:0.1"
     d="m 536,109 v 3 h 60 60 v -3 -3 h -60 -60 z"
     id="path19558" />
  <path
     style="stroke-width:0.1"
     d="m 722,109 v 3 h 60 60 v -3 -3 h -60 -60 z"
     id="path19560" />
  <path
     style="stroke-width:0.1"
     d="m 908,109 v 3 h 59.5 59.5 v -3 -3 H 967.5 908 Z"
     id="path19562" />
  <path
     style="stroke-width:0.1"
     d="m 29.5,169.5 c -1.4,1.3 -2.5,3.6 -2.5,5 0,2.9 4,7.5 6.5,7.5 2,0 5.7,-1.9 6.7,-3.4 1.8,-2.6 0.8,-7.5 -1.8,-9.5 -3.5,-2.7 -5.9,-2.6 -8.9,0.4 z"
     id="path19564" />
  <path
     style="stroke-width:0.1"
     d="m 215.6,169.1 c -1.9,1.5 -2.6,3 -2.6,5.4 0,3.6 3.6,7.5 7,7.5 3.4,0 7,-3.9 7,-7.5 0,-3.6 -3.6,-7.5 -7,-7.5 -1,0 -2.9,0.9 -4.4,2.1 z"
     id="path19566" />
  <path
     style="stroke-width:0.1"
     d="m 402.6,169.1 c -3.6,2.8 -3.6,8 0,10.8 1.5,1.2 3.4,2.1 4.4,2.1 3.4,0 7,-3.9 7,-7.5 0,-3.6 -3.6,-7.5 -7,-7.5 -1,0 -2.9,0.9 -4.4,2.1 z"
     id="path19568" />
  <path
     style="stroke-width:0.1"
     d="m 589.4,168.2 c -6.9,3.3 -3.7,13.8 4.2,13.8 2.4,0 6.4,-4.7 6.4,-7.5 0,-3 -4.1,-7.5 -6.7,-7.4 -1,0 -2.8,0.5 -3.9,1.1 z"
     id="path19570" />
  <path
     style="stroke-width:0.1"
     d="m 774.6,169.1 c -1.9,1.5 -2.6,3 -2.6,5.4 0,3.6 3.6,7.5 7,7.5 3.4,0 7,-3.9 7,-7.5 0,-3.6 -3.6,-7.5 -7,-7.5 -1,0 -2.9,0.9 -4.4,2.1 z"
     id="path19572" />
  <path
     style="stroke-width:0.1"
     d="m 959.5,169.5 c -1.4,1.3 -2.5,3.6 -2.5,5 0,3 4.1,7.5 6.8,7.5 3.5,0 7.2,-3.8 7.2,-7.5 0,-2.4 -0.7,-3.9 -2.6,-5.4 -3.5,-2.7 -5.9,-2.6 -8.9,0.4 z"
     id="path19574" />
  <path
     style="stroke-width:0.1"
     d="m 67,174 v 3 h 59.5 59.5 v -3 -3 H 126.5 67 Z"
     id="path19576" />
  <path
     style="stroke-width:0.1"
     d="m 254,174 v 3 h 60 60 v -3 -3 h -60 -60 z"
     id="path19578" />
  <path
     style="stroke-width:0.1"
     d="m 440,174 v 3 h 60.1 60 l -0.3,-2.8 -0.3,-2.7 -59.7,-0.3 L 440,171 Z"
     id="path19580" />
  <path
     style="stroke-width:0.1"
     d="m 626,174 v 3 h 59.5 59.5 v -3 -3 H 685.5 626 Z"
     id="path19582" />
  <path
     style="stroke-width:0.1"
     d="m 811.7,171.7 c -0.4,0.3 -0.7,1.7 -0.7,3 v 2.3 h 60 60 v -3 -3 h -59.3 c -32.7,0 -59.7,0.3 -60,0.7 z"
     id="path19584" />
  <path
     style="stroke-width:0.1"
     d="m 997,174 v 3 h 60 60 v -3 -3 h -60 -60 z"
     id="path19586" />
  <path
     style="stroke-width:0.1"
     d="m 91,232 c -4.2,4.2 -1.2,12 4.8,12 4.6,0 7.2,-2.5 7.2,-7 0,-2.9 -0.6,-4.3 -2.2,-5.4 -3.1,-2.2 -7.4,-2 -9.8,0.4 z"
     id="path19588" />
  <path
     style="stroke-width:0.1"
     d="m 277,232 c -2.8,2.8 -2.7,8.4 0.2,10.4 5.1,3.6 11.8,0.5 11.8,-5.4 0,-3.8 -3.2,-7 -7,-7 -1.7,0 -3.9,0.9 -5,2 z"
     id="path19590" />
  <path
     style="stroke-width:0.1"
     d="m 464,232 c -2.8,2.8 -2.7,8.4 0.2,10.4 5.1,3.6 11.8,0.5 11.8,-5.4 0,-3.8 -3.2,-7 -7,-7 -1.7,0 -3.9,0.9 -5,2 z"
     id="path19592" />
  <path
     style="stroke-width:0.1"
     d="m 649.5,232 c -4.2,4.6 -1,12 5.1,12 3.5,0 7.4,-3.7 7.4,-7 0,-1 -0.9,-2.9 -2.1,-4.4 -2.6,-3.3 -7.7,-3.6 -10.4,-0.6 z"
     id="path19594" />
  <path
     style="stroke-width:0.1"
     d="m 836,232 c -1.1,1.1 -2,3.3 -2,5 0,1.7 0.9,3.9 2,5 1.1,1.1 3.3,2 5,2 1.7,0 3.9,-0.9 5,-2 1.1,-1.1 2,-3.3 2,-5 0,-1.7 -0.9,-3.9 -2,-5 -1.1,-1.1 -3.3,-2 -5,-2 -1.7,0 -3.9,0.9 -5,2 z"
     id="path19596" />
  <path
     style="stroke-width:0.1"
     d="m 1021,232 c -1.1,1.1 -2,3.3 -2,5 0,1.7 0.9,3.9 2,5 4.3,4.3 12,1.1 12,-5 0,-3.8 -3.2,-7 -7,-7 -1.7,0 -3.9,0.9 -5,2 z"
     id="path19598" />
  <path
     style="stroke-width:0.1"
     d="m 126,236 v 3 h 60.5 60.5 v -3 -3 H 186.5 126 Z"
     id="path19600" />
  <path
     style="stroke-width:0.1"
     d="m 314,236 v 3 h 60.1 60 l -0.3,-2.8 -0.3,-2.7 -59.7,-0.3 L 314,233 Z"
     id="path19602" />
  <path
     style="stroke-width:0.1"
     d="m 500,236 v 3 h 59.5 59.5 v -3 -3 H 559.5 500 Z"
     id="path19604" />
  <path
     style="stroke-width:0.1"
     d="m 685.7,233.7 c -0.4,0.3 -0.7,1.7 -0.7,3 v 2.3 h 60 60 v -3 -3 h -59.3 c -32.7,0 -59.7,0.3 -60,0.7 z"
     id="path19606" />
  <path
     style="stroke-width:0.1"
     d="m 871,236 v 3 h 60 60 v -3 -3 h -60 -60 z"
     id="path19608" />
  <path
     style="stroke-width:0.1"
     d="m 15.1,291.6 c -2.7,3.5 -2.7,6.5 0.2,9.2 4.8,4.6 12,1.6 12,-5 0,-6.4 -8.3,-9.2 -12.2,-4.2 z"
     id="path19610" />
  <path
     style="stroke-width:0.1"
     d="m 201,291 c -4.3,4.3 -1.1,12 5,12 3.8,0 7,-3.2 7,-7 0,-3.8 -3.2,-7 -7,-7 -1.7,0 -3.9,0.9 -5,2 z"
     id="path19612" />
  <path
     style="stroke-width:0.1"
     d="m 388,291 c -4.3,4.3 -1.1,12 5,12 3.8,0 7,-3.2 7,-7 0,-3.8 -3.2,-7 -7,-7 -1.7,0 -3.9,0.9 -5,2 z"
     id="path19614" />
  <path
     style="stroke-width:0.1"
     d="m 574.2,290.6 c -2.8,2 -3.1,8.3 -0.4,10.7 2.5,2.3 7.8,2.1 10.2,-0.3 6.1,-6.1 -2.7,-15.4 -9.8,-10.4 z"
     id="path19616" />
  <path
     style="stroke-width:0.1"
     d="m 760,291 c -4.5,4.5 -1.1,12 5.3,12 4.2,0 6.7,-2.6 6.7,-6.8 0,-4.1 -3.1,-7.2 -7,-7.2 -1.7,0 -3.9,0.9 -5,2 z"
     id="path19618" />
  <path
     style="stroke-width:0.1"
     d="m 945.2,291.3 c -4.5,4.8 -1.4,11.7 5.1,11.7 4.2,0 7,-2.9 7,-7.2 0,-6.1 -7.8,-9.1 -12.1,-4.5 z"
     id="path19620" />
  <path
     style="stroke-width:0.1"
     d="m 50,295 v 3 h 60 60 v -3 -3 H 110 50 Z"
     id="path19622" />
  <path
     style="stroke-width:0.1"
     d="m 238,295 v 3 h 59.5 59.5 v -3 -3 H 297.5 238 Z"
     id="path19624" />
  <path
     style="stroke-width:0.1"
     d="m 423,295 v 3 h 60 60 v -3 -3 h -60 -60 z"
     id="path19626" />
  <path
     style="stroke-width:0.1"
     d="m 609,295 v 3 h 60 60 v -3 -3 h -60 -60 z"
     id="path19628" />
  <path
     style="stroke-width:0.1"
     d="m 795,295 v 3 l 59.8,-0.2 59.7,-0.3 0.3,-2.8 0.3,-2.7 h -60 -60.1 z"
     id="path19630" />
  <path
     style="stroke-width:0.1"
     d="m 981,295 v 3 h 59.5 59.5 v -3 -3 H 1040.5 981 Z"
     id="path19632" />
  <path
     style="stroke-width:0.1"
     d="m 82.1,352.6 c -1.2,1.5 -2.1,3.5 -2.1,4.6 0,2.7 4.5,6.8 7.5,6.8 3,0 7.5,-4.1 7.5,-6.8 0,-3.5 -3.8,-7.2 -7.5,-7.2 -2.4,0 -3.9,0.7 -5.4,2.6 z"
     id="path19634" />
  <path
     style="stroke-width:0.1"
     d="m 268,352 c -4.2,4.2 -0.8,12 5.3,12 5.8,0 9.1,-8.5 4.9,-12.3 -2.5,-2.3 -7.8,-2.1 -10.2,0.3 z"
     id="path19636" />
  <path
     style="stroke-width:0.1"
     d="m 455,352 c -4.2,4.2 -0.8,12 5.3,12 5.8,0 9.1,-8.5 4.9,-12.3 -2.5,-2.3 -7.8,-2.1 -10.2,0.3 z"
     id="path19638" />
  <path
     style="stroke-width:0.1"
     d="m 640.7,351.8 c -4,4.5 -0.6,12.2 5.3,12.2 5.9,0 9,-6.7 5.4,-11.8 -2,-2.8 -8.3,-3.1 -10.7,-0.4 z"
     id="path19640" />
  <path
     style="stroke-width:0.1"
     d="m 827,352 c -2.6,2.6 -2.5,6 0.1,9.4 2.5,3.1 6.6,3.5 10,0.8 2.8,-2.3 3,-7.3 0.4,-10.2 -2.4,-2.6 -7.9,-2.6 -10.5,0 z"
     id="path19642" />
  <path
     style="stroke-width:0.1"
     d="m 1012.6,351.5 c -5.9,5.9 1,15.5 8.3,11.4 6.2,-3.5 4.1,-12.1 -3.1,-12.7 -2.3,-0.2 -4.1,0.3 -5.2,1.3 z"
     id="path19644" />
  <path
     style="stroke-width:0.1"
     d="m 120,356.5 v 3.5 h 60 60 v -3.5 -3.5 h -60 -60 z"
     id="path19646" />
  <path
     style="stroke-width:0.1"
     d="m 307.4,354.4 c -0.3,0.8 -0.4,2.3 -0.2,3.3 0.3,1.7 3.3,1.8 60.1,2.1 l 59.8,0.2 -0.3,-3.2 -0.3,-3.3 -59.3,-0.3 c -51,-0.2 -59.3,0 -59.8,1.2 z"
     id="path19648" />
  <path
     style="stroke-width:0.1"
     d="m 493,356.5 v 3.5 l 59.8,-0.2 59.7,-0.3 v -3 -3 L 552.8,353.2 493,353 Z"
     id="path19650" />
  <path
     style="stroke-width:0.1"
     d="M 679,356.5 V 360 H 738.5 798 V 356.5 353 H 738.5 679 Z"
     id="path19652" />
  <path
     style="stroke-width:0.1"
     d="M 865,356.5 V 360 H 924.5 984 V 356.5 353 H 924.5 865 Z"
     id="path19654" />
  <path
     style="stroke-width:0.1"
     d="m 156.5,414.5 c -2.8,2.7 -3,4.2 -1.4,7.9 1.6,3.4 5.8,5.1 9.1,3.5 2.6,-1.1 4.8,-4.6 4.8,-7.5 0,-2.4 -4.7,-6.4 -7.5,-6.4 -1.4,0 -3.7,1.1 -5,2.5 z"
     id="path19656" />
  <path
     style="stroke-width:0.1"
     d="m 342.5,414.5 c -4.6,4.5 -1.9,11.8 4.3,11.8 4.3,0 7.2,-2.8 7.2,-7 0,-6.7 -6.8,-9.6 -11.5,-4.8 z"
     id="path19658" />
  <path
     style="stroke-width:0.1"
     d="m 529.5,414.5 c -4.6,4.5 -1.9,11.8 4.3,11.8 4.3,0 7.2,-2.8 7.2,-7 0,-6.7 -6.8,-9.6 -11.5,-4.8 z"
     id="path19660" />
  <path
     style="stroke-width:0.1"
     d="m 715.2,414.3 c -4.5,4.8 -1.6,12 4.8,12 6.5,0 9.5,-7.6 4.7,-12.1 -3,-2.8 -6.8,-2.8 -9.5,0.1 z"
     id="path19662" />
  <path
     style="stroke-width:0.1"
     d="m 901.5,414.5 c -4.6,4.6 -1.9,11.8 4.4,11.8 6.6,0 10.1,-8.4 5.2,-12.5 -3.2,-2.5 -6.7,-2.3 -9.6,0.7 z"
     id="path19664" />
  <path
     style="stroke-width:0.1"
     d="m 1086.5,414.5 c -3.9,3.9 -3.2,8.6 1.7,11.1 5.9,3 12.2,-2.7 9.9,-8.9 -1.9,-5.1 -7.7,-6.2 -11.6,-2.2 z"
     id="path19666" />
  <path
     style="stroke-width:0.1"
     d="m 7,419 v 3 h 60 60 v -3 -3 H 67 7 Z"
     id="path19668" />
  <path
     style="stroke-width:0.1"
     d="m 193,419 v 3 h 60.5 60.5 v -3 -3 H 253.5 193 Z"
     id="path19670" />
  <path
     style="stroke-width:0.1"
     d="m 380,419 v 3 h 60 60 v -3 -3 h -60 -60 z"
     id="path19672" />
  <path
     style="stroke-width:0.1"
     d="m 566,419 v 3 h 60 60 v -3 -3 h -60 -60 z"
     id="path19674" />
  <path
     style="stroke-width:0.1"
     d="m 752,419 v 3 h 59.5 59.5 v -3 -3 H 811.5 752 Z"
     id="path19676" />
  <path
     style="stroke-width:0.1"
     d="m 937.4,417.5 c -0.4,0.8 -0.4,2.2 0,3 0.5,1.3 8.1,1.5 60.1,1.5 h 59.5 v -3 -3 h -59.5 c -52,0 -59.6,0.2 -60.1,1.5 z"
     id="path19678" />
  <path
     style="stroke-width:0.1"
     d="m 93.2,471.7 c -0.7,0.3 -1.9,1.8 -2.7,3.3 -4,7.7 7.1,14.7 12,7.7 4.2,-6 -2.4,-13.8 -9.3,-11 z"
     id="path19680" />
  <path
     style="stroke-width:0.1"
     d="m 277.5,473.5 c -3.9,3.9 -3.2,8.6 1.7,11.1 5.9,3 12.2,-2.7 9.9,-8.9 -1.9,-5.1 -7.7,-6.2 -11.6,-2.2 z"
     id="path19682" />
  <path
     style="stroke-width:0.1"
     d="m 464.5,473.5 c -3.9,3.9 -3.2,8.6 1.7,11.1 5.9,3 12.2,-2.7 9.9,-8.9 -1.9,-5.1 -7.7,-6.2 -11.6,-2.2 z"
     id="path19684" />
  <path
     style="stroke-width:0.1"
     d="m 650.5,473.5 c -2.9,2.8 -3.2,6.5 -0.7,9.3 4.3,5.2 12.2,2.4 12.2,-4.4 0,-6.8 -6.8,-9.7 -11.5,-4.9 z"
     id="path19686" />
  <path
     style="stroke-width:0.1"
     d="m 836.5,473.5 c -2.8,2.7 -3,4.2 -1.4,7.9 1.6,3.4 5.8,5.1 9.1,3.5 2.6,-1.1 4.8,-4.6 4.8,-7.5 0,-2.4 -4.7,-6.4 -7.5,-6.4 -1.4,0 -3.7,1.1 -5,2.5 z"
     id="path19688" />
  <path
     style="stroke-width:0.1"
     d="m 1022.2,472.7 c -1.2,1 -2.4,3 -2.8,4.5 -0.5,2.2 0,3.4 2.5,5.9 2.5,2.5 3.7,3 5.9,2.5 6,-1.5 8,-7.9 3.7,-12.1 -2.8,-2.9 -6.5,-3.2 -9.3,-0.8 z"
     id="path19690" />
  <path
     style="stroke-width:0.1"
     d="m 130,479 v 3 h 60 60 v -3 -3 h -60 -60 z"
     id="path19692" />
  <path
     style="stroke-width:0.1"
     d="m 317,479 v 3 h 60 60 v -3 -3 h -60 -60 z"
     id="path19694" />
  <path
     style="stroke-width:0.1"
     d="m 503,479 v 3 h 60 60 v -3 -3 h -60 -60 z"
     id="path19696" />
  <path
     style="stroke-width:0.1"
     d="m 689,479 v 3 h 59.5 59.5 v -3 -3 H 748.5 689 Z"
     id="path19698" />
  <path
     style="stroke-width:0.1"
     d="m 874.7,476.7 c -0.4,0.3 -0.7,1.7 -0.7,3 v 2.3 h 60 60 v -3 -3 h -59.3 c -32.7,0 -59.7,0.3 -60,0.7 z"
     id="path19700" />
  <path
     style="stroke-width:0.1"
     d="m 187.5,539.5 c -4.6,4.5 -1.9,11.8 4.3,11.8 4.7,0 6.2,-1.8 6.2,-7.4 0,-3.8 -0.4,-5.1 -1.9,-5.9 -3.2,-1.6 -6,-1.2 -8.6,1.5 z"
     id="path19702" />
  <path
     style="stroke-width:0.1"
     d="m 373.2,539.3 c -4.5,4.8 -1.6,12 4.8,12 6.5,0 9.5,-7.6 4.7,-12.1 -3,-2.8 -6.8,-2.8 -9.5,0.1 z"
     id="path19704" />
  <path
     style="stroke-width:0.1"
     d="m 560.2,539.3 c -4.5,4.8 -1.6,12 4.8,12 6.5,0 9.5,-7.6 4.7,-12.1 -3,-2.8 -6.8,-2.8 -9.5,0.1 z"
     id="path19706" />
  <path
     style="stroke-width:0.1"
     d="m 746,539 c -4.7,4.7 -1.5,12.3 5.1,12.3 6.3,0 9,-7.2 4.4,-11.8 -2.9,-3 -6.8,-3.2 -9.5,-0.5 z"
     id="path19708" />
  <path
     style="stroke-width:0.1"
     d="m 932.6,539.1 c -5,3.9 -2.2,12.2 4.2,12.2 6.6,0 9.8,-7.8 5,-12.3 -2.8,-2.6 -5.8,-2.6 -9.2,0.1 z"
     id="path19710" />
  <path
     style="stroke-width:0.1"
     d="m 37,546 v 3 H 96.5 156 v -3 -3 H 96.5 37 Z"
     id="path19712" />
  <path
     style="stroke-width:0.1"
     d="m 224,546 v 3 h 60 60 v -3 -3 h -60 -60 z"
     id="path19714" />
  <path
     style="stroke-width:0.1"
     d="m 410,546 v 3 h 60 60 v -3 -3 h -60 -60 z"
     id="path19716" />
  <path
     style="stroke-width:0.1"
     d="m 596,546 v 3 l 59.8,-0.2 59.7,-0.3 0.3,-2.8 0.3,-2.7 h -60 -60.1 z"
     id="path19718" />
  <path
     style="stroke-width:0.1"
     d="m 782,546 v 3 h 59.5 59.5 v -3 -3 H 841.5 782 Z"
     id="path19720" />
  <path
     style="stroke-width:0.1"
     d="m 967,546 v 3 h 60 60 v -3 -3 h -60 -60 z"
     id="path19722" />
  <path
     style="stroke-width:0.1"
     d="m 120,602.3 c -5.2,2.6 -4.9,10.4 0.5,12.9 5.8,2.6 11.9,-3.3 9.5,-9.1 -0.6,-1.6 -2.3,-3.3 -3.6,-4 -3.1,-1.4 -3.3,-1.4 -6.4,0.2 z"
     id="path19724" />
  <path
     style="stroke-width:0.1"
     d="m 304.5,603.5 c -3.4,3.3 -3.3,7.7 0.1,10.4 1.5,1.2 3.4,2.1 4.4,2.1 1,0 2.9,-0.9 4.4,-2.1 3.6,-2.8 3.6,-8 0,-10.8 -3.5,-2.7 -5.9,-2.6 -8.9,0.4 z"
     id="path19726" />
  <path
     style="stroke-width:0.1"
     d="m 491.5,603.5 c -3.4,3.3 -3.3,7.7 0.1,10.4 1.5,1.2 3.4,2.1 4.4,2.1 1,0 2.9,-0.9 4.4,-2.1 3.6,-2.8 3.6,-8 0,-10.8 -3.5,-2.7 -5.9,-2.6 -8.9,0.4 z"
     id="path19728" />
  <path
     style="stroke-width:0.1"
     d="m 677.6,603.1 c -1.9,1.5 -2.6,3 -2.6,5.4 0,3.6 3.6,7.5 7,7.5 1,0 2.9,-0.9 4.4,-2.1 3.4,-2.7 3.5,-7.1 0.1,-10.4 -3,-3 -5.4,-3.1 -8.9,-0.4 z"
     id="path19730" />
  <path
     style="stroke-width:0.1"
     d="m 863.5,603.5 c -1.4,1.3 -2.5,3.6 -2.5,5 0,2.9 4,7.5 6.5,7.5 2,0 5.7,-1.9 6.7,-3.4 1.8,-2.6 0.8,-7.5 -1.8,-9.5 -3.5,-2.7 -5.9,-2.6 -8.9,0.4 z"
     id="path19732" />
  <path
     style="stroke-width:0.1"
     d="m 1050,602.3 c -5.2,2.6 -4.9,10.4 0.4,12.8 3.6,1.7 7.3,0.3 9.2,-3.2 1.9,-3.8 0.6,-8 -3.2,-9.8 -3.1,-1.4 -3.3,-1.4 -6.4,0.2 z"
     id="path19734" />
  <path
     style="stroke-width:0.1"
     d="m 156,608 v 3 h 60.5 60.5 v -3 -3 H 216.5 156 Z"
     id="path19736" />
  <path
     style="stroke-width:0.1"
     d="m 344,608 v 3 h 59.5 59.5 v -3 -3 H 403.5 344 Z"
     id="path19738" />
  <path
     style="stroke-width:0.1"
     d="m 529.2,607.7 0.3,2.8 59.8,0.3 59.7,0.2 v -3 -3 h -60.1 -60 z"
     id="path19740" />
  <path
     style="stroke-width:0.1"
     d="m 715,608 v 3 h 60 60 v -3 -3 h -60 -60 z"
     id="path19742" />
  <path
     style="stroke-width:0.1"
     d="m 901,608 v 3 h 60 60 v -3 -3 h -60 -60 z"
     id="path19744" />
  <path
     style="stroke-width:0.1"
     d="m 24,669 c -4.3,4.3 -1.1,12 5,12 3.8,0 7,-3.2 7,-7 0,-3.8 -3.2,-7 -7,-7 -1.7,0 -3.9,0.9 -5,2 z"
     id="path19746" />
  <path
     style="stroke-width:0.1"
     d="m 213.5,669 c -4.1,4.5 -1,12 5,12 3.8,0 7.5,-3.5 7.5,-7.1 0,-5.8 -8.7,-9.1 -12.5,-4.9 z"
     id="path19748" />
  <path
     style="stroke-width:0.1"
     d="m 396,669 c -1.1,1.1 -2,3.3 -2,5 0,1.7 0.9,3.9 2,5 4.5,4.5 12,1.1 12,-5.4 0,-6 -7.7,-8.9 -12,-4.6 z"
     id="path19750" />
  <path
     style="stroke-width:0.1"
     d="m 583,669 c -4.3,4.3 -1.1,12 5,12 4.1,0 7,-3.1 7,-7.4 0,-6 -7.7,-8.9 -12,-4.6 z"
     id="path19752" />
  <path
     style="stroke-width:0.1"
     d="m 769.2,668.6 c -2.9,2 -3,7.6 -0.2,10.4 4.3,4.3 12,1.1 12,-5 0,-5.9 -6.7,-9 -11.8,-5.4 z"
     id="path19754" />
  <path
     style="stroke-width:0.1"
     d="m 955,669 c -1.1,1.1 -2,3.3 -2,5 0,5.9 6.7,9 11.8,5.4 2.8,-2 3.1,-8.3 0.4,-10.7 -2.5,-2.3 -7.8,-2.1 -10.2,0.3 z"
     id="path19756" />
  <path
     style="stroke-width:0.1"
     d="m 63,673 v 3 h 60 60 v -3 -3 H 123 63 Z"
     id="path19758" />
  <path
     style="stroke-width:0.1"
     d="m 251,673 v 3 h 60 60 v -3 -3 h -60 -60 z"
     id="path19760" />
  <path
     style="stroke-width:0.1"
     d="m 437,673 v 3 h 59.5 59.5 v -3 -3 H 496.5 437 Z"
     id="path19762" />
  <path
     style="stroke-width:0.1"
     d="m 622,673 v 3 h 60 60 v -3 -3 h -60 -60 z"
     id="path19764" />
  <path
     style="stroke-width:0.1"
     d="m 808,673 v 3 h 60 60 v -3 -3 h -60 -60 z"
     id="path19766" />
  <path
     style="stroke-width:0.1"
     d="m 994,673 v 3 h 60 60 v -3 -3 h -60 -60 z"
     id="path19768" />
  <path
     style="stroke-width:0.1"
     d="m 110.5,726.5 c -4,3.9 -2.9,9.5 2.2,11.3 7.8,2.7 13.6,-7.6 7,-12.3 -3.1,-2.2 -6.5,-1.8 -9.2,1 z"
     id="path19770" />
  <path
     style="stroke-width:0.1"
     d="m 296.2,726.3 c -4.3,4.6 -1.5,12 4.6,12 4.3,0 7.2,-2.8 7.2,-7 0,-6.6 -7.4,-9.7 -11.8,-5 z"
     id="path19772" />
  <path
     style="stroke-width:0.1"
     d="m 483.2,726.3 c -4.3,4.6 -1.5,12 4.6,12 4.3,0 7.2,-2.8 7.2,-7 0,-6.6 -7.4,-9.7 -11.8,-5 z"
     id="path19774" />
  <path
     style="stroke-width:0.1"
     d="m 669,726 c -2.6,2.6 -2.6,8.1 0,10.5 2.9,2.6 7.9,2.4 10.2,-0.4 5.6,-7 -3.9,-16.4 -10.2,-10.1 z"
     id="path19776" />
  <path
     style="stroke-width:0.1"
     d="m 855.6,726.1 c -5,3.9 -2.3,11.9 4.2,12.1 4.3,0.1 7.2,-2.6 7.2,-6.9 0,-6.5 -6.1,-9.3 -11.4,-5.2 z"
     id="path19778" />
  <path
     style="stroke-width:0.1"
     d="m 1040.5,726.5 c -3,2.9 -3.2,6.8 -0.5,9.5 4.7,4.7 12.3,1.5 12.3,-5.1 0,-6.3 -7.2,-9 -11.8,-4.4 z"
     id="path19780" />
  <path
     style="stroke-width:0.1"
     d="m 146.4,729.4 c -0.3,0.8 -0.4,2.3 -0.2,3.3 0.3,1.7 3.2,1.8 60.3,1.8 h 60 l 0.3,-3.3 0.3,-3.2 H 207 c -51.4,0 -60.1,0.2 -60.6,1.4 z"
     id="path19782" />
  <path
     style="stroke-width:0.1"
     d="M 334,731.5 V 735 H 393.5 453 V 731.5 728 H 393.5 334 Z"
     id="path19784" />
  <path
     style="stroke-width:0.1"
     d="M 520,731.5 V 735 H 579.5 639 V 731.5 728 H 579.5 520 Z"
     id="path19786" />
  <path
     style="stroke-width:0.1"
     d="m 705.4,729.4 c -0.3,0.8 -0.4,2.3 -0.2,3.3 0.3,1.7 3.2,1.8 59.8,1.8 h 59.5 l 0.3,-3.3 0.3,-3.2 h -59.6 c -50.9,0 -59.6,0.2 -60.1,1.4 z"
     id="path19788" />
  <path
     style="stroke-width:0.1"
     d="m 891.2,731.2 0.3,3.3 h 59.5 59.5 l 0.3,-3.3 0.3,-3.2 H 951 890.9 Z"
     id="path19790" />
  <path
     style="stroke-width:0.1"
     d="m 185.6,792.5 c -5.9,6 1,15.5 8.3,11.4 6.3,-3.6 4.2,-12.1 -3.1,-12.7 -2.3,-0.2 -4.1,0.3 -5.2,1.3 z"
     id="path19792" />
  <path
     style="stroke-width:0.1"
     d="m 371,793 c -4.2,4.2 -0.8,12 5.3,12 5.8,0 9.1,-8.5 4.9,-12.3 -2.5,-2.3 -7.8,-2.1 -10.2,0.3 z"
     id="path19794" />
  <path
     style="stroke-width:0.1"
     d="m 558,793 c -4.2,4.2 -0.8,12 5.3,12 5.8,0 9.1,-8.5 4.9,-12.3 -2.5,-2.3 -7.8,-2.1 -10.2,0.3 z"
     id="path19796" />
  <path
     style="stroke-width:0.1"
     d="m 743.7,792.8 c -2.3,2.5 -2.1,7.8 0.3,10.2 6.1,6.1 15.4,-2.7 10.4,-9.8 -2,-2.8 -8.3,-3.1 -10.7,-0.4 z"
     id="path19798" />
  <path
     style="stroke-width:0.1"
     d="m 930,793 c -2.6,2.6 -2.5,6 0.1,9.4 2.5,3.1 6.6,3.5 10,0.8 2.8,-2.3 3,-7.3 0.4,-10.2 -2.4,-2.6 -7.9,-2.6 -10.5,0 z"
     id="path19800" />
  <path
     style="stroke-width:0.1"
     d="m 40,797 v 3 h 60 60 v -3 -3 H 100 40 Z"
     id="path19802" />
  <path
     style="stroke-width:0.1"
     d="m 228,797 v 3 h 59.5 59.5 v -3 -3 H 287.5 228 Z"
     id="path19804" />
  <path
     style="stroke-width:0.1"
     d="m 413.2,796.7 0.3,2.8 59.8,0.3 59.7,0.2 v -3 -3 h -60.1 -60 z"
     id="path19806" />
  <path
     style="stroke-width:0.1"
     d="m 599,797 v 3 h 60 60 v -3 -3 h -60 -60 z"
     id="path19808" />
  <path
     style="stroke-width:0.1"
     d="m 785,797 v 3 l 59.8,-0.2 59.7,-0.3 0.3,-2.8 0.3,-2.7 h -60 -60.1 z"
     id="path19810" />
  <path
     style="stroke-width:0.1"
     d="m 971,797 v 3 h 59.5 59.5 v -3 -3 H 1030.5 971 Z"
     id="path19812" />
  <path
     style="stroke-width:0.1"
     d="m 93.5,855.5 c -2.8,2.7 -3,4.2 -1.4,7.9 3.2,6.9 13.9,3.8 13.9,-4 0,-2.4 -4.7,-6.4 -7.5,-6.4 -1.4,0 -3.7,1.1 -5,2.5 z"
     id="path19814" />
  <path
     style="stroke-width:0.1"
     d="m 279.6,855.1 c -5,3.9 -2.2,12.2 4.2,12.2 4.3,0 7.2,-2.8 7.2,-7 0,-6.5 -6.1,-9.3 -11.4,-5.2 z"
     id="path19816" />
  <path
     style="stroke-width:0.1"
     d="m 466.6,855.1 c -5,3.9 -2.2,12.2 4.2,12.2 4.3,0 7.2,-2.8 7.2,-7 0,-6.5 -6.1,-9.3 -11.4,-5.2 z"
     id="path19818" />
  <path
     style="stroke-width:0.1"
     d="m 652.2,855 c -4.8,4.5 -1.6,12.3 5,12.3 6.1,0 9.1,-7.8 4.5,-12.1 -2.9,-2.8 -6.7,-2.8 -9.5,-0.2 z"
     id="path19820" />
  <path
     style="stroke-width:0.1"
     d="m 838.5,855.5 c -4.6,4.6 -1.9,11.8 4.4,11.8 6.6,0 9.8,-7.6 5.1,-12.3 -2.7,-2.7 -6.6,-2.5 -9.5,0.5 z"
     id="path19822" />
  <path
     style="stroke-width:0.1"
     d="m 1023.5,855.5 c -4,3.9 -2.9,9.5 2.2,11.3 7.8,2.7 13.6,-7.6 7,-12.3 -3.1,-2.2 -6.5,-1.8 -9.2,1 z"
     id="path19824" />
  <path
     style="stroke-width:0.1"
     d="m 130,858.5 v 3.5 h 60 60 v -3.5 -3.5 h -60 -60 z"
     id="path19826" />
  <path
     style="stroke-width:0.1"
     d="m 317.7,855.7 c -0.4,0.3 -0.7,1.9 -0.7,3.5 v 2.8 h 60.1 60 l -0.3,-3.3 -0.3,-3.2 -59.1,-0.3 c -32.5,-0.1 -59.4,0.1 -59.7,0.5 z"
     id="path19828" />
  <path
     style="stroke-width:0.1"
     d="m 503.7,855.7 c -0.4,0.3 -0.7,1.9 -0.7,3.5 v 2.8 l 59.8,-0.2 59.7,-0.3 v -3 -3 l -59.1,-0.3 c -32.5,-0.1 -59.4,0.1 -59.7,0.5 z"
     id="path19830" />
  <path
     style="stroke-width:0.1"
     d="M 689,858.5 V 862 H 748.5 808 V 858.5 855 H 748.5 689 Z"
     id="path19832" />
  <path
     style="stroke-width:0.1"
     d="m 874.4,856.4 c -0.3,0.8 -0.4,2.3 -0.2,3.3 0.3,1.7 3.3,1.8 60.1,2.1 L 994,862 v -3.5 -3.5 h -59.5 c -51,0 -59.6,0.2 -60.1,1.4 z"
     id="path19834" />
</svg>
