<?xml version="1.0" encoding="UTF-8" standalone="no"?>
<svg
   xmlns:dc="http://purl.org/dc/elements/1.1/"
   xmlns:cc="http://creativecommons.org/ns#"
   xmlns:rdf="http://www.w3.org/1999/02/22-rdf-syntax-ns#"
   xmlns:svg="http://www.w3.org/2000/svg"
   xmlns="http://www.w3.org/2000/svg"
   xmlns:sodipodi="http://sodipodi.sourceforge.net/DTD/sodipodi-0.dtd"
   xmlns:inkscape="http://www.inkscape.org/namespaces/inkscape"
   inkscape:version="1.0 (4035a4fb49, 2020-05-01)"
   sodipodi:docname="USGS_621_colour_nobox.svg"
   id="svg20740"
   preserveAspectRatio="xMidYMid meet"
   viewBox="0 0 1125.000000 900.000000"
   height="900.000000pt"
   width="1125.000000pt"
   version="1.0">
  <defs
     id="defs20744" />
  <sodipodi:namedview
     inkscape:current-layer="svg20740"
     inkscape:window-maximized="1"
     inkscape:window-y="-8"
     inkscape:window-x="1912"
     inkscape:cy="600"
     inkscape:cx="750"
     inkscape:zoom="0.68916667"
     showgrid="false"
     id="namedview20742"
     inkscape:window-height="1017"
     inkscape:window-width="1920"
     inkscape:pageshadow="2"
     inkscape:pageopacity="0"
     guidetolerance="10"
     gridtolerance="10"
     objecttolerance="10"
     borderopacity="1"
     bordercolor="#666666"
     pagecolor="#ffffff" />
  <metadata
     id="metadata20580">
Created by potrace 1.13, written by Peter Selinger 2001-2015
<rdf:RDF>
  <cc:Work
     rdf:about="">
    <dc:format>image/svg+xml</dc:format>
    <dc:type
       rdf:resource="http://purl.org/dc/dcmitype/StillImage" />
    <dc:title></dc:title>
  </cc:Work>
</rdf:RDF>
</metadata>
  <path
     style="stroke-width:0.1"
     d="m 389,17.7 c -31.1,3.2 -52,11.6 -52,20.8 0,9.1 14.1,13.2 48.5,14.2 42.3,1.1 75.3,-3.5 84.2,-11.9 2.7,-2.5 3,-7.3 0.7,-10.6 -5.5,-7.9 -31,-13.3 -61.4,-13 -9.1,0.1 -18.1,0.3 -20,0.5 z m 53,7.8 c 10.5,1.9 18.7,4.6 22.2,7.4 1.9,1.6 2,2.1 0.9,3.4 -8.9,10.8 -98.6,14.6 -118.6,5 -4,-1.9 -4.2,-2.5 -1.8,-4.9 5.3,-5.3 22.2,-9.9 47.3,-12.8 8,-0.9 40.9,0.3 50,1.9 z"
     id="path20584" />
  <path
     style="stroke-width:0.1"
     d="m 942.7,18 c -24.5,3.1 -43.5,9.9 -47.2,17 -6.6,12.8 16.6,19 66.5,17.7 36.5,-1 58,-4.9 65,-11.8 4.1,-4.1 3.9,-7.2 -0.7,-11.9 -4.2,-4.1 -12.2,-7.2 -25.1,-9.6 -9.1,-1.8 -48.4,-2.7 -58.5,-1.4 z m 56.5,7.4 c 16.1,2.9 26.8,8 23.6,11.2 -0.8,0.8 -3.9,2.3 -7,3.4 C 988,49.7 901,48.7 901,38.5 c 0,-4.8 21.5,-11.9 44.1,-14.4 11.1,-1.3 44.4,-0.5 54.1,1.3 z"
     id="path20586" />
  <path
     style="stroke-width:0.1"
     d="m 147,33 v 3 H 213.5 280 V 33 30 H 213.5 147 Z"
     id="path20588" />
  <path
     style="stroke-width:0.1"
     d="m 521,33 v 3 h 66 66 v -3 -3 h -66 -66 z"
     id="path20590" />
  <path
     style="stroke-width:0.1"
     d="m 706,33 v 3 H 772.5 839 V 33 30 H 772.5 706 Z"
     id="path20592" />
  <path
     style="stroke-width:0.1"
     d="M 130,77.6 C 99.9,81 84.6,85.4 76.8,92.8 c -3,2.7 -3.6,6.8 -1.8,10.3 1.6,2.8 7.6,5.6 17.1,7.6 12.2,2.6 69,2.6 85.7,0 20.8,-3.3 31.2,-8.3 31.2,-15.2 0,-10.3 -22.1,-17.2 -57.5,-18 -9.9,-0.2 -19.6,-0.1 -21.5,0.1 z m 31.3,6.4 c 7.6,0.6 17.8,1.9 22.7,2.9 9.5,2.1 19.4,6.5 18.8,8.3 -1.4,4 -13,7.7 -30.9,10 -14.3,1.8 -65.8,1.8 -75.9,-0.1 -9,-1.6 -16.3,-4.6 -15.8,-6.3 2,-5.9 25.3,-12.9 48.6,-14.7 15.4,-1.2 17.3,-1.2 32.5,-0.1 z"
     id="path20594" />
  <path
     style="stroke-width:0.1"
     d="m 682.5,78 c -24.1,2.5 -45.3,9.5 -49.9,16.4 -2.3,3.5 -2,6 1,9.5 3.2,3.9 11.5,6.5 25.4,8.1 14.1,1.7 63,0.8 76.5,-1.4 19.4,-3.1 29.1,-7.3 30.9,-13.3 2.2,-8 -8.3,-14.1 -30.8,-17.9 -11.2,-1.8 -41,-2.6 -53.1,-1.4 z m 53.5,8 c 11.6,1.9 21.7,5.5 23.4,8.3 1.5,2.4 -1,4.2 -9.4,6.7 -11.9,3.6 -25.6,5.1 -52,5.7 -34.1,0.7 -54.9,-1.6 -59.5,-6.7 -1.6,-1.7 -1.4,-2 2.3,-4.5 C 656.9,84.9 702.5,80.3 736,86 Z"
     id="path20596" />
  <path
     style="stroke-width:0.1"
     d="m 255,95 v 3 H 321.5 388 V 95 92 H 321.5 255 Z"
     id="path20598" />
  <path
     style="stroke-width:0.1"
     d="m 441,95 v 3 h 67 67 v -3 -3 h -67 -67 z"
     id="path20600" />
  <path
     style="stroke-width:0.1"
     d="m 814.7,92.7 c -0.4,0.3 -0.7,1.7 -0.7,3 V 98 H 880.5 947 V 95 92 H 881.2 C 845,92 815,92.3 814.7,92.7 Z"
     id="path20602" />
  <path
     style="stroke-width:0.1"
     d="m 374.3,132 c -25.4,2.1 -46.3,8.5 -52.7,16 -2.9,3.5 -3.1,4.8 -1.4,8.5 3.9,8.6 35.9,12.9 77.3,10.6 31.3,-1.9 48,-5.4 54.2,-11.6 7.5,-7.5 1.5,-14.5 -16.9,-19.4 -14.2,-3.9 -41.2,-5.7 -60.5,-4.1 z m 52.2,8.3 c 9.2,2 16.4,4.5 19.8,6.9 2.7,1.9 2.7,2.1 1.1,3.9 -2.2,2.5 -12.3,5.6 -24.4,7.6 -14.4,2.3 -65.3,3 -78.6,0.9 -12,-1.8 -18.4,-4.1 -18.4,-6.6 0,-3.9 17,-10.4 34,-12.9 4.1,-0.6 8.6,-1.3 10,-1.5 6,-1.1 49.8,0.3 56.5,1.7 z"
     id="path20604" />
  <path
     style="stroke-width:0.1"
     d="m 932.5,132.1 c -28.4,2.2 -52.1,9.9 -54.9,18 -1.3,3.8 0,7.5 3.3,9.9 15.4,10.9 101.5,10 124,-1.4 2.8,-1.4 5.5,-3.5 6.1,-4.5 6.1,-11.4 -11.2,-19.5 -46.9,-22.1 -14.9,-1.1 -17,-1.1 -31.6,0.1 z m 53,8.7 c 12.6,2.7 20.5,6.4 20.5,9.4 0,2 -11.3,5.9 -23.1,8 -11.3,2.1 -15.5,2.3 -46.9,2.2 -32.5,0 -35,-0.1 -42.4,-2.2 -7.7,-2.1 -10.6,-3.6 -10.6,-5.3 0,-1.7 7.8,-6 15.2,-8.4 6.6,-2.1 16.2,-4 29.3,-5.9 1.7,-0.2 13.4,-0.3 26,-0.1 18.2,0.3 24.9,0.7 32,2.3 z"
     id="path20606" />
  <path
     style="stroke-width:0.1"
     d="m 131,153.5 v 3.5 h 66 66 v -3.5 -3.5 h -66 -66 z"
     id="path20608" />
  <path
     style="stroke-width:0.1"
     d="m 504.7,150.7 c -0.4,0.3 -0.7,1.9 -0.7,3.5 v 2.8 l 66.3,-0.2 66.2,-0.3 v -3 -3 l -65.6,-0.3 c -36,-0.1 -65.9,0.1 -66.2,0.5 z"
     id="path20610" />
  <path
     style="stroke-width:0.1"
     d="m 690,153.5 v 3.5 h 66 66 v -3.5 -3.5 h -66 -66 z"
     id="path20612" />
  <path
     style="stroke-width:0.1"
     d="m 70.5,194.7 c -27.8,3.3 -45.9,8.9 -51.4,15.9 -6.1,7.7 1.2,14.1 19.9,17.5 11.6,2.2 64.9,1.8 80.4,-0.4 14.3,-2.2 26.4,-5.8 29.9,-9.1 10.8,-10.1 -4.7,-20.1 -36.5,-23.5 -9,-1 -35.4,-1.3 -42.3,-0.4 z m 38.8,6.3 c 14.6,1.4 24.1,3.5 30.7,6.8 7,3.4 7.4,5.3 1.8,7.9 -11.5,5.4 -31.4,7.7 -66.3,7.7 -22.8,0 -29.7,-0.3 -37.1,-1.8 -10.8,-2.1 -16.3,-4.9 -14.3,-7.2 0.7,-0.9 3.3,-2.6 5.8,-3.9 16.4,-8.2 50,-12.3 79.4,-9.5 z"
     id="path20614" />
  <path
     style="stroke-width:0.1"
     d="m 627.5,194.7 c -14.3,1.2 -35,6 -43,10 -5.6,2.8 -9.5,7.4 -9.5,11 0,6.1 6,9.6 21.2,12.4 9.1,1.7 49.2,2.3 65.4,1 32.9,-2.7 48.4,-8.1 48.4,-16.9 0,-8.2 -13.8,-14.2 -39.5,-17.2 -8.3,-0.9 -33.5,-1.1 -43,-0.3 z m 39,6.3 c 6.1,0.6 14.4,1.8 18.5,2.6 8.7,1.8 18.5,6.2 18.5,8.4 0,2.1 -7.9,5.8 -16.1,7.5 -15,3.1 -26.3,3.9 -54.4,3.9 -29.5,0 -39.4,-1 -48.3,-4.8 -5.5,-2.2 -4.6,-4.4 3.4,-8.4 16.1,-7.9 49.7,-11.9 78.4,-9.2 z"
     id="path20616" />
  <path
     style="stroke-width:0.1"
     d="m 200.4,213.4 c -0.3,0.8 -0.4,2.3 -0.2,3.3 0.3,1.7 3.6,1.8 66.6,2.1 L 333,219 v -3.5 -3.5 h -66 c -56.6,0 -66.1,0.2 -66.6,1.4 z"
     id="path20618" />
  <path
     style="stroke-width:0.1"
     d="m 386,215.5 v 3.5 l 66.8,-0.2 66.7,-0.3 0.3,-3.3 0.3,-3.2 h -67 -67.1 z"
     id="path20620" />
  <path
     style="stroke-width:0.1"
     d="m 759.4,213.4 c -0.3,0.8 -0.4,2.3 -0.2,3.3 0.3,1.7 3.6,1.8 66.6,2.1 L 892,219 v -3.5 -3.5 h -66 c -56.6,0 -66.1,0.2 -66.6,1.4 z"
     id="path20622" />
  <path
     style="stroke-width:0.1"
     d="m 945.2,215.2 0.3,3.3 h 66 66 v -3 -3 l -66.3,-0.3 -66.3,-0.2 z"
     id="path20624" />
  <path
     style="stroke-width:0.1"
     d="m 275.6,261.1 c -16.1,1.7 -33.8,6.4 -41.2,10.9 -7.3,4.5 -9.5,10.8 -5.1,14.7 7.2,6.6 22.9,9.3 55.2,9.3 48.5,0 77.5,-6.5 77.5,-17.4 0,-1.7 -0.7,-4.2 -1.6,-5.5 -3.6,-5.1 -19.1,-10 -37.9,-12.1 -10.5,-1.1 -35.5,-1.1 -46.9,0.1 z m 43.9,5.9 c 19.2,1.8 36,7 36,11 0,2.1 -7.9,5.8 -16.1,7.5 -24.2,5 -77.9,5.9 -94.9,1.4 -5.1,-1.3 -11.5,-4 -11.5,-4.9 0,-1.6 5.1,-5.2 10.6,-7.4 17,-6.9 48.9,-10.1 75.9,-7.6 z"
     id="path20626" />
  <path
     style="stroke-width:0.1"
     d="m 833,261 c -33.1,4.1 -52.6,13.7 -47.9,23.6 1.9,3.9 8.7,7.1 19.1,9.2 10.8,2.1 64.3,2.3 78.8,0.3 25,-3.4 37,-8.4 37,-15.5 0,-3.9 -5.4,-9.2 -11.8,-11.6 -11.7,-4.5 -23.4,-6.1 -46.2,-6.5 -11.8,-0.2 -24.9,0 -29,0.5 z m 55.3,7.4 c 10.5,1.7 20.3,4.9 23.7,7.6 l 2.5,2 -2.3,2 c -7.6,6.4 -44.6,10.8 -80.2,9.6 -26,-0.9 -41.6,-4.1 -40.8,-8.3 1,-5.1 22.6,-12 44.8,-14.3 11.5,-1.2 41.5,-0.4 52.3,1.4 z"
     id="path20628" />
  <path
     style="stroke-width:0.1"
     d="m 40,278 v 3 h 66.5 66.5 v -3 -3 H 106.5 40 Z"
     id="path20630" />
  <path
     style="stroke-width:0.1"
     d="m 412,278 v 3 h 67 67 v -3 -3 h -67 -67 z"
     id="path20632" />
  <path
     style="stroke-width:0.1"
     d="m 599,278 v 3 h 66.5 66.5 v -3 -3 H 665.5 599 Z"
     id="path20634" />
  <path
     style="stroke-width:0.1"
     d="m 971,278 v 3 h 66.6 66.5 l -0.3,-2.8 -0.3,-2.7 -66.2,-0.3 L 971,275 Z"
     id="path20636" />
  <path
     style="stroke-width:0.1"
     d="m 77.5,319.7 c -27.8,3.3 -45.9,8.9 -51.4,15.9 -6.1,7.7 1.2,14.1 19.9,17.5 11.6,2.1 64.9,1.8 80.4,-0.5 14.4,-2.1 26.2,-5.7 29.8,-9.1 10.8,-10.1 -4.6,-20 -36.4,-23.4 -9,-1 -35.4,-1.3 -42.3,-0.4 z m 39,6.3 c 19.3,1.9 35.5,6.8 36.3,11.1 0.4,2.1 -6.1,5.2 -15.3,7.2 -14.1,3.1 -27,4.1 -55,4.1 -30.3,0 -42.6,-1.4 -49.6,-5.6 l -3.4,-2.1 3.4,-2.7 c 6.1,-5.1 28.2,-10.9 47.1,-12.3 10.3,-0.8 26.2,-0.6 36.5,0.3 z"
     id="path20638" />
  <path
     style="stroke-width:0.1"
     d="m 634.5,319.7 c -22.1,1.9 -43.3,8.2 -49.7,14.8 -3.8,3.8 -3.8,8.7 -0.1,12.1 5.6,5.2 17.7,7.3 46.4,8.1 43.3,1.1 77.2,-3.9 83.9,-12.5 10.2,-12.9 -18,-23.5 -61.5,-23 -8.2,0.1 -16.8,0.3 -19,0.5 z m 39,6.3 c 6.1,0.6 14.4,1.8 18.5,2.6 8.7,1.8 18.5,6.2 18.5,8.4 0,2.1 -7.9,5.8 -16.1,7.5 -14.4,3 -27.3,3.9 -54.9,3.9 -28.9,-0.1 -39,-1.1 -47.8,-4.8 -5.4,-2.2 -4.6,-4.4 3.3,-8.4 15.7,-7.9 49.7,-11.9 78.5,-9.2 z"
     id="path20640" />
  <path
     style="stroke-width:0.1"
     d="m 210,338 v 3 h 66.5 66.5 v -3 -3 H 276.5 210 Z"
     id="path20642" />
  <path
     style="stroke-width:0.1"
     d="m 396,338 v 3 h 67 67 v -3 -3 h -67 -67 z"
     id="path20644" />
  <path
     style="stroke-width:0.1"
     d="m 769,338 v 3 h 66.5 66.5 v -3 -3 H 835.5 769 Z"
     id="path20646" />
  <path
     style="stroke-width:0.1"
     d="m 955,338 v 3 h 66.5 66.5 v -3 -3 H 1021.5 955 Z"
     id="path20648" />
  <path
     style="stroke-width:0.1"
     d="m 354,385.7 c -9.4,0.9 -24.3,3.8 -31.5,6 -21.2,6.6 -26.8,16.7 -13,23.5 7.7,3.9 24.5,5.8 50,5.8 49.4,0 78,-6.6 77.7,-17.9 0,-1.8 -0.9,-4.2 -1.9,-5.3 -4.7,-5.2 -19.2,-9.8 -37.5,-11.7 -9,-1 -35.6,-1.3 -43.8,-0.4 z m 40.5,6.3 c 19.2,1.8 36,7 36,11 0,0.8 -2.1,2.5 -4.6,3.8 -9,4.4 -26.5,6.9 -55.9,7.8 -29.1,1 -52.5,-1.4 -59.7,-6.1 l -2.5,-1.7 2.2,-2.3 c 5.1,-5.5 23.5,-10.4 48,-12.8 7.9,-0.8 26.2,-0.6 36.5,0.3 z"
     id="path20650" />
  <path
     style="stroke-width:0.1"
     d="m 908,386 c -33,4.1 -52.6,13.7 -47.9,23.6 1.9,3.8 8.8,7.2 19,9.2 10.9,2.1 64.3,2.4 78.9,0.3 25.6,-3.5 37,-8.4 37,-15.9 0,-6.5 -9.1,-11.6 -27,-15.3 -11,-2.3 -47.3,-3.4 -60,-1.9 z m 55.3,7.4 c 10.5,1.7 20.3,4.9 23.7,7.6 l 2.5,2 -2.3,2 c -7.6,6.4 -44.6,10.8 -80.2,9.6 -26,-0.9 -41.6,-4.1 -40.8,-8.3 1,-5.1 22.6,-12 44.8,-14.3 11.6,-1.2 41.6,-0.4 52.3,1.4 z"
     id="path20652" />
  <path
     style="stroke-width:0.1"
     d="m 117.2,404.7 0.3,2.8 66.3,0.3 66.2,0.2 v -3 -3 h -66.6 -66.5 z"
     id="path20654" />
  <path
     style="stroke-width:0.1"
     d="m 491,405 v 3 h 66 66 v -3 -3 h -66 -66 z"
     id="path20656" />
  <path
     style="stroke-width:0.1"
     d="m 676.2,404.7 0.3,2.8 66.3,0.3 66.2,0.2 v -3 -3 h -66.6 -66.5 z"
     id="path20658" />
  <path
     style="stroke-width:0.1"
     d="m 110.3,448 c -25.4,2.1 -46.3,8.5 -52.7,16 -3.3,3.9 -3.3,6 0,9.9 6.4,7.7 36.3,11.3 75.4,9.1 31.6,-1.7 48.5,-5.3 54.7,-11.5 7,-7 2.5,-13.5 -12.5,-18.4 -13.6,-4.4 -44.2,-6.8 -64.9,-5.1 z m 54.2,8.8 c 9.9,2.1 15.9,4.4 18.7,6.9 1.7,1.5 1.7,1.7 0.1,3.5 -2.1,2.4 -12.4,5.5 -24.3,7.4 -13,2.1 -61.1,3.1 -74.8,1.5 -16.9,-2 -24.2,-5 -21.1,-8.7 3.4,-4.1 17.7,-9 32.9,-11.3 4.1,-0.6 8.6,-1.3 10,-1.5 1.4,-0.3 13.1,-0.3 26,-0.1 18.7,0.2 25.3,0.7 32.5,2.3 z"
     id="path20660" />
  <path
     style="stroke-width:0.1"
     d="m 667.8,448.1 c -28.5,2.3 -51.4,10 -54.2,18.1 -2.3,6.6 3.3,11.6 16.1,14.3 12.3,2.7 37.9,3.8 59.8,2.6 36.5,-2 54.7,-6.5 58,-14.4 1.5,-3.6 1.1,-5.2 -2.3,-8.9 -5.3,-5.8 -21.2,-10.1 -43.3,-11.8 -14.8,-1.1 -19.8,-1.1 -34.1,0.1 z M 711,455 c 15.3,1.9 31,7.2 31,10.5 0,4 -16.5,8.5 -38.9,10.5 -17.4,1.6 -62,0.8 -71.3,-1.3 -7.8,-1.8 -13.1,-4.3 -12.5,-6 1.4,-4.3 19.8,-10.8 37.3,-13.1 12.1,-1.7 42.8,-2 54.4,-0.6 z"
     id="path20662" />
  <path
     style="stroke-width:0.1"
     d="m 237,466.5 v 3.5 h 66 66 v -3.5 -3.5 h -66 -66 z"
     id="path20664" />
  <path
     style="stroke-width:0.1"
     d="M 423,466.5 V 470 H 489.5 556 V 466.5 463 H 489.5 423 Z"
     id="path20666" />
  <path
     style="stroke-width:0.1"
     d="m 796,466.5 v 3.5 l 66.3,-0.2 66.2,-0.3 v -3 -3 L 862.3,463.2 796,463 Z"
     id="path20668" />
  <path
     style="stroke-width:0.1"
     d="m 982,466.5 v 3.5 h 66 66 v -3.5 -3.5 h -66 -66 z"
     id="path20670" />
  <path
     style="stroke-width:0.1"
     d="m 379.5,510.6 c -1.6,0.2 -6.6,0.9 -11,1.5 -17.9,2.3 -35.9,8.8 -40.4,14.5 -6.1,7.7 1.2,14.1 19.9,17.5 11.6,2.1 64.9,1.8 80.3,-0.4 20,-3 30.3,-7 32.7,-12.8 3.3,-7.9 -6.8,-14.4 -28.7,-18.5 -8.4,-1.6 -45.4,-2.8 -52.8,-1.8 z m 51.4,8 c 15,2.6 24.1,6.4 24.1,9.9 0,1.9 -7.4,5 -16,6.9 -12,2.5 -23.1,3.6 -45,4.2 -29.4,0.9 -52.7,-1.5 -59.9,-6.3 l -2.5,-1.6 3.3,-2.8 c 6,-4.9 25.3,-10.1 46.6,-12.3 8.6,-0.9 40.3,0.4 49.4,2 z"
     id="path20672" />
  <path
     style="stroke-width:0.1"
     d="m 936,510.7 c -38.3,3.9 -60.5,15.9 -49.2,26.5 5.9,5.6 17.7,7.8 46.2,8.5 43.1,1.1 77.4,-4 84,-12.5 7.9,-10 -7.1,-18.9 -37.2,-22.1 -9,-1 -35.7,-1.3 -43.8,-0.4 z m 40.6,6.4 c 19.3,1.8 35.9,6.9 35.9,10.9 0,11.8 -105.7,16.7 -120.9,5.5 -2.8,-2.1 -1.4,-4 5.6,-7.4 16,-7.9 50.7,-11.8 79.4,-9 z"
     id="path20674" />
  <path
     style="stroke-width:0.1"
     d="m 144,532 v 3 h 66.5 66.5 v -3 -3 H 210.5 144 Z"
     id="path20676" />
  <path
     style="stroke-width:0.1"
     d="m 517,532 v 3 h 66.5 66.5 v -3 -3 H 583.5 517 Z"
     id="path20678" />
  <path
     style="stroke-width:0.1"
     d="m 703,532 v 3 h 66.5 66.5 v -3 -3 H 769.5 703 Z"
     id="path20680" />
  <path
     style="stroke-width:0.1"
     d="m 580,572.7 c -21.6,1.5 -39.2,5.2 -49.7,10.3 -7.3,3.6 -10.3,7 -10.3,11.6 0,7.5 12.3,11.8 39.2,13.5 29.7,1.9 70.3,-1.4 84.9,-7 14.4,-5.5 14.6,-14.9 0.7,-21.1 -12.4,-5.5 -42.7,-8.9 -64.8,-7.3 z m 40.5,7.8 c 16.1,2.4 28.5,7 28.5,10.6 0,1.7 -8.5,5.2 -17.1,6.9 -15.5,3.2 -33.2,4.3 -61.1,3.7 -22.8,-0.4 -27.4,-0.7 -34.3,-2.6 -9.2,-2.5 -11.6,-4.1 -9.5,-6.6 3.5,-4.2 19.8,-9.6 36,-11.9 13.2,-1.9 45,-2 57.5,-0.1 z"
     id="path20682" />
  <path
     style="stroke-width:0.1"
     d="m 141,590 v 3 h 66 66 v -3 -3 h -66 -66 z"
     id="path20684" />
  <path
     style="stroke-width:0.1"
     d="m 326.7,587.7 c -0.4,0.3 -0.7,1.7 -0.7,3 v 2.3 h 66.5 66.5 v -3 -3 h -65.8 c -36.2,0 -66.2,0.3 -66.5,0.7 z"
     id="path20686" />
  <path
     style="stroke-width:0.1"
     d="m 700,590 v 3 h 66 66 v -3 -3 h -66 -66 z"
     id="path20688" />
  <path
     style="stroke-width:0.1"
     d="m 885.7,587.7 c -0.4,0.3 -0.7,1.7 -0.7,3 v 2.3 h 66.5 66.5 v -3 -3 h -65.8 c -36.2,0 -66.2,0.3 -66.5,0.7 z"
     id="path20690" />
  <path
     style="stroke-width:0.1"
     d="m 366.7,639 c -25.8,2.3 -45.7,8.5 -52.1,16 -3.3,3.9 -3.3,6 0,9.9 5.5,6.6 22.2,9.4 55.4,9.4 42.7,0 69.4,-4.6 76,-13.1 6.9,-8.7 -4.8,-16.7 -30,-20.6 -12.2,-1.9 -36.7,-2.7 -49.3,-1.6 z m 46.8,7.5 c 12.7,1.9 22.7,4.9 26.1,7.8 l 2.7,2.3 -2.7,2.1 c -3.9,3.1 -16.7,6.2 -33.3,7.9 -19.4,2.1 -65.1,1.4 -75.8,-1 -7.5,-1.8 -11.5,-3.9 -11.5,-6 0,-3.5 18.4,-10.3 34,-12.5 4.1,-0.6 8.6,-1.3 10,-1.5 7.3,-1 41.4,-0.5 50.5,0.9 z"
     id="path20692" />
  <path
     style="stroke-width:0.1"
     d="m 923.7,639.1 c -27.3,2.2 -50.3,10.1 -53.1,18.1 -2.3,6.6 3.3,11.6 16.1,14.3 12.5,2.7 37.5,3.7 59.8,2.5 40,-2.1 58.5,-7.6 58.5,-17.3 0,-12.8 -38.5,-21.1 -81.3,-17.6 z M 968,646 c 15.5,1.9 31,7.2 31,10.6 0,2.2 -9.2,6 -19,7.8 -13.9,2.5 -29.2,3.6 -52,3.6 -28.3,0 -44.6,-2.1 -50.5,-6.3 -1.7,-1.3 -1.7,-1.7 -0.5,-3.2 3.5,-4.2 19.7,-9.5 36,-11.9 11.5,-1.7 43.3,-2 55,-0.6 z"
     id="path20694" />
  <path
     style="stroke-width:0.1"
     d="m 121,656 v 3 h 66 66 v -3 -3 h -66 -66 z"
     id="path20696" />
  <path
     style="stroke-width:0.1"
     d="m 494,656 v 3 l 66.3,-0.2 66.2,-0.3 0.3,-2.8 0.3,-2.7 H 560.6 494 Z"
     id="path20698" />
  <path
     style="stroke-width:0.1"
     d="m 680,656 v 3 h 66 66 v -3 -3 h -66 -66 z"
     id="path20700" />
  <path
     style="stroke-width:0.1"
     d="m 76,702.1 c -24.8,2.8 -44.4,9.9 -47.5,17.2 -5,11.8 13.7,17.7 56.5,17.7 45.2,0 74.1,-5.7 77.4,-15.1 3.1,-9.1 -9.5,-16 -35,-19.4 C 115,700.9 88.6,700.7 76,702.1 Z m 44.5,5.9 c 18.5,1.8 34.9,6.6 36.2,10.7 1.1,3.3 -13.6,8 -33.2,10.4 -14.8,1.9 -63.7,1.7 -74,-0.3 -15.8,-3.1 -18.9,-6 -11,-10.5 15.2,-8.7 51,-13.2 82,-10.3 z"
     id="path20702" />
  <path
     style="stroke-width:0.1"
     d="m 633,702.1 c -20.7,2.5 -37.8,7.9 -44.1,13.9 -8.5,8.1 -2.9,14.8 15.6,18.6 9.9,2.1 48.5,2.9 66.5,1.5 26.9,-2.1 40.6,-5.6 46.8,-11.7 4.2,-4.2 4.1,-6.9 -0.6,-11.3 -4.3,-4.1 -12.4,-7.2 -25.2,-9.7 -10,-1.9 -47.4,-2.8 -59,-1.3 z m 56.5,7.3 c 18.9,3.2 29.1,8.9 22.3,12.4 -20.9,10.8 -103.5,12.5 -118.7,2.5 l -2.5,-1.6 3.5,-2.9 c 5.7,-4.8 23.3,-9.6 42.4,-11.8 11.1,-1.2 42.2,-0.4 53,1.4 z"
     id="path20704" />
  <path
     style="stroke-width:0.1"
     d="m 210.4,715.4 c -0.3,0.8 -0.4,2.3 -0.2,3.3 0.3,1.7 3.6,1.8 66.6,2.1 L 343,721 v -3.5 -3.5 h -66 c -56.6,0 -66.1,0.2 -66.6,1.4 z"
     id="path20706" />
  <path
     style="stroke-width:0.1"
     d="m 396,717.5 v 3.5 h 67.1 67 l -0.3,-3.3 -0.3,-3.2 -66.7,-0.3 L 396,714 Z"
     id="path20708" />
  <path
     style="stroke-width:0.1"
     d="m 769.4,715.4 c -0.3,0.8 -0.4,2.3 -0.2,3.3 0.3,1.7 3.6,1.8 66.6,2.1 L 902,721 v -3.5 -3.5 h -66 c -56.6,0 -66.1,0.2 -66.6,1.4 z"
     id="path20710" />
  <path
     style="stroke-width:0.1"
     d="m 955,717.5 v 3.5 l 66.3,-0.2 66.2,-0.3 v -3 -3 L 1021.3,714.2 955,714 Z"
     id="path20712" />
  <path
     style="stroke-width:0.1"
     d="m 255.5,761.2 c -22.6,2.5 -43,9.8 -46.6,16.7 -6.3,11.9 12.7,18.1 55.7,18.1 40.7,0 70.3,-4.9 76.4,-12.8 7.9,-10 -7.1,-18.9 -37.2,-22.1 -11.4,-1.3 -36.9,-1.2 -48.3,0.1 z m 45.1,5.9 c 19.3,1.8 35.9,6.9 35.9,10.9 0,3.5 -10.9,7 -30,9.7 -16.5,2.3 -65.3,2.3 -77,0.1 -9.8,-1.9 -15.5,-4.2 -15.5,-6.2 0,-0.8 2,-2.7 4.5,-4.2 15.1,-8.8 51,-13.4 82.1,-10.3 z"
     id="path20714" />
  <path
     style="stroke-width:0.1"
     d="m 814,761.1 c -21.6,2.5 -38.6,7.7 -45.1,13.9 -8.9,8.4 -2.3,15.4 18.1,19.1 11.2,2.1 64.7,1.8 79.9,-0.4 16.6,-2.4 25.6,-5.3 30.3,-9.7 4.3,-4.2 4.7,-6.6 1.7,-10.4 -6.6,-8.4 -30.8,-13.7 -61.4,-13.5 -8.8,0.1 -19.4,0.5 -23.5,1 z m 43.3,5.9 c 14.6,1.4 24.1,3.5 30.7,6.8 7,3.4 7.4,5.3 1.8,7.9 -21,9.9 -102.2,11.1 -116.5,1.8 l -2.7,-1.8 3.5,-2.9 c 5.9,-4.9 26.9,-10.4 46.4,-12.1 9,-0.8 26.7,-0.6 36.8,0.3 z"
     id="path20716" />
  <path
     style="stroke-width:0.1"
     d="m 20.2,779.2 0.3,3.3 h 66 66 l 0.3,-3.3 0.3,-3.2 H 86.5 19.9 Z"
     id="path20718" />
  <path
     style="stroke-width:0.1"
     d="m 392,779.5 v 3.5 h 67 67 v -3.5 -3.5 h -67 -67 z"
     id="path20720" />
  <path
     style="stroke-width:0.1"
     d="m 579.2,779.2 0.3,3.3 h 66 66 l 0.3,-3.3 0.3,-3.2 h -66.6 -66.6 z"
     id="path20722" />
  <path
     style="stroke-width:0.1"
     d="m 951,779.5 v 3.5 h 66 66 v -3.5 -3.5 h -66 -66 z"
     id="path20724" />
  <path
     style="stroke-width:0.1"
     d="m 98,821.2 c -22.7,2.3 -43.6,9.8 -47.4,16.8 -1.7,3.2 -1.8,3.9 -0.5,6.5 1.8,3.8 8.3,7.1 18,9.1 10.4,2.1 49.5,3 68.5,1.5 32.5,-2.6 48.4,-8.2 48.4,-17.1 0,-10.6 -27.4,-18.2 -64.2,-17.9 -7.9,0.1 -18.1,0.6 -22.8,1.1 z m 55.5,7.3 c 10.7,1.8 20.1,4.8 23.5,7.4 2,1.6 2.2,2.2 1.1,3.5 -5.5,6.6 -43.3,11.5 -80.6,10.2 -26.5,-0.8 -42.1,-4 -41.3,-8.3 0.8,-4.8 24,-12.1 44.8,-14.2 12.8,-1.3 41.4,-0.5 52.5,1.4 z"
     id="path20726" />
  <path
     style="stroke-width:0.1"
     d="m 660.5,820.7 c -27.8,3.3 -45.1,8.5 -51,15.4 -4.5,5.4 -2.8,10.3 5,14.1 9.1,4.5 28.2,6.2 59.9,5.5 36.3,-0.9 56.4,-4.3 64.3,-11.2 4.2,-3.6 4.9,-8.1 1.7,-11.6 -4.8,-5.3 -19.1,-9.8 -37.6,-11.8 -9,-1 -35.4,-1.3 -42.3,-0.4 z m 38.5,6.4 c 19.8,1.8 35.9,6.6 36.8,11 0.6,3.3 -13.2,7.6 -31.8,9.9 -4.7,0.6 -17.7,1.3 -29,1.7 -29.9,0.9 -52.5,-1.5 -59.8,-6.3 l -2.6,-1.7 3.5,-2.9 c 6,-5 28,-10.7 46.9,-12.1 10.3,-0.8 25.2,-0.6 36,0.4 z"
     id="path20728" />
  <path
     style="stroke-width:0.1"
     d="m 230,838 v 3 h 66.5 66.5 v -3 -3 H 296.5 230 Z"
     id="path20730" />
  <path
     style="stroke-width:0.1"
     d="m 416,838 v 3 h 67 67 v -3 -3 h -67 -67 z"
     id="path20732" />
  <path
     style="stroke-width:0.1"
     d="m 789,838 v 3 h 66.5 66.5 v -3 -3 H 855.5 789 Z"
     id="path20734" />
  <path
     style="stroke-width:0.1"
     d="m 975,838 v 3 l 66.3,-0.2 66.2,-0.3 0.3,-2.8 0.3,-2.7 H 1041.6 975 Z"
     id="path20736" />
</svg>
