<?xml version="1.0" encoding="UTF-8" standalone="no"?>
<svg
   xmlns:dc="http://purl.org/dc/elements/1.1/"
   xmlns:cc="http://creativecommons.org/ns#"
   xmlns:rdf="http://www.w3.org/1999/02/22-rdf-syntax-ns#"
   xmlns:svg="http://www.w3.org/2000/svg"
   xmlns="http://www.w3.org/2000/svg"
   xmlns:sodipodi="http://sodipodi.sourceforge.net/DTD/sodipodi-0.dtd"
   xmlns:inkscape="http://www.inkscape.org/namespaces/inkscape"
   inkscape:version="1.0 (4035a4fb49, 2020-05-01)"
   sodipodi:docname="USGS_609_colour_nobox.svg"
   id="svg10768"
   preserveAspectRatio="xMidYMid meet"
   viewBox="0 0 1125.000000 900.000000"
   height="900.000000pt"
   width="1125.000000pt"
   version="1.0">
  <defs
     id="defs10772" />
  <sodipodi:namedview
     inkscape:current-layer="svg10768"
     inkscape:window-maximized="1"
     inkscape:window-y="-8"
     inkscape:window-x="1912"
     inkscape:cy="600"
     inkscape:cx="750"
     inkscape:zoom="0.68916667"
     showgrid="false"
     id="namedview10770"
     inkscape:window-height="1017"
     inkscape:window-width="1920"
     inkscape:pageshadow="2"
     inkscape:pageopacity="0"
     guidetolerance="10"
     gridtolerance="10"
     objecttolerance="10"
     borderopacity="1"
     bordercolor="#666666"
     pagecolor="#ffffff" />
  <metadata
     id="metadata10200">
Created by potrace 1.13, written by Peter Selinger 2001-2015
<rdf:RDF>
  <cc:Work
     rdf:about="">
    <dc:format>image/svg+xml</dc:format>
    <dc:type
       rdf:resource="http://purl.org/dc/dcmitype/StillImage" />
    <dc:title></dc:title>
  </cc:Work>
</rdf:RDF>
</metadata>
  <path
     style="stroke-width:0.1"
     d="m 418.1,10.6 c -1.2,1.5 -2.1,3.5 -2.1,4.6 0,2.7 4.5,6.8 7.5,6.8 3,0 7.5,-4.1 7.5,-6.8 0,-3.5 -3.8,-7.2 -7.5,-7.2 -2.4,0 -3.9,0.7 -5.4,2.6 z"
     id="path10204" />
  <path
     style="stroke-width:0.1"
     d="m 958.5,10.5 c -4,3.9 -2.9,9.5 2.2,11.3 7.8,2.7 13.6,-7.6 7,-12.3 -3.1,-2.2 -6.5,-1.8 -9.2,1 z"
     id="path10206" />
  <path
     style="stroke-width:0.1"
     d="m 1026.2,10.3 c -4.3,4.6 -1.5,12 4.6,12 4.3,0 7.2,-2.8 7.2,-7 0,-6.6 -7.4,-9.7 -11.8,-5 z"
     id="path10208" />
  <path
     style="stroke-width:0.1"
     d="m 698,14 c -2.4,2.4 -2.6,6.7 -0.4,9.8 1.1,1.6 2.5,2.2 5.4,2.2 2.9,0 4.3,-0.6 5.4,-2.2 C 712,18.7 708.9,12 703,12 c -1.7,0 -3.9,0.9 -5,2 z"
     id="path10210" />
  <path
     style="stroke-width:0.1"
     d="m 377.2,14.6 c -2.8,2 -3.1,8.3 -0.4,10.7 4.4,4 12.2,0.7 12.2,-5.1 0,-5.9 -6.7,-9.2 -11.8,-5.6 z"
     id="path10212" />
  <path
     style="stroke-width:0.1"
     d="M 41.6,19.1 C 38,22 38,27.1 41.7,30 46.4,33.7 53,30.2 53,24 c 0,-3.1 -3.9,-7 -7,-7 -1,0 -2.9,0.9 -4.4,2.1 z"
     id="path10214" />
  <path
     style="stroke-width:0.1"
     d="m 339,19 c -4.3,4.3 -1.1,12 5,12 3.8,0 7,-3.2 7,-7 0,-3.8 -3.2,-7 -7,-7 -1.7,0 -3.9,0.9 -5,2 z"
     id="path10216" />
  <path
     style="stroke-width:0.1"
     d="m 84.3,19.2 c -8.1,3.9 -2,16.7 6.2,13 5.5,-2.5 5.8,-10 0.5,-12.7 -3.3,-1.7 -3.7,-1.7 -6.7,-0.3 z"
     id="path10218" />
  <path
     style="stroke-width:0.1"
     d="m 126,19.3 c -7.6,3.8 -2.8,15.4 5.5,13.3 2.9,-0.7 5.6,-5.6 4.8,-8.7 -1.1,-4.1 -6.5,-6.5 -10.3,-4.6 z"
     id="path10220" />
  <path
     style="stroke-width:0.1"
     d="m 299.2,20 c -7.7,3.1 -3.4,15.3 4.8,13.5 6.5,-1.4 7.4,-10.6 1.4,-13.4 -2.9,-1.3 -3.1,-1.3 -6.2,-0.1 z"
     id="path10222" />
  <path
     style="stroke-width:0.1"
     d="m 166,23 c -2.6,2.6 -2.6,8.1 0,10.5 2.9,2.6 7.9,2.4 10.2,-0.4 5.6,-7 -3.9,-16.4 -10.2,-10.1 z"
     id="path10224" />
  <path
     style="stroke-width:0.1"
     d="m 206.2,24.3 c -4.5,4.8 -1.4,11.7 5.1,11.7 4.3,0 6.7,-2.6 6.7,-7.3 0,-6.3 -7.4,-9.1 -11.8,-4.4 z"
     id="path10226" />
  <path
     style="stroke-width:0.1"
     d="m 252.2,23.6 c -2.8,2 -3.1,8.3 -0.4,10.7 2.5,2.3 7.8,2.1 10.2,-0.3 6.1,-6.1 -2.7,-15.4 -9.8,-10.4 z"
     id="path10228" />
  <path
     style="stroke-width:0.1"
     d="m 765.9,35.8 c -6.3,5.2 0.8,15.5 8,11.7 4.8,-2.4 5.5,-7.2 1.6,-11 -2.9,-3 -6.4,-3.2 -9.6,-0.7 z"
     id="path10230" />
  <path
     style="stroke-width:0.1"
     d="m 230.5,42.2 c -5,2.7 -5.9,7.5 -2,11.3 4.2,4.3 10.6,2.3 12.1,-3.7 0.5,-2.2 0,-3.3 -2.4,-5.8 -3.3,-3.2 -4.6,-3.5 -7.7,-1.8 z"
     id="path10232" />
  <path
     style="stroke-width:0.1"
     d="m 561.3,42 c -4.8,1.9 -5.8,8.7 -1.7,11.9 3.4,2.7 6.4,2.7 9.2,0.1 5.7,-5.3 -0.3,-14.9 -7.5,-12 z"
     id="path10234" />
  <path
     style="stroke-width:0.1"
     d="m 146,45.3 c -7,3.5 -4.8,13.7 3,13.7 2.8,0 7,-4.4 7,-7.3 0,-5.1 -5.5,-8.6 -10,-6.4 z"
     id="path10236" />
  <path
     style="stroke-width:0.1"
     d="m 836,48 c -1.1,1.1 -2,3.3 -2,5 0,1.7 0.9,3.9 2,5 1.1,1.1 3.3,2 5,2 1.7,0 3.9,-0.9 5,-2 1.1,-1.1 2,-3.3 2,-5 0,-1.7 -0.9,-3.9 -2,-5 -1.1,-1.1 -3.3,-2 -5,-2 -1.7,0 -3.9,0.9 -5,2 z"
     id="path10238" />
  <path
     style="stroke-width:0.1"
     d="m 1104.5,54.5 c -1.4,1.3 -2.5,3.6 -2.5,5 0,2.9 4,7.5 6.5,7.5 2,0 5.7,-1.9 6.7,-3.4 1.8,-2.6 0.8,-7.5 -1.8,-9.5 -3.5,-2.7 -5.9,-2.6 -8.9,0.4 z"
     id="path10240" />
  <path
     style="stroke-width:0.1"
     d="m 914.5,57.2 c -2.8,1.6 -3.5,2.8 -3.5,6.5 0,3.5 3.7,7.3 7.2,7.3 2.7,0 6.8,-4.5 6.8,-7.5 0,-3 -4.1,-7.5 -6.7,-7.5 -1,0 -2.7,0.6 -3.8,1.2 z"
     id="path10242" />
  <path
     style="stroke-width:0.1"
     d="m 1054.3,58 c -4.6,1.9 -5.7,8.3 -2,11.8 4.8,4.5 11.7,1.4 11.7,-5.1 0,-5.1 -5,-8.6 -9.7,-6.7 z"
     id="path10244" />
  <path
     style="stroke-width:0.1"
     d="m 257.6,60.1 c -3.6,2.8 -3.6,8 0,10.8 1.5,1.2 3.4,2.1 4.4,2.1 3.4,0 7,-3.9 7,-7.5 0,-3.6 -3.6,-7.5 -7,-7.5 -1,0 -2.9,0.9 -4.4,2.1 z"
     id="path10246" />
  <path
     style="stroke-width:0.1"
     d="m 412.6,60.1 c -3.6,2.8 -3.6,8 0,10.8 1.5,1.2 3.4,2.1 4.4,2.1 3.4,0 7,-3.9 7,-7.5 0,-3.6 -3.6,-7.5 -7,-7.5 -1,0 -2.9,0.9 -4.4,2.1 z"
     id="path10248" />
  <path
     style="stroke-width:0.1"
     d="m 985.8,62.6 c -5.1,2.7 -4.6,10.1 0.7,12.6 5.8,2.6 11.9,-3.3 9.5,-9.1 -0.6,-1.6 -2.3,-3.3 -3.6,-4 -3.1,-1.4 -3.3,-1.4 -6.6,0.5 z"
     id="path10250" />
  <path
     style="stroke-width:0.1"
     d="m 110,65 c -4.3,4.3 -1.1,12 5,12 3.8,0 7,-3.2 7,-7 0,-3.8 -3.2,-7 -7,-7 -1.7,0 -3.9,0.9 -5,2 z"
     id="path10252" />
  <path
     style="stroke-width:0.1"
     d="m 639,75 c -3,3 -2.7,8.3 0.7,11 7,5.5 15.1,-4.2 8.8,-10.5 -2.9,-3 -6.8,-3.2 -9.5,-0.5 z"
     id="path10254" />
  <path
     style="stroke-width:0.1"
     d="m 287.7,77.8 c -2.5,2.8 -2.2,8.7 0.5,10.6 7.3,5.1 16,-4.2 9.8,-10.4 -2.6,-2.6 -8.1,-2.6 -10.3,-0.2 z"
     id="path10256" />
  <path
     style="stroke-width:0.1"
     d="M 72.2,83.3 C 67.7,88.1 70.8,95 77.3,95 81.5,95 84,92.4 84,88.2 84,81.7 76.6,78.6 72.2,83.3 Z"
     id="path10258" />
  <path
     style="stroke-width:0.1"
     d="m 475.5,88 c -4.1,4.5 -0.7,12 5.4,12 3.4,0 7.1,-3.7 7.1,-7.1 0,-6 -8.5,-9.3 -12.5,-4.9 z"
     id="path10260" />
  <path
     style="stroke-width:0.1"
     d="m 152,88.3 c -3.3,1.6 -4.7,5.8 -3.2,9.2 2.5,5.5 10,5.8 12.7,0.5 3.2,-6.1 -3.3,-12.8 -9.5,-9.7 z"
     id="path10262" />
  <path
     style="stroke-width:0.1"
     d="m 326,92.3 c -1.3,0.7 -2.9,2.5 -3.4,3.9 -2.9,8.3 9.4,13.7 12.8,5.6 1.7,-3.9 1.1,-6.3 -2.2,-8.8 -2.9,-2.3 -3.8,-2.4 -7.2,-0.7 z"
     id="path10264" />
  <path
     style="stroke-width:0.1"
     d="m 708.1,95.6 c -1.2,1.5 -2.1,3.4 -2.1,4.4 0,3.1 3.9,7 7,7 6.2,0 9.7,-6.6 6,-11.3 -2.9,-3.7 -8,-3.7 -10.9,-0.1 z"
     id="path10266" />
  <path
     style="stroke-width:0.1"
     d="m 33,100 c -4.5,4.5 -1.1,12 5.3,12 4.2,0 6.7,-2.6 6.7,-6.8 0,-4.1 -3.1,-7.2 -7,-7.2 -1.7,0 -3.9,0.9 -5,2 z"
     id="path10268" />
  <path
     style="stroke-width:0.1"
     d="m 208.5,101.5 c -5.8,5.7 0.1,14.6 7.6,11.5 3.5,-1.5 5.3,-5.7 4,-9.3 -1.9,-5.1 -7.7,-6.2 -11.6,-2.2 z"
     id="path10270" />
  <path
     style="stroke-width:0.1"
     d="m 361.7,106.2 c -3.7,3.3 -4,7.5 -0.7,10.8 2.7,2.7 6.6,2.5 9.5,-0.5 2.9,-2.8 3.2,-6.5 0.8,-9.3 -2.8,-3.3 -6.6,-3.7 -9.6,-1 z"
     id="path10272" />
  <path
     style="stroke-width:0.1"
     d="m 778.9,112.8 c -4.9,4 -1.7,12.2 4.8,12.2 6.5,0 9.3,-6.1 5.2,-11.4 -2.5,-3.1 -6.6,-3.5 -10,-0.8 z"
     id="path10274" />
  <path
     style="stroke-width:0.1"
     d="m 543.1,114.6 c -1.2,1.5 -2.1,3.4 -2.1,4.4 0,3.4 3.9,7 7.5,7 3.6,0 7.5,-3.6 7.5,-7 0,-3.4 -3.9,-7 -7.5,-7 -2.4,0 -3.9,0.7 -5.4,2.6 z"
     id="path10276" />
  <path
     style="stroke-width:0.1"
     d="m 270,118.3 c -5.2,2.6 -4.9,10.4 0.4,12.8 8.1,3.7 13.8,-7.3 6.4,-12.5 -2.7,-1.9 -3.5,-2 -6.8,-0.3 z"
     id="path10278" />
  <path
     style="stroke-width:0.1"
     d="m 403.3,118 c -4.8,2 -5.8,8.7 -1.7,11.9 3.4,2.7 6.4,2.7 9.2,0.1 3.2,-3 3,-8.2 -0.4,-10.9 -2.9,-2.3 -3.8,-2.4 -7.1,-1.1 z"
     id="path10280" />
  <path
     style="stroke-width:0.1"
     d="m 90.6,124.6 c -4.3,4.3 -1.9,11.6 4.1,12.2 6.2,0.6 10.1,-6.2 6.3,-11.1 -2.5,-3.1 -7.8,-3.7 -10.4,-1.1 z"
     id="path10282" />
  <path
     style="stroke-width:0.1"
     d="m 852.2,125.7 c -3.2,2.7 -3.7,6.4 -1.2,9.6 2.8,3.5 8,3.7 11,0.5 5.8,-6.3 -3.2,-15.6 -9.8,-10.1 z"
     id="path10284" />
  <path
     style="stroke-width:0.1"
     d="m 918.6,131.1 c -5.2,4.1 -2.3,12.2 4.4,12.2 6.7,0 9.6,-8.1 4.4,-12.2 -1.5,-1.2 -3.4,-2.1 -4.4,-2.1 -1,0 -2.9,0.9 -4.4,2.1 z"
     id="path10286" />
  <path
     style="stroke-width:0.1"
     d="m 442.7,133.8 c -2.5,2.8 -2.2,8.7 0.5,10.6 7.1,5 15.9,-4.3 9.8,-10.4 -2.6,-2.6 -8.1,-2.6 -10.3,-0.2 z"
     id="path10288" />
  <path
     style="stroke-width:0.1"
     d="m 1100.1,134.6 c -4.1,5.3 -1.3,11.4 5.2,11.4 4.2,0 7,-2.9 7,-7.2 0,-6.4 -8.3,-9.2 -12.2,-4.2 z"
     id="path10290" />
  <path
     style="stroke-width:0.1"
     d="m 979.6,135.1 c -5,3.9 -2.3,11.9 4.2,12.1 4.3,0.1 7.2,-2.6 7.2,-6.9 0,-6.5 -6.1,-9.3 -11.4,-5.2 z"
     id="path10292" />
  <path
     style="stroke-width:0.1"
     d="m 616.1,136.6 c -2.7,3.4 -2.7,6.4 -0.1,9.2 4.7,5 14,0.6 12.5,-5.8 -1.4,-6 -8.8,-8 -12.4,-3.4 z"
     id="path10294" />
  <path
     style="stroke-width:0.1"
     d="m 1038.6,136.1 c -2.6,2 -3.6,6.9 -1.8,9.5 1,1.5 4.7,3.4 6.7,3.4 2.5,0 6.5,-4.6 6.5,-7.5 0,-3 -4.1,-7.5 -6.8,-7.5 -1.1,0 -3.1,0.9 -4.6,2.1 z"
     id="path10296" />
  <path
     style="stroke-width:0.1"
     d="m 329.5,139.5 c -3,3 -3.1,5.4 -0.4,8.9 1.5,1.9 3,2.6 5.4,2.6 3.7,0 7.5,-3.7 7.5,-7.2 0,-2.7 -4.5,-6.8 -7.5,-6.8 -1.4,0 -3.7,1.1 -5,2.5 z"
     id="path10298" />
  <path
     style="stroke-width:0.1"
     d="m 148.7,141.8 c -2.4,2.6 -2.1,7.7 0.5,10.2 6.3,5.8 15.2,-2.6 10.2,-9.8 -2,-2.8 -8.3,-3.1 -10.7,-0.4 z"
     id="path10300" />
  <path
     style="stroke-width:0.1"
     d="m 485,143.7 c -5.1,1.9 -6.8,8.5 -3,12.3 6.1,6.1 15.9,-3.3 10.3,-9.8 -2,-2.3 -5,-3.3 -7.3,-2.5 z"
     id="path10302" />
  <path
     style="stroke-width:0.1"
     d="m 207.6,149.1 c -1.9,1.5 -2.6,3 -2.6,5.4 0,3.6 3.6,7.5 7,7.5 3.4,0 7,-3.9 7,-7.5 0,-3.6 -3.6,-7.5 -7,-7.5 -1,0 -2.9,0.9 -4.4,2.1 z"
     id="path10304" />
  <path
     style="stroke-width:0.1"
     d="m 388.2,152.3 c -4.5,4.8 -1.7,11.7 4.7,11.7 4.6,0 7.1,-2.4 7.1,-6.8 0,-6.5 -7.4,-9.6 -11.8,-4.9 z"
     id="path10306" />
  <path
     style="stroke-width:0.1"
     d="m 521.6,157.1 c -3.6,2.9 -3.6,8 0.1,10.9 4.7,3.7 11.3,0.2 11.3,-6 0,-3.1 -3.9,-7 -7,-7 -1,0 -2.9,0.9 -4.4,2.1 z"
     id="path10308" />
  <path
     style="stroke-width:0.1"
     d="m 689,157.2 c -2.7,2.9 -2.5,6.9 0.3,9.6 4.6,4.3 12,1.5 12,-4.6 0,-6.6 -7.8,-9.8 -12.3,-5 z"
     id="path10310" />
  <path
     style="stroke-width:0.1"
     d="m 268.2,160.3 c -2.8,3 -2.8,6.8 0.1,9.5 4.8,4.5 12,1.6 12,-4.8 0,-6.5 -7.6,-9.5 -12.1,-4.7 z"
     id="path10312" />
  <path
     style="stroke-width:0.1"
     d="m 451.7,160.1 c -1,0.6 -2.3,2.2 -2.8,3.7 -2.3,6.1 4.2,11.8 10.1,8.7 4.7,-2.4 5.4,-7.2 1.5,-11 -2.5,-2.6 -5.8,-3.1 -8.8,-1.4 z"
     id="path10314" />
  <path
     style="stroke-width:0.1"
     d="m 559.7,167.8 c -4,4.4 -0.7,12.2 5.1,12.2 5.9,0 9.2,-6.7 5.6,-11.8 -2,-2.8 -8.3,-3.1 -10.7,-0.4 z"
     id="path10316" />
  <path
     style="stroke-width:0.1"
     d="m 331.9,170.2 c -1.6,0.5 -3.2,2.2 -3.9,3.9 -3.5,8.4 8.4,13.7 12.9,5.8 3.1,-5.5 -2.8,-11.8 -9,-9.7 z"
     id="path10318" />
  <path
     style="stroke-width:0.1"
     d="m 761.3,171.2 c -6.8,3.3 -4,13.8 3.7,13.8 2.8,0 7,-4.4 7,-7.3 0,-5.1 -6.1,-8.8 -10.7,-6.5 z"
     id="path10320" />
  <path
     style="stroke-width:0.1"
     d="m 603.6,179.1 c -1.9,1.5 -2.6,3 -2.6,5.4 0,3.6 3.6,7.5 7,7.5 3.4,0 7,-3.9 7,-7.5 0,-3.6 -3.6,-7.5 -7,-7.5 -1,0 -2.9,0.9 -4.4,2.1 z"
     id="path10322" />
  <path
     style="stroke-width:0.1"
     d="m 390.9,181.8 c -2.8,2.3 -3,7.3 -0.4,10.2 2.5,2.7 7.8,2.7 10.5,-0.2 2.6,-2.8 2.6,-5.8 -0.1,-9.2 -2.5,-3.1 -6.6,-3.5 -10,-0.8 z"
     id="path10324" />
  <path
     style="stroke-width:0.1"
     d="m 829.3,183.5 c -7,4.9 0,16 7.6,12 4.8,-2.4 5.5,-7.2 1.6,-11 -2.7,-2.8 -6.1,-3.2 -9.2,-1 z"
     id="path10326" />
  <path
     style="stroke-width:0.1"
     d="m 646.2,187 c -4.8,4.5 -1.6,12.3 5,12.3 6.4,0 9.2,-8.3 4.2,-12.2 -3.4,-2.7 -6.4,-2.7 -9.2,-0.1 z"
     id="path10328" />
  <path
     style="stroke-width:0.1"
     d="m 453.2,191.3 c -4.3,4.6 -1.6,11.7 4.6,11.9 4.3,0.1 7.2,-2.6 7.2,-6.9 0,-6.6 -7.4,-9.7 -11.8,-5 z"
     id="path10330" />
  <path
     style="stroke-width:0.1"
     d="m 907.8,192.4 c -1,0.7 -2.1,2.4 -2.6,3.7 -2.8,7.4 7.8,13 12.3,6.6 2.2,-3.1 1.8,-6.5 -1,-9.2 -2.6,-2.7 -6,-3.2 -8.7,-1.1 z"
     id="path10332" />
  <path
     style="stroke-width:0.1"
     d="m 514.5,196.5 c -4,3.9 -2.9,9.7 2.2,11.6 6.2,2.3 11.9,-4 8.9,-9.9 -2.5,-4.9 -7.2,-5.6 -11.1,-1.7 z"
     id="path10334" />
  <path
     style="stroke-width:0.1"
     d="m 685.7,194.7 c -0.9,0.2 -2.4,1.8 -3.3,3.5 -3,5.9 2.7,12.2 8.9,9.9 5.1,-1.9 6.2,-7.7 2.2,-11.6 -2.3,-2.4 -4,-2.8 -7.8,-1.8 z"
     id="path10336" />
  <path
     style="stroke-width:0.1"
     d="m 989,197 c -2.6,2.6 -2.6,8.1 0,10.5 2.9,2.6 7.9,2.4 10.2,-0.4 2.5,-3.2 2.3,-6.7 -0.7,-9.6 -2.9,-3 -6.8,-3.2 -9.5,-0.5 z"
     id="path10338" />
  <path
     style="stroke-width:0.1"
     d="m 12.2,199.3 c -4.4,4.7 -1.3,11.7 5.2,11.7 4.1,0 6.9,-2.9 6.9,-7.2 0,-6.1 -7.8,-9.1 -12.1,-4.5 z"
     id="path10340" />
  <path
     style="stroke-width:0.1"
     d="m 1065.1,200.6 c -1.2,1.5 -2.1,3.4 -2.1,4.4 0,3.4 3.9,7 7.5,7 3.6,0 7.5,-3.6 7.5,-7 0,-3.4 -3.9,-7 -7.5,-7 -2.4,0 -3.9,0.7 -5.4,2.6 z"
     id="path10342" />
  <path
     style="stroke-width:0.1"
     d="m 724.2,200.6 c -6.3,4.4 -3.7,13.4 3.9,13.4 2.8,0 6.9,-4.4 6.9,-7.3 0,-5.5 -6.5,-9.2 -10.8,-6.1 z"
     id="path10344" />
  <path
     style="stroke-width:0.1"
     d="m 577.2,202.6 c -5,3.4 -1.5,12.4 4.8,12.4 1.7,0 3.9,-0.9 5,-2 1.1,-1.1 2,-3.3 2,-5 0,-5.9 -6.7,-9 -11.8,-5.4 z"
     id="path10346" />
  <path
     style="stroke-width:0.1"
     d="m 764.1,208.6 c -2.7,3.4 -2.7,6.4 -0.1,9.2 4.7,5 14,0.6 12.5,-5.8 -1.4,-6 -8.8,-8 -12.4,-3.4 z"
     id="path10348" />
  <path
     style="stroke-width:0.1"
     d="m 76,212 c -4.3,4.3 -1.1,12 5,12 3.8,0 7,-3.2 7,-7 0,-3.8 -3.2,-7 -7,-7 -1.7,0 -3.9,0.9 -5,2 z"
     id="path10350" />
  <path
     style="stroke-width:0.1"
     d="m 807,213.3 c -7,3.5 -4.8,13.7 3,13.7 2.8,0 7,-4.4 7,-7.3 0,-5.1 -5.5,-8.6 -10,-6.4 z"
     id="path10352" />
  <path
     style="stroke-width:0.1"
     d="m 136,221 c -2.6,2.6 -2.6,8.1 -0.2,10.3 2.8,2.5 8.7,2.2 10.6,-0.5 5.1,-7.3 -4.2,-16 -10.4,-9.8 z"
     id="path10354" />
  <path
     style="stroke-width:0.1"
     d="m 845.2,221.3 c -4.5,4.8 -1.7,11.7 4.7,11.7 4.6,0 7.1,-2.4 7.1,-6.8 0,-6.5 -7.4,-9.6 -11.8,-4.9 z"
     id="path10356" />
  <path
     style="stroke-width:0.1"
     d="m 211.2,224.7 c -0.7,0.3 -1.9,1.8 -2.7,3.3 -4,7.7 7.1,14.7 12,7.7 4.2,-6 -2.4,-13.8 -9.3,-11 z"
     id="path10358" />
  <path
     style="stroke-width:0.1"
     d="m 890.3,226 c -4.6,1.9 -5.7,8.3 -2,11.8 4.7,4.4 11.7,1.3 11.7,-5.2 0,-5 -5,-8.4 -9.7,-6.6 z"
     id="path10360" />
  <path
     style="stroke-width:0.1"
     d="m 928.5,230.5 c -2.8,2.7 -3,4.2 -1.4,7.9 2.6,5.6 10.5,5.3 12.9,-0.3 3.1,-7.5 -5.8,-13.3 -11.5,-7.6 z"
     id="path10362" />
  <path
     style="stroke-width:0.1"
     d="m 269.1,233.6 c -1.2,1.5 -2.1,3.4 -2.1,4.4 0,3.4 3.9,7 7.5,7 3.6,0 7.5,-3.6 7.5,-7 0,-3.4 -3.9,-7 -7.5,-7 -2.4,0 -3.9,0.7 -5.4,2.6 z"
     id="path10364" />
  <path
     style="stroke-width:0.1"
     d="m 969.6,235.1 c -1.9,1.5 -2.6,3 -2.6,5.4 0,3.7 3.7,7.5 7.2,7.5 2.7,0 6.8,-4.5 6.8,-7.5 0,-3 -4.1,-7.5 -6.8,-7.5 -1.1,0 -3.1,0.9 -4.6,2.1 z"
     id="path10366" />
  <path
     style="stroke-width:0.1"
     d="m 332,238 c -4.5,4.5 -1.1,12 5.3,12 4.2,0 6.7,-2.6 6.7,-6.8 0,-4.1 -3.1,-7.2 -7,-7.2 -1.7,0 -3.9,0.9 -5,2 z"
     id="path10368" />
  <path
     style="stroke-width:0.1"
     d="m 1010.1,238.6 c -1.2,1.5 -2.1,3.4 -2.1,4.4 0,3.4 3.9,7 7.5,7 2.4,0 3.9,-0.7 5.4,-2.6 2.7,-3.5 2.6,-5.9 -0.4,-8.9 -3.3,-3.4 -7.7,-3.3 -10.4,0.1 z"
     id="path10370" />
  <path
     style="stroke-width:0.1"
     d="m 395.7,238.1 c -4.8,2.8 -4,10.7 1.2,12.9 7.5,3.1 13.4,-5.8 7.6,-11.5 -2.5,-2.6 -5.8,-3.1 -8.8,-1.4 z"
     id="path10372" />
  <path
     style="stroke-width:0.1"
     d="m 1055.9,239.2 c -1.6,0.5 -3.2,2.2 -3.9,3.9 -3.5,8.4 8.4,13.7 12.9,5.8 3.1,-5.5 -2.8,-11.8 -9,-9.7 z"
     id="path10374" />
  <path
     style="stroke-width:0.1"
     d="m 456,243 c -2.6,2.6 -2.6,8.1 0,10.5 2.9,2.6 7.9,2.4 10.2,-0.4 2.5,-3.2 2.3,-6.7 -0.7,-9.6 -2.9,-3 -6.8,-3.2 -9.5,-0.5 z"
     id="path10376" />
  <path
     style="stroke-width:0.1"
     d="m 520.3,246.5 c -6.6,4.6 -0.8,15 6.8,12.3 2.6,-0.9 4.9,-4.4 4.9,-7.4 0,-2.3 -4.6,-6.4 -7.2,-6.4 -1.3,0 -3.3,0.7 -4.5,1.5 z"
     id="path10378" />
  <path
     style="stroke-width:0.1"
     d="m 582.2,247.3 c -4.5,4.8 -1.7,11.7 4.7,11.7 4.6,0 7.1,-2.4 7.1,-6.8 0,-6.5 -7.4,-9.6 -11.8,-4.9 z"
     id="path10380" />
  <path
     style="stroke-width:0.1"
     d="m 704.5,247.5 c -2.8,2.7 -3,4.2 -1.4,7.9 3.2,6.9 13.9,3.8 13.9,-4 0,-2.4 -4.7,-6.4 -7.5,-6.4 -1.4,0 -3.7,1.1 -5,2.5 z"
     id="path10382" />
  <path
     style="stroke-width:0.1"
     d="m 646.3,247.2 c -6.8,3.3 -4,13.8 3.7,13.8 2.8,0 7,-4.4 7,-7.3 0,-5.1 -6.1,-8.8 -10.7,-6.5 z"
     id="path10384" />
  <path
     style="stroke-width:0.1"
     d="m 957.2,264.3 c -4.5,4.8 -1.4,11.7 5.1,11.7 4.2,0 6.7,-2.6 6.7,-6.8 0,-6.5 -7.4,-9.6 -11.8,-4.9 z"
     id="path10386" />
  <path
     style="stroke-width:0.1"
     d="m 904.2,270.3 c -4.5,4.8 -1.7,11.7 4.7,11.7 4.6,0 7.1,-2.4 7.1,-6.8 0,-6.5 -7.4,-9.6 -11.8,-4.9 z"
     id="path10388" />
  <path
     style="stroke-width:0.1"
     d="m 1106,274 c -2.4,2.4 -2.6,6.7 -0.4,9.8 1.1,1.6 2.5,2.2 5.4,2.2 2.9,0 4.3,-0.6 5.4,-2.2 3.6,-5.1 0.5,-11.8 -5.4,-11.8 -1.7,0 -3.9,0.9 -5,2 z"
     id="path10390" />
  <path
     style="stroke-width:0.1"
     d="m 853.1,275.6 c -1.2,1.5 -2.1,3.4 -2.1,4.4 0,1 0.9,2.9 2.1,4.4 4.1,5.2 12.2,2.3 12.2,-4.4 0,-6.7 -8.1,-9.6 -12.2,-4.4 z"
     id="path10392" />
  <path
     style="stroke-width:0.1"
     d="m 799.5,280.5 c -2.9,2.8 -3.1,5.1 -0.9,8.3 4.3,6.2 13.4,3.2 13.4,-4.4 0,-2.4 -4.7,-6.4 -7.5,-6.4 -1.4,0 -3.7,1.1 -5,2.5 z"
     id="path10394" />
  <path
     style="stroke-width:0.1"
     d="m 754.2,283.7 c -0.7,0.3 -1.9,1.8 -2.8,3.5 -1.3,2.4 -1.3,3.5 -0.4,5.8 3.1,7.4 14,5.1 14,-3 0,-4.5 -6.3,-8.1 -10.8,-6.3 z"
     id="path10396" />
  <path
     style="stroke-width:0.1"
     d="m 700.1,289.6 c -2.7,3.5 -2.6,5.9 0.4,8.9 3.3,3.4 7.7,3.3 10.4,-0.1 1.2,-1.5 2.1,-3.4 2.1,-4.4 0,-3.4 -3.9,-7 -7.5,-7 -2.4,0 -3.9,0.7 -5.4,2.6 z"
     id="path10398" />
  <path
     style="stroke-width:0.1"
     d="m 35.5,293 c -4.2,4.7 -0.8,12 5.5,12 3.3,0 7,-4 7,-7.6 0,-5.7 -8.6,-8.7 -12.5,-4.4 z"
     id="path10400" />
  <path
     style="stroke-width:0.1"
     d="m 1031,291.7 c -5.1,1.9 -6.8,8.5 -3,12.3 6.1,6.1 15.9,-3.3 10.3,-9.8 -2,-2.3 -5,-3.3 -7.3,-2.5 z"
     id="path10402" />
  <path
     style="stroke-width:0.1"
     d="m 648.1,294.6 c -1.2,1.5 -2.1,3.4 -2.1,4.4 0,3.4 3.9,7 7.5,7 3.6,0 7.5,-3.6 7.5,-7 0,-3.4 -3.9,-7 -7.5,-7 -2.4,0 -3.9,0.7 -5.4,2.6 z"
     id="path10404" />
  <path
     style="stroke-width:0.1"
     d="m 100,294.7 c -5.1,1.9 -6.8,8.5 -3,12.3 6.1,6.1 15.9,-3.2 10.3,-9.8 -2,-2.3 -5,-3.3 -7.3,-2.5 z"
     id="path10406" />
  <path
     style="stroke-width:0.1"
     d="m 589,294.7 c -7.6,2.7 -5.8,14.3 2.1,14.3 5.5,0 9.2,-8.7 5.2,-12.2 -2.2,-1.9 -5.3,-2.8 -7.3,-2.1 z"
     id="path10408" />
  <path
     style="stroke-width:0.1"
     d="m 159.1,298.6 c -1.2,1.5 -2.1,3.4 -2.1,4.4 0,3.4 3.9,7 7.5,7 3.6,0 7.5,-3.6 7.5,-7 0,-3.4 -3.9,-7 -7.5,-7 -2.4,0 -3.9,0.7 -5.4,2.6 z"
     id="path10410" />
  <path
     style="stroke-width:0.1"
     d="m 212.2,298.3 c -2.8,3 -2.8,6.8 0.1,9.5 4.8,4.5 12,1.6 12,-4.8 0,-6.5 -7.6,-9.5 -12.1,-4.7 z"
     id="path10412" />
  <path
     style="stroke-width:0.1"
     d="m 276.6,299.1 c -5,3.9 -2.2,12.2 4.2,12.2 6.6,0 9.8,-7.8 5,-12.3 -2.8,-2.6 -5.8,-2.6 -9.2,0.1 z"
     id="path10414" />
  <path
     style="stroke-width:0.1"
     d="m 525,299 c -2.6,2.6 -2.6,8.1 0,10.5 2.9,2.6 7.9,2.4 10.2,-0.4 2.5,-3.2 2.3,-6.7 -0.7,-9.6 -2.9,-3 -6.8,-3.2 -9.5,-0.5 z"
     id="path10416" />
  <path
     style="stroke-width:0.1"
     d="m 399.8,299.5 c -7.8,4.3 -1.4,16.4 6.8,12.6 5.4,-2.4 5.3,-10.5 -0.2,-13 -3.1,-1.4 -3.3,-1.4 -6.6,0.4 z"
     id="path10418" />
  <path
     style="stroke-width:0.1"
     d="m 464,299.3 c -5.2,2.6 -4.9,10.4 0.4,12.8 8.1,3.7 13.8,-7.3 6.4,-12.5 -2.7,-1.9 -3.5,-2 -6.8,-0.3 z"
     id="path10420" />
  <path
     style="stroke-width:0.1"
     d="m 337,302.2 c -2.7,2.9 -2.5,6.9 0.3,9.6 4.6,4.3 12,1.5 12,-4.6 0,-6.6 -7.8,-9.8 -12.3,-5 z"
     id="path10422" />
  <path
     style="stroke-width:0.1"
     d="m 943.2,313.3 c -4.5,4.8 -1.4,11.7 5.1,11.7 4.2,0 6.7,-2.6 6.7,-6.8 0,-6.5 -7.4,-9.6 -11.8,-4.9 z"
     id="path10424" />
  <path
     style="stroke-width:0.1"
     d="m 1077.2,327.6 c -2.9,2 -3,7.6 -0.2,10.4 4.3,4.3 12,1.1 12,-5 0,-5.9 -6.7,-9 -11.8,-5.4 z"
     id="path10426" />
  <path
     style="stroke-width:0.1"
     d="m 865.5,330.2 c -2.8,1.6 -3.5,2.8 -3.5,6.5 0,3.5 3.7,7.3 7.2,7.3 2.7,0 6.8,-4.5 6.8,-7.5 0,-3 -4.1,-7.5 -6.7,-7.5 -1,0 -2.7,0.6 -3.8,1.2 z"
     id="path10428" />
  <path
     style="stroke-width:0.1"
     d="m 1038,337 c -2.6,2.6 -2.6,8.1 -0.2,10.3 4.4,4 12.2,0.7 12.2,-5.1 0,-6 -7.8,-9.4 -12,-5.2 z"
     id="path10430" />
  <path
     style="stroke-width:0.1"
     d="m 774,347 c -1.1,1.1 -2,3.3 -2,5 0,1.7 0.9,3.9 2,5 1.1,1.1 3.3,2 5,2 1.7,0 3.9,-0.9 5,-2 1.1,-1.1 2,-3.3 2,-5 0,-1.7 -0.9,-3.9 -2,-5 -1.1,-1.1 -3.3,-2 -5,-2 -1.7,0 -3.9,0.9 -5,2 z"
     id="path10432" />
  <path
     style="stroke-width:0.1"
     d="m 997.6,347.3 c -1.5,1.5 -2.6,3.8 -2.6,5.2 0,1.4 1.1,3.7 2.6,5.2 2,2 3.1,2.4 5.7,1.9 4.3,-0.9 6.1,-2.9 6.1,-7.1 0,-4.2 -1.8,-6.2 -6.1,-7.1 -2.6,-0.5 -3.7,-0.1 -5.7,1.9 z"
     id="path10434" />
  <path
     style="stroke-width:0.1"
     d="m 956.7,356 c -3.5,2.8 -3.7,8 -0.5,11 2.9,2.7 6.4,2.5 9.3,-0.5 6.3,-6.3 -1.8,-16 -8.8,-10.5 z"
     id="path10436" />
  <path
     style="stroke-width:0.1"
     d="m 693.2,360.3 c -4.5,4.8 -1.4,11.7 5.1,11.7 4.3,0 6.7,-2.6 6.7,-7.3 0,-6.3 -7.4,-9.1 -11.8,-4.4 z"
     id="path10438" />
  <path
     style="stroke-width:0.1"
     d="m 915.1,363.6 c -1.2,1.5 -2.1,3.4 -2.1,4.4 0,3.4 3.9,7 7.5,7 2.4,0 3.9,-0.7 5.4,-2.6 2.7,-3.5 2.6,-5.9 -0.4,-8.9 -3.3,-3.4 -7.7,-3.3 -10.4,0.1 z"
     id="path10440" />
  <path
     style="stroke-width:0.1"
     d="m 619,369 c -2.6,2.6 -2.6,8.1 -0.2,10.3 2.8,2.5 8.7,2.2 10.6,-0.5 3.6,-5.1 0.5,-11.8 -5.4,-11.8 -1.7,0 -3.9,0.9 -5,2 z"
     id="path10442" />
  <path
     style="stroke-width:0.1"
     d="m 1045,371.7 c -3.7,4.7 -0.2,11.3 6,11.3 3.1,0 7,-3.9 7,-7 0,-1 -0.9,-2.9 -2.1,-4.4 -2.9,-3.6 -8,-3.6 -10.9,0.1 z"
     id="path10444" />
  <path
     style="stroke-width:0.1"
     d="m 879.4,372.1 c -3.2,1.6 -4.8,5.6 -3.4,8.9 1.1,2.7 4.6,5 7.6,5 2.3,0 6.4,-4.7 6.4,-7.3 0,-5.1 -6.1,-8.8 -10.6,-6.6 z"
     id="path10446" />
  <path
     style="stroke-width:0.1"
     d="m 49.6,374.1 c -4.6,3.6 -2.6,11 3.4,12.4 3.8,0.9 8,-2.7 8,-6.8 0,-3.8 -0.7,-5 -3.7,-6.6 -3.1,-1.6 -4.7,-1.4 -7.7,1 z"
     id="path10448" />
  <path
     style="stroke-width:0.1"
     d="m 550,377 c -1.1,1.1 -2,3.3 -2,5 0,1.7 0.9,3.9 2,5 1.1,1.1 3.3,2 5,2 1.7,0 3.9,-0.9 5,-2 1.1,-1.1 2,-3.3 2,-5 0,-1.7 -0.9,-3.9 -2,-5 -1.1,-1.1 -3.3,-2 -5,-2 -1.7,0 -3.9,0.9 -5,2 z"
     id="path10450" />
  <path
     style="stroke-width:0.1"
     d="m 126,381 c -1.1,1.1 -2,3.3 -2,5 0,1.7 0.9,3.9 2,5 1.1,1.1 3.3,2 5,2 1.7,0 3.9,-0.9 5,-2 4.3,-4.3 1.1,-12 -5,-12 -1.7,0 -3.9,0.9 -5,2 z"
     id="path10452" />
  <path
     style="stroke-width:0.1"
     d="m 836.2,379.7 c -0.7,0.3 -1.9,1.8 -2.7,3.3 -4,7.7 7.1,14.7 12,7.7 4.2,-6 -2.4,-13.8 -9.3,-11 z"
     id="path10454" />
  <path
     style="stroke-width:0.1"
     d="m 214,380.7 c -5.5,2 -6.8,8.7 -2.4,12.2 1.5,1.2 3.4,2.1 4.4,2.1 3.3,0 7,-3.9 7,-7.4 0,-4.6 -4.9,-8.4 -9,-6.9 z"
     id="path10456" />
  <path
     style="stroke-width:0.1"
     d="m 483.5,382.5 c -2.9,2.8 -3.1,5.1 -0.9,8.3 4.3,6.2 13.4,3.2 13.4,-4.4 0,-2.4 -4.7,-6.4 -7.5,-6.4 -1.4,0 -3.7,1.1 -5,2.5 z"
     id="path10458" />
  <path
     style="stroke-width:0.1"
     d="m 279.2,386.3 c -4.5,4.8 -1.4,11.7 5.1,11.7 4.2,0 6.7,-2.6 6.7,-6.8 0,-6.5 -7.4,-9.6 -11.8,-4.9 z"
     id="path10460" />
  <path
     style="stroke-width:0.1"
     d="m 342.2,385.7 c -3.2,2.7 -3.7,6.4 -1.2,9.6 2.8,3.5 8,3.7 11,0.5 5.8,-6.3 -3.2,-15.6 -9.8,-10.1 z"
     id="path10462" />
  <path
     style="stroke-width:0.1"
     d="m 413.2,386.3 c -4.5,4.8 -1.4,11.7 5.1,11.7 4.3,0 7,-2.9 6.9,-7.2 -0.2,-6.3 -7.7,-9.1 -12,-4.5 z"
     id="path10464" />
  <path
     style="stroke-width:0.1"
     d="m 794,388.2 c -2.6,2.8 -2.6,5.8 0.1,9.2 3.9,5 12.2,2.2 12.2,-4.2 0,-6.6 -7.8,-9.8 -12.3,-5 z"
     id="path10466" />
  <path
     style="stroke-width:0.1"
     d="m 754.6,394.1 c -5.2,4.1 -2.3,12.2 4.4,12.2 6.7,0 9.6,-8.1 4.4,-12.2 -1.5,-1.2 -3.4,-2.1 -4.4,-2.1 -1,0 -2.9,0.9 -4.4,2.1 z"
     id="path10468" />
  <path
     style="stroke-width:0.1"
     d="m 713,401.7 c -3.7,4.7 -0.2,11.3 6,11.3 3.1,0 7,-3.9 7,-7 0,-1 -0.9,-2.9 -2.1,-4.4 -2.9,-3.6 -8,-3.6 -10.9,0.1 z"
     id="path10470" />
  <path
     style="stroke-width:0.1"
     d="m 672.6,407.1 c -1.9,1.5 -2.6,3 -2.6,5.4 0,3.6 3.6,7.5 7,7.5 3.4,0 7,-3.9 7,-7.5 0,-3.6 -3.6,-7.5 -7,-7.5 -1,0 -2.9,0.9 -4.4,2.1 z"
     id="path10472" />
  <path
     style="stroke-width:0.1"
     d="m 899,406.7 c -5.3,1.9 -6.8,8.6 -2.8,12.3 6.3,5.8 15.7,-3.3 10.1,-9.8 -2,-2.3 -5,-3.3 -7.3,-2.5 z"
     id="path10474" />
  <path
     style="stroke-width:0.1"
     d="m 632,411.3 c -1.3,0.7 -2.9,2.5 -3.4,3.9 -2.9,8.3 9.4,13.7 12.8,5.6 1.7,-3.9 1.1,-6.3 -2.2,-8.8 -2.9,-2.3 -3.8,-2.4 -7.2,-0.7 z"
     id="path10476" />
  <path
     style="stroke-width:0.1"
     d="m 590,419 c -2.6,2.6 -2.6,8.1 -0.2,10.3 2.5,2.3 7.8,2.1 10.2,-0.3 4.3,-4.3 1.1,-12 -5,-12 -1.7,0 -3.9,0.9 -5,2 z"
     id="path10478" />
  <path
     style="stroke-width:0.1"
     d="m 549.5,424.5 c -2.8,2.7 -3,4.2 -1.4,7.9 1.6,3.4 5.8,5.1 9.1,3.5 2.6,-1.1 4.8,-4.6 4.8,-7.5 0,-2.4 -4.7,-6.4 -7.5,-6.4 -1.4,0 -3.7,1.1 -5,2.5 z"
     id="path10480" />
  <path
     style="stroke-width:0.1"
     d="m 961.2,424.3 c -4.5,4.8 -1.6,12 4.8,12 6.5,0 9.5,-7.6 4.7,-12.1 -3,-2.8 -6.8,-2.8 -9.5,0.1 z"
     id="path10482" />
  <path
     style="stroke-width:0.1"
     d="m 509.2,428.3 c -4.5,4.8 -1.7,11.7 4.7,11.7 4.6,0 7.1,-2.4 7.1,-6.8 0,-6.5 -7.4,-9.6 -11.8,-4.9 z"
     id="path10484" />
  <path
     style="stroke-width:0.1"
     d="m 469.9,433.2 c -1.6,0.5 -3.2,2.2 -3.9,3.9 -3.5,8.4 8.4,13.7 12.9,5.8 3.1,-5.5 -2.8,-11.8 -9,-9.7 z"
     id="path10486" />
  <path
     style="stroke-width:0.1"
     d="m 1022,433.3 c -1.4,0.7 -3.1,2.4 -3.9,3.8 -1.2,2.2 -1.2,2.9 0,5.4 2.7,5.7 10.5,5.7 13.1,0 2.6,-5.7 -3.7,-11.9 -9.2,-9.2 z"
     id="path10488" />
  <path
     style="stroke-width:0.1"
     d="m 735.8,437.6 c -5.1,2.7 -4.6,10.1 0.7,12.6 5.8,2.6 11.9,-3.3 9.5,-9.1 -0.6,-1.6 -2.3,-3.3 -3.6,-4 -3.1,-1.4 -3.3,-1.4 -6.6,0.5 z"
     id="path10490" />
  <path
     style="stroke-width:0.1"
     d="m 428.1,440.6 c -1.2,1.5 -2.1,3.4 -2.1,4.4 0,3.4 3.9,7 7.5,7 3.6,0 7.5,-3.6 7.5,-7 0,-3.4 -3.9,-7 -7.5,-7 -2.4,0 -3.9,0.7 -5.4,2.6 z"
     id="path10492" />
  <path
     style="stroke-width:0.1"
     d="m 1081.6,442.1 c -2.6,2 -3.6,6.9 -1.8,9.5 1,1.5 4.7,3.4 6.7,3.4 2.5,0 6.5,-4.6 6.5,-7.5 0,-3 -4.1,-7.5 -6.8,-7.5 -1.1,0 -3.1,0.9 -4.6,2.1 z"
     id="path10494" />
  <path
     style="stroke-width:0.1"
     d="m 380.5,446 c -4.1,4.5 -1,12 5,12 3.8,0 7.5,-3.5 7.5,-7.1 0,-5.8 -8.7,-9.1 -12.5,-4.9 z"
     id="path10496" />
  <path
     style="stroke-width:0.1"
     d="m 336.1,450.6 c -1.2,1.5 -2.1,3.4 -2.1,4.4 0,3.4 3.9,7 7.5,7 3.6,0 7.5,-3.6 7.5,-7 0,-3.4 -3.9,-7 -7.5,-7 -2.4,0 -3.9,0.7 -5.4,2.6 z"
     id="path10498" />
  <path
     style="stroke-width:0.1"
     d="m 293.5,451.5 c -2.8,2.7 -3.1,4.5 -1.4,7.8 1.6,3 2.8,3.7 6.6,3.7 3.5,0 7.3,-3.7 7.3,-7.2 0,-2.7 -4.5,-6.8 -7.5,-6.8 -1.4,0 -3.7,1.1 -5,2.5 z"
     id="path10500" />
  <path
     style="stroke-width:0.1"
     d="m 796,449.7 c -5.5,2 -6.8,8.7 -2.4,12.2 3.5,2.7 6.5,2.7 9.2,-0.2 2.7,-2.8 2.9,-7.8 0.5,-9.9 -2.2,-1.9 -5.3,-2.8 -7.3,-2.1 z"
     id="path10502" />
  <path
     style="stroke-width:0.1"
     d="m 33.1,454.6 c -1.2,1.5 -2.1,3.5 -2.1,4.6 0,2.7 4.5,6.8 7.5,6.8 3,0 7.5,-4.1 7.5,-6.8 0,-3.5 -3.8,-7.2 -7.5,-7.2 -2.4,0 -3.9,0.7 -5.4,2.6 z"
     id="path10504" />
  <path
     style="stroke-width:0.1"
     d="m 73.7,455.1 c -4.8,2.8 -4,10.7 1.2,12.9 7.5,3.1 13.4,-5.8 7.6,-11.5 -2.5,-2.6 -5.8,-3.1 -8.8,-1.4 z"
     id="path10506" />
  <path
     style="stroke-width:0.1"
     d="m 253.5,455.2 c -2.8,1.6 -3.5,2.8 -3.5,6.5 0,3.5 3.7,7.3 7.2,7.3 2.7,0 6.8,-4.5 6.8,-7.5 0,-3 -4.1,-7.5 -6.7,-7.5 -1,0 -2.7,0.6 -3.8,1.2 z"
     id="path10508" />
  <path
     style="stroke-width:0.1"
     d="m 118,459 c -4.5,4.5 -1.1,12 5.3,12 4.3,0 6.7,-2.6 6.7,-7.3 0,-2.6 -0.6,-4 -2.2,-5.1 -3.1,-2.2 -7.4,-2 -9.8,0.4 z"
     id="path10510" />
  <path
     style="stroke-width:0.1"
     d="m 163.8,460.6 c -5.1,2.7 -4.6,10.1 0.7,12.6 5.8,2.6 11.9,-3.3 9.5,-9.1 -0.6,-1.6 -2.3,-3.3 -3.6,-4 -3.1,-1.4 -3.3,-1.4 -6.6,0.5 z"
     id="path10512" />
  <path
     style="stroke-width:0.1"
     d="m 208.3,460 c -2.5,1 -4.3,3.9 -4.3,7 0,2.9 4.4,7 7.5,7 6.2,0 8.9,-8.9 3.9,-12.9 -2.9,-2.3 -3.8,-2.4 -7.1,-1.1 z"
     id="path10514" />
  <path
     style="stroke-width:0.1"
     d="m 855.5,467.5 c -1.4,1.3 -2.5,3.1 -2.5,3.9 0,5.4 5.8,9.6 10.4,7.5 2.4,-1.1 4.6,-4.7 4.6,-7.5 0,-2.4 -4.7,-6.4 -7.5,-6.4 -1.4,0 -3.7,1.1 -5,2.5 z"
     id="path10516" />
  <path
     style="stroke-width:0.1"
     d="m 537.5,469.5 c -4,3.9 -2.9,9.7 2.2,11.6 6.2,2.3 11.9,-4 8.9,-9.9 -2.5,-4.9 -7.2,-5.6 -11.1,-1.7 z"
     id="path10518" />
  <path
     style="stroke-width:0.1"
     d="m 916.5,479 c -4.1,4.5 -1,12 5,12 3.8,0 7.5,-3.5 7.5,-7.1 0,-5.8 -8.7,-9.1 -12.5,-4.9 z"
     id="path10520" />
  <path
     style="stroke-width:0.1"
     d="m 15.3,483 c -4.8,1.9 -5.8,8.7 -1.7,11.9 3.4,2.7 6.4,2.7 9.2,0.1 5.7,-5.3 -0.3,-14.9 -7.5,-12 z"
     id="path10522" />
  <path
     style="stroke-width:0.1"
     d="m 144.6,487.2 c -5,7.1 4.3,15.9 10.4,9.8 2.6,-2.6 2.6,-8.1 0.2,-10.3 -2.8,-2.5 -8.7,-2.2 -10.6,0.5 z"
     id="path10524" />
  <path
     style="stroke-width:0.1"
     d="m 225,487 c -2.6,2.6 -2.5,6 0.1,9.4 2.5,3.1 6.6,3.5 10,0.8 2.8,-2.3 3,-7.3 0.4,-10.2 -2.4,-2.6 -7.9,-2.6 -10.5,0 z"
     id="path10526" />
  <path
     style="stroke-width:0.1"
     d="m 978,488 c -2.6,2.6 -2.6,8.1 -0.2,10.3 2.5,2.3 7.8,2.1 10.2,-0.3 4.3,-4.3 1.1,-12 -5,-12 -1.7,0 -3.9,0.9 -5,2 z"
     id="path10528" />
  <path
     style="stroke-width:0.1"
     d="m 385.3,489.5 c -7,4.9 0,16 7.6,12 4.8,-2.4 5.5,-7.2 1.6,-11 -2.7,-2.8 -6.1,-3.2 -9.2,-1 z"
     id="path10530" />
  <path
     style="stroke-width:0.1"
     d="m 617.5,490.5 c -4.6,4.6 -1.9,11.8 4.4,11.8 6.6,0 9.8,-7.6 5.1,-12.3 -2.7,-2.7 -6.6,-2.5 -9.5,0.5 z"
     id="path10532" />
  <path
     style="stroke-width:0.1"
     d="m 1040.1,496.6 c -1.2,1.5 -2.1,3.4 -2.1,4.4 0,3.4 3.9,7 7.5,7 3.6,0 7.5,-3.6 7.5,-7 0,-3.4 -3.9,-7 -7.5,-7 -2.4,0 -3.9,0.7 -5.4,2.6 z"
     id="path10534" />
  <path
     style="stroke-width:0.1"
     d="m 1100,500 c -2.6,2.6 -2.5,6 0.1,9.4 2.5,3.1 6.6,3.5 10,0.8 2.8,-2.3 3,-7.3 0.4,-10.2 -2.4,-2.6 -7.9,-2.6 -10.5,0 z"
     id="path10536" />
  <path
     style="stroke-width:0.1"
     d="m 262.3,501.8 c -5.1,0.8 -7,8.3 -3,12 4.8,4.5 11.7,1.4 11.7,-5.1 0,-4.8 -3.8,-7.7 -8.7,-6.9 z"
     id="path10538" />
  <path
     style="stroke-width:0.1"
     d="m 680.7,507.2 c -3.7,3.3 -4,7.5 -0.7,10.8 2.7,2.7 6.6,2.5 9.5,-0.5 2.9,-2.8 3.2,-6.5 0.8,-9.3 -2.8,-3.3 -6.6,-3.7 -9.6,-1 z"
     id="path10540" />
  <path
     style="stroke-width:0.1"
     d="m 108,509.7 c -3.7,4.7 -0.4,11.3 5.6,11.3 3.5,0 7.4,-3.7 7.4,-7 0,-1 -0.9,-2.9 -2.1,-4.4 -2.9,-3.6 -8,-3.6 -10.9,0.1 z"
     id="path10542" />
  <path
     style="stroke-width:0.1"
     d="m 462.3,516 c -4.8,2 -5.8,8.7 -1.7,11.9 3.4,2.7 6.4,2.7 9.2,0.1 3.2,-3 3,-8.2 -0.4,-10.9 -2.9,-2.3 -3.8,-2.4 -7.1,-1.1 z"
     id="path10544" />
  <path
     style="stroke-width:0.1"
     d="m 71,523 c -2.6,2.6 -2.6,8.1 0,10.5 2.9,2.6 7.9,2.4 10.2,-0.4 2.7,-3.4 2.3,-7.5 -0.8,-10 C 77,520.5 73.6,520.4 71,523 Z"
     id="path10546" />
  <path
     style="stroke-width:0.1"
     d="m 297.2,523 c -4.8,4.5 -1.6,12.3 5,12.3 6.1,0 9.1,-7.8 4.5,-12.1 -2.9,-2.8 -6.7,-2.8 -9.5,-0.2 z"
     id="path10548" />
  <path
     style="stroke-width:0.1"
     d="m 752.5,525 c -4.2,4.6 -1,12 5.1,12 3.5,0 7.4,-3.7 7.4,-7 0,-1 -0.9,-2.9 -2.1,-4.4 -2.6,-3.3 -7.7,-3.6 -10.4,-0.6 z"
     id="path10550" />
  <path
     style="stroke-width:0.1"
     d="m 826.7,534.1 c -4.8,2.8 -4,10.7 1.2,12.9 7.5,3.1 13.4,-5.8 7.6,-11.5 -2.5,-2.6 -5.8,-3.1 -8.8,-1.4 z"
     id="path10552" />
  <path
     style="stroke-width:0.1"
     d="m 334.5,539 c -4.2,4.7 -0.8,12 5.5,12 3.3,0 7,-4 7,-7.4 0,-5.7 -8.6,-8.9 -12.5,-4.6 z"
     id="path10554" />
  <path
     style="stroke-width:0.1"
     d="m 33.2,540.3 c -4.5,4.8 -1.7,11.7 4.7,11.7 4.6,0 7.1,-2.4 7.1,-6.8 0,-6.5 -7.4,-9.6 -11.8,-4.9 z"
     id="path10556" />
  <path
     style="stroke-width:0.1"
     d="m 146.6,542.1 c -3.6,2.9 -3.6,8 0.1,10.9 4.7,3.7 11.3,0.4 11.3,-5.6 0,-3.5 -3.7,-7.4 -7,-7.4 -1,0 -2.9,0.9 -4.4,2.1 z"
     id="path10558" />
  <path
     style="stroke-width:0.1"
     d="m 541.3,542.2 c -5.1,2.4 -5,10.6 0.1,12.9 8.3,3.8 14.7,-8.4 6.6,-12.6 -3.3,-1.7 -3.7,-1.7 -6.7,-0.3 z"
     id="path10560" />
  <path
     style="stroke-width:0.1"
     d="m 905.6,545.6 c -2.7,2.7 -3.1,6.3 -0.9,9.2 2.8,3.8 7.5,4.1 10.8,0.8 3,-3.1 3.2,-5.5 0.4,-9 -2.4,-3 -7.8,-3.6 -10.3,-1 z"
     id="path10562" />
  <path
     style="stroke-width:0.1"
     d="m 974,548 c -4.3,4.3 -1.1,12 5,12 3.8,0 7,-3.2 7,-7 0,-3.8 -3.2,-7 -7,-7 -1.7,0 -3.9,0.9 -5,2 z"
     id="path10564" />
  <path
     style="stroke-width:0.1"
     d="m 1036.1,552.6 c -1.2,1.5 -2.1,3.4 -2.1,4.4 0,3.4 3.9,7 7.5,7 3.6,0 7.5,-3.6 7.5,-7 0,-3.4 -3.9,-7 -7.5,-7 -2.4,0 -3.9,0.7 -5.4,2.6 z"
     id="path10566" />
  <path
     style="stroke-width:0.1"
     d="m 1096.1,552.6 c -1.2,1.5 -2.1,3.4 -2.1,4.4 0,3.4 3.9,7 7.5,7 3.6,0 7.5,-3.6 7.5,-7 0,-3.4 -3.9,-7 -7.5,-7 -2.4,0 -3.9,0.7 -5.4,2.6 z"
     id="path10568" />
  <path
     style="stroke-width:0.1"
     d="m 209.6,553.2 c -5,7.1 4.3,15.9 10.4,9.8 2.6,-2.6 2.6,-8.1 0.2,-10.3 -2.8,-2.5 -8.7,-2.2 -10.6,0.5 z"
     id="path10570" />
  <path
     style="stroke-width:0.1"
     d="m 375.2,553.3 c -4.5,4.8 -1.7,11.7 4.7,11.7 4.6,0 7.1,-2.4 7.1,-6.8 0,-6.5 -7.4,-9.6 -11.8,-4.9 z"
     id="path10572" />
  <path
     style="stroke-width:0.1"
     d="m 265,559 c -2.6,2.6 -2.6,8.1 0,10.5 2.9,2.6 7.9,2.4 10.2,-0.4 2.7,-3.4 2.3,-7.5 -0.8,-10 -3.4,-2.6 -6.8,-2.7 -9.4,-0.1 z"
     id="path10574" />
  <path
     style="stroke-width:0.1"
     d="m 320.7,565.8 c -4,4.4 -0.7,12.2 5.1,12.2 6,0 9.4,-7.8 5.2,-12 -2.6,-2.6 -8.1,-2.6 -10.3,-0.2 z"
     id="path10576" />
  <path
     style="stroke-width:0.1"
     d="m 416.9,565.8 c -1.5,1.3 -2.2,3 -2.2,5.1 0,6.6 7.6,9.8 12.3,5.1 2.7,-2.7 2.5,-6.6 -0.5,-9.5 -2.9,-3 -6.4,-3.2 -9.6,-0.7 z"
     id="path10578" />
  <path
     style="stroke-width:0.1"
     d="m 624,566 c -4.2,4.2 -0.8,12 5.3,12 5.8,0 9.1,-8.5 4.9,-12.3 -2.5,-2.3 -7.8,-2.1 -10.2,0.3 z"
     id="path10580" />
  <path
     style="stroke-width:0.1"
     d="m 456,579 c -2.6,2.6 -2.6,8.1 0,10.5 2.9,2.6 7.9,2.4 10.2,-0.4 2.7,-3.4 2.3,-7.5 -0.8,-10 -3.4,-2.6 -6.8,-2.7 -9.4,-0.1 z"
     id="path10582" />
  <path
     style="stroke-width:0.1"
     d="m 718,584 c -4.3,4.3 -1.1,12 5,12 3.8,0 7,-3.2 7,-7 0,-3.8 -3.2,-7 -7,-7 -1.7,0 -3.9,0.9 -5,2 z"
     id="path10584" />
  <path
     style="stroke-width:0.1"
     d="m 494,588.3 c -7.6,3.8 -2.8,15.4 5.5,13.3 2.9,-0.7 5.6,-5.6 4.8,-8.7 -1.1,-4.1 -6.5,-6.5 -10.3,-4.6 z"
     id="path10586" />
  <path
     style="stroke-width:0.1"
     d="m 804,597 c -2.6,2.6 -2.6,8.1 -0.2,10.3 2.5,2.3 7.8,2.1 10.2,-0.3 4.3,-4.3 1.1,-12 -5,-12 -1.7,0 -3.9,0.9 -5,2 z"
     id="path10588" />
  <path
     style="stroke-width:0.1"
     d="m 535.2,600.3 c -4.5,4.8 -1.4,11.7 5.1,11.7 4.3,0 6.7,-2.6 6.7,-7.3 0,-6.3 -7.4,-9.1 -11.8,-4.4 z"
     id="path10590" />
  <path
     style="stroke-width:0.1"
     d="m 888.5,606.5 c -3,3 -3.1,5.4 -0.4,8.9 1.5,1.9 3,2.6 5.4,2.6 3.7,0 7.5,-3.7 7.5,-7.2 0,-2.7 -4.5,-6.8 -7.5,-6.8 -1.4,0 -3.7,1.1 -5,2.5 z"
     id="path10592" />
  <path
     style="stroke-width:0.1"
     d="m 574.5,610.5 c -1.4,1.3 -2.5,3.6 -2.5,5 0,2.8 4,7.5 6.4,7.5 7.8,0 10.9,-10.7 4,-13.9 -3.7,-1.6 -5.2,-1.4 -7.9,1.4 z"
     id="path10594" />
  <path
     style="stroke-width:0.1"
     d="m 969.5,611.5 c -2.8,2.7 -3.2,6.1 -1,9.2 4.7,6.6 15,0.8 12.3,-7 -1.8,-5.1 -7.4,-6.2 -11.3,-2.2 z"
     id="path10596" />
  <path
     style="stroke-width:0.1"
     d="m 1051,611.3 c -1.3,0.7 -3.1,2.4 -3.9,3.8 -3,5.3 3.6,11.7 9.4,9.1 5.5,-2.5 5.8,-10 0.5,-12.7 -3.5,-1.8 -2.9,-1.8 -6,-0.2 z"
     id="path10598" />
  <path
     style="stroke-width:0.1"
     d="m 66.1,618.6 c -1.2,1.5 -2.1,3.4 -2.1,4.4 0,3.4 3.9,7 7.5,7 3.6,0 7.5,-3.6 7.5,-7 0,-3.4 -3.9,-7 -7.5,-7 -2.4,0 -3.9,0.7 -5.4,2.6 z"
     id="path10600" />
  <path
     style="stroke-width:0.1"
     d="m 614.5,621 c -4.2,4.7 -0.8,12 5.5,12 3.1,0 7,-3.9 7,-7 0,-1 -0.9,-2.9 -2.1,-4.4 -2.6,-3.3 -7.7,-3.6 -10.4,-0.6 z"
     id="path10602" />
  <path
     style="stroke-width:0.1"
     d="m 152.1,627.6 c -1.2,1.5 -2.1,3.4 -2.1,4.4 0,3.4 3.9,7 7.5,7 3.6,0 7.5,-3.6 7.5,-7 0,-3.4 -3.9,-7 -7.5,-7 -2.4,0 -3.9,0.7 -5.4,2.6 z"
     id="path10604" />
  <path
     style="stroke-width:0.1"
     d="m 658,626.7 c -7.6,2.7 -5.8,14.3 2.1,14.3 5.5,0 9.2,-8.7 5.2,-12.2 -2.2,-1.9 -5.3,-2.8 -7.3,-2.1 z"
     id="path10606" />
  <path
     style="stroke-width:0.1"
     d="m 240.2,632.3 c -4.5,4.8 -1.7,11.7 4.7,11.7 4.6,0 7.1,-2.4 7.1,-6.8 0,-6.5 -7.4,-9.6 -11.8,-4.9 z"
     id="path10608" />
  <path
     style="stroke-width:0.1"
     d="m 541,632 c -2.6,2.6 -2.6,8.1 -0.2,10.3 2.8,2.5 8.7,2.2 10.6,-0.5 5,-7.1 -4.3,-15.9 -10.4,-9.8 z"
     id="path10610" />
  <path
     style="stroke-width:0.1"
     d="m 322,635 c -4.2,4.2 -0.8,12 5.3,12 5.8,0 9.1,-8.5 4.9,-12.3 -2.5,-2.3 -7.8,-2.1 -10.2,0.3 z"
     id="path10612" />
  <path
     style="stroke-width:0.1"
     d="m 475.5,635 c -2.5,2.7 -2.2,8 0.6,10.2 6.8,5.6 16.1,-4 9.9,-10.2 -2.6,-2.6 -8.1,-2.6 -10.5,0 z"
     id="path10614" />
  <path
     style="stroke-width:0.1"
     d="m 696.9,634.8 c -1.5,1.3 -2.2,3 -2.2,5.1 0,6.6 7.6,9.8 12.3,5.1 2.7,-2.7 2.5,-6.6 -0.5,-9.5 -2.9,-3 -6.4,-3.2 -9.6,-0.7 z"
     id="path10616" />
  <path
     style="stroke-width:0.1"
     d="m 405.5,637.5 c -4,3.9 -2.9,9.7 2.2,11.6 5.8,2.2 11.6,-3.6 9.4,-9.4 -1.9,-5.1 -7.7,-6.2 -11.6,-2.2 z"
     id="path10618" />
  <path
     style="stroke-width:0.1"
     d="m 735.5,642 c -4.1,4.5 -0.9,12 5.2,12 3.1,0 7.3,-4.2 7.3,-7.5 0,-5.7 -8.6,-8.9 -12.5,-4.5 z"
     id="path10620" />
  <path
     style="stroke-width:0.1"
     d="m 776.2,648.3 c -4.3,4.6 -1.5,12 4.6,12 4.3,0 7.2,-2.8 7.2,-7 0,-6.6 -7.4,-9.7 -11.8,-5 z"
     id="path10622" />
  <path
     style="stroke-width:0.1"
     d="m 821,650.3 c -1.4,0.7 -3.1,2.4 -3.9,3.8 -1.2,2.2 -1.2,2.9 0,5.4 2.7,5.7 10.5,5.7 13.1,0 2.6,-5.7 -3.7,-11.9 -9.2,-9.2 z"
     id="path10624" />
  <path
     style="stroke-width:0.1"
     d="m 860.5,655.5 c -4.8,4.7 -1.9,11.5 4.8,11.5 4.2,0 7,-2.9 7,-7.2 0,-6.2 -7.3,-8.9 -11.8,-4.3 z"
     id="path10626" />
  <path
     style="stroke-width:0.1"
     d="m 909.3,657 c -4.8,1.9 -5.8,8.7 -1.7,11.9 5.3,4.1 11.4,1.3 11.4,-5.2 0,-5.1 -5,-8.6 -9.7,-6.7 z"
     id="path10628" />
  <path
     style="stroke-width:0.1"
     d="m 961,664.3 c -1.3,0.7 -2.9,2.5 -3.4,3.9 -2.9,8.3 9.4,13.7 12.8,5.6 1.7,-3.9 1.1,-6.3 -2.2,-8.8 -2.9,-2.3 -3.8,-2.4 -7.2,-0.7 z"
     id="path10630" />
  <path
     style="stroke-width:0.1"
     d="m 717.3,667 c -4.7,1.9 -5.6,7.8 -1.8,11.5 4.2,4.3 10.6,2.3 12.1,-3.7 0.5,-2.2 0,-3.3 -2.4,-5.8 -3.2,-3.1 -4.3,-3.4 -7.9,-2 z"
     id="path10632" />
  <path
     style="stroke-width:0.1"
     d="m 1007.7,670.8 c -4,4.4 -0.7,12.2 5.1,12.2 6,0 9.4,-7.8 5.2,-12 -2.6,-2.6 -8.1,-2.6 -10.3,-0.2 z"
     id="path10634" />
  <path
     style="stroke-width:0.1"
     d="m 1060.2,674.3 c -4.5,4.8 -1.6,12 4.8,12 6.5,0 9.5,-7.6 4.7,-12.1 -3,-2.8 -6.8,-2.8 -9.5,0.1 z"
     id="path10636" />
  <path
     style="stroke-width:0.1"
     d="m 653.6,676.1 c -1.9,1.5 -2.6,3 -2.6,5.4 0,3.7 3.7,7.5 7.2,7.5 2.7,0 6.8,-4.5 6.8,-7.5 0,-3 -4.1,-7.5 -6.8,-7.5 -1.1,0 -3.1,0.9 -4.6,2.1 z"
     id="path10638" />
  <path
     style="stroke-width:0.1"
     d="m 1107.2,675.6 c -2.8,2 -3.1,8.3 -0.4,10.7 4.5,4 12.2,0.6 12.2,-5.3 0,-5.9 -6.7,-9 -11.8,-5.4 z"
     id="path10640" />
  <path
     style="stroke-width:0.1"
     d="m 597.3,680.2 c -1.2,0.6 -2.7,2.4 -3.4,4 -3.4,8.3 8.6,13.6 13,5.7 1.9,-3.3 0.1,-8.1 -3.5,-9.8 -2.9,-1.3 -3.2,-1.3 -6.1,0.1 z"
     id="path10642" />
  <path
     style="stroke-width:0.1"
     d="m 532.2,688 c -7.9,3.2 -3.2,15.7 5.1,13.3 6.4,-1.8 7.1,-11.1 1,-13.4 -2.8,-1.1 -3.1,-1.1 -6.1,0.1 z"
     id="path10644" />
  <path
     style="stroke-width:0.1"
     d="m 458,692.7 c -5.3,1.9 -6.8,8.6 -2.8,12.3 6.3,5.9 15.7,-3.2 10.1,-9.8 -2,-2.3 -5,-3.3 -7.3,-2.5 z"
     id="path10646" />
  <path
     style="stroke-width:0.1"
     d="m 923.3,693 c -4.6,1.9 -5.7,8.3 -2,11.8 4.7,4.4 11.7,1.3 11.7,-5.2 0,-5 -5,-8.4 -9.7,-6.6 z"
     id="path10648" />
  <path
     style="stroke-width:0.1"
     d="m 20.3,696.5 c -4.3,3 -3.8,8.8 1.2,12.1 2.1,1.4 3,1.4 5.5,0.4 5.5,-2.3 6.6,-7.5 2.5,-11.5 -2.7,-2.8 -6.1,-3.2 -9.2,-1 z"
     id="path10650" />
  <path
     style="stroke-width:0.1"
     d="m 374.6,697.1 c -5,3.9 -2.2,12.2 4.2,12.2 4.3,0 7.2,-2.8 7.2,-7 0,-6.5 -6.1,-9.3 -11.4,-5.2 z"
     id="path10652" />
  <path
     style="stroke-width:0.1"
     d="m 290.7,699.8 c -4,4.4 -0.6,12.2 5.3,12.2 6,0 9.2,-7.8 5,-12 -2.6,-2.6 -8.1,-2.6 -10.3,-0.2 z"
     id="path10654" />
  <path
     style="stroke-width:0.1"
     d="m 129.6,702.1 c -1.9,1.5 -2.6,3 -2.6,5.4 0,3.6 3.6,7.5 7,7.5 3.4,0 7,-3.9 7,-7.5 0,-3.6 -3.6,-7.5 -7,-7.5 -1,0 -2.9,0.9 -4.4,2.1 z"
     id="path10656" />
  <path
     style="stroke-width:0.1"
     d="m 215.5,702.5 c -1.4,1.3 -2.5,3.6 -2.5,5 0,2.8 4,7.5 6.4,7.5 2.9,0 6.4,-2.2 7.5,-4.8 1.6,-3.3 -0.1,-7.5 -3.5,-9.1 -3.7,-1.6 -5.2,-1.4 -7.9,1.4 z"
     id="path10658" />
  <path
     style="stroke-width:0.1"
     d="m 873.6,702.1 c -1.9,1.5 -2.6,3 -2.6,5.4 0,3.6 3.6,7.5 7,7.5 1,0 2.9,-0.9 4.4,-2.1 3.4,-2.7 3.5,-7.1 0.1,-10.4 -3,-3 -5.4,-3.1 -8.9,-0.4 z"
     id="path10660" />
  <path
     style="stroke-width:0.1"
     d="m 1084.3,705.8 c -5.4,0.8 -7.1,8.7 -2.7,12.1 5.3,4.1 11.4,1.3 11.4,-5.2 0,-4.8 -3.8,-7.7 -8.7,-6.9 z"
     id="path10662" />
  <path
     style="stroke-width:0.1"
     d="m 827.5,710.5 c -2.8,2.7 -3.2,6.1 -1,9.2 4.9,7 16,0 12,-7.6 -2.4,-4.8 -7.2,-5.5 -11,-1.6 z"
     id="path10664" />
  <path
     style="stroke-width:0.1"
     d="m 774.7,717.7 c -0.9,0.2 -2.4,1.8 -3.3,3.5 -3,5.9 2.7,12.2 8.9,9.9 5.1,-1.9 6.2,-7.7 2.2,-11.6 -2.3,-2.4 -4,-2.8 -7.8,-1.8 z"
     id="path10666" />
  <path
     style="stroke-width:0.1"
     d="m 1040.2,719.6 c -7.9,3.3 -3.1,15.1 5.3,13 2.8,-0.7 5.7,-5.8 4.7,-8.5 -1.6,-4.8 -5.4,-6.5 -10,-4.5 z"
     id="path10668" />
  <path
     style="stroke-width:0.1"
     d="m 713.7,726.2 c -4.5,3.5 -3.7,10.1 1.6,12.6 2.2,1.1 3.1,1 5.5,-0.2 4.9,-2.5 5.6,-7.3 1.7,-11.1 -2.6,-2.7 -6.2,-3.2 -8.8,-1.3 z"
     id="path10670" />
  <path
     style="stroke-width:0.1"
     d="m 994.6,732.1 c -1.9,1.5 -2.6,3 -2.6,5.4 0,3.6 3.6,7.5 7,7.5 3.4,0 7,-3.9 7,-7.5 0,-3.6 -3.6,-7.5 -7,-7.5 -1,0 -2.9,0.9 -4.4,2.1 z"
     id="path10672" />
  <path
     style="stroke-width:0.1"
     d="m 659,736.3 c -7,3.5 -4.8,13.7 3,13.7 2.8,0 7,-4.4 7,-7.3 0,-5.1 -5.5,-8.6 -10,-6.4 z"
     id="path10674" />
  <path
     style="stroke-width:0.1"
     d="m 595.5,744.5 c -3,3 -3.1,5.4 -0.4,8.9 2,2.6 6.9,3.6 9.5,1.8 1.5,-1 3.4,-4.7 3.4,-6.7 0,-2.5 -4.6,-6.5 -7.5,-6.5 -1.4,0 -3.7,1.1 -5,2.5 z"
     id="path10676" />
  <path
     style="stroke-width:0.1"
     d="m 942.6,745.1 c -1.9,1.5 -2.6,3 -2.6,5.4 0,3.6 3.6,7.5 7,7.5 3.4,0 7,-3.9 7,-7.5 0,-3.6 -3.6,-7.5 -7,-7.5 -1,0 -2.9,0.9 -4.4,2.1 z"
     id="path10678" />
  <path
     style="stroke-width:0.1"
     d="m 527,749.3 c -7.6,3.8 -2.8,15.4 5.5,13.3 2.9,-0.7 5.6,-5.6 4.8,-8.7 -1.1,-4.1 -6.5,-6.5 -10.3,-4.6 z"
     id="path10680" />
  <path
     style="stroke-width:0.1"
     d="m 463.2,757 c -7.9,3.2 -3.2,15.7 5.1,13.3 6.4,-1.8 7.1,-11.1 1,-13.4 -2.8,-1.1 -3.1,-1.1 -6.1,0.1 z"
     id="path10682" />
  <path
     style="stroke-width:0.1"
     d="m 886.3,757.2 c -1.2,0.6 -2.7,2.3 -3.3,3.8 -2.4,5.8 4.4,12 9.9,9 4.6,-2.4 5.3,-7.8 1.6,-11.5 -2.6,-2.7 -4.7,-3 -8.2,-1.3 z"
     id="path10684" />
  <path
     style="stroke-width:0.1"
     d="m 395.6,762.1 c -3.6,2.8 -3.6,8 0,10.8 1.5,1.2 3.4,2.1 4.4,2.1 3.4,0 7,-3.9 7,-7.5 0,-3.6 -3.6,-7.5 -7,-7.5 -1,0 -2.9,0.9 -4.4,2.1 z"
     id="path10686" />
  <path
     style="stroke-width:0.1"
     d="m 331.5,766.5 c -4.6,4.5 -1.9,11.8 4.3,11.8 4.3,0 7.2,-2.8 7.2,-7 0,-6.7 -6.8,-9.6 -11.5,-4.8 z"
     id="path10688" />
  <path
     style="stroke-width:0.1"
     d="m 268.9,769.8 c -1.5,1.3 -2.2,3 -2.2,5.1 0,6.6 7.6,9.8 12.3,5.1 2.7,-2.7 2.5,-6.6 -0.5,-9.5 -2.9,-3 -6.4,-3.2 -9.6,-0.7 z"
     id="path10690" />
  <path
     style="stroke-width:0.1"
     d="m 23.1,773.6 c -1.2,1.5 -2.1,3.5 -2.1,4.6 0,2.7 4.5,6.8 7.5,6.8 3,0 7.5,-4.1 7.5,-6.8 0,-3.5 -3.8,-7.2 -7.5,-7.2 -2.4,0 -3.9,0.7 -5.4,2.6 z"
     id="path10692" />
  <path
     style="stroke-width:0.1"
     d="m 88.5,773 c -4.2,4.7 -0.8,12 5.5,12 3.3,0 7,-4 7,-7.4 0,-5.7 -8.6,-8.9 -12.5,-4.6 z"
     id="path10694" />
  <path
     style="stroke-width:0.1"
     d="m 151,773 c -4.2,4.2 -0.8,12 5.3,12 5.8,0 9.1,-8.5 4.9,-12.3 -2.5,-2.3 -7.8,-2.1 -10.2,0.3 z"
     id="path10696" />
  <path
     style="stroke-width:0.1"
     d="m 213.6,773.2 c -3.6,5.1 -0.5,11.8 5.4,11.8 5.9,0 9,-6.7 5.4,-11.8 -1.1,-1.6 -2.5,-2.2 -5.4,-2.2 -2.9,0 -4.3,0.6 -5.4,2.2 z"
     id="path10698" />
  <path
     style="stroke-width:0.1"
     d="m 825.6,773.2 c -3.6,5.1 -0.5,11.8 5.4,11.8 5.9,0 9,-6.7 5.4,-11.8 -1.1,-1.6 -2.5,-2.2 -5.4,-2.2 -2.9,0 -4.3,0.6 -5.4,2.2 z"
     id="path10700" />
  <path
     style="stroke-width:0.1"
     d="m 1100.5,782.5 c -1.4,1.3 -2.5,3.5 -2.5,4.7 0,5.6 6.1,9.3 10.6,6.3 3.7,-2.4 4.8,-5.2 3.3,-8.6 -2.2,-5.4 -7.4,-6.5 -11.4,-2.4 z"
     id="path10702" />
  <path
     style="stroke-width:0.1"
     d="m 767.5,783.5 c -4,3.9 -2.8,9.3 2.6,11.3 7.4,2.8 13,-7.8 6.6,-12.3 -3.1,-2.2 -6.5,-1.8 -9.2,1 z"
     id="path10704" />
  <path
     style="stroke-width:0.1"
     d="m 1060,790 c -2.6,2.6 -2.6,8.1 -0.2,10.3 2.8,2.5 8.7,2.2 10.6,-0.5 5.1,-7.3 -4.2,-16 -10.4,-9.8 z"
     id="path10706" />
  <path
     style="stroke-width:0.1"
     d="m 707.1,795.6 c -1.2,1.5 -2.1,3.4 -2.1,4.4 0,3.4 3.9,7 7.5,7 3.6,0 7.5,-3.6 7.5,-7 0,-3.4 -3.9,-7 -7.5,-7 -2.4,0 -3.9,0.7 -5.4,2.6 z"
     id="path10708" />
  <path
     style="stroke-width:0.1"
     d="m 1021,798 c -4.3,4.3 -1.1,12 5,12 3.8,0 7,-3.2 7,-7 0,-3.8 -3.2,-7 -7,-7 -1.7,0 -3.9,0.9 -5,2 z"
     id="path10710" />
  <path
     style="stroke-width:0.1"
     d="m 979.5,804.5 c -1.4,1.3 -2.5,3.6 -2.5,5 0,2.8 4,7.5 6.4,7.5 7.6,0 10.6,-9.1 4.4,-13.4 -3.2,-2.2 -5.5,-2 -8.3,0.9 z"
     id="path10712" />
  <path
     style="stroke-width:0.1"
     d="m 646.5,805.5 c -4,3.9 -2.9,9.7 2.2,11.6 6.2,2.3 11.9,-4 8.9,-9.9 -2.5,-4.9 -7.2,-5.6 -11.1,-1.7 z"
     id="path10714" />
  <path
     style="stroke-width:0.1"
     d="m 938.7,814.8 c -2.3,2.5 -2.1,7.8 0.3,10.2 4.3,4.3 12,1.1 12,-5 0,-1.7 -0.9,-3.9 -2,-5 -2.6,-2.6 -8.1,-2.6 -10.3,-0.2 z"
     id="path10716" />
  <path
     style="stroke-width:0.1"
     d="m 577,816 c -2.6,2.6 -2.5,6 0.1,9.4 2.5,3.1 6.6,3.5 10,0.8 2.8,-2.3 3,-7.3 0.4,-10.2 -2.4,-2.6 -7.9,-2.6 -10.5,0 z"
     id="path10718" />
  <path
     style="stroke-width:0.1"
     d="m 896.6,821.1 c -1.9,1.5 -2.6,3 -2.6,5.4 0,3.6 3.6,7.5 7,7.5 3.4,0 7,-3.9 7,-7.5 0,-3.6 -3.6,-7.5 -7,-7.5 -1,0 -2.9,0.9 -4.4,2.1 z"
     id="path10720" />
  <path
     style="stroke-width:0.1"
     d="m 509,825.7 c -3.7,4.7 -0.4,11.3 5.6,11.3 3.5,0 7.4,-3.7 7.4,-7 0,-1 -0.9,-2.9 -2.1,-4.4 -2.9,-3.6 -8,-3.6 -10.9,0.1 z"
     id="path10722" />
  <path
     style="stroke-width:0.1"
     d="m 858.5,830.5 c -3.4,3.3 -3.3,7.7 0.1,10.4 1.5,1.2 3.4,2.1 4.4,2.1 3.4,0 7,-3.9 7,-7.5 0,-2.4 -0.7,-3.9 -2.6,-5.4 -3.5,-2.7 -5.9,-2.6 -8.9,0.4 z"
     id="path10724" />
  <path
     style="stroke-width:0.1"
     d="m 439.2,834.3 c -4.4,4.7 -1.3,11.7 5.2,11.7 4.1,0 6.9,-2.9 6.9,-7.2 0,-6.1 -7.8,-9.1 -12.1,-4.5 z"
     id="path10726" />
  <path
     style="stroke-width:0.1"
     d="m 818.9,834.2 c -3.8,1.3 -5.7,6.2 -3.8,9.7 3.2,5.6 11.2,4.9 13.3,-1.2 1.8,-5.1 -4.1,-10.3 -9.5,-8.5 z"
     id="path10728" />
  <path
     style="stroke-width:0.1"
     d="m 354.5,842 c -4.2,4.7 -0.8,12 5.5,12 3.3,0 7,-4 7,-7.4 0,-5.7 -8.6,-8.9 -12.5,-4.6 z"
     id="path10730" />
  <path
     style="stroke-width:0.1"
     d="m 774.8,842.5 c -5.3,2.9 -4.2,11.6 1.6,13.1 8.4,2.1 13.1,-9.2 5.6,-13.1 -3.5,-1.8 -3.8,-1.8 -7.2,0 z"
     id="path10732" />
  <path
     style="stroke-width:0.1"
     d="m 278.2,846.6 c -2.8,2 -3.1,8.3 -0.4,10.7 4.4,4 12.2,0.7 12.2,-5.1 0,-5.9 -6.7,-9.2 -11.8,-5.6 z"
     id="path10734" />
  <path
     style="stroke-width:0.1"
     d="m 734.1,850.6 c -1.2,1.5 -2.1,3.4 -2.1,4.4 0,1 0.9,2.9 2.1,4.4 2.8,3.6 8,3.6 10.8,0 2.7,-3.5 2.6,-5.9 -0.4,-8.9 -3.3,-3.4 -7.7,-3.3 -10.4,0.1 z"
     id="path10736" />
  <path
     style="stroke-width:0.1"
     d="m 199.5,851 c -4.2,4.6 -0.8,12 5.4,12 3.4,0 7.1,-3.7 7.1,-7.1 0,-6 -8.5,-9.3 -12.5,-4.9 z"
     id="path10738" />
  <path
     style="stroke-width:0.1"
     d="m 35.5,852.5 c -3.9,3.8 -3.2,8.6 1.7,11.1 2.4,1.2 3.3,1.3 5.5,0.2 3.8,-1.8 5.4,-5.3 4.1,-8.9 -1.8,-5.3 -7.3,-6.5 -11.3,-2.4 z"
     id="path10740" />
  <path
     style="stroke-width:0.1"
     d="m 124,852 c -2.6,2.6 -2.6,8.1 0,10.5 2.9,2.6 7.9,2.4 10.2,-0.4 2.7,-3.4 2.3,-7.5 -0.8,-10 -3.4,-2.6 -6.8,-2.7 -9.4,-0.1 z"
     id="path10742" />
  <path
     style="stroke-width:0.1"
     d="m 693.7,856.2 c -3.7,3.3 -4,7.5 -0.7,10.8 2.7,2.7 6.6,2.5 9.5,-0.5 2.9,-2.8 3.2,-6.5 0.8,-9.3 -2.8,-3.3 -6.6,-3.7 -9.6,-1 z"
     id="path10744" />
  <path
     style="stroke-width:0.1"
     d="m 897,858 c -6.1,6.1 2.7,15.4 9.8,10.4 2.8,-2 3.1,-8.3 0.4,-10.7 -2.5,-2.3 -7.8,-2.1 -10.2,0.3 z"
     id="path10746" />
  <path
     style="stroke-width:0.1"
     d="m 652.6,861.5 c -5.9,5.9 1,15.5 8.3,11.4 6.2,-3.5 4.1,-12.1 -3.1,-12.7 -2.3,-0.2 -4.1,0.3 -5.2,1.3 z"
     id="path10748" />
  <path
     style="stroke-width:0.1"
     d="m 613.1,867.6 c -2.7,3.5 -2.7,6.5 0.2,9.2 4.8,4.5 12,1.6 12,-4.8 0,-6.7 -8.1,-9.6 -12.2,-4.4 z"
     id="path10750" />
  <path
     style="stroke-width:0.1"
     d="m 573.4,872.2 c -6.9,3.3 -3.7,13.8 4.2,13.8 2.4,0 6.4,-4.7 6.4,-7.5 0,-3 -4.1,-7.5 -6.7,-7.4 -1,0 -2.8,0.5 -3.9,1.1 z"
     id="path10752" />
  <path
     style="stroke-width:0.1"
     d="m 530,876 c -2.4,2.4 -2.6,6.7 -0.4,9.8 1.1,1.6 2.5,2.2 5.4,2.2 2.9,0 4.3,-0.6 5.4,-2.2 3.6,-5.1 0.5,-11.8 -5.4,-11.8 -1.7,0 -3.9,0.9 -5,2 z"
     id="path10754" />
  <path
     style="stroke-width:0.1"
     d="m 1038,876 c -2.6,2.6 -2.6,8.1 -0.2,10.3 4.4,4 12.2,0.7 12.2,-5.1 0,-6 -7.8,-9.4 -12,-5.2 z"
     id="path10756" />
  <path
     style="stroke-width:0.1"
     d="m 971.1,880.6 c -1.2,1.5 -2.1,3.4 -2.1,4.4 0,3.4 3.9,7 7.5,7 3.6,0 7.5,-3.6 7.5,-7 0,-1 -0.9,-2.9 -2.1,-4.4 -2.8,-3.6 -8,-3.6 -10.8,0 z"
     id="path10758" />
  <path
     style="stroke-width:0.1"
     d="m 1100.1,880.6 c -2.7,3.5 -2.7,6.5 0.2,9.2 4.8,4.5 12,1.6 12,-4.8 0,-6.7 -8.1,-9.6 -12.2,-4.4 z"
     id="path10760" />
  <path
     style="stroke-width:0.1"
     d="m 488.5,881.5 c -4.3,4.2 -2.3,10.6 3.7,12.1 2.2,0.5 3.4,0 5.9,-2.5 2.5,-2.5 3,-3.7 2.5,-5.9 -1.5,-6 -7.9,-8 -12.1,-3.7 z"
     id="path10762" />
  <path
     style="stroke-width:0.1"
     d="m 815.6,881.1 c -4.6,3.6 -2.6,11 3.4,12.4 6.4,1.5 10.8,-7.8 5.8,-12.5 -2.8,-2.6 -5.8,-2.6 -9.2,0.1 z"
     id="path10764" />
</svg>
