<?xml version="1.0" encoding="UTF-8" standalone="no"?>
<svg
   xmlns:dc="http://purl.org/dc/elements/1.1/"
   xmlns:cc="http://creativecommons.org/ns#"
   xmlns:rdf="http://www.w3.org/1999/02/22-rdf-syntax-ns#"
   xmlns:svg="http://www.w3.org/2000/svg"
   xmlns="http://www.w3.org/2000/svg"
   xmlns:sodipodi="http://sodipodi.sourceforge.net/DTD/sodipodi-0.dtd"
   xmlns:inkscape="http://www.inkscape.org/namespaces/inkscape"
   inkscape:version="1.0 (4035a4fb49, 2020-05-01)"
   sodipodi:docname="USGS_607_colour_nobox.svg"
   id="svg7510"
   preserveAspectRatio="xMidYMid meet"
   viewBox="0 0 1125.000000 900.000000"
   height="900.000000pt"
   width="1125.000000pt"
   version="1.0">
  <defs
     id="defs7514" />
  <sodipodi:namedview
     inkscape:current-layer="svg7510"
     inkscape:window-maximized="1"
     inkscape:window-y="-8"
     inkscape:window-x="1912"
     inkscape:cy="600"
     inkscape:cx="750"
     inkscape:zoom="0.68916667"
     showgrid="false"
     id="namedview7512"
     inkscape:window-height="1017"
     inkscape:window-width="1920"
     inkscape:pageshadow="2"
     inkscape:pageopacity="0"
     guidetolerance="10"
     gridtolerance="10"
     objecttolerance="10"
     borderopacity="1"
     bordercolor="#666666"
     pagecolor="#ffffff" />
  <metadata
     id="metadata6938">
Created by potrace 1.13, written by Peter Selinger 2001-2015
<rdf:RDF>
  <cc:Work
     rdf:about="">
    <dc:format>image/svg+xml</dc:format>
    <dc:type
       rdf:resource="http://purl.org/dc/dcmitype/StillImage" />
    <dc:title></dc:title>
  </cc:Work>
</rdf:RDF>
</metadata>
  <path
     style="stroke-width:0.1"
     d="m 16.8,9.6 c -5.1,2.7 -4.6,10.1 0.7,12.6 5.8,2.6 11.9,-3.3 9.5,-9.1 -0.6,-1.6 -2.3,-3.3 -3.6,-4 -3.1,-1.4 -3.3,-1.4 -6.6,0.5 z"
     id="path6942" />
  <path
     style="stroke-width:0.1"
     d="m 330.3,9 c -4.8,1.9 -5.8,8.7 -1.7,11.9 3.4,2.7 6.4,2.7 9.2,0.1 5.7,-5.3 -0.3,-14.9 -7.5,-12 z"
     id="path6944" />
  <path
     style="stroke-width:0.1"
     d="m 1051.8,9.6 c -5.1,2.7 -4.6,10.1 0.7,12.6 5.8,2.6 11.9,-3.3 9.5,-9.1 -0.6,-1.6 -2.3,-3.3 -3.6,-4 -3.1,-1.4 -3.3,-1.4 -6.6,0.5 z"
     id="path6946" />
  <path
     style="stroke-width:0.1"
     d="m 723.5,21.5 c -4,3.9 -2.9,9.7 2.2,11.6 3.6,1.3 7.8,-0.5 9.3,-4 3.1,-7.5 -5.8,-13.4 -11.5,-7.6 z"
     id="path6948" />
  <path
     style="stroke-width:0.1"
     d="m 615.1,25.6 c -1.2,1.5 -2.1,3.4 -2.1,4.4 0,3.4 3.9,7 7.5,7 3.6,0 7.5,-3.6 7.5,-7 0,-3.4 -3.9,-7 -7.5,-7 -2.4,0 -3.9,0.7 -5.4,2.6 z"
     id="path6950" />
  <path
     style="stroke-width:0.1"
     d="m 220.1,32.6 c -4.1,5.3 -1.3,11.4 5.2,11.4 4.2,0 7,-2.9 7,-7.2 0,-6.4 -8.3,-9.2 -12.2,-4.2 z"
     id="path6952" />
  <path
     style="stroke-width:0.1"
     d="m 540.2,32.3 c -4.5,4.8 -1.7,11.7 4.7,11.7 4.6,0 7.1,-2.4 7.1,-6.8 0,-6.5 -7.4,-9.6 -11.8,-4.9 z"
     id="path6954" />
  <path
     style="stroke-width:0.1"
     d="m 396,36.2 c -2.7,2.9 -2.5,6.4 0.5,9.3 6.3,6.3 16,-1.8 10.5,-8.8 -2.8,-3.5 -8,-3.7 -11,-0.5 z"
     id="path6956" />
  <path
     style="stroke-width:0.1"
     d="m 665.7,35.8 c -2.3,2.5 -2.1,7.8 0.3,10.2 6.1,6.1 15.4,-2.7 10.4,-9.8 -2,-2.8 -8.3,-3.1 -10.7,-0.4 z"
     id="path6958" />
  <path
     style="stroke-width:0.1"
     d="m 939.6,46.1 c -1.9,1.5 -2.6,3 -2.6,5.4 0,3.6 3.6,7.5 7,7.5 3.4,0 7,-3.9 7,-7.5 0,-3.6 -3.6,-7.5 -7,-7.5 -1,0 -2.9,0.9 -4.4,2.1 z"
     id="path6960" />
  <path
     style="stroke-width:0.1"
     d="M 62.2,50.3 C 57.7,55.1 60.8,62 67.3,62 71.5,62 74,59.4 74,55.2 74,48.7 66.6,45.6 62.2,50.3 Z"
     id="path6962" />
  <path
     style="stroke-width:0.1"
     d="m 148.5,50.5 c -2.8,2.7 -3.1,4.5 -1.4,7.8 1.6,3 2.8,3.7 6.6,3.7 4.1,0 7.7,-4.2 6.8,-8 -1.4,-5.8 -7.8,-7.8 -12,-3.5 z"
     id="path6964" />
  <path
     style="stroke-width:0.1"
     d="m 461.2,50.3 c -4.5,4.8 -1.7,11.7 4.7,11.7 4.6,0 7.1,-2.4 7.1,-6.8 0,-6.5 -7.4,-9.6 -11.8,-4.9 z"
     id="path6966" />
  <path
     style="stroke-width:0.1"
     d="m 1097.2,50.3 c -4.5,4.8 -1.4,11.7 5.1,11.7 4.2,0 6.7,-2.6 6.7,-6.8 0,-6.5 -7.4,-9.6 -11.8,-4.9 z"
     id="path6968" />
  <path
     style="stroke-width:0.1"
     d="m 811.9,52.3 c -3.7,1.9 -5.3,6 -3.7,9.4 2.6,5.5 10.4,5.4 13,-0.2 2.6,-5.7 -3.7,-11.9 -9.3,-9.2 z"
     id="path6970" />
  <path
     style="stroke-width:0.1"
     d="m 866.6,54.2 c -5,7.1 4.3,15.9 10.4,9.8 2.6,-2.6 2.6,-8.1 0.2,-10.3 -2.8,-2.5 -8.7,-2.2 -10.6,0.5 z"
     id="path6972" />
  <path
     style="stroke-width:0.1"
     d="m 339.2,57 c -5,4.7 -0.6,14 5.8,12.5 6,-1.4 8,-8.8 3.4,-12.4 C 345,54.4 342,54.4 339.2,57 Z"
     id="path6974" />
  <path
     style="stroke-width:0.1"
     d="m 727.6,57.1 c -5.2,4.1 -2.3,12.2 4.4,12.2 6.7,0 9.6,-8.1 4.4,-12.2 C 734.9,55.9 733,55 732,55 c -1,0 -2.9,0.9 -4.4,2.1 z"
     id="path6976" />
  <path
     style="stroke-width:0.1"
     d="m 270.1,61.6 c -1.2,1.5 -2.1,3.4 -2.1,4.4 0,3.4 3.9,7 7.5,7 3.6,0 7.5,-3.6 7.5,-7 0,-3.4 -3.9,-7 -7.5,-7 -2.4,0 -3.9,0.7 -5.4,2.6 z"
     id="path6978" />
  <path
     style="stroke-width:0.1"
     d="m 497,61 c -4.3,4.3 -1.1,12 5,12 3.8,0 7,-3.2 7,-7 0,-3.8 -3.2,-7 -7,-7 -1.7,0 -3.9,0.9 -5,2 z"
     id="path6980" />
  <path
     style="stroke-width:0.1"
     d="m 1032.1,61.6 c -1.2,1.5 -2.1,3.4 -2.1,4.4 0,3.4 3.9,7 7.5,7 3.6,0 7.5,-3.6 7.5,-7 0,-3.4 -3.9,-7 -7.5,-7 -2.4,0 -3.9,0.7 -5.4,2.6 z"
     id="path6982" />
  <path
     style="stroke-width:0.1"
     d="m 590.5,65.5 c -2.8,2.7 -3.1,4.5 -1.4,7.8 1.6,3 2.8,3.7 6.6,3.7 3.5,0 7.3,-3.7 7.3,-7.2 0,-2.7 -4.5,-6.8 -7.5,-6.8 -1.4,0 -3.7,1.1 -5,2.5 z"
     id="path6984" />
  <path
     style="stroke-width:0.1"
     d="m 978,69.7 c -5.1,1.9 -6.8,8.5 -3,12.3 4.5,4.5 12,1.1 12,-5.3 0,-4.7 -4.9,-8.5 -9,-7 z"
     id="path6986" />
  <path
     style="stroke-width:0.1"
     d="m 407,79 c -4.3,4.3 -1.1,12 5,12 1.7,0 3.9,-0.9 5,-2 2.6,-2.6 2.6,-8.1 0.2,-10.3 -2.5,-2.3 -7.8,-2.1 -10.2,0.3 z"
     id="path6988" />
  <path
     style="stroke-width:0.1"
     d="m 777.1,86.6 c -2.7,3.4 -2.7,6.4 -0.1,9.2 4.5,4.8 12.3,1.6 12.3,-5 0,-6.4 -8.3,-9.2 -12.2,-4.2 z"
     id="path6990" />
  <path
     style="stroke-width:0.1"
     d="m 472,93 c -2.6,2.6 -2.6,8.1 0,10.5 2.9,2.6 7.9,2.4 10.2,-0.4 2.7,-3.4 2.3,-7.5 -0.8,-10 C 478,90.5 474.6,90.4 472,93 Z"
     id="path6992" />
  <path
     style="stroke-width:0.1"
     d="m 558.6,93.1 c -5,3.9 -2.2,12.2 4.2,12.2 6.6,0 9.8,-7.8 5,-12.3 -2.8,-2.6 -5.8,-2.6 -9.2,0.1 z"
     id="path6994" />
  <path
     style="stroke-width:0.1"
     d="M 94.1,97.6 C 92.9,99.1 92,101 92,102 c 0,3.4 3.9,7 7.5,7 3.6,0 7.5,-3.6 7.5,-7 0,-3.4 -3.9,-7 -7.5,-7 -2.4,0 -3.9,0.7 -5.4,2.6 z"
     id="path6996" />
  <path
     style="stroke-width:0.1"
     d="m 205.7,96.8 c -2.3,2.5 -2.1,7.8 0.3,10.2 4.3,4.3 12,1.1 12,-5 0,-1.7 -0.9,-3.9 -2,-5 -2.6,-2.6 -8.1,-2.6 -10.3,-0.2 z"
     id="path6998" />
  <path
     style="stroke-width:0.1"
     d="m 913.7,96.8 c -4,4.5 -0.6,12.2 5.3,12.2 1.7,0 3.9,-0.9 5,-2 4.5,-4.5 1.1,-12 -5.3,-12 -2,0 -4.1,0.8 -5,1.8 z"
     id="path7000" />
  <path
     style="stroke-width:0.1"
     d="m 656.1,98.6 c -2.7,3.4 -2.7,6.4 -0.1,9.2 4.5,4.8 12.3,1.6 12.3,-5 0,-6.4 -8.3,-9.2 -12.2,-4.2 z"
     id="path7002" />
  <path
     style="stroke-width:0.1"
     d="m 321,104 c -2.6,2.6 -2.6,8.1 -0.2,10.3 2.5,2.3 7.8,2.1 10.2,-0.3 4.3,-4.3 1.1,-12 -5,-12 -1.7,0 -3.9,0.9 -5,2 z"
     id="path7004" />
  <path
     style="stroke-width:0.1"
     d="m 853.2,103.6 c -2.8,2 -3.1,8.3 -0.4,10.7 2.5,2.3 7.8,2.1 10.2,-0.3 6.1,-6.1 -2.7,-15.4 -9.8,-10.4 z"
     id="path7006" />
  <path
     style="stroke-width:0.1"
     d="m 161.3,106 c -4.8,1.9 -5.8,8.7 -1.7,11.9 5.3,4.1 11.4,1.3 11.4,-5.2 0,-5.1 -5,-8.6 -9.7,-6.7 z"
     id="path7008" />
  <path
     style="stroke-width:0.1"
     d="m 705,105.7 c -5.1,1.9 -6.8,8.5 -3,12.3 6.1,6.1 15.9,-3.3 10.3,-9.8 -2,-2.3 -5,-3.3 -7.3,-2.5 z"
     id="path7010" />
  <path
     style="stroke-width:0.1"
     d="m 49.5,117.2 c -2.8,1.6 -3.5,2.8 -3.5,6.5 0,3.5 3.7,7.3 7.2,7.3 2.7,0 6.8,-4.5 6.8,-7.5 0,-3 -4.1,-7.5 -6.7,-7.5 -1,0 -2.7,0.6 -3.8,1.2 z"
     id="path7012" />
  <path
     style="stroke-width:0.1"
     d="m 249.6,118.1 c -1.9,1.5 -2.6,3 -2.6,5.4 0,3.6 3.6,7.5 7,7.5 3.4,0 7,-3.9 7,-7.5 0,-3.6 -3.6,-7.5 -7,-7.5 -1,0 -2.9,0.9 -4.4,2.1 z"
     id="path7014" />
  <path
     style="stroke-width:0.1"
     d="m 1007.5,118.5 c -1.4,1.3 -2.5,3.6 -2.5,5 0,2.8 4,7.5 6.4,7.5 2.9,0 6.4,-2.2 7.5,-4.8 1.6,-3.3 -0.1,-7.5 -3.5,-9.1 -3.7,-1.6 -5.2,-1.4 -7.9,1.4 z"
     id="path7016" />
  <path
     style="stroke-width:0.1"
     d="m 1084.5,117.2 c -2.8,1.6 -3.5,2.8 -3.5,6.5 0,3.5 3.7,7.3 7.2,7.3 2.7,0 6.8,-4.5 6.8,-7.5 0,-3 -4.1,-7.5 -6.7,-7.5 -1,0 -2.7,0.6 -3.8,1.2 z"
     id="path7018" />
  <path
     style="stroke-width:0.1"
     d="m 421.5,129.5 c -2.9,2.8 -3.1,5.1 -0.9,8.3 4.3,6.2 13.4,3.2 13.4,-4.4 0,-2.4 -4.7,-6.4 -7.5,-6.4 -1.4,0 -3.7,1.1 -5,2.5 z"
     id="path7020" />
  <path
     style="stroke-width:0.1"
     d="m 623,129 c -2.6,2.6 -2.6,8.1 0,10.5 2.7,2.5 8,2.2 10.2,-0.6 5.6,-6.8 -4,-16.1 -10.2,-9.9 z"
     id="path7022" />
  <path
     style="stroke-width:0.1"
     d="m 788.2,129.3 c -4.3,4.6 -1.6,11.7 4.6,11.9 4.3,0.1 7.2,-2.6 7.2,-6.9 0,-6.6 -7.4,-9.7 -11.8,-5 z"
     id="path7024" />
  <path
     style="stroke-width:0.1"
     d="m 538.3,142.2 c -8.1,3.9 -2,16.7 6.2,13 5.5,-2.5 5.8,-10 0.5,-12.7 -3.3,-1.7 -3.7,-1.7 -6.7,-0.3 z"
     id="path7026" />
  <path
     style="stroke-width:0.1"
     d="m 338.7,150.8 c -2.3,2.5 -2.1,7.8 0.3,10.2 6.1,6.1 15.4,-2.7 10.4,-9.8 -2,-2.8 -8.3,-3.1 -10.7,-0.4 z"
     id="path7028" />
  <path
     style="stroke-width:0.1"
     d="m 730,151.7 c -5.5,7 4.2,15.1 10.5,8.8 3,-2.9 3.2,-6.4 0.5,-9.3 -3,-3.2 -8.2,-3 -11,0.5 z"
     id="path7030" />
  <path
     style="stroke-width:0.1"
     d="m 30.2,157.6 c -1.6,1.1 -2.2,2.5 -2.2,5.4 0,2.9 0.6,4.3 2.2,5.4 5.1,3.6 11.8,0.5 11.8,-5.4 0,-5.9 -6.7,-9 -11.8,-5.4 z"
     id="path7032" />
  <path
     style="stroke-width:0.1"
     d="m 105.2,158.3 c -2.8,3 -2.8,6.8 0.1,9.5 4.8,4.5 12,1.6 12,-4.8 0,-6.5 -7.6,-9.5 -12.1,-4.7 z"
     id="path7034" />
  <path
     style="stroke-width:0.1"
     d="m 1065.2,157.6 c -1.6,1.1 -2.2,2.5 -2.2,5.4 0,2.9 0.6,4.3 2.2,5.4 5.1,3.6 11.8,0.5 11.8,-5.4 0,-5.9 -6.7,-9 -11.8,-5.4 z"
     id="path7036" />
  <path
     style="stroke-width:0.1"
     d="m 209.5,161.5 c -1.4,1.3 -2.5,3.6 -2.5,5 0,3.3 4.2,7.5 7.5,7.5 3.3,0 7.5,-4.2 7.5,-7.5 0,-3.3 -4.2,-7.5 -7.5,-7.5 -1.4,0 -3.7,1.1 -5,2.5 z"
     id="path7038" />
  <path
     style="stroke-width:0.1"
     d="m 484.3,160.2 c -6.8,3.3 -4,13.8 3.7,13.8 2.8,0 7,-4.4 7,-7.3 0,-5.1 -6.1,-8.8 -10.7,-6.5 z"
     id="path7040" />
  <path
     style="stroke-width:0.1"
     d="m 876,160.3 c -5.2,2.6 -4.9,10.4 0.4,12.8 3.6,1.7 7.3,0.3 9.2,-3.2 1.9,-3.8 0.6,-8 -3.2,-9.8 -3.1,-1.4 -3.3,-1.4 -6.4,0.2 z"
     id="path7042" />
  <path
     style="stroke-width:0.1"
     d="m 939.2,165 c -2.6,2.4 -2.9,6.6 -0.6,9.8 1.1,1.6 2.5,2.2 5.3,2.2 4.6,0 7.1,-2.4 7.1,-6.8 0,-6.4 -7.2,-9.5 -11.8,-5.2 z"
     id="path7044" />
  <path
     style="stroke-width:0.1"
     d="m 281.5,172.5 c -4,3.9 -2.9,9.7 2.2,11.6 3.6,1.3 7.8,-0.5 9.3,-4 3.1,-7.5 -5.8,-13.4 -11.5,-7.6 z"
     id="path7046" />
  <path
     style="stroke-width:0.1"
     d="m 659.7,171.2 c -4.1,3.2 -3.8,9.4 0.6,12.3 4.6,3 10.7,-0.6 10.7,-6.3 0,-5.1 -7.3,-9 -11.3,-6 z"
     id="path7048" />
  <path
     style="stroke-width:0.1"
     d="m 830,173 c -1.1,1.1 -2,3.3 -2,5 0,1.7 0.9,3.9 2,5 1.1,1.1 3.3,2 5,2 1.7,0 3.9,-0.9 5,-2 1.1,-1.1 2,-3.3 2,-5 0,-1.7 -0.9,-3.9 -2,-5 -1.1,-1.1 -3.3,-2 -5,-2 -1.7,0 -3.9,0.9 -5,2 z"
     id="path7050" />
  <path
     style="stroke-width:0.1"
     d="m 159.5,179.5 c -1.4,1.3 -2.5,3.6 -2.5,5 0,2.9 4,7.5 6.5,7.5 2,0 5.7,-1.9 6.7,-3.4 1.8,-2.6 0.8,-7.5 -1.8,-9.5 -3.5,-2.7 -5.9,-2.6 -8.9,0.4 z"
     id="path7052" />
  <path
     style="stroke-width:0.1"
     d="m 786.2,178 c -2.2,0.9 -4.2,4.6 -4.2,7.6 0,2.4 4.7,6.4 7.5,6.4 1.4,0 3.7,-1.1 5.2,-2.6 2,-2 2.4,-3.1 1.9,-5.7 -0.4,-1.7 -1.2,-3.7 -1.9,-4.4 -1.8,-1.7 -5.9,-2.4 -8.5,-1.3 z"
     id="path7054" />
  <path
     style="stroke-width:0.1"
     d="m 405.9,185.4 c -1.3,0.6 -3,2.3 -3.8,3.7 -1.2,2.2 -1.2,2.9 0,5.4 4,8.4 16.5,3.2 12.9,-5.4 -1.5,-3.7 -5.7,-5.4 -9.1,-3.7 z"
     id="path7056" />
  <path
     style="stroke-width:0.1"
     d="m 1009.3,185.5 c -4.9,2.1 -5.8,7.1 -1.8,11 4.5,4.6 11.8,1.9 11.8,-4.3 0,-5.8 -4.7,-8.9 -10,-6.7 z"
     id="path7058" />
  <path
     style="stroke-width:0.1"
     d="m 705.5,190.5 c -3.9,3.9 -3.2,8.6 1.7,11.1 5.9,3 12.2,-2.7 9.9,-8.9 -1.9,-5.1 -7.7,-6.2 -11.6,-2.2 z"
     id="path7060" />
  <path
     style="stroke-width:0.1"
     d="m 565.5,197.5 c -1.4,1.3 -2.5,3.6 -2.5,5 0,2.8 4,7.5 6.4,7.5 7.8,0 10.9,-10.7 4,-13.9 -3.7,-1.6 -5.2,-1.4 -7.9,1.4 z"
     id="path7062" />
  <path
     style="stroke-width:0.1"
     d="m 612.6,197.1 c -1.9,1.5 -2.6,3 -2.6,5.4 0,3.6 3.6,7.5 7,7.5 3.4,0 7,-3.9 7,-7.5 0,-3.6 -3.6,-7.5 -7,-7.5 -1,0 -2.9,0.9 -4.4,2.1 z"
     id="path7064" />
  <path
     style="stroke-width:0.1"
     d="m 44.2,201.3 c -4.5,4.8 -1.4,11.7 5.1,11.7 4.2,0 6.7,-2.6 6.7,-6.8 0,-6.5 -7.4,-9.6 -11.8,-4.9 z"
     id="path7066" />
  <path
     style="stroke-width:0.1"
     d="m 101.9,200.8 c -2.8,2.3 -3,7.3 -0.4,10.2 2.5,2.7 7.8,2.7 10.5,-0.2 2.6,-2.8 2.6,-5.8 -0.1,-9.2 -2.5,-3.1 -6.6,-3.5 -10,-0.8 z"
     id="path7068" />
  <path
     style="stroke-width:0.1"
     d="m 331.9,200.8 c -2.8,2.3 -3,7.3 -0.4,10.2 2.5,2.7 7.8,2.7 10.5,-0.2 2.6,-2.8 2.6,-5.8 -0.1,-9.2 -2.5,-3.1 -6.6,-3.5 -10,-0.8 z"
     id="path7070" />
  <path
     style="stroke-width:0.1"
     d="m 1079.2,201.3 c -4.5,4.8 -1.4,11.7 5.1,11.7 4.2,0 6.7,-2.6 6.7,-6.8 0,-6.5 -7.4,-9.6 -11.8,-4.9 z"
     id="path7072" />
  <path
     style="stroke-width:0.1"
     d="m 865.9,203.1 c -1.5,0.6 -3.2,2.3 -3.9,3.9 -2.5,6.1 4.1,12.2 9.8,8.9 5.4,-3 5.2,-10.2 -0.5,-12.8 -1.3,-0.6 -2.5,-1.1 -2.6,-1 -0.1,0 -1.4,0.5 -2.8,1 z"
     id="path7074" />
  <path
     style="stroke-width:0.1"
     d="m 461.2,208 c -4.7,4.4 -1.6,12.3 4.8,12.3 4.1,0 7,-2.8 7,-7 0,-6.5 -7.1,-9.6 -11.8,-5.3 z"
     id="path7076" />
  <path
     style="stroke-width:0.1"
     d="m 231,219 c -4.5,4.5 -1.1,12 5.4,12 2.5,0 3.9,-0.7 5,-2.2 3.6,-5.1 0.5,-11.8 -5.4,-11.8 -1.7,0 -3.9,0.9 -5,2 z"
     id="path7078" />
  <path
     style="stroke-width:0.1"
     d="m 919.3,221.2 c -1.2,0.6 -2.7,2.4 -3.4,4 -3.4,8.3 8.6,13.6 13,5.7 1.9,-3.3 0.1,-8.1 -3.5,-9.8 -2.9,-1.3 -3.2,-1.3 -6.1,0.1 z"
     id="path7080" />
  <path
     style="stroke-width:0.1"
     d="m 407.6,226.1 c -5,3.9 -2.2,12.2 4.2,12.2 4.3,0 7.2,-2.8 7.2,-7 0,-6.5 -6.1,-9.3 -11.4,-5.2 z"
     id="path7082" />
  <path
     style="stroke-width:0.1"
     d="m 752.6,226.1 c -5,3.9 -2.2,12.2 4.2,12.2 4.3,0 7.2,-2.8 7.2,-7 0,-6.5 -6.1,-9.3 -11.4,-5.2 z"
     id="path7084" />
  <path
     style="stroke-width:0.1"
     d="m 813.5,226.5 c -4.6,4.6 -1.9,11.8 4.4,11.8 6.6,0 9.8,-7.6 5.1,-12.3 -2.7,-2.7 -6.6,-2.5 -9.5,0.5 z"
     id="path7086" />
  <path
     style="stroke-width:0.1"
     d="m 162.7,229.8 c -2.5,2.8 -2.2,8.7 0.5,10.6 7.1,5 15.9,-4.3 9.8,-10.4 -2.6,-2.6 -8.1,-2.6 -10.3,-0.2 z"
     id="path7088" />
  <path
     style="stroke-width:0.1"
     d="m 968.2,236.6 c -2.8,2 -3.1,8.3 -0.4,10.7 2.5,2.3 7.8,2.1 10.2,-0.3 6.1,-6.1 -2.7,-15.4 -9.8,-10.4 z"
     id="path7090" />
  <path
     style="stroke-width:0.1"
     d="m 1025.2,237.3 c -4.4,4.7 -1.3,11.7 5.2,11.7 4.1,0 6.9,-2.9 6.9,-7.2 0,-6.1 -7.8,-9.1 -12.1,-4.5 z"
     id="path7092" />
  <path
     style="stroke-width:0.1"
     d="m 505.6,238.6 c -4.3,4.3 -1.9,11.6 4.1,12.2 6.2,0.6 10.1,-6.2 6.3,-11.1 -2.5,-3.1 -7.8,-3.7 -10.4,-1.1 z"
     id="path7094" />
  <path
     style="stroke-width:0.1"
     d="m 688.8,239.5 c -7.8,4.3 -1.4,16.4 6.8,12.6 5.4,-2.4 5.3,-10.5 -0.2,-13 -3.1,-1.4 -3.3,-1.4 -6.6,0.4 z"
     id="path7096" />
  <path
     style="stroke-width:0.1"
     d="m 281.5,244.5 c -4,3.9 -2.9,9.5 2.2,11.3 7.8,2.7 13.6,-7.6 7,-12.3 -3.1,-2.2 -6.5,-1.8 -9.2,1 z"
     id="path7098" />
  <path
     style="stroke-width:0.1"
     d="m 350.3,243.5 c -6.6,4.7 -0.8,15 7,12.3 5.1,-1.8 6.2,-7.4 2.2,-11.3 -2.7,-2.8 -6.1,-3.2 -9.2,-1 z"
     id="path7100" />
  <path
     style="stroke-width:0.1"
     d="m 881.1,255.6 c -1.2,1.5 -2.1,3.4 -2.1,4.4 0,3.4 3.9,7 7.5,7 3.6,0 7.5,-3.6 7.5,-7 0,-3.4 -3.9,-7 -7.5,-7 -2.4,0 -3.9,0.7 -5.4,2.6 z"
     id="path7102" />
  <path
     style="stroke-width:0.1"
     d="m 46.3,257 c -2.5,1 -4.3,3.9 -4.3,7 0,2.8 4.3,7 7.3,7 6.3,0 9.1,-8.9 4.1,-12.9 -2.9,-2.3 -3.8,-2.4 -7.1,-1.1 z"
     id="path7104" />
  <path
     style="stroke-width:0.1"
     d="m 1081.3,257 c -2.5,1 -4.3,3.9 -4.3,7 0,2.8 4.3,7 7.3,7 6.3,0 9.1,-8.9 4.1,-12.9 -2.9,-2.3 -3.8,-2.4 -7.1,-1.1 z"
     id="path7106" />
  <path
     style="stroke-width:0.1"
     d="m 112.5,262.5 c -2.8,2.7 -3.1,4.5 -1.4,7.8 1.6,3 2.8,3.7 6.6,3.7 3.5,0 7.3,-3.7 7.3,-7.2 0,-2.7 -4.5,-6.8 -7.5,-6.8 -1.4,0 -3.7,1.1 -5,2.5 z"
     id="path7108" />
  <path
     style="stroke-width:0.1"
     d="m 626.5,262.5 c -3,2.9 -3.2,6.4 -0.5,9.3 3,3.2 8.2,3 11,-0.5 5.5,-7 -4.2,-15.1 -10.5,-8.8 z"
     id="path7110" />
  <path
     style="stroke-width:0.1"
     d="m 220,266 c -2.6,2.6 -2.5,6 0.1,9.4 2.5,3.1 6.6,3.5 10,0.8 2.8,-2.3 3,-7.3 0.4,-10.2 -2.4,-2.6 -7.9,-2.6 -10.5,0 z"
     id="path7112" />
  <path
     style="stroke-width:0.1"
     d="m 418,273 c -4.3,4.3 -1.1,12 5,12 3.8,0 7,-3.2 7,-7 0,-3.8 -3.2,-7 -7,-7 -1.7,0 -3.9,0.9 -5,2 z"
     id="path7114" />
  <path
     style="stroke-width:0.1"
     d="m 561.5,273 c -4.1,4.5 -1,12 5,12 3.8,0 7.5,-3.5 7.5,-7.1 0,-5.8 -8.7,-9.1 -12.5,-4.9 z"
     id="path7116" />
  <path
     style="stroke-width:0.1"
     d="m 709,280 c -2.4,2.4 -2.6,6.7 -0.4,9.8 2,2.8 8.3,3.1 10.7,0.4 4,-4.5 0.6,-12.2 -5.3,-12.2 -1.7,0 -3.9,0.9 -5,2 z"
     id="path7118" />
  <path
     style="stroke-width:0.1"
     d="m 477.9,282.2 c -3.8,1.3 -5.7,6.2 -3.8,9.7 3.2,5.6 11.2,4.9 13.3,-1.2 1.8,-5.1 -4.1,-10.3 -9.5,-8.5 z"
     id="path7120" />
  <path
     style="stroke-width:0.1"
     d="m 804.9,282.2 c -3.8,1.3 -5.7,6.2 -3.8,9.7 3.2,5.6 11.2,4.9 13.3,-1.2 1.8,-5.1 -4.1,-10.3 -9.5,-8.5 z"
     id="path7122" />
  <path
     style="stroke-width:0.1"
     d="m 364,291 c -4.3,4.3 -1.1,12 5,12 3.8,0 7,-3.2 7,-7 0,-3.8 -3.2,-7 -7,-7 -1.7,0 -3.9,0.9 -5,2 z"
     id="path7124" />
  <path
     style="stroke-width:0.1"
     d="m 863.1,291.6 c -1.2,1.5 -2.1,3.4 -2.1,4.4 0,3.4 3.9,7 7.5,7 3.6,0 7.5,-3.6 7.5,-7 0,-3.4 -3.9,-7 -7.5,-7 -2.4,0 -3.9,0.7 -5.4,2.6 z"
     id="path7126" />
  <path
     style="stroke-width:0.1"
     d="m 946,291 c -6.1,6.1 2.7,15.4 9.8,10.4 2.8,-2 3.1,-8.3 0.4,-10.7 -2.5,-2.3 -7.8,-2.1 -10.2,0.3 z"
     id="path7128" />
  <path
     style="stroke-width:0.1"
     d="m 1010.7,290.8 c -2.5,2.8 -2.2,8.7 0.5,10.6 5.1,3.6 11.8,0.5 11.8,-5.4 0,-1.7 -0.9,-3.9 -2,-5 -2.6,-2.6 -8.1,-2.6 -10.3,-0.2 z"
     id="path7130" />
  <path
     style="stroke-width:0.1"
     d="m 168,293.3 c -5.2,2.6 -4.9,10.4 0.4,12.8 3.6,1.7 7.3,0.3 9.2,-3.2 1.9,-3.8 0.6,-8 -3.2,-9.8 -3.1,-1.4 -3.3,-1.4 -6.4,0.2 z"
     id="path7132" />
  <path
     style="stroke-width:0.1"
     d="m 670.3,297.5 c -4.9,2.1 -5.8,7.1 -1.8,11 4.5,4.6 11.8,1.9 11.8,-4.3 0,-5.8 -4.7,-8.9 -10,-6.7 z"
     id="path7134" />
  <path
     style="stroke-width:0.1"
     d="m 626,299.7 c -5.1,1.9 -6.8,8.5 -3,12.3 6.1,6.1 15.9,-3.3 10.3,-9.8 -2,-2.3 -5,-3.3 -7.3,-2.5 z"
     id="path7136" />
  <path
     style="stroke-width:0.1"
     d="m 278,305 c -2.6,2.6 -2.6,8.1 0,10.5 2.9,2.6 7.9,2.4 10.2,-0.4 2.5,-3.2 2.3,-6.7 -0.7,-9.6 -2.9,-3 -6.8,-3.2 -9.5,-0.5 z"
     id="path7138" />
  <path
     style="stroke-width:0.1"
     d="m 94.1,309.6 c -1.2,1.5 -2.1,3.4 -2.1,4.4 0,3.4 3.9,7 7.5,7 3.6,0 7.5,-3.6 7.5,-7 0,-3.4 -3.9,-7 -7.5,-7 -2.4,0 -3.9,0.7 -5.4,2.6 z"
     id="path7140" />
  <path
     style="stroke-width:0.1"
     d="m 19.6,312.1 c -3.6,2.8 -3.6,8 0,10.8 1.5,1.2 3.4,2.1 4.4,2.1 3.4,0 7,-3.9 7,-7.5 0,-3.6 -3.6,-7.5 -7,-7.5 -1,0 -2.9,0.9 -4.4,2.1 z"
     id="path7142" />
  <path
     style="stroke-width:0.1"
     d="m 763.6,312.1 c -1.9,1.5 -2.6,3 -2.6,5.4 0,3.6 3.6,7.5 7,7.5 3.4,0 7,-3.9 7,-7.5 0,-3.6 -3.6,-7.5 -7,-7.5 -1,0 -2.9,0.9 -4.4,2.1 z"
     id="path7144" />
  <path
     style="stroke-width:0.1"
     d="m 1054.6,312.1 c -1.9,1.5 -2.6,3 -2.6,5.4 0,3.6 3.6,7.5 7,7.5 3.4,0 7,-3.9 7,-7.5 0,-3.6 -3.6,-7.5 -7,-7.5 -1,0 -2.9,0.9 -4.4,2.1 z"
     id="path7146" />
  <path
     style="stroke-width:0.1"
     d="m 547.5,323.5 c -3.9,3.8 -3.2,8.6 1.6,11 4.9,2.6 10.2,-0.9 10.2,-6.7 0,-6.2 -7.3,-8.9 -11.8,-4.3 z"
     id="path7148" />
  <path
     style="stroke-width:0.1"
     d="m 231,327 c -4.3,4.3 -1.1,12 5,12 1.7,0 3.9,-0.9 5,-2 2.6,-2.6 2.6,-8.1 0.2,-10.3 -2.5,-2.3 -7.8,-2.1 -10.2,0.3 z"
     id="path7150" />
  <path
     style="stroke-width:0.1"
     d="m 407,327 c -4.2,4.2 -0.8,12 5.3,12 5.8,0 9.1,-8.5 4.9,-12.3 -2.5,-2.3 -7.8,-2.1 -10.2,0.3 z"
     id="path7152" />
  <path
     style="stroke-width:0.1"
     d="m 484.7,328.7 c -0.9,0.2 -2.4,1.8 -3.3,3.5 -1.9,3.7 -0.5,8 3.2,9.7 3.7,1.6 5.2,1.4 7.9,-1.4 5.8,-5.7 0.3,-13.9 -7.8,-11.8 z"
     id="path7154" />
  <path
     style="stroke-width:0.1"
     d="m 901.3,336.2 c -1.2,0.6 -2.7,2.4 -3.4,4 -3.4,8.3 8.6,13.6 13,5.7 1.9,-3.3 0.1,-8.1 -3.5,-9.8 -2.9,-1.3 -3.2,-1.3 -6.1,0.1 z"
     id="path7156" />
  <path
     style="stroke-width:0.1"
     d="m 148.1,343.6 c -1.2,1.5 -2.1,3.4 -2.1,4.4 0,3.4 3.9,7 7.5,7 3.6,0 7.5,-3.6 7.5,-7 0,-3.4 -3.9,-7 -7.5,-7 -2.4,0 -3.9,0.7 -5.4,2.6 z"
     id="path7158" />
  <path
     style="stroke-width:0.1"
     d="m 338.7,344.8 c -4,4.4 -0.7,12.2 5.1,12.2 6,0 9.4,-7.8 5.2,-12 -2.6,-2.6 -8.1,-2.6 -10.3,-0.2 z"
     id="path7160" />
  <path
     style="stroke-width:0.1"
     d="m 813,345 c -6.3,6.3 3.1,15.8 10.1,10.2 2.8,-2.3 3,-7.3 0.4,-10.2 -2.4,-2.6 -7.9,-2.6 -10.5,0 z"
     id="path7162" />
  <path
     style="stroke-width:0.1"
     d="m 982.5,348.5 c -1.4,1.3 -2.5,3.6 -2.5,5 0,3 4.1,7.5 6.8,7.5 3.5,0 7.2,-3.8 7.2,-7.5 0,-2.4 -0.7,-3.9 -2.6,-5.4 -3.5,-2.7 -5.9,-2.6 -8.9,0.4 z"
     id="path7164" />
  <path
     style="stroke-width:0.1"
     d="m 700,348.3 c -1.3,0.7 -2.9,2.5 -3.4,3.9 -2.9,8.3 9.4,13.7 12.8,5.6 1.7,-3.9 1.1,-6.3 -2.2,-8.8 -2.9,-2.3 -3.8,-2.4 -7.2,-0.7 z"
     id="path7166" />
  <path
     style="stroke-width:0.1"
     d="m 22,353.7 c -5.5,2 -6.8,8.7 -2.4,12.2 1.5,1.2 3.4,2.1 4.4,2.1 3.3,0 7,-3.9 7,-7.4 0,-4.6 -4.9,-8.4 -9,-6.9 z"
     id="path7168" />
  <path
     style="stroke-width:0.1"
     d="m 82.3,354 c -4.8,2 -5.8,8.7 -1.7,11.9 3.4,2.7 6.4,2.7 9.2,0.1 3.2,-3 3,-8.2 -0.4,-10.9 -2.9,-2.3 -3.8,-2.4 -7.1,-1.1 z"
     id="path7170" />
  <path
     style="stroke-width:0.1"
     d="m 605.7,355 c -5,4 -2.5,13 3.7,13 3.6,0 7.6,-3.7 7.6,-7 0,-6.2 -6.6,-9.7 -11.3,-6 z"
     id="path7172" />
  <path
     style="stroke-width:0.1"
     d="m 1057,353.7 c -5.5,2 -6.8,8.7 -2.4,12.2 1.5,1.2 3.4,2.1 4.4,2.1 3.3,0 7,-3.9 7,-7.4 0,-4.6 -4.9,-8.4 -9,-6.9 z"
     id="path7174" />
  <path
     style="stroke-width:0.1"
     d="m 749.3,358.5 c -6.6,4.6 -0.8,15 6.8,12.3 2.6,-0.9 4.9,-4.4 4.9,-7.4 0,-2.3 -4.6,-6.4 -7.2,-6.4 -1.3,0 -3.3,0.7 -4.5,1.5 z"
     id="path7176" />
  <path
     style="stroke-width:0.1"
     d="m 558,363 c -4.2,4.2 -0.8,12 5.3,12 5.8,0 9.1,-8.5 4.9,-12.3 -2.5,-2.3 -7.8,-2.1 -10.2,0.3 z"
     id="path7178" />
  <path
     style="stroke-width:0.1"
     d="m 432.2,370.3 c -2.8,3 -2.8,6.8 0.1,9.5 4.8,4.5 12,1.6 12,-4.8 0,-6.5 -7.6,-9.5 -12.1,-4.7 z"
     id="path7180" />
  <path
     style="stroke-width:0.1"
     d="m 242.7,373 c -7.2,5.7 0.8,16.7 8.1,11.3 5.1,-3.8 3.4,-11.4 -2.8,-12.8 -1.8,-0.4 -3.4,0 -5.3,1.5 z"
     id="path7182" />
  <path
     style="stroke-width:0.1"
     d="m 332.7,383.1 c -4.8,2.8 -4,10.7 1.2,12.9 7.5,3.1 13.4,-5.8 7.6,-11.5 -2.5,-2.6 -5.8,-3.1 -8.8,-1.4 z"
     id="path7184" />
  <path
     style="stroke-width:0.1"
     d="m 669.5,384.5 c -1.4,1.3 -2.5,3.1 -2.5,3.9 0,3 2.3,6.5 5,7.6 5.8,2.4 12,-4.4 9,-9.9 -2.4,-4.6 -7.8,-5.3 -11.5,-1.6 z"
     id="path7186" />
  <path
     style="stroke-width:0.1"
     d="m 835.2,384 c -3.2,3 -3,8.2 0.5,11 7,5.5 15.1,-4.2 8.8,-10.5 -2.9,-3 -6.4,-3.2 -9.3,-0.5 z"
     id="path7188" />
  <path
     style="stroke-width:0.1"
     d="m 166.1,388.6 c -1.2,1.5 -2.1,3.4 -2.1,4.4 0,3.3 3.9,7 7.4,7 6,0 9.3,-6.6 5.6,-11.3 -2.9,-3.7 -8,-3.7 -10.9,-0.1 z"
     id="path7190" />
  <path
     style="stroke-width:0.1"
     d="m 612.6,391.1 c -1.9,1.5 -2.6,3 -2.6,5.4 0,3.6 3.6,7.5 7,7.5 3.4,0 7,-3.9 7,-7.5 0,-3.6 -3.6,-7.5 -7,-7.5 -1,0 -2.9,0.9 -4.4,2.1 z"
     id="path7192" />
  <path
     style="stroke-width:0.1"
     d="m 720.6,391.1 c -2.6,2 -3.6,6.9 -1.8,9.5 1,1.5 4.7,3.4 6.7,3.4 2.5,0 6.5,-4.6 6.5,-7.5 0,-3 -4.1,-7.5 -6.8,-7.5 -1.1,0 -3.1,0.9 -4.6,2.1 z"
     id="path7194" />
  <path
     style="stroke-width:0.1"
     d="m 894,390.3 c -5.2,2.6 -4.9,10.4 0.4,12.8 3.6,1.7 7.3,0.3 9.2,-3.2 1.9,-3.8 0.6,-8 -3.2,-9.8 -3.1,-1.4 -3.3,-1.4 -6.4,0.2 z"
     id="path7196" />
  <path
     style="stroke-width:0.1"
     d="m 1009,390.3 c -5.2,2.6 -4.9,10.4 0.4,12.8 3.6,1.7 7.3,0.3 9.2,-3.2 1.9,-3.8 0.6,-8 -3.2,-9.8 -3.1,-1.4 -3.3,-1.4 -6.4,0.2 z"
     id="path7198" />
  <path
     style="stroke-width:0.1"
     d="m 83.3,396.8 c -5.1,0.8 -7,8.3 -3,12 4.8,4.5 11.7,1.4 11.7,-5.1 0,-4.8 -3.8,-7.7 -8.7,-6.9 z"
     id="path7200" />
  <path
     style="stroke-width:0.1"
     d="m 496.1,397.2 c -5.4,1.9 -6.6,7.4 -2.6,11.3 2.8,2.9 6.5,3.2 9.3,0.7 3.2,-2.6 3.7,-6.3 1.3,-9.4 -2.4,-3 -4.8,-3.8 -8,-2.6 z"
     id="path7202" />
  <path
     style="stroke-width:0.1"
     d="m 556.2,408 c -2.2,0.9 -4.2,4.6 -4.2,7.6 0,2.4 4.7,6.4 7.5,6.4 1.4,0 3.7,-1.1 5.2,-2.6 2,-2 2.4,-3.1 1.9,-5.7 -0.4,-1.7 -1.2,-3.7 -1.9,-4.4 -1.8,-1.7 -5.9,-2.4 -8.5,-1.3 z"
     id="path7204" />
  <path
     style="stroke-width:0.1"
     d="m 285,413 c -2.4,2.4 -2.6,6.7 -0.4,9.8 1.1,1.6 2.5,2.2 5.4,2.2 2.9,0 4.3,-0.6 5.4,-2.2 3.6,-5.1 0.5,-11.8 -5.4,-11.8 -1.7,0 -3.9,0.9 -5,2 z"
     id="path7206" />
  <path
     style="stroke-width:0.1"
     d="m 382,413 c -2.4,2.4 -2.6,6.7 -0.4,9.8 1.1,1.6 2.5,2.2 5.4,2.2 2.9,0 4.3,-0.6 5.4,-2.2 3.6,-5.1 0.5,-11.8 -5.4,-11.8 -1.7,0 -3.9,0.9 -5,2 z"
     id="path7208" />
  <path
     style="stroke-width:0.1"
     d="m 770.2,413.3 c -4.5,4.8 -1.4,11.7 5.1,11.7 4.2,0 6.7,-2.6 6.7,-6.8 0,-6.5 -7.4,-9.6 -11.8,-4.9 z"
     id="path7210" />
  <path
     style="stroke-width:0.1"
     d="m 946.2,413.3 c -4.5,4.8 -1.4,11.7 5.1,11.7 4.3,0 6.7,-2.6 6.7,-7.3 0,-6.3 -7.4,-9.1 -11.8,-4.4 z"
     id="path7212" />
  <path
     style="stroke-width:0.1"
     d="m 135,417.3 c -5.2,2.6 -4.9,10.4 0.5,12.9 5.8,2.6 11.9,-3.3 9.5,-9.1 -0.6,-1.6 -2.3,-3.3 -3.6,-4 -3.1,-1.4 -3.3,-1.4 -6.4,0.2 z"
     id="path7214" />
  <path
     style="stroke-width:0.1"
     d="m 680.2,431.3 c -4.5,4.8 -1.4,11.7 5.1,11.7 4.2,0 7,-2.9 7,-7.2 0,-6.1 -7.8,-9.1 -12.1,-4.5 z"
     id="path7216" />
  <path
     style="stroke-width:0.1"
     d="m 597,432.7 c -7.6,2.7 -5.8,14.3 2.1,14.3 5.5,0 9.2,-8.7 5.2,-12.2 -2.2,-1.9 -5.3,-2.8 -7.3,-2.1 z"
     id="path7218" />
  <path
     style="stroke-width:0.1"
     d="m 826.3,433 c -4.6,1.9 -5.7,8.3 -2,11.8 3,2.8 6.8,2.8 9.5,-0.1 5.4,-5.7 -0.3,-14.5 -7.5,-11.7 z"
     id="path7220" />
  <path
     style="stroke-width:0.1"
     d="m 177.6,438.1 c -5,3.9 -2.2,12.2 4.2,12.2 4.3,0 7.2,-2.8 7.2,-7 0,-6.5 -6.1,-9.3 -11.4,-5.2 z"
     id="path7222" />
  <path
     style="stroke-width:0.1"
     d="m 439.5,438.5 c -1.4,1.3 -2.5,3.1 -2.5,3.9 0,5.4 5.8,9.6 10.4,7.5 2.4,-1.1 4.6,-4.7 4.6,-7.5 0,-2.4 -4.7,-6.4 -7.5,-6.4 -1.4,0 -3.7,1.1 -5,2.5 z"
     id="path7224" />
  <path
     style="stroke-width:0.1"
     d="m 1018.6,438.1 c -5,3.9 -2.2,12.2 4.2,12.2 6.6,0 9.8,-7.8 5,-12.3 -2.8,-2.6 -5.8,-2.6 -9.2,0.1 z"
     id="path7226" />
  <path
     style="stroke-width:0.1"
     d="m 878.6,439.1 c -1.9,1.5 -2.6,3 -2.6,5.4 0,3.6 3.6,7.5 7,7.5 3.4,0 7,-3.9 7,-7.5 0,-3.6 -3.6,-7.5 -7,-7.5 -1,0 -2.9,0.9 -4.4,2.1 z"
     id="path7228" />
  <path
     style="stroke-width:0.1"
     d="m 60.2,444 c -5.1,2.1 -4.8,11.1 0.5,13.1 7.7,2.9 13.6,-5.9 7.8,-11.6 -2.5,-2.6 -4.5,-3 -8.3,-1.5 z"
     id="path7230" />
  <path
     style="stroke-width:0.1"
     d="m 1095.2,444 c -5.1,2.1 -4.8,11.1 0.5,13.1 7.7,2.9 13.6,-5.9 7.8,-11.6 -2.5,-2.6 -4.5,-3 -8.3,-1.5 z"
     id="path7232" />
  <path
     style="stroke-width:0.1"
     d="m 234.9,448.8 c -2.8,2.3 -3,7.3 -0.4,10.2 2.5,2.7 7.8,2.7 10.5,-0.2 2.6,-2.8 2.6,-5.8 -0.1,-9.2 -2.5,-3.1 -6.6,-3.5 -10,-0.8 z"
     id="path7234" />
  <path
     style="stroke-width:0.1"
     d="m 506.3,451 c -4.8,1.9 -5.8,8.7 -1.7,11.9 5.3,4.1 11.4,1.3 11.4,-5.2 0,-5.1 -5,-8.6 -9.7,-6.7 z"
     id="path7236" />
  <path
     style="stroke-width:0.1"
     d="m 299.5,463.5 c -5.8,5.7 0.1,14.6 7.6,11.5 7.7,-3.2 4.7,-13.9 -3.9,-14 -0.7,0 -2.4,1.1 -3.7,2.5 z"
     id="path7238" />
  <path
     style="stroke-width:0.1"
     d="m 371.5,463.5 c -1.4,1.3 -2.5,3.6 -2.5,5 0,3 4.1,7.5 6.7,7.5 2.5,0 6.3,-2.8 7.2,-5.4 1.2,-3 -0.6,-7.1 -3.5,-8.5 -3.7,-1.6 -5.2,-1.4 -7.9,1.4 z"
     id="path7240" />
  <path
     style="stroke-width:0.1"
     d="m 749.7,462.1 c -4.8,2.8 -4,10.7 1.2,12.9 7.5,3.1 13.4,-5.8 7.6,-11.5 -2.5,-2.6 -5.8,-3.1 -8.8,-1.4 z"
     id="path7242" />
  <path
     style="stroke-width:0.1"
     d="m 119.5,467 c -1,1.1 -1.8,3.4 -1.8,5 0,6.5 7.6,9.5 12.1,4.7 2.8,-2.9 2.8,-5.7 0.1,-9.1 -2.6,-3.3 -7.7,-3.6 -10.4,-0.6 z"
     id="path7244" />
  <path
     style="stroke-width:0.1"
     d="m 957.2,474 c -2.6,2.4 -2.9,6.6 -0.6,9.8 2,2.8 8.3,3.1 10.7,0.4 4,-4.4 0.5,-12.2 -5.3,-12.2 -1.4,0 -3.6,0.9 -4.8,2 z"
     id="path7246" />
  <path
     style="stroke-width:0.1"
     d="m 644.5,481.5 c -4,3.9 -2.9,9.7 2.2,11.6 6.2,2.3 11.9,-4 8.9,-9.9 -2.5,-4.9 -7.2,-5.6 -11.1,-1.7 z"
     id="path7248" />
  <path
     style="stroke-width:0.1"
     d="m 436,485 c -1.1,1.1 -2,3.3 -2,5 0,1.7 0.9,3.9 2,5 1.1,1.1 3.3,2 5,2 1.7,0 3.9,-0.9 5,-2 1.1,-1.1 2,-3.3 2,-5 0,-1.7 -0.9,-3.9 -2,-5 -1.1,-1.1 -3.3,-2 -5,-2 -1.7,0 -3.9,0.9 -5,2 z"
     id="path7250" />
  <path
     style="stroke-width:0.1"
     d="m 908.6,487.1 c -3.6,2.9 -3.6,8 0.1,10.9 4.7,3.7 11.3,0.2 11.3,-6 0,-3.1 -3.9,-7 -7,-7 -1,0 -2.9,0.9 -4.4,2.1 z"
     id="path7252" />
  <path
     style="stroke-width:0.1"
     d="m 573.8,487.5 c -5.4,3 -4.2,11.6 1.8,13.1 8.3,2.1 12.6,-9.9 4.8,-13.5 -3.1,-1.4 -3.3,-1.4 -6.6,0.4 z"
     id="path7254" />
  <path
     style="stroke-width:0.1"
     d="m 51.5,492.5 c -3,2.9 -3.2,6.4 -0.5,9.3 3,3.2 8.2,3 11,-0.5 5.5,-7 -4.2,-15.1 -10.5,-8.8 z"
     id="path7256" />
  <path
     style="stroke-width:0.1"
     d="m 1086.5,492.5 c -3,2.9 -3.2,6.4 -0.5,9.3 3,3.2 8.2,3 11,-0.5 5.5,-7 -4.2,-15.1 -10.5,-8.8 z"
     id="path7258" />
  <path
     style="stroke-width:0.1"
     d="m 510.5,494 c -7.5,3 -5.6,14 2.4,14 3.4,0 7.1,-3.8 7.1,-7.2 0,-4.8 -5.2,-8.6 -9.5,-6.8 z"
     id="path7260" />
  <path
     style="stroke-width:0.1"
     d="m 173.1,496.6 c -1.2,1.5 -2.1,3.5 -2.1,4.6 0,2.7 4.5,6.8 7.5,6.8 2.9,0 7.5,-4 7.5,-6.5 0,-2 -1.9,-5.7 -3.4,-6.7 -2.6,-1.8 -7.5,-0.8 -9.5,1.8 z"
     id="path7262" />
  <path
     style="stroke-width:0.1"
     d="m 701.7,495.8 c -4,4.4 -0.7,12.2 5.1,12.2 6,0 9.4,-7.8 5.2,-12 -2.6,-2.6 -8.1,-2.6 -10.3,-0.2 z"
     id="path7264" />
  <path
     style="stroke-width:0.1"
     d="m 1007.5,499.5 c -1.4,1.3 -2.5,3.5 -2.5,4.7 0,5.6 6.1,9.3 10.6,6.3 3.7,-2.4 4.8,-5.2 3.3,-8.6 -2.2,-5.4 -7.4,-6.5 -11.4,-2.4 z"
     id="path7266" />
  <path
     style="stroke-width:0.1"
     d="m 270.1,503.6 c -1.2,1.5 -2.1,3.4 -2.1,4.4 0,3.4 3.9,7 7.5,7 3.6,0 7.5,-3.6 7.5,-7 0,-3.4 -3.9,-7 -7.5,-7 -2.4,0 -3.9,0.7 -5.4,2.6 z"
     id="path7268" />
  <path
     style="stroke-width:0.1"
     d="m 835.2,502.6 c -1.6,1.1 -2.2,2.5 -2.2,5.4 0,2.9 0.6,4.3 2.2,5.4 5.1,3.6 11.8,0.5 11.8,-5.4 0,-5.9 -6.7,-9 -11.8,-5.4 z"
     id="path7270" />
  <path
     style="stroke-width:0.1"
     d="m 763.6,506.1 c -1.9,1.5 -2.6,3 -2.6,5.4 0,3.6 3.6,7.5 7,7.5 3.4,0 7,-3.9 7,-7.5 0,-3.6 -3.6,-7.5 -7,-7.5 -1,0 -2.9,0.9 -4.4,2.1 z"
     id="path7272" />
  <path
     style="stroke-width:0.1"
     d="m 382,510 c -2.4,2.4 -2.6,6.7 -0.4,9.8 1.1,1.6 2.5,2.2 5.4,2.2 2.9,0 4.3,-0.6 5.4,-2.2 3.6,-5.1 0.5,-11.8 -5.4,-11.8 -1.7,0 -3.9,0.9 -5,2 z"
     id="path7274" />
  <path
     style="stroke-width:0.1"
     d="m 331.3,511.8 c -5.1,0.8 -7,8.3 -3,12 4.8,4.5 11.7,1.4 11.7,-5.1 0,-4.8 -3.8,-7.7 -8.7,-6.9 z"
     id="path7276" />
  <path
     style="stroke-width:0.1"
     d="m 231,521 c -1.1,1.1 -2,3.3 -2,5 0,1.7 0.9,3.9 2,5 1.1,1.1 3.3,2 5,2 1.7,0 3.9,-0.9 5,-2 1.1,-1.1 2,-3.3 2,-5 0,-1.7 -0.9,-3.9 -2,-5 -1.1,-1.1 -3.3,-2 -5,-2 -1.7,0 -3.9,0.9 -5,2 z"
     id="path7278" />
  <path
     style="stroke-width:0.1"
     d="m 622.7,520.8 c -2.5,2.8 -2.2,8.7 0.5,10.6 7.1,5 15.9,-4.3 9.8,-10.4 -2.6,-2.6 -8.1,-2.6 -10.3,-0.2 z"
     id="path7280" />
  <path
     style="stroke-width:0.1"
     d="m 888.9,527.8 c -2.8,2.3 -3,7.3 -0.4,10.2 2.4,2.6 7.9,2.6 10.5,0 6.3,-6.3 -3.1,-15.8 -10.1,-10.2 z"
     id="path7282" />
  <path
     style="stroke-width:0.1"
     d="m 469.8,530.6 c -7.3,3.9 -2.4,15 5.7,13 2.9,-0.7 5.6,-5.6 4.8,-8.7 -1.2,-4.3 -6.5,-6.5 -10.5,-4.3 z"
     id="path7284" />
  <path
     style="stroke-width:0.1"
     d="m 173.1,539.6 c -1.2,1.5 -2.1,3.4 -2.1,4.4 0,3.4 3.9,7 7.5,7 3.6,0 7.5,-3.6 7.5,-7 0,-3.4 -3.9,-7 -7.5,-7 -2.4,0 -3.9,0.7 -5.4,2.6 z"
     id="path7286" />
  <path
     style="stroke-width:0.1"
     d="m 529,539.2 c -2.6,2.8 -2.6,5.8 0.1,9.2 3.9,5 12.2,2.2 12.2,-4.2 0,-6.6 -7.8,-9.8 -12.3,-5 z"
     id="path7288" />
  <path
     style="stroke-width:0.1"
     d="m 946,539 c -6.1,6.1 2.7,15.4 9.8,10.4 2.8,-2 3.1,-8.3 0.4,-10.7 -2.5,-2.3 -7.8,-2.1 -10.2,0.3 z"
     id="path7290" />
  <path
     style="stroke-width:0.1"
     d="m 17.2,541 c -7.9,3.2 -3.2,15.7 5.1,13.3 6.4,-1.8 7.1,-11.1 1,-13.4 -2.8,-1.1 -3.1,-1.1 -6.1,0.1 z"
     id="path7292" />
  <path
     style="stroke-width:0.1"
     d="m 1052.2,541 c -7.9,3.2 -3.2,15.7 5.1,13.3 6.4,-1.8 7.1,-11.1 1,-13.4 -2.8,-1.1 -3.1,-1.1 -6.1,0.1 z"
     id="path7294" />
  <path
     style="stroke-width:0.1"
     d="m 109,546 c -2.6,2.6 -2.6,8.1 -0.2,10.3 4.4,4 12.2,0.7 12.2,-5.1 0,-6 -7.8,-9.4 -12,-5.2 z"
     id="path7296" />
  <path
     style="stroke-width:0.1"
     d="m 820.5,553.5 c -2.8,2.7 -3,4.2 -1.4,7.8 3.7,8.1 16.2,2.8 13,-5.6 -1.9,-5.1 -7.7,-6.2 -11.6,-2.2 z"
     id="path7298" />
  <path
     style="stroke-width:0.1"
     d="m 414.5,560.5 c -1.4,1.3 -2.5,3.6 -2.5,5 0,2.8 4,7.5 6.4,7.5 2.9,0 6.4,-2.2 7.5,-4.8 1.6,-3.3 -0.1,-7.5 -3.5,-9.1 -3.7,-1.6 -5.2,-1.4 -7.9,1.4 z"
     id="path7300" />
  <path
     style="stroke-width:0.1"
     d="m 59,564.2 c -4.3,4.7 -1.2,11.8 5.3,11.8 4.2,0 6.7,-2.6 6.7,-6.8 0,-6.4 -7.7,-9.6 -12,-5 z"
     id="path7302" />
  <path
     style="stroke-width:0.1"
     d="m 1094,564.2 c -4.3,4.7 -1.2,11.8 5.3,11.8 4.2,0 6.7,-2.6 6.7,-6.8 0,-6.4 -7.7,-9.6 -12,-5 z"
     id="path7304" />
  <path
     style="stroke-width:0.1"
     d="m 333.2,566.6 c -6.3,4.4 -3.7,13.4 3.9,13.4 2.8,0 6.9,-4.4 6.9,-7.3 0,-5.5 -6.5,-9.2 -10.8,-6.1 z"
     id="path7306" />
  <path
     style="stroke-width:0.1"
     d="m 702,571 c -2.6,2.6 -2.6,8.1 0,10.5 2.9,2.6 7.9,2.4 10.2,-0.4 5.6,-7 -3.9,-16.4 -10.2,-10.1 z"
     id="path7308" />
  <path
     style="stroke-width:0.1"
     d="m 274.5,578.5 c -1.4,1.3 -2.5,3.6 -2.5,5 0,3 4.1,7.5 6.8,7.5 3.5,0 7.2,-3.8 7.2,-7.3 0,-3.8 -0.7,-5 -3.7,-6.6 -3.3,-1.7 -5.1,-1.4 -7.8,1.4 z"
     id="path7310" />
  <path
     style="stroke-width:0.1"
     d="m 634.7,577.1 c -4.8,2.8 -4,10.7 1.2,12.9 7.5,3.1 13.4,-5.8 7.6,-11.5 -2.5,-2.6 -5.8,-3.1 -8.8,-1.4 z"
     id="path7312" />
  <path
     style="stroke-width:0.1"
     d="m 987.3,577.2 c -2.7,1.3 -4.3,5.5 -3.2,8.4 0.9,2.6 4.7,5.4 7.2,5.4 2.6,0 6.7,-4.5 6.7,-7.5 0,-3 -4.1,-7.5 -6.7,-7.4 -1,0 -2.8,0.5 -4,1.1 z"
     id="path7314" />
  <path
     style="stroke-width:0.1"
     d="m 565.2,582.3 c -4.4,4.7 -1.3,11.7 5.2,11.7 4.1,0 6.9,-2.9 6.9,-7.2 0,-6.1 -7.8,-9.1 -12.1,-4.5 z"
     id="path7316" />
  <path
     style="stroke-width:0.1"
     d="m 752,582 c -4.5,4.5 -1.1,12 5.3,12 4.3,0 6.7,-2.6 6.7,-7.3 0,-2.6 -0.6,-4 -2.2,-5.1 -3.1,-2.2 -7.4,-2 -9.8,0.4 z"
     id="path7318" />
  <path
     style="stroke-width:0.1"
     d="m 163,589 c -2.5,2.5 -2.6,8.1 -0.2,10.3 4.6,4.2 12.2,1 12.2,-5.1 0,-6 -7.8,-9.4 -12,-5.2 z"
     id="path7320" />
  <path
     style="stroke-width:0.1"
     d="m 224,589 c -2.6,2.6 -2.6,8.1 0,10.5 2.7,2.5 8,2.2 10.2,-0.6 5.6,-6.8 -4,-16.1 -10.2,-9.9 z"
     id="path7322" />
  <path
     style="stroke-width:0.1"
     d="m 896,589 c -2.6,2.6 -2.6,8.1 -0.2,10.3 2.8,2.5 8.7,2.2 10.6,-0.5 5,-7.1 -4.3,-15.9 -10.4,-9.8 z"
     id="path7324" />
  <path
     style="stroke-width:0.1"
     d="m 97.5,595.5 c -2.8,2.7 -3.1,4.5 -1.4,7.8 1.6,3 2.8,3.7 6.6,3.7 3.5,0 7.3,-3.7 7.3,-7.2 0,-2.7 -4.5,-6.8 -7.5,-6.8 -1.4,0 -3.7,1.1 -5,2.5 z"
     id="path7326" />
  <path
     style="stroke-width:0.1"
     d="m 19,600 c -4.3,4.3 -1.1,12 5,12 3.8,0 7,-3.2 7,-7 0,-3.8 -3.2,-7 -7,-7 -1.7,0 -3.9,0.9 -5,2 z"
     id="path7328" />
  <path
     style="stroke-width:0.1"
     d="m 479,600 c -1.1,1.1 -2,3.3 -2,5 0,1.7 0.9,3.9 2,5 1.1,1.1 3.3,2 5,2 1.7,0 3.9,-0.9 5,-2 1.1,-1.1 2,-3.3 2,-5 0,-1.7 -0.9,-3.9 -2,-5 -1.1,-1.1 -3.3,-2 -5,-2 -1.7,0 -3.9,0.9 -5,2 z"
     id="path7330" />
  <path
     style="stroke-width:0.1"
     d="m 1054,600 c -4.3,4.3 -1.1,12 5,12 3.8,0 7,-3.2 7,-7 0,-3.8 -3.2,-7 -7,-7 -1.7,0 -3.9,0.9 -5,2 z"
     id="path7332" />
  <path
     style="stroke-width:0.1"
     d="m 389.2,607.3 c -4.5,4.8 -1.4,11.7 5.1,11.7 4.2,0 6.7,-2.6 6.7,-6.8 0,-6.5 -7.4,-9.6 -11.8,-4.9 z"
     id="path7334" />
  <path
     style="stroke-width:0.1"
     d="m 849.2,607.3 c -4.5,4.8 -1.4,11.7 5.1,11.7 4.2,0 6.7,-2.6 6.7,-6.8 0,-6.5 -7.4,-9.6 -11.8,-4.9 z"
     id="path7336" />
  <path
     style="stroke-width:0.1"
     d="m 671.1,613.6 c -4.1,5.3 -1.3,11.4 5.2,11.4 4.2,0 7,-2.9 7,-7.2 0,-6.4 -8.3,-9.2 -12.2,-4.2 z"
     id="path7338" />
  <path
     style="stroke-width:0.1"
     d="m 513.2,627.5 c -5.9,2.5 -5.1,10.7 1.1,13 6.2,2.1 11.8,-5.2 8,-10.3 -2.6,-3.4 -5.3,-4.2 -9.1,-2.7 z"
     id="path7340" />
  <path
     style="stroke-width:0.1"
     d="m 266.6,629.2 c -2.3,3.2 -2,7.4 0.6,9.8 6.4,5.9 15.3,-2.5 10.2,-9.8 -1.1,-1.6 -2.5,-2.2 -5.4,-2.2 -2.9,0 -4.3,0.6 -5.4,2.2 z"
     id="path7342" />
  <path
     style="stroke-width:0.1"
     d="m 84.7,631.2 c -4.1,3.2 -3.8,9.4 0.6,12.3 4.6,3 10.7,-0.6 10.7,-6.3 0,-5.1 -7.3,-9 -11.3,-6 z"
     id="path7344" />
  <path
     style="stroke-width:0.1"
     d="m 346.6,632.1 c -5,3.9 -2.2,12.2 4.2,12.2 6.9,0 9.9,-8 4.6,-12.2 -1.5,-1.2 -3.4,-2.1 -4.4,-2.1 -1,0 -2.9,0.9 -4.4,2.1 z"
     id="path7346" />
  <path
     style="stroke-width:0.1"
     d="m 986.7,631.2 c -4.1,3.2 -3.8,9.4 0.6,12.3 4.6,3 10.7,-0.6 10.7,-6.3 0,-5.1 -7.3,-9 -11.3,-6 z"
     id="path7348" />
  <path
     style="stroke-width:0.1"
     d="m 561.5,636 c -4.2,4.6 -0.8,12 5.4,12 3.4,0 7.1,-3.7 7.1,-7.1 0,-5.8 -8.7,-9.1 -12.5,-4.9 z"
     id="path7350" />
  <path
     style="stroke-width:0.1"
     d="m 730.1,636.6 c -1.2,1.5 -2.1,3.4 -2.1,4.4 0,3.4 3.9,7 7.5,7 3.6,0 7.5,-3.6 7.5,-7 0,-3.4 -3.9,-7 -7.5,-7 -2.4,0 -3.9,0.7 -5.4,2.6 z"
     id="path7352" />
  <path
     style="stroke-width:0.1"
     d="m 795,636.2 c -2.7,2.9 -2.5,6.9 0.3,9.6 4.6,4.3 12,1.5 12,-4.6 0,-6.6 -7.8,-9.8 -12.3,-5 z"
     id="path7354" />
  <path
     style="stroke-width:0.1"
     d="m 928,636.2 c -2.7,2.9 -2.5,6.9 0.3,9.6 4.6,4.3 12,1.5 12,-4.6 0,-6.6 -7.8,-9.8 -12.3,-5 z"
     id="path7356" />
  <path
     style="stroke-width:0.1"
     d="m 206,643 c -2.6,2.6 -2.6,8.1 -0.2,10.3 4.4,4 12.2,0.7 12.2,-5.1 0,-6 -7.8,-9.4 -12,-5.2 z"
     id="path7358" />
  <path
     style="stroke-width:0.1"
     d="m 448.9,645.3 c -3.7,1.9 -5.3,6 -3.7,9.4 2.6,5.5 10.4,5.4 13,-0.2 2.6,-5.7 -3.7,-11.9 -9.3,-9.2 z"
     id="path7360" />
  <path
     style="stroke-width:0.1"
     d="m 695.2,652.3 c -4.5,4.8 -1.4,11.7 5.1,11.7 4.2,0 7,-2.9 7,-7.2 0,-6.1 -7.8,-9.1 -12.1,-4.5 z"
     id="path7362" />
  <path
     style="stroke-width:0.1"
     d="m 141,654 c -6.1,6.1 2.7,15.4 9.8,10.4 2.8,-2 3.1,-8.3 0.4,-10.7 -2.5,-2.3 -7.8,-2.1 -10.2,0.3 z"
     id="path7364" />
  <path
     style="stroke-width:0.1"
     d="m 619,654 c -6.1,6.1 2.7,15.4 9.8,10.4 2.8,-2 3.1,-8.3 0.4,-10.7 -2.5,-2.3 -7.8,-2.1 -10.2,0.3 z"
     id="path7366" />
  <path
     style="stroke-width:0.1"
     d="m 8.2,661.3 c -4.5,4.8 -1.4,11.7 5.1,11.7 4.2,0 7,-2.9 7,-7.2 0,-6.1 -7.8,-9.1 -12.1,-4.5 z"
     id="path7368" />
  <path
     style="stroke-width:0.1"
     d="m 1043.2,661.3 c -4.5,4.8 -1.4,11.7 5.1,11.7 4.2,0 7,-2.9 7,-7.2 0,-6.1 -7.8,-9.1 -12.1,-4.5 z"
     id="path7370" />
  <path
     style="stroke-width:0.1"
     d="m 835,668 c -2.6,2.6 -2.6,8.1 0,10.5 2.9,2.6 7.9,2.4 10.2,-0.4 2.7,-3.4 2.3,-7.5 -0.8,-10 -3.4,-2.6 -6.8,-2.7 -9.4,-0.1 z"
     id="path7372" />
  <path
     style="stroke-width:0.1"
     d="m 394.5,674.2 c -2.8,1.6 -3.5,2.8 -3.5,6.5 0,3.5 3.7,7.3 7.2,7.3 2.7,0 6.8,-4.5 6.8,-7.5 0,-3 -4.1,-7.5 -6.7,-7.5 -1,0 -2.7,0.6 -3.8,1.2 z"
     id="path7374" />
  <path
     style="stroke-width:0.1"
     d="m 274.5,682.5 c -3.2,3.1 -3.3,7.4 -0.2,10.3 3.8,3.6 8.8,2.8 11.2,-1.9 1.8,-3.4 0.8,-6.9 -2.7,-9.3 -3.2,-2.2 -5.5,-2 -8.3,0.9 z"
     id="path7376" />
  <path
     style="stroke-width:0.1"
     d="m 482.8,683 c -2.4,2.5 -2.9,3.6 -2.4,5.8 1.5,6 7.9,8 12.1,3.7 3.9,-3.8 3.2,-8.6 -1.6,-11 -3.9,-2.1 -4.6,-1.9 -8.1,1.5 z"
     id="path7378" />
  <path
     style="stroke-width:0.1"
     d="m 912,681.3 c -5.2,2.6 -4.9,10.4 0.4,12.8 8.1,3.7 13.8,-7.3 6.4,-12.5 -2.7,-1.9 -3.5,-2 -6.8,-0.3 z"
     id="path7380" />
  <path
     style="stroke-width:0.1"
     d="m 551,686 c -2.6,2.6 -2.6,8.1 0,10.5 2.9,2.6 7.9,2.4 10.2,-0.4 5.6,-7 -3.9,-16.4 -10.2,-10.1 z"
     id="path7382" />
  <path
     style="stroke-width:0.1"
     d="m 623,686 c -2.6,2.6 -2.6,8.1 0,10.5 2.9,2.6 7.9,2.4 10.2,-0.4 2.7,-3.4 2.3,-7.5 -0.8,-10 -3.4,-2.6 -6.8,-2.7 -9.4,-0.1 z"
     id="path7384" />
  <path
     style="stroke-width:0.1"
     d="m 676.9,685.8 c -1.5,1.3 -2.2,3 -2.2,5.1 0,6.6 7.6,9.8 12.3,5.1 2.7,-2.7 2.5,-6.6 -0.5,-9.5 -2.9,-3 -6.4,-3.2 -9.6,-0.7 z"
     id="path7386" />
  <path
     style="stroke-width:0.1"
     d="m 752,690 c -4.2,4.2 -0.8,12 5.3,12 5.8,0 9.1,-8.5 4.9,-12.3 -2.5,-2.3 -7.8,-2.1 -10.2,0.3 z"
     id="path7388" />
  <path
     style="stroke-width:0.1"
     d="m 85.3,692.2 c -2.8,1.4 -4.3,5.5 -3.1,8.9 0.9,2.6 4.4,4.9 7.4,4.9 2.4,0 6.4,-4.7 6.4,-7.5 0,-3 -4.1,-7.5 -6.7,-7.4 -1,0 -2.8,0.5 -4,1.1 z"
     id="path7390" />
  <path
     style="stroke-width:0.1"
     d="m 979.3,703.5 c -6.6,4.6 -0.8,15 6.8,12.3 2.6,-0.9 4.9,-4.4 4.9,-7.4 0,-2.3 -4.6,-6.4 -7.2,-6.4 -1.3,0 -3.3,0.7 -4.5,1.5 z"
     id="path7392" />
  <path
     style="stroke-width:0.1"
     d="m 220.5,711.5 c -4.2,4.1 -2.5,10.5 3.1,11.9 5.2,1.4 10.7,-5.1 8.2,-9.7 -2.7,-5.2 -7.5,-6.1 -11.3,-2.2 z"
     id="path7394" />
  <path
     style="stroke-width:0.1"
     d="m 1036.6,711.1 c -1.9,1.5 -2.6,3 -2.6,5.4 0,3.6 3.6,7.5 7,7.5 3.4,0 7,-3.9 7,-7.5 0,-3.6 -3.6,-7.5 -7,-7.5 -1,0 -2.9,0.9 -4.4,2.1 z"
     id="path7396" />
  <path
     style="stroke-width:0.1"
     d="m 152.6,718.1 c -1.9,1.5 -2.6,3 -2.6,5.4 0,3.6 3.6,7.5 7,7.5 3.4,0 7,-3.9 7,-7.5 0,-3.6 -3.6,-7.5 -7,-7.5 -1,0 -2.9,0.9 -4.4,2.1 z"
     id="path7398" />
  <path
     style="stroke-width:0.1"
     d="m 592,717.3 c -5.2,2.6 -4.9,10.4 0.5,12.9 5.8,2.6 11.9,-3.3 9.5,-9.1 -0.6,-1.6 -2.3,-3.3 -3.6,-4 -3.1,-1.4 -3.3,-1.4 -6.4,0.2 z"
     id="path7400" />
  <path
     style="stroke-width:0.1"
     d="m 328.2,722.3 c -4.5,4.8 -1.7,11.7 4.7,11.7 4.6,0 7.1,-2.4 7.1,-6.8 0,-6.5 -7.4,-9.6 -11.8,-4.9 z"
     id="path7402" />
  <path
     style="stroke-width:0.1"
     d="m 389.2,722.3 c -4.5,4.8 -1.4,11.7 5.1,11.7 4.2,0 6.7,-2.6 6.7,-6.8 0,-6.5 -7.4,-9.6 -11.8,-4.9 z"
     id="path7404" />
  <path
     style="stroke-width:0.1"
     d="m 453.7,725.8 c -2.3,2.5 -2.1,7.8 0.3,10.2 6.1,6.1 15.4,-2.7 10.4,-9.8 -2,-2.8 -8.3,-3.1 -10.7,-0.4 z"
     id="path7406" />
  <path
     style="stroke-width:0.1"
     d="m 867.6,729.1 c -4.6,3.6 -2.6,11 3.4,12.4 6.4,1.5 10.8,-7.8 5.8,-12.5 -2.8,-2.6 -5.8,-2.6 -9.2,0.1 z"
     id="path7408" />
  <path
     style="stroke-width:0.1"
     d="m 525.7,732.8 c -2.5,2.8 -2.2,8.7 0.5,10.6 4.9,3.4 11.8,0.2 11.8,-5.5 0,-5.8 -8.5,-9.3 -12.3,-5.1 z"
     id="path7410" />
  <path
     style="stroke-width:0.1"
     d="m 799.2,732.6 c -2.9,2 -3,7.6 -0.2,10.4 4.3,4.3 12,1.1 12,-5 0,-5.9 -6.7,-9 -11.8,-5.4 z"
     id="path7412" />
  <path
     style="stroke-width:0.1"
     d="m 278.2,739.6 c -2.8,2 -3.1,8.3 -0.4,10.7 2.5,2.3 7.8,2.1 10.2,-0.3 6.1,-6.1 -2.7,-15.4 -9.8,-10.4 z"
     id="path7414" />
  <path
     style="stroke-width:0.1"
     d="m 743.2,742.5 c -5.9,2.5 -5.1,10.7 1.1,13 6.2,2.1 11.8,-5.2 8,-10.3 -2.6,-3.4 -5.3,-4.2 -9.1,-2.7 z"
     id="path7416" />
  <path
     style="stroke-width:0.1"
     d="m 964,751 c -4.5,4.5 -1.1,12 5.3,12 4.2,0 7,-2.9 7,-7 0,-6.3 -7.8,-9.5 -12.3,-5 z"
     id="path7418" />
  <path
     style="stroke-width:0.1"
     d="m 495,753.3 c -5.2,2.6 -4.9,10.4 0.5,12.9 5.8,2.6 11.9,-3.3 9.5,-9.1 -0.6,-1.6 -2.3,-3.3 -3.6,-4 -3.1,-1.4 -3.3,-1.4 -6.4,0.2 z"
     id="path7420" />
  <path
     style="stroke-width:0.1"
     d="m 87.1,758.6 c -4.1,5.3 -1.3,11.4 5.2,11.4 4.2,0 7,-2.9 7,-7.2 0,-6.4 -8.3,-9.2 -12.2,-4.2 z"
     id="path7422" />
  <path
     style="stroke-width:0.1"
     d="m 899.5,758.5 c -3,3 -3.1,5.4 -0.4,8.9 1.5,1.9 3,2.6 5.4,2.6 3.7,0 7.5,-3.7 7.5,-7.2 0,-2.7 -4.5,-6.8 -7.5,-6.8 -1.4,0 -3.7,1.1 -5,2.5 z"
     id="path7424" />
  <path
     style="stroke-width:0.1"
     d="m 237,760.3 c -1.3,0.7 -3.1,2.4 -3.9,3.8 -3,5.3 3.6,11.7 9.4,9.1 5.5,-2.5 5.8,-10 0.5,-12.7 -3.5,-1.8 -2.9,-1.8 -6,-0.2 z"
     id="path7426" />
  <path
     style="stroke-width:0.1"
     d="m 664.5,760.2 c -5,2.7 -5.9,7.5 -2,11.3 2.9,3 6.4,3.2 9.6,0.7 5.9,-4.8 -0.9,-15.7 -7.6,-12 z"
     id="path7428" />
  <path
     style="stroke-width:0.1"
     d="m 8.5,765.5 c -4.6,4.6 -1.9,11.8 4.4,11.8 6.6,0 9.8,-7.6 5.1,-12.3 -2.7,-2.7 -6.6,-2.5 -9.5,0.5 z"
     id="path7430" />
  <path
     style="stroke-width:0.1"
     d="m 583.5,765.5 c -4.6,4.6 -1.9,11.8 4.4,11.8 6.6,0 9.8,-7.6 5.1,-12.3 -2.7,-2.7 -6.6,-2.5 -9.5,0.5 z"
     id="path7432" />
  <path
     style="stroke-width:0.1"
     d="m 838.5,765.5 c -3.9,3.9 -3.2,8.6 1.7,11.1 5.9,3 12.2,-2.7 9.9,-8.9 -1.9,-5.1 -7.7,-6.2 -11.6,-2.2 z"
     id="path7434" />
  <path
     style="stroke-width:0.1"
     d="m 1043.5,765.5 c -4.6,4.6 -1.9,11.8 4.4,11.8 6.6,0 9.8,-7.6 5.1,-12.3 -2.7,-2.7 -6.6,-2.5 -9.5,0.5 z"
     id="path7436" />
  <path
     style="stroke-width:0.1"
     d="m 170,769 c -1.1,1.1 -2,3.3 -2,5 0,1.7 0.9,3.9 2,5 4.3,4.3 12,1.1 12,-5 0,-1.7 -0.9,-3.9 -2,-5 -1.1,-1.1 -3.3,-2 -5,-2 -1.7,0 -3.9,0.9 -5,2 z"
     id="path7438" />
  <path
     style="stroke-width:0.1"
     d="m 320.7,786.8 c -2.3,2.5 -2.1,7.8 0.3,10.2 4.3,4.3 12,1.1 12,-5 0,-1.7 -0.9,-3.9 -2,-5 -2.6,-2.6 -8.1,-2.6 -10.3,-0.2 z"
     id="path7440" />
  <path
     style="stroke-width:0.1"
     d="m 396.5,790.5 c -1.4,1.3 -2.5,3.6 -2.5,5 0,2.8 4,7.5 6.4,7.5 3,0 6.5,-2.3 7.6,-5 2,-4.9 -1.9,-9.9 -7.8,-10 -0.7,0 -2.4,1.1 -3.7,2.5 z"
     id="path7442" />
  <path
     style="stroke-width:0.1"
     d="m 454.6,790.1 c -3.6,2.8 -3.6,8 0,10.8 3.5,2.7 5.9,2.6 8.9,-0.4 3.4,-3.3 3.3,-7.7 -0.1,-10.4 -1.5,-1.2 -3.4,-2.1 -4.4,-2.1 -1,0 -2.9,0.9 -4.4,2.1 z"
     id="path7444" />
  <path
     style="stroke-width:0.1"
     d="m 551,794 c -2.8,2.8 -2.7,8.4 0.2,10.4 5.1,3.6 11.8,0.5 11.8,-5.4 0,-3.8 -3.2,-7 -7,-7 -1.7,0 -3.9,0.9 -5,2 z"
     id="path7446" />
  <path
     style="stroke-width:0.1"
     d="m 694.9,793.8 c -2.8,2.3 -3,7.3 -0.4,10.2 2.5,2.7 7.8,2.7 10.5,-0.2 2.6,-2.8 2.6,-5.8 -0.1,-9.2 -2.5,-3.1 -6.6,-3.5 -10,-0.8 z"
     id="path7448" />
  <path
     style="stroke-width:0.1"
     d="m 754.3,796 c -4.8,1.9 -5.8,8.7 -1.7,11.9 5.3,4.1 11.4,1.3 11.4,-5.2 0,-5.1 -5,-8.6 -9.7,-6.7 z"
     id="path7450" />
  <path
     style="stroke-width:0.1"
     d="m 954.8,796.6 c -5.1,2.7 -4.6,10.1 0.7,12.6 5.8,2.6 11.9,-3.3 9.5,-9.1 -0.6,-1.6 -2.3,-3.3 -3.6,-4 -3.1,-1.4 -3.3,-1.4 -6.6,0.5 z"
     id="path7452" />
  <path
     style="stroke-width:0.1"
     d="m 58.1,805.6 c -2.7,3.5 -2.6,5.9 0.4,8.9 3.3,3.4 7.7,3.3 10.4,-0.1 1.2,-1.5 2.1,-3.4 2.1,-4.4 0,-3.4 -3.9,-7 -7.5,-7 -2.4,0 -3.9,0.7 -5.4,2.6 z"
     id="path7454" />
  <path
     style="stroke-width:0.1"
     d="m 1036,805 c -4.3,4.3 -1.1,12 5,12 1.7,0 3.9,-0.9 5,-2 2.6,-2.6 2.6,-8.1 0.2,-10.3 -2.5,-2.3 -7.8,-2.1 -10.2,0.3 z"
     id="path7456" />
  <path
     style="stroke-width:0.1"
     d="m 1093.1,805.6 c -2.7,3.5 -2.6,5.9 0.4,8.9 3.3,3.4 7.7,3.3 10.4,-0.1 1.2,-1.5 2.1,-3.4 2.1,-4.4 0,-3.4 -3.9,-7 -7.5,-7 -2.4,0 -3.9,0.7 -5.4,2.6 z"
     id="path7458" />
  <path
     style="stroke-width:0.1"
     d="m 116.6,808.1 c -3.6,2.8 -3.6,8 0,10.8 1.5,1.2 3.4,2.1 4.4,2.1 3.4,0 7,-3.9 7,-7.5 0,-3.6 -3.6,-7.5 -7,-7.5 -1,0 -2.9,0.9 -4.4,2.1 z"
     id="path7460" />
  <path
     style="stroke-width:0.1"
     d="m 508.7,807.2 c -5.7,4.4 -2.4,13.8 4.9,13.8 2.6,0 6.4,-4.7 6.4,-7.9 0,-5.3 -7.1,-9 -11.3,-5.9 z"
     id="path7462" />
  <path
     style="stroke-width:0.1"
     d="m 820.5,808.5 c -4,3.9 -2.9,9.7 2.2,11.6 5.8,2.2 11.6,-3.6 9.4,-9.4 -1.9,-5.1 -7.7,-6.2 -11.6,-2.2 z"
     id="path7464" />
  <path
     style="stroke-width:0.1"
     d="m 195,812 c -4.2,4.2 -1.2,12 4.8,12 4.4,0 7.2,-2.6 7.2,-6.6 0,-4.3 -2.9,-7.4 -7,-7.4 -1.7,0 -3.9,0.9 -5,2 z"
     id="path7466" />
  <path
     style="stroke-width:0.1"
     d="m 605.7,815 c -3.5,2.8 -3.7,8 -0.5,11 2.9,2.7 6.4,2.5 9.3,-0.5 6.3,-6.3 -1.8,-16 -8.8,-10.5 z"
     id="path7468" />
  <path
     style="stroke-width:0.1"
     d="m 892.5,819.5 c -3,2.9 -3.2,6.8 -0.5,9.5 4.7,4.7 12.3,1.5 12.3,-5.1 0,-6.3 -7.2,-9 -11.8,-4.4 z"
     id="path7470" />
  <path
     style="stroke-width:0.1"
     d="m 658.5,823 c -4.2,4.7 -0.8,12 5.5,12 3.3,0 7,-4 7,-7.6 0,-5.7 -8.6,-8.7 -12.5,-4.4 z"
     id="path7472" />
  <path
     style="stroke-width:0.1"
     d="m 274,841 c -4.2,4.2 -0.8,12 5.3,12 5.8,0 9.1,-8.5 4.9,-12.3 -2.5,-2.3 -7.8,-2.1 -10.2,0.3 z"
     id="path7474" />
  <path
     style="stroke-width:0.1"
     d="m 414.5,844.5 c -4,3.9 -2.9,9.7 2.2,11.6 6.2,2.3 11.9,-4 8.9,-9.9 -2.5,-4.9 -7.2,-5.6 -11.1,-1.7 z"
     id="path7476" />
  <path
     style="stroke-width:0.1"
     d="m 784.5,844.5 c -2.8,2.7 -3,4.2 -1.4,7.9 1.6,3.4 5.8,5.1 9.1,3.5 2.6,-1.1 4.8,-4.6 4.8,-7.5 0,-2.4 -4.7,-6.4 -7.5,-6.4 -1.4,0 -3.7,1.1 -5,2.5 z"
     id="path7478" />
  <path
     style="stroke-width:0.1"
     d="m 357.2,847.6 c -1.6,1.1 -2.2,2.5 -2.2,5.4 0,2.9 0.6,4.3 2.2,5.4 5.1,3.6 11.8,0.5 11.8,-5.4 0,-5.9 -6.7,-9 -11.8,-5.4 z"
     id="path7480" />
  <path
     style="stroke-width:0.1"
     d="m 482.5,848 c -4.2,4.6 -1,12 5.1,12 3.5,0 7.4,-3.7 7.4,-7 0,-1 -0.9,-2.9 -2.1,-4.4 -2.6,-3.3 -7.7,-3.6 -10.4,-0.6 z"
     id="path7482" />
  <path
     style="stroke-width:0.1"
     d="m 565,848.2 c -2.7,2.9 -2.5,6.9 0.3,9.6 4.8,4.5 12,1.6 12,-4.8 0,-6.4 -7.9,-9.5 -12.3,-4.8 z"
     id="path7484" />
  <path
     style="stroke-width:0.1"
     d="m 712.1,848.6 c -1.2,1.5 -2.1,3.4 -2.1,4.4 0,1 0.9,2.9 2.1,4.4 4,5.1 12.9,2 12.9,-4.5 0,-6.5 -8.9,-9.4 -12.9,-4.3 z"
     id="path7486" />
  <path
     style="stroke-width:0.1"
     d="m 849,848 c -1.1,1.1 -2,3.3 -2,5 0,5.9 6.7,9 11.8,5.4 2.8,-2 3.1,-8.3 0.4,-10.7 -2.5,-2.3 -7.8,-2.1 -10.2,0.3 z"
     id="path7488" />
  <path
     style="stroke-width:0.1"
     d="m 220.1,855.6 c -4.1,5.3 -1.3,11.4 5.2,11.4 4.2,0 7,-2.9 7,-7.2 0,-6.4 -8.3,-9.2 -12.2,-4.2 z"
     id="path7490" />
  <path
     style="stroke-width:0.1"
     d="m 130,856.8 c -5.1,1.6 -6.8,8.4 -3,12.2 6,6 15.4,-2.6 10.5,-9.7 -1.5,-2.1 -5,-3.3 -7.5,-2.5 z"
     id="path7492" />
  <path
     style="stroke-width:0.1"
     d="m 1011.2,862 c -4.8,4.5 -1.6,12.3 5,12.3 6.4,0 9.2,-8.3 4.2,-12.2 -3.4,-2.7 -6.4,-2.7 -9.2,-0.1 z"
     id="path7494" />
  <path
     style="stroke-width:0.1"
     d="m 924.5,867 c -4.2,4.7 -0.8,12 5.5,12 3.3,0 7,-4 7,-7.4 0,-5.7 -8.6,-8.9 -12.5,-4.6 z"
     id="path7496" />
  <path
     style="stroke-width:0.1"
     d="m 66,880 c -4.7,4.7 -1.5,12.3 5.1,12.3 6.3,0 9,-7.2 4.4,-11.8 -2.9,-3 -6.8,-3.2 -9.5,-0.5 z"
     id="path7498" />
  <path
     style="stroke-width:0.1"
     d="m 533.2,880 c -4.8,4.5 -1.6,12.3 5,12.3 6.4,0 9.2,-8.3 4.2,-12.2 -3.4,-2.7 -6.4,-2.7 -9.2,-0.1 z"
     id="path7500" />
  <path
     style="stroke-width:0.1"
     d="m 648.2,880 c -4.8,4.5 -1.6,12.3 5,12.3 6.4,0 9.2,-8.3 4.2,-12.2 -3.4,-2.7 -6.4,-2.7 -9.2,-0.1 z"
     id="path7502" />
  <path
     style="stroke-width:0.1"
     d="m 828.3,879.5 c -4.3,3 -3.8,8.8 1.2,12.1 2.1,1.4 3,1.4 5.5,0.4 5.5,-2.3 6.6,-7.5 2.5,-11.5 -2.7,-2.8 -6.1,-3.2 -9.2,-1 z"
     id="path7504" />
  <path
     style="stroke-width:0.1"
     d="m 1101,880 c -4.7,4.7 -1.5,12.3 5.1,12.3 6.3,0 9,-7.2 4.4,-11.8 -2.9,-3 -6.8,-3.2 -9.5,-0.5 z"
     id="path7506" />
</svg>
