<?xml version="1.0" encoding="UTF-8" standalone="no"?>
<svg
   xmlns:dc="http://purl.org/dc/elements/1.1/"
   xmlns:cc="http://creativecommons.org/ns#"
   xmlns:rdf="http://www.w3.org/1999/02/22-rdf-syntax-ns#"
   xmlns:svg="http://www.w3.org/2000/svg"
   xmlns="http://www.w3.org/2000/svg"
   xmlns:sodipodi="http://sodipodi.sourceforge.net/DTD/sodipodi-0.dtd"
   xmlns:inkscape="http://www.inkscape.org/namespaces/inkscape"
   inkscape:version="1.0 (4035a4fb49, 2020-05-01)"
   sodipodi:docname="USGS_611_colour_nobox.svg"
   id="svg14106"
   preserveAspectRatio="xMidYMid meet"
   viewBox="0 0 1125.000000 900.000000"
   height="900.000000pt"
   width="1125.000000pt"
   version="1.0">
  <defs
     id="defs14110" />
  <sodipodi:namedview
     inkscape:current-layer="svg14106"
     inkscape:window-maximized="1"
     inkscape:window-y="-8"
     inkscape:window-x="1912"
     inkscape:cy="600"
     inkscape:cx="750"
     inkscape:zoom="0.68916667"
     showgrid="false"
     id="namedview14108"
     inkscape:window-height="1017"
     inkscape:window-width="1920"
     inkscape:pageshadow="2"
     inkscape:pageopacity="0"
     guidetolerance="10"
     gridtolerance="10"
     objecttolerance="10"
     borderopacity="1"
     bordercolor="#666666"
     pagecolor="#ffffff" />
  <metadata
     id="metadata13492">
Created by potrace 1.13, written by Peter Selinger 2001-2015
<rdf:RDF>
  <cc:Work
     rdf:about="">
    <dc:format>image/svg+xml</dc:format>
    <dc:type
       rdf:resource="http://purl.org/dc/dcmitype/StillImage" />
    <dc:title></dc:title>
  </cc:Work>
</rdf:RDF>
</metadata>
  <path
     style="stroke-width:0.1"
     d="m 708.5,13.5 c -1.4,1.3 -2.5,3.6 -2.5,5 0,3 4.1,7.5 6.8,7.5 3.5,0 7.2,-3.8 7.2,-7.5 0,-2.4 -0.7,-3.9 -2.6,-5.4 -3.5,-2.7 -5.9,-2.6 -8.9,0.4 z"
     id="path13496" />
  <path
     style="stroke-width:0.1"
     d="m 157.5,21.5 c -3.9,3.9 -3.2,8.6 1.7,11.1 5.9,3 12.2,-2.7 9.9,-8.9 -1.9,-5.1 -7.7,-6.2 -11.6,-2.2 z"
     id="path13498" />
  <path
     style="stroke-width:0.1"
     d="m 930.7,23.8 c -2.5,2.8 -2.2,8.7 0.5,10.6 5.1,3.6 11.8,0.5 11.8,-5.4 0,-1.7 -0.9,-3.9 -2,-5 -2.6,-2.6 -8.1,-2.6 -10.3,-0.2 z"
     id="path13500" />
  <path
     style="stroke-width:0.1"
     d="m 1042.7,23.8 c -2.5,2.8 -2.2,8.7 0.5,10.6 7.3,5.1 16,-4.2 9.8,-10.4 -2.6,-2.6 -8.1,-2.6 -10.3,-0.2 z"
     id="path13502" />
  <path
     style="stroke-width:0.1"
     d="m 380.2,25.3 c -4.3,4.6 -1.5,12 4.6,12 4.3,0 7.2,-2.8 7.2,-6.9 0,-6.6 -7.4,-9.8 -11.8,-5.1 z"
     id="path13504" />
  <path
     style="stroke-width:0.1"
     d="m 485.5,29.5 c -3,3 -3.1,5.4 -0.4,8.9 1.5,1.9 3,2.6 5.4,2.6 3.7,0 7.5,-3.7 7.5,-7.2 0,-2.7 -4.5,-6.8 -7.5,-6.8 -1.4,0 -3.7,1.1 -5,2.5 z"
     id="path13506" />
  <path
     style="stroke-width:0.1"
     d="m 821.5,38.5 c -2.8,2.7 -3,4.2 -1.4,7.8 3.2,7.1 13.9,4.1 13.9,-3.9 0,-2.4 -4.7,-6.4 -7.5,-6.4 -1.4,0 -3.7,1.1 -5,2.5 z"
     id="path13508" />
  <path
     style="stroke-width:0.1"
     d="m 21,38.3 c -5.2,2.6 -4.9,10.4 0.5,12.9 5.8,2.6 11.9,-3.3 9.5,-9.1 -0.6,-1.6 -2.3,-3.3 -3.6,-4 -3.1,-1.4 -3.3,-1.4 -6.4,0.2 z"
     id="path13510" />
  <path
     style="stroke-width:0.1"
     d="m 255.2,42 c -2.6,2.4 -2.9,6.6 -0.6,9.8 1.1,1.6 2.5,2.2 5.3,2.2 4.6,0 7.1,-2.4 7.1,-6.8 0,-6.4 -7.2,-9.5 -11.8,-5.2 z"
     id="path13512" />
  <path
     style="stroke-width:0.1"
     d="m 600.2,42.3 c -4.5,4.8 -1.7,11.7 4.7,11.7 4.6,0 7.1,-2.4 7.1,-6.8 0,-6.5 -7.4,-9.6 -11.8,-4.9 z"
     id="path13514" />
  <path
     style="stroke-width:0.1"
     d="m 701,69 c -4.5,4.5 -1.1,12 5.3,12 4.2,0 6.7,-2.6 6.7,-6.8 0,-4.1 -3.1,-7.2 -7,-7.2 -1.7,0 -3.9,0.9 -5,2 z"
     id="path13516" />
  <path
     style="stroke-width:0.1"
     d="m 984.2,68.6 c -2.8,2 -3.1,8.3 -0.4,10.7 2.5,2.3 7.8,2.1 10.2,-0.3 6.1,-6.1 -2.7,-15.4 -9.8,-10.4 z"
     id="path13518" />
  <path
     style="stroke-width:0.1"
     d="m 139,70 c -2.6,2.6 -2.6,8.1 0,10.5 2.9,2.6 7.9,2.4 10.2,-0.4 2.7,-3.4 2.3,-7.5 -0.8,-10 C 145,67.5 141.6,67.4 139,70 Z"
     id="path13520" />
  <path
     style="stroke-width:0.1"
     d="m 421.5,70.5 c -3.9,3.8 -3.2,8.6 1.6,11 7.6,4 14.6,-7.1 7.6,-12 -3.1,-2.2 -6.5,-1.8 -9.2,1 z"
     id="path13522" />
  <path
     style="stroke-width:0.1"
     d="m 664,69.7 c -7.6,2.7 -5.8,14.3 2.1,14.3 5.5,0 9.2,-8.7 5.2,-12.2 C 669.1,69.9 666,69 664,69.7 Z"
     id="path13524" />
  <path
     style="stroke-width:0.1"
     d="m 744,70.3 c -1.4,0.7 -3.1,2.5 -3.8,4 -2.7,5.6 3.5,11.5 9.3,8.9 5.5,-2.5 5.8,-10 0.5,-12.7 -3.5,-1.8 -2.9,-1.8 -6,-0.2 z"
     id="path13526" />
  <path
     style="stroke-width:0.1"
     d="m 946,70.3 c -1.3,0.7 -3.1,2.4 -3.9,3.8 -3,5.3 3.6,11.7 9.4,9.1 5.5,-2.5 5.8,-10 0.5,-12.7 -3.5,-1.8 -2.9,-1.8 -6,-0.2 z"
     id="path13528" />
  <path
     style="stroke-width:0.1"
     d="m 1026.5,70.2 c -5,2.7 -5.9,7.5 -2,11.3 4.2,4.3 10.6,2.3 12,-3.6 1.2,-4.8 -5.7,-10.1 -10,-7.7 z"
     id="path13530" />
  <path
     style="stroke-width:0.1"
     d="m 98.5,73 c -2.6,2.9 -2.4,7.9 0.4,10.2 7,5.6 16.4,-3.9 10.1,-10.2 -2.6,-2.6 -8.1,-2.6 -10.5,0 z"
     id="path13532" />
  <path
     style="stroke-width:0.1"
     d="m 179.1,73.6 c -1.2,1.5 -2.1,3.4 -2.1,4.4 0,3.2 3.9,7 7.1,7 3.4,0 7.9,-3.9 7.9,-6.8 0,-3.5 -3.8,-7.2 -7.5,-7.2 -2.4,0 -3.9,0.7 -5.4,2.6 z"
     id="path13534" />
  <path
     style="stroke-width:0.1"
     d="m 381,73 c -6.3,6.3 3.1,15.8 10.1,10.2 2.8,-2.3 3,-7.3 0.4,-10.2 -2.4,-2.6 -7.9,-2.6 -10.5,0 z"
     id="path13536" />
  <path
     style="stroke-width:0.1"
     d="m 462,73 c -4.3,4.3 -1.1,12 5,12 3.8,0 7,-3.2 7,-7 0,-3.8 -3.2,-7 -7,-7 -1.7,0 -3.9,0.9 -5,2 z"
     id="path13538" />
  <path
     style="stroke-width:0.1"
     d="m 782,81 c -1.1,1.1 -2,3.3 -2,5 0,1.7 0.9,3.9 2,5 1.1,1.1 3.3,2 5,2 1.7,0 3.9,-0.9 5,-2 1.1,-1.1 2,-3.3 2,-5 0,-1.7 -0.9,-3.9 -2,-5 -1.1,-1.1 -3.3,-2 -5,-2 -1.7,0 -3.9,0.9 -5,2 z"
     id="path13540" />
  <path
     style="stroke-width:0.1"
     d="m 1064.5,81 c -2.5,2.7 -2.2,8 0.6,10.2 6.8,5.6 16.1,-4 9.9,-10.2 -2.6,-2.6 -8.1,-2.6 -10.5,0 z"
     id="path13542" />
  <path
     style="stroke-width:0.1"
     d="m 220,82 c -2.6,2.6 -2.6,8.1 -0.2,10.3 4.4,4 12.2,0.7 12.2,-5.1 0,-6 -7.8,-9.4 -12,-5.2 z"
     id="path13544" />
  <path
     style="stroke-width:0.1"
     d="m 502.1,82.6 c -2.7,3.4 -2.7,6.4 -0.1,9.2 4.7,5 14,0.6 12.5,-5.8 -1.4,-6 -8.8,-8 -12.4,-3.4 z"
     id="path13546" />
  <path
     style="stroke-width:0.1"
     d="m 58.3,82.5 c -4.5,3.1 -3.7,10.3 1.4,12.4 3.8,1.6 8,0 9.3,-3.4 1.5,-3.9 1.2,-5.4 -1.5,-8 -2.7,-2.8 -6.1,-3.2 -9.2,-1 z"
     id="path13548" />
  <path
     style="stroke-width:0.1"
     d="m 625.3,83 c -2.6,1.1 -4.3,4 -4.3,7.4 0,2.7 4.1,6.6 7,6.6 3.4,0 7,-3.9 7,-7.5 0,-2.4 -0.7,-3.9 -2.6,-5.4 -2.9,-2.3 -3.8,-2.4 -7.1,-1.1 z"
     id="path13550" />
  <path
     style="stroke-width:0.1"
     d="m 906.7,84 c -3.5,2.8 -3.7,8 -0.5,11 2.9,2.7 6.4,2.5 9.3,-0.5 6.3,-6.3 -1.8,-16 -8.8,-10.5 z"
     id="path13552" />
  <path
     style="stroke-width:0.1"
     d="m 343,86.2 c -2.7,2.9 -2.5,6.4 0.5,9.3 6.3,6.3 16,-1.8 10.5,-8.8 -2.8,-3.5 -8,-3.7 -11,-0.5 z"
     id="path13554" />
  <path
     style="stroke-width:0.1"
     d="m 823.2,87.6 c -6.3,4.4 -3.7,13.4 3.9,13.4 2.8,0 6.9,-4.4 6.9,-7.3 0,-5.5 -6.5,-9.2 -10.8,-6.1 z"
     id="path13556" />
  <path
     style="stroke-width:0.1"
     d="m 1101.7,88 c -3.5,2.8 -3.7,8 -0.5,11 6.3,5.8 15.6,-3.2 10.1,-9.8 -2.7,-3.2 -6.4,-3.7 -9.6,-1.2 z"
     id="path13558" />
  <path
     style="stroke-width:0.1"
     d="m 14.9,89.8 c -2.8,2.3 -3,7.3 -0.4,10.2 2.5,2.8 7.6,2.6 10.3,-0.3 2.8,-2.9 2.8,-5.7 0.1,-9.1 -2.5,-3.1 -6.6,-3.5 -10,-0.8 z"
     id="path13560" />
  <path
     style="stroke-width:0.1"
     d="m 258,90 c -2.6,2.6 -2.5,6 0.1,9.4 2.5,3.1 6.6,3.5 10,0.8 2.8,-2.3 3,-7.3 0.4,-10.2 -2.4,-2.6 -7.9,-2.6 -10.5,0 z"
     id="path13562" />
  <path
     style="stroke-width:0.1"
     d="m 538.6,89.5 c -5.9,6 1,15.5 8.3,11.4 6.3,-3.6 4.2,-12.1 -3.1,-12.7 -2.3,-0.2 -4.1,0.3 -5.2,1.3 z"
     id="path13564" />
  <path
     style="stroke-width:0.1"
     d="m 580.5,91.5 c -4.1,4 -2.9,9.5 2.4,11.3 2,0.7 3.5,0.7 5.2,-0.2 3.4,-1.7 4.9,-5.2 3.7,-8.7 -1.8,-5.3 -7.3,-6.5 -11.3,-2.4 z"
     id="path13566" />
  <path
     style="stroke-width:0.1"
     d="m 863,91 c -2.6,2.6 -2.6,8.1 0,10.5 2.7,2.5 8,2.2 10.2,-0.6 5.6,-6.8 -4,-16.1 -10.2,-9.9 z"
     id="path13568" />
  <path
     style="stroke-width:0.1"
     d="m 301.7,91.1 c -4.8,2.8 -4,10.7 1.2,12.9 7.5,3.1 13.4,-5.8 7.6,-11.5 -2.5,-2.6 -5.8,-3.1 -8.8,-1.4 z"
     id="path13570" />
  <path
     style="stroke-width:0.1"
     d="m 979.2,118.7 c -0.7,0.3 -1.9,1.8 -2.7,3.3 -4,7.7 7.1,14.7 12,7.7 4.2,-6 -2.4,-13.8 -9.3,-11 z"
     id="path13572" />
  <path
     style="stroke-width:0.1"
     d="m 420.5,124.5 c -1.4,1.3 -2.5,3.1 -2.5,3.9 0,3 2.3,6.5 4.9,7.4 7.6,2.7 13.4,-7.7 6.8,-12.3 -3.1,-2.2 -6.5,-1.8 -9.2,1 z"
     id="path13574" />
  <path
     style="stroke-width:0.1"
     d="m 205.5,128.5 c -3,3 -3.1,5.4 -0.4,8.9 1.5,1.9 3,2.6 5.4,2.6 3.6,0 7.5,-3.6 7.5,-7 0,-1 -0.9,-2.9 -2.1,-4.4 -2.7,-3.4 -7.1,-3.5 -10.4,-0.1 z"
     id="path13576" />
  <path
     style="stroke-width:0.1"
     d="m 763,132 c -2.8,2.8 -2.7,8.4 0.2,10.4 5.1,3.6 11.8,0.5 11.8,-5.4 0,-1.7 -0.9,-3.9 -2,-5 -1.1,-1.1 -3.3,-2 -5,-2 -1.7,0 -3.9,0.9 -5,2 z"
     id="path13578" />
  <path
     style="stroke-width:0.1"
     d="m 71.1,136.6 c -1.2,1.5 -2.1,3.4 -2.1,4.4 0,3.4 3.9,7 7.5,7 3.6,0 7.5,-3.6 7.5,-7 0,-3.4 -3.9,-7 -7.5,-7 -2.4,0 -3.9,0.7 -5.4,2.6 z"
     id="path13580" />
  <path
     style="stroke-width:0.1"
     d="m 1095.2,135.6 c -2.9,2 -3,7.6 -0.2,10.4 4.3,4.3 12,1.1 12,-5 0,-5.9 -6.7,-9 -11.8,-5.4 z"
     id="path13582" />
  <path
     style="stroke-width:0.1"
     d="m 531,140 c -4.3,4.3 -1,12 5.2,12 5.9,0 9.3,-8.4 5,-12.3 -2.5,-2.3 -7.8,-2.1 -10.2,0.3 z"
     id="path13584" />
  <path
     style="stroke-width:0.1"
     d="m 640.5,146.5 c -1.4,1.3 -2.5,3 -2.5,3.7 0.1,5.9 5.1,9.8 10,7.8 3.6,-1.5 5.5,-5.7 4.1,-9.3 -1.9,-5.1 -7.7,-6.2 -11.6,-2.2 z"
     id="path13586" />
  <path
     style="stroke-width:0.1"
     d="m 314,150.3 c -5.2,2.6 -4.9,10.4 0.4,12.8 3.6,1.7 7.3,0.3 9.2,-3.2 1.9,-3.8 0.6,-8 -3.2,-9.8 -3.1,-1.4 -3.3,-1.4 -6.4,0.2 z"
     id="path13588" />
  <path
     style="stroke-width:0.1"
     d="m 876.5,151.5 c -3.4,3.3 -3.3,7.7 0.1,10.4 1.5,1.2 3.4,2.1 4.4,2.1 3.4,0 7,-3.9 7,-7.5 0,-2.4 -0.7,-3.9 -2.6,-5.4 -3.5,-2.7 -5.9,-2.6 -8.9,0.4 z"
     id="path13590" />
  <path
     style="stroke-width:0.1"
     d="m 751.9,175.3 c -3.7,1.9 -5.3,6 -3.7,9.4 2.6,5.5 10.4,5.4 13,-0.2 2.6,-5.7 -3.7,-11.9 -9.3,-9.2 z"
     id="path13592" />
  <path
     style="stroke-width:0.1"
     d="m 1034.2,175.5 c -5.9,2.5 -5.1,10.7 1.1,13 6.2,2.1 11.8,-5.2 8,-10.3 -2.6,-3.4 -5.3,-4.2 -9.1,-2.7 z"
     id="path13594" />
  <path
     style="stroke-width:0.1"
     d="m 187.1,178.6 c -1.2,1.5 -2.1,3.4 -2.1,4.4 0,3.4 3.9,7 7.5,7 3.6,0 7.5,-3.6 7.5,-7 0,-3.4 -3.9,-7 -7.5,-7 -2.4,0 -3.9,0.7 -5.4,2.6 z"
     id="path13596" />
  <path
     style="stroke-width:0.1"
     d="m 470,178 c -4.3,4.3 -1.1,12 5,12 3.8,0 7,-3.2 7,-7 0,-3.8 -3.2,-7 -7,-7 -1.7,0 -3.9,0.9 -5,2 z"
     id="path13598" />
  <path
     style="stroke-width:0.1"
     d="m 710.7,178.1 c -4.8,2.8 -4,10.7 1.3,12.9 2.3,0.9 3.4,0.9 5.8,-0.4 4.9,-2.5 5.6,-7.2 1.7,-11.1 -2.5,-2.6 -5.8,-3.1 -8.8,-1.4 z"
     id="path13600" />
  <path
     style="stroke-width:0.1"
     d="m 790.5,179.5 c -1.4,1.3 -2.5,3.5 -2.5,4.7 0,5.6 6.1,9.3 10.6,6.3 3.7,-2.4 4.8,-5.2 3.3,-8.6 -2.2,-5.4 -7.4,-6.5 -11.4,-2.4 z"
     id="path13602" />
  <path
     style="stroke-width:0.1"
     d="m 992.5,179.5 c -2.8,2.7 -3.2,6.1 -1,9.2 4.7,6.6 15,0.8 12.3,-7 -1.8,-5.1 -7.4,-6.2 -11.3,-2.2 z"
     id="path13604" />
  <path
     style="stroke-width:0.1"
     d="m 1073.6,179.1 c -5.2,4.1 -2.3,12.2 4.4,12.2 6.7,0 9.6,-8.1 4.4,-12.2 -1.5,-1.2 -3.4,-2.1 -4.4,-2.1 -1,0 -2.9,0.9 -4.4,2.1 z"
     id="path13606" />
  <path
     style="stroke-width:0.1"
     d="m 147.5,180.5 c -1.4,1.3 -2.5,3.6 -2.5,5 0,2.8 4,7.5 6.4,7.5 2.9,0 6.4,-2.2 7.5,-4.8 1.6,-3.3 -0.1,-7.5 -3.5,-9.1 -3.7,-1.6 -5.2,-1.4 -7.9,1.4 z"
     id="path13608" />
  <path
     style="stroke-width:0.1"
     d="m 228.6,180.1 c -1.9,1.5 -2.6,3 -2.6,5.4 0,3.6 3.6,7.5 7,7.5 3.4,0 7,-3.9 7,-7.5 0,-3.6 -3.6,-7.5 -7,-7.5 -1,0 -2.9,0.9 -4.4,2.1 z"
     id="path13610" />
  <path
     style="stroke-width:0.1"
     d="m 430.6,180.1 c -3.6,2.8 -3.6,8 0,10.8 1.5,1.2 3.4,2.1 4.4,2.1 3.4,0 7,-3.9 7,-7.5 0,-3.6 -3.6,-7.5 -7,-7.5 -1,0 -2.9,0.9 -4.4,2.1 z"
     id="path13612" />
  <path
     style="stroke-width:0.1"
     d="m 512.3,179.2 c -3.5,1.7 -4.8,6 -2.9,9.6 3.5,6.8 13.6,4.1 13.6,-3.6 0,-4.7 -6.3,-8.2 -10.7,-6 z"
     id="path13614" />
  <path
     style="stroke-width:0.1"
     d="m 832.3,187.2 c -6.8,3.3 -3.9,13.8 3.8,13.8 2.8,0 6.9,-4.4 6.9,-7.3 0,-5.1 -6.1,-8.8 -10.7,-6.5 z"
     id="path13616" />
  <path
     style="stroke-width:0.1"
     d="m 270.9,188.2 c -3.8,1.3 -5.7,6.2 -3.8,9.7 3.2,5.7 11.1,4.9 13.2,-1.3 1.7,-5.1 -4,-10.3 -9.4,-8.4 z"
     id="path13618" />
  <path
     style="stroke-width:0.1"
     d="m 550.7,189.8 c -2.4,2.6 -2.1,7.7 0.5,10.2 6.3,5.8 15.2,-2.6 10.2,-9.8 -2,-2.8 -8.3,-3.1 -10.7,-0.4 z"
     id="path13620" />
  <path
     style="stroke-width:0.1"
     d="m 671.9,191.8 c -1.5,1.3 -2.2,3 -2.2,5.1 0,6.6 7.6,9.8 12.3,5.1 2.7,-2.7 2.5,-6.6 -0.5,-9.5 -2.9,-3 -6.4,-3.2 -9.6,-0.7 z"
     id="path13622" />
  <path
     style="stroke-width:0.1"
     d="m 954.5,192.5 c -4,3.9 -2.9,9.5 2.2,11.3 7.8,2.7 13.6,-7.6 7,-12.3 -3.1,-2.2 -6.5,-1.8 -9.2,1 z"
     id="path13624" />
  <path
     style="stroke-width:0.1"
     d="m 109.5,193.5 c -4,3.9 -2.9,9.7 2.2,11.6 5.8,2.2 11.6,-3.6 9.4,-9.4 -1.9,-5.1 -7.7,-6.2 -11.6,-2.2 z"
     id="path13626" />
  <path
     style="stroke-width:0.1"
     d="m 392.6,193.1 c -3.6,2.8 -3.6,8 0,10.8 1.5,1.2 3.4,2.1 4.4,2.1 3.4,0 7,-3.9 7,-7.5 0,-3.6 -3.6,-7.5 -7,-7.5 -1,0 -2.9,0.9 -4.4,2.1 z"
     id="path13628" />
  <path
     style="stroke-width:0.1"
     d="m 22,196 c -2.6,2.6 -2.6,8.1 0,10.5 2.9,2.6 7.9,2.4 10.2,-0.4 5.6,-7 -3.9,-16.4 -10.2,-10.1 z"
     id="path13630" />
  <path
     style="stroke-width:0.1"
     d="m 870.5,196.5 c -3.9,3.8 -3.2,8.6 1.6,11 7.6,4 14.6,-7.1 7.6,-12 -3.1,-2.2 -6.5,-1.8 -9.2,1 z"
     id="path13632" />
  <path
     style="stroke-width:0.1"
     d="m 65,196.3 c -3.3,1.6 -4.7,5.8 -3.2,9.2 2.5,5.5 10,5.8 12.7,0.5 3.2,-6.1 -3.3,-12.8 -9.5,-9.7 z"
     id="path13634" />
  <path
     style="stroke-width:0.1"
     d="m 307.6,197.1 c -3.6,2.8 -3.6,8 0,10.8 3.5,2.7 5.9,2.6 8.9,-0.4 3.4,-3.3 3.3,-7.7 -0.1,-10.4 -1.5,-1.2 -3.4,-2.1 -4.4,-2.1 -1,0 -2.9,0.9 -4.4,2.1 z"
     id="path13636" />
  <path
     style="stroke-width:0.1"
     d="m 587.6,197.1 c -1.9,1.5 -2.6,3 -2.6,5.4 0,3.6 3.6,7.5 7,7.5 3.4,0 7,-3.9 7,-7.5 0,-3.6 -3.6,-7.5 -7,-7.5 -1,0 -2.9,0.9 -4.4,2.1 z"
     id="path13638" />
  <path
     style="stroke-width:0.1"
     d="m 628.7,198.8 c -4,4.4 -0.7,12.2 5.1,12.2 6,0 9.4,-7.8 5.2,-12 -2.6,-2.6 -8.1,-2.6 -10.3,-0.2 z"
     id="path13640" />
  <path
     style="stroke-width:0.1"
     d="m 911.1,199.6 c -2.7,3.5 -2.6,5.9 0.4,8.9 3.3,3.4 7.7,3.3 10.4,-0.1 1.2,-1.5 2.1,-3.4 2.1,-4.4 0,-3.4 -3.9,-7 -7.5,-7 -2.4,0 -3.9,0.7 -5.4,2.6 z"
     id="path13642" />
  <path
     style="stroke-width:0.1"
     d="m 349,200 c -4.5,4.5 -1.1,12 5.3,12 4.3,0 6.7,-2.6 6.7,-7.3 0,-2.6 -0.6,-4 -2.2,-5.1 -3.1,-2.2 -7.4,-2 -9.8,0.4 z"
     id="path13644" />
  <path
     style="stroke-width:0.1"
     d="m 452.5,228.2 c -5,2.7 -5.9,7.5 -2,11.3 4.2,4.3 10.6,2.3 12,-3.6 1.2,-4.8 -5.7,-10.1 -10,-7.7 z"
     id="path13646" />
  <path
     style="stroke-width:0.1"
     d="m 1007.3,228 c -4.6,1.9 -5.7,8.3 -2,11.8 3,2.8 6.8,2.8 9.5,-0.1 5.4,-5.7 -0.3,-14.5 -7.5,-11.7 z"
     id="path13648" />
  <path
     style="stroke-width:0.1"
     d="m 781.5,233.5 c -3.4,3.3 -3.3,7.7 0.1,10.4 1.5,1.2 3.4,2.1 4.4,2.1 3.4,0 7,-3.9 7,-7.5 0,-2.4 -0.7,-3.9 -2.6,-5.4 -3.5,-2.7 -5.9,-2.6 -8.9,0.4 z"
     id="path13650" />
  <path
     style="stroke-width:0.1"
     d="m 234,235 c -6.1,6.1 2.7,15.4 9.8,10.4 2.8,-2 3.1,-8.3 0.4,-10.7 -2.5,-2.3 -7.8,-2.1 -10.2,0.3 z"
     id="path13652" />
  <path
     style="stroke-width:0.1"
     d="m 117,240 c -4.3,4.3 -1.1,12 5,12 3.8,0 7,-3.2 7,-7 0,-3.8 -3.2,-7 -7,-7 -1.7,0 -3.9,0.9 -5,2 z"
     id="path13654" />
  <path
     style="stroke-width:0.1"
     d="m 666.1,244.6 c -1.2,1.5 -2.1,3.4 -2.1,4.4 0,3.4 3.9,7 7.5,7 3.6,0 7.5,-3.6 7.5,-7 0,-3.4 -3.9,-7 -7.5,-7 -2.4,0 -3.9,0.7 -5.4,2.6 z"
     id="path13656" />
  <path
     style="stroke-width:0.1"
     d="m 562.5,249.5 c -4.8,4.7 -1.9,11.5 4.9,11.5 6.8,0 9.6,-7.9 4.4,-12.3 -2.8,-2.4 -6.5,-2.1 -9.3,0.8 z"
     id="path13658" />
  <path
     style="stroke-width:0.1"
     d="m 341,253 c -2.4,2.4 -2.6,6.7 -0.4,9.8 2,2.9 7.6,3 10.4,0.2 4.3,-4.3 1.1,-12 -5,-12 -1.7,0 -3.9,0.9 -5,2 z"
     id="path13660" />
  <path
     style="stroke-width:0.1"
     d="m 900,253.7 c -5.3,1.9 -6.8,8.6 -2.8,12.3 6.3,5.9 15.7,-3.2 10.1,-9.8 -2,-2.3 -5,-3.3 -7.3,-2.5 z"
     id="path13662" />
  <path
     style="stroke-width:0.1"
     d="m 746,274 c -6.3,6.3 3.1,15.8 10.1,10.2 2.8,-2.3 3,-7.3 0.4,-10.2 -2.4,-2.6 -7.9,-2.6 -10.5,0 z"
     id="path13664" />
  <path
     style="stroke-width:0.1"
     d="m 1029,274 c -4.3,4.3 -1.1,12 5,12 3.8,0 7,-3.2 7,-7 0,-3.8 -3.2,-7 -7,-7 -1.7,0 -3.9,0.9 -5,2 z"
     id="path13666" />
  <path
     style="stroke-width:0.1"
     d="m 184,275 c -2.4,2.4 -2.6,6.7 -0.4,9.8 1.1,1.6 2.5,2.2 5.4,2.2 2.9,0 4.3,-0.6 5.4,-2.2 3.6,-5.1 0.5,-11.8 -5.4,-11.8 -1.7,0 -3.9,0.9 -5,2 z"
     id="path13668" />
  <path
     style="stroke-width:0.1"
     d="m 466.5,275.5 c -3,3 -3.1,5.4 -0.4,8.9 1.5,1.9 3,2.6 5.4,2.6 3.6,0 7.5,-3.6 7.5,-7 0,-1 -0.9,-2.9 -2.1,-4.4 -2.7,-3.4 -7.1,-3.5 -10.4,-0.1 z"
     id="path13670" />
  <path
     style="stroke-width:0.1"
     d="m 706.5,276.5 c -3.4,3.3 -3.3,7.7 0.1,10.4 1.5,1.2 3.4,2.1 4.4,2.1 3.4,0 7,-3.9 7,-7.5 0,-2.4 -0.7,-3.9 -2.6,-5.4 -3.5,-2.7 -5.9,-2.6 -8.9,0.4 z"
     id="path13672" />
  <path
     style="stroke-width:0.1"
     d="m 787.6,276.1 c -7.1,5.6 0.9,16.6 8.2,11.2 3.8,-2.8 4.1,-7.5 0.8,-10.8 -3.1,-3 -5.5,-3.2 -9,-0.4 z"
     id="path13674" />
  <path
     style="stroke-width:0.1"
     d="m 989.6,276.1 c -2.6,2 -3.6,6.9 -1.8,9.5 1,1.5 4.7,3.4 6.7,3.4 2.5,0 6.5,-4.6 6.5,-7.5 0,-3 -4.1,-7.5 -6.8,-7.5 -1.1,0 -3.1,0.9 -4.6,2.1 z"
     id="path13676" />
  <path
     style="stroke-width:0.1"
     d="m 1070.9,275.5 c -6.5,3.5 -3.4,13.5 4.1,13.5 1.1,0 3.2,-1.2 4.7,-2.6 2,-2 2.4,-3.1 1.9,-5.7 -0.4,-1.7 -1.2,-3.7 -1.9,-4.4 -2,-2 -6,-2.4 -8.8,-0.8 z"
     id="path13678" />
  <path
     style="stroke-width:0.1"
     d="m 147,275.8 c -5.1,1.6 -6.8,8.4 -3,12.2 6,6 15.4,-2.6 10.5,-9.7 -1.5,-2.1 -5,-3.3 -7.5,-2.5 z"
     id="path13680" />
  <path
     style="stroke-width:0.1"
     d="m 227,276.3 c -1.4,0.7 -3.1,2.4 -3.9,3.8 -1.2,2.2 -1.2,2.9 0,5.4 2.7,5.7 10.5,5.7 13.1,0 2.6,-5.7 -3.7,-11.9 -9.2,-9.2 z"
     id="path13682" />
  <path
     style="stroke-width:0.1"
     d="m 428.9,276.2 c -3.8,1.3 -5.7,6.2 -3.8,9.7 3.2,5.7 11.1,4.9 13.2,-1.3 1.7,-5.1 -4,-10.3 -9.4,-8.4 z"
     id="path13684" />
  <path
     style="stroke-width:0.1"
     d="m 510.3,275.8 c -5.1,0.8 -7,8.3 -3,12 4.8,4.5 11.7,1.4 11.7,-5.1 0,-4.8 -3.8,-7.7 -8.7,-6.9 z"
     id="path13686" />
  <path
     style="stroke-width:0.1"
     d="m 827,286 c -4.2,4.2 -0.8,12 5.3,12 5.8,0 9.1,-8.5 4.9,-12.3 -2.5,-2.3 -7.8,-2.1 -10.2,0.3 z"
     id="path13688" />
  <path
     style="stroke-width:0.1"
     d="m 265,287 c -4.3,4.3 -1.1,12 5,12 3.8,0 7,-3.2 7,-7 0,-3.8 -3.2,-7 -7,-7 -1.7,0 -3.9,0.9 -5,2 z"
     id="path13690" />
  <path
     style="stroke-width:0.1"
     d="m 547.1,287.6 c -1.2,1.5 -2.1,3.4 -2.1,4.4 0,3.4 3.9,7 7.5,7 3.6,0 7.5,-3.6 7.5,-7 0,-3.4 -3.9,-7 -7.5,-7 -2.4,0 -3.9,0.7 -5.4,2.6 z"
     id="path13692" />
  <path
     style="stroke-width:0.1"
     d="m 668.5,289.5 c -1.4,1.3 -2.5,3.6 -2.5,5 0,3 4.1,7.5 6.7,7.5 2.5,0 6.3,-2.8 7.2,-5.4 1.2,-3 -0.6,-7.1 -3.5,-8.5 -3.7,-1.6 -5.2,-1.4 -7.9,1.4 z"
     id="path13694" />
  <path
     style="stroke-width:0.1"
     d="m 951.6,289.1 c -1.9,1.5 -2.6,3 -2.6,5.4 0,3.6 3.6,7.5 7,7.5 3.4,0 7,-3.9 7,-7.5 0,-3.6 -3.6,-7.5 -7,-7.5 -1,0 -2.9,0.9 -4.4,2.1 z"
     id="path13696" />
  <path
     style="stroke-width:0.1"
     d="m 109,288.7 c -5.5,2 -6.8,8.7 -2.4,12.2 1.5,1.2 3.4,2.1 4.4,2.1 3.3,0 7,-3.9 7,-7.4 0,-4.6 -4.9,-8.4 -9,-6.9 z"
     id="path13698" />
  <path
     style="stroke-width:0.1"
     d="m 390.3,289.2 c -5.2,2.5 -5.2,10.5 0.1,12.9 8.3,3.8 14.7,-8.4 6.6,-12.6 -3.3,-1.7 -3.7,-1.7 -6.7,-0.3 z"
     id="path13700" />
  <path
     style="stroke-width:0.1"
     d="m 18.5,293.5 c -1.4,1.3 -2.5,3.6 -2.5,5 0,2.8 4,7.5 6.4,7.5 3,0 6.5,-2.3 7.6,-5 2,-4.9 -1.9,-9.9 -7.8,-10 -0.7,0 -2.4,1.1 -3.7,2.5 z"
     id="path13702" />
  <path
     style="stroke-width:0.1"
     d="m 867.6,293.1 c -1.9,1.5 -2.6,3 -2.6,5.4 0,3.7 3.7,7.5 7.2,7.5 2.7,0 6.8,-4.5 6.8,-7.5 0,-3 -4.1,-7.5 -6.8,-7.5 -1.1,0 -3.1,0.9 -4.6,2.1 z"
     id="path13704" />
  <path
     style="stroke-width:0.1"
     d="m 304.8,293.6 c -5.1,2.7 -4.6,10.1 0.7,12.6 5.8,2.6 11.9,-3.3 9.5,-9.1 -0.6,-1.6 -2.3,-3.3 -3.6,-4 -3.1,-1.4 -3.3,-1.4 -6.6,0.5 z"
     id="path13706" />
  <path
     style="stroke-width:0.1"
     d="m 585.3,293.2 c -8.1,3.9 -2,16.7 6.2,13 5.5,-2.5 5.8,-10 0.5,-12.7 -3.3,-1.7 -3.7,-1.7 -6.7,-0.3 z"
     id="path13708" />
  <path
     style="stroke-width:0.1"
     d="m 59.7,294.8 c -2.5,2.8 -2.2,8.7 0.5,10.6 7.1,5 15.9,-4.3 9.8,-10.4 -2.6,-2.6 -8.1,-2.6 -10.3,-0.2 z"
     id="path13710" />
  <path
     style="stroke-width:0.1"
     d="m 625.1,296.6 c -1.2,1.5 -2.1,3.4 -2.1,4.4 0,3.4 3.9,7 7.5,7 4.3,0 7.9,-4.1 7,-8 -1.4,-6 -8.8,-8 -12.4,-3.4 z"
     id="path13712" />
  <path
     style="stroke-width:0.1"
     d="m 908,296 c -4.5,4.5 -1.1,12 5.4,12 2.5,0 3.9,-0.7 5,-2.2 3.6,-5.1 0.5,-11.8 -5.4,-11.8 -1.7,0 -3.9,0.9 -5,2 z"
     id="path13714" />
  <path
     style="stroke-width:0.1"
     d="m 345.9,296.8 c -6.3,5.2 0.8,15.5 8,11.7 4.8,-2.4 5.5,-7.2 1.6,-11 -2.9,-3 -6.4,-3.2 -9.6,-0.7 z"
     id="path13716" />
  <path
     style="stroke-width:0.1"
     d="m 486.3,327 c -2.5,1 -4.3,3.9 -4.3,7 0,2.9 4.4,7 7.5,7 6.2,0 8.9,-8.9 3.9,-12.9 -2.9,-2.3 -3.8,-2.4 -7.1,-1.1 z"
     id="path13718" />
  <path
     style="stroke-width:0.1"
     d="m 1042,326.7 c -5.3,1.9 -6.8,8.6 -2.8,12.3 6.3,5.8 15.7,-3.3 10.1,-9.8 -2,-2.3 -5,-3.3 -7.3,-2.5 z"
     id="path13720" />
  <path
     style="stroke-width:0.1"
     d="m 815.6,332.1 c -1.9,1.5 -2.6,3 -2.6,5.4 0,3.6 3.6,7.5 7,7.5 3.4,0 7,-3.9 7,-7.5 0,-3.6 -3.6,-7.5 -7,-7.5 -1,0 -2.9,0.9 -4.4,2.1 z"
     id="path13722" />
  <path
     style="stroke-width:0.1"
     d="m 268,334 c -4.3,4.3 -1.1,12 5,12 1.7,0 3.9,-0.9 5,-2 2.6,-2.6 2.6,-8.1 0.2,-10.3 -2.5,-2.3 -7.8,-2.1 -10.2,0.3 z"
     id="path13724" />
  <path
     style="stroke-width:0.1"
     d="m 151,339 c -2.6,2.6 -2.6,8.1 -0.2,10.3 2.5,2.3 7.8,2.1 10.2,-0.3 4.3,-4.3 1.1,-12 -5,-12 -1.7,0 -3.9,0.9 -5,2 z"
     id="path13726" />
  <path
     style="stroke-width:0.1"
     d="m 700.1,343.6 c -1.2,1.5 -2.1,3.4 -2.1,4.4 0,1 0.9,2.9 2.1,4.4 4.1,5.2 12.2,2.3 12.2,-4.4 0,-6.7 -8.1,-9.6 -12.2,-4.4 z"
     id="path13728" />
  <path
     style="stroke-width:0.1"
     d="m 596.2,348.3 c -4.5,4.8 -1.4,11.7 5.1,11.7 4.2,0 6.7,-2.6 6.7,-6.8 0,-6.5 -7.4,-9.6 -11.8,-4.9 z"
     id="path13730" />
  <path
     style="stroke-width:0.1"
     d="m 26.6,349.1 c -3.6,2.8 -3.6,8 0,10.8 1.5,1.2 3.4,2.1 4.4,2.1 3.4,0 7,-3.9 7,-7.5 0,-3.6 -3.6,-7.5 -7,-7.5 -1,0 -2.9,0.9 -4.4,2.1 z"
     id="path13732" />
  <path
     style="stroke-width:0.1"
     d="m 375,352 c -2.6,2.6 -2.6,8.1 -0.2,10.3 4.4,4 12.2,0.7 12.2,-5.1 0,-6 -7.8,-9.4 -12,-5.2 z"
     id="path13734" />
  <path
     style="stroke-width:0.1"
     d="m 934,352.7 c -5.1,1.9 -6.8,8.5 -3,12.3 6.1,6.1 15.9,-3.3 10.3,-9.8 -2,-2.3 -5,-3.3 -7.3,-2.5 z"
     id="path13736" />
  <path
     style="stroke-width:0.1"
     d="m 774,378 c -4.5,4.5 -1.1,12 5.4,12 2.5,0 3.9,-0.7 5,-2.2 3.6,-5.1 0.5,-11.8 -5.4,-11.8 -1.7,0 -3.9,0.9 -5,2 z"
     id="path13738" />
  <path
     style="stroke-width:0.1"
     d="m 1056.9,377.8 c -4.9,4 -1.7,12.2 4.8,12.2 6.5,0 9.3,-6.1 5.2,-11.4 -2.5,-3.1 -6.6,-3.5 -10,-0.8 z"
     id="path13740" />
  <path
     style="stroke-width:0.1"
     d="m 212,379 c -4.7,4.7 -1.5,12.3 5.1,12.3 6.3,0 9,-7.2 4.4,-11.8 -2.9,-3 -6.8,-3.2 -9.5,-0.5 z"
     id="path13742" />
  <path
     style="stroke-width:0.1"
     d="m 494.5,379.5 c -3.9,3.8 -3.2,8.6 1.6,11 7.6,4 14.6,-7.1 7.6,-12 -3.1,-2.2 -6.5,-1.8 -9.2,1 z"
     id="path13744" />
  <path
     style="stroke-width:0.1"
     d="m 737,378.7 c -5.1,1.9 -6.8,8.5 -3,12.3 6.1,6.1 15.9,-3.2 10.3,-9.8 -2,-2.3 -5,-3.3 -7.3,-2.5 z"
     id="path13746" />
  <path
     style="stroke-width:0.1"
     d="m 817,379.3 c -1.4,0.7 -3.1,2.4 -3.9,3.8 -1.2,2.2 -1.2,2.9 0,5.4 2.7,5.7 10.5,5.7 13.1,0 2.6,-5.7 -3.7,-11.9 -9.2,-9.2 z"
     id="path13748" />
  <path
     style="stroke-width:0.1"
     d="m 1018.9,379.4 c -1.3,0.6 -3,2.3 -3.8,3.7 -1.2,2.2 -1.2,2.9 0,5.4 4,8.4 16.5,3.2 12.9,-5.4 -1.5,-3.7 -5.7,-5.4 -9.1,-3.7 z"
     id="path13750" />
  <path
     style="stroke-width:0.1"
     d="m 1099.3,379.5 c -4.9,2.1 -5.8,7.1 -1.8,11 4.5,4.6 11.8,1.9 11.8,-4.3 0,-5.8 -4.7,-8.9 -10,-6.7 z"
     id="path13752" />
  <path
     style="stroke-width:0.1"
     d="m 171.5,382 c -4.2,4.7 -0.8,12 5.5,12 3.3,0 7,-4 7,-7.4 0,-5.7 -8.6,-8.9 -12.5,-4.6 z"
     id="path13754" />
  <path
     style="stroke-width:0.1"
     d="m 252.1,382.6 c -1.2,1.5 -2.1,3.4 -2.1,4.4 0,3.1 3.9,7 7,7 6.2,0 9.7,-6.6 6,-11.3 -2.9,-3.7 -8,-3.7 -10.9,-0.1 z"
     id="path13756" />
  <path
     style="stroke-width:0.1"
     d="m 454,382 c -6.1,6.1 2.7,15.4 9.8,10.4 2.8,-2 3.1,-8.3 0.4,-10.7 -2.5,-2.3 -7.8,-2.1 -10.2,0.3 z"
     id="path13758" />
  <path
     style="stroke-width:0.1"
     d="m 535,382 c -4.3,4.3 -1.1,12 5,12 3.8,0 7,-3.2 7,-7 0,-1.7 -0.9,-3.9 -2,-5 -1.1,-1.1 -3.3,-2 -5,-2 -1.7,0 -3.9,0.9 -5,2 z"
     id="path13760" />
  <path
     style="stroke-width:0.1"
     d="m 10,390 c -4.3,4.3 -1.1,12 5,12 3.8,0 7,-3.2 7,-7 0,-3.8 -3.2,-7 -7,-7 -1.7,0 -3.9,0.9 -5,2 z"
     id="path13762" />
  <path
     style="stroke-width:0.1"
     d="m 855,390 c -4.3,4.3 -1.1,12 5,12 3.8,0 7,-3.2 7,-7 0,-3.8 -3.2,-7 -7,-7 -1.7,0 -3.9,0.9 -5,2 z"
     id="path13764" />
  <path
     style="stroke-width:0.1"
     d="m 292.9,390.8 c -2.8,2.3 -3,7.3 -0.4,10.2 2.4,2.6 7.9,2.6 10.5,0 6.3,-6.3 -3.1,-15.8 -10.1,-10.2 z"
     id="path13766" />
  <path
     style="stroke-width:0.1"
     d="m 575.1,391.6 c -4.1,5.3 -1.3,11.4 5.2,11.4 4.2,0 7,-2.9 7,-7.2 0,-6.4 -8.3,-9.2 -12.2,-4.2 z"
     id="path13768" />
  <path
     style="stroke-width:0.1"
     d="m 699,391.7 c -5.5,2 -6.8,8.7 -2.4,12.2 1.5,1.2 3.4,2.1 4.4,2.1 3.3,0 7,-3.9 7,-7.4 0,-4.6 -4.9,-8.4 -9,-6.9 z"
     id="path13770" />
  <path
     style="stroke-width:0.1"
     d="m 980.2,392.6 c -6.3,4.4 -3.7,13.4 3.9,13.4 2.8,0 6.9,-4.4 6.9,-7.3 0,-5.5 -6.5,-9.2 -10.8,-6.1 z"
     id="path13772" />
  <path
     style="stroke-width:0.1"
     d="m 133.5,395 c -2.5,2.7 -2.2,8 0.6,10.2 6.8,5.6 16.1,-4 9.9,-10.2 -2.6,-2.6 -8.1,-2.6 -10.5,0 z"
     id="path13774" />
  <path
     style="stroke-width:0.1"
     d="m 416,395 c -2.6,2.6 -2.5,6 0.1,9.4 2.5,3.1 6.6,3.5 10,0.8 2.8,-2.3 3,-7.3 0.4,-10.2 -2.4,-2.6 -7.9,-2.6 -10.5,0 z"
     id="path13776" />
  <path
     style="stroke-width:0.1"
     d="m 48.3,396 c -4.8,1.9 -5.8,8.7 -1.7,11.9 3.4,2.7 6.4,2.7 9.2,0.1 5.7,-5.3 -0.3,-14.9 -7.5,-12 z"
     id="path13778" />
  <path
     style="stroke-width:0.1"
     d="m 896.3,396.2 c -6.8,3.3 -4,13.8 3.7,13.8 2.8,0 7,-4.4 7,-7.3 0,-5.1 -6.1,-8.8 -10.7,-6.5 z"
     id="path13780" />
  <path
     style="stroke-width:0.1"
     d="m 331,399 c -4.2,4.2 -0.8,12 5.3,12 5.8,0 9.1,-8.5 4.9,-12.3 -2.5,-2.3 -7.8,-2.1 -10.2,0.3 z"
     id="path13782" />
  <path
     style="stroke-width:0.1"
     d="m 611,399.2 c -5.8,6.3 3.2,15.6 9.8,10 3.2,-2.6 3.7,-6.3 1.2,-9.5 -2.8,-3.5 -8,-3.7 -11,-0.5 z"
     id="path13784" />
  <path
     style="stroke-width:0.1"
     d="m 653.6,400.1 c -5,3.9 -2.2,12.2 4.2,12.2 4.3,0 7.2,-2.8 7.2,-7 0,-6.5 -6.1,-9.3 -11.4,-5.2 z"
     id="path13786" />
  <path
     style="stroke-width:0.1"
     d="m 936,400 c -2.6,2.6 -2.6,8.1 0,10.5 2.9,2.6 7.9,2.4 10.2,-0.4 5.6,-7 -3.9,-16.4 -10.2,-10.1 z"
     id="path13788" />
  <path
     style="stroke-width:0.1"
     d="m 95.5,401.5 c -1.4,1.3 -2.5,3.6 -2.5,5 0,3 4.1,7.5 6.8,7.5 3.5,0 7.2,-3.8 7.2,-7.3 0,-3.8 -0.7,-5 -3.7,-6.6 -3.3,-1.7 -5.1,-1.4 -7.8,1.4 z"
     id="path13790" />
  <path
     style="stroke-width:0.1"
     d="m 373.5,401.5 c -6.1,6 0.7,15 8.4,11.1 6.7,-3.5 3.8,-13.6 -3.9,-13.6 -1.1,0 -3.2,1.1 -4.5,2.5 z"
     id="path13792" />
  <path
     style="stroke-width:0.1"
     d="m 221.2,430.3 c -4.5,4.8 -1.4,11.7 5.1,11.7 4.2,0 6.7,-2.6 6.7,-6.8 0,-6.5 -7.4,-9.6 -11.8,-4.9 z"
     id="path13794" />
  <path
     style="stroke-width:0.1"
     d="m 776,430 c -2.6,2.6 -2.6,8.1 -0.2,10.3 2.8,2.5 8.7,2.2 10.6,-0.5 5,-7.1 -4.3,-15.9 -10.4,-9.8 z"
     id="path13796" />
  <path
     style="stroke-width:0.1"
     d="m 552,434 c -2.6,2.6 -2.6,8.1 -0.2,10.3 2.5,2.3 7.8,2.1 10.2,-0.3 4.3,-4.3 1.1,-12 -5,-12 -1.7,0 -3.9,0.9 -5,2 z"
     id="path13798" />
  <path
     style="stroke-width:0.1"
     d="m 1003.8,439.6 c -5.1,2.7 -4.6,10.1 0.7,12.6 5.8,2.6 11.9,-3.3 9.5,-9.1 -0.6,-1.6 -2.3,-3.3 -3.6,-4 -3.1,-1.4 -3.3,-1.4 -6.6,0.5 z"
     id="path13800" />
  <path
     style="stroke-width:0.1"
     d="m 439,443.3 c -7.9,4 -2.4,16.2 5.8,12.8 5.9,-2.5 6.3,-10.4 0.6,-13 -3.1,-1.4 -3.3,-1.4 -6.4,0.2 z"
     id="path13802" />
  <path
     style="stroke-width:0.1"
     d="m 336.3,447.8 c -5.1,0.8 -7,8.3 -3,12 4.8,4.5 11.7,1.4 11.7,-5.1 0,-4.8 -3.8,-7.7 -8.7,-6.9 z"
     id="path13804" />
  <path
     style="stroke-width:0.1"
     d="m 890.1,451.6 c -1.2,1.5 -2.1,3.4 -2.1,4.4 0,3.4 3.9,7 7.5,7 3.6,0 7.5,-3.6 7.5,-7 0,-3.4 -3.9,-7 -7.5,-7 -2.4,0 -3.9,0.7 -5.4,2.6 z"
     id="path13806" />
  <path
     style="stroke-width:0.1"
     d="m 112.7,453 c -3.5,2.8 -3.7,8 -0.5,11 6.3,5.8 15.6,-3.2 10.1,-9.8 -2.7,-3.2 -6.4,-3.7 -9.6,-1.2 z"
     id="path13808" />
  <path
     style="stroke-width:0.1"
     d="m 668,456 c -2.6,2.6 -2.6,8.1 0,10.5 2.9,2.6 7.9,2.4 10.2,-0.4 5.6,-7 -3.9,-16.4 -10.2,-10.1 z"
     id="path13810" />
  <path
     style="stroke-width:0.1"
     d="m 795,482 c -2.6,2.6 -2.6,8.1 0,10.5 2.9,2.6 7.9,2.4 10.2,-0.4 2.7,-3.4 2.3,-7.5 -0.8,-10 -3.4,-2.6 -6.8,-2.7 -9.4,-0.1 z"
     id="path13812" />
  <path
     style="stroke-width:0.1"
     d="m 1077.5,482.5 c -2.8,2.7 -3,4.2 -1.4,7.9 1.6,3.4 5.8,5.1 9.1,3.5 2.6,-1.1 4.8,-4.6 4.8,-7.5 0,-2.4 -4.7,-6.4 -7.5,-6.4 -1.4,0 -3.7,1.1 -5,2.5 z"
     id="path13814" />
  <path
     style="stroke-width:0.1"
     d="m 234.7,481.7 c -0.9,0.2 -2.4,1.8 -3.3,3.5 -3,5.9 2.7,12.2 8.9,9.9 5.1,-1.9 6.2,-7.7 2.2,-11.6 -2.3,-2.4 -4,-2.8 -7.8,-1.8 z"
     id="path13816" />
  <path
     style="stroke-width:0.1"
     d="m 515.5,483.5 c -1.4,1.3 -2.5,3.6 -2.5,5 0,3 4.1,7.5 6.8,7.5 3.5,0 7.2,-3.8 7.2,-7.5 0,-2.4 -0.7,-3.9 -2.6,-5.4 -3.5,-2.7 -5.9,-2.6 -8.9,0.4 z"
     id="path13818" />
  <path
     style="stroke-width:0.1"
     d="m 754.5,485 c -2.6,2.9 -2.4,7.9 0.4,10.2 7,5.6 16.4,-3.9 10.1,-10.2 -2.6,-2.6 -8.1,-2.6 -10.5,0 z"
     id="path13820" />
  <path
     style="stroke-width:0.1"
     d="m 835.1,485.6 c -1.2,1.5 -2.1,3.4 -2.1,4.4 0,3.4 3.9,7 7.5,7 3.6,0 7.5,-3.6 7.5,-7 0,-3.4 -3.9,-7 -7.5,-7 -2.4,0 -3.9,0.7 -5.4,2.6 z"
     id="path13822" />
  <path
     style="stroke-width:0.1"
     d="m 1037.1,485.6 c -1.2,1.5 -2.1,3.4 -2.1,4.4 0,3.2 3.9,7 7.1,7 3.4,0 7.9,-3.9 7.9,-6.8 0,-3.5 -3.8,-7.2 -7.5,-7.2 -2.4,0 -3.9,0.7 -5.4,2.6 z"
     id="path13824" />
  <path
     style="stroke-width:0.1"
     d="m 192.1,486.6 c -1.2,1.5 -2.1,3.4 -2.1,4.4 0,3.4 3.9,7 7.5,7 3.6,0 7.5,-3.6 7.5,-7 0,-3.4 -3.9,-7 -7.5,-7 -2.4,0 -3.9,0.7 -5.4,2.6 z"
     id="path13826" />
  <path
     style="stroke-width:0.1"
     d="m 273.2,486.3 c -4.5,4.8 -1.4,11.7 5.1,11.7 4.3,0 6.7,-2.6 6.7,-7.3 0,-6.3 -7.4,-9.1 -11.8,-4.4 z"
     id="path13828" />
  <path
     style="stroke-width:0.1"
     d="m 475,486 c -1.1,1.1 -2,3.3 -2,5 0,1.7 0.9,3.9 2,5 1.1,1.1 3.3,2 5,2 1.7,0 3.9,-0.9 5,-2 1.1,-1.1 2,-3.3 2,-5 0,-1.7 -0.9,-3.9 -2,-5 -1.1,-1.1 -3.3,-2 -5,-2 -1.7,0 -3.9,0.9 -5,2 z"
     id="path13830" />
  <path
     style="stroke-width:0.1"
     d="m 556.1,485.8 c -2.8,2.2 -3.1,7.5 -0.6,10.2 2.4,2.6 7.9,2.6 10.5,0 6.2,-6.2 -3.1,-15.8 -9.9,-10.2 z"
     id="path13832" />
  <path
     style="stroke-width:0.1"
     d="m 31,494 c -2.6,2.6 -2.6,8.1 -0.2,10.3 4.4,4 12.2,0.6 12.2,-5.3 0,-6 -7.8,-9.2 -12,-5 z"
     id="path13834" />
  <path
     style="stroke-width:0.1"
     d="m 876,494 c -2.6,2.6 -2.6,8.1 -0.2,10.3 4.4,4 12.2,0.7 12.2,-5.1 0,-6 -7.8,-9.4 -12,-5.2 z"
     id="path13836" />
  <path
     style="stroke-width:0.1"
     d="m 314.7,494.1 c -4.8,2.8 -4,10.7 1.3,12.9 2.3,0.9 3.4,0.9 5.8,-0.4 4.9,-2.5 5.6,-7.2 1.7,-11.1 -2.5,-2.6 -5.8,-3.1 -8.8,-1.4 z"
     id="path13838" />
  <path
     style="stroke-width:0.1"
     d="m 596.6,495.1 c -5,3.9 -2.2,12.2 4.2,12.2 6.6,0 9.8,-7.8 5,-12.3 -2.8,-2.6 -5.8,-2.6 -9.2,0.1 z"
     id="path13840" />
  <path
     style="stroke-width:0.1"
     d="m 716.7,497.8 c -4,4.4 -0.7,12.2 5.1,12.2 6,0 9.4,-7.8 5.2,-12 -2.6,-2.6 -8.1,-2.6 -10.3,-0.2 z"
     id="path13842" />
  <path
     style="stroke-width:0.1"
     d="m 999.1,498.6 c -1.2,1.5 -2.1,3.5 -2.1,4.6 0,2.7 4.5,6.8 7.5,6.8 2.9,0 7.5,-4 7.5,-6.5 0,-2 -1.9,-5.7 -3.4,-6.7 -2.6,-1.8 -7.5,-0.8 -9.5,1.8 z"
     id="path13844" />
  <path
     style="stroke-width:0.1"
     d="m 154.1,499.6 c -1.2,1.5 -2.1,3.4 -2.1,4.4 0,3.4 3.9,7 7.5,7 3.6,0 7.5,-3.6 7.5,-7 0,-3.4 -3.9,-7 -7.5,-7 -2.4,0 -3.9,0.7 -5.4,2.6 z"
     id="path13846" />
  <path
     style="stroke-width:0.1"
     d="m 437,499 c -4.2,4.2 -1.2,12 4.8,12 4.6,0 7.2,-2.5 7.2,-7 0,-2.9 -0.6,-4.3 -2.2,-5.4 -3.1,-2.2 -7.4,-2 -9.8,0.4 z"
     id="path13848" />
  <path
     style="stroke-width:0.1"
     d="M 66.6,502.2 C 63,507.3 66.1,514 72,514 c 5.9,0 9,-6.7 5.4,-11.8 -1.1,-1.6 -2.5,-2.2 -5.4,-2.2 -2.9,0 -4.3,0.6 -5.4,2.2 z"
     id="path13850" />
  <path
     style="stroke-width:0.1"
     d="m 915.1,502.6 c -1.2,1.5 -2.1,3.5 -2.1,4.6 0,2.7 4.5,6.8 7.5,6.8 3,0 7.5,-4.1 7.5,-6.8 0,-3.5 -3.8,-7.2 -7.5,-7.2 -2.4,0 -3.9,0.7 -5.4,2.6 z"
     id="path13852" />
  <path
     style="stroke-width:0.1"
     d="m 352,503 c -1.1,1.1 -2,3.3 -2,5 0,1.7 0.9,3.9 2,5 1.1,1.1 3.3,2 5,2 1.7,0 3.9,-0.9 5,-2 1.1,-1.1 2,-3.3 2,-5 0,-1.7 -0.9,-3.9 -2,-5 -1.1,-1.1 -3.3,-2 -5,-2 -1.7,0 -3.9,0.9 -5,2 z"
     id="path13854" />
  <path
     style="stroke-width:0.1"
     d="m 632,503.2 c -4.3,4.7 -1.2,11.8 5.3,11.8 4.3,0 6.7,-2.6 6.7,-7.3 0,-6.2 -7.7,-9.1 -12,-4.5 z"
     id="path13856" />
  <path
     style="stroke-width:0.1"
     d="m 674.6,504.1 c -1.9,1.5 -2.6,3 -2.6,5.4 0,3.6 3.6,7.5 7,7.5 3.4,0 7,-3.9 7,-7.5 0,-3.6 -3.6,-7.5 -7,-7.5 -1,0 -2.9,0.9 -4.4,2.1 z"
     id="path13858" />
  <path
     style="stroke-width:0.1"
     d="m 958.2,502.7 c -0.7,0.3 -1.9,1.8 -2.8,3.5 -1.3,2.4 -1.3,3.5 -0.4,5.8 3.1,7.4 14,5.1 14,-3 0,-4.5 -6.3,-8.1 -10.8,-6.3 z"
     id="path13860" />
  <path
     style="stroke-width:0.1"
     d="m 113.7,505 c -3.7,2.9 -3.7,8 -0.1,10.9 1.5,1.2 3.4,2.1 4.4,2.1 3.3,0 7,-3.9 7,-7.4 0,-6 -6.6,-9.3 -11.3,-5.6 z"
     id="path13862" />
  <path
     style="stroke-width:0.1"
     d="m 396,504.3 c -5.2,2.6 -4.9,10.4 0.4,12.8 8.1,3.7 13.8,-7.3 6.4,-12.5 -2.7,-1.9 -3.5,-2 -6.8,-0.3 z"
     id="path13864" />
  <path
     style="stroke-width:0.1"
     d="m 520.9,528.8 c -4.9,4 -1.7,12.2 4.8,12.2 6.5,0 9.3,-6.1 5.2,-11.4 -2.5,-3.1 -6.6,-3.5 -10,-0.8 z"
     id="path13866" />
  <path
     style="stroke-width:0.1"
     d="m 1075.1,529.6 c -2.7,3.4 -2.7,6.4 -0.1,9.2 4.7,5 14,0.6 12.5,-5.8 -1.4,-6 -8.8,-8 -12.4,-3.4 z"
     id="path13868" />
  <path
     style="stroke-width:0.1"
     d="m 851.1,533.6 c -1.2,1.5 -2.1,3.4 -2.1,4.4 0,3.4 3.9,7 7.5,7 2.4,0 3.9,-0.7 5.4,-2.6 2.7,-3.5 2.6,-5.9 -0.4,-8.9 -3.3,-3.4 -7.7,-3.3 -10.4,0.1 z"
     id="path13870" />
  <path
     style="stroke-width:0.1"
     d="m 304.5,534.5 c -1.4,1.3 -2.5,3.1 -2.5,3.9 0,3 2.3,6.5 5,7.6 5.8,2.4 12,-4.4 9,-9.9 -2.4,-4.6 -7.8,-5.3 -11.5,-1.6 z"
     id="path13872" />
  <path
     style="stroke-width:0.1"
     d="m 189,538.3 c -5.2,2.6 -4.9,10.4 0.4,12.8 3.6,1.7 7.3,0.3 9.2,-3.2 1.9,-3.8 0.6,-8 -3.2,-9.8 -3.1,-1.4 -3.3,-1.4 -6.4,0.2 z"
     id="path13874" />
  <path
     style="stroke-width:0.1"
     d="m 737.6,543.1 c -1.9,1.5 -2.6,3 -2.6,5.4 0,3.7 3.7,7.5 7.2,7.5 2.7,0 6.8,-4.5 6.8,-7.5 0,-3 -4.1,-7.5 -6.8,-7.5 -1.1,0 -3.1,0.9 -4.6,2.1 z"
     id="path13876" />
  <path
     style="stroke-width:0.1"
     d="m 635,547.3 c -1.3,0.7 -3.1,2.4 -3.9,3.8 -3,5.3 3.6,11.7 9.4,9.1 5.5,-2.5 5.8,-10 0.5,-12.7 -3.5,-1.8 -2.9,-1.8 -6,-0.2 z"
     id="path13878" />
  <path
     style="stroke-width:0.1"
     d="m 62.1,550.6 c -2.6,3.4 -2.6,5.4 0,8.8 4.1,5.2 12.2,2.3 12.2,-4.4 0,-6.7 -8.1,-9.6 -12.2,-4.4 z"
     id="path13880" />
  <path
     style="stroke-width:0.1"
     d="m 413,551.3 c -5.2,2.6 -4.9,10.4 0.4,12.8 8.1,3.7 13.8,-7.3 6.4,-12.5 -2.7,-1.9 -3.5,-2 -6.8,-0.3 z"
     id="path13882" />
  <path
     style="stroke-width:0.1"
     d="m 967.5,555.5 c -4.8,4.7 -1.9,11.5 4.8,11.5 4.2,0 7,-2.9 7,-7.2 0,-6.2 -7.3,-8.9 -11.8,-4.3 z"
     id="path13884" />
  <path
     style="stroke-width:0.1"
     d="m 791.1,583.6 c -1.2,1.5 -2.1,3.4 -2.1,4.4 0,3.4 3.9,7 7.5,7 3.6,0 7.5,-3.6 7.5,-7 0,-3.4 -3.9,-7 -7.5,-7 -2.4,0 -3.9,0.7 -5.4,2.6 z"
     id="path13886" />
  <path
     style="stroke-width:0.1"
     d="m 1074,583 c -4.3,4.3 -1.1,12 5,12 3.8,0 7,-3.2 7,-7 0,-3.8 -3.2,-7 -7,-7 -1.7,0 -3.9,0.9 -5,2 z"
     id="path13888" />
  <path
     style="stroke-width:0.1"
     d="m 229.2,584.3 c -4.5,4.8 -1.4,11.7 5.1,11.7 4.2,0 6.7,-2.6 6.7,-6.8 0,-6.5 -7.4,-9.6 -11.8,-4.9 z"
     id="path13890" />
  <path
     style="stroke-width:0.1"
     d="m 511.9,583.8 c -4.9,4 -1.7,12.2 4.8,12.2 6.5,0 9.3,-6.1 5.2,-11.4 -2.5,-3.1 -6.6,-3.5 -10,-0.8 z"
     id="path13892" />
  <path
     style="stroke-width:0.1"
     d="m 753,584.3 c -1.3,0.7 -2.9,2.5 -3.4,3.9 -2.9,8.3 9.4,13.7 12.8,5.6 1.7,-3.9 1.1,-6.3 -2.2,-8.8 -2.9,-2.3 -3.8,-2.4 -7.2,-0.7 z"
     id="path13894" />
  <path
     style="stroke-width:0.1"
     d="m 832.6,585.1 c -1.9,1.5 -2.6,3 -2.6,5.4 0,3.6 3.6,7.5 7,7.5 3.4,0 7,-3.9 7,-7.5 0,-3.6 -3.6,-7.5 -7,-7.5 -1,0 -2.9,0.9 -4.4,2.1 z"
     id="path13896" />
  <path
     style="stroke-width:0.1"
     d="m 1034.6,585.1 c -1.9,1.5 -2.6,3 -2.6,5.4 0,3.6 3.6,7.5 7,7.5 3.4,0 7,-3.9 7,-7.5 0,-3.6 -3.6,-7.5 -7,-7.5 -1,0 -2.9,0.9 -4.4,2.1 z"
     id="path13898" />
  <path
     style="stroke-width:0.1"
     d="m 473.9,585.4 c -3.7,1.8 -5.6,5.9 -4.1,9 2.5,5.6 10.1,5.9 13.1,0.5 3.1,-5.6 -3.3,-12.4 -9,-9.5 z"
     id="path13900" />
  <path
     style="stroke-width:0.1"
     d="m 188.6,587.2 c -5.1,7.3 4.2,16 10.4,9.8 2.6,-2.6 2.6,-8.1 0.2,-10.3 -2.8,-2.5 -8.7,-2.2 -10.6,0.5 z"
     id="path13902" />
  <path
     style="stroke-width:0.1"
     d="m 269.5,587 c -4.2,4.7 -0.8,12 5.5,12 3.3,0 7,-4 7,-7.6 0,-5.7 -8.6,-8.7 -12.5,-4.4 z"
     id="path13904" />
  <path
     style="stroke-width:0.1"
     d="m 552,587 c -2.7,2.7 -2.5,6.6 0.5,9.5 2.9,3 6.4,3.2 9.6,0.7 2.8,-2.3 3,-7.3 0.4,-10.2 -2.4,-2.6 -7.9,-2.6 -10.5,0 z"
     id="path13906" />
  <path
     style="stroke-width:0.1"
     d="m 27.1,595.6 c -1.2,1.5 -2.1,3.5 -2.1,4.6 0,2.7 4.5,6.8 7.5,6.8 3,0 7.5,-4.1 7.5,-6.8 0,-3.5 -3.8,-7.2 -7.5,-7.2 -2.4,0 -3.9,0.7 -5.4,2.6 z"
     id="path13908" />
  <path
     style="stroke-width:0.1"
     d="m 872,595.2 c -5.8,6.3 3.2,15.6 9.8,10 3.2,-2.6 3.7,-6.3 1.2,-9.5 -2.8,-3.5 -8,-3.7 -11,-0.5 z"
     id="path13910" />
  <path
     style="stroke-width:0.1"
     d="m 310,596 c -1.1,1.1 -2,3.3 -2,5 0,1.7 0.9,3.9 2,5 1.1,1.1 3.3,2 5,2 1.7,0 3.9,-0.9 5,-2 1.1,-1.1 2,-3.3 2,-5 0,-1.7 -0.9,-3.9 -2,-5 -1.1,-1.1 -3.3,-2 -5,-2 -1.7,0 -3.9,0.9 -5,2 z"
     id="path13912" />
  <path
     style="stroke-width:0.1"
     d="m 592.5,596 c -4.2,4.6 -1,12 5.1,12 3.5,0 7.4,-3.7 7.4,-7 0,-1 -0.9,-2.9 -2.1,-4.4 -2.6,-3.3 -7.7,-3.6 -10.4,-0.6 z"
     id="path13914" />
  <path
     style="stroke-width:0.1"
     d="m 713.5,598.5 c -1.4,1.3 -2.5,3.6 -2.5,5 0,2.8 4,7.5 6.4,7.5 2.9,0 6.4,-2.2 7.5,-4.8 1.6,-3.3 -0.1,-7.5 -3.5,-9.1 -3.7,-1.6 -5.2,-1.4 -7.9,1.4 z"
     id="path13916" />
  <path
     style="stroke-width:0.1"
     d="m 996.6,598.1 c -1.9,1.5 -2.6,3 -2.6,5.4 0,3.6 3.6,7.5 7,7.5 3.4,0 7,-3.9 7,-7.5 0,-3.6 -3.6,-7.5 -7,-7.5 -1,0 -2.9,0.9 -4.4,2.1 z"
     id="path13918" />
  <path
     style="stroke-width:0.1"
     d="m 153.3,598 c -4.8,1.9 -5.8,8.7 -1.7,11.9 3.4,2.7 6.4,2.7 9.2,0.1 5.7,-5.3 -0.3,-14.9 -7.5,-12 z"
     id="path13920" />
  <path
     style="stroke-width:0.1"
     d="m 436,598.3 c -1.3,0.7 -3.1,2.4 -3.9,3.8 -3,5.3 3.6,11.7 9.4,9.1 5.5,-2.5 5.8,-10 0.5,-12.7 -3.5,-1.8 -2.9,-1.8 -6,-0.2 z"
     id="path13922" />
  <path
     style="stroke-width:0.1"
     d="m 65.2,601 c -6.7,2.8 -3.9,14 3.6,14 3,0 7.2,-4.3 7.2,-7.3 0,-5.1 -5.9,-8.7 -10.8,-6.7 z"
     id="path13924" />
  <path
     style="stroke-width:0.1"
     d="m 912.6,602.1 c -1.9,1.5 -2.6,3 -2.6,5.4 0,3.6 3.6,7.5 7,7.5 3.4,0 7,-3.9 7,-7.5 0,-3.6 -3.6,-7.5 -7,-7.5 -1,0 -2.9,0.9 -4.4,2.1 z"
     id="path13926" />
  <path
     style="stroke-width:0.1"
     d="m 350.9,602.1 c -3.8,1.4 -5.5,5.9 -3.7,9.6 3.9,8.2 16.4,2.9 12.9,-5.5 -1,-2.3 -5.1,-5.6 -6.4,-5.1 -0.1,0 -1.4,0.5 -2.8,1 z"
     id="path13928" />
  <path
     style="stroke-width:0.1"
     d="m 631,602.3 c -7,3.5 -4.8,13.7 3,13.7 2.8,0 7,-4.4 7,-7.3 0,-5.1 -5.5,-8.6 -10,-6.4 z"
     id="path13930" />
  <path
     style="stroke-width:0.1"
     d="m 670.5,605.5 c -3,3 -3.1,5.4 -0.4,8.9 1.5,1.9 3,2.6 5.4,2.6 3.6,0 7.5,-3.6 7.5,-7 0,-1 -0.9,-2.9 -2.1,-4.4 -2.7,-3.4 -7.1,-3.5 -10.4,-0.1 z"
     id="path13932" />
  <path
     style="stroke-width:0.1"
     d="m 953.2,605.3 c -4.5,4.8 -1.4,11.7 5.1,11.7 4.3,0 6.7,-2.6 6.7,-7.3 0,-6.3 -7.4,-9.1 -11.8,-4.4 z"
     id="path13934" />
  <path
     style="stroke-width:0.1"
     d="m 109.5,606.5 c -2.8,2.7 -3,4.2 -1.4,7.9 1.6,3.4 5.8,5.1 9.1,3.5 2.6,-1.1 4.8,-4.6 4.8,-7.5 0,-2.4 -4.7,-6.4 -7.5,-6.4 -1.4,0 -3.7,1.1 -5,2.5 z"
     id="path13936" />
  <path
     style="stroke-width:0.1"
     d="m 391,606 c -2.6,2.6 -2.6,8.1 0,10.5 2.9,2.6 7.9,2.4 10.2,-0.4 2.7,-3.4 2.3,-7.5 -0.8,-10 -3.4,-2.6 -6.8,-2.7 -9.4,-0.1 z"
     id="path13938" />
  <path
     style="stroke-width:0.1"
     d="m 232.7,632.1 c -4.8,2.8 -4,10.7 1.3,12.9 2.3,0.9 3.4,0.9 5.8,-0.4 4.9,-2.5 5.6,-7.2 1.7,-11.1 -2.5,-2.6 -5.8,-3.1 -8.8,-1.4 z"
     id="path13940" />
  <path
     style="stroke-width:0.1"
     d="m 786.5,633.5 c -2.8,2.7 -3.2,6.1 -1,9.2 4.9,7 16,0 12,-7.6 -2.4,-4.8 -7.2,-5.5 -11,-1.6 z"
     id="path13942" />
  <path
     style="stroke-width:0.1"
     d="m 562.5,637.5 c -4,3.9 -2.9,9.5 2.2,11.3 7.8,2.7 13.6,-7.6 7,-12.3 -3.1,-2.2 -6.5,-1.8 -9.2,1 z"
     id="path13944" />
  <path
     style="stroke-width:0.1"
     d="m 1016,641.8 c -5.1,1.6 -6.8,8.4 -3,12.2 6,6 15.4,-2.6 10.5,-9.7 -1.5,-2.1 -5,-3.3 -7.5,-2.5 z"
     id="path13946" />
  <path
     style="stroke-width:0.1"
     d="m 450,646.3 c -7,3.5 -4.8,13.7 3,13.7 2.8,0 7,-4.4 7,-7.3 0,-5.1 -5.5,-8.6 -10,-6.4 z"
     id="path13948" />
  <path
     style="stroke-width:0.1"
     d="m 343.1,653.6 c -2.7,3.5 -2.6,5.9 0.4,8.9 3.3,3.4 7.7,3.3 10.4,-0.1 1.2,-1.5 2.1,-3.4 2.1,-4.4 0,-3.4 -3.9,-7 -7.5,-7 -2.4,0 -3.9,0.7 -5.4,2.6 z"
     id="path13950" />
  <path
     style="stroke-width:0.1"
     d="m 901,654 c -2.6,2.6 -2.6,8.1 -0.2,10.3 4.4,4 12.2,0.7 12.2,-5.1 0,-6 -7.8,-9.4 -12,-5.2 z"
     id="path13952" />
  <path
     style="stroke-width:0.1"
     d="m 122,657 c -2.7,2.7 -2.6,7.1 0.3,9.8 5.4,5.1 12.8,0.7 11.7,-6.8 -0.6,-4.9 -8.2,-6.8 -12,-3 z"
     id="path13954" />
  <path
     style="stroke-width:0.1"
     d="m 678.5,659.5 c -2.8,2.7 -3.2,6.1 -1,9.2 4.5,6.4 15.1,0.8 12.3,-6.6 -2,-5.4 -7.4,-6.6 -11.3,-2.6 z"
     id="path13956" />
  <path
     style="stroke-width:0.1"
     d="m 764.5,688 c -1,1.1 -1.8,3.4 -1.8,5 0,6.5 7.6,9.5 12.1,4.7 2.8,-2.9 2.8,-5.7 0.1,-9.1 -2.6,-3.3 -7.7,-3.6 -10.4,-0.6 z"
     id="path13958" />
  <path
     style="stroke-width:0.1"
     d="m 1047.1,688.6 c -1.2,1.5 -2.1,3.4 -2.1,4.4 0,1 0.9,2.9 2.1,4.4 4.1,5.2 12.2,2.3 12.2,-4.4 0,-6.7 -8.1,-9.6 -12.2,-4.4 z"
     id="path13960" />
  <path
     style="stroke-width:0.1"
     d="m 202.5,689.5 c -2.8,2.7 -3.1,4.5 -1.4,7.8 1.6,3 2.8,3.7 6.6,3.7 4.1,0 7.7,-4.2 6.8,-8 -1.4,-5.8 -7.8,-7.8 -12,-3.5 z"
     id="path13962" />
  <path
     style="stroke-width:0.1"
     d="m 485,689 c -2.6,2.6 -2.6,8.1 -0.2,10.3 2.8,2.5 8.7,2.2 10.6,-0.5 5,-7.1 -4.3,-15.9 -10.4,-9.8 z"
     id="path13964" />
  <path
     style="stroke-width:0.1"
     d="m 726.3,689.2 c -8.1,3.9 -2,16.7 6.2,13 5.5,-2.5 5.8,-10 0.5,-12.7 -3.3,-1.7 -3.7,-1.7 -6.7,-0.3 z"
     id="path13966" />
  <path
     style="stroke-width:0.1"
     d="m 807,689.3 c -1.3,0.7 -2.9,2.5 -3.4,3.9 -2.9,8.3 9.4,13.7 12.8,5.6 1.7,-3.9 1.1,-6.3 -2.2,-8.8 -2.9,-2.3 -3.8,-2.4 -7.2,-0.7 z"
     id="path13968" />
  <path
     style="stroke-width:0.1"
     d="m 1009.3,689 c -2.5,1 -4.3,3.9 -4.3,7 0,2.9 4.4,7 7.5,7 6.2,0 8.9,-8.9 3.9,-12.9 -2.9,-2.3 -3.8,-2.4 -7.1,-1.1 z"
     id="path13970" />
  <path
     style="stroke-width:0.1"
     d="m 1091,688.7 c -5.5,2 -6.8,8.7 -2.4,12.2 1.5,1.2 3.4,2.1 4.4,2.1 3.3,0 7,-3.9 7,-7.4 0,-4.6 -4.9,-8.4 -9,-6.9 z"
     id="path13972" />
  <path
     style="stroke-width:0.1"
     d="m 162,692 c -2.6,2.6 -2.5,6 0.1,9.4 2.5,3.1 6.6,3.5 10,0.8 2.8,-2.3 3,-7.3 0.4,-10.2 -2.4,-2.6 -7.9,-2.6 -10.5,0 z"
     id="path13974" />
  <path
     style="stroke-width:0.1"
     d="m 242.6,692.2 c -3.6,5.1 -0.5,11.8 5.4,11.8 5.9,0 9,-6.7 5.4,-11.8 -2.1,-3.1 -8.7,-3.1 -10.8,0 z"
     id="path13976" />
  <path
     style="stroke-width:0.1"
     d="m 444.7,691.8 c -4,4.4 -0.7,12.2 5.1,12.2 6,0 9.4,-7.8 5.2,-12 -2.6,-2.6 -8.1,-2.6 -10.3,-0.2 z"
     id="path13978" />
  <path
     style="stroke-width:0.1"
     d="m 525.1,692.6 c -1.2,1.5 -2.1,3.5 -2.1,4.6 0,2.7 4.5,6.8 7.5,6.8 2.9,0 7.5,-4 7.5,-6.5 0,-2 -1.9,-5.7 -3.4,-6.7 -2.6,-1.8 -7.5,-0.8 -9.5,1.8 z"
     id="path13980" />
  <path
     style="stroke-width:0.1"
     d="m 845,700.7 c -3.7,4.7 -0.2,11.3 6,11.3 3.3,0 7,-4 7,-7.4 0,-6.3 -9,-8.9 -13,-3.9 z"
     id="path13982" />
  <path
     style="stroke-width:0.1"
     d="m 283.1,701.6 c -1.2,1.5 -2.1,3.4 -2.1,4.4 0,3.4 3.9,7 7.5,7 6.5,0 9.3,-7.2 4.8,-12.3 -2.5,-2.7 -7.8,-2.2 -10.2,0.9 z"
     id="path13984" />
  <path
     style="stroke-width:0.1"
     d="m 566,701 c -4.3,4.3 -1.1,12 5,12 3.8,0 7,-3.2 7,-7 0,-3.8 -3.2,-7 -7,-7 -1.7,0 -3.9,0.9 -5,2 z"
     id="path13986" />
  <path
     style="stroke-width:0.1"
     d="m 688.3,702.2 c -3.5,1.7 -4.8,6 -2.9,9.6 3.5,6.8 13.6,4.1 13.6,-3.6 0,-4.7 -6.3,-8.2 -10.7,-6 z"
     id="path13988" />
  <path
     style="stroke-width:0.1"
     d="m 969.5,703.5 c -3.7,3.7 -3,9.1 1.6,11.5 5.5,3 12.3,-3.2 9.9,-9 -1.1,-2.7 -4.6,-5 -7.6,-5 -0.8,0 -2.6,1.1 -3.9,2.5 z"
     id="path13990" />
  <path
     style="stroke-width:0.1"
     d="m 126.2,703.5 c -5.9,2.5 -5.1,10.7 1.1,13 6.2,2.1 11.8,-5.2 8,-10.3 -2.6,-3.4 -5.3,-4.2 -9.1,-2.7 z"
     id="path13992" />
  <path
     style="stroke-width:0.1"
     d="m 410,702.7 c -5.3,1.9 -6.8,8.6 -2.8,12.3 6.3,5.9 15.7,-3.2 10.1,-9.8 -2,-2.3 -5,-3.3 -7.3,-2.5 z"
     id="path13994" />
  <path
     style="stroke-width:0.1"
     d="m 37.6,707.1 c -2.6,2 -3.6,6.9 -1.8,9.5 1,1.5 4.7,3.4 6.7,3.4 2.5,0 6.5,-4.6 6.5,-7.5 0,-3 -4.1,-7.5 -6.8,-7.5 -1.1,0 -3.1,0.9 -4.6,2.1 z"
     id="path13996" />
  <path
     style="stroke-width:0.1"
     d="m 887,706.3 c -8,4 -2.4,16.2 5.9,12.7 5.3,-2.2 5.9,-8.9 0.9,-12.4 -2.7,-1.9 -3.5,-2 -6.8,-0.3 z"
     id="path13998" />
  <path
     style="stroke-width:0.1"
     d="m 325,706.7 c -5.1,1.9 -6.8,8.5 -3,12.3 6.1,6.1 15.9,-3.2 10.3,-9.8 -2,-2.3 -5,-3.3 -7.3,-2.5 z"
     id="path14000" />
  <path
     style="stroke-width:0.1"
     d="m 604.3,707 c -4.6,1.9 -5.7,8.3 -2,11.8 4.7,4.4 11.7,1.3 11.7,-5.2 0,-5 -5,-8.4 -9.7,-6.6 z"
     id="path14002" />
  <path
     style="stroke-width:0.1"
     d="m 78,709.2 c -5.9,6.4 2.5,15.3 9.8,10.2 2.8,-2 3.1,-8.3 0.4,-10.7 -2.6,-2.4 -7.7,-2.1 -10.2,0.5 z"
     id="path14004" />
  <path
     style="stroke-width:0.1"
     d="m 644,710 c -2.6,2.6 -2.6,8.1 -0.2,10.3 4.4,4 12.2,0.7 12.2,-5.1 0,-6 -7.8,-9.4 -12,-5.2 z"
     id="path14006" />
  <path
     style="stroke-width:0.1"
     d="m 926.5,710.5 c -3,3 -3.1,5.4 -0.4,8.9 1.5,1.9 3,2.6 5.4,2.6 3.7,0 7.5,-3.7 7.5,-7.2 0,-2.7 -4.5,-6.8 -7.5,-6.8 -1.4,0 -3.7,1.1 -5,2.5 z"
     id="path14008" />
  <path
     style="stroke-width:0.1"
     d="m 364.6,711.1 c -5,3.9 -2.2,12.2 4.2,12.2 6.6,0 9.8,-7.8 5,-12.3 -2.8,-2.6 -5.8,-2.6 -9.2,0.1 z"
     id="path14010" />
  <path
     style="stroke-width:0.1"
     d="m 1087,735 c -4.3,4.3 -1.1,12 5,12 1.7,0 3.9,-0.9 5,-2 2.6,-2.6 2.6,-8.1 0.2,-10.3 -2.5,-2.3 -7.8,-2.1 -10.2,0.3 z"
     id="path14012" />
  <path
     style="stroke-width:0.1"
     d="m 190.6,737.1 c -1.9,1.5 -2.6,3 -2.6,5.4 0,3.6 3.6,7.5 7,7.5 3.4,0 7,-3.9 7,-7.5 0,-3.6 -3.6,-7.5 -7,-7.5 -1,0 -2.9,0.9 -4.4,2.1 z"
     id="path14014" />
  <path
     style="stroke-width:0.1"
     d="m 746.3,736.2 c -1.2,0.6 -2.7,2.3 -3.3,3.8 -2.4,5.8 4.4,12 9.9,9 4.6,-2.4 5.3,-7.8 1.6,-11.5 -2.6,-2.7 -4.7,-3 -8.2,-1.3 z"
     id="path14016" />
  <path
     style="stroke-width:0.1"
     d="m 522.2,739.7 c -0.7,0.3 -1.9,1.8 -2.8,3.5 -1.3,2.4 -1.3,3.5 -0.4,5.8 3.1,7.4 14,5.1 14,-3 0,-4.5 -6.3,-8.1 -10.8,-6.3 z"
     id="path14018" />
  <path
     style="stroke-width:0.1"
     d="m 971,748 c -6.2,6.2 2.5,15.5 9.8,10.4 2.8,-2 3.1,-8.3 0.4,-10.7 -2.5,-2.3 -7.8,-2.1 -10.2,0.3 z"
     id="path14020" />
  <path
     style="stroke-width:0.1"
     d="m 406,752 c -4.2,4.2 -0.8,12 5.3,12 5.8,0 9.1,-8.5 4.9,-12.3 -2.5,-2.3 -7.8,-2.1 -10.2,0.3 z"
     id="path14022" />
  <path
     style="stroke-width:0.1"
     d="m 302,757 c -1.1,1.1 -2,3.3 -2,5 0,1.7 0.9,3.9 2,5 1.1,1.1 3.3,2 5,2 1.7,0 3.9,-0.9 5,-2 1.1,-1.1 2,-3.3 2,-5 0,-1.7 -0.9,-3.9 -2,-5 -1.1,-1.1 -3.3,-2 -5,-2 -1.7,0 -3.9,0.9 -5,2 z"
     id="path14024" />
  <path
     style="stroke-width:0.1"
     d="m 69.2,758 c -4.8,4.5 -1.6,12.3 5,12.3 6.4,0 9.2,-8.3 4.2,-12.2 C 75,755.4 72,755.4 69.2,758 Z"
     id="path14026" />
  <path
     style="stroke-width:0.1"
     d="m 859.5,758.5 c -2.9,2.8 -3.2,6.5 -0.7,9.3 4.3,5.2 12.2,2.4 12.2,-4.4 0,-6.8 -6.8,-9.7 -11.5,-4.9 z"
     id="path14028" />
  <path
     style="stroke-width:0.1"
     d="m 638.3,762.2 c -6.8,3.3 -4,13.8 3.7,13.8 2.8,0 7,-4.4 7,-7.3 0,-5.1 -6.1,-8.8 -10.7,-6.5 z"
     id="path14030" />
  <path
     style="stroke-width:0.1"
     d="m 738,790 c -6.1,6.1 2.7,15.4 9.8,10.4 2.8,-2 3.1,-8.3 0.4,-10.7 -2.5,-2.3 -7.8,-2.1 -10.2,0.3 z"
     id="path14032" />
  <path
     style="stroke-width:0.1"
     d="m 1020.7,789.8 c -2.3,2.5 -2.1,7.8 0.3,10.2 4.3,4.3 12,1.1 12,-5 0,-1.7 -0.9,-3.9 -2,-5 -2.6,-2.6 -8.1,-2.6 -10.3,-0.2 z"
     id="path14034" />
  <path
     style="stroke-width:0.1"
     d="m 176,791 c -2.4,2.4 -2.6,6.7 -0.4,9.8 2,2.9 7.6,3 10.4,0.2 4.3,-4.3 1.1,-12 -5,-12 -1.7,0 -3.9,0.9 -5,2 z"
     id="path14036" />
  <path
     style="stroke-width:0.1"
     d="m 458.1,791.6 c -1.2,1.5 -2.1,3.4 -2.1,4.4 0,3.4 3.9,7 7.5,7 3.6,0 7.5,-3.6 7.5,-7 0,-3.4 -3.9,-7 -7.5,-7 -2.4,0 -3.9,0.7 -5.4,2.6 z"
     id="path14038" />
  <path
     style="stroke-width:0.1"
     d="m 698.6,792.1 c -1.9,1.5 -2.6,3 -2.6,5.4 0,3.6 3.6,7.5 7,7.5 3.4,0 7,-3.9 7,-7.5 0,-3.6 -3.6,-7.5 -7,-7.5 -1,0 -2.9,0.9 -4.4,2.1 z"
     id="path14040" />
  <path
     style="stroke-width:0.1"
     d="m 779.6,792.1 c -2.6,2 -3.6,6.9 -1.8,9.5 1,1.5 4.7,3.4 6.7,3.4 2.5,0 6.5,-4.6 6.5,-7.5 0,-3 -4.1,-7.5 -6.8,-7.5 -1.1,0 -3.1,0.9 -4.6,2.1 z"
     id="path14042" />
  <path
     style="stroke-width:0.1"
     d="m 982.3,791.2 c -2.8,1.4 -4.3,5.5 -3.1,8.9 0.9,2.6 4.4,4.9 7.4,4.9 2.4,0 6.4,-4.7 6.4,-7.5 0,-3 -4.1,-7.5 -6.7,-7.4 -1,0 -2.8,0.5 -4,1.1 z"
     id="path14044" />
  <path
     style="stroke-width:0.1"
     d="m 1063.3,791 c -4.7,1.9 -5.6,7.8 -1.8,11.5 4.7,4.8 11.9,1.9 11.9,-4.9 0,-2 -0.7,-4.3 -1.4,-5 -2,-2 -6,-2.7 -8.7,-1.6 z"
     id="path14046" />
  <path
     style="stroke-width:0.1"
     d="m 139,791.7 c -5.1,1.9 -6.8,8.5 -3,12.3 6.1,6.1 15.9,-3.3 10.3,-9.8 -2,-2.3 -5,-3.3 -7.3,-2.5 z"
     id="path14048" />
  <path
     style="stroke-width:0.1"
     d="m 218.3,792.2 c -1.2,0.6 -2.7,2.4 -3.4,4 -3.4,8.3 8.6,13.6 13,5.7 1.9,-3.3 0.1,-8.1 -3.5,-9.8 -2.9,-1.3 -3.2,-1.3 -6.1,0.1 z"
     id="path14050" />
  <path
     style="stroke-width:0.1"
     d="m 420.5,792.2 c -5,2.7 -5.9,7.5 -2,11.3 4.2,4.3 10.6,2.3 12,-3.6 1.2,-4.8 -5.7,-10.1 -10,-7.7 z"
     id="path14052" />
  <path
     style="stroke-width:0.1"
     d="m 501.3,792 c -4.8,1.9 -5.8,8.7 -1.7,11.9 3.4,2.7 6.4,2.7 9.2,0.1 5.7,-5.3 -0.3,-14.9 -7.5,-12 z"
     id="path14054" />
  <path
     style="stroke-width:0.1"
     d="m 822.3,799.8 c -5.1,0.8 -7,8.3 -3,12 4.8,4.5 11.7,1.4 11.7,-5.1 0,-4.8 -3.8,-7.7 -8.7,-6.9 z"
     id="path14056" />
  <path
     style="stroke-width:0.1"
     d="m 1105,799.8 c -5.1,1.6 -6.8,8.4 -3,12.2 6,6 15.4,-2.6 10.5,-9.7 -1.5,-2.1 -5,-3.3 -7.5,-2.5 z"
     id="path14058" />
  <path
     style="stroke-width:0.1"
     d="m 257.2,802.6 c -2.9,2 -3,7.6 -0.2,10.4 4.3,4.3 12,1.1 12,-5 0,-5.9 -6.7,-9 -11.8,-5.4 z"
     id="path14060" />
  <path
     style="stroke-width:0.1"
     d="m 539.1,803.6 c -1.2,1.5 -2.1,3.4 -2.1,4.4 0,3.4 3.9,7 7.5,7 3.6,0 7.5,-3.6 7.5,-7 0,-3.4 -3.9,-7 -7.5,-7 -2.4,0 -3.9,0.7 -5.4,2.6 z"
     id="path14062" />
  <path
     style="stroke-width:0.1"
     d="m 660.5,805.5 c -4.3,4.2 -2.3,10.6 3.5,12 3.8,0.9 8,-2.7 8,-6.8 0,-3.8 -0.7,-5 -3.7,-6.6 -3.3,-1.7 -5.1,-1.4 -7.8,1.4 z"
     id="path14064" />
  <path
     style="stroke-width:0.1"
     d="m 943.6,805.1 c -1.9,1.5 -2.6,3 -2.6,5.4 0,3.7 3.7,7.5 7.2,7.5 2.9,0 6.8,-4.5 6.8,-7.9 0,-3.2 -3.8,-7.1 -7,-7.1 -1,0 -2.9,0.9 -4.4,2.1 z"
     id="path14066" />
  <path
     style="stroke-width:0.1"
     d="m 98.6,806.1 c -3.6,2.8 -3.6,8 0,10.8 1.5,1.2 3.4,2.1 4.4,2.1 3.4,0 7,-3.9 7,-7.5 0,-3.6 -3.6,-7.5 -7,-7.5 -1,0 -2.9,0.9 -4.4,2.1 z"
     id="path14068" />
  <path
     style="stroke-width:0.1"
     d="m 381.8,805.5 c -5.4,3 -4.2,11.6 1.8,13.1 8.3,2.1 12.6,-9.9 4.8,-13.5 -3.1,-1.4 -3.3,-1.4 -6.6,0.4 z"
     id="path14070" />
  <path
     style="stroke-width:0.1"
     d="m 10.5,809.5 c -4,3.9 -2.9,9.7 2.2,11.6 6.2,2.3 11.9,-4 8.9,-9.9 -2.5,-4.9 -7.2,-5.6 -11.1,-1.7 z"
     id="path14072" />
  <path
     style="stroke-width:0.1"
     d="m 860.5,808.2 c -2.8,1.6 -3.5,2.8 -3.5,6.5 0,3.5 3.7,7.3 7.2,7.3 2.7,0 6.8,-4.5 6.8,-7.5 0,-3 -4.1,-7.5 -6.7,-7.5 -1,0 -2.7,0.6 -3.8,1.2 z"
     id="path14074" />
  <path
     style="stroke-width:0.1"
     d="m 297,809.3 c -5.2,2.6 -4.9,10.4 0.5,12.9 5.8,2.6 11.9,-3.3 9.5,-9.1 -0.6,-1.6 -2.3,-3.3 -3.6,-4 -3.1,-1.4 -3.3,-1.4 -6.4,0.2 z"
     id="path14076" />
  <path
     style="stroke-width:0.1"
     d="m 577.3,809.2 c -8.1,3.9 -2,16.7 6.2,13 5.5,-2.5 5.8,-10 0.5,-12.7 -3.3,-1.7 -3.7,-1.7 -6.7,-0.3 z"
     id="path14078" />
  <path
     style="stroke-width:0.1"
     d="m 51.5,811 c -2.6,2.9 -2.4,7.9 0.4,10.2 7,5.6 16.4,-3.9 10.1,-10.2 -2.6,-2.6 -8.1,-2.6 -10.5,0 z"
     id="path14080" />
  <path
     style="stroke-width:0.1"
     d="m 617.1,812.6 c -2.7,3.5 -2.7,6.5 0.2,9.2 4.8,4.5 12,1.6 12,-4.8 0,-6.7 -8.1,-9.6 -12.2,-4.4 z"
     id="path14082" />
  <path
     style="stroke-width:0.1"
     d="m 900,812 c -4.3,4.3 -1.1,12 5,12 3.8,0 7,-3.2 7,-7 0,-3.8 -3.2,-7 -7,-7 -1.7,0 -3.9,0.9 -5,2 z"
     id="path14084" />
  <path
     style="stroke-width:0.1"
     d="m 338.3,812.5 c -6.6,4.7 -0.8,15 7,12.3 5.1,-1.8 6.2,-7.4 2.2,-11.3 -2.7,-2.8 -6.1,-3.2 -9.2,-1 z"
     id="path14086" />
  <path
     style="stroke-width:0.1"
     d="m 493.5,836.5 c -1.4,1.3 -2.5,3.6 -2.5,5 0,2.8 4,7.5 6.4,7.5 2.9,0 6.4,-2.2 7.5,-4.8 1.6,-3.3 -0.1,-7.5 -3.5,-9.1 -3.7,-1.6 -5.2,-1.4 -7.9,1.4 z"
     id="path14088" />
  <path
     style="stroke-width:0.1"
     d="m 777.2,839.3 c -4.5,4.8 -1.4,11.7 5.1,11.7 4.3,0 6.7,-2.6 6.7,-7.3 0,-6.3 -7.4,-9.1 -11.8,-4.4 z"
     id="path14090" />
  <path
     style="stroke-width:0.1"
     d="m 1064,838.8 c -2.9,2.3 -3.1,7.3 -0.5,10.2 2.2,2.4 7.7,2.7 9.9,0.4 6.4,-6.4 -2.4,-16.3 -9.4,-10.6 z"
     id="path14092" />
  <path
     style="stroke-width:0.1"
     d="m 214.9,842.8 c -1.5,1.3 -2.2,3 -2.2,5.1 0,6.6 7.6,9.8 12.3,5.1 2.7,-2.7 2.5,-6.6 -0.5,-9.5 -2.9,-3 -6.4,-3.2 -9.6,-0.7 z"
     id="path14094" />
  <path
     style="stroke-width:0.1"
     d="m 360.5,865.5 c -3,3 -3.1,5.4 -0.4,8.9 2.8,3.6 8,3.6 10.8,0 1.2,-1.5 2.1,-3.4 2.1,-4.4 0,-1 -0.9,-2.9 -2.1,-4.4 -2.7,-3.4 -7.1,-3.5 -10.4,-0.1 z"
     id="path14096" />
  <path
     style="stroke-width:0.1"
     d="m 639.2,865.3 c -4.5,4.8 -1.4,11.7 5.1,11.7 4.2,0 6.7,-2.6 6.7,-6.8 0,-6.5 -7.4,-9.6 -11.8,-4.9 z"
     id="path14098" />
  <path
     style="stroke-width:0.1"
     d="m 928.2,865.3 c -4.5,4.8 -1.4,11.7 5.1,11.7 4.3,0 6.7,-2.6 6.7,-7.3 0,-6.3 -7.4,-9.1 -11.8,-4.4 z"
     id="path14100" />
  <path
     style="stroke-width:0.1"
     d="m 66,866.3 c -1.3,0.7 -3.1,2.4 -3.9,3.8 -3,5.3 3.6,11.7 9.4,9.1 5.5,-2.5 5.8,-10 0.5,-12.7 -3.5,-1.8 -2.9,-1.8 -6,-0.2 z"
     id="path14102" />
</svg>
