<?xml version="1.0" encoding="UTF-8" standalone="no"?>
<svg
   xmlns:dc="http://purl.org/dc/elements/1.1/"
   xmlns:cc="http://creativecommons.org/ns#"
   xmlns:rdf="http://www.w3.org/1999/02/22-rdf-syntax-ns#"
   xmlns:svg="http://www.w3.org/2000/svg"
   xmlns="http://www.w3.org/2000/svg"
   xmlns:sodipodi="http://sodipodi.sourceforge.net/DTD/sodipodi-0.dtd"
   xmlns:inkscape="http://www.inkscape.org/namespaces/inkscape"
   inkscape:version="1.0 (4035a4fb49, 2020-05-01)"
   sodipodi:docname="USGS_601_colour_nobox.svg"
   id="svg1731"
   preserveAspectRatio="xMidYMid meet"
   viewBox="0 0 1125.000000 900.000000"
   height="900.000000pt"
   width="1125.000000pt"
   version="1.0">
  <defs
     id="defs1735" />
  <sodipodi:namedview
     inkscape:current-layer="svg1731"
     inkscape:window-maximized="0"
     inkscape:window-y="0"
     inkscape:window-x="2128"
     inkscape:cy="600"
     inkscape:cx="750"
     inkscape:zoom="0.62866667"
     showgrid="false"
     id="namedview1733"
     inkscape:window-height="1040"
     inkscape:window-width="1527"
     inkscape:pageshadow="2"
     inkscape:pageopacity="0"
     guidetolerance="10"
     gridtolerance="10"
     objecttolerance="10"
     borderopacity="1"
     bordercolor="#666666"
     pagecolor="#ffffff" />
  <metadata
     id="metadata1285">
Created by potrace 1.13, written by Peter Selinger 2001-2015
<rdf:RDF>
  <cc:Work
     rdf:about="">
    <dc:format>image/svg+xml</dc:format>
    <dc:type
       rdf:resource="http://purl.org/dc/dcmitype/StillImage" />
    <dc:title></dc:title>
  </cc:Work>
</rdf:RDF>
</metadata>
  <path
     style="stroke-width:0.1"
     d="m 66.6,16.1 c -5,3.9 -2.2,12.2 4.2,12.2 6.6,0 9.8,-7.8 5,-12.3 C 73,13.4 70,13.4 66.6,16.1 Z"
     id="path1289" />
  <path
     style="stroke-width:0.1"
     d="m 443.7,15.1 c -2.8,1.6 -4,5.8 -2.7,9 2.4,5.7 10.3,5.8 12.9,0.2 1.6,-3.6 1.4,-5.1 -1.4,-7.8 -2.5,-2.6 -5.8,-3.1 -8.8,-1.4 z"
     id="path1291" />
  <path
     style="stroke-width:0.1"
     d="m 382.4,20.2 c -6.9,3.3 -3.7,13.8 4.2,13.8 2.4,0 6.4,-4.7 6.4,-7.5 0,-3 -4.1,-7.5 -6.7,-7.4 -1,0 -2.8,0.5 -3.9,1.1 z"
     id="path1293" />
  <path
     style="stroke-width:0.1"
     d="m 769.2,23.3 c -4.5,4.8 -1.7,11.7 4.7,11.7 4.6,0 7.1,-2.4 7.1,-6.8 0,-6.5 -7.4,-9.6 -11.8,-4.9 z"
     id="path1295" />
  <path
     style="stroke-width:0.1"
     d="m 942.7,24.8 c -2.5,2.8 -2.2,8.7 0.5,10.6 7.1,5 15.9,-4.3 9.8,-10.4 -2.6,-2.6 -8.1,-2.6 -10.3,-0.2 z"
     id="path1297" />
  <path
     style="stroke-width:0.1"
     d="m 130.7,26.2 c -3.7,3.3 -4,7.5 -0.7,10.8 2.7,2.7 6.6,2.5 9.5,-0.5 2.9,-2.8 3.2,-6.5 0.8,-9.3 -2.8,-3.3 -6.6,-3.7 -9.6,-1 z"
     id="path1299" />
  <path
     style="stroke-width:0.1"
     d="m 525.6,28.1 c -5.2,4.1 -2.3,12.2 4.4,12.2 6.7,0 9.6,-8.1 4.4,-12.2 C 532.9,26.9 531,26 530,26 c -1,0 -2.9,0.9 -4.4,2.1 z"
     id="path1301" />
  <path
     style="stroke-width:0.1"
     d="M 11.2,35.3 C 6.7,40.1 9.5,47 15.9,47 20.5,47 23,44.6 23,40.2 23,33.7 15.6,30.6 11.2,35.3 Z"
     id="path1303" />
  <path
     style="stroke-width:0.1"
     d="m 284.4,44.2 c -6.9,3.3 -3.7,13.8 4.2,13.8 2.4,0 6.4,-4.7 6.4,-7.5 0,-3 -4.1,-7.5 -6.7,-7.4 -1,0 -2.8,0.5 -3.9,1.1 z"
     id="path1305" />
  <path
     style="stroke-width:0.1"
     d="M 865.6,45.2 C 862,50.3 865.1,57 871,57 c 5.9,0 9,-6.7 5.4,-11.8 -1.1,-1.6 -2.5,-2.2 -5.4,-2.2 -2.9,0 -4.3,0.6 -5.4,2.2 z"
     id="path1307" />
  <path
     style="stroke-width:0.1"
     d="m 600.5,49 c -4.2,4.6 -1,12 5.1,12 3.7,0 7.4,-3.7 7.4,-7.5 0,-5.4 -8.8,-8.6 -12.5,-4.5 z"
     id="path1309" />
  <path
     style="stroke-width:0.1"
     d="m 1003,49 c -1.1,1.1 -2,3.3 -2,5 0,1.7 0.9,3.9 2,5 1.1,1.1 3.3,2 5,2 1.7,0 3.9,-0.9 5,-2 1.1,-1.1 2,-3.3 2,-5 0,-1.7 -0.9,-3.9 -2,-5 -1.1,-1.1 -3.3,-2 -5,-2 -1.7,0 -3.9,0.9 -5,2 z"
     id="path1311" />
  <path
     style="stroke-width:0.1"
     d="m 194,49.3 c -1.3,0.7 -3.1,2.4 -3.9,3.8 -3,5.3 3.6,11.7 9.4,9.1 5.5,-2.5 5.8,-10 0.5,-12.7 -3.5,-1.8 -2.9,-1.8 -6,-0.2 z"
     id="path1313" />
  <path
     style="stroke-width:0.1"
     d="m 1073.5,52.5 c -4,3.9 -2.9,9.7 2.2,11.6 5.8,2.2 11.6,-3.6 9.4,-9.4 -1.9,-5.1 -7.7,-6.2 -11.6,-2.2 z"
     id="path1315" />
  <path
     style="stroke-width:0.1"
     d="m 386.5,65.7 c -13.7,7.2 -16.5,25.2 -5.3,33.7 13,9.7 36.2,2.7 38.3,-11.6 1.4,-9 -5.4,-18.9 -15.2,-22.4 -5.1,-1.8 -14.1,-1.7 -17.8,0.3 z m 17.5,6.5 c 5.7,2.9 9,7.8 9,13.2 -0.1,7.6 -6.2,11.9 -17.1,12 -10.2,0 -15.3,-4.4 -15.1,-13.1 0.1,-7.7 6.9,-14.3 14.6,-14.3 2.3,0 6.1,1 8.6,2.2 z"
     id="path1317" />
  <path
     style="stroke-width:0.1"
     d="m 688.1,66.6 c -4.1,5.3 -1.3,11.4 5.2,11.4 4.2,0 7,-2.9 7,-7.2 0,-6.4 -8.3,-9.2 -12.2,-4.2 z"
     id="path1319" />
  <path
     style="stroke-width:0.1"
     d="m 85,73 c -4.3,4.3 -1.1,12 5,12 3.8,0 7,-3.2 7,-7 0,-3.8 -3.2,-7 -7,-7 -1.7,0 -3.9,0.9 -5,2 z"
     id="path1321" />
  <path
     style="stroke-width:0.1"
     d="m 336,80 c -4.3,4.3 -1.1,12 5,12 3.8,0 7,-3.2 7,-7 0,-3.8 -3.2,-7 -7,-7 -1.7,0 -3.9,0.9 -5,2 z"
     id="path1323" />
  <path
     style="stroke-width:0.1"
     d="m 961.5,87 c -4.2,4.7 -0.8,12 5.5,12 3.3,0 7,-4 7,-7.6 0,-5.7 -8.6,-8.7 -12.5,-4.4 z"
     id="path1325" />
  <path
     style="stroke-width:0.1"
     d="m 231.5,88.5 c -1.4,1.3 -2.5,3.6 -2.5,5 0,3 4.1,7.5 6.8,7.5 3.5,0 7.2,-3.8 7.2,-7.5 0,-2.4 -0.7,-3.9 -2.6,-5.4 -3.5,-2.7 -5.9,-2.6 -8.9,0.4 z"
     id="path1327" />
  <path
     style="stroke-width:0.1"
     d="m 472,90 c -4.6,4.6 -1.8,12 4.7,12 6.5,0 9.3,-6.1 5.2,-11.4 -2.5,-3.2 -7,-3.5 -9.9,-0.6 z"
     id="path1329" />
  <path
     style="stroke-width:0.1"
     d="m 757.2,90.3 c -4.5,4.8 -1.7,11.7 4.7,11.7 4.6,0 7.1,-2.4 7.1,-6.8 0,-6.5 -7.4,-9.6 -11.8,-4.9 z"
     id="path1331" />
  <path
     style="stroke-width:0.1"
     d="m 38.9,93.9 c -2.5,2.5 -3,3.7 -2.5,5.9 1.5,6 7.9,8 12.1,3.7 4.3,-4.2 2.3,-10.6 -3.7,-12.1 -2.2,-0.5 -3.4,0 -5.9,2.5 z"
     id="path1333" />
  <path
     style="stroke-width:0.1"
     d="m 159,97 c -2.4,2.4 -2.6,6.7 -0.4,9.8 2,2.9 7.6,3 10.4,0.2 4.3,-4.3 1.1,-12 -5,-12 -1.7,0 -3.9,0.9 -5,2 z"
     id="path1335" />
  <path
     style="stroke-width:0.1"
     d="m 887,102 c -2.6,2.6 -2.6,8.1 -0.2,10.3 4.4,4 12.2,0.7 12.2,-5.1 0,-6 -7.8,-9.4 -12,-5.2 z"
     id="path1337" />
  <path
     style="stroke-width:0.1"
     d="m 822.1,104.6 c -1.2,1.5 -2.1,3.4 -2.1,4.4 0,3.3 3.9,7 7.4,7 6,0 9.3,-6.6 5.6,-11.3 -2.9,-3.7 -8,-3.7 -10.9,-0.1 z"
     id="path1339" />
  <path
     style="stroke-width:0.1"
     d="m 549.6,107.1 c -3.4,2.7 -3.5,7.1 -0.1,10.4 3,3 5.4,3.1 8.9,0.4 1.9,-1.5 2.6,-3 2.6,-5.4 0,-3.6 -3.6,-7.5 -7,-7.5 -1,0 -2.9,0.9 -4.4,2.1 z"
     id="path1341" />
  <path
     style="stroke-width:0.1"
     d="m 1106.6,107.1 c -3.4,2.7 -3.5,7.1 -0.1,10.4 3,3 5.4,3.1 8.9,0.4 1.9,-1.5 2.6,-3 2.6,-5.4 0,-3.6 -3.6,-7.5 -7,-7.5 -1,0 -2.9,0.9 -4.4,2.1 z"
     id="path1343" />
  <path
     style="stroke-width:0.1"
     d="m 1037.5,114.5 c -3.9,3.8 -3.2,8.6 1.6,11 4.9,2.6 10.2,-0.9 10.2,-6.7 0,-6.2 -7.3,-8.9 -11.8,-4.3 z"
     id="path1345" />
  <path
     style="stroke-width:0.1"
     d="m 697.5,118.6 c -9.1,3.2 -15.5,11.8 -15.5,20.7 0,6.3 2,10.7 6.4,14.4 11.8,9.7 32.8,5.6 38.2,-7.4 4.1,-9.7 -0.8,-23.2 -10,-27.4 -4.9,-2.2 -13.4,-2.4 -19.1,-0.3 z m 16.4,6.2 c 4.6,2.3 7,5.8 7.7,11.3 1.2,8.9 -4.4,15.4 -14.3,16.5 -6.9,0.9 -12.5,-1 -16.2,-5.1 -10.5,-11.9 8,-30.3 22.8,-22.7 z"
     id="path1347" />
  <path
     style="stroke-width:0.1"
     d="m 951.5,118.4 c -12.1,3.8 -18.5,11.4 -18.5,21.9 0,14.4 13.6,25.9 28.8,24.4 12.5,-1.3 19.9,-10.5 19,-23.5 -0.6,-7.6 -3,-13.2 -8,-17.9 -6.2,-5.9 -13,-7.5 -21.3,-4.9 z m 13.2,6.7 c 8.4,4.1 12.5,16.1 8.5,25.2 -5.3,12 -24.7,10.9 -31.9,-1.8 -5.5,-9.7 -0.9,-19.5 10.9,-23.6 6.7,-2.3 7.3,-2.3 12.5,0.2 z"
     id="path1349" />
  <path
     style="stroke-width:0.1"
     d="m 293,121 c -2.4,2.4 -2.6,6.7 -0.4,9.8 1.1,1.6 2.5,2.2 5.4,2.2 2.9,0 4.3,-0.6 5.4,-2.2 3.6,-5.1 0.5,-11.8 -5.4,-11.8 -1.7,0 -3.9,0.9 -5,2 z"
     id="path1351" />
  <path
     style="stroke-width:0.1"
     d="m 619.1,123.6 c -2.7,3.5 -2.6,5.9 0.4,8.9 3.3,3.4 7.7,3.3 10.4,-0.1 1.2,-1.5 2.1,-3.4 2.1,-4.4 0,-3.4 -3.9,-7 -7.5,-7 -2.4,0 -3.9,0.7 -5.4,2.6 z"
     id="path1353" />
  <path
     style="stroke-width:0.1"
     d="m 109,123.3 c -5.2,2.6 -4.9,10.4 0.5,12.9 5.8,2.6 11.9,-3.3 9.5,-9.1 -0.6,-1.6 -2.3,-3.3 -3.6,-4 -3.1,-1.4 -3.3,-1.4 -6.4,0.2 z"
     id="path1355" />
  <path
     style="stroke-width:0.1"
     d="m 428.7,134.8 c -2.5,2.8 -2.2,8.7 0.5,10.6 7.1,5 15.9,-4.3 9.8,-10.4 -2.6,-2.6 -8.1,-2.6 -10.3,-0.2 z"
     id="path1357" />
  <path
     style="stroke-width:0.1"
     d="m 214,140 c -4.3,4.3 -1.1,12 5,12 3.8,0 7,-3.2 7,-7 0,-3.8 -3.2,-7 -7,-7 -1.7,0 -3.9,0.9 -5,2 z"
     id="path1359" />
  <path
     style="stroke-width:0.1"
     d="m 51.9,149 c -2.7,1.5 -4.3,6.5 -2.9,8.9 2.8,5.3 9.4,6.2 12.5,1.8 4.4,-6.2 -3.1,-14.5 -9.6,-10.7 z"
     id="path1361" />
  <path
     style="stroke-width:0.1"
     d="m 784.1,159.6 c -1.2,1.5 -2.1,3.4 -2.1,4.4 0,3.4 3.9,7 7.5,7 3.6,0 7.5,-3.6 7.5,-7 0,-3.4 -3.9,-7 -7.5,-7 -2.4,0 -3.9,0.7 -5.4,2.6 z"
     id="path1363" />
  <path
     style="stroke-width:0.1"
     d="m 340.8,159.6 c -5.1,2.7 -4.6,10.1 0.7,12.6 5.8,2.6 11.9,-3.3 9.5,-9.1 -0.6,-1.6 -2.3,-3.3 -3.6,-4 -3.1,-1.4 -3.3,-1.4 -6.6,0.5 z"
     id="path1365" />
  <path
     style="stroke-width:0.1"
     d="m 1059.9,163.8 c -2.8,2.3 -3,7.3 -0.4,10.2 2.5,2.7 7.8,2.7 10.5,-0.2 2.6,-2.8 2.6,-5.8 -0.1,-9.2 -2.5,-3.1 -6.6,-3.5 -10,-0.8 z"
     id="path1367" />
  <path
     style="stroke-width:0.1"
     d="m 191.4,165.9 c -8.6,3.9 -14.3,14.4 -13,23.8 1.4,10.4 9.1,16.7 20.6,16.6 13.7,0 22.3,-7.3 22.3,-18.8 -0.1,-6.9 -2.7,-12.8 -7.9,-17.3 -6.9,-6.2 -14.6,-7.7 -22,-4.3 z m 11.5,5.1 c 6.9,1.9 12.1,9 12.1,16.3 0,8 -5.8,12.7 -15.8,12.7 -4.5,0 -6.7,-0.5 -9.3,-2.3 -9,-6 -6.4,-21.5 4.5,-26.3 3.8,-1.6 4.2,-1.6 8.5,-0.4 z"
     id="path1369" />
  <path
     style="stroke-width:0.1"
     d="m 506.6,169.1 c -5,3.9 -2.2,12.2 4.2,12.2 4.3,0 7.2,-2.8 7.2,-7 0,-6.5 -6.1,-9.3 -11.4,-5.2 z"
     id="path1371" />
  <path
     style="stroke-width:0.1"
     d="m 870.5,169.5 c -2.8,2.7 -3,4.2 -1.4,7.9 3.2,6.9 13.9,3.8 13.9,-4 0,-2.4 -4.7,-6.4 -7.5,-6.4 -1.4,0 -3.7,1.1 -5,2.5 z"
     id="path1373" />
  <path
     style="stroke-width:0.1"
     d="m 257.6,174.1 c -3.6,2.8 -3.6,8 0,10.8 1.5,1.2 3.4,2.1 4.4,2.1 3.4,0 7,-3.9 7,-7.5 0,-3.6 -3.6,-7.5 -7,-7.5 -1,0 -2.9,0.9 -4.4,2.1 z"
     id="path1375" />
  <path
     style="stroke-width:0.1"
     d="m 580,176 c -2.4,2.4 -2.6,6.7 -0.4,9.8 1.1,1.6 2.5,2.2 5.4,2.2 2.9,0 4.3,-0.6 5.4,-2.2 3.6,-5.1 0.5,-11.8 -5.4,-11.8 -1.7,0 -3.9,0.9 -5,2 z"
     id="path1377" />
  <path
     style="stroke-width:0.1"
     d="m 1004.9,175.8 c -4.9,4 -1.7,12.2 4.8,12.2 6.5,0 9.3,-6.1 5.2,-11.4 -2.5,-3.1 -6.6,-3.5 -10,-0.8 z"
     id="path1379" />
  <path
     style="stroke-width:0.1"
     d="m 140.3,183.5 c -4.9,2.1 -5.8,7.1 -1.8,11 4.5,4.6 11.8,1.9 11.8,-4.3 0,-5.8 -4.7,-8.9 -10,-6.7 z"
     id="path1381" />
  <path
     style="stroke-width:0.1"
     d="m 654,188 c -2.6,2.6 -2.6,8.1 -0.2,10.3 2.8,2.5 8.7,2.2 10.6,-0.5 5.1,-7.3 -4.2,-16 -10.4,-9.8 z"
     id="path1383" />
  <path
     style="stroke-width:0.1"
     d="m 455.7,192.1 c -4.8,2.8 -4,10.7 1.3,12.9 2.3,0.9 3.4,0.9 5.8,-0.4 4.9,-2.5 5.6,-7.2 1.7,-11.1 -2.5,-2.6 -5.8,-3.1 -8.8,-1.4 z"
     id="path1385" />
  <path
     style="stroke-width:0.1"
     d="m 392,196 c -4.3,4.3 -1.1,12 5,12 3.8,0 7,-3.2 7,-7 0,-3.8 -3.2,-7 -7,-7 -1.7,0 -3.9,0.9 -5,2 z"
     id="path1387" />
  <path
     style="stroke-width:0.1"
     d="m 726,202 c -1.1,1.1 -2,3.3 -2,5 0,1.7 0.9,3.9 2,5 4.5,4.5 12,1.1 12,-5.3 0,-2 -0.8,-4.1 -1.8,-5 -2.5,-2.3 -7.8,-2.1 -10.2,0.3 z"
     id="path1389" />
  <path
     style="stroke-width:0.1"
     d="m 26.5,204.2 c -2.8,1.6 -3.5,2.8 -3.5,6.5 0,4.1 4.2,7.7 8,6.8 6,-1.4 8,-8.8 3.4,-12.4 -3,-2.4 -5,-2.6 -7.9,-0.9 z"
     id="path1391" />
  <path
     style="stroke-width:0.1"
     d="m 944.5,205.5 c -1.4,1.3 -2.5,3.1 -2.5,3.9 0,3 2.3,6.5 5,7.6 5.8,2.4 12,-4.4 9,-9.9 -2.4,-4.6 -7.8,-5.3 -11.5,-1.6 z"
     id="path1393" />
  <path
     style="stroke-width:0.1"
     d="m 810.5,206.5 c -3.9,3.9 -3.2,8.6 1.7,11.1 5.9,3 12.2,-2.7 9.9,-8.9 -1.9,-5.1 -7.7,-6.2 -11.6,-2.2 z"
     id="path1395" />
  <path
     style="stroke-width:0.1"
     d="m 86.7,213.8 c -2.5,2.8 -2.2,8.7 0.5,10.6 4.9,3.4 11.8,0.2 11.8,-5.5 0,-5.8 -8.5,-9.3 -12.3,-5.1 z"
     id="path1397" />
  <path
     style="stroke-width:0.1"
     d="m 542.2,220.3 c -12.2,4.5 -15.6,16.7 -7.6,27.2 5.8,7.6 18.9,10.7 27.9,6.6 14.7,-6.6 15.4,-26.7 1.1,-33.2 -4.7,-2.1 -16.1,-2.5 -21.4,-0.6 z m 18.1,6.1 c 4.5,1.9 6.8,4.8 7.4,9.5 1.4,10.5 -11.1,17.3 -22.3,12.2 -8,-3.6 -11.5,-13.4 -6.6,-18.3 4.5,-4.5 15,-6.2 21.5,-3.4 z"
     id="path1399" />
  <path
     style="stroke-width:0.1"
     d="m 290.7,223.1 c -2.8,1.6 -4,5.8 -2.6,9 2.1,5.3 10.4,5.5 12.8,0.3 1.6,-3.7 1.4,-5.2 -1.4,-7.9 -2.5,-2.6 -5.8,-3.1 -8.8,-1.4 z"
     id="path1401" />
  <path
     style="stroke-width:0.1"
     d="m 1049.1,226.6 c -1.2,1.5 -2.1,3.4 -2.1,4.4 0,1 0.9,2.9 2.1,4.4 4.1,5.2 12.2,2.3 12.2,-4.4 0,-6.7 -8.1,-9.6 -12.2,-4.4 z"
     id="path1403" />
  <path
     style="stroke-width:0.1"
     d="m 985.7,244.8 c -2.5,2.8 -2.2,8.7 0.5,10.6 7.1,5 15.9,-4.3 9.8,-10.4 -2.6,-2.6 -8.1,-2.6 -10.3,-0.2 z"
     id="path1405" />
  <path
     style="stroke-width:0.1"
     d="m 428.1,248.6 c -1.2,1.5 -2.1,3.4 -2.1,4.4 0,3.4 3.9,7 7.5,7 3.6,0 7.5,-3.6 7.5,-7 0,-3.4 -3.9,-7 -7.5,-7 -2.4,0 -3.9,0.7 -5.4,2.6 z"
     id="path1407" />
  <path
     style="stroke-width:0.1"
     d="m 676.5,248.5 c -2.8,2.7 -3.2,6.1 -1,9.2 4.9,7 16,0 12,-7.6 -2.4,-4.8 -7.2,-5.5 -11,-1.6 z"
     id="path1409" />
  <path
     style="stroke-width:0.1"
     d="m 215.5,252 c -4.1,4.5 -0.9,12 5.2,12 3.1,0 7.3,-4.2 7.3,-7.5 0,-5.7 -8.6,-8.9 -12.5,-4.5 z"
     id="path1411" />
  <path
     style="stroke-width:0.1"
     d="m 350.5,253.5 c -4.8,4.7 -1.9,11.5 4.9,11.5 6.8,0 9.6,-7.9 4.4,-12.3 -2.8,-2.4 -6.5,-2.1 -9.3,0.8 z"
     id="path1413" />
  <path
     style="stroke-width:0.1"
     d="m 602.5,253.5 c -1.4,1.3 -2.5,3.6 -2.5,5 0,2.8 4,7.5 6.4,7.5 2.9,0 6.4,-2.2 7.5,-4.8 1.6,-3.3 -0.1,-7.5 -3.5,-9.1 -3.7,-1.6 -5.2,-1.4 -7.9,1.4 z"
     id="path1415" />
  <path
     style="stroke-width:0.1"
     d="m 148.9,258.9 c -2.5,2.5 -3,3.7 -2.5,5.9 1.5,6 7.9,8 12.1,3.7 4.3,-4.2 2.3,-10.6 -3.7,-12.1 -2.2,-0.5 -3.4,0 -5.9,2.5 z"
     id="path1417" />
  <path
     style="stroke-width:0.1"
     d="m 765.5,264 c -4.2,4.7 -0.8,12 5.5,12 3.3,0 7,-4 7,-7.6 0,-5.7 -8.6,-8.7 -12.5,-4.4 z"
     id="path1419" />
  <path
     style="stroke-width:0.1"
     d="m 859,264.1 c -8.5,3.9 -13,10.3 -13,18.8 0,6.3 1.3,9.7 5.3,13.9 6.1,6.4 14.6,9 23.3,7.2 10,-2.1 16.2,-9 17.2,-19.1 0.8,-8.6 -3.9,-16.9 -11.9,-21 -5.2,-2.6 -14.9,-2.5 -20.9,0.2 z m 19,5.9 c 10.5,5.4 10.3,21.3 -0.4,26.4 -11.3,5.3 -25.6,-2.2 -25.6,-13.5 0,-10.9 15.2,-18.4 26,-12.9 z"
     id="path1421" />
  <path
     style="stroke-width:0.1"
     d="m 28.5,267.5 c -3,2.9 -3.2,6.8 -0.5,9.5 4.7,4.7 12.3,1.5 12.3,-5.1 0,-6.3 -7.2,-9 -11.8,-4.4 z"
     id="path1423" />
  <path
     style="stroke-width:0.1"
     d="m 487.3,269.2 c -1.2,0.6 -2.7,2.4 -3.4,4 -3.4,8.3 8.6,13.6 13,5.7 1.9,-3.3 0.1,-8.1 -3.5,-9.8 -2.9,-1.3 -3.2,-1.3 -6.1,0.1 z"
     id="path1425" />
  <path
     style="stroke-width:0.1"
     d="m 929,274 c -4.5,4.5 -1.1,12 5.4,12 2.5,0 3.9,-0.7 5,-2.2 3.6,-5.1 0.5,-11.8 -5.4,-11.8 -1.7,0 -3.9,0.9 -5,2 z"
     id="path1427" />
  <path
     style="stroke-width:0.1"
     d="m 85.2,279.3 c -4.3,4.6 -1.5,12 4.6,12 4.3,0 7.2,-2.8 7.2,-6.9 0,-6.6 -7.4,-9.8 -11.8,-5.1 z"
     id="path1429" />
  <path
     style="stroke-width:0.1"
     d="m 276,279 c -2.6,2.6 -2.6,8.1 0,10.5 2.9,2.6 7.9,2.4 10.2,-0.4 2.7,-3.4 2.3,-7.5 -0.8,-10 -3.4,-2.6 -6.8,-2.7 -9.4,-0.1 z"
     id="path1431" />
  <path
     style="stroke-width:0.1"
     d="m 1044,281 c -4.2,4.2 -1,12 4.8,12 4.6,0 7.2,-2.6 7.2,-7 0,-2.9 -0.6,-4.3 -2.2,-5.4 -3.1,-2.2 -7.4,-2 -9.8,0.4 z"
     id="path1433" />
  <path
     style="stroke-width:0.1"
     d="m 376.2,286.9 c -6.3,2.2 -9.8,5.2 -12.3,10.6 -3.9,8.4 -1.1,18.2 6.9,24.2 5.5,4.2 10.9,5.7 20.2,5.7 13.7,0.1 20.6,-6.2 19.7,-17.9 -0.5,-7 -2.3,-10.9 -7.5,-16.7 -6.9,-7.6 -16.2,-9.7 -27,-5.9 z m 16.1,5.4 c 4.4,1.9 10.3,8.7 11.8,13.5 3,10.2 -1.6,15.2 -14.1,15.2 -8.8,0 -14.2,-2.1 -18.3,-6.9 -6.8,-8.1 -2.5,-19.5 8.4,-22.1 5.2,-1.2 8.7,-1.1 12.2,0.3 z"
     id="path1435" />
  <path
     style="stroke-width:0.1"
     d="m 702.6,303.1 c -5,3.9 -2.2,12.2 4.2,12.2 6.7,0 9.7,-7.6 4.9,-12.1 -2.9,-2.8 -5.7,-2.8 -9.1,-0.1 z"
     id="path1437" />
  <path
     style="stroke-width:0.1"
     d="m 1106.6,303.1 c -5,3.9 -2.2,12.2 4.2,12.2 6.6,0 9.8,-7.8 5,-12.3 -2.8,-2.6 -5.8,-2.6 -9.2,0.1 z"
     id="path1439" />
  <path
     style="stroke-width:0.1"
     d="m 203,307.7 c -5.5,7 4.2,15.1 10.5,8.8 4.8,-4.7 1.9,-11.5 -4.9,-11.5 -2.6,0 -4,0.7 -5.6,2.7 z"
     id="path1441" />
  <path
     style="stroke-width:0.1"
     d="m 544.6,308.1 c -1.9,1.5 -2.6,3 -2.6,5.4 0,3.6 3.6,7.5 7,7.5 3.4,0 7,-3.9 7,-7.5 0,-3.6 -3.6,-7.5 -7,-7.5 -1,0 -2.9,0.9 -4.4,2.1 z"
     id="path1443" />
  <path
     style="stroke-width:0.1"
     d="m 430.5,310.5 c -3,3 -3.1,5.4 -0.4,8.9 1.5,1.9 3,2.6 5.4,2.6 3.7,0 7.5,-3.7 7.5,-7.2 0,-2.7 -4.5,-6.8 -7.5,-6.8 -1.4,0 -3.7,1.1 -5,2.5 z"
     id="path1445" />
  <path
     style="stroke-width:0.1"
     d="m 635,312.3 c -5.2,2.6 -4.9,10.4 0.4,12.8 8.1,3.7 13.8,-7.3 6.4,-12.5 -2.7,-1.9 -3.5,-2 -6.8,-0.3 z"
     id="path1447" />
  <path
     style="stroke-width:0.1"
     d="m 993.7,314.1 c -4.8,2.8 -4,10.7 1.2,12.9 7.5,3.1 13.4,-5.8 7.6,-11.5 -2.5,-2.6 -5.8,-3.1 -8.8,-1.4 z"
     id="path1449" />
  <path
     style="stroke-width:0.1"
     d="m 145.2,322.3 c -4.3,4.6 -1.6,11.7 4.6,11.9 4.3,0.1 7.2,-2.6 7.2,-6.9 0,-6.6 -7.4,-9.7 -11.8,-5 z"
     id="path1451" />
  <path
     style="stroke-width:0.1"
     d="m 819,324 c -1.1,1.1 -2,3.3 -2,5 0,1.7 0.9,3.9 2,5 1.1,1.1 3.3,2 5,2 1.7,0 3.9,-0.9 5,-2 1.1,-1.1 2,-3.3 2,-5 0,-1.7 -0.9,-3.9 -2,-5 -1.1,-1.1 -3.3,-2 -5,-2 -1.7,0 -3.9,0.9 -5,2 z"
     id="path1453" />
  <path
     style="stroke-width:0.1"
     d="m 334.3,324.2 c -1.2,0.6 -2.7,2.4 -3.4,4 -3.4,8.3 8.6,13.6 13,5.7 1.9,-3.3 0.1,-8.1 -3.5,-9.8 -2.9,-1.3 -3.2,-1.3 -6.1,0.1 z"
     id="path1455" />
  <path
     style="stroke-width:0.1"
     d="m 57.1,331.6 c -1.2,1.5 -2.1,3.5 -2.1,4.6 0,2.7 4.5,6.8 7.5,6.8 3,0 7.5,-4.1 7.5,-6.8 0,-3.5 -3.8,-7.2 -7.5,-7.2 -2.4,0 -3.9,0.7 -5.4,2.6 z"
     id="path1457" />
  <path
     style="stroke-width:0.1"
     d="m 272,335.7 c -5.3,1.9 -6.8,8.6 -2.8,12.3 6.3,5.9 15.7,-3.2 10.1,-9.8 -2,-2.3 -5,-3.3 -7.3,-2.5 z"
     id="path1459" />
  <path
     style="stroke-width:0.1"
     d="m 1061.1,341.6 c -2.4,3 -2.6,4.6 -1,7.7 1.6,3 2.8,3.7 6.6,3.7 4.1,0 7.7,-4.2 6.8,-8 -1.4,-6 -8.8,-8 -12.4,-3.4 z"
     id="path1461" />
  <path
     style="stroke-width:0.1"
     d="m 508.2,347.6 c -1.6,1.1 -2.2,2.5 -2.2,5.4 0,2.9 0.6,4.3 2.2,5.4 5.1,3.6 11.8,0.5 11.8,-5.4 0,-5.9 -6.7,-9 -11.8,-5.4 z"
     id="path1463" />
  <path
     style="stroke-width:0.1"
     d="m 934.5,351.5 c -1.4,1.3 -2.5,3.6 -2.5,5 0,3 4.1,7.5 6.8,7.5 3.5,0 7.2,-3.8 7.2,-7.3 0,-3.8 -0.7,-5 -3.7,-6.6 -3.3,-1.7 -5.1,-1.4 -7.8,1.4 z"
     id="path1465" />
  <path
     style="stroke-width:0.1"
     d="m 769,355.3 c -5.2,2.6 -4.9,10.4 0.5,12.9 5.8,2.6 11.9,-3.3 9.5,-9.1 -0.6,-1.6 -2.3,-3.3 -3.6,-4 -3.1,-1.4 -3.3,-1.4 -6.4,0.2 z"
     id="path1467" />
  <path
     style="stroke-width:0.1"
     d="m 222.1,362.6 c -1.2,1.5 -2.1,3.5 -2.1,4.6 0,2.7 4.5,6.8 7.5,6.8 2.9,0 7.5,-4 7.5,-6.5 0,-2 -1.9,-5.7 -3.4,-6.7 -2.6,-1.8 -7.5,-0.8 -9.5,1.8 z"
     id="path1469" />
  <path
     style="stroke-width:0.1"
     d="m 579.6,362.2 c -5.1,7.3 4.2,16 10.4,9.8 2.6,-2.6 2.6,-8.1 0.2,-10.3 -2.8,-2.5 -8.7,-2.2 -10.6,0.5 z"
     id="path1471" />
  <path
     style="stroke-width:0.1"
     d="m 99.7,368 c -2,1.6 -2.7,3 -2.7,5.6 0,6.8 6.8,9.7 11.5,4.9 6.3,-6.3 -1.8,-16 -8.8,-10.5 z"
     id="path1473" />
  <path
     style="stroke-width:0.1"
     d="m 184.8,368.4 c -10.1,2.7 -16,8.9 -16,17 0.1,7.6 4,13.6 11.8,18.2 5.3,3.1 15.2,4.3 20.8,2.4 11.2,-3.7 16.7,-16.6 11.7,-27.6 -4.3,-9.5 -15.6,-13.4 -28.3,-10 z m 18.2,7.4 c 5.8,4.2 7.4,12.9 3.6,18.7 -5.6,8.5 -18.9,8.5 -27.3,0 -3.6,-3.5 -4.3,-4.9 -4.3,-8.1 0,-2.2 0.7,-5 1.6,-6.2 4.5,-6.4 20,-9 26.4,-4.4 z"
     id="path1475" />
  <path
     style="stroke-width:0.1"
     d="m 649.2,371.6 c -2.8,2 -3.1,8.3 -0.4,10.7 2.5,2.3 7.8,2.1 10.2,-0.3 6.1,-6.1 -2.7,-15.4 -9.8,-10.4 z"
     id="path1477" />
  <path
     style="stroke-width:0.1"
     d="m 992,374.7 c -5.5,7 4.2,15.1 10.5,8.8 4.8,-4.7 1.9,-11.5 -4.9,-11.5 -2.6,0 -4,0.7 -5.6,2.7 z"
     id="path1479" />
  <path
     style="stroke-width:0.1"
     d="m 396.5,375.5 c -3.4,3.3 -3.3,7.7 0.1,10.4 1.5,1.2 3.4,2.1 4.4,2.1 1,0 2.9,-0.9 4.4,-2.1 3.6,-2.8 3.6,-8 0,-10.8 -3.5,-2.7 -5.9,-2.6 -8.9,0.4 z"
     id="path1481" />
  <path
     style="stroke-width:0.1"
     d="m 317,386.3 c -5.2,2.6 -4.9,10.4 0.4,12.8 3.6,1.7 7.3,0.3 9.2,-3.2 1.9,-3.8 0.6,-8 -3.2,-9.8 -3.1,-1.4 -3.3,-1.4 -6.4,0.2 z"
     id="path1483" />
  <path
     style="stroke-width:0.1"
     d="m 865.3,386.2 c -6.8,3.3 -3.9,13.8 3.8,13.8 2.8,0 6.9,-4.4 6.9,-7.3 0,-5.1 -6.1,-8.8 -10.7,-6.5 z"
     id="path1485" />
  <path
     style="stroke-width:0.1"
     d="m 762.5,389 c -8.2,3.9 -11.5,8.8 -11.5,17 0.1,9.4 5.7,17.9 14.2,21.4 5.8,2.4 15.6,2.1 20.9,-0.7 14.6,-7.7 13,-30.6 -2.6,-37.8 -5.5,-2.5 -15.7,-2.5 -21,0.1 z m 19.6,6.3 c 5.1,3.4 7.9,8.2 7.9,13.6 0,8.4 -6,14.1 -14.8,14.1 -12.9,0 -22,-12.7 -16.6,-23.1 3.3,-6.5 16.8,-9.1 23.5,-4.6 z"
     id="path1487" />
  <path
     style="stroke-width:0.1"
     d="m 461.1,391.6 c -1.2,1.5 -2.1,3.4 -2.1,4.4 0,3.4 3.9,7 7.5,7 3.6,0 7.5,-3.6 7.5,-7 0,-3.4 -3.9,-7 -7.5,-7 -2.4,0 -3.9,0.7 -5.4,2.6 z"
     id="path1489" />
  <path
     style="stroke-width:0.1"
     d="m 1051.5,399.5 c -3.4,3.3 -3.3,7.7 0.1,10.4 1.5,1.2 3.4,2.1 4.4,2.1 3.4,0 7,-3.9 7,-7.5 0,-2.4 -0.7,-3.9 -2.6,-5.4 -3.5,-2.7 -5.9,-2.6 -8.9,0.4 z"
     id="path1491" />
  <path
     style="stroke-width:0.1"
     d="m 707.9,403.2 c -1.6,0.5 -3.2,2.2 -3.9,3.9 -3.5,8.4 8.4,13.7 12.9,5.8 3.1,-5.5 -2.8,-11.8 -9,-9.7 z"
     id="path1493" />
  <path
     style="stroke-width:0.1"
     d="m 542.3,410.2 c -1.2,0.6 -2.7,2.4 -3.4,4 -3.4,8.3 8.6,13.6 13,5.7 1.9,-3.3 0.1,-8.1 -3.5,-9.8 -2.9,-1.3 -3.2,-1.3 -6.1,0.1 z"
     id="path1495" />
  <path
     style="stroke-width:0.1"
     d="m 59.5,413.5 c -2.8,2.7 -3.2,6.1 -1,9.2 4.7,6.6 15,0.8 12.3,-7 -1.8,-5.1 -7.4,-6.2 -11.3,-2.2 z"
     id="path1497" />
  <path
     style="stroke-width:0.1"
     d="m 971,413.9 c -11.1,3.4 -18.2,12.8 -18.2,24.1 0,12.7 7.7,20.7 20.9,21.8 7.8,0.6 14.5,-1 20.4,-5 6.7,-4.5 9.2,-8.8 9.7,-16.2 0.7,-11.2 -5.9,-21.5 -15.7,-24.4 -4.3,-1.3 -13.2,-1.4 -17.1,-0.3 z m 17.5,7.4 c 10.1,5.7 12.5,18.6 4.9,26.2 -9.2,9.2 -28.8,7.9 -33,-2.1 -1.7,-4 -1.8,-10.2 -0.3,-14.1 3.8,-10.3 18.7,-15.5 28.4,-10 z"
     id="path1499" />
  <path
     style="stroke-width:0.1"
     d="m 251.5,422 c -2.5,2.7 -2.2,8 0.6,10.2 6.8,5.6 16.1,-4 9.9,-10.2 -2.6,-2.6 -8.1,-2.6 -10.5,0 z"
     id="path1501" />
  <path
     style="stroke-width:0.1"
     d="m 929.3,422 c -4.7,1.9 -5.6,7.8 -1.8,11.5 4.2,4.3 10.6,2.3 12.1,-3.7 0.5,-2.2 0,-3.3 -2.4,-5.8 -3.2,-3.1 -4.3,-3.4 -7.9,-2 z"
     id="path1503" />
  <path
     style="stroke-width:0.1"
     d="m 563.4,427.3 c -14.3,6.8 -17.8,23.8 -7.3,35.2 8.3,9 22,10 31.5,2.2 10.7,-8.9 9.5,-27.9 -2.4,-36.1 -6,-4.2 -14.6,-4.7 -21.8,-1.3 z m 16.6,5.5 c 9.7,4.8 11.9,18.6 4.2,26.3 -11.2,11.1 -30.5,0.8 -27.6,-14.7 0.8,-4.6 4.8,-9.2 9.9,-11.5 5.1,-2.3 9.1,-2.4 13.5,-0.1 z"
     id="path1505" />
  <path
     style="stroke-width:0.1"
     d="m 801.5,429 c -2.5,2.7 -2.2,8 0.6,10.2 6.8,5.6 16.1,-4 9.9,-10.2 -2.6,-2.6 -8.1,-2.6 -10.5,0 z"
     id="path1507" />
  <path
     style="stroke-width:0.1"
     d="m 135.6,430.1 c -1.9,1.5 -2.6,3 -2.6,5.4 0,3.6 3.6,7.5 7,7.5 1,0 2.9,-0.9 4.4,-2.1 3.4,-2.7 3.5,-7.1 0.1,-10.4 -3,-3 -5.4,-3.1 -8.9,-0.4 z"
     id="path1509" />
  <path
     style="stroke-width:0.1"
     d="m 413.5,437.5 c -1.4,1.3 -2.5,3.5 -2.5,4.7 0,5.6 6.1,9.3 10.6,6.3 3.7,-2.4 4.8,-5.2 3.3,-8.6 -2.2,-5.4 -7.4,-6.5 -11.4,-2.4 z"
     id="path1511" />
  <path
     style="stroke-width:0.1"
     d="m 339.6,440.6 c -4.3,4.3 -1.9,11.6 4.1,12.2 6.2,0.6 10.1,-6.2 6.3,-11.1 -2.5,-3.1 -7.8,-3.7 -10.4,-1.1 z"
     id="path1513" />
  <path
     style="stroke-width:0.1"
     d="m 635.2,444.3 c -4.3,4.6 -1.5,12 4.6,12 4.3,0 7.2,-2.8 7.2,-6.9 0,-6.6 -7.4,-9.8 -11.8,-5.1 z"
     id="path1515" />
  <path
     style="stroke-width:0.1"
     d="m 205,453.2 c -2.6,2.8 -2.6,5.8 0.1,9.2 3.9,5 12.2,2.2 12.2,-4.2 0,-6.6 -7.8,-9.8 -12.3,-5 z"
     id="path1517" />
  <path
     style="stroke-width:0.1"
     d="m 471.5,465 c -2.5,2.7 -2.2,8 0.6,10.2 6.8,5.6 16.1,-4 9.9,-10.2 -2.6,-2.6 -8.1,-2.6 -10.5,0 z"
     id="path1519" />
  <path
     style="stroke-width:0.1"
     d="m 1020.6,468.1 c -5,3.9 -2.2,12.2 4.2,12.2 6.6,0 9.8,-7.8 5,-12.3 -2.8,-2.6 -5.8,-2.6 -9.2,0.1 z"
     id="path1521" />
  <path
     style="stroke-width:0.1"
     d="m 1085.1,470.6 c -1.2,1.5 -2.1,3.4 -2.1,4.4 0,3.4 3.9,7 7.5,7 3.6,0 7.5,-3.6 7.5,-7 0,-3.4 -3.9,-7 -7.5,-7 -2.4,0 -3.9,0.7 -5.4,2.6 z"
     id="path1523" />
  <path
     style="stroke-width:0.1"
     d="m 286.5,473.5 c -1.4,1.3 -2.5,3.6 -2.5,5 0,3 4.1,7.5 6.8,7.5 1.1,0 3.1,-0.9 4.6,-2.1 3.6,-2.8 3.6,-8 0,-10.8 -3.5,-2.7 -5.9,-2.6 -8.9,0.4 z"
     id="path1525" />
  <path
     style="stroke-width:0.1"
     d="m 736.6,473.3 c -1.5,1.5 -2.6,3.8 -2.6,5.2 0,1.4 1.1,3.7 2.6,5.2 2,2 3.1,2.4 5.7,1.9 4.3,-0.9 6.1,-2.9 6.1,-7.1 0,-4.2 -1.8,-6.2 -6.1,-7.1 -2.6,-0.5 -3.7,-0.1 -5.7,1.9 z"
     id="path1527" />
  <path
     style="stroke-width:0.1"
     d="m 384.7,474.1 c -11.3,2.7 -17.7,10.8 -17.7,22.4 0,7 1.7,11.2 6.3,15.2 9.8,8.6 26.9,6 34.4,-5 5.3,-7.9 5.3,-16.9 0.1,-24.7 -4.2,-6.2 -15,-9.9 -23.1,-7.9 z m 14,7.9 c 5.4,3.2 7.9,10 6.2,16.4 -3.2,11.7 -20.1,16.3 -28.3,7.7 -3,-3.1 -4.4,-9.6 -3.2,-14.5 0.9,-3.4 5.4,-8.6 9.1,-10.2 4.6,-2 12.4,-1.7 16.2,0.6 z"
     id="path1529" />
  <path
     style="stroke-width:0.1"
     d="m 877.1,477.6 c -1.2,1.5 -2.1,3.4 -2.1,4.4 0,3.3 3.9,7 7.4,7 6,0 9.3,-6.6 5.6,-11.3 -2.9,-3.7 -8,-3.7 -10.9,-0.1 z"
     id="path1531" />
  <path
     style="stroke-width:0.1"
     d="m 39,477.1 c -11.8,2.3 -19.1,9.6 -19.8,19.7 -0.9,13.1 9.8,23.4 24.3,23.4 15.2,0 24.5,-7.8 24.5,-20.4 C 67.9,485 54.1,474.2 39,477.1 Z m 12.8,7.3 c 9.1,4.8 12.8,15.4 7.9,22.7 -6.7,10.1 -26.3,9.1 -32.4,-1.7 -5,-8.7 -1.2,-17.5 9.2,-21.2 4.3,-1.5 12.2,-1.4 15.3,0.2 z"
     id="path1533" />
  <path
     style="stroke-width:0.1"
     d="m 95,476.7 c -5.3,1.9 -6.8,8.6 -2.8,12.3 6.3,5.8 15.7,-3.3 10.1,-9.8 -2,-2.3 -5,-3.3 -7.3,-2.5 z"
     id="path1535" />
  <path
     style="stroke-width:0.1"
     d="m 164.6,492.1 c -3.4,2.7 -3.5,7.1 -0.1,10.4 3,3 5.4,3.1 8.9,0.4 1.9,-1.5 2.6,-3 2.6,-5.4 0,-3.6 -3.6,-7.5 -7,-7.5 -1,0 -2.9,0.9 -4.4,2.1 z"
     id="path1537" />
  <path
     style="stroke-width:0.1"
     d="m 826.3,491.5 c -4.9,2.1 -5.8,7.1 -1.8,11 4.5,4.6 11.8,1.9 11.8,-4.3 0,-5.8 -4.7,-8.9 -10,-6.7 z"
     id="path1539" />
  <path
     style="stroke-width:0.1"
     d="m 936.6,492.1 c -1.9,1.5 -2.6,3 -2.6,5.4 0,3.6 3.6,7.5 7,7.5 3.4,0 7,-3.9 7,-7.5 0,-3.6 -3.6,-7.5 -7,-7.5 -1,0 -2.9,0.9 -4.4,2.1 z"
     id="path1541" />
  <path
     style="stroke-width:0.1"
     d="m 574.5,501.5 c -5.7,5.7 0.1,14.6 7.6,11.5 5.6,-2.4 5.9,-10.3 0.3,-12.9 -3.7,-1.6 -5.2,-1.4 -7.9,1.4 z"
     id="path1543" />
  <path
     style="stroke-width:0.1"
     d="m 664.5,504.5 c -2.8,2.7 -3.2,6.1 -1,9.2 4.6,6.6 15,0.8 12.3,-6.8 -0.9,-2.6 -4.4,-4.9 -7.4,-4.9 -0.8,0 -2.6,1.1 -3.9,2.5 z"
     id="path1545" />
  <path
     style="stroke-width:0.1"
     d="m 512.2,508 c -3.2,3 -3,8.2 0.5,11 7,5.5 15.1,-4.2 8.8,-10.5 -2.9,-3 -6.4,-3.2 -9.3,-0.5 z"
     id="path1547" />
  <path
     style="stroke-width:0.1"
     d="m 239.9,512.8 c -4.8,4 -1.7,12.2 4.7,12.2 6.6,0 9.8,-7.4 5.1,-11.8 -2.8,-2.7 -6.7,-2.8 -9.8,-0.4 z"
     id="path1549" />
  <path
     style="stroke-width:0.1"
     d="m 1005.8,521 c -3.5,2.7 -4.2,5.3 -2.4,8.8 2.5,4.9 7.3,5.6 11.1,1.7 2.9,-2.8 3.2,-6.5 0.8,-9.3 -2.7,-3.2 -6.4,-3.7 -9.5,-1.2 z"
     id="path1551" />
  <path
     style="stroke-width:0.1"
     d="m 770.7,531.8 c -2.5,2.8 -2.2,8.7 0.5,10.6 7.1,5 15.9,-4.3 9.8,-10.4 -2.6,-2.6 -8.1,-2.6 -10.3,-0.2 z"
     id="path1553" />
  <path
     style="stroke-width:0.1"
     d="m 439.6,535.1 c -4.6,3.6 -2.6,11 3.4,12.4 3.9,0.9 8,-2.7 8,-7 0,-3.6 -3.6,-7.5 -7,-7.5 -1,0 -2.9,0.9 -4.4,2.1 z"
     id="path1555" />
  <path
     style="stroke-width:0.1"
     d="m 713.2,536.3 c -4.5,4.8 -1.4,11.7 5.1,11.7 4.2,0 6.7,-2.6 6.7,-6.8 0,-6.5 -7.4,-9.6 -11.8,-4.9 z"
     id="path1557" />
  <path
     style="stroke-width:0.1"
     d="m 1071.5,539 c -4.2,4.7 -0.8,12 5.5,12 3.3,0 7,-4 7,-7.6 0,-5.7 -8.6,-8.7 -12.5,-4.4 z"
     id="path1559" />
  <path
     style="stroke-width:0.1"
     d="m 40.5,540.5 c -1.4,1.3 -2.5,3.6 -2.5,5 0,2.8 4,7.5 6.4,7.5 2.9,0 6.4,-2.2 7.5,-4.8 1.6,-3.3 -0.1,-7.5 -3.5,-9.1 -3.7,-1.6 -5.2,-1.4 -7.9,1.4 z"
     id="path1561" />
  <path
     style="stroke-width:0.1"
     d="m 322.5,540.5 c -1.4,1.3 -2.5,3.6 -2.5,5 0,2.9 4,7.5 6.5,7.5 2,0 5.7,-1.9 6.7,-3.4 1.8,-2.6 0.8,-7.5 -1.8,-9.5 -3.5,-2.7 -5.9,-2.6 -8.9,0.4 z"
     id="path1563" />
  <path
     style="stroke-width:0.1"
     d="m 199.1,543.6 c -2.7,3.4 -2.7,6.4 -0.1,9.2 4.5,4.8 12.3,1.6 12.3,-5 0,-6.4 -8.3,-9.2 -12.2,-4.2 z"
     id="path1565" />
  <path
     style="stroke-width:0.1"
     d="m 560.1,543.6 c -1.2,1.5 -2.1,3.4 -2.1,4.4 0,3.4 3.9,7 7.5,7 2.4,0 3.9,-0.7 5.4,-2.6 2.7,-3.5 2.6,-5.9 -0.4,-8.9 -3.3,-3.4 -7.7,-3.3 -10.4,0.1 z"
     id="path1567" />
  <path
     style="stroke-width:0.1"
     d="m 133,544 c -4.2,4.2 -1.2,12 4.8,12 4.6,0 7.2,-2.5 7.2,-7 0,-2.9 -0.6,-4.3 -2.2,-5.4 -3.1,-2.2 -7.4,-2 -9.8,0.4 z"
     id="path1569" />
  <path
     style="stroke-width:0.1"
     d="m 948,544 c -4.3,4.3 -1.1,12 5,12 3.8,0 7,-3.2 7,-7 0,-3.8 -3.2,-7 -7,-7 -1.7,0 -3.9,0.9 -5,2 z"
     id="path1571" />
  <path
     style="stroke-width:0.1"
     d="m 877.1,549.6 c -2.4,3 -2.6,4.6 -1,7.7 1.6,3 2.8,3.7 6.6,3.7 4.1,0 7.7,-4.2 6.8,-8 -1.4,-6 -8.8,-8 -12.4,-3.4 z"
     id="path1573" />
  <path
     style="stroke-width:0.1"
     d="m 616,550 c -4.3,4.3 -1.1,12 5,12 3.8,0 7,-3.2 7,-7 0,-3.8 -3.2,-7 -7,-7 -1.7,0 -3.9,0.9 -5,2 z"
     id="path1575" />
  <path
     style="stroke-width:0.1"
     d="m 1028.5,580.5 c -5.8,5.7 0.1,14.6 7.6,11.5 7.7,-3.2 4.7,-13.9 -3.9,-14 -0.7,0 -2.4,1.1 -3.7,2.5 z"
     id="path1577" />
  <path
     style="stroke-width:0.1"
     d="m 43,584 c -4.3,4.3 -1.1,12 5,12 3.8,0 7,-3.2 7,-7 0,-3.8 -3.2,-7 -7,-7 -1.7,0 -3.9,0.9 -5,2 z"
     id="path1579" />
  <path
     style="stroke-width:0.1"
     d="m 941.1,584.6 c -1.2,1.5 -2.1,3.4 -2.1,4.4 0,3.4 3.9,7 7.5,7 3.6,0 7.5,-3.6 7.5,-7 0,-3.4 -3.9,-7 -7.5,-7 -2.4,0 -3.9,0.7 -5.4,2.6 z"
     id="path1581" />
  <path
     style="stroke-width:0.1"
     d="m 255,588 c -2.6,2.6 -2.5,6 0.1,9.4 2.5,3.1 6.6,3.5 10,0.8 2.8,-2.3 3,-7.3 0.4,-10.2 -2.4,-2.6 -7.9,-2.6 -10.5,0 z"
     id="path1583" />
  <path
     style="stroke-width:0.1"
     d="m 501,586.7 c -5.3,1.9 -6.8,8.6 -2.8,12.3 6.3,5.9 15.7,-3.2 10.1,-9.8 -2,-2.3 -5,-3.3 -7.3,-2.5 z"
     id="path1585" />
  <path
     style="stroke-width:0.1"
     d="m 1102.7,587.8 c -4,4.4 -0.7,12.2 5.1,12.2 5.9,0 9.2,-6.7 5.6,-11.8 -2,-2.8 -8.3,-3.1 -10.7,-0.4 z"
     id="path1587" />
  <path
     style="stroke-width:0.1"
     d="m 203.2,592.1 c -5.3,1.6 -11.7,8.7 -13.1,14.6 -2.3,9.5 1.7,17.9 10.3,21.9 13.4,6.2 31.4,0.2 34.6,-11.5 4.2,-15.6 -14.2,-30 -31.8,-25 z m 18.5,8.5 c 7.7,4.5 9.9,14 4.5,19.4 -5.1,5.1 -15.4,6.5 -22.9,3.1 -5.9,-2.7 -7.7,-5.8 -7.1,-12.6 0.8,-9.2 7.1,-14 16.8,-12.9 2.5,0.3 6.4,1.7 8.7,3 z"
     id="path1589" />
  <path
     style="stroke-width:0.1"
     d="m 397.5,594.5 c -4.6,4.6 -1.9,11.8 4.4,11.8 6.6,0 9.8,-7.6 5.1,-12.3 -2.7,-2.7 -6.6,-2.5 -9.5,0.5 z"
     id="path1591" />
  <path
     style="stroke-width:0.1"
     d="m 764.1,597.6 c -1.2,1.5 -2.1,3.4 -2.1,4.4 0,3.4 3.9,7 7.5,7 3.6,0 7.5,-3.6 7.5,-7 0,-3.4 -3.9,-7 -7.5,-7 -2.4,0 -3.9,0.7 -5.4,2.6 z"
     id="path1593" />
  <path
     style="stroke-width:0.1"
     d="m 802.5,596.9 c -4.7,2.9 -7.3,6.2 -8.6,11.1 -3.5,13.1 4.9,24.3 18.1,24.3 8.5,0 16.8,-2.8 21.2,-7.3 3.2,-3.2 3.8,-4.4 3.8,-8 0,-8.1 -5.4,-14.9 -15.4,-19.6 -6.4,-3 -14.8,-3.2 -19.1,-0.5 z m 17,6.5 c 6.2,2.8 11.5,8.6 11.5,12.5 0,3.6 -3.5,6.9 -9.5,8.7 -10.2,3 -17.9,1.2 -20.9,-5 -2,-4.3 -2,-7.9 0,-12.2 3.1,-6.6 10.2,-8.1 18.9,-4 z"
     id="path1595" />
  <path
     style="stroke-width:0.1"
     d="m 324.5,599.5 c -1.4,1.3 -2.5,3.6 -2.5,5 0,2.8 4,7.5 6.4,7.5 2.9,0 6.4,-2.2 7.5,-4.8 1.6,-3.3 -0.1,-7.5 -3.5,-9.1 -3.7,-1.6 -5.2,-1.4 -7.9,1.4 z"
     id="path1597" />
  <path
     style="stroke-width:0.1"
     d="m 124.9,603.2 c -1.6,0.5 -3.2,2.2 -3.9,3.9 -3.5,8.4 8.4,13.7 12.9,5.8 3.1,-5.5 -2.8,-11.8 -9,-9.7 z"
     id="path1599" />
  <path
     style="stroke-width:0.1"
     d="m 685,606 c -4.3,4.3 -1.1,12 5,12 3.8,0 7,-3.2 7,-7 0,-3.8 -3.2,-7 -7,-7 -1.7,0 -3.9,0.9 -5,2 z"
     id="path1601" />
  <path
     style="stroke-width:0.1"
     d="m 875.2,611.3 c -4.3,4.6 -1.5,12 4.6,12 4.3,0 7.2,-2.8 7.2,-7 0,-6.6 -7.4,-9.7 -11.8,-5 z"
     id="path1603" />
  <path
     style="stroke-width:0.1"
     d="m 558.9,614.8 c -4.9,4 -1.7,12.2 4.8,12.2 6.5,0 9.3,-6.1 5.2,-11.4 -2.5,-3.1 -6.6,-3.5 -10,-0.8 z"
     id="path1605" />
  <path
     style="stroke-width:0.1"
     d="m 484.2,630.1 c -5.1,1.5 -11.6,8.6 -13,14.1 -3.2,12.5 4.8,22.7 19,24.4 9.6,1.1 18.3,-2.8 22.6,-10.1 3.2,-5.6 2.7,-14.6 -1,-20.3 -5.1,-7.6 -17,-11.1 -27.6,-8.1 z m 16.5,6.8 c 5,2.3 7.4,5.7 8,11.4 0.8,8.3 -5.7,14.1 -15.7,14.1 -10,-0.1 -16,-5.2 -16,-13.5 0,-10.9 12.3,-17.1 23.7,-12 z"
     id="path1607" />
  <path
     style="stroke-width:0.1"
     d="m 74.2,636.3 c -2.8,3 -2.8,6.8 0.1,9.5 4.8,4.5 12,1.6 12,-4.8 0,-6.5 -7.6,-9.5 -12.1,-4.7 z"
     id="path1609" />
  <path
     style="stroke-width:0.1"
     d="m 1004,636 c -4.3,4.3 -1.1,12 5,12 3.8,0 7,-3.2 7,-7 0,-3.8 -3.2,-7 -7,-7 -1.7,0 -3.9,0.9 -5,2 z"
     id="path1611" />
  <path
     style="stroke-width:0.1"
     d="m 1071.9,640.8 c -4.9,4 -1.7,12.2 4.8,12.2 6.5,0 9.3,-6.1 5.2,-11.4 -2.5,-3.1 -6.6,-3.5 -10,-0.8 z"
     id="path1613" />
  <path
     style="stroke-width:0.1"
     d="m 622.5,646.5 c -1.4,1.3 -2.5,3 -2.5,3.7 0.1,5.9 5.1,9.8 10,7.8 2.7,-1.1 5,-4.6 5,-7.6 0,-2.4 -4.7,-6.4 -7.5,-6.4 -1.4,0 -3.7,1.1 -5,2.5 z"
     id="path1615" />
  <path
     style="stroke-width:0.1"
     d="m 440,649 c -4.2,4.2 -1.2,12 4.8,12 4.6,0 7.2,-2.5 7.2,-7 0,-2.9 -0.6,-4.3 -2.2,-5.4 -3.1,-2.2 -7.4,-2 -9.8,0.4 z"
     id="path1617" />
  <path
     style="stroke-width:0.1"
     d="m 177.6,650.1 c -5,3.9 -2.2,12.2 4.2,12.2 4.3,0 7.2,-2.8 7.2,-7 0,-6.5 -6.1,-9.3 -11.4,-5.2 z"
     id="path1619" />
  <path
     style="stroke-width:0.1"
     d="m 258.2,650 c -4.8,4.5 -1.6,12.3 5,12.3 6.4,0 9.2,-8.3 4.2,-12.2 -3.4,-2.7 -6.4,-2.7 -9.2,-0.1 z"
     id="path1621" />
  <path
     style="stroke-width:0.1"
     d="m 371,657 c -4.2,4.2 -0.8,12 5.3,12 5.8,0 9.1,-8.5 4.9,-12.3 -2.5,-2.3 -7.8,-2.1 -10.2,0.3 z"
     id="path1623" />
  <path
     style="stroke-width:0.1"
     d="m 922.2,657.7 c -0.7,0.3 -1.9,1.8 -2.8,3.5 -1.3,2.4 -1.3,3.5 -0.4,5.8 3.1,7.4 14,5.1 14,-3 0,-4.5 -6.3,-8.1 -10.8,-6.3 z"
     id="path1625" />
  <path
     style="stroke-width:0.1"
     d="m 11,662.7 c -5.5,2 -6.8,8.7 -2.4,12.2 1.5,1.2 3.4,2.1 4.4,2.1 3.1,0 7,-3.9 7,-7 0,-4.7 -5,-8.7 -9,-7.3 z"
     id="path1627" />
  <path
     style="stroke-width:0.1"
     d="m 735.8,663.5 c -7.8,4.3 -1.4,16.4 6.8,12.6 5.4,-2.4 5.3,-10.5 -0.2,-13 -3.1,-1.4 -3.3,-1.4 -6.6,0.4 z"
     id="path1629" />
  <path
     style="stroke-width:0.1"
     d="m 816.3,672.6 c -2,2 -2.4,3.1 -1.9,5.7 0.9,4.3 2.9,6.1 7.1,6.1 4.2,0 6.2,-1.8 7.1,-6.1 0.5,-2.6 0.1,-3.7 -1.9,-5.7 -1.5,-1.5 -3.8,-2.6 -5.2,-2.6 -1.4,0 -3.7,1.1 -5.2,2.6 z"
     id="path1631" />
  <path
     style="stroke-width:0.1"
     d="m 552.6,676.1 c -4.6,3.6 -2.6,11 3.4,12.4 6.4,1.5 10.8,-7.8 5.8,-12.5 -2.8,-2.6 -5.8,-2.6 -9.2,0.1 z"
     id="path1633" />
  <path
     style="stroke-width:0.1"
     d="m 991.4,684.2 c -6.9,3.3 -3.7,13.8 4.2,13.8 2.4,0 6.4,-4.7 6.4,-7.5 0,-3 -4.1,-7.5 -6.7,-7.4 -1,0 -2.8,0.5 -3.9,1.1 z"
     id="path1635" />
  <path
     style="stroke-width:0.1"
     d="m 87.1,688.6 c -2.7,3.4 -2.7,6.4 -0.1,9.2 4.5,4.8 12.3,1.6 12.3,-5 0,-6.4 -8.3,-9.2 -12.2,-4.2 z"
     id="path1637" />
  <path
     style="stroke-width:0.1"
     d="m 680.3,689.2 c -1.2,0.6 -2.7,2.4 -3.4,4 -3.4,8.3 8.6,13.6 13,5.7 1.9,-3.3 0.1,-8.1 -3.5,-9.8 -2.9,-1.3 -3.2,-1.3 -6.1,0.1 z"
     id="path1639" />
  <path
     style="stroke-width:0.1"
     d="m 158.6,696.2 c -3.6,5.1 -0.5,11.8 5.4,11.8 1.7,0 3.9,-0.9 5,-2 4.5,-4.5 1.1,-12 -5.4,-12 -2.5,0 -3.9,0.7 -5,2.2 z"
     id="path1641" />
  <path
     style="stroke-width:0.1"
     d="m 361.2,700.6 c -2.8,2 -3.1,8.3 -0.4,10.7 2.5,2.3 7.8,2.1 10.2,-0.3 6.1,-6.1 -2.7,-15.4 -9.8,-10.4 z"
     id="path1643" />
  <path
     style="stroke-width:0.1"
     d="m 869,701.7 c -7.6,2.7 -5.8,14.3 2.1,14.3 5.5,0 9.2,-8.7 5.2,-12.2 -2.2,-1.9 -5.3,-2.8 -7.3,-2.1 z"
     id="path1645" />
  <path
     style="stroke-width:0.1"
     d="m 32.7,704.5 c -13.4,4.7 -16.6,21.1 -6.2,31.1 12,11.6 33.4,5.9 36,-9.5 C 65,711.4 47.9,699 32.7,704.5 Z m 16.3,7 c 9,4.6 9.7,17.6 1.2,21.8 -7.3,3.7 -15,2.6 -19.9,-2.7 -2.8,-3 -3.3,-4.3 -3.3,-8.5 0,-8.5 6.4,-13.6 15.4,-12.5 2.1,0.2 5.1,1.1 6.6,1.9 z"
     id="path1647" />
  <path
     style="stroke-width:0.1"
     d="m 1083.1,709.6 c -1.2,1.5 -2.1,3.4 -2.1,4.4 0,3.2 3.9,7 7.1,7 3.4,0 7.9,-3.9 7.9,-6.8 0,-3.5 -3.8,-7.2 -7.5,-7.2 -2.4,0 -3.9,0.7 -5.4,2.6 z"
     id="path1649" />
  <path
     style="stroke-width:0.1"
     d="m 289.2,714.3 c -4.5,4.8 -1.4,11.7 5.1,11.7 4.2,0 6.7,-2.6 6.7,-6.8 0,-6.5 -7.4,-9.6 -11.8,-4.9 z"
     id="path1651" />
  <path
     style="stroke-width:0.1"
     d="m 222,714.7 c -5.1,1.9 -6.8,8.5 -3,12.3 6.1,6.1 15.9,-3.3 10.3,-9.8 -2,-2.3 -5,-3.3 -7.3,-2.5 z"
     id="path1653" />
  <path
     style="stroke-width:0.1"
     d="m 610.3,715 c -4.8,1.9 -5.8,8.7 -1.7,11.9 5.3,4.1 11.4,1.3 11.4,-5.2 0,-5.1 -5,-8.6 -9.7,-6.7 z"
     id="path1655" />
  <path
     style="stroke-width:0.1"
     d="m 448.3,723.2 c -2.9,1.4 -4.6,6.1 -3.2,9.2 1.1,2.4 4.7,4.6 7.5,4.6 2.4,0 6.4,-4.7 6.4,-7.5 0,-3 -4.1,-7.5 -6.7,-7.4 -1,0 -2.8,0.5 -4,1.1 z"
     id="path1657" />
  <path
     style="stroke-width:0.1"
     d="m 753,723.3 c -5.2,2.6 -4.9,10.4 0.4,12.8 3.6,1.7 7.3,0.3 9.2,-3.2 1.9,-3.8 0.6,-8 -3.2,-9.8 -3.1,-1.4 -3.3,-1.4 -6.4,0.2 z"
     id="path1659" />
  <path
     style="stroke-width:0.1"
     d="m 964.4,726.4 c -15.1,4.7 -19.6,21.5 -8.4,31 10.8,9 34.3,3.2 38.1,-9.4 2.5,-8.2 -4.5,-17.9 -15.2,-21.3 -6,-2 -8.9,-2 -14.5,-0.3 z m 11.1,5.7 c 11.6,3.2 16.7,14.3 8.9,19.4 -3.7,2.4 -14,4.7 -17.7,4 -7.3,-1.6 -10.7,-5.4 -10.7,-12 0,-5.6 6.2,-10.7 15,-12.4 0.3,0 2.3,0.4 4.5,1 z"
     id="path1661" />
  <path
     style="stroke-width:0.1"
     d="m 654.8,730.9 c -8.6,2.8 -13.1,8.5 -13.6,17.5 -0.4,7.8 2.4,13.8 8.6,18.1 4.1,2.8 4.9,3 14.1,3 9,0 10.1,-0.2 14,-2.8 4.8,-3.2 8.1,-9.1 8.1,-14.7 0,-7.3 -6.5,-16.2 -14.2,-19.4 -4.6,-2 -13.5,-2.8 -17,-1.7 z m 14.5,7.5 c 4.1,1.7 9.3,7.6 10.2,11.5 0.9,4.4 -2.1,10.1 -6.5,12.3 -4.6,2.3 -13.4,2.3 -18,0 -4.4,-2.2 -8,-7.5 -8,-11.9 0,-4.7 2.7,-10.1 5.9,-11.8 3.3,-1.8 12.2,-1.9 16.4,-0.1 z"
     id="path1663" />
  <path
     style="stroke-width:0.1"
     d="m 520,731.7 c -5.5,2 -6.8,8.7 -2.4,12.2 1.5,1.2 3.4,2.1 4.4,2.1 3.3,0 7,-3.9 7,-7.4 0,-4.6 -4.9,-8.4 -9,-6.9 z"
     id="path1665" />
  <path
     style="stroke-width:0.1"
     d="m 922.3,736.2 c -6.8,3.3 -3.9,13.8 3.8,13.8 2.8,0 6.9,-4.4 6.9,-7.3 0,-5.1 -6.1,-8.8 -10.7,-6.5 z"
     id="path1667" />
  <path
     style="stroke-width:0.1"
     d="m 156.1,744.6 c -2.7,3.5 -2.7,6.5 0.2,9.2 4.8,4.6 12,1.6 12,-5 0,-6.4 -8.3,-9.2 -12.2,-4.2 z"
     id="path1669" />
  <path
     style="stroke-width:0.1"
     d="m 1037,758.3 c -7.6,3.8 -2.8,15.4 5.5,13.3 2.9,-0.7 5.6,-5.6 4.8,-8.7 -1.1,-4.1 -6.5,-6.5 -10.3,-4.6 z"
     id="path1671" />
  <path
     style="stroke-width:0.1"
     d="m 798.2,761.3 c -2.8,3 -2.8,6.8 0.1,9.5 4.8,4.5 12,1.6 12,-4.8 0,-6.5 -7.6,-9.5 -12.1,-4.7 z"
     id="path1673" />
  <path
     style="stroke-width:0.1"
     d="m 250,765 c -1.1,1.1 -2,3.3 -2,5 0,1.7 0.9,3.9 2,5 4.5,4.5 12,1.1 12,-5.3 0,-2 -0.8,-4.1 -1.8,-5 -2.5,-2.3 -7.8,-2.1 -10.2,0.3 z"
     id="path1675" />
  <path
     style="stroke-width:0.1"
     d="m 1107.2,766 c -2.7,1.1 -4.4,5.2 -3.6,8.5 0.8,3.1 2.3,4.3 6.2,5.1 2.5,0.5 3.6,0.1 5.6,-1.9 3.3,-3.3 3.3,-7.1 0.1,-10.2 -2.5,-2.6 -4.5,-3 -8.3,-1.5 z"
     id="path1677" />
  <path
     style="stroke-width:0.1"
     d="m 76,770.7 c -7.6,2.7 -5.8,14.3 2.1,14.3 5.5,0 9.2,-8.7 5.2,-12.2 C 81.1,770.9 78,770 76,770.7 Z"
     id="path1679" />
  <path
     style="stroke-width:0.1"
     d="m 328,773.3 c -13.3,7 -14.8,23.5 -2.8,31.4 7.5,5 22.1,4.3 28.9,-1.4 9.9,-8.3 6.7,-23.7 -6.3,-30.4 -5.3,-2.7 -14.2,-2.6 -19.8,0.4 z m 18.4,6 c 4.2,2.4 7.6,7.6 7.6,11.8 0,11.5 -22.5,15.1 -29,4.7 -7.2,-11.5 8.7,-23.8 21.4,-16.5 z"
     id="path1681" />
  <path
     style="stroke-width:0.1"
     d="m 682.1,778.6 c -1.2,1.5 -2.1,3.4 -2.1,4.4 0,3.1 3.9,7 7,7 6.2,0 9.7,-6.6 6,-11.3 -2.9,-3.7 -8,-3.7 -10.9,-0.1 z"
     id="path1683" />
  <path
     style="stroke-width:0.1"
     d="m 974.2,779.6 c -6.2,4.3 -3.2,13.4 4.4,13.4 2.4,0 6.4,-4.7 6.4,-7.5 0,-3 -4.1,-7.5 -6.7,-7.5 -1,0 -2.9,0.7 -4.1,1.6 z"
     id="path1685" />
  <path
     style="stroke-width:0.1"
     d="m 394,782.7 c -3.7,4.7 -0.2,11.3 6,11.3 3.3,0 7,-4 7,-7.4 0,-6.3 -9,-8.9 -13,-3.9 z"
     id="path1687" />
  <path
     style="stroke-width:0.1"
     d="m 574.2,787.3 c -4.4,4.7 -1.3,11.7 5.2,11.7 4.1,0 6.9,-2.9 6.9,-7 0,-6.5 -7.6,-9.5 -12.1,-4.7 z"
     id="path1689" />
  <path
     style="stroke-width:0.1"
     d="m 876.1,787.6 c -1.2,1.5 -2.1,3.4 -2.1,4.4 0,3.4 3.9,7 7.5,7 3.6,0 7.5,-3.6 7.5,-7 0,-3.4 -3.9,-7 -7.5,-7 -2.4,0 -3.9,0.7 -5.4,2.6 z"
     id="path1691" />
  <path
     style="stroke-width:0.1"
     d="m 166.3,801 c -4.8,1.9 -5.8,8.7 -1.7,11.9 3.4,2.7 6.4,2.7 9.2,0.1 5.7,-5.3 -0.3,-14.9 -7.5,-12 z"
     id="path1693" />
  <path
     style="stroke-width:0.1"
     d="m 471.1,804.6 c -1.2,1.5 -2.1,3.4 -2.1,4.4 0,3.4 3.9,7 7.5,7 3.6,0 7.5,-3.6 7.5,-7 0,-3.4 -3.9,-7 -7.5,-7 -2.4,0 -3.9,0.7 -5.4,2.6 z"
     id="path1695" />
  <path
     style="stroke-width:0.1"
     d="m 788,813 c -2.6,2.6 -2.6,8.1 -0.2,10.3 2.5,2.3 7.8,2.1 10.2,-0.3 4.3,-4.3 1.1,-12 -5,-12 -1.7,0 -3.9,0.9 -5,2 z"
     id="path1697" />
  <path
     style="stroke-width:0.1"
     d="m 40.5,818.5 c -1.4,1.3 -2.5,3.6 -2.5,5 0,2.8 4,7.5 6.4,7.5 2.9,0 6.4,-2.2 7.5,-4.8 1.6,-3.3 -0.1,-7.5 -3.5,-9.1 -3.7,-1.6 -5.2,-1.4 -7.9,1.4 z"
     id="path1699" />
  <path
     style="stroke-width:0.1"
     d="m 1038.3,818 c -2.5,1 -4.3,3.9 -4.3,7 0,2.8 4.3,7 7.3,7 6.3,0 9.1,-8.9 4.1,-12.9 -2.9,-2.3 -3.8,-2.4 -7.1,-1.1 z"
     id="path1701" />
  <path
     style="stroke-width:0.1"
     d="m 927.5,826.5 c -1.4,1.3 -2.5,3.6 -2.5,5 0,2.8 4,7.5 6.4,7.5 2.9,0 6.4,-2.2 7.5,-4.8 1.6,-3.3 -0.1,-7.5 -3.5,-9.1 -3.7,-1.6 -5.2,-1.4 -7.9,1.4 z"
     id="path1703" />
  <path
     style="stroke-width:0.1"
     d="m 262.3,826 c -4.7,1.9 -5.6,7.8 -1.8,11.5 4.2,4.3 10.6,2.3 12.1,-3.7 0.5,-2.2 0,-3.3 -2.4,-5.8 -3.2,-3.1 -4.3,-3.4 -7.9,-2 z"
     id="path1705" />
  <path
     style="stroke-width:0.1"
     d="m 344,839 c -4.3,4.3 -1.1,12 5,12 3.8,0 7,-3.2 7,-7 0,-3.8 -3.2,-7 -7,-7 -1.7,0 -3.9,0.9 -5,2 z"
     id="path1707" />
  <path
     style="stroke-width:0.1"
     d="m 642,839 c -2.6,2.6 -2.6,8.1 -0.2,10.3 2.5,2.3 7.8,2.1 10.2,-0.3 4.3,-4.3 1.1,-12 -5,-12 -1.7,0 -3.9,0.9 -5,2 z"
     id="path1709" />
  <path
     style="stroke-width:0.1"
     d="m 1106.2,840.3 c -4.3,4.6 -1.5,12 4.6,12 4.3,0 7.2,-2.8 7.2,-7 0,-6.6 -7.4,-9.7 -11.8,-5 z"
     id="path1711" />
  <path
     style="stroke-width:0.1"
     d="m 538.2,841 c -2.2,0.9 -4.2,4.6 -4.2,7.6 0,2.4 4.7,6.4 7.5,6.4 1.4,0 3.7,-1.1 5.2,-2.6 2,-2 2.4,-3.1 1.9,-5.7 -0.4,-1.7 -1.2,-3.7 -1.9,-4.4 -1.8,-1.7 -5.9,-2.4 -8.5,-1.3 z"
     id="path1713" />
  <path
     style="stroke-width:0.1"
     d="m 843.8,842.5 c -14.8,5.4 -18.9,22.4 -7.6,30.8 4.9,3.6 9.2,4.7 18.1,4.7 13.8,0 21.2,-5.6 21,-16 -0.2,-14.3 -17.1,-24.8 -31.5,-19.5 z m 17.8,7.5 c 6.8,4.3 9.7,13.7 5.4,18 -3,3 -6.3,4 -12.8,4 -7.9,0 -12.6,-1.5 -15.6,-5.1 -5.6,-6.6 -1.5,-15.8 8.3,-19 3.8,-1.2 10.9,-0.2 14.7,2.1 z"
     id="path1715" />
  <path
     style="stroke-width:0.1"
     d="m 99.7,844.8 c -4,4.5 -0.6,12.2 5.3,12.2 1.7,0 3.9,-0.9 5,-2 4.5,-4.5 1.1,-12 -5.3,-12 -2,0 -4.1,0.8 -5,1.8 z"
     id="path1717" />
  <path
     style="stroke-width:0.1"
     d="m 716.6,844.6 c -4.3,4.3 -1.9,11.6 4.1,12.2 6.2,0.6 10.1,-6.2 6.3,-11.1 -2.5,-3.1 -7.8,-3.7 -10.4,-1.1 z"
     id="path1719" />
  <path
     style="stroke-width:0.1"
     d="m 420.9,850.2 c -1.6,0.5 -3.2,2.2 -3.9,3.9 -3.5,8.4 8.4,13.7 12.9,5.8 3.1,-5.5 -2.8,-11.8 -9,-9.7 z"
     id="path1721" />
  <path
     style="stroke-width:0.1"
     d="m 980.2,856.3 c -4.3,4.6 -1.5,12 4.6,12 6.7,0 9.7,-7.6 4.9,-12.1 -3,-2.8 -6.8,-2.8 -9.5,0.1 z"
     id="path1723" />
  <path
     style="stroke-width:0.1"
     d="m 491.2,856.9 c -9.4,3.3 -15.4,11.1 -15.4,20.1 0,9.9 6.5,15.9 18.2,16.8 23,1.6 33.9,-15.1 19.7,-30.5 -7.1,-7.8 -13.6,-9.6 -22.5,-6.4 z m 14.4,7.2 c 7.2,4.4 10.1,14.4 5.5,19.2 -4,4.4 -15.9,6.1 -22.6,3.3 -4.9,-2.1 -6.9,-5.6 -6.2,-11.2 1.1,-10.5 14.3,-16.9 23.3,-11.3 z"
     id="path1725" />
  <path
     style="stroke-width:0.1"
     d="m 173,857.7 c -5.1,1.9 -6.8,8.5 -3,12.3 6.1,6.1 15.9,-3.2 10.3,-9.8 -2,-2.3 -5,-3.3 -7.3,-2.5 z"
     id="path1727" />
</svg>
