<?xml version="1.0" encoding="UTF-8" standalone="no"?>
<svg
   xmlns:dc="http://purl.org/dc/elements/1.1/"
   xmlns:cc="http://creativecommons.org/ns#"
   xmlns:rdf="http://www.w3.org/1999/02/22-rdf-syntax-ns#"
   xmlns:svg="http://www.w3.org/2000/svg"
   xmlns="http://www.w3.org/2000/svg"
   xmlns:sodipodi="http://sodipodi.sourceforge.net/DTD/sodipodi-0.dtd"
   xmlns:inkscape="http://www.inkscape.org/namespaces/inkscape"
   inkscape:version="1.0 (4035a4fb49, 2020-05-01)"
   sodipodi:docname="USGS_614_colour_nobox.svg"
   id="svg16648"
   preserveAspectRatio="xMidYMid meet"
   viewBox="0 0 1125.000000 900.000000"
   height="900.000000pt"
   width="1125.000000pt"
   version="1.0">
  <defs
     id="defs16652" />
  <sodipodi:namedview
     inkscape:current-layer="svg16648"
     inkscape:window-maximized="1"
     inkscape:window-y="-8"
     inkscape:window-x="1912"
     inkscape:cy="600"
     inkscape:cx="750"
     inkscape:zoom="0.68916667"
     showgrid="false"
     id="namedview16650"
     inkscape:window-height="1017"
     inkscape:window-width="1920"
     inkscape:pageshadow="2"
     inkscape:pageopacity="0"
     guidetolerance="10"
     gridtolerance="10"
     objecttolerance="10"
     borderopacity="1"
     bordercolor="#666666"
     pagecolor="#ffffff" />
  <metadata
     id="metadata16340">
Created by potrace 1.13, written by Peter Selinger 2001-2015
<rdf:RDF>
  <cc:Work
     rdf:about="">
    <dc:format>image/svg+xml</dc:format>
    <dc:type
       rdf:resource="http://purl.org/dc/dcmitype/StillImage" />
    <dc:title></dc:title>
  </cc:Work>
</rdf:RDF>
</metadata>
  <path
     style="stroke-width:0.1"
     d="M 352.2,7.6 C 346,11.9 349,21 356.6,21 c 2.3,0 6.4,-4.7 6.4,-7.3 0,-5.5 -6.5,-9.2 -10.8,-6.1 z"
     id="path16344" />
  <path
     style="stroke-width:0.1"
     d="m 785.2,18.6 c -2.8,2 -3.1,8.3 -0.4,10.7 2.6,2.4 7.7,2.1 10.2,-0.5 5.9,-6.4 -2.5,-15.3 -9.8,-10.2 z"
     id="path16346" />
  <path
     style="stroke-width:0.1"
     d="M 730,48.5 713.5,73 H 677.3 641 v 3.5 3.5 l 164.8,-0.2 164.7,-0.3 v -3 -3 L 845.7,73.2 721,73 736.6,49.9 c 14.7,-21.6 15.5,-23.1 13.8,-24.4 -1.1,-0.8 -2.3,-1.4 -2.9,-1.4 -0.5,-0.1 -8.4,11 -17.5,24.4 z"
     id="path16348" />
  <path
     style="stroke-width:0.1"
     d="m 227,27 c -2.6,2.6 -2.6,8.1 -0.2,10.3 4.4,4 12.2,0.7 12.2,-5.1 0,-6 -7.8,-9.4 -12,-5.2 z"
     id="path16350" />
  <path
     style="stroke-width:0.1"
     d="m 677.6,36.1 c -4.6,3.6 -2.6,11 3.4,12.4 6.4,1.5 10.8,-7.8 5.8,-12.5 -2.8,-2.6 -5.8,-2.6 -9.2,0.1 z"
     id="path16352" />
  <path
     style="stroke-width:0.1"
     d="m 1010.1,39.6 c -1.2,1.5 -2.1,3.4 -2.1,4.4 0,3.4 3.9,7 7.5,7 3.6,0 7.5,-3.6 7.5,-7 0,-3.4 -3.9,-7 -7.5,-7 -2.4,0 -3.9,0.7 -5.4,2.6 z"
     id="path16354" />
  <path
     style="stroke-width:0.1"
     d="m 921,46 c -4.2,4.2 -0.8,12 5.3,12 5.8,0 9.1,-8.5 4.9,-12.3 -2.5,-2.3 -7.8,-2.1 -10.2,0.3 z"
     id="path16356" />
  <path
     style="stroke-width:0.1"
     d="m 141.2,47.7 c -0.7,0.3 -1.9,1.8 -2.8,3.4 -1.2,2.5 -1.3,3.4 -0.2,5.6 3.5,7.3 13.8,5.3 13.8,-2.7 0,-4.5 -6.3,-8.1 -10.8,-6.3 z"
     id="path16358" />
  <path
     style="stroke-width:0.1"
     d="m 291,63 c -4.3,4.3 -1.1,12 5,12 3.8,0 7,-3.2 7,-7 0,-3.8 -3.2,-7 -7,-7 -1.7,0 -3.9,0.9 -5,2 z"
     id="path16360" />
  <path
     style="stroke-width:0.1"
     d="m 1069.5,64.5 c -3,3 -3.1,5.4 -0.4,8.9 1.5,1.9 3,2.6 5.4,2.6 3.7,0 7.5,-3.7 7.5,-7.2 0,-2.7 -4.5,-6.8 -7.5,-6.8 -1.4,0 -3.7,1.1 -5,2.5 z"
     id="path16362" />
  <path
     style="stroke-width:0.1"
     d="m 467.3,66 c -4.9,2 -5.6,9 -1.1,12.3 7.3,5.4 15.3,-5.6 8.2,-11.2 -2.9,-2.3 -3.8,-2.4 -7.1,-1.1 z"
     id="path16364" />
  <path
     style="stroke-width:0.1"
     d="m 557.2,78.6 c -2.8,2 -3.1,8.3 -0.4,10.7 2.5,2.3 7.8,2.1 10.2,-0.3 6.1,-6.1 -2.7,-15.4 -9.8,-10.4 z"
     id="path16366" />
  <path
     style="stroke-width:0.1"
     d="m 389.1,86.6 c -1.2,1.5 -2.1,3.4 -2.1,4.4 0,3.4 3.9,7 7.5,7 3.6,0 7.5,-3.6 7.5,-7 0,-3.4 -3.9,-7 -7.5,-7 -2.4,0 -3.9,0.7 -5.4,2.6 z"
     id="path16368" />
  <path
     style="stroke-width:0.1"
     d="m 878.1,106.6 c -1.2,1.5 -2.1,3.5 -2.1,4.6 0,2.7 4.5,6.8 7.5,6.8 3,0 7.5,-4.1 7.5,-6.8 0,-3.5 -3.8,-7.2 -7.5,-7.2 -2.4,0 -3.9,0.7 -5.4,2.6 z"
     id="path16370" />
  <path
     style="stroke-width:0.1"
     d="m 701.5,109.5 c -1.4,1.3 -2.5,3.1 -2.5,3.9 0,3 2.3,6.5 4.9,7.4 7.6,2.7 13.4,-7.7 6.8,-12.3 -3.1,-2.2 -6.5,-1.8 -9.2,1 z"
     id="path16372" />
  <path
     style="stroke-width:0.1"
     d="m 76,117.7 c -7.6,2.7 -5.8,14.3 2.1,14.3 5.5,0 9.2,-8.7 5.2,-12.2 C 81.1,117.9 78,117 76,117.7 Z"
     id="path16374" />
  <path
     style="stroke-width:0.1"
     d="m 210.5,118.2 c -5,2.7 -5.9,7.5 -2,11.3 4.2,4.3 10.6,2.3 12.1,-3.7 0.5,-2.2 0,-3.3 -2.4,-5.8 -3.3,-3.2 -4.6,-3.5 -7.7,-1.8 z"
     id="path16376" />
  <path
     style="stroke-width:0.1"
     d="m 805.8,120 c -2.4,2.5 -2.9,3.6 -2.4,5.8 1.5,6 7.9,8 12.1,3.7 3.9,-3.8 3.2,-8.6 -1.6,-11 -3.9,-2.1 -4.6,-1.9 -8.1,1.5 z"
     id="path16378" />
  <path
     style="stroke-width:0.1"
     d="m 1033.5,120.5 c -2.8,2.7 -3,4.2 -1.4,7.9 1.6,3.4 5.8,5.1 9.1,3.5 2.6,-1.1 4.8,-4.6 4.8,-7.5 0,-2.4 -4.7,-6.4 -7.5,-6.4 -1.4,0 -3.7,1.1 -5,2.5 z"
     id="path16380" />
  <path
     style="stroke-width:0.1"
     d="m 948.9,126.8 c -4.9,4 -1.7,12.2 4.8,12.2 6.5,0 9.3,-6.1 5.2,-11.4 -2.5,-3.1 -6.6,-3.5 -10,-0.8 z"
     id="path16382" />
  <path
     style="stroke-width:0.1"
     d="m 641.1,141.6 c -1.2,1.5 -2.1,3.4 -2.1,4.4 0,3.4 3.9,7 7.5,7 3.6,0 7.5,-3.6 7.5,-7 0,-3.4 -3.9,-7 -7.5,-7 -2.4,0 -3.9,0.7 -5.4,2.6 z"
     id="path16384" />
  <path
     style="stroke-width:0.1"
     d="m 151,148 c -4.2,4.2 -0.8,12 5.3,12 5.8,0 9.1,-8.5 4.9,-12.3 -2.5,-2.3 -7.8,-2.1 -10.2,0.3 z"
     id="path16386" />
  <path
     style="stroke-width:0.1"
     d="m 295,146.7 c -5.3,1.9 -6.7,8.3 -2.7,12.1 2.9,2.8 5.7,2.8 9.1,0.1 5.7,-4.5 0.4,-14.6 -6.4,-12.2 z"
     id="path16388" />
  <path
     style="stroke-width:0.1"
     d="m 368.5,174 -16.9,25 H 321.3 291 v 3.5 3.5 H 449 607 V 202.5 199 H 483.5 c -67.9,0 -123.5,-0.3 -123.5,-0.6 0,-0.3 7,-10.9 15.5,-23.6 14.5,-21.3 15.5,-23.1 13.8,-24.4 -1,-0.7 -2.3,-1.4 -2.8,-1.4 -0.6,0 -8.7,11.2 -18,25 z"
     id="path16390" />
  <path
     style="stroke-width:0.1"
     d="m 524.5,152.5 c -3,3 -3.1,5.4 -0.4,8.9 1.5,1.9 3,2.6 5.4,2.6 3.6,0 7.5,-3.6 7.5,-7 0,-1 -0.9,-2.9 -2.1,-4.4 -2.7,-3.4 -7.1,-3.5 -10.4,-0.1 z"
     id="path16392" />
  <path
     style="stroke-width:0.1"
     d="m 414.5,157 c -4.1,4.5 -1,12 5,12 3.8,0 7.5,-3.5 7.5,-7.1 0,-5.8 -8.7,-9.1 -12.5,-4.9 z"
     id="path16394" />
  <path
     style="stroke-width:0.1"
     d="m 889.6,175.1 c -5,3.9 -2.2,12.2 4.2,12.2 6.6,0 9.8,-7.8 5,-12.3 -2.8,-2.6 -5.8,-2.6 -9.2,0.1 z"
     id="path16396" />
  <path
     style="stroke-width:0.1"
     d="m 781,176.7 c -5.1,1.9 -6.8,8.5 -3,12.3 6.1,6.1 15.9,-3.3 10.3,-9.8 -2,-2.3 -5,-3.3 -7.3,-2.5 z"
     id="path16398" />
  <path
     style="stroke-width:0.1"
     d="m 981.1,188.8 c -2.8,2.2 -3.1,7.5 -0.6,10.2 2.4,2.6 7.9,2.6 10.5,0 6.2,-6.2 -3.1,-15.8 -9.9,-10.2 z"
     id="path16400" />
  <path
     style="stroke-width:0.1"
     d="m 1056.5,198.5 c -4,3.9 -2.9,9.5 2.2,11.3 7.8,2.7 13.6,-7.6 7,-12.3 -3.1,-2.2 -6.5,-1.8 -9.2,1 z"
     id="path16402" />
  <path
     style="stroke-width:0.1"
     d="m 193,206.3 c -7.6,3.8 -2.8,15.4 5.5,13.3 2.9,-0.7 5.6,-5.6 4.8,-8.7 -1.1,-4.1 -6.5,-6.5 -10.3,-4.6 z"
     id="path16404" />
  <path
     style="stroke-width:0.1"
     d="m 645.5,206.2 c -2.8,1.6 -3.5,2.8 -3.5,6.5 0,4.1 4.2,7.7 8,6.8 6,-1.4 8,-8.8 3.4,-12.4 -3,-2.4 -5,-2.6 -7.9,-0.9 z"
     id="path16406" />
  <path
     style="stroke-width:0.1"
     d="m 32.6,223.1 c -3.6,2.8 -3.6,8 0,10.8 1.5,1.2 3.4,2.1 4.4,2.1 3.4,0 7,-3.9 7,-7.5 0,-3.6 -3.6,-7.5 -7,-7.5 -1,0 -2.9,0.9 -4.4,2.1 z"
     id="path16408" />
  <path
     style="stroke-width:0.1"
     d="m 121.5,223.5 c -4,3.9 -2.9,9.7 2.2,11.6 3.6,1.3 7.8,-0.5 9.3,-4 3.1,-7.5 -5.8,-13.4 -11.5,-7.6 z"
     id="path16410" />
  <path
     style="stroke-width:0.1"
     d="m 871.5,254.5 -17,25.4 -30.8,0.1 h -30.8 l 0.3,3.2 0.3,3.3 148.8,0.3 148.7,0.2 V 283.5 280 L 976.5,279.8 862,279.5 878,255.9 c 15.1,-22.5 15.9,-23.7 14.1,-25.3 -0.9,-0.9 -2.2,-1.6 -2.7,-1.6 -0.5,0 -8.5,11.5 -17.9,25.5 z"
     id="path16412" />
  <path
     style="stroke-width:0.1"
     d="m 493.5,235.5 c -5.7,5.7 0.1,14.6 7.6,11.5 5.6,-2.4 5.9,-10.3 0.3,-12.9 -3.7,-1.6 -5.2,-1.4 -7.9,1.4 z"
     id="path16414" />
  <path
     style="stroke-width:0.1"
     d="m 756,235 c -4.2,4.2 -0.8,12 5.3,12 5.8,0 9.1,-8.5 4.9,-12.3 -2.5,-2.3 -7.8,-2.1 -10.2,0.3 z"
     id="path16416" />
  <path
     style="stroke-width:0.1"
     d="m 930.1,244.6 c -2.7,3.4 -2.7,6.4 -0.1,9.2 4.5,4.8 12.3,1.6 12.3,-5 0,-6.4 -8.3,-9.2 -12.2,-4.2 z"
     id="path16418" />
  <path
     style="stroke-width:0.1"
     d="m 1029,253 c -2.6,2.6 -2.6,8.1 -0.2,10.3 2.8,2.5 8.7,2.2 10.6,-0.5 5,-7.1 -4.3,-15.9 -10.4,-9.8 z"
     id="path16420" />
  <path
     style="stroke-width:0.1"
     d="m 227.6,255.1 c -2.6,2 -3.6,6.9 -1.8,9.5 1,1.5 4.7,3.4 6.7,3.4 2.5,0 6.5,-4.6 6.5,-7.5 0,-3 -4.1,-7.5 -6.8,-7.5 -1.1,0 -3.1,0.9 -4.6,2.1 z"
     id="path16422" />
  <path
     style="stroke-width:0.1"
     d="m 375.6,258.1 c -3.6,2.8 -3.6,8 0,10.8 1.5,1.2 3.4,2.1 4.4,2.1 3.4,0 7,-3.9 7,-7.5 0,-3.6 -3.6,-7.5 -7,-7.5 -1,0 -2.9,0.9 -4.4,2.1 z"
     id="path16424" />
  <path
     style="stroke-width:0.1"
     d="m 673.9,259.8 c -2.8,2.3 -3,7.3 -0.4,10.2 2.5,2.7 7.8,2.7 10.5,-0.2 2.6,-2.8 2.6,-5.8 -0.1,-9.2 -2.5,-3.1 -6.6,-3.5 -10,-0.8 z"
     id="path16426" />
  <path
     style="stroke-width:0.1"
     d="m 593.3,263 c -4.8,1.9 -5.8,8.7 -1.7,11.9 5.3,4.1 11.4,1.3 11.4,-5.2 0,-5.1 -5,-8.6 -9.7,-6.7 z"
     id="path16428" />
  <path
     style="stroke-width:0.1"
     d="m 300,274 c -4.2,4.2 -0.8,12 5.3,12 5.8,0 9.1,-8.5 4.9,-12.3 -2.5,-2.3 -7.8,-2.1 -10.2,0.3 z"
     id="path16430" />
  <path
     style="stroke-width:0.1"
     d="m 75.1,290.6 c -1.2,1.5 -2.1,3.4 -2.1,4.4 0,3.4 3.9,7 7.5,7 3.6,0 7.5,-3.6 7.5,-7 0,-3.4 -3.9,-7 -7.5,-7 -2.4,0 -3.9,0.7 -5.4,2.6 z"
     id="path16432" />
  <path
     style="stroke-width:0.1"
     d="m 527.6,294.1 c -1.9,1.5 -2.6,3 -2.6,5.4 0,3.6 3.6,7.5 7,7.5 3.4,0 7,-3.9 7,-7.5 0,-3.6 -3.6,-7.5 -7,-7.5 -1,0 -2.9,0.9 -4.4,2.1 z"
     id="path16434" />
  <path
     style="stroke-width:0.1"
     d="m 158,299 c -4.3,4.3 -1.1,12 5,12 3.8,0 7,-3.2 7,-7 0,-3.8 -3.2,-7 -7,-7 -1.7,0 -3.9,0.9 -5,2 z"
     id="path16436" />
  <path
     style="stroke-width:0.1"
     d="m 447,308 c -2.6,2.6 -2.6,8.1 -0.2,10.3 2.8,2.5 8.7,2.2 10.6,-0.5 5,-7.1 -4.3,-15.9 -10.4,-9.8 z"
     id="path16438" />
  <path
     style="stroke-width:0.1"
     d="m 728.5,313 c -4.2,4.7 -0.8,12 5.5,12 3.3,0 7,-4 7,-7.6 0,-5.7 -8.6,-8.7 -12.5,-4.4 z"
     id="path16440" />
  <path
     style="stroke-width:0.1"
     d="m 1056.3,318 c -4.8,1.9 -5.8,8.7 -1.7,11.9 3.4,2.7 6.4,2.7 9.2,0.1 5.7,-5.3 -0.3,-14.9 -7.5,-12 z"
     id="path16442" />
  <path
     style="stroke-width:0.1"
     d="m 942,324 c -2.6,2.6 -2.6,8.1 0,10.5 2.9,2.6 7.9,2.4 10.2,-0.4 2.7,-3.4 2.3,-7.5 -0.8,-10 -3.4,-2.6 -6.8,-2.7 -9.4,-0.1 z"
     id="path16444" />
  <path
     style="stroke-width:0.1"
     d="m 233.5,329 c -4.2,4.7 -0.8,12 5.5,12 3.3,0 7,-4 7,-7.4 0,-5.7 -8.6,-8.9 -12.5,-4.6 z"
     id="path16446" />
  <path
     style="stroke-width:0.1"
     d="m 634.5,329 c -4.2,4.7 -0.8,12 5.5,12 3.3,0 7,-4 7,-7.6 0,-5.7 -8.6,-8.7 -12.5,-4.4 z"
     id="path16448" />
  <path
     style="stroke-width:0.1"
     d="m 854.9,330.8 c -4.9,4 -1.7,12.2 4.8,12.2 6.5,0 9.3,-6.1 5.2,-11.4 -2.5,-3.1 -6.6,-3.5 -10,-0.8 z"
     id="path16450" />
  <path
     style="stroke-width:0.1"
     d="m 96,352 c -4.2,4.2 -0.8,12 5.3,12 5.8,0 9.1,-8.5 4.9,-12.3 -2.5,-2.3 -7.8,-2.1 -10.2,0.3 z"
     id="path16452" />
  <path
     style="stroke-width:0.1"
     d="m 316,354.2 c -4.3,4.7 -1.2,11.8 5.3,11.8 4.3,0 6.7,-2.6 6.7,-7.3 0,-6.2 -7.7,-9.1 -12,-4.5 z"
     id="path16454" />
  <path
     style="stroke-width:0.1"
     d="m 534.5,383.3 -17,25.2 -31.7,0.3 -31.8,0.2 v 3 3 h 181 181 v -3 -3 H 671 c -81,0 -145,-0.4 -145,-0.9 0,-0.4 7,-11.1 15.5,-23.7 l 15.4,-22.9 -2.2,-1.7 c -1.2,-1 -2.4,-1.7 -2.7,-1.7 -0.3,0 -8.1,11.3 -17.5,25.2 z"
     id="path16456" />
  <path
     style="stroke-width:0.1"
     d="m 994.5,363.5 c -2.8,2.7 -3,4.2 -1.4,7.9 3.2,6.9 13.9,3.8 13.9,-4 0,-2.4 -4.7,-6.4 -7.5,-6.4 -1.4,0 -3.7,1.1 -5,2.5 z"
     id="path16458" />
  <path
     style="stroke-width:0.1"
     d="m 785.4,364.2 c -6.9,3.3 -3.7,13.8 4.2,13.8 2.4,0 6.4,-4.7 6.4,-7.5 0,-3 -4.1,-7.5 -6.7,-7.4 -1,0 -2.8,0.5 -3.9,1.1 z"
     id="path16460" />
  <path
     style="stroke-width:0.1"
     d="m 378.6,372.1 c -3.1,2.4 -3.6,7.7 -0.8,10.2 5,4.5 12.2,1.7 12.2,-4.8 0,-3.6 -3.6,-7.5 -7,-7.5 -1,0 -2.9,0.9 -4.4,2.1 z"
     id="path16462" />
  <path
     style="stroke-width:0.1"
     d="m 471.2,370.7 c -0.7,0.3 -1.9,1.8 -2.7,3.3 -4,7.7 7.1,14.7 12,7.7 4.2,-6 -2.4,-13.8 -9.3,-11 z"
     id="path16464" />
  <path
     style="stroke-width:0.1"
     d="m 561.5,372.5 c -4,3.9 -2.9,9.7 2.2,11.6 3.6,1.3 7.8,-0.5 9.3,-4 3.1,-7.5 -5.8,-13.4 -11.5,-7.6 z"
     id="path16466" />
  <path
     style="stroke-width:0.1"
     d="m 680.1,377.6 c -1.2,1.5 -2.1,3.4 -2.1,4.4 0,3.4 3.9,7 7.5,7 3.6,0 7.5,-3.6 7.5,-7 0,-3.4 -3.9,-7 -7.5,-7 -2.4,0 -3.9,0.7 -5.4,2.6 z"
     id="path16468" />
  <path
     style="stroke-width:0.1"
     d="m 928,389.3 c -7,3.5 -4.8,13.7 3,13.7 2.8,0 7,-4.4 7,-7.3 0,-5.1 -5.5,-8.6 -10,-6.4 z"
     id="path16470" />
  <path
     style="stroke-width:0.1"
     d="m 1044.3,396.2 c -6.8,3.3 -4,13.8 3.7,13.8 2.8,0 7,-4.4 7,-7.3 0,-5.1 -6.1,-8.8 -10.7,-6.5 z"
     id="path16472" />
  <path
     style="stroke-width:0.1"
     d="m 854.9,401.8 c -4.9,4 -1.7,12.2 4.8,12.2 6.5,0 9.3,-6.1 5.2,-11.4 -2.5,-3.1 -6.6,-3.5 -10,-0.8 z"
     id="path16474" />
  <path
     style="stroke-width:0.1"
     d="m 102.6,407.2 c -5,7.1 4.3,15.9 10.4,9.8 2.6,-2.6 2.6,-8.1 0.2,-10.3 -2.8,-2.5 -8.7,-2.2 -10.6,0.5 z"
     id="path16476" />
  <path
     style="stroke-width:0.1"
     d="m 218.2,424.7 c -3.2,2.7 -3.7,6.4 -1.2,9.6 5.7,7.2 16.7,-0.8 11.3,-8.1 -2.5,-3.3 -7.1,-4 -10.1,-1.5 z"
     id="path16478" />
  <path
     style="stroke-width:0.1"
     d="m 302.1,425.6 c -1.2,1.5 -2.1,3.4 -2.1,4.4 0,3.4 3.9,7 7.5,7 2.4,0 3.9,-0.7 5.4,-2.6 2.7,-3.5 2.6,-5.9 -0.4,-8.9 -3.3,-3.4 -7.7,-3.3 -10.4,0.1 z"
     id="path16480" />
  <path
     style="stroke-width:0.1"
     d="m 969.7,442 c -3.5,2.8 -3.7,8 -0.5,11 2.9,2.7 6.4,2.5 9.3,-0.5 6.3,-6.3 -1.8,-16 -8.8,-10.5 z"
     id="path16482" />
  <path
     style="stroke-width:0.1"
     d="m 362.2,450.3 c -4.5,4.8 -1.6,12 4.8,12 6.5,0 9.5,-7.6 4.7,-12.1 -3,-2.8 -6.8,-2.8 -9.5,0.1 z"
     id="path16484" />
  <path
     style="stroke-width:0.1"
     d="m 761.7,452.2 c -3.8,3.4 -4,7.5 -0.5,10.8 2.9,2.7 6.4,2.5 9.3,-0.5 2.9,-2.8 3.2,-6.5 0.8,-9.3 -2.8,-3.3 -6.6,-3.7 -9.6,-1 z"
     id="path16486" />
  <path
     style="stroke-width:0.1"
     d="m 529.5,459.5 c -1.4,1.3 -2.5,3.6 -2.5,5 0,2.8 4,7.5 6.4,7.5 8,0 11,-10.7 3.9,-13.9 -3.6,-1.6 -5.1,-1.4 -7.8,1.4 z"
     id="path16488" />
  <path
     style="stroke-width:0.1"
     d="m 55,460.3 c -1.4,0.7 -3.1,2.4 -3.9,3.8 -1.2,2.2 -1.2,2.9 0,5.4 2.7,5.7 10.5,5.7 13.1,0 2.6,-5.7 -3.7,-11.9 -9.2,-9.2 z"
     id="path16490" />
  <path
     style="stroke-width:0.1"
     d="m 141.6,462.2 c -3.5,5 -0.4,11.8 5.4,11.8 5.9,0 9.5,-8.5 5.2,-12.3 -2.8,-2.5 -8.7,-2.2 -10.6,0.5 z"
     id="path16492" />
  <path
     style="stroke-width:0.1"
     d="m 438.7,465.1 c -4.8,2.8 -4,10.7 1.2,12.9 7.5,3.1 13.4,-5.8 7.6,-11.5 -2.5,-2.6 -5.8,-3.1 -8.8,-1.4 z"
     id="path16494" />
  <path
     style="stroke-width:0.1"
     d="m 607.5,475.5 c -1.4,1.3 -2.5,3.6 -2.5,5 0,2.9 4,7.5 6.5,7.5 2,0 5.7,-1.9 6.7,-3.4 1.8,-2.6 0.8,-7.5 -1.8,-9.5 -3.5,-2.7 -5.9,-2.6 -8.9,0.4 z"
     id="path16496" />
  <path
     style="stroke-width:0.1"
     d="m 685.5,475.5 c -3.4,3.3 -3.3,7.7 0.1,10.4 1.5,1.2 3.4,2.1 4.4,2.1 3.4,0 7,-3.9 7,-7.5 0,-2.4 -0.7,-3.9 -2.6,-5.4 -3.5,-2.7 -5.9,-2.6 -8.9,0.4 z"
     id="path16498" />
  <path
     style="stroke-width:0.1"
     d="m 825.6,475.1 c -1.9,1.5 -2.6,3 -2.6,5.4 0,3.6 3.6,7.5 7,7.5 3.4,0 7,-3.9 7,-7.5 0,-3.6 -3.6,-7.5 -7,-7.5 -1,0 -2.9,0.9 -4.4,2.1 z"
     id="path16500" />
  <path
     style="stroke-width:0.1"
     d="m 1054.6,475.1 c -1.9,1.5 -2.6,3 -2.6,5.4 0,3.6 3.6,7.5 7,7.5 3.4,0 7,-3.9 7,-7.5 0,-3.6 -3.6,-7.5 -7,-7.5 -1,0 -2.9,0.9 -4.4,2.1 z"
     id="path16502" />
  <path
     style="stroke-width:0.1"
     d="m 263.1,487.6 c -1.2,1.5 -2.1,3.4 -2.1,4.4 0,3.4 3.9,7 7.5,7 3.6,0 7.5,-3.6 7.5,-7 0,-3.4 -3.9,-7 -7.5,-7 -2.4,0 -3.9,0.7 -5.4,2.6 z"
     id="path16504" />
  <path
     style="stroke-width:0.1"
     d="m 921.2,522 -16.3,24 H 867.5 830 v 3 3 H 960.5 1091 v -3 -3 l -89,-0.2 -89.1,-0.3 14.2,-21 c 7.8,-11.6 14.3,-21.6 14.6,-22.3 0.5,-1.1 -2.2,-4.1 -3.7,-4.2 -0.3,0 -7.9,10.8 -16.8,24 z"
     id="path16506" />
  <path
     style="stroke-width:0.1"
     d="M 10.1,505.6 C 8.9,507.1 8,509 8,510 c 0,3.4 3.9,7 7.5,7 3.6,0 7.5,-3.6 7.5,-7 0,-3.4 -3.9,-7 -7.5,-7 -2.4,0 -3.9,0.7 -5.4,2.6 z"
     id="path16508" />
  <path
     style="stroke-width:0.1"
     d="m 235.4,524.7 c -8.1,12 -15.8,23.3 -17,25.2 -1.3,1.9 -2.1,3.8 -1.8,4.3 0.3,0.4 -14.1,0.8 -32,0.8 H 152 v 3 3 H 305.5 459 v -3 -3 H 341 c -64.9,0 -118,-0.2 -118,-0.4 0,-0.3 7.2,-11.2 16.1,-24.3 12.1,-18 15.8,-24.2 15.1,-25.3 -2.4,-3.8 -4.1,-2 -18.8,19.7 z"
     id="path16510" />
  <path
     style="stroke-width:0.1"
     d="m 966.7,505.1 c -1,0.6 -2.3,2.2 -2.8,3.7 -3.2,8.3 9.3,13.6 13,5.5 1.6,-3.6 1.4,-5.1 -1.4,-7.8 -2.5,-2.6 -5.8,-3.1 -8.8,-1.4 z"
     id="path16512" />
  <path
     style="stroke-width:0.1"
     d="m 320.9,515.2 c -3.8,1.3 -5.7,6.2 -3.8,9.7 3.2,5.6 11.2,4.9 13.3,-1.2 1.8,-5.1 -4.1,-10.3 -9.5,-8.5 z"
     id="path16514" />
  <path
     style="stroke-width:0.1"
     d="m 100.9,518.8 c -2.8,2.3 -3,7.3 -0.4,10.2 2.4,2.6 7.9,2.6 10.5,0 6.3,-6.3 -3.1,-15.8 -10.1,-10.2 z"
     id="path16516" />
  <path
     style="stroke-width:0.1"
     d="m 484.8,522.5 c -5.4,3 -4.2,11.6 1.8,13.1 8.3,2.1 12.6,-9.9 4.8,-13.5 -3.1,-1.4 -3.3,-1.4 -6.6,0.4 z"
     id="path16518" />
  <path
     style="stroke-width:0.1"
     d="m 774.1,526.6 c -1.2,1.5 -2.1,3.4 -2.1,4.4 0,3.4 3.9,7 7.5,7 3.6,0 7.5,-3.6 7.5,-7 0,-3.4 -3.9,-7 -7.5,-7 -2.4,0 -3.9,0.7 -5.4,2.6 z"
     id="path16520" />
  <path
     style="stroke-width:0.1"
     d="m 391.7,532.8 c -4,4.4 -0.7,12.2 5.1,12.2 6,0 9.4,-7.8 5.2,-12 -2.6,-2.6 -8.1,-2.6 -10.3,-0.2 z"
     id="path16522" />
  <path
     style="stroke-width:0.1"
     d="m 699.2,541.6 c -1.6,1.1 -2.2,2.5 -2.2,5.4 0,2.9 0.6,4.3 2.2,5.4 5.1,3.6 11.8,0.5 11.8,-5.4 0,-5.9 -6.7,-9 -11.8,-5.4 z"
     id="path16524" />
  <path
     style="stroke-width:0.1"
     d="m 549.3,545.2 c -6.8,3.3 -3.9,13.8 3.8,13.8 2.8,0 6.9,-4.4 6.9,-7.3 0,-5.1 -6.1,-8.8 -10.7,-6.5 z"
     id="path16526" />
  <path
     style="stroke-width:0.1"
     d="m 1038.2,560.3 c -4.3,4.6 -1.5,12 4.6,12 6.7,0 9.7,-7.6 4.9,-12.1 -3,-2.8 -6.8,-2.8 -9.5,0.1 z"
     id="path16528" />
  <path
     style="stroke-width:0.1"
     d="m 618,585 c -4.3,4.3 -1.1,12 5,12 3.8,0 7,-3.2 7,-7 0,-3.8 -3.2,-7 -7,-7 -1.7,0 -3.9,0.9 -5,2 z"
     id="path16530" />
  <path
     style="stroke-width:0.1"
     d="m 870.3,584 c -4.7,1.9 -5.6,7.8 -1.8,11.5 4.7,4.8 11.9,1.9 11.9,-4.9 0,-2 -0.7,-4.3 -1.4,-5 -2,-2 -6,-2.7 -8.7,-1.6 z"
     id="path16532" />
  <path
     style="stroke-width:0.1"
     d="m 275,590 c -2.6,2.6 -2.6,8.1 -0.2,10.3 4.5,4 12.2,0.6 12.2,-5.3 0,-1.7 -0.9,-3.9 -2,-5 -1.1,-1.1 -3.3,-2 -5,-2 -1.7,0 -3.9,0.9 -5,2 z"
     id="path16534" />
  <path
     style="stroke-width:0.1"
     d="m 371.2,590.3 c -4.5,4.8 -1.4,11.7 5.1,11.7 4.2,0 6.7,-2.6 6.7,-6.8 0,-6.5 -7.4,-9.6 -11.8,-4.9 z"
     id="path16536" />
  <path
     style="stroke-width:0.1"
     d="m 712,593 c -4.5,4.5 -1.1,12 5.4,12 2.5,0 3.9,-0.7 5,-2.2 3.6,-5.1 0.5,-11.8 -5.4,-11.8 -1.7,0 -3.9,0.9 -5,2 z"
     id="path16538" />
  <path
     style="stroke-width:0.1"
     d="M 65.6,599.2 C 62,604.3 65.1,611 71,611 c 5.9,0 9,-6.7 5.4,-11.8 -1.1,-1.6 -2.5,-2.2 -5.4,-2.2 -2.9,0 -4.3,0.6 -5.4,2.2 z"
     id="path16540" />
  <path
     style="stroke-width:0.1"
     d="m 455.3,600.2 c -6.8,3.3 -3.9,13.8 3.8,13.8 2.8,0 6.9,-4.4 6.9,-7.3 0,-5.1 -6.1,-8.8 -10.7,-6.5 z"
     id="path16542" />
  <path
     style="stroke-width:0.1"
     d="m 964,600.3 c -5.2,2.6 -4.9,10.4 0.5,12.9 5.8,2.6 11.9,-3.3 9.5,-9.1 -0.6,-1.6 -2.3,-3.3 -3.6,-4 -3.1,-1.4 -3.3,-1.4 -6.4,0.2 z"
     id="path16544" />
  <path
     style="stroke-width:0.1"
     d="m 1054,620 c -4.3,4.3 -1.1,12 5,12 1.7,0 3.9,-0.9 5,-2 2.6,-2.6 2.6,-8.1 0.2,-10.3 -2.5,-2.3 -7.8,-2.1 -10.2,0.3 z"
     id="path16546" />
  <path
     style="stroke-width:0.1"
     d="m 183.2,622.3 c -4.5,4.8 -1.4,11.7 5.1,11.7 4.3,0 7,-2.9 6.9,-7.2 -0.2,-6.3 -7.7,-9.1 -12,-4.5 z"
     id="path16548" />
  <path
     style="stroke-width:0.1"
     d="m 774.1,623.6 c -2.7,3.4 -2.7,6.4 -0.1,9.2 4.5,4.8 12.3,1.6 12.3,-5 0,-6.4 -8.3,-9.2 -12.2,-4.2 z"
     id="path16550" />
  <path
     style="stroke-width:0.1"
     d="m 542,647.6 c -9.1,13.5 -16.6,25.2 -16.8,26 -0.3,1.2 -6.1,1.4 -35.8,1.4 H 454 v 3 3 H 653.5 853 v -3 -3 H 692.5 c -88.3,0 -160.5,-0.3 -160.5,-0.6 0,-0.3 7.3,-11.3 16.2,-24.5 15.3,-22.8 16,-24 14.2,-25.4 -1,-0.8 -2.3,-1.4 -2.9,-1.4 -0.5,0 -8.4,11 -17.5,24.5 z"
     id="path16552" />
  <path
     style="stroke-width:0.1"
     d="m 569.9,637.8 c -1.5,1.3 -2.2,3 -2.2,5.1 0,6.6 7.6,9.8 12.3,5.1 2.7,-2.7 2.5,-6.6 -0.5,-9.5 -2.9,-3 -6.4,-3.2 -9.6,-0.7 z"
     id="path16554" />
  <path
     style="stroke-width:0.1"
     d="m 677,644 c -4.2,4.2 -1.2,12 4.8,12 4.6,0 7.2,-2.5 7.2,-7 0,-2.9 -0.6,-4.3 -2.2,-5.4 -3.1,-2.2 -7.4,-2 -9.8,0.4 z"
     id="path16556" />
  <path
     style="stroke-width:0.1"
     d="m 898.2,645.3 c -4.5,4.8 -1.4,11.7 5.1,11.7 4.2,0 7,-2.9 7,-7.2 0,-6.1 -7.8,-9.1 -12.1,-4.5 z"
     id="path16558" />
  <path
     style="stroke-width:0.1"
     d="m 98.3,648 c -4.8,1.9 -5.8,8.7 -1.7,11.9 5.3,4.1 11.4,1.3 11.4,-5.2 0,-5.1 -5,-8.6 -9.7,-6.7 z"
     id="path16560" />
  <path
     style="stroke-width:0.1"
     d="m 424.6,656.1 c -3.6,2.8 -3.6,8 0,10.8 1.5,1.2 3.4,2.1 4.4,2.1 1,0 2.9,-0.9 4.4,-2.1 3.4,-2.7 3.5,-7.1 0.1,-10.4 -3,-3 -5.4,-3.1 -8.9,-0.4 z"
     id="path16562" />
  <path
     style="stroke-width:0.1"
     d="m 277.2,661.3 c -4.5,4.8 -1.4,11.7 5.1,11.7 4.3,0 6.7,-2.6 6.7,-7.3 0,-6.3 -7.4,-9.1 -11.8,-4.4 z"
     id="path16564" />
  <path
     style="stroke-width:0.1"
     d="m 351.7,662.1 c -4.8,2.8 -4,10.7 1.2,12.9 7.5,3.1 13.4,-5.8 7.6,-11.5 -2.5,-2.6 -5.8,-3.1 -8.8,-1.4 z"
     id="path16566" />
  <path
     style="stroke-width:0.1"
     d="m 983.2,670.3 c -4.3,4.6 -1.5,12 4.6,12 4.3,0 7.2,-2.8 7.2,-6.9 0,-6.6 -7.4,-9.8 -11.8,-5.1 z"
     id="path16568" />
  <path
     style="stroke-width:0.1"
     d="m 548.2,692.7 c -5.2,4.4 -2.4,12.3 4.4,12.3 6.8,0 9.7,-6.8 4.9,-11.5 -2.8,-2.9 -6.5,-3.2 -9.3,-0.8 z"
     id="path16570" />
  <path
     style="stroke-width:0.1"
     d="m 137.5,702.5 c -4,3.9 -2.9,9.7 2.2,11.6 3.6,1.3 7.8,-0.5 9.3,-4 3.1,-7.5 -5.8,-13.4 -11.5,-7.6 z"
     id="path16572" />
  <path
     style="stroke-width:0.1"
     d="m 34.2,707.3 c -2.8,3 -2.8,6.8 0.1,9.5 4.8,4.5 12,1.6 12,-4.8 0,-6.5 -7.6,-9.5 -12.1,-4.7 z"
     id="path16574" />
  <path
     style="stroke-width:0.1"
     d="m 641.1,707.6 c -1.2,1.5 -2.1,3.4 -2.1,4.4 0,3.4 3.9,7 7.5,7 3.6,0 7.5,-3.6 7.5,-7 0,-3.4 -3.9,-7 -7.5,-7 -2.4,0 -3.9,0.7 -5.4,2.6 z"
     id="path16576" />
  <path
     style="stroke-width:0.1"
     d="m 1013.3,706.2 c -5.1,2.4 -5,10.6 0.1,12.9 8.3,3.8 14.7,-8.4 6.6,-12.6 -3.3,-1.7 -3.7,-1.7 -6.7,-0.3 z"
     id="path16578" />
  <path
     style="stroke-width:0.1"
     d="m 217,710.3 c -5.2,2.6 -4.9,10.4 0.4,12.8 3.6,1.7 7.3,0.3 9.2,-3.2 1.9,-3.8 0.6,-8 -3.2,-9.8 -3.1,-1.4 -3.3,-1.4 -6.4,0.2 z"
     id="path16580" />
  <path
     style="stroke-width:0.1"
     d="m 783.9,715.8 c -2.8,2.3 -3,7.3 -0.4,10.2 2.5,2.7 7.8,2.7 10.5,-0.2 2.6,-2.8 2.6,-5.8 -0.1,-9.2 -2.5,-3.1 -6.6,-3.5 -10,-0.8 z"
     id="path16582" />
  <path
     style="stroke-width:0.1"
     d="m 919.7,727 c -3.7,2.9 -3.7,8 -0.1,10.9 1.5,1.2 3.4,2.1 4.4,2.1 3.1,0 7,-3.9 7,-7 0,-6.2 -6.6,-9.7 -11.3,-6 z"
     id="path16584" />
  <path
     style="stroke-width:0.1"
     d="m 355.2,732.3 c -4.5,4.8 -1.4,11.7 5.1,11.7 4.2,0 6.7,-2.6 6.7,-6.8 0,-6.5 -7.4,-9.6 -11.8,-4.9 z"
     id="path16586" />
  <path
     style="stroke-width:0.1"
     d="m 484.3,734.8 c -5.1,0.8 -7,8.3 -3,12 4.8,4.5 11.7,1.4 11.7,-5.1 0,-4.8 -3.8,-7.7 -8.7,-6.9 z"
     id="path16588" />
  <path
     style="stroke-width:0.1"
     d="m 281.3,742.2 c -1.2,0.6 -2.7,2.4 -3.4,4 -3.4,8.3 8.6,13.6 13,5.7 1.9,-3.3 0.1,-8.1 -3.5,-9.8 -2.9,-1.3 -3.2,-1.3 -6.1,0.1 z"
     id="path16590" />
  <path
     style="stroke-width:0.1"
     d="m 701,746 c -6.2,6.2 2.5,15.5 9.8,10.4 2.8,-2 3.1,-8.3 0.4,-10.7 -2.5,-2.3 -7.8,-2.1 -10.2,0.3 z"
     id="path16592" />
  <path
     style="stroke-width:0.1"
     d="m 838.9,747.8 c -1.5,1.3 -2.2,3 -2.2,5.1 0,6.6 7.6,9.8 12.3,5.1 2.7,-2.7 2.5,-6.6 -0.5,-9.5 -2.9,-3 -6.4,-3.2 -9.6,-0.7 z"
     id="path16594" />
  <path
     style="stroke-width:0.1"
     d="m 581.2,755.7 c -0.7,0.3 -1.9,1.8 -2.7,3.3 -4,7.7 7.1,14.7 12,7.7 4.2,-6 -2.4,-13.8 -9.3,-11 z"
     id="path16596" />
  <path
     style="stroke-width:0.1"
     d="m 1040.5,773.5 c -4,3.9 -2.9,9.7 2.2,11.6 6.2,2.3 11.9,-4 8.9,-9.9 -2.5,-4.9 -7.2,-5.6 -11.1,-1.7 z"
     id="path16598" />
  <path
     style="stroke-width:0.1"
     d="m 156.7,782.2 c -3.8,3.4 -4,7.5 -0.5,10.8 2.9,2.7 6.4,2.5 9.3,-0.5 2.9,-2.8 3.2,-6.5 0.8,-9.3 -2.8,-3.3 -6.6,-3.7 -9.6,-1 z"
     id="path16600" />
  <path
     style="stroke-width:0.1"
     d="m 424.7,782 c -3.7,2.9 -3.7,8 -0.1,10.9 1.5,1.2 3.4,2.1 4.4,2.1 3.1,0 7,-3.9 7,-7 0,-6.2 -6.6,-9.7 -11.3,-6 z"
     id="path16602" />
  <path
     style="stroke-width:0.1"
     d="m 369.7,802.3 c -6.8,10 -14.6,21.5 -17.2,25.4 l -4.8,7.3 -31.6,0.2 -31.6,0.3 -0.3,2.7 -0.3,2.8 H 465.4 647 v -3 -3 H 501.5 c -80,0 -145.5,-0.3 -145.5,-0.7 0,-0.3 6.7,-10.6 14.8,-22.7 8.2,-12.2 15.2,-22.6 15.5,-23.2 0.4,-0.7 -0.4,-1.9 -1.8,-2.8 l -2.4,-1.6 z"
     id="path16604" />
  <path
     style="stroke-width:0.1"
     d="m 646.2,787.3 c -4.5,4.8 -1.4,11.7 5.1,11.7 4.2,0 6.7,-2.6 6.7,-6.8 0,-6.5 -7.4,-9.6 -11.8,-4.9 z"
     id="path16606" />
  <path
     style="stroke-width:0.1"
     d="m 8.6,792.2 c -5,7.1 4.3,15.9 10.4,9.8 2.6,-2.6 2.6,-8.1 0.2,-10.3 -2.8,-2.5 -8.7,-2.2 -10.6,0.5 z"
     id="path16608" />
  <path
     style="stroke-width:0.1"
     d="m 915,796.7 c -5.5,2 -6.8,8.7 -2.4,12.2 1.5,1.2 3.4,2.1 4.4,2.1 3.3,0 7,-3.9 7,-7.4 0,-4.6 -4.9,-8.4 -9,-6.9 z"
     id="path16610" />
  <path
     style="stroke-width:0.1"
     d="m 778,800 c -2.6,2.6 -2.6,8.1 0,10.5 2.7,2.5 8,2.2 10.2,-0.6 5.6,-6.8 -4,-16.1 -10.2,-9.9 z"
     id="path16612" />
  <path
     style="stroke-width:0.1"
     d="m 234.2,802.7 c -5.2,4.4 -2.4,12.3 4.4,12.3 6.8,0 9.7,-6.8 4.9,-11.5 -2.8,-2.9 -6.5,-3.2 -9.3,-0.8 z"
     id="path16614" />
  <path
     style="stroke-width:0.1"
     d="m 517.7,807.8 c -4,4.4 -0.7,12.2 5.1,12.2 6,0 9.4,-7.8 5.2,-12 -2.6,-2.6 -8.1,-2.6 -10.3,-0.2 z"
     id="path16616" />
  <path
     style="stroke-width:0.1"
     d="m 100.9,825.8 c -2.8,2.3 -3,7.3 -0.4,10.2 2.4,2.6 7.9,2.6 10.5,0 6.3,-6.3 -3.1,-15.8 -10.1,-10.2 z"
     id="path16618" />
  <path
     style="stroke-width:0.1"
     d="m 977,828.7 c -5.1,1.9 -6.8,8.5 -3,12.3 6.1,6.1 15.9,-3.2 10.3,-9.8 -2,-2.3 -5,-3.3 -7.3,-2.5 z"
     id="path16620" />
  <path
     style="stroke-width:0.1"
     d="m 1064.2,830 c -2.7,1.1 -4.4,5.2 -3.6,8.5 0.8,3.1 2.3,4.3 6.2,5.1 2.5,0.5 3.6,0.1 5.6,-1.9 3.3,-3.3 3.3,-7.1 0.1,-10.2 -2.5,-2.6 -4.5,-3 -8.3,-1.5 z"
     id="path16622" />
  <path
     style="stroke-width:0.1"
     d="m 740.7,844.1 c -4.8,2.8 -4,10.7 1.2,12.9 7.5,3.1 13.4,-5.8 7.6,-11.5 -2.5,-2.6 -5.8,-3.1 -8.8,-1.4 z"
     id="path16624" />
  <path
     style="stroke-width:0.1"
     d="m 362.6,860.1 c -3.6,2.8 -3.6,8 0,10.8 1.5,1.2 3.4,2.1 4.4,2.1 3.4,0 7,-3.9 7,-7.5 0,-3.6 -3.6,-7.5 -7,-7.5 -1,0 -2.9,0.9 -4.4,2.1 z"
     id="path16626" />
  <path
     style="stroke-width:0.1"
     d="m 581.3,859.2 c -2.8,1.4 -4.3,5.5 -3.1,8.9 0.9,2.6 4.4,4.9 7.4,4.9 2.4,0 6.4,-4.7 6.4,-7.5 0,-3 -4.1,-7.5 -6.7,-7.4 -1,0 -2.8,0.5 -4,1.1 z"
     id="path16628" />
  <path
     style="stroke-width:0.1"
     d="m 21.7,866.1 c -4.8,2.8 -4,10.7 1.3,12.9 2.3,0.9 3.4,0.9 5.8,-0.4 4.9,-2.5 5.6,-7.2 1.7,-11.1 -2.5,-2.6 -5.8,-3.1 -8.8,-1.4 z"
     id="path16630" />
  <path
     style="stroke-width:0.1"
     d="m 813.3,868 c -4.8,1.9 -5.8,8.7 -1.7,11.9 5.3,4.1 11.4,1.3 11.4,-5.2 0,-5.1 -5,-8.6 -9.7,-6.7 z"
     id="path16632" />
  <path
     style="stroke-width:0.1"
     d="m 1014,873 c -2.6,2.6 -2.6,8.1 -0.2,10.3 2.8,2.5 8.7,2.2 10.6,-0.5 3.6,-5.1 0.5,-11.8 -5.4,-11.8 -1.7,0 -3.9,0.9 -5,2 z"
     id="path16634" />
  <path
     style="stroke-width:0.1"
     d="m 680,875.3 c -8,4 -2.4,16.2 5.9,12.7 5.3,-2.2 5.9,-8.9 0.9,-12.4 -2.7,-1.9 -3.5,-2 -6.8,-0.3 z"
     id="path16636" />
  <path
     style="stroke-width:0.1"
     d="m 912.6,876.1 c -1.9,1.5 -2.6,3 -2.6,5.4 0,3.6 3.6,7.5 7,7.5 3.4,0 7,-3.9 7,-7.5 0,-3.6 -3.6,-7.5 -7,-7.5 -1,0 -2.9,0.9 -4.4,2.1 z"
     id="path16638" />
  <path
     style="stroke-width:0.1"
     d="m 158,879 c -4.3,4.3 -1.1,12 5,12 5.9,0 9,-6.7 5.4,-11.8 -2,-2.9 -7.6,-3 -10.4,-0.2 z"
     id="path16640" />
  <path
     style="stroke-width:0.1"
     d="m 258.7,878.8 c -4,4.4 -0.7,12.2 5.1,12.2 6,0 9.4,-7.8 5.2,-12 -2.6,-2.6 -8.1,-2.6 -10.3,-0.2 z"
     id="path16642" />
  <path
     style="stroke-width:0.1"
     d="m 456,881 c -2.4,2.4 -2.6,6.7 -0.4,9.8 2,2.9 7.6,3 10.4,0.2 4.3,-4.3 1.1,-12 -5,-12 -1.7,0 -3.9,0.9 -5,2 z"
     id="path16644" />
</svg>
