<?xml version="1.0" encoding="UTF-8" standalone="no"?>
<svg
   xmlns:dc="http://purl.org/dc/elements/1.1/"
   xmlns:cc="http://creativecommons.org/ns#"
   xmlns:rdf="http://www.w3.org/1999/02/22-rdf-syntax-ns#"
   xmlns:svg="http://www.w3.org/2000/svg"
   xmlns="http://www.w3.org/2000/svg"
   xmlns:sodipodi="http://sodipodi.sourceforge.net/DTD/sodipodi-0.dtd"
   xmlns:inkscape="http://www.inkscape.org/namespaces/inkscape"
   inkscape:version="1.0 (4035a4fb49, 2020-05-01)"
   sodipodi:docname="USGS_608_colour_nobox.svg"
   id="svg9254"
   preserveAspectRatio="xMidYMid meet"
   viewBox="0 0 1134.000000 909.000000"
   height="909.000000pt"
   width="1134.000000pt"
   version="1.0">
  <defs
     id="defs9258" />
  <sodipodi:namedview
     inkscape:current-layer="svg9254"
     inkscape:window-maximized="1"
     inkscape:window-y="-8"
     inkscape:window-x="1912"
     inkscape:cy="606"
     inkscape:cx="756"
     inkscape:zoom="0.68234323"
     showgrid="false"
     id="namedview9256"
     inkscape:window-height="1017"
     inkscape:window-width="1920"
     inkscape:pageshadow="2"
     inkscape:pageopacity="0"
     guidetolerance="10"
     gridtolerance="10"
     objecttolerance="10"
     borderopacity="1"
     bordercolor="#666666"
     pagecolor="#ffffff" />
  <metadata
     id="metadata8534">
Created by potrace 1.13, written by Peter Selinger 2001-2015
<rdf:RDF>
  <cc:Work
     rdf:about="">
    <dc:format>image/svg+xml</dc:format>
    <dc:type
       rdf:resource="http://purl.org/dc/dcmitype/StillImage" />
    <dc:title></dc:title>
  </cc:Work>
</rdf:RDF>
</metadata>
  <path
     style="stroke-width:0.1"
     d="m 674.1,13.6 c -1.2,1.5 -2.1,3.4 -2.1,4.4 0,3.4 3.9,7 7.5,7 3.6,0 7.5,-3.6 7.5,-7 0,-3.4 -3.9,-7 -7.5,-7 -2.4,0 -3.9,0.7 -5.4,2.6 z"
     id="path8538" />
  <path
     style="stroke-width:0.1"
     d="m 1076.5,17 c -2.6,2.9 -2.4,7.9 0.4,10.2 7,5.6 16.4,-3.9 10.1,-10.2 -2.6,-2.6 -8.1,-2.6 -10.5,0 z"
     id="path8540" />
  <path
     style="stroke-width:0.1"
     d="m 260.9,24.9 c -2.5,2.5 -3,3.7 -2.5,5.9 1.5,6 7.9,8 12.1,3.7 4.3,-4.2 2.3,-10.6 -3.7,-12.1 -2.2,-0.5 -3.4,0 -5.9,2.5 z"
     id="path8542" />
  <path
     style="stroke-width:0.1"
     d="m 614.3,23 c -4.8,1.9 -5.8,8.7 -1.7,11.9 3.5,2.7 6.5,2.7 9.2,-0.2 5.4,-5.7 -0.3,-14.5 -7.5,-11.7 z"
     id="path8544" />
  <path
     style="stroke-width:0.1"
     d="m 1004.3,23.2 c -5.1,2.4 -5,10.6 0.1,12.9 8.3,3.8 14.7,-8.4 6.6,-12.6 -3.3,-1.7 -3.7,-1.7 -6.7,-0.3 z"
     id="path8546" />
  <path
     style="stroke-width:0.1"
     d="m 468.8,25.5 c -5.4,3 -4.2,11.6 1.8,13.1 8.3,2.1 12.6,-9.9 4.8,-13.5 -3.1,-1.4 -3.3,-1.4 -6.6,0.4 z"
     id="path8548" />
  <path
     style="stroke-width:0.1"
     d="m 537,24.7 c -5.3,1.9 -6.8,8.6 -2.8,12.3 6.3,5.8 15.7,-3.3 10.1,-9.8 -2,-2.3 -5,-3.3 -7.3,-2.5 z"
     id="path8550" />
  <path
     style="stroke-width:0.1"
     d="m 930,27.3 c -5.2,2.6 -4.9,10.4 0.4,12.8 3.6,1.7 7.3,0.3 9.2,-3.2 1.9,-3.8 0.6,-8 -3.2,-9.8 -3.1,-1.4 -3.3,-1.4 -6.4,0.2 z"
     id="path8552" />
  <path
     style="stroke-width:0.1"
     d="m 405,33.3 c -5.2,2.6 -4.9,10.4 0.4,12.8 8.1,3.7 13.8,-7.3 6.4,-12.5 -2.7,-1.9 -3.5,-2 -6.8,-0.3 z"
     id="path8554" />
  <path
     style="stroke-width:0.1"
     d="m 163.6,36.1 c -5.2,4.1 -2.3,12.2 4.4,12.2 6.7,0 9.6,-8.1 4.4,-12.2 C 170.9,34.9 169,34 168,34 c -1,0 -2.9,0.9 -4.4,2.1 z"
     id="path8556" />
  <path
     style="stroke-width:0.1"
     d="m 20.5,64.5 c -2.8,2.7 -3.1,4.5 -1.4,7.8 1.6,3 2.8,3.7 6.6,3.7 4.1,0 7.7,-4.2 6.8,-8 -1.4,-5.8 -7.8,-7.8 -12,-3.5 z"
     id="path8558" />
  <path
     style="stroke-width:0.1"
     d="M 62.2,64.3 C 57.7,69.1 60.5,76 66.9,76 71.5,76 74,73.6 74,69.2 74,62.7 66.6,59.6 62.2,64.3 Z"
     id="path8560" />
  <path
     style="stroke-width:0.1"
     d="m 104,64 c -2.6,2.6 -2.6,8.1 -0.2,10.3 2.8,2.5 8.7,2.2 10.6,-0.5 5,-7.1 -4.3,-15.9 -10.4,-9.8 z"
     id="path8562" />
  <path
     style="stroke-width:0.1"
     d="m 145.5,64.5 c -3,3 -3.1,5.4 -0.4,8.9 2,2.6 6.9,3.6 9.5,1.8 1.5,-1 3.4,-4.7 3.4,-6.7 0,-2.5 -4.6,-6.5 -7.5,-6.5 -1.4,0 -3.7,1.1 -5,2.5 z"
     id="path8564" />
  <path
     style="stroke-width:0.1"
     d="m 187.2,64.3 c -4.5,4.8 -1.4,11.7 5.1,11.7 4.2,0 6.7,-2.6 6.7,-6.8 0,-6.5 -7.4,-9.6 -11.8,-4.9 z"
     id="path8566" />
  <path
     style="stroke-width:0.1"
     d="m 229,64 c -2.6,2.6 -2.6,8.1 -0.2,10.3 2.8,2.5 8.7,2.2 10.6,-0.5 5,-7.1 -4.3,-15.9 -10.4,-9.8 z"
     id="path8568" />
  <path
     style="stroke-width:0.1"
     d="m 271.2,63.7 c -5.2,4.4 -2.4,12.3 4.4,12.3 6.8,0 9.7,-6.8 4.9,-11.5 -2.8,-2.9 -6.5,-3.2 -9.3,-0.8 z"
     id="path8570" />
  <path
     style="stroke-width:0.1"
     d="m 312.5,64.5 c -4.8,4.7 -1.9,11.5 4.8,11.5 4.2,0 7,-2.9 7,-7.2 0,-6.2 -7.3,-8.9 -11.8,-4.3 z"
     id="path8572" />
  <path
     style="stroke-width:0.1"
     d="m 354.2,64 c -2.6,2.4 -2.9,6.6 -0.6,9.8 1.1,1.6 2.5,2.2 5.4,2.2 2.9,0 4.3,-0.6 5.4,-2.2 3.5,-5 0.4,-11.8 -5.4,-11.8 -1.4,0 -3.6,0.9 -4.8,2 z"
     id="path8574" />
  <path
     style="stroke-width:0.1"
     d="m 395.9,63.8 c -4.9,4 -1.7,12.2 4.8,12.2 6.7,0 9.6,-6.8 4.8,-11.5 -2.9,-3 -6.4,-3.2 -9.6,-0.7 z"
     id="path8576" />
  <path
     style="stroke-width:0.1"
     d="m 437.2,64.3 c -4.5,4.8 -1.4,11.7 5.1,11.7 4.2,0 6.7,-2.6 6.7,-6.8 0,-6.5 -7.4,-9.6 -11.8,-4.9 z"
     id="path8578" />
  <path
     style="stroke-width:0.1"
     d="m 479,64 c -2.6,2.6 -2.6,8.1 -0.2,10.3 2.8,2.5 8.7,2.2 10.6,-0.5 5,-7.1 -4.3,-15.9 -10.4,-9.8 z"
     id="path8580" />
  <path
     style="stroke-width:0.1"
     d="m 520.5,64.5 c -3,3 -3.1,5.4 -0.4,8.9 2,2.6 6.9,3.6 9.5,1.8 1.5,-1 3.4,-4.7 3.4,-6.7 0,-2.5 -4.6,-6.5 -7.5,-6.5 -1.4,0 -3.7,1.1 -5,2.5 z"
     id="path8582" />
  <path
     style="stroke-width:0.1"
     d="m 562.5,64.5 c -4.8,4.7 -1.9,11.5 4.9,11.5 6.8,0 9.6,-7.9 4.4,-12.3 -2.8,-2.4 -6.5,-2.1 -9.3,0.8 z"
     id="path8584" />
  <path
     style="stroke-width:0.1"
     d="m 604.2,64 c -2.6,2.4 -2.9,6.6 -0.6,9.8 1.1,1.6 2.5,2.2 5.4,2.2 2.9,0 4.3,-0.6 5.4,-2.2 3.5,-5 0.4,-11.8 -5.4,-11.8 -1.4,0 -3.6,0.9 -4.8,2 z"
     id="path8586" />
  <path
     style="stroke-width:0.1"
     d="m 645.9,63.8 c -4.9,4 -1.7,12.2 4.8,12.2 6.7,0 9.6,-6.8 4.8,-11.5 -2.9,-3 -6.4,-3.2 -9.6,-0.7 z"
     id="path8588" />
  <path
     style="stroke-width:0.1"
     d="m 687.5,64.5 c -2.8,2.7 -3.1,4.5 -1.4,7.8 1.6,3 2.8,3.7 6.6,3.7 3.5,0 7.3,-3.7 7.3,-7.2 0,-2.7 -4.5,-6.8 -7.5,-6.8 -1.4,0 -3.7,1.1 -5,2.5 z"
     id="path8590" />
  <path
     style="stroke-width:0.1"
     d="m 729.1,64.6 c -2.6,3.4 -2.7,6.8 -0.1,9.4 3.8,3.8 11.4,1.9 12,-3 1.1,-7.8 -7.3,-12.3 -11.9,-6.4 z"
     id="path8592" />
  <path
     style="stroke-width:0.1"
     d="m 771,64 c -2.6,2.6 -2.6,8.1 -0.2,10.3 2.8,2.5 8.7,2.2 10.6,-0.5 5,-7.1 -4.3,-15.9 -10.4,-9.8 z"
     id="path8594" />
  <path
     style="stroke-width:0.1"
     d="m 813.2,63.7 c -5.2,4.4 -2.4,12.3 4.3,12.3 6.7,0 9.7,-6.9 5,-11.5 -2.8,-2.9 -6.5,-3.2 -9.3,-0.8 z"
     id="path8596" />
  <path
     style="stroke-width:0.1"
     d="m 854,64 c -2.6,2.6 -2.6,8.1 -0.2,10.3 2.8,2.5 8.7,2.2 10.6,-0.5 5,-7.1 -4.3,-15.9 -10.4,-9.8 z"
     id="path8598" />
  <path
     style="stroke-width:0.1"
     d="m 895,64 c -2.6,2.6 -2.6,8.1 -0.2,10.3 2.8,2.5 8.7,2.2 10.6,-0.5 5,-7.1 -4.3,-15.9 -10.4,-9.8 z"
     id="path8600" />
  <path
     style="stroke-width:0.1"
     d="m 937,64 c -4.6,4.6 -1.8,12 4.7,12 6.6,0 9.7,-7.4 5,-11.8 -2.9,-2.7 -7.1,-2.8 -9.7,-0.2 z"
     id="path8602" />
  <path
     style="stroke-width:0.1"
     d="m 978.5,64.5 c -1.4,1.3 -2.5,3.1 -2.5,3.9 0,3 2.3,6.5 4.9,7.4 7.6,2.7 13.4,-7.7 6.8,-12.3 -3.1,-2.2 -6.5,-1.8 -9.2,1 z"
     id="path8604" />
  <path
     style="stroke-width:0.1"
     d="m 1020.2,64.3 c -4.5,4.8 -1.7,11.7 4.7,11.7 4.6,0 7.1,-2.4 7.1,-6.8 0,-6.5 -7.4,-9.6 -11.8,-4.9 z"
     id="path8606" />
  <path
     style="stroke-width:0.1"
     d="m 1062,64 c -4.6,4.6 -1.8,12 4.7,12 6.6,0 9.7,-7.4 5,-11.8 -2.9,-2.7 -7.1,-2.8 -9.7,-0.2 z"
     id="path8608" />
  <path
     style="stroke-width:0.1"
     d="m 1103.5,64.5 c -3,2.9 -3.2,6.8 -0.5,9.5 4.7,4.7 12.3,1.5 12.3,-5.1 0,-6.3 -7.2,-9 -11.8,-4.4 z"
     id="path8610" />
  <path
     style="stroke-width:0.1"
     d="M 53.9,86.8 C 49,90.8 52.2,99 58.7,99 65.2,99 68,92.9 63.9,87.6 61.4,84.5 57.3,84.1 53.9,86.8 Z"
     id="path8612" />
  <path
     style="stroke-width:0.1"
     d="m 924.1,87.6 c -1.2,1.5 -2.1,3.4 -2.1,4.4 0,3.4 3.9,7 7.5,7 2.4,0 3.9,-0.7 5.4,-2.6 2.7,-3.5 2.6,-5.9 -0.4,-8.9 -3.3,-3.4 -7.7,-3.3 -10.4,0.1 z"
     id="path8614" />
  <path
     style="stroke-width:0.1"
     d="m 537.7,94.8 c -4,4.5 -0.6,12.2 5.3,12.2 1.7,0 3.9,-0.9 5,-2 4.5,-4.5 1.1,-12 -5.3,-12 -2,0 -4.1,0.8 -5,1.8 z"
     id="path8616" />
  <path
     style="stroke-width:0.1"
     d="m 390.5,96.5 c -4,3.9 -2.9,9.7 2.2,11.6 3.6,1.3 7.8,-0.5 9.3,-4 3.1,-7.5 -5.8,-13.4 -11.5,-7.6 z"
     id="path8618" />
  <path
     style="stroke-width:0.1"
     d="m 603.2,96.3 c -4.5,4.8 -1.4,11.7 5.1,11.7 4.2,0 7,-2.9 7,-7.2 0,-6.1 -7.8,-9.1 -12.1,-4.5 z"
     id="path8620" />
  <path
     style="stroke-width:0.1"
     d="m 863.9,95.8 c -2.8,2.3 -3,7.3 -0.4,10.2 2.5,2.7 7.8,2.7 10.5,-0.2 2.6,-2.8 2.6,-5.8 -0.1,-9.2 -2.5,-3.1 -6.6,-3.5 -10,-0.8 z"
     id="path8622" />
  <path
     style="stroke-width:0.1"
     d="m 799.1,99.6 c -1.2,1.5 -2.1,3.5 -2.1,4.6 0,2.7 4.5,6.8 7.5,6.8 3,0 7.5,-4.1 7.5,-6.8 0,-3.5 -3.8,-7.2 -7.5,-7.2 -2.4,0 -3.9,0.7 -5.4,2.6 z"
     id="path8624" />
  <path
     style="stroke-width:0.1"
     d="m 1074,100.3 c -5.5,2.8 -4.8,11 1.3,13.1 7.7,2.7 12.4,-8 5.5,-12.8 -2.7,-1.9 -3.5,-2 -6.8,-0.3 z"
     id="path8626" />
  <path
     style="stroke-width:0.1"
     d="m 176.5,106.5 c -1.4,1.3 -2.5,3.6 -2.5,5 0,3 4.1,7.5 6.8,7.5 3.5,0 7.2,-3.8 7.2,-7.5 0,-2.4 -0.7,-3.9 -2.6,-5.4 -3.5,-2.7 -5.9,-2.6 -8.9,0.4 z"
     id="path8628" />
  <path
     style="stroke-width:0.1"
     d="m 261.2,105 c -6.7,2.8 -3.9,14 3.6,14 3,0 7.2,-4.3 7.2,-7.3 0,-5.1 -5.9,-8.7 -10.8,-6.7 z"
     id="path8630" />
  <path
     style="stroke-width:0.1"
     d="m 469.3,105.2 c -8.1,3.9 -2,16.7 6.2,13 5.5,-2.5 5.8,-10 0.5,-12.7 -3.3,-1.7 -3.7,-1.7 -6.7,-0.3 z"
     id="path8632" />
  <path
     style="stroke-width:0.1"
     d="m 688.3,105.2 c -3.5,1.7 -4.8,6 -2.9,9.6 3.5,6.8 13.6,4.1 13.6,-3.6 0,-4.7 -6.3,-8.2 -10.7,-6 z"
     id="path8634" />
  <path
     style="stroke-width:0.1"
     d="m 990,104.7 c -5.3,1.9 -6.7,8.3 -2.7,12.1 2.9,2.8 5.7,2.8 9.1,0.1 5.7,-4.5 0.4,-14.6 -6.4,-12.2 z"
     id="path8636" />
  <path
     style="stroke-width:0.1"
     d="m 323.6,114.1 c -3.4,2.7 -3.5,7.1 -0.1,10.4 3,3 5.4,3.1 8.9,0.4 3.6,-2.8 3.6,-8 0,-10.8 -1.5,-1.2 -3.4,-2.1 -4.4,-2.1 -1,0 -2.9,0.9 -4.4,2.1 z"
     id="path8638" />
  <path
     style="stroke-width:0.1"
     d="m 97.3,121.5 c -6.6,4.7 -0.8,15 7,12.3 5.1,-1.8 6.2,-7.4 2.2,-11.3 -2.7,-2.8 -6.1,-3.2 -9.2,-1 z"
     id="path8640" />
  <path
     style="stroke-width:0.1"
     d="m 741,130 c -1.1,1.1 -2,3.3 -2,5 0,1.7 0.9,3.9 2,5 1.1,1.1 3.3,2 5,2 1.7,0 3.9,-0.9 5,-2 1.1,-1.1 2,-3.3 2,-5 0,-1.7 -0.9,-3.9 -2,-5 -1.1,-1.1 -3.3,-2 -5,-2 -1.7,0 -3.9,0.9 -5,2 z"
     id="path8642" />
  <path
     style="stroke-width:0.1"
     d="m 611.6,138.2 c -3.6,5.1 -0.5,11.8 5.4,11.8 4,0 7,-3.1 7,-7.3 0,-4.3 -2.6,-6.7 -7.3,-6.7 -2.6,0 -4,0.6 -5.1,2.2 z"
     id="path8644" />
  <path
     style="stroke-width:0.1"
     d="m 838.1,138.6 c -2.7,3.5 -2.6,5.9 0.4,8.9 3.3,3.4 7.7,3.3 10.4,-0.1 1.2,-1.5 2.1,-3.4 2.1,-4.4 0,-3.4 -3.9,-7 -7.5,-7 -2.4,0 -3.9,0.7 -5.4,2.6 z"
     id="path8646" />
  <path
     style="stroke-width:0.1"
     d="m 912.5,142 c -4.2,4.7 -0.8,12 5.5,12 3.3,0 7,-4 7,-7.6 0,-5.7 -8.6,-8.7 -12.5,-4.4 z"
     id="path8648" />
  <path
     style="stroke-width:0.1"
     d="m 407.3,148 c -4.9,2 -5.6,9 -1.1,12.3 7.3,5.4 15.3,-5.6 8.2,-11.2 -2.9,-2.3 -3.8,-2.4 -7.1,-1.1 z"
     id="path8650" />
  <path
     style="stroke-width:0.1"
     d="m 1004,154.3 c -8,4 -2.4,16.2 5.9,12.7 5.3,-2.2 5.9,-8.9 0.9,-12.4 -2.7,-1.9 -3.5,-2 -6.8,-0.3 z"
     id="path8652" />
  <path
     style="stroke-width:0.1"
     d="m 1061.6,155.1 c -2.6,2 -3.6,6.9 -1.8,9.5 1,1.5 4.7,3.4 6.7,3.4 2.5,0 6.5,-4.6 6.5,-7.5 0,-3 -4.1,-7.5 -6.8,-7.5 -1.1,0 -3.1,0.9 -4.6,2.1 z"
     id="path8654" />
  <path
     style="stroke-width:0.1"
     d="m 18.5,159.5 c -1.4,1.3 -2.5,3.6 -2.5,5 0,2.8 4,7.5 6.4,7.5 7.8,0 10.9,-10.7 4,-13.9 -3.7,-1.6 -5.2,-1.4 -7.9,1.4 z"
     id="path8656" />
  <path
     style="stroke-width:0.1"
     d="m 253,161 c -2.6,2.6 -2.6,8.1 0,10.5 2.9,2.6 7.9,2.4 10.2,-0.4 2.7,-3.4 2.3,-7.5 -0.8,-10 -3.4,-2.6 -6.8,-2.7 -9.4,-0.1 z"
     id="path8658" />
  <path
     style="stroke-width:0.1"
     d="m 145,162 c -4.3,4.3 -1.1,12 5,12 3.8,0 7,-3.2 7,-7 0,-3.8 -3.2,-7 -7,-7 -1.7,0 -3.9,0.9 -5,2 z"
     id="path8660" />
  <path
     style="stroke-width:0.1"
     d="m 315.1,169.6 c -2.7,3.4 -2.7,6.4 -0.1,9.2 4.5,4.8 12.3,1.6 12.3,-5 0,-6.4 -8.3,-9.2 -12.2,-4.2 z"
     id="path8662" />
  <path
     style="stroke-width:0.1"
     d="m 553.5,169.5 c -3,3 -3.1,5.4 -0.4,8.9 1.5,1.9 3,2.6 5.4,2.6 3.7,0 7.5,-3.7 7.5,-7.2 0,-2.7 -4.5,-6.8 -7.5,-6.8 -1.4,0 -3.7,1.1 -5,2.5 z"
     id="path8664" />
  <path
     style="stroke-width:0.1"
     d="m 479,177.2 c -2.6,2.8 -2.6,5.8 0.1,9.2 3.9,5 12.2,2.2 12.2,-4.2 0,-6.6 -7.8,-9.8 -12.3,-5 z"
     id="path8666" />
  <path
     style="stroke-width:0.1"
     d="m 955.5,177 c -4.2,4.7 -0.8,12 5.5,12 3.3,0 7,-4 7,-7.4 0,-5.7 -8.6,-8.9 -12.5,-4.6 z"
     id="path8668" />
  <path
     style="stroke-width:0.1"
     d="m 670.5,181 c -4.2,4.7 -0.8,12 5.5,12 3.3,0 7,-4 7,-7.4 0,-5.7 -8.6,-8.9 -12.5,-4.6 z"
     id="path8670" />
  <path
     style="stroke-width:0.1"
     d="m 736.6,181.2 c -3.6,5.1 -0.5,11.8 5.4,11.8 5.9,0 9,-6.7 5.4,-11.8 -1.1,-1.6 -2.5,-2.2 -5.4,-2.2 -2.9,0 -4.3,0.6 -5.4,2.2 z"
     id="path8672" />
  <path
     style="stroke-width:0.1"
     d="m 809.3,183.5 c -4.9,2.1 -5.8,7.1 -1.8,11 4.5,4.6 11.8,1.9 11.8,-4.3 0,-5.8 -4.7,-8.9 -10,-6.7 z"
     id="path8674" />
  <path
     style="stroke-width:0.1"
     d="m 22,203 c -3.5,0.8 -5.7,5.1 -4.5,8.7 2.3,6.2 10.5,7 13,1.1 2.5,-6.2 -2,-11.4 -8.5,-9.8 z"
     id="path8676" />
  <path
     style="stroke-width:0.1"
     d="m 64,202.7 c -5.1,1.9 -6.8,8.5 -3,12.3 6.1,6.1 15.9,-3.2 10.3,-9.8 -2,-2.3 -5,-3.3 -7.3,-2.5 z"
     id="path8678" />
  <path
     style="stroke-width:0.1"
     d="m 104.9,203.3 c -3.7,1.9 -5.3,6 -3.7,9.4 2.6,5.5 10.4,5.4 13,-0.2 2.6,-5.7 -3.7,-11.9 -9.3,-9.2 z"
     id="path8680" />
  <path
     style="stroke-width:0.1"
     d="m 146.2,203.5 c -5.9,2.5 -5.1,10.7 1.1,13 6.2,2.1 11.8,-5.2 8,-10.3 -2.6,-3.4 -5.3,-4.2 -9.1,-2.7 z"
     id="path8682" />
  <path
     style="stroke-width:0.1"
     d="m 188.3,203 c -4.6,1.9 -5.7,8.3 -2,11.8 4.7,4.4 11.7,1.3 11.7,-5.2 0,-5 -5,-8.4 -9.7,-6.6 z"
     id="path8684" />
  <path
     style="stroke-width:0.1"
     d="m 229.9,203.3 c -3.7,1.9 -5.3,6 -3.7,9.4 2.6,5.5 10.4,5.4 13,-0.2 2.6,-5.7 -3.7,-11.9 -9.3,-9.2 z"
     id="path8686" />
  <path
     style="stroke-width:0.1"
     d="m 271.9,203.2 c -1.6,0.5 -3.2,2.2 -3.9,3.9 -3.5,8.4 8.4,13.7 12.9,5.8 3.1,-5.5 -2.8,-11.8 -9,-9.7 z"
     id="path8688" />
  <path
     style="stroke-width:0.1"
     d="m 313.3,203 c -4.6,1.9 -5.7,8.3 -2,11.8 4.8,4.5 11.7,1.4 11.7,-5.1 0,-5.1 -5,-8.6 -9.7,-6.7 z"
     id="path8690" />
  <path
     style="stroke-width:0.1"
     d="m 356,202.7 c -5.1,1.9 -6.8,8.5 -3,12.3 6.1,6.1 15.9,-3.3 10.3,-9.8 -2,-2.3 -5,-3.3 -7.3,-2.5 z"
     id="path8692" />
  <path
     style="stroke-width:0.1"
     d="m 396.9,203.2 c -1.6,0.5 -3.2,2.2 -3.9,3.9 -3.5,8.4 8.4,13.7 12.9,5.8 3.1,-5.5 -2.8,-11.8 -9,-9.7 z"
     id="path8694" />
  <path
     style="stroke-width:0.1"
     d="m 438.3,203 c -4.6,1.9 -5.7,8.3 -2,11.8 4.7,4.4 11.7,1.3 11.7,-5.2 0,-5 -5,-8.4 -9.7,-6.6 z"
     id="path8696" />
  <path
     style="stroke-width:0.1"
     d="m 479.9,203.3 c -3.7,1.9 -5.3,6 -3.7,9.4 2.6,5.5 10.4,5.4 13,-0.2 2.6,-5.7 -3.7,-11.9 -9.3,-9.2 z"
     id="path8698" />
  <path
     style="stroke-width:0.1"
     d="m 521.2,203.5 c -5.9,2.5 -5.1,10.7 1.1,13 6.2,2.1 11.8,-5.2 8,-10.3 -2.6,-3.4 -5.3,-4.2 -9.1,-2.7 z"
     id="path8700" />
  <path
     style="stroke-width:0.1"
     d="m 563.3,203 c -4.6,1.9 -5.7,8.3 -2,11.8 4.8,4.5 11.7,1.4 11.7,-5.1 0,-5.1 -5,-8.6 -9.7,-6.7 z"
     id="path8702" />
  <path
     style="stroke-width:0.1"
     d="m 606,202.7 c -5.1,1.9 -6.8,8.5 -3,12.3 6.1,6.1 15.9,-3.3 10.3,-9.8 -2,-2.3 -5,-3.3 -7.3,-2.5 z"
     id="path8704" />
  <path
     style="stroke-width:0.1"
     d="m 646.9,203.2 c -1.6,0.5 -3.2,2.2 -3.9,3.9 -3.5,8.4 8.4,13.7 12.9,5.8 3.1,-5.5 -2.8,-11.8 -9,-9.7 z"
     id="path8706" />
  <path
     style="stroke-width:0.1"
     d="m 688.2,203.5 c -7.8,3.4 -3.2,15.2 5.2,13.1 3.3,-0.8 5.9,-5.7 4.7,-8.8 -1.7,-4.6 -5.4,-6.1 -9.9,-4.3 z"
     id="path8708" />
  <path
     style="stroke-width:0.1"
     d="m 730.3,203 c -4.6,1.9 -5.7,8.3 -2,11.8 4.7,4.4 11.7,1.3 11.7,-5.2 0,-5 -5,-8.4 -9.7,-6.6 z"
     id="path8710" />
  <path
     style="stroke-width:0.1"
     d="m 771.9,203.3 c -3.7,1.9 -5,5.4 -3.5,9.1 2.4,5.8 10.2,5.8 12.8,0.1 2.6,-5.7 -3.7,-11.9 -9.3,-9.2 z"
     id="path8712" />
  <path
     style="stroke-width:0.1"
     d="m 813.2,203.5 c -5.9,2.5 -5.1,10.7 1.1,13 6.2,2.1 11.8,-5.2 8,-10.3 -2.6,-3.4 -5.3,-4.2 -9.1,-2.7 z"
     id="path8714" />
  <path
     style="stroke-width:0.1"
     d="m 854.9,203.3 c -3.7,1.9 -5.3,6 -3.7,9.4 2.6,5.5 10.4,5.4 13,-0.2 2.6,-5.7 -3.7,-11.9 -9.3,-9.2 z"
     id="path8716" />
  <path
     style="stroke-width:0.1"
     d="m 897,202.7 c -5.1,1.9 -6.8,8.5 -3,12.3 6.1,6.1 15.9,-3.3 10.3,-9.8 -2,-2.3 -5,-3.3 -7.3,-2.5 z"
     id="path8718" />
  <path
     style="stroke-width:0.1"
     d="m 937.9,203.4 c -1.3,0.6 -3,2.3 -3.8,3.7 -1.2,2.2 -1.2,2.9 0,5.4 2.9,6 11.1,5.5 13.3,-0.8 2,-5.5 -4.3,-10.9 -9.5,-8.3 z"
     id="path8720" />
  <path
     style="stroke-width:0.1"
     d="m 980,203 c -3.5,0.8 -5.7,5.1 -4.5,8.7 2.3,6.2 10.5,7 13,1.1 2.5,-6.2 -2,-11.4 -8.5,-9.8 z"
     id="path8722" />
  <path
     style="stroke-width:0.1"
     d="m 1022,202.7 c -5.1,1.9 -6.8,8.5 -3,12.3 6.1,6.1 15.9,-3.2 10.3,-9.8 -2,-2.3 -5,-3.3 -7.3,-2.5 z"
     id="path8724" />
  <path
     style="stroke-width:0.1"
     d="m 1062.9,203.4 c -1.3,0.6 -3,2.3 -3.8,3.7 -1.2,2.2 -1.2,2.9 0,5.4 2.9,6 11.1,5.5 13.3,-0.8 2,-5.5 -4.3,-10.9 -9.5,-8.3 z"
     id="path8726" />
  <path
     style="stroke-width:0.1"
     d="m 1104.3,203 c -4.6,1.9 -5.7,8.3 -2,11.8 4.8,4.5 11.7,1.4 11.7,-5.1 0,-5.1 -5,-8.6 -9.7,-6.7 z"
     id="path8728" />
  <path
     style="stroke-width:0.1"
     d="m 170.7,227 c -3.5,2.8 -3.7,8 -0.5,11 6.3,5.8 15.6,-3.2 10.1,-9.8 -2.7,-3.2 -6.4,-3.7 -9.6,-1.2 z"
     id="path8730" />
  <path
     style="stroke-width:0.1"
     d="m 412.7,227 c -3.7,2.9 -3.7,8 -0.1,10.9 1.5,1.2 3.4,2.1 4.4,2.1 3.3,0 7,-3.9 7,-7.4 0,-6 -6.6,-9.3 -11.3,-5.6 z"
     id="path8732" />
  <path
     style="stroke-width:0.1"
     d="m 572.6,231.1 c -1.9,1.5 -2.6,3 -2.6,5.4 0,3.6 3.6,7.5 7,7.5 3.4,0 7,-3.9 7,-7.5 0,-3.6 -3.6,-7.5 -7,-7.5 -1,0 -2.9,0.9 -4.4,2.1 z"
     id="path8734" />
  <path
     style="stroke-width:0.1"
     d="m 1038.3,230.2 c -2.9,1.4 -4.6,6.1 -3.2,9.2 1.1,2.4 4.7,4.6 7.5,4.6 2.4,0 6.4,-4.7 6.4,-7.5 0,-3 -4.1,-7.5 -6.7,-7.4 -1,0 -2.8,0.5 -4,1.1 z"
     id="path8736" />
  <path
     style="stroke-width:0.1"
     d="m 103.5,235.5 c -4,3.9 -2.9,9.7 2.2,11.6 5.8,2.2 11.6,-3.6 9.4,-9.4 -1.9,-5.1 -7.7,-6.2 -11.6,-2.2 z"
     id="path8738" />
  <path
     style="stroke-width:0.1"
     d="m 326.6,235.1 c -3.6,2.8 -3.6,8 0,10.8 1.5,1.2 3.4,2.1 4.4,2.1 3.4,0 7,-3.9 7,-7.5 0,-3.6 -3.6,-7.5 -7,-7.5 -1,0 -2.9,0.9 -4.4,2.1 z"
     id="path8740" />
  <path
     style="stroke-width:0.1"
     d="m 952.5,234.2 c -2.8,1.6 -3.5,2.8 -3.5,6.5 0,3.5 3.7,7.3 7.2,7.3 2.7,0 6.8,-4.5 6.8,-7.5 0,-3 -4.1,-7.5 -6.7,-7.5 -1,0 -2.7,0.6 -3.8,1.2 z"
     id="path8742" />
  <path
     style="stroke-width:0.1"
     d="m 502.7,238.2 c -4.1,3.2 -3.8,9.4 0.6,12.3 4.6,3 10.7,-0.6 10.7,-6.3 0,-5.1 -7.3,-9 -11.3,-6 z"
     id="path8744" />
  <path
     style="stroke-width:0.1"
     d="m 663,251 c -2.6,2.6 -2.6,8.1 -0.2,10.3 4.4,4 12.2,0.7 12.2,-5.1 0,-6 -7.8,-9.4 -12,-5.2 z"
     id="path8746" />
  <path
     style="stroke-width:0.1"
     d="m 745.2,254.6 c -1.6,1.1 -2.2,2.5 -2.2,5.4 0,2.9 0.6,4.3 2.2,5.4 5.1,3.6 11.8,0.5 11.8,-5.4 0,-5.9 -6.7,-9 -11.8,-5.4 z"
     id="path8748" />
  <path
     style="stroke-width:0.1"
     d="m 807.2,255.3 c -2.8,3 -2.8,6.8 0.1,9.5 4.8,4.5 12,1.6 12,-4.8 0,-6.5 -7.6,-9.5 -12.1,-4.7 z"
     id="path8750" />
  <path
     style="stroke-width:0.1"
     d="m 912.5,259 c -4.2,4.6 -0.8,12 5.4,12 3.4,0 7.1,-3.7 7.1,-7.1 0,-6 -8.5,-9.3 -12.5,-4.9 z"
     id="path8752" />
  <path
     style="stroke-width:0.1"
     d="m 1069,259 c -4.3,4.3 -1.1,12 5,12 3.8,0 7,-3.2 7,-7 0,-3.8 -3.2,-7 -7,-7 -1.7,0 -3.9,0.9 -5,2 z"
     id="path8754" />
  <path
     style="stroke-width:0.1"
     d="m 225.1,263.6 c -1.2,1.5 -2.1,3.5 -2.1,4.6 0,2.7 4.5,6.8 7.5,6.8 3,0 7.5,-4.1 7.5,-6.8 0,-3.5 -3.8,-7.2 -7.5,-7.2 -2.4,0 -3.9,0.7 -5.4,2.6 z"
     id="path8756" />
  <path
     style="stroke-width:0.1"
     d="m 378.7,270 c -2,1.6 -2.7,3 -2.7,5.6 0,6.8 6.8,9.7 11.5,4.9 6.3,-6.3 -1.8,-16 -8.8,-10.5 z"
     id="path8758" />
  <path
     style="stroke-width:0.1"
     d="m 81.6,274.1 c -3.6,2.8 -3.6,8 0,10.8 1.5,1.2 3.4,2.1 4.4,2.1 3.4,0 7,-3.9 7,-7.5 0,-3.6 -3.6,-7.5 -7,-7.5 -1,0 -2.9,0.9 -4.4,2.1 z"
     id="path8760" />
  <path
     style="stroke-width:0.1"
     d="m 440.5,274.5 c -1.4,1.3 -2.5,3.6 -2.5,5 0,2.8 4,7.5 6.4,7.5 7.8,0 10.9,-10.7 4,-13.9 -3.7,-1.6 -5.2,-1.4 -7.9,1.4 z"
     id="path8762" />
  <path
     style="stroke-width:0.1"
     d="m 866.6,274.1 c -4.9,3.9 -2.2,12.9 4,12.9 3.7,0 7.4,-3.7 7.4,-7.5 0,-3.6 -3.6,-7.5 -7,-7.5 -1,0 -2.9,0.9 -4.4,2.1 z"
     id="path8764" />
  <path
     style="stroke-width:0.1"
     d="m 526.5,278.5 c -1.4,1.3 -2.5,3.6 -2.5,5 0,3 4.1,7.5 6.8,7.5 3.5,0 7.2,-3.8 7.2,-7.5 0,-2.4 -0.7,-3.9 -2.6,-5.4 -3.5,-2.7 -5.9,-2.6 -8.9,0.4 z"
     id="path8766" />
  <path
     style="stroke-width:0.1"
     d="m 971.5,282.5 c -2.8,2.7 -3.2,6.1 -1,9.2 4.9,7 16,0 12,-7.6 -2.4,-4.8 -7.2,-5.5 -11,-1.6 z"
     id="path8768" />
  <path
     style="stroke-width:0.1"
     d="m 159.2,286.3 c -4.3,4.6 -1.5,12 4.6,12 4.3,0 7.2,-2.8 7.2,-7 0,-6.6 -7.4,-9.7 -11.8,-5 z"
     id="path8770" />
  <path
     style="stroke-width:0.1"
     d="m 1030,290 c -2.6,2.6 -2.6,8.1 -0.2,10.3 4.4,4 12.2,0.7 12.2,-5.1 0,-6 -7.8,-9.4 -12,-5.2 z"
     id="path8772" />
  <path
     style="stroke-width:0.1"
     d="m 329.6,297.1 c -3.6,2.8 -3.6,8 0,10.8 1.5,1.2 3.4,2.1 4.4,2.1 3.4,0 7,-3.9 7,-7.5 0,-3.6 -3.6,-7.5 -7,-7.5 -1,0 -2.9,0.9 -4.4,2.1 z"
     id="path8774" />
  <path
     style="stroke-width:0.1"
     d="m 614.3,308 c -4.6,1.9 -5.7,8.3 -2,11.8 4.7,4.4 11.7,1.3 11.7,-5.2 0,-5 -5,-8.4 -9.7,-6.6 z"
     id="path8776" />
  <path
     style="stroke-width:0.1"
     d="m 263.6,311.1 c -3.6,2.8 -3.6,8 0,10.8 1.5,1.2 3.4,2.1 4.4,2.1 3.4,0 7,-3.9 7,-7.5 0,-3.6 -3.6,-7.5 -7,-7.5 -1,0 -2.9,0.9 -4.4,2.1 z"
     id="path8778" />
  <path
     style="stroke-width:0.1"
     d="m 42.6,313.1 c -3.6,2.8 -3.6,8 0,10.8 1.5,1.2 3.4,2.1 4.4,2.1 3.4,0 7,-3.9 7,-7.5 0,-3.6 -3.6,-7.5 -7,-7.5 -1,0 -2.9,0.9 -4.4,2.1 z"
     id="path8780" />
  <path
     style="stroke-width:0.1"
     d="m 766,312.3 c -5.2,2.6 -4.9,10.4 0.4,12.8 3.6,1.7 7.3,0.3 9.2,-3.2 1.9,-3.8 0.6,-8 -3.2,-9.8 -3.1,-1.4 -3.3,-1.4 -6.4,0.2 z"
     id="path8782" />
  <path
     style="stroke-width:0.1"
     d="m 519.7,314.8 c -4,4.5 -0.6,12.2 5.3,12.2 1.7,0 3.9,-0.9 5,-2 4.5,-4.5 1.1,-12 -5.3,-12 -2,0 -4.1,0.8 -5,1.8 z"
     id="path8784" />
  <path
     style="stroke-width:0.1"
     d="m 702.6,317.1 c -1.9,1.5 -2.6,3 -2.6,5.4 0,3.6 3.6,7.5 7,7.5 3.4,0 7,-3.9 7,-7.5 0,-3.6 -3.6,-7.5 -7,-7.5 -1,0 -2.9,0.9 -4.4,2.1 z"
     id="path8786" />
  <path
     style="stroke-width:0.1"
     d="m 840.2,316 c -2.7,1.1 -4.4,5.2 -3.6,8.5 0.8,3.1 2.3,4.3 6.2,5.1 2.5,0.5 3.6,0.1 5.6,-1.9 3.3,-3.3 3.3,-7.1 0.1,-10.2 -2.5,-2.6 -4.5,-3 -8.3,-1.5 z"
     id="path8788" />
  <path
     style="stroke-width:0.1"
     d="m 928.5,317.5 c -1.4,1.3 -2.5,3.6 -2.5,5 0,2.8 4,7.5 6.4,7.5 2.9,0 6.4,-2.2 7.5,-4.8 1.6,-3.3 -0.1,-7.5 -3.5,-9.1 -3.7,-1.6 -5.2,-1.4 -7.9,1.4 z"
     id="path8790" />
  <path
     style="stroke-width:0.1"
     d="m 1088.5,317.5 c -1.4,1.3 -2.5,3.6 -2.5,5 0,3.3 4.2,7.5 7.5,7.5 3.3,0 7.5,-4.2 7.5,-7.5 0,-3.3 -4.2,-7.5 -7.5,-7.5 -1.4,0 -3.7,1.1 -5,2.5 z"
     id="path8792" />
  <path
     style="stroke-width:0.1"
     d="m 420.9,317.2 c -3.8,1.3 -5.7,6.2 -3.8,9.7 3.2,5.7 11.1,4.9 13.2,-1.3 1.7,-5.1 -4,-10.3 -9.4,-8.4 z"
     id="path8794" />
  <path
     style="stroke-width:0.1"
     d="m 19.5,345.5 c -2.8,2.7 -3.2,6.1 -1,9.2 4.7,6.6 15,0.8 12.3,-7 -1.8,-5.1 -7.4,-6.2 -11.3,-2.2 z"
     id="path8796" />
  <path
     style="stroke-width:0.1"
     d="m 61.2,345.3 c -3.1,3.3 -2.9,8 0.5,10.7 3.2,2.5 6.9,2 9.6,-1.2 2.6,-3 2.2,-7.3 -0.9,-9.7 -3.5,-2.7 -6.5,-2.7 -9.2,0.2 z"
     id="path8798" />
  <path
     style="stroke-width:0.1"
     d="m 103.9,344 c -2.7,1.5 -4.3,6.5 -2.9,8.9 2.8,5.3 9.4,6.2 12.5,1.8 4.4,-6.2 -3.1,-14.5 -9.6,-10.7 z"
     id="path8800" />
  <path
     style="stroke-width:0.1"
     d="m 144.5,345.5 c -4,3.9 -2.9,9.7 2.2,11.6 3.6,1.3 7.8,-0.5 9.3,-4 3.1,-7.5 -5.8,-13.4 -11.5,-7.6 z"
     id="path8802" />
  <path
     style="stroke-width:0.1"
     d="m 186.6,345.1 c -5.2,4.1 -2.3,12.2 4.4,12.2 6.7,0 9.6,-8.1 4.4,-12.2 -1.5,-1.2 -3.4,-2.1 -4.4,-2.1 -1,0 -2.9,0.9 -4.4,2.1 z"
     id="path8804" />
  <path
     style="stroke-width:0.1"
     d="m 229.2,343.7 c -0.7,0.3 -1.9,1.8 -2.7,3.3 -4,7.7 7.1,14.7 12,7.7 4.2,-6 -2.4,-13.8 -9.3,-11 z"
     id="path8806" />
  <path
     style="stroke-width:0.1"
     d="m 269.5,345.5 c -2.8,2.7 -3,4.2 -1.4,7.9 1.6,3.4 5.8,5.1 9.1,3.5 2.6,-1.1 4.8,-4.6 4.8,-7.5 0,-2.4 -4.7,-6.4 -7.5,-6.4 -1.4,0 -3.7,1.1 -5,2.5 z"
     id="path8808" />
  <path
     style="stroke-width:0.1"
     d="m 311.6,345.1 c -4.6,3.6 -2.6,11 3.4,12.4 6.4,1.5 10.8,-7.8 5.8,-12.5 -2.8,-2.6 -5.8,-2.6 -9.2,0.1 z"
     id="path8810" />
  <path
     style="stroke-width:0.1"
     d="m 353.2,345 c -5,4.7 -0.6,14 5.8,12.5 6,-1.4 8,-8.8 3.4,-12.4 -3.4,-2.7 -6.4,-2.7 -9.2,-0.1 z"
     id="path8812" />
  <path
     style="stroke-width:0.1"
     d="m 394.5,345.5 c -2.8,2.7 -3,4.2 -1.4,7.9 1.6,3.4 5.8,5.1 9.1,3.5 2.6,-1.1 4.8,-4.6 4.8,-7.5 0,-2.4 -4.7,-6.4 -7.5,-6.4 -1.4,0 -3.7,1.1 -5,2.5 z"
     id="path8814" />
  <path
     style="stroke-width:0.1"
     d="m 436.6,345.1 c -5.2,4.1 -2.3,12.2 4.4,12.2 6.7,0 9.6,-8.1 4.4,-12.2 -1.5,-1.2 -3.4,-2.1 -4.4,-2.1 -1,0 -2.9,0.9 -4.4,2.1 z"
     id="path8816" />
  <path
     style="stroke-width:0.1"
     d="m 479.2,343.7 c -0.7,0.3 -1.9,1.8 -2.7,3.3 -4,7.7 7.1,14.7 12,7.7 4.2,-6 -2.4,-13.8 -9.3,-11 z"
     id="path8818" />
  <path
     style="stroke-width:0.1"
     d="m 519.5,345.5 c -4,3.9 -2.9,9.7 2.2,11.6 3.6,1.3 7.8,-0.5 9.3,-4 3.1,-7.5 -5.8,-13.4 -11.5,-7.6 z"
     id="path8820" />
  <path
     style="stroke-width:0.1"
     d="m 561.6,345.1 c -4.6,3.6 -2.6,11 3.4,12.4 6.4,1.5 10.8,-7.8 5.8,-12.5 -2.8,-2.6 -5.8,-2.6 -9.2,0.1 z"
     id="path8822" />
  <path
     style="stroke-width:0.1"
     d="m 603.2,345 c -5,4.7 -0.6,14 5.8,12.5 6,-1.4 8,-8.8 3.4,-12.4 -3.4,-2.7 -6.4,-2.7 -9.2,-0.1 z"
     id="path8824" />
  <path
     style="stroke-width:0.1"
     d="m 644.5,345.5 c -2.8,2.7 -3,4.2 -1.4,7.9 1.6,3.4 5.8,5.1 9.1,3.5 2.6,-1.1 4.8,-4.6 4.8,-7.5 0,-2.4 -4.7,-6.4 -7.5,-6.4 -1.4,0 -3.7,1.1 -5,2.5 z"
     id="path8826" />
  <path
     style="stroke-width:0.1"
     d="m 686.5,345.5 c -2.8,2.7 -3.2,6.1 -1,9.2 4.9,7 16,0 12,-7.6 -2.4,-4.8 -7.2,-5.5 -11,-1.6 z"
     id="path8828" />
  <path
     style="stroke-width:0.1"
     d="m 728.6,345.1 c -5,3.9 -2.2,12.2 4.2,12.2 6.9,0 9.9,-8 4.6,-12.2 -1.5,-1.2 -3.4,-2.1 -4.4,-2.1 -1,0 -2.9,0.9 -4.4,2.1 z"
     id="path8830" />
  <path
     style="stroke-width:0.1"
     d="m 770.7,344.2 c -4.1,3.2 -3.8,9.4 0.6,12.3 4.6,3 10.7,-0.6 10.7,-6.3 0,-5.1 -7.3,-9 -11.3,-6 z"
     id="path8832" />
  <path
     style="stroke-width:0.1"
     d="m 811.5,345.5 c -3.9,3.9 -3.2,8.6 1.7,11.1 5.9,3 12.2,-2.7 9.9,-8.9 -1.9,-5.1 -7.7,-6.2 -11.6,-2.2 z"
     id="path8834" />
  <path
     style="stroke-width:0.1"
     d="m 854.2,343.7 c -0.7,0.3 -1.9,1.8 -2.7,3.3 -4,7.7 7.1,14.7 12,7.7 4.2,-6 -2.4,-13.8 -9.3,-11 z"
     id="path8836" />
  <path
     style="stroke-width:0.1"
     d="m 894,345 c -3,3 -2.7,8.3 0.7,11 7,5.5 15.1,-4.2 8.8,-10.5 -2.9,-3 -6.8,-3.2 -9.5,-0.5 z"
     id="path8838" />
  <path
     style="stroke-width:0.1"
     d="m 936.7,344.1 c -4.8,2.8 -4,10.7 1.3,12.9 2.3,0.9 3.4,0.9 5.8,-0.4 4.9,-2.5 5.6,-7.2 1.7,-11.1 -2.5,-2.6 -5.8,-3.1 -8.8,-1.4 z"
     id="path8840" />
  <path
     style="stroke-width:0.1"
     d="m 977.5,345.5 c -2.8,2.7 -3.2,6.1 -1,9.2 4.7,6.6 15,0.8 12.3,-7 -1.8,-5.1 -7.4,-6.2 -11.3,-2.2 z"
     id="path8842" />
  <path
     style="stroke-width:0.1"
     d="m 1019.6,345.1 c -3.6,2.9 -3.6,8 0.1,10.9 4.7,3.7 11.3,0.2 11.3,-6 0,-3.1 -3.9,-7 -7,-7 -1,0 -2.9,0.9 -4.4,2.1 z"
     id="path8844" />
  <path
     style="stroke-width:0.1"
     d="m 1061.7,344.1 c -4.8,2.8 -4,10.7 1.3,12.9 2.3,0.9 3.4,0.9 5.8,-0.4 4.9,-2.5 5.6,-7.2 1.7,-11.1 -2.5,-2.6 -5.8,-3.1 -8.8,-1.4 z"
     id="path8846" />
  <path
     style="stroke-width:0.1"
     d="m 1102.6,345.1 c -4.6,3.6 -2.6,11 3.4,12.4 6.4,1.5 10.8,-7.8 5.8,-12.5 -2.8,-2.6 -5.8,-2.6 -9.2,0.1 z"
     id="path8848" />
  <path
     style="stroke-width:0.1"
     d="m 503.7,367.2 c -4.5,3.5 -3.7,10.1 1.6,12.6 2.2,1.1 3.1,1 5.5,-0.2 4.9,-2.5 5.6,-7.3 1.7,-11.1 -2.6,-2.7 -6.2,-3.2 -8.8,-1.3 z"
     id="path8850" />
  <path
     style="stroke-width:0.1"
     d="m 651.2,368.3 c -4.3,4.6 -1.5,12 4.6,12 4.3,0 7.2,-2.8 7.2,-7 0,-6.6 -7.4,-9.7 -11.8,-5 z"
     id="path8852" />
  <path
     style="stroke-width:0.1"
     d="m 1088.1,376.6 c -1.2,1.5 -2.1,3.4 -2.1,4.4 0,3.4 3.9,7 7.5,7 3.6,0 7.5,-3.6 7.5,-7 0,-3.4 -3.9,-7 -7.5,-7 -2.4,0 -3.9,0.7 -5.4,2.6 z"
     id="path8854" />
  <path
     style="stroke-width:0.1"
     d="m 30,380.2 c -2.7,2.9 -2.5,6.9 0.3,9.6 4.6,4.3 12,1.5 12,-4.6 0,-6.6 -7.8,-9.8 -12.3,-5 z"
     id="path8856" />
  <path
     style="stroke-width:0.1"
     d="m 577,380 c -1.1,1.1 -2,3.3 -2,5 0,1.7 0.9,3.9 2,5 1.1,1.1 3.3,2 5,2 1.7,0 3.9,-0.9 5,-2 1.1,-1.1 2,-3.3 2,-5 0,-1.7 -0.9,-3.9 -2,-5 -1.1,-1.1 -3.3,-2 -5,-2 -1.7,0 -3.9,0.9 -5,2 z"
     id="path8858" />
  <path
     style="stroke-width:0.1"
     d="m 959.1,380.6 c -1.2,1.5 -2.1,3.4 -2.1,4.4 0,3.4 3.9,7 7.5,7 3.6,0 7.5,-3.6 7.5,-7 0,-3.4 -3.9,-7 -7.5,-7 -2.4,0 -3.9,0.7 -5.4,2.6 z"
     id="path8860" />
  <path
     style="stroke-width:0.1"
     d="m 155,384 c -6.1,6.1 2.7,15.4 9.8,10.4 2.8,-2 3.1,-8.3 0.4,-10.7 -2.5,-2.3 -7.8,-2.1 -10.2,0.3 z"
     id="path8862" />
  <path
     style="stroke-width:0.1"
     d="m 338.5,384 c -2.6,2.9 -2.4,7.9 0.4,10.2 7,5.6 16.4,-3.9 10.1,-10.2 -2.6,-2.6 -8.1,-2.6 -10.5,0 z"
     id="path8864" />
  <path
     style="stroke-width:0.1"
     d="m 729,388 c -4.2,4.2 -0.8,12 5.3,12 5.8,0 9.1,-8.5 4.9,-12.3 -2.5,-2.3 -7.8,-2.1 -10.2,0.3 z"
     id="path8866" />
  <path
     style="stroke-width:0.1"
     d="m 837,390.3 c -1.3,0.7 -3.1,2.4 -3.9,3.8 -3,5.3 3.6,11.7 9.4,9.1 5.5,-2.5 5.8,-10 0.5,-12.7 -3.5,-1.8 -2.9,-1.8 -6,-0.2 z"
     id="path8868" />
  <path
     style="stroke-width:0.1"
     d="m 93.7,395.2 c -3.8,3.4 -4,7.5 -0.5,10.8 2.9,2.7 6.4,2.5 9.3,-0.5 2.9,-2.8 3.2,-6.5 0.8,-9.3 -2.8,-3.3 -6.6,-3.7 -9.6,-1 z"
     id="path8870" />
  <path
     style="stroke-width:0.1"
     d="m 1049.5,399.5 c -2.7,2.6 -3.1,5.4 -1.5,8.5 4.2,7.9 16.3,2 12.9,-6.2 -2.1,-5.1 -7.6,-6.2 -11.4,-2.3 z"
     id="path8872" />
  <path
     style="stroke-width:0.1"
     d="m 198.5,403.5 c -4.3,4.2 -2.3,10.6 3.5,12 3.8,0.9 8,-2.7 8,-6.8 0,-3.8 -0.7,-5 -3.7,-6.6 -3.3,-1.7 -5.1,-1.4 -7.8,1.4 z"
     id="path8874" />
  <path
     style="stroke-width:0.1"
     d="m 448.6,403.1 c -3.6,2.8 -3.6,8 0,10.8 1.5,1.2 3.4,2.1 4.4,2.1 1,0 2.9,-0.9 4.4,-2.1 3.4,-2.7 3.6,-7.9 0.4,-10.9 -2.8,-2.6 -5.8,-2.6 -9.2,0.1 z"
     id="path8876" />
  <path
     style="stroke-width:0.1"
     d="m 921.7,402.1 c -4.8,2.8 -4,10.7 1.2,12.9 7.5,3.1 13.4,-5.8 7.6,-11.5 -2.5,-2.6 -5.8,-3.1 -8.8,-1.4 z"
     id="path8878" />
  <path
     style="stroke-width:0.1"
     d="m 635.1,427.6 c -1.2,1.5 -2.1,3.5 -2.1,4.6 0,2.7 4.5,6.8 7.5,6.8 3,0 7.5,-4.1 7.5,-6.8 0,-3.5 -3.8,-7.2 -7.5,-7.2 -2.4,0 -3.9,0.7 -5.4,2.6 z"
     id="path8880" />
  <path
     style="stroke-width:0.1"
     d="m 137.9,429.3 c -3.7,1.9 -5.3,6 -3.7,9.4 2.6,5.5 10.4,5.4 13,-0.2 2.6,-5.7 -3.7,-11.9 -9.3,-9.2 z"
     id="path8882" />
  <path
     style="stroke-width:0.1"
     d="m 286.3,433 c -4.8,1.9 -5.8,8.7 -1.7,11.9 3.4,2.7 6.4,2.7 9.2,0.1 5.7,-5.3 -0.3,-14.9 -7.5,-12 z"
     id="path8884" />
  <path
     style="stroke-width:0.1"
     d="m 532.3,433 c -4.8,1.9 -5.8,8.7 -1.7,11.9 3.5,2.7 6.5,2.7 9.2,-0.2 5.4,-5.7 -0.3,-14.5 -7.5,-11.7 z"
     id="path8886" />
  <path
     style="stroke-width:0.1"
     d="m 434,437.3 c -5.2,2.6 -4.9,10.4 0.5,12.9 8.1,3.7 14.3,-8.7 6.4,-12.7 -3.4,-1.8 -3.7,-1.8 -6.9,-0.2 z"
     id="path8888" />
  <path
     style="stroke-width:0.1"
     d="m 374.6,442.1 c -3.6,2.8 -3.6,8 0,10.8 3.5,2.7 5.9,2.6 8.9,-0.4 3.4,-3.3 3.3,-7.7 -0.1,-10.4 -1.5,-1.2 -3.4,-2.1 -4.4,-2.1 -1,0 -2.9,0.9 -4.4,2.1 z"
     id="path8890" />
  <path
     style="stroke-width:0.1"
     d="m 807.5,442.5 c -1.4,1.3 -2.5,3.6 -2.5,5 0,2.8 4,7.5 6.4,7.5 2.9,0 6.4,-2.2 7.5,-4.8 1.6,-3.3 -0.1,-7.5 -3.5,-9.1 -3.7,-1.6 -5.2,-1.4 -7.9,1.4 z"
     id="path8892" />
  <path
     style="stroke-width:0.1"
     d="m 1061.6,442.1 c -3.4,2.7 -3.5,7.1 -0.1,10.4 3,3 5.4,3.1 8.9,0.4 1.9,-1.5 2.6,-3 2.6,-5.4 0,-3.6 -3.6,-7.5 -7,-7.5 -1,0 -2.9,0.9 -4.4,2.1 z"
     id="path8894" />
  <path
     style="stroke-width:0.1"
     d="m 733.6,446.1 c -4.6,3.6 -2.6,11 3.4,12.4 6.4,1.5 10.8,-7.8 5.8,-12.5 -2.8,-2.6 -5.8,-2.6 -9.2,0.1 z"
     id="path8896" />
  <path
     style="stroke-width:0.1"
     d="m 932.2,454.3 c -4.5,4.8 -1.4,11.7 5.1,11.7 4.2,0 7,-2.9 7,-7.2 0,-6.1 -7.8,-9.1 -12.1,-4.5 z"
     id="path8898" />
  <path
     style="stroke-width:0.1"
     d="m 18.1,458.6 c -1.2,1.5 -2.1,3.4 -2.1,4.4 0,3.4 3.9,7 7.5,7 3.6,0 7.5,-3.6 7.5,-7 0,-3.4 -3.9,-7 -7.5,-7 -2.4,0 -3.9,0.7 -5.4,2.6 z"
     id="path8900" />
  <path
     style="stroke-width:0.1"
     d="m 987,458 c -4.3,4.3 -1.1,12 5,12 3.8,0 7,-3.2 7,-7 0,-3.8 -3.2,-7 -7,-7 -1.7,0 -3.9,0.9 -5,2 z"
     id="path8902" />
  <path
     style="stroke-width:0.1"
     d="m 228.5,460.5 c -3,2.9 -3.2,6.8 -0.5,9.5 4.7,4.7 12.3,1.5 12.3,-5.1 0,-6.3 -7.2,-9 -11.8,-4.4 z"
     id="path8904" />
  <path
     style="stroke-width:0.1"
     d="m 81,462 c -1.1,1.1 -2,3.3 -2,5 0,5.9 6.7,9 11.8,5.4 2.8,-2 3.1,-8.3 0.4,-10.7 -2.5,-2.3 -7.8,-2.1 -10.2,0.3 z"
     id="path8906" />
  <path
     style="stroke-width:0.1"
     d="m 25.5,485.5 c -3.4,3.3 -3.3,7.7 0.1,10.4 1.5,1.2 3.4,2.1 4.4,2.1 3.4,0 7,-3.9 7,-7.5 0,-2.4 -0.7,-3.9 -2.6,-5.4 -3.5,-2.7 -5.9,-2.6 -8.9,0.4 z"
     id="path8908" />
  <path
     style="stroke-width:0.1"
     d="m 67.6,485.1 c -3.6,2.8 -3.6,8 0,10.8 1.5,1.2 3.5,2.1 4.6,2.1 2.7,0 6.8,-4.5 6.8,-7.5 0,-3 -4.1,-7.5 -6.8,-7.5 -1.1,0 -3.1,0.9 -4.6,2.1 z"
     id="path8910" />
  <path
     style="stroke-width:0.1"
     d="m 110.3,484.2 c -3.5,1.7 -4.8,6 -2.9,9.6 3.5,6.8 13.6,4.1 13.6,-3.6 0,-4.7 -6.3,-8.2 -10.7,-6 z"
     id="path8912" />
  <path
     style="stroke-width:0.1"
     d="m 150.5,485.5 c -1.4,1.3 -2.5,3.6 -2.5,5 0,2.8 4,7.5 6.4,7.5 7.8,0 10.9,-10.7 4,-13.9 -3.7,-1.6 -5.2,-1.4 -7.9,1.4 z"
     id="path8914" />
  <path
     style="stroke-width:0.1"
     d="m 192.6,485.1 c -1.9,1.5 -2.6,3 -2.6,5.4 0,3.6 3.6,7.5 7,7.5 3.4,0 7,-3.9 7,-7.5 0,-3.6 -3.6,-7.5 -7,-7.5 -1,0 -2.9,0.9 -4.4,2.1 z"
     id="path8916" />
  <path
     style="stroke-width:0.1"
     d="m 235.3,484.2 c -3.5,1.7 -4.8,6 -2.9,9.6 3.5,6.8 13.6,4.1 13.6,-3.6 0,-4.7 -6.3,-8.2 -10.7,-6 z"
     id="path8918" />
  <path
     style="stroke-width:0.1"
     d="m 277.2,484 c -7.7,3.1 -3.4,15.3 4.8,13.5 6.5,-1.4 7.4,-10.6 1.4,-13.4 -2.9,-1.3 -3.1,-1.3 -6.2,-0.1 z"
     id="path8920" />
  <path
     style="stroke-width:0.1"
     d="m 317.6,485.1 c -3.6,2.8 -3.6,8 0,10.8 1.5,1.2 3.4,2.1 4.4,2.1 3.4,0 7,-3.9 7,-7.5 0,-3.6 -3.6,-7.5 -7,-7.5 -1,0 -2.9,0.9 -4.4,2.1 z"
     id="path8922" />
  <path
     style="stroke-width:0.1"
     d="m 360.3,484.2 c -2.8,1.4 -4.3,5.5 -3.1,8.9 0.9,2.6 4.4,4.9 7.4,4.9 2.4,0 6.4,-4.7 6.4,-7.5 0,-3 -4.1,-7.5 -6.7,-7.4 -1,0 -2.8,0.5 -4,1.1 z"
     id="path8924" />
  <path
     style="stroke-width:0.1"
     d="m 402.2,484 c -7.7,3.1 -3.4,15.3 4.8,13.5 6.5,-1.4 7.4,-10.6 1.4,-13.4 -2.9,-1.3 -3.1,-1.3 -6.2,-0.1 z"
     id="path8926" />
  <path
     style="stroke-width:0.1"
     d="m 442.6,485.1 c -3.6,2.8 -3.6,8 0,10.8 1.5,1.2 3.4,2.1 4.4,2.1 3.4,0 7,-3.9 7,-7.5 0,-3.6 -3.6,-7.5 -7,-7.5 -1,0 -2.9,0.9 -4.4,2.1 z"
     id="path8928" />
  <path
     style="stroke-width:0.1"
     d="m 485.3,484.2 c -3.5,1.7 -4.8,6 -2.9,9.6 3.5,6.8 13.6,4.1 13.6,-3.6 0,-4.7 -6.3,-8.2 -10.7,-6 z"
     id="path8930" />
  <path
     style="stroke-width:0.1"
     d="m 525.5,485.5 c -1.4,1.3 -2.5,3.6 -2.5,5 0,2.8 4,7.5 6.4,7.5 7.8,0 10.9,-10.7 4,-13.9 -3.7,-1.6 -5.2,-1.4 -7.9,1.4 z"
     id="path8932" />
  <path
     style="stroke-width:0.1"
     d="m 567.6,485.1 c -1.9,1.5 -2.6,3 -2.6,5.4 0,3.6 3.6,7.5 7,7.5 3.4,0 7,-3.9 7,-7.5 0,-3.6 -3.6,-7.5 -7,-7.5 -1,0 -2.9,0.9 -4.4,2.1 z"
     id="path8934" />
  <path
     style="stroke-width:0.1"
     d="m 610.3,484.2 c -2.8,1.4 -4.3,5.5 -3.1,8.9 0.9,2.6 4.4,4.9 7.4,4.9 2.4,0 6.4,-4.7 6.4,-7.5 0,-3 -4.1,-7.5 -6.7,-7.4 -1,0 -2.8,0.5 -4,1.1 z"
     id="path8936" />
  <path
     style="stroke-width:0.1"
     d="m 652.2,484 c -7.7,3.1 -3.4,15.3 4.8,13.5 6.5,-1.4 7.4,-10.6 1.4,-13.4 -2.9,-1.3 -3.1,-1.3 -6.2,-0.1 z"
     id="path8938" />
  <path
     style="stroke-width:0.1"
     d="m 692.5,485.5 c -1.4,1.3 -2.5,3.6 -2.5,5 0,3 4.1,7.5 6.8,7.5 3.5,0 7.2,-3.8 7.2,-7.5 0,-2.4 -0.7,-3.9 -2.6,-5.4 -3.5,-2.7 -5.9,-2.6 -8.9,0.4 z"
     id="path8940" />
  <path
     style="stroke-width:0.1"
     d="m 734.6,485.1 c -1.9,1.5 -2.6,3 -2.6,5.4 0,3.6 3.6,7.5 7,7.5 3.4,0 7,-3.9 7,-7.5 0,-3.6 -3.6,-7.5 -7,-7.5 -1,0 -2.9,0.9 -4.4,2.1 z"
     id="path8942" />
  <path
     style="stroke-width:0.1"
     d="m 777.3,484.2 c -1.2,0.6 -2.7,2.3 -3.3,3.8 -2.4,5.8 4.4,12 9.9,9 4.6,-2.4 5.3,-7.8 1.6,-11.5 -2.6,-2.7 -4.7,-3 -8.2,-1.3 z"
     id="path8944" />
  <path
     style="stroke-width:0.1"
     d="m 817.5,485.5 c -1.4,1.3 -2.5,3.6 -2.5,5 0,2.8 4,7.5 6.4,7.5 2.9,0 6.4,-2.2 7.5,-4.8 1.6,-3.3 -0.1,-7.5 -3.5,-9.1 -3.7,-1.6 -5.2,-1.4 -7.9,1.4 z"
     id="path8946" />
  <path
     style="stroke-width:0.1"
     d="m 860.3,484.2 c -3.5,1.7 -4.8,6 -2.9,9.6 3.5,6.8 13.6,4.1 13.6,-3.6 0,-4.7 -6.3,-8.2 -10.7,-6 z"
     id="path8948" />
  <path
     style="stroke-width:0.1"
     d="m 901.4,484.2 c -6.9,3.3 -3.7,13.8 4.2,13.8 2.4,0 6.4,-4.7 6.4,-7.5 0,-3 -4.1,-7.5 -6.7,-7.4 -1,0 -2.8,0.5 -3.9,1.1 z"
     id="path8950" />
  <path
     style="stroke-width:0.1"
     d="m 943.3,484 c -4.7,1.9 -5.6,7.8 -1.8,11.5 4.7,4.8 11.9,1.9 11.9,-4.9 0,-2 -0.7,-4.3 -1.4,-5 -2,-2 -6,-2.7 -8.7,-1.6 z"
     id="path8952" />
  <path
     style="stroke-width:0.1"
     d="m 983.5,485.5 c -1.4,1.3 -2.5,3.6 -2.5,5 0,3 4.1,7.5 6.8,7.5 3.5,0 7.2,-3.8 7.2,-7.5 0,-2.4 -0.7,-3.9 -2.6,-5.4 -3.5,-2.7 -5.9,-2.6 -8.9,0.4 z"
     id="path8954" />
  <path
     style="stroke-width:0.1"
     d="m 1025.6,485.1 c -1.9,1.5 -2.6,3 -2.6,5.4 0,3.7 3.7,7.5 7.2,7.5 2.7,0 6.8,-4.5 6.8,-7.5 0,-3 -4.1,-7.5 -6.8,-7.5 -1.1,0 -3.1,0.9 -4.6,2.1 z"
     id="path8956" />
  <path
     style="stroke-width:0.1"
     d="m 1068.2,484 c -2.2,0.9 -4.2,4.6 -4.2,7.6 0,2.4 4.7,6.4 7.5,6.4 1.4,0 3.7,-1.1 5.2,-2.6 2,-2 2.4,-3.1 1.9,-5.7 -0.4,-1.7 -1.2,-3.7 -1.9,-4.4 -1.8,-1.7 -5.9,-2.4 -8.5,-1.3 z"
     id="path8958" />
  <path
     style="stroke-width:0.1"
     d="m 1108.6,485.1 c -1.9,1.5 -2.6,3 -2.6,5.4 0,3.6 3.6,7.5 7,7.5 3.4,0 7,-3.9 7,-7.5 0,-3.6 -3.6,-7.5 -7,-7.5 -1,0 -2.9,0.9 -4.4,2.1 z"
     id="path8960" />
  <path
     style="stroke-width:0.1"
     d="m 807,509 c -2.6,2.6 -2.5,6 0.1,9.4 2.5,3.1 6.6,3.5 10,0.8 2.8,-2.3 3,-7.3 0.4,-10.2 -2.4,-2.6 -7.9,-2.6 -10.5,0 z"
     id="path8962" />
  <path
     style="stroke-width:0.1"
     d="m 754.3,515.2 c -6.8,3.3 -4,13.8 3.7,13.8 2.8,0 7,-4.4 7,-7.3 0,-5.1 -6.1,-8.8 -10.7,-6.5 z"
     id="path8964" />
  <path
     style="stroke-width:0.1"
     d="m 30.5,520.5 c -3.2,3.1 -3.2,6.9 0,10 2.7,2.8 4.2,3 7.9,1.4 5,-2.3 5.1,-10.5 0,-12.8 -3.7,-1.6 -5.2,-1.4 -7.9,1.4 z"
     id="path8966" />
  <path
     style="stroke-width:0.1"
     d="m 465.4,519.1 c -3.2,1.6 -4.8,5.6 -3.4,8.9 1.1,2.7 4.6,5 7.6,5 2.3,0 6.4,-4.7 6.4,-7.3 0,-5.1 -6.1,-8.8 -10.6,-6.6 z"
     id="path8968" />
  <path
     style="stroke-width:0.1"
     d="m 608.5,520.5 c -1.4,1.3 -2.5,3.6 -2.5,5 0,3 4.1,7.5 6.8,7.5 3.5,0 7.2,-3.8 7.2,-7.5 0,-2.4 -0.7,-3.9 -2.6,-5.4 -3.5,-2.7 -5.9,-2.6 -8.9,0.4 z"
     id="path8970" />
  <path
     style="stroke-width:0.1"
     d="m 1085,520.7 c -7.6,2.7 -5.8,14.3 2.1,14.3 5.5,0 9.2,-8.7 5.2,-12.2 -2.2,-1.9 -5.3,-2.8 -7.3,-2.1 z"
     id="path8972" />
  <path
     style="stroke-width:0.1"
     d="m 81.6,524.1 c -3.6,2.8 -3.6,8 0,10.8 1.5,1.2 3.4,2.1 4.4,2.1 3.4,0 7,-3.9 7,-7.5 0,-3.6 -3.6,-7.5 -7,-7.5 -1,0 -2.9,0.9 -4.4,2.1 z"
     id="path8974" />
  <path
     style="stroke-width:0.1"
     d="m 155.5,524.5 c -1.4,1.3 -2.5,3.6 -2.5,5 0,3 4.1,7.5 6.8,7.5 3.5,0 7.2,-3.8 7.2,-7.3 0,-3.8 -0.7,-5 -3.7,-6.6 -3.3,-1.7 -5.1,-1.4 -7.8,1.4 z"
     id="path8976" />
  <path
     style="stroke-width:0.1"
     d="m 258.3,523.2 c -2.7,1.3 -4.3,5.5 -3.2,8.4 0.9,2.6 4.7,5.4 7.2,5.4 2.6,0 6.7,-4.5 6.7,-7.5 0,-3 -4.1,-7.5 -6.7,-7.4 -1,0 -2.8,0.5 -4,1.1 z"
     id="path8978" />
  <path
     style="stroke-width:0.1"
     d="m 401.5,524.5 c -1.4,1.3 -2.5,3.6 -2.5,5 0,3 4.1,7.5 6.8,7.5 3.5,0 7.2,-3.8 7.2,-7.3 0,-3.8 -0.7,-5 -3.7,-6.6 -3.3,-1.7 -5.1,-1.4 -7.8,1.4 z"
     id="path8980" />
  <path
     style="stroke-width:0.1"
     d="m 940.2,525.7 c -5.2,4.4 -2.4,12.3 4.4,12.3 6.8,0 9.7,-6.8 4.9,-11.5 -2.8,-2.9 -6.5,-3.2 -9.3,-0.8 z"
     id="path8982" />
  <path
     style="stroke-width:0.1"
     d="m 331.2,532 c -4.8,4.5 -1.6,12.3 5,12.3 6.1,0 9.1,-7.8 4.5,-12.1 -2.9,-2.8 -6.7,-2.8 -9.5,-0.2 z"
     id="path8984" />
  <path
     style="stroke-width:0.1"
     d="m 671.3,531.5 c -6.6,4.7 -0.8,15 7,12.3 5.1,-1.8 6.2,-7.4 2.2,-11.3 -2.7,-2.8 -6.1,-3.2 -9.2,-1 z"
     id="path8986" />
  <path
     style="stroke-width:0.1"
     d="m 983,548 c -4.3,4.3 -1.1,12 5,12 5.9,0 9,-6.7 5.4,-11.8 -2,-2.9 -7.6,-3 -10.4,-0.2 z"
     id="path8988" />
  <path
     style="stroke-width:0.1"
     d="m 555.3,554.2 c -1.2,0.6 -2.7,2.4 -3.4,4 -3.4,8.3 8.6,13.6 13,5.7 1.9,-3.3 0.1,-8.1 -3.5,-9.8 -2.9,-1.3 -3.2,-1.3 -6.1,0.1 z"
     id="path8990" />
  <path
     style="stroke-width:0.1"
     d="m 904,553.7 c -7.6,2.7 -5.8,14.3 2.1,14.3 5.5,0 9.2,-8.7 5.2,-12.2 -2.2,-1.9 -5.3,-2.8 -7.3,-2.1 z"
     id="path8992" />
  <path
     style="stroke-width:0.1"
     d="m 807,557 c -4.3,4.3 -1.1,12 5,12 1.7,0 3.9,-0.9 5,-2 2.6,-2.6 2.6,-8.1 0.2,-10.3 -2.5,-2.3 -7.8,-2.1 -10.2,0.3 z"
     id="path8994" />
  <path
     style="stroke-width:0.1"
     d="m 745.7,559 c -7.2,5.7 0.8,16.7 8.1,11.3 5.1,-3.8 3.4,-11.4 -2.8,-12.8 -1.8,-0.4 -3.4,0 -5.3,1.5 z"
     id="path8996" />
  <path
     style="stroke-width:0.1"
     d="m 1039.2,558.6 c -6.3,4.4 -3.7,13.4 3.9,13.4 2.8,0 6.9,-4.4 6.9,-7.3 0,-5.5 -6.5,-9.2 -10.8,-6.1 z"
     id="path8998" />
  <path
     style="stroke-width:0.1"
     d="m 210.2,571 c -4.8,4.5 -1.6,12.3 5,12.3 6.4,0 9.2,-8.3 4.2,-12.2 -3.4,-2.7 -6.4,-2.7 -9.2,-0.1 z"
     id="path9000" />
  <path
     style="stroke-width:0.1"
     d="m 381.9,574.8 c -4.9,4 -1.7,12.2 4.8,12.2 6.7,0 9.6,-6.8 4.8,-11.5 -2.9,-3 -6.4,-3.2 -9.6,-0.7 z"
     id="path9002" />
  <path
     style="stroke-width:0.1"
     d="m 475.5,575.5 c -3,2.9 -3.2,6.4 -0.5,9.3 3,3.2 8.2,3 11,-0.5 5.5,-7 -4.2,-15.1 -10.5,-8.8 z"
     id="path9004" />
  <path
     style="stroke-width:0.1"
     d="m 69.1,579.6 c -2.7,3.4 -2.7,6.4 -0.1,9.2 4.5,4.8 12.3,1.6 12.3,-5 0,-6.4 -8.3,-9.2 -12.2,-4.2 z"
     id="path9006" />
  <path
     style="stroke-width:0.1"
     d="m 132.2,578.6 c -2.8,2 -3.1,8.3 -0.4,10.7 2.5,2.3 7.8,2.1 10.2,-0.3 6.1,-6.1 -2.7,-15.4 -9.8,-10.4 z"
     id="path9008" />
  <path
     style="stroke-width:0.1"
     d="m 682.1,583.6 c -1.2,1.5 -2.1,3.4 -2.1,4.4 0,1 0.9,2.9 2.1,4.4 4.1,5.2 12.2,2.3 12.2,-4.4 0,-6.7 -8.1,-9.6 -12.2,-4.4 z"
     id="path9010" />
  <path
     style="stroke-width:0.1"
     d="m 1104,583 c -4.3,4.3 -1.1,12 5,12 3.8,0 7,-3.2 7,-7 0,-3.8 -3.2,-7 -7,-7 -1.7,0 -3.9,0.9 -5,2 z"
     id="path9012" />
  <path
     style="stroke-width:0.1"
     d="m 311.1,587.6 c -1.2,1.5 -2.1,3.4 -2.1,4.4 0,3.4 3.9,7 7.5,7 3.6,0 7.5,-3.6 7.5,-7 0,-3.4 -3.9,-7 -7.5,-7 -2.4,0 -3.9,0.7 -5.4,2.6 z"
     id="path9014" />
  <path
     style="stroke-width:0.1"
     d="m 608,587 c -1.1,1.1 -2,3.3 -2,5 0,5.9 6.7,9 11.8,5.4 2.8,-2 3.1,-8.3 0.4,-10.7 -2.5,-2.3 -7.8,-2.1 -10.2,0.3 z"
     id="path9016" />
  <path
     style="stroke-width:0.1"
     d="m 854,587 c -1.1,1.1 -2,3.3 -2,5 0,5.9 6.7,9 11.8,5.4 2.8,-2 3.1,-8.3 0.4,-10.7 -2.5,-2.3 -7.8,-2.1 -10.2,0.3 z"
     id="path9018" />
  <path
     style="stroke-width:0.1"
     d="m 777,592 c -2.6,2.6 -2.6,8.1 -0.2,10.3 2.8,2.5 8.7,2.2 10.6,-0.5 5,-7.1 -4.3,-15.9 -10.4,-9.8 z"
     id="path9020" />
  <path
     style="stroke-width:0.1"
     d="m 249.6,598.1 c -5.2,4.1 -2.3,12.9 4.2,12.9 6.6,0 9.7,-8.9 4.6,-12.9 -1.5,-1.2 -3.4,-2.1 -4.4,-2.1 -1,0 -2.9,0.9 -4.4,2.1 z"
     id="path9022" />
  <path
     style="stroke-width:0.1"
     d="m 973,597.3 c -5.2,2.6 -4.9,10.4 0.4,12.8 8.1,3.7 13.8,-7.3 6.4,-12.5 -2.7,-1.9 -3.5,-2 -6.8,-0.3 z"
     id="path9024" />
  <path
     style="stroke-width:0.1"
     d="m 24,626 c -2.4,2.4 -2.6,6.7 -0.4,9.8 1.1,1.6 2.5,2.2 5.4,2.2 2.9,0 4.3,-0.6 5.4,-2.2 C 38,630.7 34.9,624 29,624 c -1.7,0 -3.9,0.9 -5,2 z"
     id="path9026" />
  <path
     style="stroke-width:0.1"
     d="m 66.2,625.7 c -3.2,2.7 -3.7,6.4 -1.2,9.6 2.8,3.5 8,3.7 11,0.5 5.8,-6.3 -3.2,-15.6 -9.8,-10.1 z"
     id="path9028" />
  <path
     style="stroke-width:0.1"
     d="m 107.1,626.6 c -2.4,3 -2.6,4.6 -1,7.7 1.6,3 2.8,3.7 6.6,3.7 4.1,0 7.7,-4.2 6.8,-8 -1.4,-6 -8.8,-8 -12.4,-3.4 z"
     id="path9030" />
  <path
     style="stroke-width:0.1"
     d="m 149.2,626.3 c -4.5,4.8 -1.4,11.7 5.1,11.7 4.2,0 6.7,-2.6 6.7,-6.8 0,-6.5 -7.4,-9.6 -11.8,-4.9 z"
     id="path9032" />
  <path
     style="stroke-width:0.1"
     d="m 191.1,625.8 c -2.8,2.2 -3.1,7.5 -0.6,10.2 2.4,2.6 7.9,2.6 10.5,0 6.2,-6.2 -3.1,-15.8 -9.9,-10.2 z"
     id="path9034" />
  <path
     style="stroke-width:0.1"
     d="m 232.1,626.6 c -2.4,3 -2.6,4.6 -1,7.7 1.6,3 2.8,3.7 6.6,3.7 2.2,0 3.8,-0.8 5.2,-2.6 2.7,-3.5 2.6,-5.9 -0.4,-8.9 -3.3,-3.4 -7.7,-3.3 -10.4,0.1 z"
     id="path9036" />
  <path
     style="stroke-width:0.1"
     d="m 274.2,626.3 c -4.5,4.8 -1.4,11.7 5.1,11.7 4.3,0 6.7,-2.6 6.7,-7.3 0,-6.3 -7.4,-9.1 -11.8,-4.4 z"
     id="path9038" />
  <path
     style="stroke-width:0.1"
     d="m 316,626 c -2.6,2.6 -2.6,8.1 -0.2,10.3 4.4,4 12.2,0.7 12.2,-5.1 0,-6 -7.8,-9.4 -12,-5.2 z"
     id="path9040" />
  <path
     style="stroke-width:0.1"
     d="m 357.5,626.5 c -3,3 -3.1,5.4 -0.4,8.9 1.5,1.9 3,2.6 5.4,2.6 3.7,0 7.5,-3.7 7.5,-7.2 0,-2.7 -4.5,-6.8 -7.5,-6.8 -1.4,0 -3.7,1.1 -5,2.5 z"
     id="path9042" />
  <path
     style="stroke-width:0.1"
     d="m 399.2,626.3 c -4.5,4.8 -1.4,11.7 5.1,11.7 4.3,0 6.7,-2.6 6.7,-7.3 0,-6.3 -7.4,-9.1 -11.8,-4.4 z"
     id="path9044" />
  <path
     style="stroke-width:0.1"
     d="m 441.1,625.8 c -2.8,2.2 -3.1,7.5 -0.6,10.2 2.4,2.6 7.9,2.6 10.5,0 6.2,-6.2 -3.1,-15.8 -9.9,-10.2 z"
     id="path9046" />
  <path
     style="stroke-width:0.1"
     d="m 482.5,626.5 c -2.8,2.7 -3.1,4.5 -1.4,7.8 1.6,3 2.8,3.7 6.6,3.7 3.5,0 7.3,-3.7 7.3,-7.2 0,-2.7 -4.5,-6.8 -7.5,-6.8 -1.4,0 -3.7,1.1 -5,2.5 z"
     id="path9048" />
  <path
     style="stroke-width:0.1"
     d="m 524.2,626.3 c -4.5,4.8 -1.4,11.7 5.1,11.7 4.2,0 6.7,-2.6 6.7,-6.8 0,-6.5 -7.4,-9.6 -11.8,-4.9 z"
     id="path9050" />
  <path
     style="stroke-width:0.1"
     d="m 566,626 c -2.6,2.6 -2.6,8.1 -0.2,10.3 4.4,4 12.2,0.7 12.2,-5.1 0,-6 -7.8,-9.4 -12,-5.2 z"
     id="path9052" />
  <path
     style="stroke-width:0.1"
     d="m 607.5,626.5 c -3,3 -3.1,5.4 -0.4,8.9 1.5,1.9 3,2.6 5.4,2.6 3.7,0 7.5,-3.7 7.5,-7.2 0,-2.7 -4.5,-6.8 -7.5,-6.8 -1.4,0 -3.7,1.1 -5,2.5 z"
     id="path9054" />
  <path
     style="stroke-width:0.1"
     d="m 649.2,626.3 c -4.5,4.8 -1.4,11.7 5.1,11.7 4.3,0 6.7,-2.6 6.7,-7.3 0,-6.3 -7.4,-9.1 -11.8,-4.4 z"
     id="path9056" />
  <path
     style="stroke-width:0.1"
     d="m 691,626 c -2.4,2.4 -2.6,6.7 -0.4,9.8 1.1,1.6 2.5,2.2 5.4,2.2 2.9,0 4.3,-0.6 5.4,-2.2 3.6,-5.1 0.5,-11.8 -5.4,-11.8 -1.7,0 -3.9,0.9 -5,2 z"
     id="path9058" />
  <path
     style="stroke-width:0.1"
     d="m 733.2,625.6 c -2.8,2 -3.1,8.3 -0.4,10.7 2.5,2.3 7.8,2.1 10.2,-0.3 6.1,-6.1 -2.7,-15.4 -9.8,-10.4 z"
     id="path9060" />
  <path
     style="stroke-width:0.1"
     d="m 774.5,626.5 c -3,3 -3.1,5.4 -0.4,8.9 1.5,1.9 3,2.6 5.4,2.6 3.7,0 7.5,-3.7 7.5,-7.2 0,-2.7 -4.5,-6.8 -7.5,-6.8 -1.4,0 -3.7,1.1 -5,2.5 z"
     id="path9062" />
  <path
     style="stroke-width:0.1"
     d="m 816.2,626.3 c -4.5,4.8 -1.4,11.7 5.1,11.7 4.2,0 6.7,-2.6 6.7,-6.8 0,-6.5 -7.4,-9.6 -11.8,-4.9 z"
     id="path9064" />
  <path
     style="stroke-width:0.1"
     d="m 857.5,626.5 c -2.8,2.7 -3.1,4.5 -1.4,7.8 1.6,3 2.8,3.7 6.6,3.7 3.5,0 7.3,-3.7 7.3,-7.2 0,-2.7 -4.5,-6.8 -7.5,-6.8 -1.4,0 -3.7,1.1 -5,2.5 z"
     id="path9066" />
  <path
     style="stroke-width:0.1"
     d="m 898.5,626.5 c -3,3 -3.1,5.4 -0.4,8.9 1.5,1.9 3,2.6 5.4,2.6 3.7,0 7.5,-3.7 7.5,-7.2 0,-2.7 -4.5,-6.8 -7.5,-6.8 -1.4,0 -3.7,1.1 -5,2.5 z"
     id="path9068" />
  <path
     style="stroke-width:0.1"
     d="m 940.1,626.6 c -4.1,5.3 -1.3,11.4 5.2,11.4 4.2,0 7,-2.9 7,-7.2 0,-6.4 -8.3,-9.2 -12.2,-4.2 z"
     id="path9070" />
  <path
     style="stroke-width:0.1"
     d="m 982,626 c -2.4,2.4 -2.6,6.7 -0.4,9.8 1.1,1.6 2.5,2.2 5.4,2.2 2.9,0 4.3,-0.6 5.4,-2.2 3.6,-5.1 0.5,-11.8 -5.4,-11.8 -1.7,0 -3.9,0.9 -5,2 z"
     id="path9072" />
  <path
     style="stroke-width:0.1"
     d="m 1024.2,625.7 c -3.2,2.7 -3.7,6.4 -1.2,9.6 2.8,3.5 8,3.7 11,0.5 5.8,-6.3 -3.2,-15.6 -9.8,-10.1 z"
     id="path9074" />
  <path
     style="stroke-width:0.1"
     d="m 1065.1,626.6 c -4.1,5.3 -1.3,11.4 5.2,11.4 4.2,0 7,-2.9 7,-7.2 0,-6.4 -8.3,-9.2 -12.2,-4.2 z"
     id="path9076" />
  <path
     style="stroke-width:0.1"
     d="m 1107,626 c -2.6,2.6 -2.6,8.1 -0.2,10.3 4.4,4 12.2,0.7 12.2,-5.1 0,-6 -7.8,-9.4 -12,-5.2 z"
     id="path9078" />
  <path
     style="stroke-width:0.1"
     d="m 284.6,649.1 c -3.6,2.8 -3.6,8 0,10.8 1.5,1.2 3.4,2.1 4.4,2.1 3.4,0 7,-3.9 7,-7.5 0,-3.6 -3.6,-7.5 -7,-7.5 -1,0 -2.9,0.9 -4.4,2.1 z"
     id="path9080" />
  <path
     style="stroke-width:0.1"
     d="m 366.6,649.1 c -3.6,2.8 -3.6,8 0,10.8 1.5,1.2 3.4,2.1 4.4,2.1 3.4,0 7,-3.9 7,-7.5 0,-3.6 -3.6,-7.5 -7,-7.5 -1,0 -2.9,0.9 -4.4,2.1 z"
     id="path9082" />
  <path
     style="stroke-width:0.1"
     d="m 585.8,648.4 c -1,0.7 -2.1,2.4 -2.6,3.7 -2.8,7.4 7.8,13 12.3,6.6 2.2,-3.1 1.8,-6.5 -1,-9.2 -2.6,-2.7 -6,-3.2 -8.7,-1.1 z"
     id="path9084" />
  <path
     style="stroke-width:0.1"
     d="m 52,653 c -2.6,2.6 -2.6,8.1 -0.2,10.3 2.8,2.5 8.7,2.2 10.6,-0.5 5,-7.1 -4.3,-15.9 -10.4,-9.8 z"
     id="path9086" />
  <path
     style="stroke-width:0.1"
     d="m 772.2,661.3 c -4.5,4.8 -1.4,11.7 5.1,11.7 4.2,0 6.7,-2.6 6.7,-6.8 0,-6.5 -7.4,-9.6 -11.8,-4.9 z"
     id="path9088" />
  <path
     style="stroke-width:0.1"
     d="m 991,661 c -2.6,2.6 -2.6,8.1 -0.2,10.3 4.4,4 12.2,0.7 12.2,-5.1 0,-6 -7.8,-9.4 -12,-5.2 z"
     id="path9090" />
  <path
     style="stroke-width:0.1"
     d="m 152,665 c -2.6,2.6 -2.6,8.1 -0.2,10.3 4.5,4 12.2,0.6 12.2,-5.3 0,-1.7 -0.9,-3.9 -2,-5 -1.1,-1.1 -3.3,-2 -5,-2 -1.7,0 -3.9,0.9 -5,2 z"
     id="path9092" />
  <path
     style="stroke-width:0.1"
     d="m 1078.1,665.6 c -1.2,1.5 -2.1,3.4 -2.1,4.4 0,3.4 3.9,7 7.5,7 3.6,0 7.5,-3.6 7.5,-7 0,-3.4 -3.9,-7 -7.5,-7 -2.4,0 -3.9,0.7 -5.4,2.6 z"
     id="path9094" />
  <path
     style="stroke-width:0.1"
     d="m 461,672 c -1.1,1.1 -2,3.3 -2,5 0,1.7 0.9,3.9 2,5 1.1,1.1 3.3,2 5,2 1.7,0 3.9,-0.9 5,-2 1.1,-1.1 2,-3.3 2,-5 0,-1.7 -0.9,-3.9 -2,-5 -1.1,-1.1 -3.3,-2 -5,-2 -1.7,0 -3.9,0.9 -5,2 z"
     id="path9096" />
  <path
     style="stroke-width:0.1"
     d="m 899.3,675 c -4.6,1.9 -5.7,8.3 -2,11.8 4.8,4.5 11.7,1.4 11.7,-5.1 0,-5.1 -5,-8.6 -9.7,-6.7 z"
     id="path9098" />
  <path
     style="stroke-width:0.1"
     d="m 684,683.3 c -5.2,2.6 -4.9,10.4 0.4,12.8 3.6,1.7 7.3,0.3 9.2,-3.2 1.9,-3.8 0.6,-8 -3.2,-9.8 -3.1,-1.4 -3.3,-1.4 -6.4,0.2 z"
     id="path9100" />
  <path
     style="stroke-width:0.1"
     d="m 347.7,691.1 c -4.8,2.8 -4,10.7 1.3,12.9 2.3,0.9 3.4,0.9 5.8,-0.4 4.9,-2.5 5.6,-7.2 1.7,-11.1 -2.5,-2.6 -5.8,-3.1 -8.8,-1.4 z"
     id="path9102" />
  <path
     style="stroke-width:0.1"
     d="m 541.9,695.8 c -2.9,2.4 -3,7.5 -0.1,10.4 2.9,2.9 8,2.8 10.4,-0.1 5.6,-7 -3.3,-15.9 -10.3,-10.3 z"
     id="path9104" />
  <path
     style="stroke-width:0.1"
     d="m 838.5,696.5 c -2.8,2.7 -3,4.2 -1.4,7.9 3.2,6.9 13.9,3.8 13.9,-4 0,-2.4 -4.7,-6.4 -7.5,-6.4 -1.4,0 -3.7,1.1 -5,2.5 z"
     id="path9106" />
  <path
     style="stroke-width:0.1"
     d="m 110,700 c -4.2,4.2 -0.8,12 5.3,12 5.8,0 9.1,-8.5 4.9,-12.3 -2.5,-2.3 -7.8,-2.1 -10.2,0.3 z"
     id="path9108" />
  <path
     style="stroke-width:0.1"
     d="m 210,700 c -2.6,2.6 -2.6,8.1 -0.2,10.3 4.4,4 12.2,0.7 12.2,-5.1 0,-6 -7.8,-9.4 -12,-5.2 z"
     id="path9110" />
  <path
     style="stroke-width:0.1"
     d="m 620.2,707.6 c -2.9,2 -3,7.6 -0.2,10.4 4.3,4.3 12,1.1 12,-5 0,-5.9 -6.7,-9 -11.8,-5.4 z"
     id="path9112" />
  <path
     style="stroke-width:0.1"
     d="m 749.7,707.8 c -2.5,2.8 -2.2,8.7 0.5,10.6 7.1,5 15.9,-4.3 9.8,-10.4 -2.6,-2.6 -8.1,-2.6 -10.3,-0.2 z"
     id="path9114" />
  <path
     style="stroke-width:0.1"
     d="m 1030.2,707.6 c -2.9,2 -3,7.6 -0.2,10.4 4.3,4.3 12,1.1 12,-5 0,-5.9 -6.7,-9 -11.8,-5.4 z"
     id="path9116" />
  <path
     style="stroke-width:0.1"
     d="m 41.7,715.8 c -4,4.5 -0.6,12.2 5.3,12.2 5.9,0 9,-6.7 5.4,-11.8 -2,-2.8 -8.3,-3.1 -10.7,-0.4 z"
     id="path9118" />
  <path
     style="stroke-width:0.1"
     d="m 499.2,724.3 c -4.5,4.8 -1.4,11.7 5.1,11.7 4.2,0 6.7,-2.6 6.7,-6.8 0,-6.5 -7.4,-9.6 -11.8,-4.9 z"
     id="path9120" />
  <path
     style="stroke-width:0.1"
     d="m 974.1,724.6 c -2.7,3.4 -2.7,6.4 -0.1,9.2 4.7,5 14,0.6 12.5,-5.8 -1.4,-6 -8.8,-8 -12.4,-3.4 z"
     id="path9122" />
  <path
     style="stroke-width:0.1"
     d="m 1082.4,726.2 c -6.9,3.3 -3.7,13.8 4.2,13.8 2.4,0 6.4,-4.7 6.4,-7.5 0,-3 -4.1,-7.5 -6.7,-7.4 -1,0 -2.8,0.5 -3.9,1.1 z"
     id="path9124" />
  <path
     style="stroke-width:0.1"
     d="m 256,731 c -1.1,1.1 -2,3.3 -2,5 0,1.7 0.9,3.9 2,5 1.1,1.1 3.3,2 5,2 1.7,0 3.9,-0.9 5,-2 1.1,-1.1 2,-3.3 2,-5 0,-1.7 -0.9,-3.9 -2,-5 -1.1,-1.1 -3.3,-2 -5,-2 -1.7,0 -3.9,0.9 -5,2 z"
     id="path9126" />
  <path
     style="stroke-width:0.1"
     d="m 339.1,731.6 c -1.2,1.5 -2.1,3.4 -2.1,4.4 0,3.4 3.9,7 7.5,7 4.3,0 7.9,-4.1 7,-8 -1.4,-6 -8.8,-8 -12.4,-3.4 z"
     id="path9128" />
  <path
     style="stroke-width:0.1"
     d="m 801.2,731.3 c -4.5,4.8 -1.4,11.7 5.1,11.7 4.3,0 6.7,-2.6 6.7,-7.3 0,-6.3 -7.4,-9.1 -11.8,-4.4 z"
     id="path9130" />
  <path
     style="stroke-width:0.1"
     d="m 928.5,735.5 c -3.9,3.8 -3.2,8.6 1.6,11 7.6,4 14.6,-7.1 7.6,-12 -3.1,-2.2 -6.5,-1.8 -9.2,1 z"
     id="path9132" />
  <path
     style="stroke-width:0.1"
     d="m 425.2,738.7 c -5.2,4.4 -2.4,12.3 4.4,12.3 6.8,0 9.7,-6.8 4.9,-11.5 -2.8,-2.9 -6.5,-3.2 -9.3,-0.8 z"
     id="path9134" />
  <path
     style="stroke-width:0.1"
     d="m 674.5,739.5 c -3,3 -3.1,5.4 -0.4,8.9 2,2.6 6.9,3.6 9.5,1.8 1.5,-1 3.4,-4.7 3.4,-6.7 0,-2.5 -4.6,-6.5 -7.5,-6.5 -1.4,0 -3.7,1.1 -5,2.5 z"
     id="path9136" />
  <path
     style="stroke-width:0.1"
     d="m 128,743 c -2.6,2.6 -2.6,8.1 -0.2,10.3 4.4,4 12.2,0.6 12.2,-5.3 0,-6 -7.8,-9.2 -12,-5 z"
     id="path9138" />
  <path
     style="stroke-width:0.1"
     d="M 23.6,768.2 C 20,773.3 23.1,780 29,780 c 5.9,0 9,-6.7 5.4,-11.8 -2.1,-3.1 -8.7,-3.1 -10.8,0 z"
     id="path9140" />
  <path
     style="stroke-width:0.1"
     d="m 65,768.7 c -3.7,4.7 -0.2,11.3 6,11.3 3.3,0 7,-4 7,-7.4 0,-6.3 -9,-8.9 -13,-3.9 z"
     id="path9142" />
  <path
     style="stroke-width:0.1"
     d="m 107.6,767.6 c -4.3,4.3 -1.9,11.6 4.1,12.2 6.2,0.6 10.1,-6.2 6.3,-11.1 -2.5,-3.1 -7.8,-3.7 -10.4,-1.1 z"
     id="path9144" />
  <path
     style="stroke-width:0.1"
     d="m 149,768 c -1.1,1.1 -2,3.3 -2,5 0,1.7 0.9,3.9 2,5 4.5,4.5 12,1.1 12,-5.3 0,-2 -0.8,-4.1 -1.8,-5 -2.5,-2.3 -7.8,-2.1 -10.2,0.3 z"
     id="path9146" />
  <path
     style="stroke-width:0.1"
     d="m 190.5,768 c -2.5,2.7 -2.2,8 0.6,10.2 6.8,5.6 16.1,-4 9.9,-10.2 -2.6,-2.6 -8.1,-2.6 -10.5,0 z"
     id="path9148" />
  <path
     style="stroke-width:0.1"
     d="m 232.1,768.6 c -1.2,1.5 -2.1,3.4 -2.1,4.4 0,3.2 3.9,7 7.1,7 3.4,0 7.9,-3.9 7.9,-6.8 0,-3.5 -3.8,-7.2 -7.5,-7.2 -2.4,0 -3.9,0.7 -5.4,2.6 z"
     id="path9150" />
  <path
     style="stroke-width:0.1"
     d="m 274,768 c -6.1,6.1 2.7,15.4 9.8,10.4 2.8,-2 3.1,-8.3 0.4,-10.7 -2.5,-2.3 -7.8,-2.1 -10.2,0.3 z"
     id="path9152" />
  <path
     style="stroke-width:0.1"
     d="m 315.7,767.8 c -4,4.4 -0.7,12.2 5.1,12.2 6,0 9.4,-7.8 5.2,-12 -2.6,-2.6 -8.1,-2.6 -10.3,-0.2 z"
     id="path9154" />
  <path
     style="stroke-width:0.1"
     d="m 357.1,768.6 c -1.2,1.5 -2.1,3.5 -2.1,4.6 0,2.7 4.5,6.8 7.5,6.8 3,0 7.5,-4.1 7.5,-6.8 0,-3.5 -3.8,-7.2 -7.5,-7.2 -2.4,0 -3.9,0.7 -5.4,2.6 z"
     id="path9156" />
  <path
     style="stroke-width:0.1"
     d="m 399,768 c -6.1,6.1 2.7,15.4 9.8,10.4 2.8,-2 3.1,-8.3 0.4,-10.7 -2.5,-2.3 -7.8,-2.1 -10.2,0.3 z"
     id="path9158" />
  <path
     style="stroke-width:0.1"
     d="m 440.5,768 c -2.5,2.7 -2.2,8 0.6,10.2 6.8,5.6 16.1,-4 9.9,-10.2 -2.6,-2.6 -8.1,-2.6 -10.5,0 z"
     id="path9160" />
  <path
     style="stroke-width:0.1"
     d="m 482.6,767.6 c -2.7,2.7 -3.1,6.3 -0.9,9.2 2.8,3.8 7.5,4.1 10.8,0.8 3,-3.1 3.2,-5.5 0.4,-9 -2.4,-3 -7.8,-3.6 -10.3,-1 z"
     id="path9162" />
  <path
     style="stroke-width:0.1"
     d="m 524,768 c -4.3,4.3 -1,12 5.2,12 5.9,0 9.3,-8.4 5,-12.3 -2.5,-2.3 -7.8,-2.1 -10.2,0.3 z"
     id="path9164" />
  <path
     style="stroke-width:0.1"
     d="m 565.7,767.8 c -4,4.4 -0.7,12.2 5.1,12.2 6,0 9.4,-7.8 5.2,-12 -2.6,-2.6 -8.1,-2.6 -10.3,-0.2 z"
     id="path9166" />
  <path
     style="stroke-width:0.1"
     d="m 607.1,768.6 c -2.7,3.5 -2.6,5.9 0.4,8.9 3.3,3.4 7.7,3.3 10.4,-0.1 1.2,-1.5 2.1,-3.4 2.1,-4.4 0,-3.4 -3.9,-7 -7.5,-7 -2.4,0 -3.9,0.7 -5.4,2.6 z"
     id="path9168" />
  <path
     style="stroke-width:0.1"
     d="m 649,768 c -6.1,6.1 2.7,15.4 9.8,10.4 2.8,-2 3.1,-8.3 0.4,-10.7 -2.5,-2.3 -7.8,-2.1 -10.2,0.3 z"
     id="path9170" />
  <path
     style="stroke-width:0.1"
     d="m 690.6,768.2 c -3.6,5.1 -0.5,11.8 5.4,11.8 5.9,0 9,-6.7 5.4,-11.8 -2.1,-3.1 -8.7,-3.1 -10.8,0 z"
     id="path9172" />
  <path
     style="stroke-width:0.1"
     d="m 732.7,767.8 c -2.5,2.8 -2.2,8.7 0.5,10.6 7.1,5 15.9,-4.3 9.8,-10.4 -2.6,-2.6 -8.1,-2.6 -10.3,-0.2 z"
     id="path9174" />
  <path
     style="stroke-width:0.1"
     d="m 774.1,768.6 c -1.2,1.5 -2.1,3.5 -2.1,4.6 0,2.7 4.5,6.8 7.5,6.8 3,0 7.5,-4.1 7.5,-6.8 0,-3.5 -3.8,-7.2 -7.5,-7.2 -2.4,0 -3.9,0.7 -5.4,2.6 z"
     id="path9176" />
  <path
     style="stroke-width:0.1"
     d="m 816,768 c -4.2,4.2 -0.8,12 5.3,12 5.8,0 9.1,-8.5 4.9,-12.3 -2.5,-2.3 -7.8,-2.1 -10.2,0.3 z"
     id="path9178" />
  <path
     style="stroke-width:0.1"
     d="m 857.1,768.6 c -1.2,1.5 -2.1,3.4 -2.1,4.4 0,3.2 3.9,7 7.1,7 3.4,0 7.9,-3.9 7.9,-6.8 0,-3.5 -3.8,-7.2 -7.5,-7.2 -2.4,0 -3.9,0.7 -5.4,2.6 z"
     id="path9180" />
  <path
     style="stroke-width:0.1"
     d="m 898.1,768.6 c -1.2,1.5 -2.1,3.5 -2.1,4.6 0,2.7 4.5,6.8 7.5,6.8 3,0 7.5,-4.1 7.5,-6.8 0,-3.5 -3.8,-7.2 -7.5,-7.2 -2.4,0 -3.9,0.7 -5.4,2.6 z"
     id="path9182" />
  <path
     style="stroke-width:0.1"
     d="m 940,768 c -2.6,2.6 -2.5,6 0.1,9.4 2.5,3.1 6.6,3.5 10,0.8 2.8,-2.3 3,-7.3 0.4,-10.2 -2.4,-2.6 -7.9,-2.6 -10.5,0 z"
     id="path9184" />
  <path
     style="stroke-width:0.1"
     d="m 981.6,768.2 c -3.6,5.1 -0.5,11.8 5.4,11.8 5.9,0 9,-6.7 5.4,-11.8 -2.1,-3.1 -8.7,-3.1 -10.8,0 z"
     id="path9186" />
  <path
     style="stroke-width:0.1"
     d="m 1023,768.7 c -3.7,4.7 -0.2,11.3 6,11.3 3.3,0 7,-4 7,-7.4 0,-6.3 -9,-8.9 -13,-3.9 z"
     id="path9188" />
  <path
     style="stroke-width:0.1"
     d="m 1065,768 c -2.6,2.6 -2.5,6 0.1,9.4 2.5,3.1 6.6,3.5 10,0.8 2.8,-2.3 3,-7.3 0.4,-10.2 -2.4,-2.6 -7.9,-2.6 -10.5,0 z"
     id="path9190" />
  <path
     style="stroke-width:0.1"
     d="m 1106.7,767.8 c -4,4.4 -0.7,12.2 5.1,12.2 6,0 9.4,-7.8 5.2,-12 -2.6,-2.6 -8.1,-2.6 -10.3,-0.2 z"
     id="path9192" />
  <path
     style="stroke-width:0.1"
     d="m 147.6,797.5 c -5.9,5.9 1,15.5 8.3,11.4 6.2,-3.5 4.1,-12.1 -3.1,-12.7 -2.3,-0.2 -4.1,0.3 -5.2,1.3 z"
     id="path9194" />
  <path
     style="stroke-width:0.1"
     d="m 1067.5,798.5 c -4,3.9 -2.9,9.7 2.2,11.6 5.8,2.2 11.6,-3.6 9.4,-9.4 -1.9,-5.1 -7.7,-6.2 -11.6,-2.2 z"
     id="path9196" />
  <path
     style="stroke-width:0.1"
     d="m 777.6,800.1 c -1.9,1.5 -2.6,3 -2.6,5.4 0,3.6 3.6,7.5 7,7.5 3.4,0 7,-3.9 7,-7.5 0,-3.6 -3.6,-7.5 -7,-7.5 -1,0 -2.9,0.9 -4.4,2.1 z"
     id="path9198" />
  <path
     style="stroke-width:0.1"
     d="m 912.1,800.6 c -1.2,1.5 -2.1,3.4 -2.1,4.4 0,3.4 3.9,7 7.5,7 3.6,0 7.5,-3.6 7.5,-7 0,-3.4 -3.9,-7 -7.5,-7 -2.4,0 -3.9,0.7 -5.4,2.6 z"
     id="path9200" />
  <path
     style="stroke-width:0.1"
     d="m 364.3,800 c -4.8,1.9 -5.8,8.7 -1.7,11.9 5.3,4.1 11.4,1.3 11.4,-5.2 0,-5.1 -5,-8.6 -9.7,-6.7 z"
     id="path9202" />
  <path
     style="stroke-width:0.1"
     d="m 676,804 c -4.2,4.2 -1.2,12 4.8,12 4.6,0 7.2,-2.5 7.2,-7 0,-2.9 -0.6,-4.3 -2.2,-5.4 -3.1,-2.2 -7.4,-2 -9.8,0.4 z"
     id="path9204" />
  <path
     style="stroke-width:0.1"
     d="m 438,804.3 c -5.2,2.6 -4.9,10.4 0.5,12.9 5.8,2.6 11.9,-3.3 9.5,-9.1 -0.6,-1.6 -2.3,-3.3 -3.6,-4 -3.1,-1.4 -3.3,-1.4 -6.4,0.2 z"
     id="path9206" />
  <path
     style="stroke-width:0.1"
     d="m 995.7,805.2 c -3.7,3.3 -4,7.5 -0.7,10.8 2.7,2.7 6.6,2.5 9.5,-0.5 2.9,-2.8 3.2,-6.5 0.8,-9.3 -2.8,-3.3 -6.6,-3.7 -9.6,-1 z"
     id="path9208" />
  <path
     style="stroke-width:0.1"
     d="m 615.4,806.2 c -6.9,3.3 -3.7,13.8 4.2,13.8 2.4,0 6.4,-4.7 6.4,-7.5 0,-3 -4.1,-7.5 -6.7,-7.4 -1,0 -2.8,0.5 -3.9,1.1 z"
     id="path9210" />
  <path
     style="stroke-width:0.1"
     d="m 555.2,808 c -4.5,1.9 -5.1,9.6 -0.9,12.5 5,3.5 11.1,0.2 11.1,-5.9 0,-2 -0.7,-4.3 -1.4,-5 -2,-2 -6,-2.7 -8.8,-1.6 z"
     id="path9212" />
  <path
     style="stroke-width:0.1"
     d="m 61.1,829.6 c -1.2,1.5 -2.1,3.4 -2.1,4.4 0,3.4 3.9,7 7.5,7 3.6,0 7.5,-3.6 7.5,-7 0,-3.4 -3.9,-7 -7.5,-7 -2.4,0 -3.9,0.7 -5.4,2.6 z"
     id="path9214" />
  <path
     style="stroke-width:0.1"
     d="m 830.9,828.8 c -4.8,4 -1.7,12.2 4.7,12.2 6.6,0 9.8,-7.4 5.1,-11.8 -2.8,-2.7 -6.7,-2.8 -9.8,-0.4 z"
     id="path9216" />
  <path
     style="stroke-width:0.1"
     d="m 291,834.7 c -5.1,1.9 -6.8,8.5 -3,12.3 4.5,4.5 12,1.1 12,-5.3 0,-4.7 -4.9,-8.5 -9,-7 z"
     id="path9218" />
  <path
     style="stroke-width:0.1"
     d="m 127.7,836.8 c -4,4.4 -0.7,12.2 5.1,12.2 6,0 9.4,-7.8 5.2,-12 -2.6,-2.6 -8.1,-2.6 -10.3,-0.2 z"
     id="path9220" />
  <path
     style="stroke-width:0.1"
     d="m 217.5,837 c -4.2,4.7 -0.8,12 5.5,12 3.3,0 7,-4 7,-7.6 0,-5.7 -8.6,-8.7 -12.5,-4.4 z"
     id="path9222" />
  <path
     style="stroke-width:0.1"
     d="m 709.5,837 c -4.2,4.7 -0.8,12 5.5,12 3.3,0 7,-4 7,-7.6 0,-5.7 -8.6,-8.7 -12.5,-4.4 z"
     id="path9224" />
  <path
     style="stroke-width:0.1"
     d="m 498,838.7 c -5.1,1.9 -6.8,8.5 -3,12.3 6.1,6.1 15.9,-3.2 10.3,-9.8 -2,-2.3 -5,-3.3 -7.3,-2.5 z"
     id="path9226" />
  <path
     style="stroke-width:0.1"
     d="m 1091,841 c -2.6,2.6 -2.6,8.1 0,10.5 2.9,2.6 7.9,2.4 10.2,-0.4 2.7,-3.4 2.3,-7.5 -0.8,-10 -3.4,-2.6 -6.8,-2.7 -9.4,-0.1 z"
     id="path9228" />
  <path
     style="stroke-width:0.1"
     d="m 991.6,848.1 c -2.6,2 -3.6,6.9 -1.8,9.5 1,1.5 4.7,3.4 6.7,3.4 2.5,0 6.5,-4.6 6.5,-7.5 0,-3 -4.1,-7.5 -6.8,-7.5 -1.1,0 -3.1,0.9 -4.6,2.1 z"
     id="path9230" />
  <path
     style="stroke-width:0.1"
     d="m 417.2,856 c -5,4.7 -0.6,14 5.8,12.5 6,-1.4 8,-8.8 3.4,-12.4 -3.4,-2.7 -6.4,-2.7 -9.2,-0.1 z"
     id="path9232" />
  <path
     style="stroke-width:0.1"
     d="m 18.5,860.5 c -2.8,2.7 -3,4.2 -1.4,7.9 3.2,6.9 13.9,3.8 13.9,-4 0,-2.4 -4.7,-6.4 -7.5,-6.4 -1.4,0 -3.7,1.1 -5,2.5 z"
     id="path9234" />
  <path
     style="stroke-width:0.1"
     d="m 335,860 c -2.6,2.6 -2.6,8.1 0,10.5 2.9,2.6 7.9,2.4 10.2,-0.4 2.7,-3.4 2.3,-7.5 -0.8,-10 -3.4,-2.6 -6.8,-2.7 -9.4,-0.1 z"
     id="path9236" />
  <path
     style="stroke-width:0.1"
     d="m 638,863 c -4.3,4.3 -1.1,12 5,12 3.8,0 7,-3.2 7,-7 0,-3.8 -3.2,-7 -7,-7 -1.7,0 -3.9,0.9 -5,2 z"
     id="path9238" />
  <path
     style="stroke-width:0.1"
     d="m 167.3,865.2 c -2.8,1.4 -4.3,5.5 -3.1,8.9 0.9,2.6 4.4,4.9 7.4,4.9 2.4,0 6.4,-4.7 6.4,-7.5 0,-3 -4.1,-7.5 -6.7,-7.4 -1,0 -2.8,0.5 -4,1.1 z"
     id="path9240" />
  <path
     style="stroke-width:0.1"
     d="m 1047,870.2 c -2.7,2.9 -2.5,6.9 0.3,9.6 4.6,4.3 12,1.5 12,-4.6 0,-6.6 -7.8,-9.8 -12.3,-5 z"
     id="path9242" />
  <path
     style="stroke-width:0.1"
     d="m 909.2,871.6 c -1.6,1.1 -2.2,2.5 -2.2,5.4 0,2.9 0.6,4.3 2.2,5.4 5.1,3.6 11.8,0.5 11.8,-5.4 0,-5.9 -6.7,-9 -11.8,-5.4 z"
     id="path9244" />
  <path
     style="stroke-width:0.1"
     d="m 565,876 c -6.1,6.1 2.7,15.4 9.8,10.4 2.8,-2 3.1,-8.3 0.4,-10.7 -2.5,-2.3 -7.8,-2.1 -10.2,0.3 z"
     id="path9246" />
  <path
     style="stroke-width:0.1"
     d="m 756.1,876.6 c -2.7,3.5 -2.6,5.9 0.4,8.9 3.3,3.4 7.7,3.3 10.4,-0.1 1.2,-1.5 2.1,-3.4 2.1,-4.4 0,-3.4 -3.9,-7 -7.5,-7 -2.4,0 -3.9,0.7 -5.4,2.6 z"
     id="path9248" />
  <path
     style="stroke-width:0.1"
     d="m 838.1,880.6 c -1.2,1.5 -2.1,3.5 -2.1,4.6 0,2.7 4.5,6.8 7.5,6.8 2.9,0 7.5,-4 7.5,-6.5 0,-2 -1.9,-5.7 -3.4,-6.7 -2.6,-1.8 -7.5,-0.8 -9.5,1.8 z"
     id="path9250" />
</svg>
