<?xml version="1.0" standalone="no"?>
<!DOCTYPE svg PUBLIC "-//W3C//DTD SVG 20010904//EN"
 "http://www.w3.org/TR/2001/REC-SVG-20010904/DTD/svg10.dtd">
<svg version="1.0" xmlns="http://www.w3.org/2000/svg"
 width="48.000000pt" height="48.000000pt" viewBox="0 0 48.000000 48.000000"
 preserveAspectRatio="xMidYMid meet">

<g transform="translate(0.000000,48.000000) scale(0.100000,-0.100000)"
fill="param(fill) #636363" stroke="param(outline) #000">
<path d="M3 468 c30 -79 71 -168 77 -168 8 0 82 171 76 177 -2 2 -18 -32 -36
-77 -19 -44 -37 -80 -40 -80 -3 0 -21 36 -39 80 -19 44 -36 80 -38 80 -3 0 -3
-6 0 -12z"/>
<path d="M243 228 c30 -79 71 -168 77 -168 8 0 82 171 76 177 -2 2 -18 -32
-36 -77 -19 -44 -37 -80 -40 -80 -3 0 -21 36 -39 80 -19 44 -36 80 -38 80 -3
0 -3 -6 0 -12z"/>
</g>
</svg>
