<?xml version="1.0" standalone="no"?>
<!DOCTYPE svg PUBLIC "-//W3C//DTD SVG 20010904//EN"
 "http://www.w3.org/TR/2001/REC-SVG-20010904/DTD/svg10.dtd">
<svg version="1.0" xmlns="http://www.w3.org/2000/svg"
 width="64.000000pt" height="64.000000pt" viewBox="0 0 64.000000 64.000000"
 preserveAspectRatio="xMidYMid meet">

<g transform="translate(0.000000,64.000000) scale(0.100000,-0.100000)"
fill="param(fill) #636363" stroke="param(outline) #000">
<path d="M240 633 c1 -12 39 -79 40 -70 0 4 -7 21 -15 37 l-15 29 38 4 37 4
-42 1 c-24 1 -43 -1 -43 -5z"/>
<path d="M20 595 c-14 -8 -21 -14 -15 -14 6 0 21 6 35 14 14 8 21 14 15 14 -5
0 -21 -6 -35 -14z"/>
<path d="M625 580 c3 -5 8 -10 11 -10 2 0 4 5 4 10 0 6 -5 10 -11 10 -5 0 -7
-4 -4 -10z"/>
<path d="M137 543 c-17 -43 -12 -48 35 -34 l33 11 -32 -5 c-35 -5 -40 3 -22
37 6 11 9 22 6 24 -2 3 -11 -12 -20 -33z"/>
<path d="M460 539 c12 -23 23 -39 25 -37 2 2 15 21 30 43 l25 40 -29 -34 -29
-33 -16 31 c-9 17 -19 31 -21 31 -3 0 4 -18 15 -41z"/>
<path d="M20 545 c14 -8 30 -14 35 -14 6 0 -1 6 -15 14 -14 8 -29 14 -35 14
-6 0 1 -6 15 -14z"/>
<path d="M278 503 c17 -9 32 -19 32 -23 0 -4 -15 -14 -32 -23 -18 -8 -28 -16
-23 -16 6 -1 26 9 45 20 l34 21 -34 19 c-19 10 -39 18 -45 18 -5 0 5 -8 23
-16z"/>
<path d="M398 457 l-37 -23 45 -22 c25 -13 43 -18 40 -14 -3 5 -20 15 -37 22
l-31 13 38 24 c22 12 35 23 29 23 -5 -1 -27 -11 -47 -23z"/>
<path d="M530 419 c29 -57 28 -56 40 -28 5 13 17 35 27 49 21 31 4 15 -24 -22
l-21 -28 -12 30 c-7 17 -17 33 -22 36 -5 3 0 -14 12 -37z"/>
<path d="M55 441 c11 -5 28 -12 38 -15 17 -6 17 -8 -3 -38 l-22 -33 31 35 c35
40 38 49 14 48 -10 -1 -31 1 -48 5 -22 5 -25 4 -10 -2z"/>
<path d="M265 350 c20 -39 21 -39 -25 -46 -23 -4 -39 -9 -36 -11 2 -3 25 -1
50 2 l45 7 -20 39 c-10 21 -22 39 -24 39 -3 0 1 -13 10 -30z"/>
<path d="M362 345 c0 -5 5 -25 11 -43 l12 -33 35 38 c33 36 33 36 3 9 l-32
-29 -15 34 c-8 19 -14 30 -14 24z"/>
<path d="M126 295 l-7 -35 -29 15 c-17 9 -30 13 -30 11 0 -7 61 -39 65 -34 6
6 17 78 12 78 -3 0 -8 -16 -11 -35z"/>
<path d="M530 281 l-24 -7 34 -35 c19 -19 24 -22 11 -7 -28 32 -25 37 21 48
26 6 28 8 8 8 -14 0 -36 -3 -50 -7z"/>
<path d="M2 208 c-1 -27 1 -48 6 -48 11 1 78 39 69 40 -4 0 -21 -7 -37 -15
l-29 -15 -4 43 -4 42 -1 -47z"/>
<path d="M253 229 c-18 -5 -33 -12 -33 -15 0 -3 10 -2 23 1 62 18 59 18 52 -7
-15 -51 -16 -64 -7 -48 6 8 13 30 17 48 7 35 3 37 -52 21z"/>
<path d="M131 175 l-20 -35 42 2 c37 1 38 2 10 5 l-33 4 15 30 c21 41 11 36
-14 -6z"/>
<path d="M459 193 c-27 -33 -34 -49 -9 -21 14 16 28 28 32 28 3 0 12 -16 18
-36 7 -19 14 -33 17 -31 7 7 -25 77 -35 77 -5 0 -15 -8 -23 -17z"/>
<path d="M327 113 c-38 -27 -38 -27 -15 -39 13 -6 34 -14 48 -18 14 -3 7 2
-14 12 l-39 18 34 27 c44 35 35 35 -14 0z"/>
<path d="M150 96 c0 -2 17 -14 37 -26 l37 -22 -32 -20 c-41 -26 -42 -35 -1
-11 50 29 50 36 3 61 -24 12 -44 20 -44 18z"/>
<path d="M5 55 c0 -23 1 -24 13 -8 6 9 12 20 12 25 0 4 -6 8 -12 8 -7 0 -13
-11 -13 -25z"/>
<path d="M588 73 c12 -2 30 -2 40 0 9 3 -1 5 -23 4 -22 0 -30 -2 -17 -4z"/>
<path d="M443 49 c-42 -12 -43 -20 -2 -12 29 6 31 4 25 -18 l-7 -24 15 25 c26
43 24 45 -31 29z"/>
<path d="M614 18 l-19 -23 23 19 c21 18 27 26 19 26 -2 0 -12 -10 -23 -22z"/>
</g>
</svg>
