<?xml version="1.0" standalone="no"?>
<!DOCTYPE svg PUBLIC "-//W3C//DTD SVG 20010904//EN"
 "http://www.w3.org/TR/2001/REC-SVG-20010904/DTD/svg10.dtd">
<svg version="1.0" xmlns="http://www.w3.org/2000/svg"
 width="64.000000pt" height="66.000000pt" viewBox="0 0 64.000000 66.000000"
 preserveAspectRatio="xMidYMid meet">

<g transform="translate(0.000000,66.000000) scale(0.100000,-0.100000)"
fill="param(fill) #636363" stroke="param(outline) #000">
<path d="M245 650 c3 -5 11 -10 16 -10 6 0 7 5 4 10 -3 6 -11 10 -16 10 -6 0
-7 -4 -4 -10z"/>
<path d="M363 647 c-17 -7 -35 -15 -39 -19 -14 -14 21 -8 61 11 44 21 29 26
-22 8z"/>
<path d="M544 614 c-21 -51 -10 -54 16 -5 11 23 16 41 10 41 -6 0 -18 -16 -26
-36z"/>
<path d="M47 594 c-11 -14 -16 -28 -12 -32 7 -7 45 34 45 49 0 16 -15 9 -33
-17z"/>
<path d="M164 580 c4 -25 12 -49 18 -55 7 -7 9 3 4 35 -4 25 -12 50 -18 55 -7
7 -9 -3 -4 -35z"/>
<path d="M414 570 c3 -19 11 -39 18 -45 8 -7 9 -1 4 25 -3 19 -11 39 -18 45
-8 7 -9 1 -4 -25z"/>
<path d="M291 524 c-12 -20 -20 -42 -18 -48 2 -6 14 9 26 32 28 54 21 66 -8
16z"/>
<path d="M581 494 c-12 -20 -19 -39 -16 -42 6 -6 6 -7 33 41 12 20 17 37 13
37 -5 0 -19 -16 -30 -36z"/>
<path d="M73 470 c6 -22 15 -40 19 -40 11 0 10 38 -2 61 -18 33 -28 21 -17
-21z"/>
<path d="M350 505 c0 -16 44 -88 47 -78 5 13 -22 68 -37 78 -5 3 -10 3 -10 0z"/>
<path d="M475 460 c-16 -16 -25 -33 -22 -37 4 -3 8 -4 10 -2 1 2 15 19 31 37
37 40 20 43 -19 2z"/>
<path d="M180 440 c-19 -16 -32 -32 -28 -35 4 -4 22 7 40 23 18 17 30 33 28
36 -3 2 -21 -8 -40 -24z"/>
<path d="M610 412 c0 -5 7 -15 15 -22 8 -7 15 -8 15 -2 0 5 -7 15 -15 22 -8 7
-15 8 -15 2z"/>
<path d="M297 373 c-8 -21 -12 -42 -9 -48 3 -5 8 -2 10 5 3 8 11 30 18 48 7
17 9 32 5 32 -5 0 -16 -17 -24 -37z"/>
<path d="M0 394 c0 -6 16 -25 35 -44 19 -19 35 -29 35 -24 0 6 -16 25 -35 44
-19 19 -35 29 -35 24z"/>
<path d="M450 382 c0 -4 20 -15 45 -24 56 -21 60 -6 5 16 -46 18 -50 19 -50 8z"/>
<path d="M180 341 c0 -11 66 -51 83 -51 14 1 -16 25 -55 46 -16 8 -28 10 -28
5z"/>
<path d="M90 285 c-19 -19 -29 -35 -24 -35 13 0 69 58 63 65 -3 2 -21 -11 -39
-30z"/>
<path d="M364 294 c-48 -32 -49 -33 -42 -39 7 -7 88 46 88 57 0 12 -3 11 -46
-18z"/>
<path d="M590 275 c-18 -19 -31 -37 -29 -40 3 -2 21 11 39 30 18 19 31 37 29
40 -3 2 -21 -11 -39 -30z"/>
<path d="M171 229 c-13 -39 -14 -57 -2 -44 13 16 31 75 21 75 -4 0 -13 -14
-19 -31z"/>
<path d="M250 225 c0 -12 35 -75 42 -75 11 0 10 4 -9 45 -14 29 -33 47 -33 30z"/>
<path d="M440 222 c0 -5 18 -23 40 -41 48 -38 54 -23 8 19 -34 30 -48 37 -48
22z"/>
<path d="M63 183 c-29 -14 -44 -33 -28 -33 10 0 85 40 85 45 0 9 -25 4 -57
-12z"/>
<path d="M612 183 c-7 -12 -12 -29 -12 -37 0 -9 -4 -16 -9 -16 -12 0 -22 -28
-12 -35 11 -6 54 82 48 98 -2 7 -9 2 -15 -10z"/>
<path d="M338 105 c-38 -25 -56 -45 -40 -45 10 0 92 58 92 65 0 10 -15 4 -52
-20z"/>
<path d="M95 100 c3 -5 25 -10 48 -10 31 0 38 3 27 10 -20 13 -83 13 -75 0z"/>
<path d="M430 84 c-12 -31 -12 -34 -2 -34 8 0 32 43 32 55 0 16 -22 1 -30 -21z"/>
<path d="M20 64 c0 -17 37 -60 45 -53 3 4 -5 20 -19 35 -14 16 -26 24 -26 18z"/>
<path d="M490 62 c0 -5 27 -16 60 -24 62 -15 84 -7 28 10 -59 18 -88 23 -88
14z"/>
<path d="M170 45 c0 -7 81 -47 86 -42 6 6 -60 47 -75 47 -6 0 -11 -2 -11 -5z"/>
<path d="M405 10 c-3 -5 1 -10 9 -10 9 0 16 5 16 10 0 6 -4 10 -9 10 -6 0 -13
-4 -16 -10z"/>
</g>
</svg>
